v -0.000000 0.072888 0.142784
v -0.059527 0.072888 0.131030
v -0.058697 0.080886 0.129079
v -0.000000 0.080886 0.140668
v -0.059660 0.083552 0.131343
v -0.000000 0.083552 0.143123
v -0.061620 0.080886 0.135949
v -0.000000 0.080886 0.148116
v -0.063779 0.072888 0.141024
v -0.000000 0.072888 0.153617
v -0.107680 0.072888 0.098802
v -0.106178 0.080886 0.097300
v -0.107920 0.083552 0.099043
v -0.111465 0.080886 0.102588
v -0.115371 0.072888 0.106494
v -0.139908 0.072888 0.050650
v -0.137956 0.080886 0.049819
v -0.140220 0.083552 0.050783
v -0.144826 0.080886 0.052742
v -0.149901 0.072888 0.054902
v -0.151662 0.072888 -0.008877
v -0.149546 0.080886 -0.008877
v -0.152000 0.083552 -0.008877
v -0.156993 0.080886 -0.008877
v -0.162495 0.072888 -0.008877
v -0.139908 0.072888 -0.072518
v -0.137956 0.080886 -0.069309
v -0.140220 0.083552 -0.069052
v -0.144826 0.080886 -0.070562
v -0.149901 0.072888 -0.072657
v -0.107680 0.072888 -0.120213
v -0.106178 0.080886 -0.116597
v -0.107920 0.083552 -0.117255
v -0.111465 0.080886 -0.120400
v -0.115371 0.072888 -0.124249
v -0.059527 0.072888 -0.150156
v -0.058697 0.080886 -0.147412
v -0.059660 0.083552 -0.149269
v -0.061620 0.080886 -0.153725
v -0.063779 0.072888 -0.158779
v -0.000000 0.072888 -0.160539
v -0.000000 0.080886 -0.158423
v -0.000000 0.083552 -0.160878
v -0.000000 0.080886 -0.165871
v -0.000000 0.072888 -0.171372
v -0.000000 0.072888 -0.160539
v 0.059527 0.072888 -0.148785
v 0.058697 0.080886 -0.146833
v -0.000000 0.080886 -0.158423
v 0.059660 0.083552 -0.149098
v -0.000000 0.083552 -0.160878
v 0.061620 0.080886 -0.153704
v -0.000000 0.080886 -0.165871
v 0.063779 0.072888 -0.158779
v -0.000000 0.072888 -0.171372
v 0.107680 0.072888 -0.116557
v 0.106177 0.080886 -0.115055
v 0.107920 0.083552 -0.116798
v 0.111465 0.080886 -0.120343
v 0.115371 0.072888 -0.124249
v 0.139908 0.072888 -0.068405
v 0.137956 0.080886 -0.067574
v 0.140220 0.083552 -0.068537
v 0.144826 0.080886 -0.070497
v 0.149901 0.072888 -0.072657
v 0.151662 0.072888 -0.008877
v 0.149546 0.080886 -0.008877
v 0.152000 0.083552 -0.008877
v 0.156993 0.080886 -0.008877
v 0.162495 0.072888 -0.008877
v 0.139908 0.072888 0.050650
v 0.137956 0.080886 0.049819
v 0.140220 0.083552 0.050783
v 0.144826 0.080886 0.052742
v 0.149901 0.072888 0.054902
v 0.107680 0.072888 0.098802
v 0.106177 0.080886 0.097300
v 0.107920 0.083552 0.099043
v 0.111465 0.080886 0.102588
v 0.115371 0.072888 0.106494
v 0.059527 0.072888 0.131030
v 0.058697 0.080886 0.129079
v 0.059660 0.083552 0.131343
v 0.061620 0.080886 0.135949
v 0.063779 0.072888 0.141024
v -0.000000 0.072888 0.142784
v -0.000000 0.080886 0.140668
v -0.000000 0.083552 0.143123
v -0.000000 0.080886 0.148116
v -0.000000 0.072888 0.153617
v -0.000000 0.072888 0.153617
v -0.063779 0.072888 0.141024
v -0.071585 0.030360 0.159371
v -0.000000 0.030360 0.173506
v -0.078395 -0.011406 0.175376
v -0.000000 -0.011406 0.190855
v -0.083212 -0.051649 0.186697
v -0.000000 -0.051649 0.203127
v -0.085039 -0.089607 0.190991
v -0.000000 -0.089607 0.207782
v -0.115371 0.072888 0.106494
v -0.129492 0.030360 0.120615
v -0.141810 -0.011406 0.132933
v -0.150523 -0.051649 0.141646
v -0.153828 -0.089607 0.144951
v -0.149901 0.072888 0.054902
v -0.168249 0.030360 0.062708
v -0.184254 -0.011406 0.069518
v -0.195574 -0.051649 0.074334
v -0.199868 -0.089607 0.076161
v -0.162495 0.072888 -0.008877
v -0.182383 0.030360 -0.008877
v -0.199733 -0.011406 -0.008877
v -0.212005 -0.051649 -0.008877
v -0.216659 -0.089607 -0.008877
v -0.149901 0.072888 -0.072657
v -0.168249 0.030360 -0.080463
v -0.184254 -0.011406 -0.087273
v -0.195574 -0.051649 -0.092089
v -0.199868 -0.089607 -0.093916
v -0.115371 0.072888 -0.124249
v -0.129492 0.030360 -0.138370
v -0.141810 -0.011406 -0.150688
v -0.150523 -0.051649 -0.159401
v -0.153828 -0.089607 -0.162706
v -0.063779 0.072888 -0.158779
v -0.071585 0.030360 -0.177126
v -0.078395 -0.011406 -0.193131
v -0.083212 -0.051649 -0.204452
v -0.085039 -0.089607 -0.208746
v -0.000000 0.072888 -0.171372
v -0.000000 0.030360 -0.191261
v -0.000000 -0.011406 -0.208610
v -0.000000 -0.051649 -0.220882
v -0.000000 -0.089607 -0.225537
v -0.000000 0.072888 -0.171372
v 0.063779 0.072888 -0.158779
v 0.071585 0.030360 -0.177126
v -0.000000 0.030360 -0.191261
v 0.078395 -0.011406 -0.193131
v -0.000000 -0.011406 -0.208610
v 0.083212 -0.051649 -0.204452
v -0.000000 -0.051649 -0.220882
v 0.085039 -0.089607 -0.208746
v -0.000000 -0.089607 -0.225537
v 0.115371 0.072888 -0.124249
v 0.129492 0.030360 -0.138370
v 0.141810 -0.011406 -0.150688
v 0.150523 -0.051649 -0.159401
v 0.153828 -0.089607 -0.162706
v 0.149901 0.072888 -0.072657
v 0.168248 0.030360 -0.080463
v 0.184254 -0.011406 -0.087273
v 0.195574 -0.051649 -0.092089
v 0.199868 -0.089607 -0.093916
v 0.162495 0.072888 -0.008877
v 0.182383 0.030360 -0.008877
v 0.199733 -0.011406 -0.008877
v 0.212005 -0.051649 -0.008877
v 0.216659 -0.089607 -0.008877
v 0.149901 0.072888 0.054902
v 0.168248 0.030360 0.062708
v 0.184254 -0.011406 0.069518
v 0.195574 -0.051649 0.074334
v 0.199868 -0.089607 0.076161
v 0.115371 0.072888 0.106494
v 0.129492 0.030360 0.120615
v 0.141810 -0.011406 0.132933
v 0.150523 -0.051649 0.141646
v 0.153828 -0.089607 0.144951
v 0.063779 0.072888 0.141024
v 0.071585 0.030360 0.159371
v 0.078395 -0.011406 0.175376
v 0.083212 -0.051649 0.186697
v 0.085039 -0.089607 0.190991
v -0.000000 0.072888 0.153617
v -0.000000 0.030360 0.173506
v -0.000000 -0.011406 0.190855
v -0.000000 -0.051649 0.203127
v -0.000000 -0.089607 0.207782
v -0.000000 -0.089607 0.207782
v -0.085039 -0.089607 0.190991
v -0.081717 -0.121725 0.183184
v -0.000000 -0.121725 0.199319
v -0.074409 -0.145464 0.166007
v -0.000000 -0.145464 0.180700
v -0.067101 -0.161587 0.148831
v -0.000000 -0.161587 0.162080
v -0.063779 -0.170854 0.141024
v -0.000000 -0.170854 0.153617
v -0.153828 -0.089607 0.144951
v -0.147819 -0.121725 0.138942
v -0.134600 -0.145464 0.125722
v -0.121380 -0.161587 0.112503
v -0.115371 -0.170854 0.106494
v -0.199868 -0.089607 0.076161
v -0.192061 -0.121725 0.072840
v -0.174885 -0.145464 0.065532
v -0.157709 -0.161587 0.058223
v -0.149901 -0.170854 0.054902
v -0.216659 -0.089607 -0.008877
v -0.208196 -0.121725 -0.008877
v -0.189577 -0.145464 -0.008877
v -0.170958 -0.161587 -0.008877
v -0.162495 -0.170854 -0.008877
v -0.199868 -0.089607 -0.093916
v -0.192061 -0.121725 -0.090594
v -0.174885 -0.145464 -0.083286
v -0.157709 -0.161587 -0.075978
v -0.149901 -0.170854 -0.072657
v -0.153828 -0.089607 -0.162706
v -0.147819 -0.121725 -0.156697
v -0.134600 -0.145464 -0.143477
v -0.121380 -0.161587 -0.130257
v -0.115371 -0.170854 -0.124249
v -0.085039 -0.089607 -0.208746
v -0.081717 -0.121725 -0.200938
v -0.074409 -0.145464 -0.183762
v -0.067101 -0.161587 -0.166586
v -0.063779 -0.170854 -0.158779
v -0.000000 -0.089607 -0.225537
v -0.000000 -0.121725 -0.217074
v -0.000000 -0.145464 -0.198454
v -0.000000 -0.161587 -0.179835
v -0.000000 -0.170854 -0.171372
v -0.000000 -0.089607 -0.225537
v 0.085039 -0.089607 -0.208746
v 0.081717 -0.121725 -0.200938
v -0.000000 -0.121725 -0.217074
v 0.074409 -0.145464 -0.183762
v -0.000000 -0.145464 -0.198454
v 0.067101 -0.161587 -0.166586
v -0.000000 -0.161587 -0.179835
v 0.063779 -0.170854 -0.158779
v -0.000000 -0.170854 -0.171372
v 0.153828 -0.089607 -0.162706
v 0.147819 -0.121725 -0.156697
v 0.134600 -0.145464 -0.143477
v 0.121380 -0.161587 -0.130257
v 0.115371 -0.170854 -0.124249
v 0.199868 -0.089607 -0.093916
v 0.192061 -0.121725 -0.090594
v 0.174885 -0.145464 -0.083286
v 0.157709 -0.161587 -0.075978
v 0.149901 -0.170854 -0.072657
v 0.216659 -0.089607 -0.008877
v 0.208196 -0.121725 -0.008877
v 0.189577 -0.145464 -0.008877
v 0.170958 -0.161587 -0.008877
v 0.162495 -0.170854 -0.008877
v 0.199868 -0.089607 0.076161
v 0.192061 -0.121725 0.072840
v 0.174885 -0.145464 0.065532
v 0.157709 -0.161587 0.058223
v 0.149901 -0.170854 0.054902
v 0.153828 -0.089607 0.144951
v 0.147819 -0.121725 0.138942
v 0.134600 -0.145464 0.125722
v 0.121380 -0.161587 0.112503
v 0.115371 -0.170854 0.106494
v 0.085039 -0.089607 0.190991
v 0.081717 -0.121725 0.183184
v 0.074409 -0.145464 0.166007
v 0.067101 -0.161587 0.148831
v 0.063779 -0.170854 0.141024
v -0.000000 -0.089607 0.207782
v -0.000000 -0.121725 0.199319
v -0.000000 -0.145464 0.180700
v -0.000000 -0.161587 0.162080
v -0.000000 -0.170854 0.153617
v -0.000000 -0.170854 0.153617
v -0.063779 -0.170854 0.141024
v -0.062334 -0.176820 0.137628
v -0.000000 -0.176820 0.149936
v -0.054611 -0.182025 0.119475
v -0.000000 -0.182025 0.130259
v -0.035527 -0.185707 0.074622
v -0.000000 -0.185707 0.081637
v -0.000000 -0.187103 -0.008877
v -0.115371 -0.170854 0.106494
v -0.112757 -0.176820 0.103880
v -0.098787 -0.182025 0.089909
v -0.064265 -0.185707 0.055388
v -0.000000 -0.187103 -0.008877
v -0.149901 -0.170854 0.054902
v -0.146505 -0.176820 0.053457
v -0.128353 -0.182025 0.045733
v -0.083500 -0.185707 0.026650
v -0.000000 -0.187103 -0.008877
v -0.162495 -0.170854 -0.008877
v -0.158813 -0.176820 -0.008877
v -0.139136 -0.182025 -0.008877
v -0.090515 -0.185707 -0.008877
v -0.000000 -0.187103 -0.008877
v -0.149901 -0.170854 -0.072657
v -0.146505 -0.176820 -0.071212
v -0.128353 -0.182025 -0.063488
v -0.083500 -0.185707 -0.044404
v -0.000000 -0.187103 -0.008877
v -0.115371 -0.170854 -0.124249
v -0.112757 -0.176820 -0.121635
v -0.098787 -0.182025 -0.107664
v -0.064265 -0.185707 -0.073143
v -0.000000 -0.187103 -0.008877
v -0.063779 -0.170854 -0.158779
v -0.062334 -0.176820 -0.155382
v -0.054611 -0.182025 -0.137230
v -0.035527 -0.185707 -0.092377
v -0.000000 -0.187103 -0.008877
v -0.000000 -0.170854 -0.171372
v -0.000000 -0.176820 -0.167691
v -0.000000 -0.182025 -0.148013
v -0.000000 -0.185707 -0.099392
v -0.000000 -0.187103 -0.008877
v -0.000000 -0.170854 -0.171372
v 0.063779 -0.170854 -0.158779
v 0.062334 -0.176820 -0.155382
v -0.000000 -0.176820 -0.167691
v 0.054611 -0.182025 -0.137230
v -0.000000 -0.182025 -0.148013
v 0.035527 -0.185707 -0.092377
v -0.000000 -0.185707 -0.099392
v 0.115371 -0.170854 -0.124249
v 0.112757 -0.176820 -0.121635
v 0.098786 -0.182025 -0.107664
v 0.064265 -0.185707 -0.073143
v 0.149901 -0.170854 -0.072657
v 0.146505 -0.176820 -0.071212
v 0.128353 -0.182025 -0.063488
v 0.083500 -0.185707 -0.044404
v 0.162495 -0.170854 -0.008877
v 0.158813 -0.176820 -0.008877
v 0.139136 -0.182025 -0.008877
v 0.090515 -0.185707 -0.008877
v 0.149901 -0.170854 0.054902
v 0.146505 -0.176820 0.053457
v 0.128353 -0.182025 0.045733
v 0.083500 -0.185707 0.026650
v 0.115371 -0.170854 0.106494
v 0.112757 -0.176820 0.103880
v 0.098786 -0.182025 0.089909
v 0.064265 -0.185707 0.055388
v 0.063779 -0.170854 0.141024
v 0.062334 -0.176820 0.137628
v 0.054611 -0.182025 0.119475
v 0.035527 -0.185707 0.074622
v -0.000000 -0.170854 0.153617
v -0.000000 -0.176820 0.149936
v -0.000000 -0.182025 0.130259
v -0.000000 -0.185707 0.081637
v -0.000000 0.032264 -0.182205
v -0.018281 0.036073 -0.180512
v -0.018281 0.035632 -0.234323
v -0.000000 0.031883 -0.232815
v -0.018281 0.032550 -0.273820
v -0.000000 0.029218 -0.270223
v -0.018281 0.024183 -0.298146
v -0.000000 0.021981 -0.293412
v -0.018281 0.007890 -0.306446
v -0.000000 0.007890 -0.301368
v -0.024374 0.044451 -0.176788
v -0.024374 0.043880 -0.237639
v -0.024374 0.039881 -0.281733
v -0.024374 0.029027 -0.308561
v -0.024374 0.007890 -0.317617
v -0.018281 0.052830 -0.173065
v -0.018281 0.052128 -0.240956
v -0.018281 0.047213 -0.289646
v -0.018281 0.033871 -0.318976
v -0.018281 0.007890 -0.328789
v -0.000000 0.056639 -0.171372
v -0.000000 0.055877 -0.242463
v -0.000000 0.050545 -0.293243
v -0.000000 0.036073 -0.323711
v -0.000000 0.007890 -0.333867
v 0.018281 0.052830 -0.173065
v 0.018281 0.052128 -0.240956
v 0.018281 0.047213 -0.289646
v 0.018281 0.033871 -0.318976
v 0.018281 0.007890 -0.328789
v 0.024374 0.044451 -0.176788
v 0.024374 0.043880 -0.237639
v 0.024374 0.039881 -0.281733
v 0.024374 0.029027 -0.308561
v 0.024374 0.007890 -0.317617
v 0.018281 0.036073 -0.180512
v 0.018281 0.035632 -0.234323
v 0.018281 0.032550 -0.273820
v 0.018281 0.024183 -0.298146
v 0.018281 0.007890 -0.306446
v -0.000000 0.032264 -0.182205
v -0.000000 0.031883 -0.232815
v -0.000000 0.029218 -0.270223
v -0.000000 0.021981 -0.293412
v -0.000000 0.007890 -0.301368
v -0.018281 -0.016331 -0.301751
v -0.000000 -0.014199 -0.297136
v -0.018281 -0.044111 -0.287044
v -0.000000 -0.040858 -0.283764
v -0.018281 -0.071534 -0.261387
v -0.000000 -0.067517 -0.260236
v -0.018281 -0.094685 -0.223844
v -0.000000 -0.089607 -0.225537
v -0.024374 -0.021022 -0.311904
v -0.024374 -0.051268 -0.294259
v -0.024374 -0.080371 -0.263918
v -0.024374 -0.105856 -0.220120
v -0.018281 -0.025714 -0.322058
v -0.018281 -0.058425 -0.301473
v -0.018281 -0.089208 -0.266449
v -0.018281 -0.117028 -0.216397
v -0.000000 -0.027846 -0.326673
v -0.000000 -0.061678 -0.304753
v -0.000000 -0.093225 -0.267599
v -0.000000 -0.122106 -0.214704
v 0.018281 -0.025714 -0.322058
v 0.018281 -0.058425 -0.301473
v 0.018281 -0.089208 -0.266449
v 0.018281 -0.117028 -0.216397
v 0.024374 -0.021022 -0.311904
v 0.024374 -0.051268 -0.294258
v 0.024374 -0.080371 -0.263918
v 0.024374 -0.105856 -0.220120
v 0.018281 -0.016331 -0.301751
v 0.018281 -0.044111 -0.287044
v 0.018281 -0.071534 -0.261387
v 0.018281 -0.094685 -0.223844
v -0.000000 -0.014199 -0.297136
v -0.000000 -0.040858 -0.283764
v -0.000000 -0.067517 -0.260236
v -0.000000 -0.089607 -0.225537
v -0.000000 -0.032734 0.175283
v -0.040217 -0.046698 0.175283
v -0.036314 -0.031155 0.231215
v -0.000000 -0.020800 0.227247
v -0.027726 0.001860 0.254838
v -0.000000 0.007890 0.249760
v -0.019138 0.040492 0.268305
v -0.000000 0.042674 0.262116
v -0.015234 0.072888 0.293769
v -0.000000 0.072888 0.283613
v -0.053623 -0.077420 0.175283
v -0.048418 -0.053934 0.239942
v -0.036968 -0.011406 0.266009
v -0.025517 0.035692 0.281920
v -0.020312 0.072888 0.316112
v -0.040217 -0.108141 0.175283
v -0.036314 -0.076713 0.248670
v -0.027726 -0.024672 0.277181
v -0.019138 0.030892 0.295535
v -0.015234 0.072888 0.338455
v -0.000000 -0.122106 0.175283
v -0.000000 -0.087068 0.252637
v -0.000000 -0.030702 0.282259
v -0.000000 0.028710 0.301724
v -0.000000 0.072888 0.348611
v -0.000000 -0.122106 0.175283
v 0.040217 -0.108141 0.175283
v 0.036314 -0.076713 0.248670
v -0.000000 -0.087068 0.252637
v 0.027726 -0.024672 0.277181
v -0.000000 -0.030702 0.282259
v 0.019138 0.030892 0.295535
v -0.000000 0.028710 0.301724
v 0.015234 0.072888 0.338455
v -0.000000 0.072888 0.348611
v 0.053623 -0.077420 0.175283
v 0.048418 -0.053934 0.239942
v 0.036967 -0.011406 0.266009
v 0.025517 0.035692 0.281920
v 0.020312 0.072888 0.316112
v 0.040217 -0.046698 0.175283
v 0.036314 -0.031155 0.231215
v 0.027726 0.001860 0.254838
v 0.019138 0.040492 0.268305
v 0.015234 0.072888 0.293769
v -0.000000 0.072888 0.283613
v -0.015234 0.072888 0.293769
v -0.014282 0.077681 0.302275
v -0.000000 0.077458 0.291399
v -0.012187 0.079339 0.307363
v -0.000000 0.078982 0.297154
v -0.010092 0.077770 0.307515
v -0.000000 0.077458 0.298847
v -0.009140 0.072888 0.301216
v -0.000000 0.072888 0.294446
v -0.020312 0.072888 0.316112
v -0.019042 0.078172 0.326204
v -0.016249 0.080124 0.329822
v -0.013457 0.078458 0.326585
v -0.012187 0.072888 0.316112
v -0.015234 0.072888 0.338455
v -0.014282 0.078663 0.350133
v -0.012187 0.080910 0.352281
v -0.010092 0.079145 0.345655
v -0.009140 0.072888 0.331007
v -0.000000 0.072888 0.348611
v -0.000000 0.078886 0.361009
v -0.000000 0.081267 0.362490
v -0.000000 0.079458 0.354323
v -0.000000 0.072888 0.337778
v -0.000000 0.072888 0.348611
v 0.015234 0.072888 0.338455
v 0.014282 0.078663 0.350133
v -0.000000 0.078886 0.361009
v 0.012187 0.080910 0.352281
v -0.000000 0.081267 0.362490
v 0.010092 0.079145 0.345655
v -0.000000 0.079458 0.354323
v 0.009140 0.072888 0.331007
v -0.000000 0.072888 0.337778
v 0.020312 0.072888 0.316112
v 0.019042 0.078172 0.326204
v 0.016249 0.080124 0.329822
v 0.013457 0.078458 0.326585
v 0.012187 0.072888 0.316112
v 0.015234 0.072888 0.293769
v 0.014282 0.077681 0.302275
v 0.012187 0.079339 0.307363
v 0.010092 0.077770 0.307515
v 0.009140 0.072888 0.301216
v -0.014522 0.148803 0.025175
v -0.000000 0.148803 0.028022
v -0.000000 0.154135 -0.008877
v -0.013853 0.135855 0.023613
v -0.000000 0.135855 0.026330
v -0.008384 0.119859 0.010801
v -0.000000 0.119859 0.012450
v -0.008504 0.105387 0.011109
v -0.000000 0.105387 0.012789
v -0.026233 0.148803 0.017356
v -0.000000 0.154135 -0.008877
v -0.025028 0.135855 0.016150
v -0.015154 0.119859 0.006276
v -0.015383 0.105387 0.006505
v -0.034053 0.148803 0.005644
v -0.000000 0.154135 -0.008877
v -0.032490 0.135855 0.004976
v -0.019679 0.119859 -0.000494
v -0.019987 0.105387 -0.000374
v -0.036900 0.148803 -0.008877
v -0.000000 0.154135 -0.008877
v -0.035207 0.135855 -0.008877
v -0.021327 0.119859 -0.008877
v -0.021666 0.105387 -0.008877
v -0.034053 0.148803 -0.023399
v -0.000000 0.154135 -0.008877
v -0.032490 0.135855 -0.022731
v -0.019679 0.119859 -0.017261
v -0.019987 0.105387 -0.017381
v -0.026233 0.148803 -0.035111
v -0.000000 0.154135 -0.008877
v -0.025028 0.135855 -0.033905
v -0.015154 0.119859 -0.024031
v -0.015383 0.105387 -0.024260
v -0.014522 0.148803 -0.042930
v -0.000000 0.154135 -0.008877
v -0.013853 0.135855 -0.041367
v -0.008384 0.119859 -0.028556
v -0.008504 0.105387 -0.028864
v -0.000000 0.148803 -0.045777
v -0.000000 0.154135 -0.008877
v -0.000000 0.135855 -0.044085
v -0.000000 0.119859 -0.030205
v -0.000000 0.105387 -0.030543
v 0.014522 0.148803 -0.042930
v -0.000000 0.148803 -0.045777
v 0.013853 0.135855 -0.041367
v -0.000000 0.135855 -0.044085
v 0.008384 0.119859 -0.028556
v -0.000000 0.119859 -0.030205
v 0.008504 0.105387 -0.028864
v -0.000000 0.105387 -0.030543
v 0.026233 0.148803 -0.035111
v 0.025028 0.135855 -0.033905
v 0.015154 0.119859 -0.024031
v 0.015383 0.105387 -0.024260
v 0.034053 0.148803 -0.023399
v 0.032490 0.135855 -0.022731
v 0.019679 0.119859 -0.017261
v 0.019987 0.105387 -0.017381
v 0.036900 0.148803 -0.008877
v 0.035207 0.135855 -0.008877
v 0.021327 0.119859 -0.008877
v 0.021666 0.105387 -0.008877
v 0.034053 0.148803 0.005644
v 0.032490 0.135855 0.004976
v 0.019679 0.119859 -0.000494
v 0.019987 0.105387 -0.000374
v 0.026233 0.148803 0.017356
v 0.025028 0.135855 0.016150
v 0.015154 0.119859 0.006276
v 0.015383 0.105387 0.006505
v 0.014522 0.148803 0.025175
v 0.013853 0.135855 0.023613
v 0.008384 0.119859 0.010801
v 0.008504 0.105387 0.011109
v -0.000000 0.148803 0.028022
v -0.000000 0.135855 0.026330
v -0.000000 0.119859 0.012450
v -0.000000 0.105387 0.012789
v -0.000000 0.105387 0.012789
v -0.008504 0.105387 0.011109
v -0.019400 0.095739 0.036718
v -0.000000 0.095739 0.040548
v -0.035079 0.089137 0.073568
v -0.000000 0.089137 0.080495
v -0.049163 0.082536 0.106671
v -0.000000 0.082536 0.116379
v -0.055275 0.072888 0.121037
v -0.000000 0.072888 0.131951
v -0.015383 0.105387 0.006505
v -0.035092 0.095739 0.026215
v -0.063454 0.089137 0.054577
v -0.088932 0.082536 0.080054
v -0.099988 0.072888 0.091111
v -0.019987 0.105387 -0.000374
v -0.045595 0.095739 0.010522
v -0.082446 0.089137 0.026201
v -0.115549 0.082536 0.040286
v -0.129914 0.072888 0.046398
v -0.021666 0.105387 -0.008877
v -0.049425 0.095739 -0.008877
v -0.089372 0.089137 -0.008877
v -0.125256 0.082536 -0.008877
v -0.140829 0.072888 -0.008877
v -0.019987 0.105387 -0.017381
v -0.045595 0.095739 -0.028277
v -0.082446 0.089137 -0.043956
v -0.115549 0.082536 -0.058041
v -0.129914 0.072888 -0.064153
v -0.015383 0.105387 -0.024260
v -0.035092 0.095739 -0.043969
v -0.063454 0.089137 -0.072332
v -0.088932 0.082536 -0.097809
v -0.099988 0.072888 -0.108866
v -0.008504 0.105387 -0.028864
v -0.019400 0.095739 -0.054472
v -0.035079 0.089137 -0.091323
v -0.049163 0.082536 -0.124426
v -0.055275 0.072888 -0.138792
v -0.000000 0.105387 -0.030543
v -0.000000 0.095739 -0.058303
v -0.000000 0.089137 -0.098249
v -0.000000 0.082536 -0.134134
v -0.000000 0.072888 -0.149706
v -0.000000 0.105387 -0.030543
v 0.008504 0.105387 -0.028864
v 0.019399 0.095739 -0.054472
v -0.000000 0.095739 -0.058303
v 0.035078 0.089137 -0.091323
v -0.000000 0.089137 -0.098249
v 0.049163 0.082536 -0.124426
v -0.000000 0.082536 -0.134134
v 0.055275 0.072888 -0.138792
v -0.000000 0.072888 -0.149706
v 0.015383 0.105387 -0.024260
v 0.035092 0.095739 -0.043969
v 0.063454 0.089137 -0.072332
v 0.088932 0.082536 -0.097809
v 0.099988 0.072888 -0.108866
v 0.019987 0.105387 -0.017381
v 0.045595 0.095739 -0.028277
v 0.082446 0.089137 -0.043956
v 0.115549 0.082536 -0.058041
v 0.129914 0.072888 -0.064153
v 0.021666 0.105387 -0.008877
v 0.049425 0.095739 -0.008877
v 0.089372 0.089137 -0.008877
v 0.125256 0.082536 -0.008877
v 0.140829 0.072888 -0.008877
v 0.019987 0.105387 -0.000374
v 0.045595 0.095739 0.010522
v 0.082446 0.089137 0.026201
v 0.115549 0.082536 0.040286
v 0.129914 0.072888 0.046398
v 0.015383 0.105387 0.006505
v 0.035092 0.095739 0.026215
v 0.063454 0.089137 0.054577
v 0.088932 0.082536 0.080054
v 0.099988 0.072888 0.091111
v 0.008504 0.105387 0.011109
v 0.019399 0.095739 0.036718
v 0.035078 0.089137 0.073568
v 0.049163 0.082536 0.106671
v 0.055275 0.072888 0.121037
v -0.000000 0.105387 0.012789
v -0.000000 0.095739 0.040548
v -0.000000 0.089137 0.080495
v -0.000000 0.082536 0.116379
v -0.000000 0.072888 0.131951
# 691 vertices

vt 2.000000 0.000000
vt 1.750000 0.000000
vt 1.750000 0.025000
vt 2.000000 0.025000
vt 1.750000 0.050000
vt 2.000000 0.050000
vt 1.750000 0.075000
vt 2.000000 0.075000
vt 1.750000 0.100000
vt 2.000000 0.100000
vt 1.500000 0.000000
vt 1.500000 0.025000
vt 1.500000 0.050000
vt 1.500000 0.075000
vt 1.500000 0.100000
vt 1.250000 0.000000
vt 1.250000 0.025000
vt 1.250000 0.050000
vt 1.250000 0.075000
vt 1.250000 0.100000
vt 1.000000 0.000000
vt 1.000000 0.025000
vt 1.000000 0.050000
vt 1.000000 0.075000
vt 1.000000 0.100000
vt 0.750000 0.000000
vt 0.750000 0.025000
vt 0.750000 0.050000
vt 0.750000 0.075000
vt 0.750000 0.100000
vt 0.500000 0.000000
vt 0.500000 0.025000
vt 0.500000 0.050000
vt 0.500000 0.075000
vt 0.500000 0.100000
vt 0.250000 0.000000
vt 0.250000 0.025000
vt 0.250000 0.050000
vt 0.250000 0.075000
vt 0.250000 0.100000
vt 0.000000 0.000000
vt 0.000000 0.025000
vt 0.000000 0.050000
vt 0.000000 0.075000
vt 0.000000 0.100000
vt 2.000000 0.000000
vt 1.750000 0.000000
vt 1.750000 0.025000
vt 2.000000 0.025000
vt 1.750000 0.050000
vt 2.000000 0.050000
vt 1.750000 0.075000
vt 2.000000 0.075000
vt 1.750000 0.100000
vt 2.000000 0.100000
vt 1.500000 0.000000
vt 1.500000 0.025000
vt 1.500000 0.050000
vt 1.500000 0.075000
vt 1.500000 0.100000
vt 1.250000 0.000000
vt 1.250000 0.025000
vt 1.250000 0.050000
vt 1.250000 0.075000
vt 1.250000 0.100000
vt 1.000000 0.000000
vt 1.000000 0.025000
vt 1.000000 0.050000
vt 1.000000 0.075000
vt 1.000000 0.100000
vt 0.750000 0.000000
vt 0.750000 0.025000
vt 0.750000 0.050000
vt 0.750000 0.075000
vt 0.750000 0.100000
vt 0.500000 0.000000
vt 0.500000 0.025000
vt 0.500000 0.050000
vt 0.500000 0.075000
vt 0.500000 0.100000
vt 0.250000 0.000000
vt 0.250000 0.025000
vt 0.250000 0.050000
vt 0.250000 0.075000
vt 0.250000 0.100000
vt 0.000000 0.000000
vt 0.000000 0.025000
vt 0.000000 0.050000
vt 0.000000 0.075000
vt 0.000000 0.100000
vt 2.000000 0.100000
vt 1.750000 0.100000
vt 1.750000 0.325000
vt 2.000000 0.325000
vt 1.750000 0.550000
vt 2.000000 0.550000
vt 1.750000 0.775000
vt 2.000000 0.775000
vt 1.750000 1.000000
vt 2.000000 1.000000
vt 1.500000 0.100000
vt 1.500000 0.325000
vt 1.500000 0.550000
vt 1.500000 0.775000
vt 1.500000 1.000000
vt 1.250000 0.100000
vt 1.250000 0.325000
vt 1.250000 0.550000
vt 1.250000 0.775000
vt 1.250000 1.000000
vt 1.000000 0.100000
vt 1.000000 0.325000
vt 1.000000 0.550000
vt 1.000000 0.775000
vt 1.000000 1.000000
vt 0.750000 0.100000
vt 0.750000 0.325000
vt 0.750000 0.550000
vt 0.750000 0.775000
vt 0.750000 1.000000
vt 0.500000 0.100000
vt 0.500000 0.325000
vt 0.500000 0.550000
vt 0.500000 0.775000
vt 0.500000 1.000000
vt 0.250000 0.100000
vt 0.250000 0.325000
vt 0.250000 0.550000
vt 0.250000 0.775000
vt 0.250000 1.000000
vt 0.000000 0.100000
vt 0.000000 0.325000
vt 0.000000 0.550000
vt 0.000000 0.775000
vt 0.000000 1.000000
vt 2.000000 0.100000
vt 1.750000 0.100000
vt 1.750000 0.325000
vt 2.000000 0.325000
vt 1.750000 0.550000
vt 2.000000 0.550000
vt 1.750000 0.775000
vt 2.000000 0.775000
vt 1.750000 1.000000
vt 2.000000 1.000000
vt 1.500000 0.100000
vt 1.500000 0.325000
vt 1.500000 0.550000
vt 1.500000 0.775000
vt 1.500000 1.000000
vt 1.250000 0.100000
vt 1.250000 0.325000
vt 1.250000 0.550000
vt 1.250000 0.775000
vt 1.250000 1.000000
vt 1.000000 0.100000
vt 1.000000 0.325000
vt 1.000000 0.550000
vt 1.000000 0.775000
vt 1.000000 1.000000
vt 0.750000 0.100000
vt 0.750000 0.325000
vt 0.750000 0.550000
vt 0.750000 0.775000
vt 0.750000 1.000000
vt 0.500000 0.100000
vt 0.500000 0.325000
vt 0.500000 0.550000
vt 0.500000 0.775000
vt 0.500000 1.000000
vt 0.250000 0.100000
vt 0.250000 0.325000
vt 0.250000 0.550000
vt 0.250000 0.775000
vt 0.250000 1.000000
vt 0.000000 0.100000
vt 0.000000 0.325000
vt 0.000000 0.550000
vt 0.000000 0.775000
vt 0.000000 1.000000
vt 2.000000 1.000000
vt 1.750000 1.000000
vt 1.750000 1.150000
vt 2.000000 1.150000
vt 1.750000 1.300000
vt 2.000000 1.300000
vt 1.750000 1.450000
vt 2.000000 1.450000
vt 1.750000 1.600000
vt 2.000000 1.600000
vt 1.500000 1.000000
vt 1.500000 1.150000
vt 1.500000 1.300000
vt 1.500000 1.450000
vt 1.500000 1.600000
vt 1.250000 1.000000
vt 1.250000 1.150000
vt 1.250000 1.300000
vt 1.250000 1.450000
vt 1.250000 1.600000
vt 1.000000 1.000000
vt 1.000000 1.150000
vt 1.000000 1.300000
vt 1.000000 1.450000
vt 1.000000 1.600000
vt 0.750000 1.000000
vt 0.750000 1.150000
vt 0.750000 1.300000
vt 0.750000 1.450000
vt 0.750000 1.600000
vt 0.500000 1.000000
vt 0.500000 1.150000
vt 0.500000 1.300000
vt 0.500000 1.450000
vt 0.500000 1.600000
vt 0.250000 1.000000
vt 0.250000 1.150000
vt 0.250000 1.300000
vt 0.250000 1.450000
vt 0.250000 1.600000
vt 0.000000 1.000000
vt 0.000000 1.150000
vt 0.000000 1.300000
vt 0.000000 1.450000
vt 0.000000 1.600000
vt 2.000000 1.000000
vt 1.750000 1.000000
vt 1.750000 1.150000
vt 2.000000 1.150000
vt 1.750000 1.300000
vt 2.000000 1.300000
vt 1.750000 1.450000
vt 2.000000 1.450000
vt 1.750000 1.600000
vt 2.000000 1.600000
vt 1.500000 1.000000
vt 1.500000 1.150000
vt 1.500000 1.300000
vt 1.500000 1.450000
vt 1.500000 1.600000
vt 1.250000 1.000000
vt 1.250000 1.150000
vt 1.250000 1.300000
vt 1.250000 1.450000
vt 1.250000 1.600000
vt 1.000000 1.000000
vt 1.000000 1.150000
vt 1.000000 1.300000
vt 1.000000 1.450000
vt 1.000000 1.600000
vt 0.750000 1.000000
vt 0.750000 1.150000
vt 0.750000 1.300000
vt 0.750000 1.450000
vt 0.750000 1.600000
vt 0.500000 1.000000
vt 0.500000 1.150000
vt 0.500000 1.300000
vt 0.500000 1.450000
vt 0.500000 1.600000
vt 0.250000 1.000000
vt 0.250000 1.150000
vt 0.250000 1.300000
vt 0.250000 1.450000
vt 0.250000 1.600000
vt 0.000000 1.000000
vt 0.000000 1.150000
vt 0.000000 1.300000
vt 0.000000 1.450000
vt 0.000000 1.600000
vt 2.000000 1.600000
vt 1.750000 1.600000
vt 1.750000 1.700000
vt 2.000000 1.700000
vt 1.750000 1.800000
vt 2.000000 1.800000
vt 1.750000 1.900000
vt 2.000000 1.900000
vt 1.750000 2.000000
vt 1.500000 1.600000
vt 1.500000 1.700000
vt 1.500000 1.800000
vt 1.500000 1.900000
vt 1.500000 2.000000
vt 1.250000 1.600000
vt 1.250000 1.700000
vt 1.250000 1.800000
vt 1.250000 1.900000
vt 1.250000 2.000000
vt 1.000000 1.600000
vt 1.000000 1.700000
vt 1.000000 1.800000
vt 1.000000 1.900000
vt 1.000000 2.000000
vt 0.750000 1.600000
vt 0.750000 1.700000
vt 0.750000 1.800000
vt 0.750000 1.900000
vt 0.750000 2.000000
vt 0.500000 1.600000
vt 0.500000 1.700000
vt 0.500000 1.800000
vt 0.500000 1.900000
vt 0.500000 2.000000
vt 0.250000 1.600000
vt 0.250000 1.700000
vt 0.250000 1.800000
vt 0.250000 1.900000
vt 0.250000 2.000000
vt 0.000000 1.600000
vt 0.000000 1.700000
vt 0.000000 1.800000
vt 0.000000 1.900000
vt 0.000000 2.000000
vt 2.000000 1.600000
vt 1.750000 1.600000
vt 1.750000 1.700000
vt 2.000000 1.700000
vt 1.750000 1.800000
vt 2.000000 1.800000
vt 1.750000 1.900000
vt 2.000000 1.900000
vt 1.500000 1.600000
vt 1.500000 1.700000
vt 1.500000 1.800000
vt 1.500000 1.900000
vt 1.250000 1.600000
vt 1.250000 1.700000
vt 1.250000 1.800000
vt 1.250000 1.900000
vt 1.000000 1.600000
vt 1.000000 1.700000
vt 1.000000 1.800000
vt 1.000000 1.900000
vt 0.750000 1.600000
vt 0.750000 1.700000
vt 0.750000 1.800000
vt 0.750000 1.900000
vt 0.500000 1.600000
vt 0.500000 1.700000
vt 0.500000 1.800000
vt 0.500000 1.900000
vt 0.250000 1.600000
vt 0.250000 1.700000
vt 0.250000 1.800000
vt 0.250000 1.900000
vt 0.000000 1.600000
vt 0.000000 1.700000
vt 0.000000 1.800000
vt 0.000000 1.900000
vt 1.000000 1.000000
vt 0.875000 1.000000
vt 0.875000 1.125000
vt 1.000000 1.125000
vt 0.875000 1.250000
vt 1.000000 1.250000
vt 0.875000 1.375000
vt 1.000000 1.375000
vt 0.875000 1.500000
vt 1.000000 1.500000
vt 0.750000 1.000000
vt 0.750000 1.125000
vt 0.750000 1.250000
vt 0.750000 1.375000
vt 0.750000 1.500000
vt 0.625000 1.000000
vt 0.625000 1.125000
vt 0.625000 1.250000
vt 0.625000 1.375000
vt 0.625000 1.500000
vt 0.500000 1.000000
vt 0.500000 1.125000
vt 0.500000 1.250000
vt 0.500000 1.375000
vt 0.500000 1.500000
vt 0.375000 1.000000
vt 0.375000 1.125000
vt 0.375000 1.250000
vt 0.375000 1.375000
vt 0.375000 1.500000
vt 0.250000 1.000000
vt 0.250000 1.125000
vt 0.250000 1.250000
vt 0.250000 1.375000
vt 0.250000 1.500000
vt 0.125000 1.000000
vt 0.125000 1.125000
vt 0.125000 1.250000
vt 0.125000 1.375000
vt 0.125000 1.500000
vt 0.000000 1.000000
vt 0.000000 1.125000
vt 0.000000 1.250000
vt 0.000000 1.375000
vt 0.000000 1.500000
vt 0.875000 1.625000
vt 1.000000 1.625000
vt 0.875000 1.750000
vt 1.000000 1.750000
vt 0.875000 1.875000
vt 1.000000 1.875000
vt 0.875000 2.000000
vt 1.000000 2.000000
vt 0.750000 1.625000
vt 0.750000 1.750000
vt 0.750000 1.875000
vt 0.750000 2.000000
vt 0.625000 1.625000
vt 0.625000 1.750000
vt 0.625000 1.875000
vt 0.625000 2.000000
vt 0.500000 1.625000
vt 0.500000 1.750000
vt 0.500000 1.875000
vt 0.500000 2.000000
vt 0.375000 1.625000
vt 0.375000 1.750000
vt 0.375000 1.875000
vt 0.375000 2.000000
vt 0.250000 1.625000
vt 0.250000 1.750000
vt 0.250000 1.875000
vt 0.250000 2.000000
vt 0.125000 1.625000
vt 0.125000 1.750000
vt 0.125000 1.875000
vt 0.125000 2.000000
vt 0.000000 1.625000
vt 0.000000 1.750000
vt 0.000000 1.875000
vt 0.000000 2.000000
vt 0.500000 2.000000
vt 0.625000 2.000000
vt 0.625000 1.775000
vt 0.500000 1.775000
vt 0.625000 1.550000
vt 0.500000 1.550000
vt 0.625000 1.325000
vt 0.500000 1.325000
vt 0.625000 1.100000
vt 0.500000 1.100000
vt 0.750000 2.000000
vt 0.750000 1.775000
vt 0.750000 1.550000
vt 0.750000 1.325000
vt 0.750000 1.100000
vt 0.875000 2.000000
vt 0.875000 1.775000
vt 0.875000 1.550000
vt 0.875000 1.325000
vt 0.875000 1.100000
vt 1.000000 2.000000
vt 1.000000 1.775000
vt 1.000000 1.550000
vt 1.000000 1.325000
vt 1.000000 1.100000
vt 0.000000 2.000000
vt 0.125000 2.000000
vt 0.125000 1.775000
vt 0.000000 1.775000
vt 0.125000 1.550000
vt 0.000000 1.550000
vt 0.125000 1.325000
vt 0.000000 1.325000
vt 0.125000 1.100000
vt 0.000000 1.100000
vt 0.250000 2.000000
vt 0.250000 1.775000
vt 0.250000 1.550000
vt 0.250000 1.325000
vt 0.250000 1.100000
vt 0.375000 2.000000
vt 0.375000 1.775000
vt 0.375000 1.550000
vt 0.375000 1.325000
vt 0.375000 1.100000
vt 0.500000 1.100000
vt 0.625000 1.100000
vt 0.625000 1.075000
vt 0.500000 1.075000
vt 0.625000 1.050000
vt 0.500000 1.050000
vt 0.625000 1.025000
vt 0.500000 1.025000
vt 0.625000 1.000000
vt 0.500000 1.000000
vt 0.750000 1.100000
vt 0.750000 1.075000
vt 0.750000 1.050000
vt 0.750000 1.025000
vt 0.750000 1.000000
vt 0.875000 1.100000
vt 0.875000 1.075000
vt 0.875000 1.050000
vt 0.875000 1.025000
vt 0.875000 1.000000
vt 1.000000 1.100000
vt 1.000000 1.075000
vt 1.000000 1.050000
vt 1.000000 1.025000
vt 1.000000 1.000000
vt 0.000000 1.100000
vt 0.125000 1.100000
vt 0.125000 1.075000
vt 0.000000 1.075000
vt 0.125000 1.050000
vt 0.000000 1.050000
vt 0.125000 1.025000
vt 0.000000 1.025000
vt 0.125000 1.000000
vt 0.000000 1.000000
vt 0.250000 1.100000
vt 0.250000 1.075000
vt 0.250000 1.050000
vt 0.250000 1.025000
vt 0.250000 1.000000
vt 0.375000 1.100000
vt 0.375000 1.075000
vt 0.375000 1.050000
vt 0.375000 1.025000
vt 0.375000 1.000000
vt 0.875000 1.250000
vt 1.000000 1.250000
vt 1.000000 1.000000
vt 0.875000 1.500000
vt 1.000000 1.500000
vt 0.875000 1.750000
vt 1.000000 1.750000
vt 0.875000 2.000000
vt 1.000000 2.000000
vt 0.750000 1.250000
vt 0.875000 1.000000
vt 0.750000 1.500000
vt 0.750000 1.750000
vt 0.750000 2.000000
vt 0.625000 1.250000
vt 0.750000 1.000000
vt 0.625000 1.500000
vt 0.625000 1.750000
vt 0.625000 2.000000
vt 0.500000 1.250000
vt 0.625000 1.000000
vt 0.500000 1.500000
vt 0.500000 1.750000
vt 0.500000 2.000000
vt 0.375000 1.250000
vt 0.500000 1.000000
vt 0.375000 1.500000
vt 0.375000 1.750000
vt 0.375000 2.000000
vt 0.250000 1.250000
vt 0.375000 1.000000
vt 0.250000 1.500000
vt 0.250000 1.750000
vt 0.250000 2.000000
vt 0.125000 1.250000
vt 0.250000 1.000000
vt 0.125000 1.500000
vt 0.125000 1.750000
vt 0.125000 2.000000
vt 0.000000 1.250000
vt 0.125000 1.000000
vt 0.000000 1.500000
vt 0.000000 1.750000
vt 0.000000 2.000000
vt 0.875000 1.250000
vt 1.000000 1.250000
vt 0.875000 1.500000
vt 1.000000 1.500000
vt 0.875000 1.750000
vt 1.000000 1.750000
vt 0.875000 2.000000
vt 1.000000 2.000000
vt 0.750000 1.250000
vt 0.750000 1.500000
vt 0.750000 1.750000
vt 0.750000 2.000000
vt 0.625000 1.250000
vt 0.625000 1.500000
vt 0.625000 1.750000
vt 0.625000 2.000000
vt 0.500000 1.250000
vt 0.500000 1.500000
vt 0.500000 1.750000
vt 0.500000 2.000000
vt 0.375000 1.250000
vt 0.375000 1.500000
vt 0.375000 1.750000
vt 0.375000 2.000000
vt 0.250000 1.250000
vt 0.250000 1.500000
vt 0.250000 1.750000
vt 0.250000 2.000000
vt 0.125000 1.250000
vt 0.125000 1.500000
vt 0.125000 1.750000
vt 0.125000 2.000000
vt 0.000000 1.250000
vt 0.000000 1.500000
vt 0.000000 1.750000
vt 0.000000 2.000000
vt 1.000000 1.000000
vt 0.875000 1.000000
vt 0.875000 1.250000
vt 1.000000 1.250000
vt 0.875000 1.500000
vt 1.000000 1.500000
vt 0.875000 1.750000
vt 1.000000 1.750000
vt 0.875000 2.000000
vt 1.000000 2.000000
vt 0.750000 1.000000
vt 0.750000 1.250000
vt 0.750000 1.500000
vt 0.750000 1.750000
vt 0.750000 2.000000
vt 0.625000 1.000000
vt 0.625000 1.250000
vt 0.625000 1.500000
vt 0.625000 1.750000
vt 0.625000 2.000000
vt 0.500000 1.000000
vt 0.500000 1.250000
vt 0.500000 1.500000
vt 0.500000 1.750000
vt 0.500000 2.000000
vt 0.375000 1.000000
vt 0.375000 1.250000
vt 0.375000 1.500000
vt 0.375000 1.750000
vt 0.375000 2.000000
vt 0.250000 1.000000
vt 0.250000 1.250000
vt 0.250000 1.500000
vt 0.250000 1.750000
vt 0.250000 2.000000
vt 0.125000 1.000000
vt 0.125000 1.250000
vt 0.125000 1.500000
vt 0.125000 1.750000
vt 0.125000 2.000000
vt 0.000000 1.000000
vt 0.000000 1.250000
vt 0.000000 1.500000
vt 0.000000 1.750000
vt 0.000000 2.000000
vt 1.000000 1.000000
vt 0.875000 1.000000
vt 0.875000 1.250000
vt 1.000000 1.250000
vt 0.875000 1.500000
vt 1.000000 1.500000
vt 0.875000 1.750000
vt 1.000000 1.750000
vt 0.875000 2.000000
vt 1.000000 2.000000
vt 0.750000 1.000000
vt 0.750000 1.250000
vt 0.750000 1.500000
vt 0.750000 1.750000
vt 0.750000 2.000000
vt 0.625000 1.000000
vt 0.625000 1.250000
vt 0.625000 1.500000
vt 0.625000 1.750000
vt 0.625000 2.000000
vt 0.500000 1.000000
vt 0.500000 1.250000
vt 0.500000 1.500000
vt 0.500000 1.750000
vt 0.500000 2.000000
vt 0.375000 1.000000
vt 0.375000 1.250000
vt 0.375000 1.500000
vt 0.375000 1.750000
vt 0.375000 2.000000
vt 0.250000 1.000000
vt 0.250000 1.250000
vt 0.250000 1.500000
vt 0.250000 1.750000
vt 0.250000 2.000000
vt 0.125000 1.000000
vt 0.125000 1.250000
vt 0.125000 1.500000
vt 0.125000 1.750000
vt 0.125000 2.000000
vt 0.000000 1.000000
vt 0.000000 1.250000
vt 0.000000 1.500000
vt 0.000000 1.750000
vt 0.000000 2.000000
# 691 texture vertices

g DefaultMaterial
f 1/1 2/2 3/3
f 3/3 4/4 1/1
f 4/4 3/3 5/5
f 5/5 6/6 4/4
f 6/6 5/5 7/7
f 7/7 8/8 6/6
f 8/8 7/7 9/9
f 9/9 10/10 8/8
f 2/2 11/11 12/12
f 12/12 3/3 2/2
f 3/3 12/12 13/13
f 13/13 5/5 3/3
f 5/5 13/13 14/14
f 14/14 7/7 5/5
f 7/7 14/14 15/15
f 15/15 9/9 7/7
f 11/11 16/16 17/17
f 17/17 12/12 11/11
f 12/12 17/17 18/18
f 18/18 13/13 12/12
f 13/13 18/18 19/19
f 19/19 14/14 13/13
f 14/14 19/19 20/20
f 20/20 15/15 14/14
f 16/16 21/21 22/22
f 22/22 17/17 16/16
f 17/17 22/22 23/23
f 23/23 18/18 17/17
f 18/18 23/23 24/24
f 24/24 19/19 18/18
f 19/19 24/24 25/25
f 25/25 20/20 19/19
f 21/21 26/26 27/27
f 27/27 22/22 21/21
f 22/22 27/27 28/28
f 28/28 23/23 22/22
f 23/23 28/28 29/29
f 29/29 24/24 23/23
f 24/24 29/29 30/30
f 30/30 25/25 24/24
f 26/26 31/31 32/32
f 32/32 27/27 26/26
f 27/27 32/32 33/33
f 33/33 28/28 27/27
f 28/28 33/33 34/34
f 34/34 29/29 28/28
f 29/29 34/34 35/35
f 35/35 30/30 29/29
f 31/31 36/36 37/37
f 37/37 32/32 31/31
f 32/32 37/37 38/38
f 38/38 33/33 32/32
f 33/33 38/38 39/39
f 39/39 34/34 33/33
f 34/34 39/39 40/40
f 40/40 35/35 34/34
f 36/36 41/41 42/42
f 42/42 37/37 36/36
f 37/37 42/42 43/43
f 43/43 38/38 37/37
f 38/38 43/43 44/44
f 44/44 39/39 38/38
f 39/39 44/44 45/45
f 45/45 40/40 39/39
f 46/46 47/47 48/48
f 48/48 49/49 46/46
f 49/49 48/48 50/50
f 50/50 51/51 49/49
f 51/51 50/50 52/52
f 52/52 53/53 51/51
f 53/53 52/52 54/54
f 54/54 55/55 53/53
f 47/47 56/56 57/57
f 57/57 48/48 47/47
f 48/48 57/57 58/58
f 58/58 50/50 48/48
f 50/50 58/58 59/59
f 59/59 52/52 50/50
f 52/52 59/59 60/60
f 60/60 54/54 52/52
f 56/56 61/61 62/62
f 62/62 57/57 56/56
f 57/57 62/62 63/63
f 63/63 58/58 57/57
f 58/58 63/63 64/64
f 64/64 59/59 58/58
f 59/59 64/64 65/65
f 65/65 60/60 59/59
f 61/61 66/66 67/67
f 67/67 62/62 61/61
f 62/62 67/67 68/68
f 68/68 63/63 62/62
f 63/63 68/68 69/69
f 69/69 64/64 63/63
f 64/64 69/69 70/70
f 70/70 65/65 64/64
f 66/66 71/71 72/72
f 72/72 67/67 66/66
f 67/67 72/72 73/73
f 73/73 68/68 67/67
f 68/68 73/73 74/74
f 74/74 69/69 68/68
f 69/69 74/74 75/75
f 75/75 70/70 69/69
f 71/71 76/76 77/77
f 77/77 72/72 71/71
f 72/72 77/77 78/78
f 78/78 73/73 72/72
f 73/73 78/78 79/79
f 79/79 74/74 73/73
f 74/74 79/79 80/80
f 80/80 75/75 74/74
f 76/76 81/81 82/82
f 82/82 77/77 76/76
f 77/77 82/82 83/83
f 83/83 78/78 77/77
f 78/78 83/83 84/84
f 84/84 79/79 78/78
f 79/79 84/84 85/85
f 85/85 80/80 79/79
f 81/81 86/86 87/87
f 87/87 82/82 81/81
f 82/82 87/87 88/88
f 88/88 83/83 82/82
f 83/83 88/88 89/89
f 89/89 84/84 83/83
f 84/84 89/89 90/90
f 90/90 85/85 84/84
f 91/91 92/92 93/93
f 93/93 94/94 91/91
f 94/94 93/93 95/95
f 95/95 96/96 94/94
f 96/96 95/95 97/97
f 97/97 98/98 96/96
f 98/98 97/97 99/99
f 99/99 100/100 98/98
f 92/92 101/101 102/102
f 102/102 93/93 92/92
f 93/93 102/102 103/103
f 103/103 95/95 93/93
f 95/95 103/103 104/104
f 104/104 97/97 95/95
f 97/97 104/104 105/105
f 105/105 99/99 97/97
f 101/101 106/106 107/107
f 107/107 102/102 101/101
f 102/102 107/107 108/108
f 108/108 103/103 102/102
f 103/103 108/108 109/109
f 109/109 104/104 103/103
f 104/104 109/109 110/110
f 110/110 105/105 104/104
f 106/106 111/111 112/112
f 112/112 107/107 106/106
f 107/107 112/112 113/113
f 113/113 108/108 107/107
f 108/108 113/113 114/114
f 114/114 109/109 108/108
f 109/109 114/114 115/115
f 115/115 110/110 109/109
f 111/111 116/116 117/117
f 117/117 112/112 111/111
f 112/112 117/117 118/118
f 118/118 113/113 112/112
f 113/113 118/118 119/119
f 119/119 114/114 113/113
f 114/114 119/119 120/120
f 120/120 115/115 114/114
f 116/116 121/121 122/122
f 122/122 117/117 116/116
f 117/117 122/122 123/123
f 123/123 118/118 117/117
f 118/118 123/123 124/124
f 124/124 119/119 118/118
f 119/119 124/124 125/125
f 125/125 120/120 119/119
f 121/121 126/126 127/127
f 127/127 122/122 121/121
f 122/122 127/127 128/128
f 128/128 123/123 122/122
f 123/123 128/128 129/129
f 129/129 124/124 123/123
f 124/124 129/129 130/130
f 130/130 125/125 124/124
f 126/126 131/131 132/132
f 132/132 127/127 126/126
f 127/127 132/132 133/133
f 133/133 128/128 127/127
f 128/128 133/133 134/134
f 134/134 129/129 128/128
f 129/129 134/134 135/135
f 135/135 130/130 129/129
f 136/136 137/137 138/138
f 138/138 139/139 136/136
f 139/139 138/138 140/140
f 140/140 141/141 139/139
f 141/141 140/140 142/142
f 142/142 143/143 141/141
f 143/143 142/142 144/144
f 144/144 145/145 143/143
f 137/137 146/146 147/147
f 147/147 138/138 137/137
f 138/138 147/147 148/148
f 148/148 140/140 138/138
f 140/140 148/148 149/149
f 149/149 142/142 140/140
f 142/142 149/149 150/150
f 150/150 144/144 142/142
f 146/146 151/151 152/152
f 152/152 147/147 146/146
f 147/147 152/152 153/153
f 153/153 148/148 147/147
f 148/148 153/153 154/154
f 154/154 149/149 148/148
f 149/149 154/154 155/155
f 155/155 150/150 149/149
f 151/151 156/156 157/157
f 157/157 152/152 151/151
f 152/152 157/157 158/158
f 158/158 153/153 152/152
f 153/153 158/158 159/159
f 159/159 154/154 153/153
f 154/154 159/159 160/160
f 160/160 155/155 154/154
f 156/156 161/161 162/162
f 162/162 157/157 156/156
f 157/157 162/162 163/163
f 163/163 158/158 157/157
f 158/158 163/163 164/164
f 164/164 159/159 158/158
f 159/159 164/164 165/165
f 165/165 160/160 159/159
f 161/161 166/166 167/167
f 167/167 162/162 161/161
f 162/162 167/167 168/168
f 168/168 163/163 162/162
f 163/163 168/168 169/169
f 169/169 164/164 163/163
f 164/164 169/169 170/170
f 170/170 165/165 164/164
f 166/166 171/171 172/172
f 172/172 167/167 166/166
f 167/167 172/172 173/173
f 173/173 168/168 167/167
f 168/168 173/173 174/174
f 174/174 169/169 168/168
f 169/169 174/174 175/175
f 175/175 170/170 169/169
f 171/171 176/176 177/177
f 177/177 172/172 171/171
f 172/172 177/177 178/178
f 178/178 173/173 172/172
f 173/173 178/178 179/179
f 179/179 174/174 173/173
f 174/174 179/179 180/180
f 180/180 175/175 174/174
f 181/181 182/182 183/183
f 183/183 184/184 181/181
f 184/184 183/183 185/185
f 185/185 186/186 184/184
f 186/186 185/185 187/187
f 187/187 188/188 186/186
f 188/188 187/187 189/189
f 189/189 190/190 188/188
f 182/182 191/191 192/192
f 192/192 183/183 182/182
f 183/183 192/192 193/193
f 193/193 185/185 183/183
f 185/185 193/193 194/194
f 194/194 187/187 185/185
f 187/187 194/194 195/195
f 195/195 189/189 187/187
f 191/191 196/196 197/197
f 197/197 192/192 191/191
f 192/192 197/197 198/198
f 198/198 193/193 192/192
f 193/193 198/198 199/199
f 199/199 194/194 193/193
f 194/194 199/199 200/200
f 200/200 195/195 194/194
f 196/196 201/201 202/202
f 202/202 197/197 196/196
f 197/197 202/202 203/203
f 203/203 198/198 197/197
f 198/198 203/203 204/204
f 204/204 199/199 198/198
f 199/199 204/204 205/205
f 205/205 200/200 199/199
f 201/201 206/206 207/207
f 207/207 202/202 201/201
f 202/202 207/207 208/208
f 208/208 203/203 202/202
f 203/203 208/208 209/209
f 209/209 204/204 203/203
f 204/204 209/209 210/210
f 210/210 205/205 204/204
f 206/206 211/211 212/212
f 212/212 207/207 206/206
f 207/207 212/212 213/213
f 213/213 208/208 207/207
f 208/208 213/213 214/214
f 214/214 209/209 208/208
f 209/209 214/214 215/215
f 215/215 210/210 209/209
f 211/211 216/216 217/217
f 217/217 212/212 211/211
f 212/212 217/217 218/218
f 218/218 213/213 212/212
f 213/213 218/218 219/219
f 219/219 214/214 213/213
f 214/214 219/219 220/220
f 220/220 215/215 214/214
f 216/216 221/221 222/222
f 222/222 217/217 216/216
f 217/217 222/222 223/223
f 223/223 218/218 217/217
f 218/218 223/223 224/224
f 224/224 219/219 218/218
f 219/219 224/224 225/225
f 225/225 220/220 219/219
f 226/226 227/227 228/228
f 228/228 229/229 226/226
f 229/229 228/228 230/230
f 230/230 231/231 229/229
f 231/231 230/230 232/232
f 232/232 233/233 231/231
f 233/233 232/232 234/234
f 234/234 235/235 233/233
f 227/227 236/236 237/237
f 237/237 228/228 227/227
f 228/228 237/237 238/238
f 238/238 230/230 228/228
f 230/230 238/238 239/239
f 239/239 232/232 230/230
f 232/232 239/239 240/240
f 240/240 234/234 232/232
f 236/236 241/241 242/242
f 242/242 237/237 236/236
f 237/237 242/242 243/243
f 243/243 238/238 237/237
f 238/238 243/243 244/244
f 244/244 239/239 238/238
f 239/239 244/244 245/245
f 245/245 240/240 239/239
f 241/241 246/246 247/247
f 247/247 242/242 241/241
f 242/242 247/247 248/248
f 248/248 243/243 242/242
f 243/243 248/248 249/249
f 249/249 244/244 243/243
f 244/244 249/249 250/250
f 250/250 245/245 244/244
f 246/246 251/251 252/252
f 252/252 247/247 246/246
f 247/247 252/252 253/253
f 253/253 248/248 247/247
f 248/248 253/253 254/254
f 254/254 249/249 248/248
f 249/249 254/254 255/255
f 255/255 250/250 249/249
f 251/251 256/256 257/257
f 257/257 252/252 251/251
f 252/252 257/257 258/258
f 258/258 253/253 252/252
f 253/253 258/258 259/259
f 259/259 254/254 253/253
f 254/254 259/259 260/260
f 260/260 255/255 254/254
f 256/256 261/261 262/262
f 262/262 257/257 256/256
f 257/257 262/262 263/263
f 263/263 258/258 257/257
f 258/258 263/263 264/264
f 264/264 259/259 258/258
f 259/259 264/264 265/265
f 265/265 260/260 259/259
f 261/261 266/266 267/267
f 267/267 262/262 261/261
f 262/262 267/267 268/268
f 268/268 263/263 262/262
f 263/263 268/268 269/269
f 269/269 264/264 263/263
f 264/264 269/269 270/270
f 270/270 265/265 264/264
f 271/271 272/272 273/273
f 273/273 274/274 271/271
f 274/274 273/273 275/275
f 275/275 276/276 274/274
f 276/276 275/275 277/277
f 277/277 278/278 276/276
f 278/278 277/277 279/279
f 272/272 280/280 281/281
f 281/281 273/273 272/272
f 273/273 281/281 282/282
f 282/282 275/275 273/273
f 275/275 282/282 283/283
f 283/283 277/277 275/275
f 277/277 283/283 284/284
f 280/280 285/285 286/286
f 286/286 281/281 280/280
f 281/281 286/286 287/287
f 287/287 282/282 281/281
f 282/282 287/287 288/288
f 288/288 283/283 282/282
f 283/283 288/288 289/289
f 285/285 290/290 291/291
f 291/291 286/286 285/285
f 286/286 291/291 292/292
f 292/292 287/287 286/286
f 287/287 292/292 293/293
f 293/293 288/288 287/287
f 288/288 293/293 294/294
f 290/290 295/295 296/296
f 296/296 291/291 290/290
f 291/291 296/296 297/297
f 297/297 292/292 291/291
f 292/292 297/297 298/298
f 298/298 293/293 292/292
f 293/293 298/298 299/299
f 295/295 300/300 301/301
f 301/301 296/296 295/295
f 296/296 301/301 302/302
f 302/302 297/297 296/296
f 297/297 302/302 303/303
f 303/303 298/298 297/297
f 298/298 303/303 304/304
f 300/300 305/305 306/306
f 306/306 301/301 300/300
f 301/301 306/306 307/307
f 307/307 302/302 301/301
f 302/302 307/307 308/308
f 308/308 303/303 302/302
f 303/303 308/308 309/309
f 305/305 310/310 311/311
f 311/311 306/306 305/305
f 306/306 311/311 312/312
f 312/312 307/307 306/306
f 307/307 312/312 313/313
f 313/313 308/308 307/307
f 308/308 313/313 314/314
f 315/315 316/316 317/317
f 317/317 318/318 315/315
f 318/318 317/317 319/319
f 319/319 320/320 318/318
f 320/320 319/319 321/321
f 321/321 322/322 320/320
f 322/322 321/321 279/279
f 316/316 323/323 324/324
f 324/324 317/317 316/316
f 317/317 324/324 325/325
f 325/325 319/319 317/317
f 319/319 325/325 326/326
f 326/326 321/321 319/319
f 321/321 326/326 284/284
f 323/323 327/327 328/328
f 328/328 324/324 323/323
f 324/324 328/328 329/329
f 329/329 325/325 324/324
f 325/325 329/329 330/330
f 330/330 326/326 325/325
f 326/326 330/330 289/289
f 327/327 331/331 332/332
f 332/332 328/328 327/327
f 328/328 332/332 333/333
f 333/333 329/329 328/328
f 329/329 333/333 334/334
f 334/334 330/330 329/329
f 330/330 334/334 294/294
f 331/331 335/335 336/336
f 336/336 332/332 331/331
f 332/332 336/336 337/337
f 337/337 333/333 332/332
f 333/333 337/337 338/338
f 338/338 334/334 333/333
f 334/334 338/338 299/299
f 335/335 339/339 340/340
f 340/340 336/336 335/335
f 336/336 340/340 341/341
f 341/341 337/337 336/336
f 337/337 341/341 342/342
f 342/342 338/338 337/337
f 338/338 342/342 304/304
f 339/339 343/343 344/344
f 344/344 340/340 339/339
f 340/340 344/344 345/345
f 345/345 341/341 340/340
f 341/341 345/345 346/346
f 346/346 342/342 341/341
f 342/342 346/346 309/309
f 343/343 347/347 348/348
f 348/348 344/344 343/343
f 344/344 348/348 349/349
f 349/349 345/345 344/344
f 345/345 349/349 350/350
f 350/350 346/346 345/345
f 346/346 350/350 314/314
f 351/351 352/352 353/353
f 353/353 354/354 351/351
f 354/354 353/353 355/355
f 355/355 356/356 354/354
f 356/356 355/355 357/357
f 357/357 358/358 356/356
f 358/358 357/357 359/359
f 359/359 360/360 358/358
f 352/352 361/361 362/362
f 362/362 353/353 352/352
f 353/353 362/362 363/363
f 363/363 355/355 353/353
f 355/355 363/363 364/364
f 364/364 357/357 355/355
f 357/357 364/364 365/365
f 365/365 359/359 357/357
f 361/361 366/366 367/367
f 367/367 362/362 361/361
f 362/362 367/367 368/368
f 368/368 363/363 362/362
f 363/363 368/368 369/369
f 369/369 364/364 363/363
f 364/364 369/369 370/370
f 370/370 365/365 364/364
f 366/366 371/371 372/372
f 372/372 367/367 366/366
f 367/367 372/372 373/373
f 373/373 368/368 367/367
f 368/368 373/373 374/374
f 374/374 369/369 368/368
f 369/369 374/374 375/375
f 375/375 370/370 369/369
f 371/371 376/376 377/377
f 377/377 372/372 371/371
f 372/372 377/377 378/378
f 378/378 373/373 372/372
f 373/373 378/378 379/379
f 379/379 374/374 373/373
f 374/374 379/379 380/380
f 380/380 375/375 374/374
f 376/376 381/381 382/382
f 382/382 377/377 376/376
f 377/377 382/382 383/383
f 383/383 378/378 377/377
f 378/378 383/383 384/384
f 384/384 379/379 378/378
f 379/379 384/384 385/385
f 385/385 380/380 379/379
f 381/381 386/386 387/387
f 387/387 382/382 381/381
f 382/382 387/387 388/388
f 388/388 383/383 382/382
f 383/383 388/388 389/389
f 389/389 384/384 383/383
f 384/384 389/389 390/390
f 390/390 385/385 384/384
f 386/386 391/391 392/392
f 392/392 387/387 386/386
f 387/387 392/392 393/393
f 393/393 388/388 387/387
f 388/388 393/393 394/394
f 394/394 389/389 388/388
f 389/389 394/394 395/395
f 395/395 390/390 389/389
f 360/360 359/359 396/396
f 396/396 397/397 360/360
f 397/397 396/396 398/398
f 398/398 399/399 397/397
f 399/399 398/398 400/400
f 400/400 401/401 399/399
f 401/401 400/400 402/402
f 402/402 403/403 401/401
f 359/359 365/365 404/404
f 404/404 396/396 359/359
f 396/396 404/404 405/405
f 405/405 398/398 396/396
f 398/398 405/405 406/406
f 406/406 400/400 398/398
f 400/400 406/406 407/407
f 407/407 402/402 400/400
f 365/365 370/370 408/408
f 408/408 404/404 365/365
f 404/404 408/408 409/409
f 409/409 405/405 404/404
f 405/405 409/409 410/410
f 410/410 406/406 405/405
f 406/406 410/410 411/411
f 411/411 407/407 406/406
f 370/370 375/375 412/412
f 412/412 408/408 370/370
f 408/408 412/412 413/413
f 413/413 409/409 408/408
f 409/409 413/413 414/414
f 414/414 410/410 409/409
f 410/410 414/414 415/415
f 415/415 411/411 410/410
f 375/375 380/380 416/416
f 416/416 412/412 375/375
f 412/412 416/416 417/417
f 417/417 413/413 412/412
f 413/413 417/417 418/418
f 418/418 414/414 413/413
f 414/414 418/418 419/419
f 419/419 415/415 414/414
f 380/380 385/385 420/420
f 420/420 416/416 380/380
f 416/416 420/420 421/421
f 421/421 417/417 416/416
f 417/417 421/421 422/422
f 422/422 418/418 417/417
f 418/418 422/422 423/423
f 423/423 419/419 418/418
f 385/385 390/390 424/424
f 424/424 420/420 385/385
f 420/420 424/424 425/425
f 425/425 421/421 420/420
f 421/421 425/425 426/426
f 426/426 422/422 421/421
f 422/422 426/426 427/427
f 427/427 423/423 422/422
f 390/390 395/395 428/428
f 428/428 424/424 390/390
f 424/424 428/428 429/429
f 429/429 425/425 424/424
f 425/425 429/429 430/430
f 430/430 426/426 425/425
f 426/426 430/430 431/431
f 431/431 427/427 426/426
f 432/432 433/433 434/434
f 434/434 435/435 432/432
f 435/435 434/434 436/436
f 436/436 437/437 435/435
f 437/437 436/436 438/438
f 438/438 439/439 437/437
f 439/439 438/438 440/440
f 440/440 441/441 439/439
f 433/433 442/442 443/443
f 443/443 434/434 433/433
f 434/434 443/443 444/444
f 444/444 436/436 434/434
f 436/436 444/444 445/445
f 445/445 438/438 436/436
f 438/438 445/445 446/446
f 446/446 440/440 438/438
f 442/442 447/447 448/448
f 448/448 443/443 442/442
f 443/443 448/448 449/449
f 449/449 444/444 443/443
f 444/444 449/449 450/450
f 450/450 445/445 444/444
f 445/445 450/450 451/451
f 451/451 446/446 445/445
f 447/447 452/452 453/453
f 453/453 448/448 447/447
f 448/448 453/453 454/454
f 454/454 449/449 448/448
f 449/449 454/454 455/455
f 455/455 450/450 449/449
f 450/450 455/455 456/456
f 456/456 451/451 450/450
f 457/457 458/458 459/459
f 459/459 460/460 457/457
f 460/460 459/459 461/461
f 461/461 462/462 460/460
f 462/462 461/461 463/463
f 463/463 464/464 462/462
f 464/464 463/463 465/465
f 465/465 466/466 464/464
f 458/458 467/467 468/468
f 468/468 459/459 458/458
f 459/459 468/468 469/469
f 469/469 461/461 459/459
f 461/461 469/469 470/470
f 470/470 463/463 461/461
f 463/463 470/470 471/471
f 471/471 465/465 463/463
f 467/467 472/472 473/473
f 473/473 468/468 467/467
f 468/468 473/473 474/474
f 474/474 469/469 468/468
f 469/469 474/474 475/475
f 475/475 470/470 469/469
f 470/470 475/475 476/476
f 476/476 471/471 470/470
f 472/472 432/432 435/435
f 435/435 473/473 472/472
f 473/473 435/435 437/437
f 437/437 474/474 473/473
f 474/474 437/437 439/439
f 439/439 475/475 474/474
f 475/475 439/439 441/441
f 441/441 476/476 475/475
f 477/477 478/478 479/479
f 479/479 480/480 477/477
f 480/480 479/479 481/481
f 481/481 482/482 480/480
f 482/482 481/481 483/483
f 483/483 484/484 482/482
f 484/484 483/483 485/485
f 485/485 486/486 484/484
f 478/478 487/487 488/488
f 488/488 479/479 478/478
f 479/479 488/488 489/489
f 489/489 481/481 479/479
f 481/481 489/489 490/490
f 490/490 483/483 481/481
f 483/483 490/490 491/491
f 491/491 485/485 483/483
f 487/487 492/492 493/493
f 493/493 488/488 487/487
f 488/488 493/493 494/494
f 494/494 489/489 488/488
f 489/489 494/494 495/495
f 495/495 490/490 489/489
f 490/490 495/495 496/496
f 496/496 491/491 490/490
f 492/492 497/497 498/498
f 498/498 493/493 492/492
f 493/493 498/498 499/499
f 499/499 494/494 493/493
f 494/494 499/499 500/500
f 500/500 495/495 494/494
f 495/495 500/500 501/501
f 501/501 496/496 495/495
f 502/502 503/503 504/504
f 504/504 505/505 502/502
f 505/505 504/504 506/506
f 506/506 507/507 505/505
f 507/507 506/506 508/508
f 508/508 509/509 507/507
f 509/509 508/508 510/510
f 510/510 511/511 509/509
f 503/503 512/512 513/513
f 513/513 504/504 503/503
f 504/504 513/513 514/514
f 514/514 506/506 504/504
f 506/506 514/514 515/515
f 515/515 508/508 506/506
f 508/508 515/515 516/516
f 516/516 510/510 508/508
f 512/512 517/517 518/518
f 518/518 513/513 512/512
f 513/513 518/518 519/519
f 519/519 514/514 513/513
f 514/514 519/519 520/520
f 520/520 515/515 514/514
f 515/515 520/520 521/521
f 521/521 516/516 515/515
f 517/517 477/477 480/480
f 480/480 518/518 517/517
f 518/518 480/480 482/482
f 482/482 519/519 518/518
f 519/519 482/482 484/484
f 484/484 520/520 519/519
f 520/520 484/484 486/486
f 486/486 521/521 520/520
f 522/522 523/523 524/524
f 523/523 522/522 525/525
f 525/525 526/526 523/523
f 526/526 525/525 527/527
f 527/527 528/528 526/526
f 528/528 527/527 529/529
f 529/529 530/530 528/528
f 531/531 522/522 532/532
f 522/522 531/531 533/533
f 533/533 525/525 522/522
f 525/525 533/533 534/534
f 534/534 527/527 525/525
f 527/527 534/534 535/535
f 535/535 529/529 527/527
f 536/536 531/531 537/537
f 531/531 536/536 538/538
f 538/538 533/533 531/531
f 533/533 538/538 539/539
f 539/539 534/534 533/533
f 534/534 539/539 540/540
f 540/540 535/535 534/534
f 541/541 536/536 542/542
f 536/536 541/541 543/543
f 543/543 538/538 536/536
f 538/538 543/543 544/544
f 544/544 539/539 538/538
f 539/539 544/544 545/545
f 545/545 540/540 539/539
f 546/546 541/541 547/547
f 541/541 546/546 548/548
f 548/548 543/543 541/541
f 543/543 548/548 549/549
f 549/549 544/544 543/543
f 544/544 549/549 550/550
f 550/550 545/545 544/544
f 551/551 546/546 552/552
f 546/546 551/551 553/553
f 553/553 548/548 546/546
f 548/548 553/553 554/554
f 554/554 549/549 548/548
f 549/549 554/554 555/555
f 555/555 550/550 549/549
f 556/556 551/551 557/557
f 551/551 556/556 558/558
f 558/558 553/553 551/551
f 553/553 558/558 559/559
f 559/559 554/554 553/553
f 554/554 559/559 560/560
f 560/560 555/555 554/554
f 561/561 556/556 562/562
f 556/556 561/561 563/563
f 563/563 558/558 556/556
f 558/558 563/563 564/564
f 564/564 559/559 558/558
f 559/559 564/564 565/565
f 565/565 560/560 559/559
f 566/566 567/567 524/524
f 567/567 566/566 568/568
f 568/568 569/569 567/567
f 569/569 568/568 570/570
f 570/570 571/571 569/569
f 571/571 570/570 572/572
f 572/572 573/573 571/571
f 574/574 566/566 532/532
f 566/566 574/574 575/575
f 575/575 568/568 566/566
f 568/568 575/575 576/576
f 576/576 570/570 568/568
f 570/570 576/576 577/577
f 577/577 572/572 570/570
f 578/578 574/574 537/537
f 574/574 578/578 579/579
f 579/579 575/575 574/574
f 575/575 579/579 580/580
f 580/580 576/576 575/575
f 576/576 580/580 581/581
f 581/581 577/577 576/576
f 582/582 578/578 542/542
f 578/578 582/582 583/583
f 583/583 579/579 578/578
f 579/579 583/583 584/584
f 584/584 580/580 579/579
f 580/580 584/584 585/585
f 585/585 581/581 580/580
f 586/586 582/582 547/547
f 582/582 586/586 587/587
f 587/587 583/583 582/582
f 583/583 587/587 588/588
f 588/588 584/584 583/583
f 584/584 588/588 589/589
f 589/589 585/585 584/584
f 590/590 586/586 552/552
f 586/586 590/590 591/591
f 591/591 587/587 586/586
f 587/587 591/591 592/592
f 592/592 588/588 587/587
f 588/588 592/592 593/593
f 593/593 589/589 588/588
f 594/594 590/590 557/557
f 590/590 594/594 595/595
f 595/595 591/591 590/590
f 591/591 595/595 596/596
f 596/596 592/592 591/591
f 592/592 596/596 597/597
f 597/597 593/593 592/592
f 598/598 594/594 562/562
f 594/594 598/598 599/599
f 599/599 595/595 594/594
f 595/595 599/599 600/600
f 600/600 596/596 595/595
f 596/596 600/600 601/601
f 601/601 597/597 596/596
f 602/602 603/603 604/604
f 604/604 605/605 602/602
f 605/605 604/604 606/606
f 606/606 607/607 605/605
f 607/607 606/606 608/608
f 608/608 609/609 607/607
f 609/609 608/608 610/610
f 610/610 611/611 609/609
f 603/603 612/612 613/613
f 613/613 604/604 603/603
f 604/604 613/613 614/614
f 614/614 606/606 604/604
f 606/606 614/614 615/615
f 615/615 608/608 606/606
f 608/608 615/615 616/616
f 616/616 610/610 608/608
f 612/612 617/617 618/618
f 618/618 613/613 612/612
f 613/613 618/618 619/619
f 619/619 614/614 613/613
f 614/614 619/619 620/620
f 620/620 615/615 614/614
f 615/615 620/620 621/621
f 621/621 616/616 615/615
f 617/617 622/622 623/623
f 623/623 618/618 617/617
f 618/618 623/623 624/624
f 624/624 619/619 618/618
f 619/619 624/624 625/625
f 625/625 620/620 619/619
f 620/620 625/625 626/626
f 626/626 621/621 620/620
f 622/622 627/627 628/628
f 628/628 623/623 622/622
f 623/623 628/628 629/629
f 629/629 624/624 623/623
f 624/624 629/629 630/630
f 630/630 625/625 624/624
f 625/625 630/630 631/631
f 631/631 626/626 625/625
f 627/627 632/632 633/633
f 633/633 628/628 627/627
f 628/628 633/633 634/634
f 634/634 629/629 628/628
f 629/629 634/634 635/635
f 635/635 630/630 629/629
f 630/630 635/635 636/636
f 636/636 631/631 630/630
f 632/632 637/637 638/638
f 638/638 633/633 632/632
f 633/633 638/638 639/639
f 639/639 634/634 633/633
f 634/634 639/639 640/640
f 640/640 635/635 634/634
f 635/635 640/640 641/641
f 641/641 636/636 635/635
f 637/637 642/642 643/643
f 643/643 638/638 637/637
f 638/638 643/643 644/644
f 644/644 639/639 638/638
f 639/639 644/644 645/645
f 645/645 640/640 639/639
f 640/640 645/645 646/646
f 646/646 641/641 640/640
f 647/647 648/648 649/649
f 649/649 650/650 647/647
f 650/650 649/649 651/651
f 651/651 652/652 650/650
f 652/652 651/651 653/653
f 653/653 654/654 652/652
f 654/654 653/653 655/655
f 655/655 656/656 654/654
f 648/648 657/657 658/658
f 658/658 649/649 648/648
f 649/649 658/658 659/659
f 659/659 651/651 649/649
f 651/651 659/659 660/660
f 660/660 653/653 651/651
f 653/653 660/660 661/661
f 661/661 655/655 653/653
f 657/657 662/662 663/663
f 663/663 658/658 657/657
f 658/658 663/663 664/664
f 664/664 659/659 658/658
f 659/659 664/664 665/665
f 665/665 660/660 659/659
f 660/660 665/665 666/666
f 666/666 661/661 660/660
f 662/662 667/667 668/668
f 668/668 663/663 662/662
f 663/663 668/668 669/669
f 669/669 664/664 663/663
f 664/664 669/669 670/670
f 670/670 665/665 664/664
f 665/665 670/670 671/671
f 671/671 666/666 665/665
f 667/667 672/672 673/673
f 673/673 668/668 667/667
f 668/668 673/673 674/674
f 674/674 669/669 668/668
f 669/669 674/674 675/675
f 675/675 670/670 669/669
f 670/670 675/675 676/676
f 676/676 671/671 670/670
f 672/672 677/677 678/678
f 678/678 673/673 672/672
f 673/673 678/678 679/679
f 679/679 674/674 673/673
f 674/674 679/679 680/680
f 680/680 675/675 674/674
f 675/675 680/680 681/681
f 681/681 676/676 675/675
f 677/677 682/682 683/683
f 683/683 678/678 677/677
f 678/678 683/683 684/684
f 684/684 679/679 678/678
f 679/679 684/684 685/685
f 685/685 680/680 679/679
f 680/680 685/685 686/686
f 686/686 681/681 680/680
f 682/682 687/687 688/688
f 688/688 683/683 682/682
f 683/683 688/688 689/689
f 689/689 684/684 683/683
f 684/684 689/689 690/690
f 690/690 685/685 684/684
f 685/685 690/690 691/691
f 691/691 686/686 685/685
# 992 faces

