v 0.000000 -0.734375 0.000000
v 0.367188 -0.635987 0.000000
v 0.317994 -0.635987 0.183594
v 0.000000 0.734375 0.000000
v 0.317994 0.635987 0.183594
v 0.367188 0.635987 0.000000
v 0.000000 -0.734375 0.000000
v 0.183594 -0.635987 0.317994
v 0.000000 0.734375 0.000000
v 0.183594 0.635987 0.317994
v 0.000000 -0.734375 0.000000
v 0.000000 -0.635987 0.367188
v 0.000000 0.734375 0.000000
v 0.000000 0.635987 0.367188
v 0.000000 -0.734375 0.000000
v -0.183594 -0.635987 0.317994
v 0.000000 0.734375 0.000000
v -0.183594 0.635987 0.317994
v 0.000000 -0.734375 0.000000
v -0.317994 -0.635987 0.183594
v 0.000000 0.734375 0.000000
v -0.317994 0.635987 0.183594
v 0.000000 -0.734375 0.000000
v -0.367188 -0.635987 0.000000
v 0.000000 0.734375 0.000000
v -0.367188 0.635987 0.000000
v 0.000000 -0.734375 0.000000
v -0.317994 -0.635987 -0.183594
v 0.000000 0.734375 0.000000
v -0.317994 0.635987 -0.183594
v 0.000000 -0.734375 0.000000
v -0.183594 -0.635987 -0.317994
v 0.000000 0.734375 0.000000
v -0.183594 0.635987 -0.317994
v 0.000000 -0.734375 0.000000
v 0.000000 -0.635987 -0.367188
v 0.000000 0.734375 0.000000
v 0.000000 0.635987 -0.367188
v 0.000000 -0.734375 0.000000
v 0.183594 -0.635987 -0.317994
v 0.000000 0.734375 0.000000
v 0.183594 0.635987 -0.317994
v 0.000000 -0.734375 0.000000
v 0.317994 -0.635987 -0.183594
v 0.000000 0.734375 0.000000
v 0.317994 0.635987 -0.183594
v 0.000000 -0.734375 0.000000
v 0.367188 -0.635987 0.000000
v 0.000000 0.734375 0.000000
v 0.367188 0.635987 0.000000
v 0.635987 -0.367188 0.000000
v 0.550781 -0.367188 0.317994
v 0.317994 -0.367188 0.550781
v 0.000000 -0.367188 0.635987
v -0.317994 -0.367188 0.550781
v -0.550781 -0.367188 0.317994
v -0.635988 -0.367188 0.000000
v -0.550781 -0.367188 -0.317994
v -0.317994 -0.367188 -0.550781
v 0.000000 -0.367188 -0.635987
v 0.317994 -0.367188 -0.550781
v 0.550781 -0.367188 -0.317994
v 0.635987 -0.367188 0.000000
v 0.734375 0.000000 0.000000
v 0.635987 0.000000 0.367188
v 0.367188 0.000000 0.635987
v 0.000000 0.000000 0.734375
v -0.367188 0.000000 0.635987
v -0.635988 0.000000 0.367188
v -0.734375 0.000000 0.000000
v -0.635988 0.000000 -0.367188
v -0.367188 0.000000 -0.635987
v 0.000000 0.000000 -0.734375
v 0.367188 0.000000 -0.635987
v 0.635987 0.000000 -0.367188
v 0.734375 0.000000 0.000000
v 0.635987 0.367188 0.000000
v 0.550781 0.367188 0.317994
v 0.317994 0.367188 0.550781
v 0.000000 0.367188 0.635987
v -0.317994 0.367188 0.550781
v -0.550781 0.367188 0.317994
v -0.635988 0.367188 0.000000
v -0.550781 0.367188 -0.317994
v -0.317994 0.367188 -0.550781
v 0.000000 0.367188 -0.635987
v 0.317994 0.367188 -0.550781
v 0.550781 0.367188 -0.317994
v 0.635987 0.367188 0.000000
# 89 vertices

vt 0.000000 1.000000
vt 0.000000 0.833333
vt 0.083333 0.833333
vt 0.000000 0.000000
vt 0.083333 0.166667
vt 0.000000 0.166667
vt 0.083333 1.000000
vt 0.166667 0.833333
vt 0.083333 0.000000
vt 0.166667 0.166667
vt 0.166667 1.000000
vt 0.250000 0.833333
vt 0.166667 0.000000
vt 0.250000 0.166667
vt 0.250000 1.000000
vt 0.333333 0.833333
vt 0.250000 0.000000
vt 0.333333 0.166667
vt 0.333333 1.000000
vt 0.416667 0.833333
vt 0.333333 0.000000
vt 0.416667 0.166667
vt 0.416667 1.000000
vt 0.500000 0.833333
vt 0.416667 0.000000
vt 0.500000 0.166667
vt 0.500000 1.000000
vt 0.583333 0.833333
vt 0.500000 0.000000
vt 0.583333 0.166667
vt 0.583333 1.000000
vt 0.666667 0.833333
vt 0.583333 0.000000
vt 0.666667 0.166667
vt 0.666667 1.000000
vt 0.750000 0.833333
vt 0.666667 0.000000
vt 0.750000 0.166667
vt 0.750000 1.000000
vt 0.833333 0.833333
vt 0.750000 0.000000
vt 0.833333 0.166667
vt 0.833333 1.000000
vt 0.916667 0.833333
vt 0.833333 0.000000
vt 0.916667 0.166667
vt 0.916667 1.000000
vt 1.000000 0.833333
vt 0.916667 0.000000
vt 1.000000 0.166667
vt 0.000000 0.666667
vt 0.083333 0.666667
vt 0.166667 0.666667
vt 0.250000 0.666667
vt 0.333333 0.666667
vt 0.416667 0.666667
vt 0.500000 0.666667
vt 0.583333 0.666667
vt 0.666667 0.666667
vt 0.750000 0.666667
vt 0.833333 0.666667
vt 0.916667 0.666667
vt 1.000000 0.666667
vt 0.000000 0.500000
vt 0.083333 0.500000
vt 0.166667 0.500000
vt 0.250000 0.500000
vt 0.333333 0.500000
vt 0.416667 0.500000
vt 0.500000 0.500000
vt 0.583333 0.500000
vt 0.666667 0.500000
vt 0.750000 0.500000
vt 0.833333 0.500000
vt 0.916667 0.500000
vt 1.000000 0.500000
vt 0.000000 0.333333
vt 0.083333 0.333333
vt 0.166667 0.333333
vt 0.250000 0.333333
vt 0.333333 0.333333
vt 0.416667 0.333333
vt 0.500000 0.333333
vt 0.583333 0.333333
vt 0.666667 0.333333
vt 0.750000 0.333333
vt 0.833333 0.333333
vt 0.916667 0.333333
vt 1.000000 0.333333
# 89 texture vertices

vn -0.000000 -1.000000 -0.000000
vn 0.573584 -0.819147 -0.000000
vn 0.431481 -0.867044 0.249116
vn 0.000000 1.000000 -0.000000
vn 0.431481 0.867044 0.249116
vn 0.573583 0.819147 0.000000
vn 0.286792 -0.819147 0.496738
vn 0.286792 0.819147 0.496738
vn 0.000000 -0.867044 0.498231
vn 0.000000 0.867044 0.498231
vn -0.286792 -0.819147 0.496738
vn -0.286792 0.819147 0.496738
vn -0.431481 -0.867044 0.249116
vn -0.431481 0.867044 0.249116
vn -0.573583 -0.819147 0.000000
vn -0.573583 0.819147 0.000000
vn -0.431481 -0.867044 -0.249116
vn -0.431481 0.867044 -0.249116
vn -0.286792 -0.819147 -0.496738
vn -0.286792 0.819147 -0.496738
vn 0.000000 -0.867044 -0.498231
vn 0.000000 0.867044 -0.498231
vn 0.286792 -0.819147 -0.496738
vn 0.286792 0.819147 -0.496738
vn 0.431481 -0.867044 -0.249116
vn 0.431481 0.867044 -0.249116
vn 0.865033 -0.501714 0.000000
vn 0.749141 -0.501714 0.432517
vn 0.432517 -0.501714 0.749141
vn 0.000000 -0.501714 0.865033
vn -0.432517 -0.501714 0.749141
vn -0.749141 -0.501714 0.432517
vn -0.865033 -0.501714 0.000000
vn -0.749141 -0.501714 -0.432517
vn -0.432517 -0.501714 -0.749141
vn -0.000000 -0.501714 -0.865033
vn 0.432517 -0.501714 -0.749141
vn 0.749141 -0.501714 -0.432517
vn 1.000000 0.000000 0.000000
vn 0.866025 0.000000 0.500000
vn 0.500000 -0.000000 0.866025
vn 0.000000 0.000000 1.000000
vn -0.500000 -0.000000 0.866025
vn -0.866025 0.000000 0.500000
vn -1.000000 0.000000 0.000000
vn -0.866025 0.000000 -0.500000
vn -0.500000 -0.000000 -0.866025
vn 0.000000 0.000000 -1.000000
vn 0.500000 -0.000000 -0.866025
vn 0.866025 0.000000 -0.500000
vn 0.865033 0.501715 0.000000
vn 0.749141 0.501715 0.432517
vn 0.432517 0.501715 0.749141
vn 0.000000 0.501715 0.865033
vn -0.432517 0.501715 0.749141
vn -0.749141 0.501715 0.432517
vn -0.865033 0.501714 0.000000
vn -0.749141 0.501715 -0.432517
vn -0.432517 0.501715 -0.749141
vn -0.000000 0.501715 -0.865033
vn 0.432517 0.501715 -0.749141
vn 0.749141 0.501715 -0.432517
# 62 normals

g Sphere01
f 1/1/1 2/2/2 3/3/3
f 4/4/4 5/5/5 6/6/6
f 7/7/1 3/3/3 8/8/7
f 9/9/4 10/10/8 5/5/5
f 11/11/1 8/8/7 12/12/9
f 13/13/4 14/14/10 10/10/8
f 15/15/1 12/12/9 16/16/11
f 17/17/4 18/18/12 14/14/10
f 19/19/1 16/16/11 20/20/13
f 21/21/4 22/22/14 18/18/12
f 23/23/1 20/20/13 24/24/15
f 25/25/4 26/26/16 22/22/14
f 27/27/1 24/24/15 28/28/17
f 29/29/4 30/30/18 26/26/16
f 31/31/1 28/28/17 32/32/19
f 33/33/4 34/34/20 30/30/18
f 35/35/1 32/32/19 36/36/21
f 37/37/4 38/38/22 34/34/20
f 39/39/1 36/36/21 40/40/23
f 41/41/4 42/42/24 38/38/22
f 43/43/1 40/40/23 44/44/25
f 45/45/4 46/46/26 42/42/24
f 47/47/1 44/44/25 48/48/2
f 49/49/4 50/50/6 46/46/26
f 2/2/2 51/51/27 52/52/28
f 2/2/2 52/52/28 3/3/3
f 3/3/3 52/52/28 8/8/7
f 52/52/28 53/53/29 8/8/7
f 8/8/7 53/53/29 54/54/30
f 8/8/7 54/54/30 12/12/9
f 12/12/9 54/54/30 16/16/11
f 54/54/30 55/55/31 16/16/11
f 16/16/11 55/55/31 56/56/32
f 16/16/11 56/56/32 20/20/13
f 20/20/13 56/56/32 24/24/15
f 56/56/32 57/57/33 24/24/15
f 24/24/15 57/57/33 58/58/34
f 24/24/15 58/58/34 28/28/17
f 28/28/17 58/58/34 32/32/19
f 58/58/34 59/59/35 32/32/19
f 32/32/19 59/59/35 60/60/36
f 32/32/19 60/60/36 36/36/21
f 36/36/21 60/60/36 40/40/23
f 60/60/36 61/61/37 40/40/23
f 40/40/23 61/61/37 62/62/38
f 40/40/23 62/62/38 44/44/25
f 44/44/25 62/62/38 48/48/2
f 62/62/38 63/63/27 48/48/2
f 51/51/27 64/64/39 52/52/28
f 64/64/39 65/65/40 52/52/28
f 52/52/28 65/65/40 66/66/41
f 52/52/28 66/66/41 53/53/29
f 53/53/29 66/66/41 54/54/30
f 66/66/41 67/67/42 54/54/30
f 54/54/30 67/67/42 68/68/43
f 54/54/30 68/68/43 55/55/31
f 55/55/31 68/68/43 56/56/32
f 68/68/43 69/69/44 56/56/32
f 56/56/32 69/69/44 70/70/45
f 56/56/32 70/70/45 57/57/33
f 57/57/33 70/70/45 58/58/34
f 70/70/45 71/71/46 58/58/34
f 58/58/34 71/71/46 72/72/47
f 58/58/34 72/72/47 59/59/35
f 59/59/35 72/72/47 60/60/36
f 72/72/47 73/73/48 60/60/36
f 60/60/36 73/73/48 74/74/49
f 60/60/36 74/74/49 61/61/37
f 61/61/37 74/74/49 62/62/38
f 74/74/49 75/75/50 62/62/38
f 62/62/38 75/75/50 76/76/39
f 62/62/38 76/76/39 63/63/27
f 64/64/39 77/77/51 78/78/52
f 64/64/39 78/78/52 65/65/40
f 65/65/40 78/78/52 66/66/41
f 78/78/52 79/79/53 66/66/41
f 66/66/41 79/79/53 80/80/54
f 66/66/41 80/80/54 67/67/42
f 67/67/42 80/80/54 68/68/43
f 80/80/54 81/81/55 68/68/43
f 68/68/43 81/81/55 82/82/56
f 68/68/43 82/82/56 69/69/44
f 69/69/44 82/82/56 70/70/45
f 82/82/56 83/83/57 70/70/45
f 70/70/45 83/83/57 84/84/58
f 70/70/45 84/84/58 71/71/46
f 71/71/46 84/84/58 72/72/47
f 84/84/58 85/85/59 72/72/47
f 72/72/47 85/85/59 86/86/60
f 72/72/47 86/86/60 73/73/48
f 73/73/48 86/86/60 74/74/49
f 86/86/60 87/87/61 74/74/49
f 74/74/49 87/87/61 88/88/62
f 74/74/49 88/88/62 75/75/50
f 75/75/50 88/88/62 76/76/39
f 88/88/62 89/89/51 76/76/39
f 77/77/51 6/6/6 78/78/52
f 6/6/6 5/5/5 78/78/52
f 78/78/52 5/5/5 10/10/8
f 78/78/52 10/10/8 79/79/53
f 79/79/53 10/10/8 80/80/54
f 10/10/8 14/14/10 80/80/54
f 80/80/54 14/14/10 18/18/12
f 80/80/54 18/18/12 81/81/55
f 81/81/55 18/18/12 82/82/56
f 18/18/12 22/22/14 82/82/56
f 82/82/56 22/22/14 26/26/16
f 82/82/56 26/26/16 83/83/57
f 83/83/57 26/26/16 84/84/58
f 26/26/16 30/30/18 84/84/58
f 84/84/58 30/30/18 34/34/20
f 84/84/58 34/34/20 85/85/59
f 85/85/59 34/34/20 86/86/60
f 34/34/20 38/38/22 86/86/60
f 86/86/60 38/38/22 42/42/24
f 86/86/60 42/42/24 87/87/61
f 87/87/61 42/42/24 88/88/62
f 42/42/24 46/46/26 88/88/62
f 88/88/62 46/46/26 50/50/6
f 88/88/62 50/50/6 89/89/51
# 120 faces
