v 0.557979 0.386106 -2.062424
v 0.411143 0.386106 -2.062424
v 0.557979 0.386084 1.070096
v 0.411143 0.386084 1.070096
v 0.239833 0.386106 -2.062424
v 0.092996 0.386106 -2.062424
v 0.239833 0.386106 1.070096
v 0.092996 0.386106 1.070096
v -0.078314 0.386106 -2.062424
v -0.225151 0.386106 -2.062424
v -0.078314 0.386106 1.070096
v -0.225151 0.386106 1.070096
v -0.396460 0.386106 -2.062424
v -0.543297 0.386106 -2.062424
v -0.396460 0.386106 1.070096
v -0.543297 0.386106 1.070096
v 0.411143 0.239248 1.070096
v 0.411143 0.239269 -2.062424
v 0.557979 0.239248 1.070096
v 0.557979 0.239269 -2.062424
v 0.092996 0.239269 1.070096
v 0.092996 0.239269 -2.062424
v 0.239833 0.239269 1.070096
v 0.239833 0.239269 -2.062424
v -0.225151 0.239269 1.070096
v -0.225151 0.239269 -2.062424
v -0.078314 0.239269 1.070096
v -0.078314 0.239269 -2.062424
v -0.543297 0.239269 1.070096
v -0.543297 0.239269 -2.062424
v -0.396460 0.239269 1.070096
v -0.396460 0.239269 -2.062424
v 0.411143 0.386084 1.070096
v 0.411143 0.386106 -2.062424
v 0.411143 0.239248 1.070096
v 0.411143 0.239269 -2.062424
v -0.714607 0.092431 0.776422
v -0.714607 0.092431 0.580639
v 0.729289 0.092432 0.580639
v 0.729289 0.092432 0.776422
v -0.714606 0.092432 -1.719805
v -0.714606 0.092432 -1.915588
v 0.729289 0.092431 -1.915588
v 0.729289 0.092431 -1.719805
v 0.092996 0.386106 1.070096
v 0.092996 0.386106 -2.062424
v 0.092996 0.239269 1.070096
v 0.092996 0.239269 -2.062424
v -0.225151 0.386106 1.070096
v -0.225151 0.386106 -2.062424
v -0.225151 0.239269 1.070096
v -0.225151 0.239269 -2.062424
v -0.543297 0.386106 1.070096
v -0.543297 0.386106 -2.062424
v -0.543297 0.239269 1.070096
v -0.543297 0.239269 -2.062424
v 0.557979 0.386084 1.070096
v 0.411143 0.386084 1.070096
v 0.557979 0.239248 1.070096
v 0.411143 0.239248 1.070096
v 0.729289 0.092432 0.776422
v 0.729289 0.239269 0.776422
v -0.714607 0.239269 0.776422
v -0.714607 0.092431 0.776422
v -0.714606 0.239269 -1.719805
v -0.714606 0.092432 -1.719805
v 0.729289 0.092431 -1.719805
v 0.729289 0.239268 -1.719805
v 0.239833 0.386106 1.070096
v 0.092996 0.386106 1.070096
v 0.239833 0.239269 1.070096
v 0.092996 0.239269 1.070096
v -0.078314 0.386106 1.070096
v -0.225151 0.386106 1.070096
v -0.078314 0.239269 1.070096
v -0.225151 0.239269 1.070096
v -0.396460 0.386106 1.070096
v -0.543297 0.386106 1.070096
v -0.396460 0.239269 1.070096
v -0.543297 0.239269 1.070096
v 0.557979 0.386106 -2.062424
v 0.557979 0.386084 1.070096
v 0.557979 0.239269 -2.062424
v 0.557979 0.239248 1.070096
v -0.714607 0.239269 0.580639
v -0.714607 0.239269 0.776422
v 0.729289 0.239269 0.776422
v 0.729289 0.239269 0.580639
v -0.714606 0.239269 -1.915588
v -0.714606 0.239269 -1.719805
v 0.729289 0.239268 -1.719805
v 0.729289 0.239268 -1.915588
v 0.239833 0.386106 -2.062424
v 0.239833 0.386106 1.070096
v 0.239833 0.239269 -2.062424
v 0.239833 0.239269 1.070096
v -0.078314 0.386106 -2.062424
v -0.078314 0.386106 1.070096
v -0.078314 0.239269 -2.062424
v -0.078314 0.239269 1.070096
v -0.396460 0.386106 -2.062424
v -0.396460 0.386106 1.070096
v -0.396460 0.239269 -2.062424
v -0.396460 0.239269 1.070096
v 0.411143 0.386106 -2.062424
v 0.557979 0.386106 -2.062424
v 0.411143 0.239269 -2.062424
v 0.557979 0.239269 -2.062424
v -0.714607 0.092431 0.580639
v -0.714607 0.239269 0.580639
v 0.729289 0.239269 0.580639
v 0.729289 0.092432 0.580639
v -0.714606 0.092432 -1.915588
v -0.714606 0.239269 -1.915588
v 0.729289 0.239268 -1.915588
v 0.729289 0.092431 -1.915588
v 0.092996 0.386106 -2.062424
v 0.239833 0.386106 -2.062424
v 0.092996 0.239269 -2.062424
v 0.239833 0.239269 -2.062424
v -0.225151 0.386106 -2.062424
v -0.078314 0.386106 -2.062424
v -0.225151 0.239269 -2.062424
v -0.078314 0.239269 -2.062424
v -0.543297 0.386106 -2.062424
v -0.396460 0.386106 -2.062424
v -0.543297 0.239269 -2.062424
v -0.396460 0.239269 -2.062424
v 0.876126 0.386106 2.000063
v 0.729289 0.386106 0.580639
v 0.729289 0.386106 2.000063
v 0.876126 0.386106 0.580639
v 0.876126 0.239268 -1.719805
v 0.729289 0.239269 0.580639
v 0.729289 0.239268 -1.719805
v 0.876126 0.239269 0.580639
v 0.876126 0.239269 1.951117
v 0.729289 -0.068970 1.799190
v 0.729289 0.239269 1.951117
v 0.876126 -0.068970 1.799190
v -0.861444 0.386107 2.000063
v -0.714607 0.386107 2.000063
v -0.714607 0.386106 0.580639
v -0.861444 0.386106 0.580639
v -0.861444 0.239269 -1.719805
v -0.714606 0.239269 -1.719805
v -0.714607 0.239269 0.580639
v -0.861444 0.239269 0.580639
v -0.861444 0.239270 1.951117
v -0.714607 0.239270 1.951117
v -0.714607 -0.068969 1.799191
v -0.861444 -0.068969 1.799191
v 0.876126 -0.439773 1.341843
v 0.729289 -0.520462 1.065398
v 0.729289 -0.439773 1.341843
v 0.876126 -0.520462 1.065398
v -0.861444 -0.439772 1.341843
v -0.714607 -0.439772 1.341843
v -0.714607 -0.520461 1.065398
v -0.861444 -0.520461 1.065398
v 0.876126 -0.068970 1.799190
v 0.729289 -0.292296 1.591270
v 0.729289 -0.068970 1.799190
v 0.876126 -0.292296 1.591270
v -0.861444 -0.068969 1.799191
v -0.714607 -0.068969 1.799191
v -0.714607 -0.292296 1.591270
v -0.861444 -0.292296 1.591270
v 0.876126 0.386106 0.580639
v 0.729289 0.386105 -2.062425
v 0.729289 0.386106 0.580639
v 0.876126 0.386105 -2.062425
v 0.876126 0.239268 -2.062425
v 0.729289 0.239268 -1.915588
v 0.729289 0.239268 -2.062425
v 0.876126 0.239268 -1.915588
v 0.876126 -0.543862 -1.915588
v 0.729289 -0.543862 -2.160316
v 0.729289 -0.543862 -1.915587
v 0.876126 -0.543862 -2.160316
v 0.876126 -0.739644 -2.160316
v 0.729289 -0.739644 -1.719805
v 0.729289 -0.739644 -2.160316
v 0.876126 -0.739644 -1.719805
v 0.876126 -0.739643 0.776422
v 0.729289 -0.654974 1.339274
v 0.729289 -0.739644 0.776422
v 0.876126 -0.654974 1.339274
v 0.876126 -0.431476 1.754697
v 0.729289 -0.103477 2.035531
v 0.729289 -0.431476 1.754697
v 0.876126 -0.103477 2.035531
v 0.876126 0.294699 2.194616
v 0.729289 0.728726 2.244791
v 0.729289 0.294699 2.194616
v 0.876126 0.728726 2.244791
v 0.876126 0.786476 2.192958
v 0.729289 0.799051 2.111629
v 0.729289 0.786476 2.192958
v 0.876126 0.799051 2.111629
v 0.876126 0.728726 2.049008
v 0.729289 0.386106 2.000063
v 0.729289 0.728726 2.049008
v 0.876126 0.386106 2.000063
v -0.861444 0.386106 0.580639
v -0.714607 0.386106 0.580639
v -0.714606 0.386106 -2.062425
v -0.861444 0.386106 -2.062425
v -0.861444 0.239269 -2.062425
v -0.714606 0.239269 -2.062425
v -0.714606 0.239269 -1.915588
v -0.861444 0.239269 -1.915588
v -0.861444 -0.543862 -1.915588
v -0.714606 -0.543862 -1.915588
v -0.714606 -0.543862 -2.160316
v -0.861444 -0.543862 -2.160316
v -0.861444 -0.739644 -2.160316
v -0.714606 -0.739644 -2.160316
v -0.714606 -0.739644 -1.719805
v -0.861444 -0.739644 -1.719805
v -0.861444 -0.739643 0.776422
v -0.714607 -0.739643 0.776422
v -0.714607 -0.654973 1.339274
v -0.861444 -0.654973 1.339274
v -0.861444 -0.431476 1.754697
v -0.714607 -0.431476 1.754697
v -0.714607 -0.103476 2.035532
v -0.861444 -0.103476 2.035532
v -0.861444 0.294699 2.194616
v -0.714607 0.294699 2.194616
v -0.714607 0.728726 2.244791
v -0.861444 0.728726 2.244791
v -0.861444 0.786477 2.192958
v -0.714607 0.786477 2.192958
v -0.714607 0.799051 2.111630
v -0.861444 0.799052 2.111630
v -0.861444 0.728726 2.049008
v -0.714607 0.728726 2.049008
v -0.714607 0.386107 2.000063
v -0.861444 0.386107 2.000063
v -0.714606 0.092432 -1.719805
v -0.714606 -0.543861 -1.719805
v -0.714606 0.239269 -1.719805
v 0.876126 0.386105 -2.062425
v 0.729289 0.239268 -2.062425
v 0.729289 0.386105 -2.062425
v 0.876126 0.239268 -2.062425
v 0.876126 -0.543862 -2.160316
v 0.729289 -0.739644 -2.160316
v 0.729289 -0.543862 -2.160316
v 0.876126 -0.739644 -2.160316
v 0.876126 -0.739644 -1.719805
v 0.729289 -0.739644 0.776422
v 0.729289 -0.739644 -1.719805
v 0.876126 -0.739643 0.776422
v 0.876126 0.728726 2.244791
v 0.729289 0.786476 2.192958
v 0.729289 0.728726 2.244791
v 0.876126 0.786476 2.192958
v 0.876126 0.799051 2.111629
v 0.729289 0.728726 2.049008
v 0.729289 0.799051 2.111629
v 0.876126 0.728726 2.049008
v 0.876126 -0.543861 0.580639
v 0.729289 -0.543862 -1.719805
v 0.729289 -0.543861 0.580639
v 0.876126 -0.543862 -1.719805
v 0.876126 -0.292296 1.591270
v 0.729289 -0.439773 1.341843
v 0.729289 -0.292296 1.591270
v 0.876126 -0.439773 1.341843
v 0.876126 -0.520462 1.065398
v 0.729289 -0.543427 0.776422
v 0.729289 -0.520462 1.065398
v 0.876126 -0.543427 0.776422
v 0.876126 0.239269 0.776422
v 0.729289 0.239269 1.951117
v 0.729289 0.239269 0.776422
v 0.876126 0.239269 1.951117
v -0.861444 0.386106 -2.062425
v -0.714606 0.386106 -2.062425
v -0.714606 0.239269 -2.062425
v -0.861444 0.239269 -2.062425
v -0.861444 0.239269 -1.915588
v -0.714606 0.239269 -1.915588
v -0.714606 0.092432 -1.915588
v -0.861444 -0.543862 -2.160316
v -0.714606 -0.543862 -2.160316
v -0.714606 -0.739644 -2.160316
v -0.861444 -0.739644 -2.160316
v -0.861444 -0.739644 -1.719805
v -0.714606 -0.739644 -1.719805
v -0.714607 -0.739643 0.776422
v -0.861444 -0.739643 0.776422
v -0.861444 0.728726 2.244791
v -0.714607 0.728726 2.244791
v -0.714607 0.786477 2.192958
v -0.861444 0.786477 2.192958
v -0.861444 0.799052 2.111630
v -0.714607 0.799051 2.111630
v -0.714607 0.728726 2.049008
v -0.861444 0.728726 2.049008
v -0.861444 -0.543861 0.580640
v -0.714607 -0.543861 0.580640
v -0.714606 -0.543861 -1.719805
v -0.861444 -0.543861 -1.719805
v -0.861444 -0.292296 1.591270
v -0.714607 -0.292296 1.591270
v -0.714607 -0.439772 1.341843
v -0.861444 -0.439772 1.341843
v -0.861444 -0.520461 1.065398
v -0.714607 -0.520461 1.065398
v -0.714607 -0.543426 0.776422
v -0.861444 -0.543426 0.776422
v -0.861444 0.239269 0.776422
v -0.714607 0.239269 0.776422
v -0.714607 0.239270 1.951117
v -0.861444 0.239270 1.951117
v 0.876126 0.239268 -1.915588
v 0.729289 0.092431 -1.915588
v 0.729289 0.239268 -1.915588
v -0.714606 0.092432 -1.915588
v -0.714606 0.239269 -1.915588
v -0.714606 -0.543862 -1.915588
v 0.876126 -0.654974 1.339274
v 0.729289 -0.431476 1.754697
v 0.729289 -0.654974 1.339274
v 0.876126 -0.431476 1.754697
v 0.876126 -0.103477 2.035531
v 0.729289 0.294699 2.194616
v 0.729289 -0.103477 2.035531
v 0.876126 0.294699 2.194616
v -0.861444 -0.654973 1.339274
v -0.714607 -0.654973 1.339274
v -0.714607 -0.431476 1.754697
v -0.861444 -0.431476 1.754697
v -0.861444 -0.103476 2.035532
v -0.714607 -0.103476 2.035532
v -0.714607 0.294699 2.194616
v -0.861444 0.294699 2.194616
v 0.729289 0.386106 2.000063
v 0.729289 0.294699 2.194616
v 0.729289 0.728726 2.244791
v 0.729289 0.786476 2.192958
v 0.729289 0.799051 2.111629
v 0.729289 0.728726 2.049008
v 0.876126 0.728726 2.244791
v 0.876126 0.294699 2.194616
v 0.876126 0.386106 2.000063
v 0.876126 0.728726 2.049008
v 0.876126 0.799051 2.111629
v 0.876126 0.786476 2.192958
v 0.876126 -0.543427 0.776422
v 0.876126 -0.520462 1.065398
v 0.876126 -0.654974 1.339274
v 0.876126 -0.739643 0.776422
v 0.876126 0.386106 0.580639
v 0.876126 0.239269 0.776422
v 0.876126 0.239269 0.580639
v 0.876126 0.239268 -1.719805
v 0.876126 0.386105 -2.062425
v 0.876126 -0.543862 -2.160316
v 0.876126 -0.543862 -1.915588
v 0.876126 -0.739644 -1.719805
v 0.876126 -0.739644 -2.160316
v 0.876126 -0.543861 0.580639
v 0.876126 -0.543862 -1.719805
v 0.876126 0.239268 -1.915588
v 0.876126 0.239268 -2.062425
v 0.876126 -0.439773 1.341843
v 0.876126 -0.292296 1.591270
v 0.876126 -0.431476 1.754697
v 0.876126 -0.068970 1.799190
v 0.876126 -0.103477 2.035531
v 0.876126 0.239269 1.951117
v 0.729289 0.239269 1.951117
v 0.729289 0.386106 0.580639
v 0.729289 0.386105 -2.062425
v 0.729289 0.239268 -2.062425
v 0.729289 0.239268 -1.915588
v 0.729289 0.239268 -1.719805
v 0.729289 0.239269 0.580639
v 0.729289 0.239269 0.776422
v 0.729289 -0.431476 1.754697
v 0.729289 -0.103477 2.035531
v 0.729289 -0.068970 1.799190
v 0.729289 -0.292296 1.591270
v 0.729289 -0.439773 1.341843
v 0.729289 -0.654974 1.339274
v 0.729289 -0.520462 1.065398
v 0.729289 -0.543427 0.776422
v 0.729289 -0.739644 0.776422
v 0.729289 -0.739644 -1.719805
v 0.729289 -0.543862 -1.915587
v 0.729289 -0.543862 -2.160316
v 0.729289 -0.739644 -2.160316
v 0.729289 -0.543861 0.580639
v 0.729289 -0.543862 -1.719805
v 0.729289 0.092431 -1.719805
v 0.729289 -0.543862 -1.719805
v 0.729289 0.239268 -1.719805
v 0.729289 0.092431 -1.719805
v -0.861444 0.786477 2.192958
v -0.861444 0.799052 2.111630
v -0.861444 0.728726 2.049008
v -0.861444 0.386107 2.000063
v -0.861444 0.294699 2.194616
v -0.861444 0.728726 2.244791
v -0.861444 -0.543426 0.776422
v -0.861444 -0.543861 0.580640
v -0.861444 -0.739643 0.776422
v -0.861444 0.386106 -2.062425
v -0.861444 0.239269 -2.062425
v -0.861444 0.239269 -1.915588
v -0.861444 0.239269 -1.719805
v -0.861444 0.239270 1.951117
v -0.861444 0.386106 0.580639
v -0.861444 0.239269 0.776422
v -0.861444 0.239269 0.580639
v -0.861444 -0.431476 1.754697
v -0.861444 -0.103476 2.035532
v -0.861444 -0.068969 1.799191
v -0.861444 -0.292296 1.591270
v -0.861444 -0.439772 1.341843
v -0.861444 -0.654973 1.339274
v -0.861444 -0.520461 1.065398
v -0.861444 -0.739644 -1.719805
v -0.861444 -0.543862 -1.915588
v -0.861444 -0.543862 -2.160316
v -0.861444 -0.739644 -2.160316
v -0.861444 -0.543861 -1.719805
v -0.714607 0.728726 2.049008
v -0.714607 0.799051 2.111630
v -0.714607 0.786477 2.192958
v -0.714607 0.728726 2.244791
v -0.714607 0.294699 2.194616
v -0.714607 0.386107 2.000063
v -0.714607 -0.543426 0.776422
v -0.714607 -0.520461 1.065398
v -0.714607 -0.654973 1.339274
v -0.714607 -0.739643 0.776422
v -0.714606 0.239269 -1.719805
v -0.714606 0.386106 -2.062425
v -0.714607 0.386106 0.580639
v -0.714607 0.239269 0.776422
v -0.714607 0.239269 0.580639
v -0.714606 -0.543862 -2.160316
v -0.714606 -0.543862 -1.915588
v -0.714606 -0.739644 -1.719805
v -0.714606 -0.739644 -2.160316
v -0.714606 -0.543861 -1.719805
v -0.714607 -0.543861 0.580640
v -0.714606 0.239269 -1.915588
v -0.714606 0.239269 -2.062425
v -0.714607 -0.439772 1.341843
v -0.714607 -0.292296 1.591270
v -0.714607 -0.431476 1.754697
v -0.714607 -0.068969 1.799191
v -0.714607 -0.103476 2.035532
v -0.714607 0.239270 1.951117
v -0.714606 0.092432 -1.915588
v -0.714606 -0.543862 -1.915588
v -0.714606 0.239269 -1.915588
v -0.714606 0.092432 -1.719805
v -0.861444 0.239269 -1.719805
v -0.714606 0.092432 -1.719805
v -0.714606 0.239269 -1.719805
v 0.729289 0.239268 -1.719805
v 0.729289 0.092431 -1.719805
v 0.876126 0.239268 -1.719805
v 0.876126 0.239269 0.580639
v 0.729289 0.092432 0.580639
v 0.729289 0.239269 0.580639
v 0.729289 -0.543427 0.776422
v 0.729289 -0.543861 0.580639
v 0.729289 -0.739644 0.776422
v 0.876126 0.239268 -1.915588
v 0.876126 -0.543862 -1.915588
v 0.729289 0.092431 -1.915588
v 0.729289 0.092431 -1.915588
v 0.876126 -0.543862 -1.915588
v 0.729289 -0.543862 -1.915587
v -0.861444 0.239269 -1.915588
v -0.714606 0.092432 -1.915588
v -0.861444 -0.543862 -1.915588
v -0.714606 0.092432 -1.915588
v -0.714606 -0.543862 -1.915588
v -0.861444 -0.543862 -1.915588
v 0.876126 0.239268 -1.915588
v 0.876126 0.239268 -1.719805
v 0.876126 -0.543862 -1.719805
v 0.876126 0.239268 -1.915588
v 0.876126 -0.543862 -1.719805
v 0.876126 -0.543862 -1.915588
v 0.729289 -0.543862 -1.719805
v 0.729289 -0.543862 -1.915587
v 0.729289 -0.739644 -1.719805
v 0.729289 0.092431 -1.719805
v 0.729289 0.092431 -1.915588
v 0.729289 -0.543862 -1.915587
v 0.729289 0.092431 -1.719805
v 0.729289 -0.543862 -1.915587
v 0.729289 -0.543862 -1.719805
v -0.861444 0.239269 -1.719805
v -0.861444 0.239269 -1.915588
v -0.861444 -0.543862 -1.915588
v -0.861444 0.239269 -1.719805
v -0.861444 -0.543862 -1.915588
v -0.861444 -0.543861 -1.719805
v -0.861444 0.239269 -1.719805
v -0.861444 -0.543861 -1.719805
v -0.714606 0.092432 -1.719805
v -0.714606 0.092432 -1.719805
v -0.861444 -0.543861 -1.719805
v -0.714606 -0.543861 -1.719805
v 0.876126 0.239268 -1.719805
v 0.729289 0.092431 -1.719805
v 0.729289 -0.543862 -1.719805
v 0.876126 0.239268 -1.719805
v 0.729289 -0.543862 -1.719805
v 0.876126 -0.543862 -1.719805
v -0.714606 0.092432 -1.719805
v -0.714606 -0.543862 -1.915588
v -0.714606 0.092432 -1.915588
v -0.714606 -0.543862 -1.915588
v -0.714606 -0.543861 -1.719805
v -0.714606 -0.739644 -1.719805
v -0.714606 0.092432 -1.719805
v -0.714606 -0.543861 -1.719805
v -0.714606 -0.543862 -1.915588
v 0.876126 0.239269 0.580639
v 0.876126 0.239269 0.776422
v 0.876126 -0.543427 0.776422
v 0.876126 0.239269 0.580639
v 0.876126 -0.543427 0.776422
v 0.876126 -0.543861 0.580639
v 0.729289 0.239269 0.776422
v 0.729289 0.092432 0.776422
v 0.876126 0.239269 0.776422
v 0.876126 0.239269 0.776422
v 0.729289 0.092432 0.776422
v 0.876126 -0.543427 0.776422
v 0.729289 0.092432 0.776422
v 0.729289 -0.543427 0.776422
v 0.876126 -0.543427 0.776422
v -0.714607 -0.543861 0.580640
v -0.714607 -0.543426 0.776422
v -0.714607 -0.739643 0.776422
v -0.714607 0.092431 0.580639
v -0.714607 0.092431 0.776422
v -0.714607 -0.543426 0.776422
v -0.714607 0.092431 0.580639
v -0.714607 -0.543426 0.776422
v -0.714607 -0.543861 0.580640
v -0.714607 0.239269 0.776422
v -0.861444 0.239269 0.776422
v -0.714607 0.092431 0.776422
v -0.714607 0.092431 0.776422
v -0.861444 -0.543426 0.776422
v -0.714607 -0.543426 0.776422
v -0.861444 0.239269 0.776422
v -0.861444 -0.543426 0.776422
v -0.714607 0.092431 0.776422
v -0.861444 0.239269 0.776422
v -0.861444 0.239269 0.580639
v -0.861444 -0.543426 0.776422
v -0.861444 0.239269 0.580639
v -0.861444 -0.543861 0.580640
v -0.861444 -0.543426 0.776422
v -0.861444 0.239269 0.580639
v -0.714607 0.239269 0.580639
v -0.714607 0.092431 0.580639
v -0.861444 0.239269 0.580639
v -0.714607 0.092431 0.580639
v -0.861444 -0.543861 0.580640
v -0.714607 0.092431 0.580639
v -0.714607 -0.543861 0.580640
v -0.861444 -0.543861 0.580640
v 0.876126 0.239269 0.580639
v 0.876126 -0.543861 0.580639
v 0.729289 0.092432 0.580639
v 0.729289 0.092432 0.580639
v 0.876126 -0.543861 0.580639
v 0.729289 -0.543861 0.580639
v 0.729289 0.092432 0.776422
v 0.729289 0.092432 0.580639
v 0.729289 -0.543861 0.580639
v 0.729289 0.092432 0.776422
v 0.729289 -0.543861 0.580639
v 0.729289 -0.543427 0.776422
# 590 vertices

vt 0.006810 0.755024
vt 0.006810 0.780351
vt 0.219930 0.755025
vt 0.219930 0.780351
vt 0.006810 0.809899
vt 0.006810 0.835226
vt 0.219930 0.809899
vt 0.219930 0.835226
vt 0.006810 0.864774
vt 0.006810 0.890101
vt 0.219930 0.864774
vt 0.219930 0.890101
vt 0.006810 0.919648
vt 0.006810 0.944975
vt 0.219930 0.919649
vt 0.219930 0.944975
vt 0.080070 0.780351
vt 0.293190 0.780351
vt 0.080070 0.755025
vt 0.293190 0.755024
vt 0.080070 0.835226
vt 0.293190 0.835226
vt 0.080070 0.809899
vt 0.293190 0.809899
vt 0.080070 0.890101
vt 0.293190 0.890101
vt 0.080070 0.864774
vt 0.293190 0.864774
vt 0.080070 0.944975
vt 0.293190 0.944975
vt 0.080070 0.919649
vt 0.293190 0.919648
vt 0.219930 0.780586
vt 0.006810 0.780582
vt 0.219930 0.809186
vt 0.006810 0.809182
vt 0.100050 0.974523
vt 0.113370 0.974523
vt 0.113370 0.725477
vt 0.100050 0.725477
vt 0.269880 0.974523
vt 0.283200 0.974523
vt 0.283200 0.725477
vt 0.269880 0.725477
vt 0.219930 0.780582
vt 0.006810 0.780582
vt 0.219930 0.809182
vt 0.006810 0.809182
vt 0.219930 0.780582
vt 0.006810 0.780582
vt 0.219930 0.809182
vt 0.006810 0.809182
vt 0.219930 0.780582
vt 0.006810 0.780582
vt 0.219930 0.809182
vt 0.006810 0.809182
vt 0.244975 0.780586
vt 0.219649 0.780586
vt 0.244975 0.809186
vt 0.219649 0.809186
vt 0.274523 0.837782
vt 0.274523 0.809182
vt 0.025477 0.809182
vt 0.025477 0.837782
vt 0.025477 0.809182
vt 0.025477 0.837782
vt 0.274523 0.837782
vt 0.274523 0.809182
vt 0.190101 0.780582
vt 0.164774 0.780582
vt 0.190101 0.809182
vt 0.164774 0.809182
vt 0.135226 0.780582
vt 0.109899 0.780582
vt 0.135226 0.809182
vt 0.109899 0.809182
vt 0.080351 0.780582
vt 0.055025 0.780582
vt 0.080351 0.809182
vt 0.055025 0.809182
vt 0.293190 0.780582
vt 0.080070 0.780586
vt 0.293190 0.809182
vt 0.080070 0.809186
vt 0.186630 0.974523
vt 0.199950 0.974523
vt 0.199950 0.725477
vt 0.186630 0.725477
vt 0.016800 0.974523
vt 0.030120 0.974523
vt 0.030120 0.725477
vt 0.016800 0.725477
vt 0.293190 0.780582
vt 0.080070 0.780582
vt 0.293190 0.809182
vt 0.080070 0.809182
vt 0.293190 0.780582
vt 0.080070 0.780582
vt 0.293190 0.809182
vt 0.080070 0.809182
vt 0.293190 0.780582
vt 0.080070 0.780582
vt 0.293190 0.809182
vt 0.080070 0.809182
vt 0.080351 0.780582
vt 0.055025 0.780582
vt 0.080351 0.809182
vt 0.055025 0.809182
vt 0.274523 0.837782
vt 0.274523 0.809182
vt 0.025477 0.809182
vt 0.025477 0.837782
vt 0.274523 0.837782
vt 0.274523 0.809182
vt 0.025477 0.809182
vt 0.025477 0.837782
vt 0.135226 0.780582
vt 0.109899 0.780582
vt 0.135226 0.809182
vt 0.109899 0.809182
vt 0.190101 0.780582
vt 0.164774 0.780582
vt 0.190101 0.809182
vt 0.164774 0.809182
vt 0.244975 0.780582
vt 0.219648 0.780582
vt 0.244975 0.809182
vt 0.219648 0.809182
vt 0.283200 0.700150
vt 0.186630 0.725477
vt 0.283200 0.725477
vt 0.186630 0.700150
vt 0.269880 0.700150
vt 0.113370 0.725477
vt 0.269880 0.725477
vt 0.113370 0.700150
vt 0.279870 0.700150
vt 0.269534 0.725477
vt 0.279870 0.725477
vt 0.269534 0.700150
vt 0.283200 0.999850
vt 0.283200 0.974523
vt 0.186630 0.974523
vt 0.186630 0.999850
vt 0.269880 0.999850
vt 0.269880 0.974523
vt 0.113370 0.974523
vt 0.113370 0.999850
vt 0.279870 0.999850
vt 0.279870 0.974523
vt 0.269534 0.974523
vt 0.269534 0.999850
vt 0.238418 0.700150
vt 0.219610 0.725477
vt 0.238418 0.725477
vt 0.219610 0.700150
vt 0.238418 0.999850
vt 0.238418 0.974523
vt 0.219610 0.974523
vt 0.219610 0.999850
vt 0.269534 0.700150
vt 0.255388 0.725477
vt 0.269534 0.725477
vt 0.255388 0.700150
vt 0.269534 0.999850
vt 0.269534 0.974523
vt 0.255388 0.974523
vt 0.255388 0.999850
vt 0.186630 0.700150
vt 0.006810 0.725477
vt 0.186630 0.725477
vt 0.006810 0.700150
vt 0.293190 0.700150
vt 0.283200 0.725477
vt 0.293190 0.725477
vt 0.283200 0.700150
vt 0.016800 0.700150
vt 0.000150 0.725477
vt 0.016800 0.725477
vt 0.000150 0.700150
vt 0.299850 0.700150
vt 0.269880 0.725477
vt 0.299850 0.725477
vt 0.269880 0.700150
vt 0.100050 0.700150
vt 0.061756 0.725477
vt 0.100050 0.725477
vt 0.061756 0.700150
vt 0.033493 0.700150
vt 0.014387 0.725477
vt 0.033493 0.725477
vt 0.014387 0.700150
vt 0.299850 0.798385
vt 0.274523 0.713848
vt 0.274523 0.798385
vt 0.299850 0.713848
vt 0.296324 0.700150
vt 0.290791 0.725477
vt 0.296324 0.725477
vt 0.290791 0.700150
vt 0.000150 0.713848
vt 0.025477 0.780581
vt 0.025477 0.713848
vt 0.000150 0.780581
vt 0.186630 0.999850
vt 0.186630 0.974523
vt 0.006810 0.974523
vt 0.006810 0.999850
vt 0.293190 0.999850
vt 0.293190 0.974523
vt 0.283200 0.974523
vt 0.283200 0.999850
vt 0.016800 0.999850
vt 0.016800 0.974523
vt 0.000150 0.974523
vt 0.000150 0.999850
vt 0.299850 0.999850
vt 0.299850 0.974523
vt 0.269880 0.974523
vt 0.269880 0.999850
vt 0.100050 0.999850
vt 0.100050 0.974523
vt 0.061756 0.974523
vt 0.061756 0.999850
vt 0.033493 0.999850
vt 0.033493 0.974523
vt 0.014387 0.974523
vt 0.014387 0.999850
vt 0.000150 0.798385
vt 0.025477 0.798385
vt 0.025477 0.713848
vt 0.000150 0.713848
vt 0.296324 0.999850
vt 0.296324 0.974523
vt 0.290791 0.974523
vt 0.290791 0.999850
vt 0.299850 0.713848
vt 0.274523 0.713848
vt 0.274523 0.780581
vt 0.299850 0.780581
vt 0.030120 0.837782
vt 0.030120 0.961716
vt 0.030120 0.809182
vt 0.000150 0.780582
vt 0.025477 0.809182
vt 0.025477 0.780582
vt 0.000150 0.809182
vt 0.000150 0.961716
vt 0.025477 0.999850
vt 0.025477 0.961717
vt 0.000150 0.999850
vt 0.269880 0.700150
vt 0.100050 0.725477
vt 0.269880 0.725477
vt 0.100050 0.700150
vt 0.299850 0.700150
vt 0.296324 0.725477
vt 0.299850 0.725477
vt 0.296324 0.700150
vt 0.290791 0.700150
vt 0.286530 0.725477
vt 0.290791 0.725477
vt 0.286530 0.700150
vt 0.186630 0.700150
vt 0.030120 0.725477
vt 0.186630 0.725477
vt 0.030120 0.700150
vt 0.255388 0.700150
vt 0.238418 0.725477
vt 0.255388 0.725477
vt 0.238418 0.700150
vt 0.219610 0.700150
vt 0.199950 0.725477
vt 0.219610 0.725477
vt 0.199950 0.700150
vt 0.100050 0.700150
vt 0.020130 0.725477
vt 0.100050 0.725477
vt 0.020130 0.700150
vt 0.299850 0.780582
vt 0.274523 0.780582
vt 0.274523 0.809182
vt 0.299850 0.809182
vt 0.299850 0.809182
vt 0.274523 0.809182
vt 0.274523 0.837782
vt 0.299850 0.961716
vt 0.274523 0.961716
vt 0.274523 0.999850
vt 0.299850 0.999850
vt 0.269880 0.999850
vt 0.269880 0.974523
vt 0.100050 0.974523
vt 0.100050 0.999850
vt 0.299850 0.999850
vt 0.299850 0.974523
vt 0.296324 0.974523
vt 0.296324 0.999850
vt 0.290791 0.999850
vt 0.290791 0.974523
vt 0.286530 0.974523
vt 0.286530 0.999850
vt 0.186630 0.999850
vt 0.186630 0.974523
vt 0.030120 0.974523
vt 0.030120 0.999850
vt 0.255388 0.999850
vt 0.255388 0.974523
vt 0.238418 0.974523
vt 0.238418 0.999850
vt 0.219610 0.999850
vt 0.219610 0.974523
vt 0.199950 0.974523
vt 0.199950 0.999850
vt 0.100050 0.999850
vt 0.100050 0.974523
vt 0.020130 0.974523
vt 0.020130 0.999850
vt 0.000150 0.809182
vt 0.025477 0.837782
vt 0.025477 0.809182
vt 0.283200 0.837782
vt 0.283200 0.809182
vt 0.283200 0.961716
vt 0.061756 0.700150
vt 0.033493 0.725477
vt 0.061756 0.725477
vt 0.033493 0.700150
vt 0.014387 0.700150
vt 0.003563 0.725477
vt 0.014387 0.725477
vt 0.003563 0.700150
vt 0.061756 0.999850
vt 0.061756 0.974523
vt 0.033493 0.974523
vt 0.033493 0.999850
vt 0.014387 0.999850
vt 0.014387 0.974523
vt 0.003563 0.974523
vt 0.003563 0.999850
vt 0.283200 0.780581
vt 0.296437 0.798385
vt 0.299850 0.713848
vt 0.296324 0.702599
vt 0.290791 0.700150
vt 0.286530 0.713848
vt 0.000150 0.713848
vt 0.003563 0.798385
vt 0.016800 0.780581
vt 0.013470 0.713848
vt 0.009209 0.700150
vt 0.003676 0.702599
vt 0.100050 0.961632
vt 0.080390 0.957159
vt 0.061756 0.983358
vt 0.100050 0.999850
vt 0.113370 0.780582
vt 0.100050 0.809182
vt 0.113370 0.809182
vt 0.269880 0.809182
vt 0.293190 0.780582
vt 0.299850 0.961716
vt 0.283200 0.961716
vt 0.269880 0.999850
vt 0.299850 0.999850
vt 0.113370 0.961716
vt 0.269880 0.961716
vt 0.283200 0.809182
vt 0.293190 0.809182
vt 0.061582 0.941442
vt 0.044612 0.912718
vt 0.033493 0.939827
vt 0.030466 0.869219
vt 0.014387 0.875940
vt 0.020130 0.809182
vt 0.279870 0.809182
vt 0.186630 0.780582
vt 0.006810 0.780582
vt 0.006810 0.809182
vt 0.016800 0.809182
vt 0.030120 0.809182
vt 0.186630 0.809182
vt 0.199950 0.809182
vt 0.266507 0.939827
vt 0.285613 0.875940
vt 0.269534 0.869219
vt 0.255388 0.912718
vt 0.238418 0.941442
vt 0.238244 0.983358
vt 0.219610 0.957159
vt 0.199950 0.961632
vt 0.199950 0.999850
vt 0.030120 0.999850
vt 0.016800 0.961716
vt 0.000150 0.961717
vt 0.000150 0.999850
vt 0.186630 0.961716
vt 0.030120 0.961716
vt 0.269880 0.837782
vt 0.269880 0.961716
vt 0.269880 0.809182
vt 0.030120 0.837782
vt 0.296324 0.702599
vt 0.290791 0.700150
vt 0.286530 0.713848
vt 0.283200 0.780581
vt 0.296437 0.798385
vt 0.299850 0.713848
vt 0.199950 0.961632
vt 0.186630 0.961716
vt 0.199950 0.999850
vt 0.006810 0.780582
vt 0.006810 0.809182
vt 0.016800 0.809182
vt 0.030120 0.809182
vt 0.279870 0.809182
vt 0.186630 0.780581
vt 0.199950 0.809182
vt 0.186630 0.809182
vt 0.266507 0.939826
vt 0.285613 0.875940
vt 0.269534 0.869219
vt 0.255388 0.912718
vt 0.238418 0.941442
vt 0.238244 0.983358
vt 0.219610 0.957159
vt 0.030120 0.999850
vt 0.016800 0.961716
vt 0.000150 0.961716
vt 0.000150 0.999850
vt 0.030120 0.961716
vt 0.013470 0.713848
vt 0.009209 0.700150
vt 0.003676 0.702599
vt 0.000150 0.713848
vt 0.003563 0.798385
vt 0.016800 0.780581
vt 0.100050 0.961632
vt 0.080390 0.957159
vt 0.061756 0.983358
vt 0.100050 0.999850
vt 0.269880 0.809182
vt 0.293190 0.780582
vt 0.113370 0.780581
vt 0.100050 0.809182
vt 0.113370 0.809182
vt 0.299850 0.961716
vt 0.283200 0.961716
vt 0.269880 0.999850
vt 0.299850 0.999850
vt 0.269880 0.961716
vt 0.113370 0.961716
vt 0.283200 0.809182
vt 0.293190 0.809182
vt 0.061582 0.941442
vt 0.044612 0.912718
vt 0.033493 0.939826
vt 0.030466 0.869219
vt 0.014387 0.875940
vt 0.020130 0.809182
vt 0.016800 0.837782
vt 0.016800 0.961716
vt 0.016800 0.809182
vt 0.269880 0.837782
vt 0.000150 0.809182
vt 0.025477 0.837782
vt 0.025477 0.809182
vt 0.274523 0.809182
vt 0.274523 0.837782
vt 0.299850 0.809182
vt 0.000150 0.809182
vt 0.025477 0.837782
vt 0.025477 0.809182
vt 0.199950 0.961632
vt 0.186630 0.961716
vt 0.199950 0.999850
vt 0.000150 0.809182
vt 0.000150 0.961716
vt 0.025477 0.837782
vt 0.025477 0.837782
vt 0.000150 0.961716
vt 0.025477 0.961716
vt 0.299850 0.809182
vt 0.274523 0.837782
vt 0.299850 0.961716
vt 0.274523 0.837782
vt 0.274523 0.961716
vt 0.299850 0.961716
vt 0.283200 0.809182
vt 0.269880 0.809182
vt 0.269880 0.961716
vt 0.283200 0.809182
vt 0.269880 0.961716
vt 0.283200 0.961716
vt 0.030120 0.961716
vt 0.016800 0.961716
vt 0.030120 0.999850
vt 0.030120 0.837782
vt 0.016800 0.837782
vt 0.016800 0.961716
vt 0.030120 0.837782
vt 0.016800 0.961716
vt 0.030120 0.961716
vt 0.030120 0.809182
vt 0.016800 0.809182
vt 0.016800 0.961716
vt 0.030120 0.809182
vt 0.016800 0.961716
vt 0.030120 0.961716
vt 0.000150 0.809182
vt 0.000150 0.961716
vt 0.025477 0.837782
vt 0.025477 0.837782
vt 0.000150 0.961716
vt 0.025477 0.961716
vt 0.299850 0.809182
vt 0.274523 0.837782
vt 0.274523 0.961716
vt 0.299850 0.809182
vt 0.274523 0.961716
vt 0.299850 0.961716
vt 0.269880 0.837782
vt 0.283200 0.961716
vt 0.283200 0.837782
vt 0.283200 0.961716
vt 0.269880 0.961716
vt 0.269880 0.999850
vt 0.269880 0.837782
vt 0.269880 0.961716
vt 0.283200 0.961716
vt 0.113370 0.809182
vt 0.100050 0.809182
vt 0.100050 0.961632
vt 0.113370 0.809182
vt 0.100050 0.961632
vt 0.113370 0.961716
vt 0.274523 0.809182
vt 0.274523 0.837782
vt 0.299850 0.809182
vt 0.299850 0.809182
vt 0.274523 0.837782
vt 0.299850 0.961632
vt 0.274523 0.837782
vt 0.274523 0.961632
vt 0.299850 0.961632
vt 0.113370 0.961716
vt 0.100050 0.961632
vt 0.100050 0.999850
vt 0.113370 0.837782
vt 0.100050 0.837782
vt 0.100050 0.961632
vt 0.113370 0.837782
vt 0.100050 0.961632
vt 0.113370 0.961716
vt 0.025477 0.809182
vt 0.000150 0.809182
vt 0.025477 0.837782
vt 0.025477 0.837782
vt 0.000150 0.961632
vt 0.025477 0.961632
vt 0.000150 0.809182
vt 0.000150 0.961632
vt 0.025477 0.837782
vt 0.199950 0.809182
vt 0.186630 0.809182
vt 0.199950 0.961632
vt 0.186630 0.809182
vt 0.186630 0.961716
vt 0.199950 0.961632
vt 0.299850 0.809182
vt 0.274523 0.809182
vt 0.274523 0.837782
vt 0.299850 0.809182
vt 0.274523 0.837782
vt 0.299850 0.961716
vt 0.274523 0.837782
vt 0.274523 0.961716
vt 0.299850 0.961716
vt 0.000150 0.809182
vt 0.000150 0.961716
vt 0.025477 0.837782
vt 0.025477 0.837782
vt 0.000150 0.961716
vt 0.025477 0.961716
vt 0.199950 0.837782
vt 0.186630 0.837782
vt 0.186630 0.961716
vt 0.199950 0.837782
vt 0.186630 0.961716
vt 0.199950 0.961632
# 590 texture vertices

vn 0.000000 1.000000 0.000007
vn 0.000000 1.000000 0.000007
vn 0.000000 1.000000 0.000007
vn 0.000000 1.000000 0.000007
vn 0.000000 1.000000 0.000000
vn 0.000000 1.000000 0.000000
vn 0.000000 1.000000 0.000000
vn 0.000000 1.000000 0.000000
vn 0.000000 1.000000 0.000000
vn 0.000000 1.000000 0.000000
vn 0.000000 1.000000 0.000000
vn 0.000000 1.000000 0.000000
vn 0.000000 1.000000 0.000000
vn 0.000000 1.000000 0.000000
vn 0.000000 1.000000 0.000000
vn 0.000000 1.000000 0.000000
vn 0.000000 -1.000000 -0.000007
vn 0.000000 -1.000000 -0.000007
vn 0.000000 -1.000000 -0.000007
vn 0.000000 -1.000000 -0.000007
vn 0.000000 -1.000000 0.000000
vn 0.000000 -1.000000 0.000000
vn 0.000000 -1.000000 0.000000
vn 0.000000 -1.000000 0.000000
vn 0.000000 -1.000000 0.000000
vn 0.000000 -1.000000 0.000000
vn 0.000000 -1.000000 0.000000
vn 0.000000 -1.000000 0.000000
vn 0.000000 -1.000000 0.000000
vn 0.000000 -1.000000 0.000000
vn 0.000000 -1.000000 0.000000
vn 0.000000 -1.000000 0.000000
vn -1.000000 0.000000 0.000000
vn -1.000000 0.000000 0.000000
vn -1.000000 0.000000 0.000000
vn -1.000000 0.000000 0.000000
vn 0.000000 -1.000000 -0.000000
vn 0.000000 -1.000000 -0.000000
vn 0.000000 -1.000000 -0.000000
vn 0.000000 -1.000000 -0.000000
vn -0.000000 -1.000000 0.000000
vn -0.000000 -1.000000 0.000000
vn -0.000000 -1.000000 0.000000
vn -0.000000 -1.000000 0.000000
vn -1.000000 0.000000 0.000000
vn -1.000000 0.000000 0.000000
vn -1.000000 0.000000 0.000000
vn -1.000000 0.000000 0.000000
vn -1.000000 0.000000 0.000000
vn -1.000000 0.000000 0.000000
vn -1.000000 0.000000 0.000000
vn -1.000000 0.000000 0.000000
vn -1.000000 0.000000 0.000000
vn -1.000000 0.000000 0.000000
vn -1.000000 0.000000 0.000000
vn -1.000000 0.000000 0.000000
vn 0.000000 0.000000 1.000000
vn 0.000000 0.000000 1.000000
vn 0.000000 0.000000 1.000000
vn 0.000000 0.000000 1.000000
vn 0.000000 0.000000 1.000000
vn 0.000000 0.000002 1.000000
vn 0.000000 0.000000 1.000000
vn -0.000000 -0.000002 1.000000
vn -0.000000 0.000001 1.000000
vn -0.000000 0.000000 1.000000
vn -0.000000 0.000001 1.000000
vn 0.000000 0.000001 1.000000
vn 0.000000 0.000000 1.000000
vn 0.000000 0.000000 1.000000
vn 0.000000 0.000000 1.000000
vn 0.000000 0.000000 1.000000
vn 0.000000 0.000000 1.000000
vn 0.000000 0.000000 1.000000
vn 0.000000 0.000000 1.000000
vn 0.000000 0.000000 1.000000
vn 0.000000 0.000000 1.000000
vn 0.000000 0.000000 1.000000
vn 0.000000 0.000000 1.000000
vn 0.000000 0.000000 1.000000
vn 1.000000 0.000000 0.000000
vn 1.000000 0.000000 0.000000
vn 1.000000 0.000000 0.000000
vn 1.000000 0.000000 0.000000
vn 0.000000 1.000000 -0.000000
vn 0.000000 1.000000 -0.000000
vn 0.000000 1.000000 -0.000000
vn 0.000000 1.000000 -0.000001
vn 0.000000 1.000000 -0.000000
vn 0.000000 1.000000 -0.000001
vn 0.000000 1.000000 -0.000000
vn 0.000000 1.000000 0.000000
vn 1.000000 0.000000 0.000000
vn 1.000000 0.000000 0.000000
vn 1.000000 0.000000 0.000000
vn 1.000000 0.000000 0.000000
vn 1.000000 0.000000 0.000000
vn 1.000000 0.000000 0.000000
vn 1.000000 0.000000 0.000000
vn 1.000000 0.000000 0.000000
vn 1.000000 0.000000 0.000000
vn 1.000000 0.000000 0.000000
vn 1.000000 0.000000 0.000000
vn 1.000000 0.000000 0.000000
vn 0.000000 0.000000 -1.000000
vn 0.000000 0.000000 -1.000000
vn 0.000000 0.000000 -1.000000
vn 0.000000 0.000000 -1.000000
vn 0.000000 -0.000000 -1.000000
vn -0.000000 0.000002 -1.000000
vn 0.000000 -0.000000 -1.000000
vn 0.000000 -0.000002 -1.000000
vn 0.000000 -0.000001 -1.000000
vn 0.000000 0.000000 -1.000000
vn 0.000000 -0.000001 -1.000000
vn 0.000000 -0.000001 -1.000000
vn 0.000000 0.000000 -1.000000
vn 0.000000 0.000000 -1.000000
vn 0.000000 0.000000 -1.000000
vn 0.000000 0.000000 -1.000000
vn 0.000000 0.000000 -1.000000
vn 0.000000 0.000000 -1.000000
vn 0.000000 0.000000 -1.000000
vn 0.000000 0.000000 -1.000000
vn 0.000000 0.000000 -1.000000
vn 0.000000 0.000000 -1.000000
vn 0.000000 0.000000 -1.000000
vn 0.000000 0.000000 -1.000000
vn 0.000000 1.000000 -0.000000
vn 0.000000 1.000000 -0.000000
vn 0.000000 1.000000 -0.000000
vn 0.000000 1.000000 -0.000000
vn 0.000000 -1.000000 0.000000
vn 0.000000 -1.000000 0.000000
vn 0.000000 -1.000000 0.000000
vn 0.000000 -1.000000 0.000000
vn 0.000000 0.442102 -0.896965
vn 0.000000 0.526842 -0.849963
vn 0.000000 0.442102 -0.896965
vn 0.000000 0.607372 -0.794417
vn 0.000000 1.000000 -0.000000
vn 0.000000 1.000000 -0.000000
vn 0.000000 1.000000 -0.000000
vn 0.000000 1.000000 -0.000000
vn 0.000000 -1.000000 0.000000
vn 0.000000 -1.000000 0.000000
vn 0.000000 -1.000000 0.000000
vn 0.000000 -1.000000 0.000000
vn 0.000000 0.442101 -0.896965
vn 0.000000 0.442101 -0.896965
vn 0.000000 0.526842 -0.849963
vn 0.000000 0.607372 -0.794417
vn 0.000000 0.933363 -0.358933
vn 0.000000 0.976791 -0.214196
vn 0.000000 0.900082 -0.435720
vn 0.000000 0.989152 -0.146893
vn 0.000000 0.933363 -0.358933
vn 0.000000 0.900082 -0.435720
vn 0.000000 0.976791 -0.214196
vn 0.000000 0.989152 -0.146893
vn 0.000000 0.607372 -0.794417
vn 0.000000 0.748043 -0.663651
vn 0.000000 0.526842 -0.849963
vn 0.000000 0.808388 -0.588650
vn 0.000000 0.607372 -0.794417
vn 0.000000 0.526842 -0.849963
vn 0.000000 0.748043 -0.663651
vn 0.000000 0.808388 -0.588650
vn 0.000000 1.000000 -0.000000
vn 0.000000 1.000000 -0.000000
vn 0.000000 1.000000 -0.000000
vn 0.000000 1.000000 -0.000000
vn 0.000000 -1.000000 0.000000
vn 0.000000 -1.000000 0.000000
vn 0.000000 -1.000000 0.000000
vn 0.000000 -1.000000 0.000000
vn -0.000000 1.000000 -0.000000
vn -0.000000 1.000000 -0.000000
vn -0.000000 1.000000 -0.000000
vn -0.000000 1.000000 -0.000000
vn 0.000000 -1.000000 0.000000
vn 0.000000 -1.000000 0.000000
vn 0.000000 -1.000000 0.000000
vn 0.000000 -1.000000 0.000000
vn 0.000000 -0.988874 0.148757
vn 0.000000 -0.965469 0.260519
vn 0.000000 -0.988874 0.148757
vn 0.000000 -0.928911 0.370302
vn 0.000000 -0.738268 0.674507
vn 0.000000 -0.563980 0.825789
vn 0.000000 -0.816197 0.577773
vn 0.000000 -0.469736 0.882807
vn 0.000000 -0.201803 0.979426
vn 0.000000 -0.114839 0.993384
vn 0.000000 -0.287866 0.957671
vn 0.000000 -0.114839 0.993384
vn 0.000000 0.988257 0.152802
vn 0.000000 0.988257 0.152802
vn 0.000000 0.988257 0.152803
vn 0.000001 0.988257 0.152802
vn 0.000000 0.141421 -0.989949
vn 0.000000 0.141421 -0.989949
vn 0.000000 0.141421 -0.989949
vn 0.000000 0.141421 -0.989949
vn 0.000000 1.000000 -0.000000
vn 0.000000 1.000000 -0.000000
vn 0.000000 1.000000 -0.000000
vn 0.000000 1.000000 -0.000000
vn -0.000000 -1.000000 0.000000
vn -0.000000 -1.000000 0.000000
vn -0.000000 -1.000000 0.000000
vn 0.000000 -1.000000 0.000000
vn 0.000000 1.000000 -0.000000
vn 0.000000 1.000000 -0.000000
vn 0.000000 1.000000 -0.000000
vn 0.000000 1.000000 -0.000000
vn 0.000000 -1.000000 0.000000
vn 0.000000 -1.000000 0.000000
vn 0.000000 -1.000000 0.000000
vn 0.000000 -1.000000 0.000000
vn 0.000000 -0.988874 0.148757
vn 0.000000 -0.988874 0.148757
vn 0.000000 -0.965469 0.260519
vn 0.000000 -0.928911 0.370302
vn -0.000000 -0.738269 0.674507
vn 0.000000 -0.816197 0.577773
vn -0.000000 -0.563980 0.825788
vn -0.000000 -0.469736 0.882807
vn 0.000000 -0.201802 0.979426
vn -0.000000 -0.287866 0.957671
vn 0.000000 -0.114837 0.993384
vn 0.000000 -0.114837 0.993384
vn 0.000000 0.988257 0.152804
vn 0.000000 0.988257 0.152803
vn 0.000000 0.988257 0.152804
vn 0.000001 0.988256 0.152805
vn -0.000000 0.141421 -0.989950
vn -0.000000 0.141421 -0.989950
vn -0.000000 0.141421 -0.989950
vn 0.000000 0.141421 -0.989950
vn -1.000000 0.000000 0.000000
vn -1.000000 0.000000 0.000000
vn -1.000000 0.000000 0.000000
vn 0.000000 0.000000 -1.000000
vn 0.000000 0.000000 -1.000000
vn 0.000000 0.000000 -1.000000
vn 0.000000 0.000000 -1.000000
vn -0.000001 -0.000000 -1.000000
vn -0.000001 -0.000000 -1.000000
vn -0.000001 -0.000000 -1.000000
vn -0.000001 0.000000 -1.000000
vn 0.000000 -1.000000 0.000000
vn 0.000000 -1.000000 0.000000
vn 0.000000 -1.000000 0.000000
vn 0.000000 -1.000000 0.000000
vn 0.000000 0.667950 0.744206
vn 0.000000 0.667950 0.744206
vn 0.000000 0.667950 0.744206
vn 0.000000 0.667950 0.744206
vn 0.000000 0.665015 -0.746830
vn 0.000000 0.665015 -0.746830
vn 0.000001 0.665014 -0.746831
vn 0.000000 0.665015 -0.746830
vn -0.000000 1.000000 -0.000000
vn -0.000000 1.000000 -0.000000
vn 0.000000 1.000000 -0.000000
vn -0.000000 1.000000 -0.000000
vn 0.000000 0.808388 -0.588650
vn 0.000000 0.900082 -0.435720
vn 0.000000 0.748043 -0.663651
vn 0.000000 0.933363 -0.358933
vn 0.000000 0.989152 -0.146893
vn 0.000000 0.996857 -0.079220
vn 0.000000 0.976791 -0.214196
vn 0.000000 0.996857 -0.079220
vn 0.000000 -1.000000 0.000000
vn 0.000000 -1.000000 0.000000
vn 0.000000 -1.000000 0.000000
vn 0.000000 -1.000000 0.000000
vn -0.000000 -0.000001 -1.000000
vn 0.000000 -0.000001 -1.000000
vn -0.000000 -0.000001 -1.000000
vn -0.000000 -0.000001 -1.000000
vn 0.000000 0.000000 -1.000000
vn 0.707107 0.000000 -0.707107
vn 0.707107 0.000000 -0.707107
vn 0.000000 0.000000 -1.000000
vn 0.000000 0.000000 -1.000000
vn 0.000000 0.000000 -1.000000
vn 0.000000 0.000000 -1.000000
vn 0.000000 -1.000000 0.000000
vn 0.000000 -1.000000 0.000000
vn 0.000000 -1.000000 0.000000
vn 0.000000 -1.000000 0.000000
vn -0.000000 0.667951 0.744206
vn -0.000001 0.667951 0.744205
vn -0.000000 0.667951 0.744206
vn 0.000000 0.667950 0.744206
vn 0.000000 0.665019 -0.746826
vn 0.000001 0.665020 -0.746826
vn 0.000000 0.665019 -0.746826
vn -0.000001 0.665018 -0.746827
vn 0.000000 1.000000 -0.000000
vn 0.000000 1.000000 -0.000000
vn 0.000000 1.000000 -0.000000
vn 0.000000 1.000000 -0.000000
vn 0.000000 0.808388 -0.588650
vn 0.000000 0.748043 -0.663651
vn 0.000000 0.900082 -0.435720
vn 0.000000 0.933363 -0.358933
vn 0.000000 0.989152 -0.146893
vn 0.000000 0.976791 -0.214196
vn 0.000000 0.996857 -0.079220
vn 0.000000 0.996857 -0.079220
vn -0.000000 -1.000000 0.000000
vn 0.000000 -1.000000 0.000000
vn -0.000000 -1.000000 0.000000
vn -0.000000 -1.000000 0.000000
vn 0.000000 -0.000001 -1.000000
vn 0.000000 -0.000001 -1.000000
vn 0.000000 -0.000001 -1.000000
vn 0.707107 0.000000 -0.707107
vn 0.707107 0.000000 -0.707107
vn 1.000000 0.000000 0.000000
vn 0.000000 -0.928911 0.370302
vn 0.000000 -0.816197 0.577773
vn 0.000000 -0.965469 0.260519
vn 0.000000 -0.738268 0.674507
vn 0.000000 -0.469736 0.882807
vn 0.000000 -0.287866 0.957671
vn 0.000000 -0.563980 0.825789
vn 0.000000 -0.201803 0.979426
vn 0.000000 -0.928911 0.370302
vn 0.000000 -0.965469 0.260519
vn 0.000000 -0.816197 0.577773
vn -0.000000 -0.738269 0.674507
vn -0.000000 -0.469736 0.882807
vn -0.000000 -0.563980 0.825788
vn -0.000000 -0.287866 0.957671
vn 0.000000 -0.201802 0.979426
vn -1.000000 -0.000000 -0.000000
vn -1.000000 -0.000000 -0.000000
vn -1.000000 -0.000000 -0.000000
vn -1.000000 -0.000000 0.000000
vn -1.000000 -0.000000 0.000000
vn -1.000000 -0.000000 0.000000
vn 1.000000 0.000000 0.000000
vn 1.000000 0.000000 0.000000
vn 1.000000 0.000000 0.000000
vn 1.000000 0.000000 -0.000000
vn 1.000000 0.000000 0.000000
vn 1.000000 0.000000 0.000000
vn 1.000000 0.000000 0.000000
vn 1.000000 0.000000 0.000000
vn 1.000000 0.000000 0.000000
vn 1.000000 0.000000 0.000000
vn 1.000000 -0.000000 0.000000
vn 1.000000 -0.000001 0.000000
vn 1.000000 0.000000 0.000000
vn 1.000000 0.000000 0.000000
vn 1.000000 0.000000 0.000000
vn 1.000000 0.000000 0.000000
vn 1.000000 0.000000 0.000000
vn 1.000000 0.000000 0.000000
vn 1.000000 0.000000 0.000000
vn 1.000000 0.000000 0.000000
vn 1.000000 0.000000 0.000000
vn 1.000000 0.000000 0.000000
vn 1.000000 0.000000 0.000000
vn 1.000000 0.000000 -0.000000
vn 1.000000 0.000000 0.000000
vn 1.000000 0.000000 -0.000000
vn 1.000000 0.000000 0.000000
vn 1.000000 0.000000 0.000000
vn 1.000000 -0.000000 0.000000
vn -1.000000 0.000000 -0.000000
vn -1.000000 0.000001 -0.000000
vn -1.000000 -0.000000 -0.000000
vn -1.000000 -0.000000 0.000000
vn -1.000000 -0.000000 0.000000
vn -0.990749 0.000000 -0.135710
vn -1.000000 0.000001 -0.000000
vn -1.000000 0.000001 -0.000000
vn -1.000000 -0.000000 0.000000
vn -1.000000 -0.000000 -0.000000
vn -1.000000 -0.000000 0.000000
vn -1.000000 -0.000000 0.000000
vn -1.000000 -0.000000 -0.000000
vn -1.000000 -0.000000 -0.000000
vn -1.000000 -0.000000 -0.000000
vn -1.000000 -0.000000 -0.000000
vn -1.000000 -0.000000 -0.000000
vn -0.989285 -0.000000 -0.146000
vn -1.000000 -0.000000 0.000000
vn -1.000000 -0.000000 0.000000
vn -1.000000 -0.000000 0.000000
vn -1.000000 -0.000000 -0.000000
vn -0.613318 -0.000000 -0.789836
vn 0.241097 -0.000000 -0.970501
vn -0.613318 -0.000000 -0.789836
vn -0.990749 0.000000 -0.135710
vn 0.241097 -0.000000 -0.970501
vn -1.000000 0.000003 -0.000001
vn -1.000000 0.000000 0.000000
vn -1.000000 0.000003 -0.000002
vn -1.000000 0.000000 -0.000001
vn -1.000000 0.000000 0.000000
vn -1.000000 0.000003 -0.000002
vn -1.000000 0.000001 -0.000001
vn -1.000000 0.000002 -0.000000
vn -1.000000 0.000002 -0.000000
vn -1.000000 0.000000 0.000000
vn -1.000000 0.000000 0.000000
vn -1.000000 0.000000 0.000000
vn -1.000000 0.000000 0.000000
vn -1.000000 -0.000000 -0.000000
vn -1.000000 -0.000000 -0.000000
vn -1.000000 -0.000000 -0.000000
vn -1.000000 0.000000 0.000000
vn -1.000000 0.000000 0.000000
vn -1.000000 0.000000 0.000000
vn -1.000000 0.000000 0.000000
vn -1.000000 0.000000 0.000000
vn -1.000000 0.000000 0.000000
vn -1.000000 -0.000000 -0.000000
vn -1.000000 -0.000001 -0.000001
vn -1.000000 0.000000 -0.000000
vn -1.000000 0.000000 0.000000
vn -1.000000 0.000000 0.000000
vn -1.000000 0.000000 0.000000
vn -1.000000 0.000000 0.000000
vn 1.000000 0.000000 0.000000
vn 1.000000 0.000000 0.000000
vn 1.000000 0.000000 0.000000
vn 1.000000 0.000000 0.000000
vn 1.000000 0.000000 0.000000
vn 1.000000 0.000000 0.000000
vn 1.000000 0.000000 0.000000
vn 1.000000 0.000000 0.000000
vn 1.000000 0.000000 0.000000
vn 1.000000 0.000000 0.000000
vn 1.000000 0.000000 0.000000
vn 1.000000 0.000000 0.000000
vn 1.000000 0.000000 0.000000
vn 1.000000 0.000000 0.000000
vn 1.000000 0.000000 0.000000
vn 1.000000 0.000000 0.000000
vn 0.000000 0.000000 0.000000
vn 1.000000 0.000000 0.000000
vn 1.000000 0.000000 0.000000
vn 1.000000 0.000000 0.000000
vn 1.000000 0.000000 0.000000
vn 1.000000 0.000000 0.000000
vn 1.000000 0.000000 0.000000
vn 1.000000 0.000000 0.000000
vn 1.000000 0.000000 0.000000
vn 1.000000 0.000000 0.000000
vn 1.000000 0.000000 0.000000
vn 1.000000 0.000000 0.000000
vn 1.000000 0.000000 0.000000
vn -1.000000 0.000000 0.000000
vn 0.000000 0.000000 0.000000
vn 1.000000 0.000000 0.000000
vn 1.000000 0.000000 0.000000
vn 0.000000 0.000000 1.000000
vn 0.000000 0.000000 1.000000
vn 0.000000 0.000000 1.000000
vn 0.000000 0.000001 1.000000
vn 0.000000 0.000001 1.000000
vn 0.000000 0.000001 1.000000
vn 0.000000 -0.000002 -1.000000
vn 0.000000 -0.000002 -1.000000
vn 0.000000 -0.000002 -1.000000
vn -1.000000 -0.000000 0.000000
vn -1.000000 -0.000000 0.000000
vn -1.000000 -0.000000 0.000000
vn -0.000001 -0.000000 -1.000000
vn -0.000001 -0.000000 -1.000000
vn -0.000001 -0.000000 -1.000000
vn -0.000001 -0.000000 -1.000000
vn -0.000001 -0.000000 -1.000000
vn -0.000001 -0.000000 -1.000000
vn -0.000000 -0.000000 -1.000000
vn -0.000000 -0.000000 -1.000000
vn -0.000000 -0.000000 -1.000000
vn 0.000000 -0.000000 -1.000000
vn 0.000000 -0.000000 -1.000000
vn 0.000000 -0.000000 -1.000000
vn 1.000000 -0.000000 0.000000
vn 1.000000 -0.000000 0.000000
vn 1.000000 -0.000000 0.000000
vn 1.000000 -0.000000 0.000000
vn 1.000000 -0.000000 0.000000
vn 1.000000 -0.000000 0.000000
vn -1.000000 -0.000000 0.000000
vn -1.000000 -0.000000 0.000000
vn -1.000000 -0.000000 0.000000
vn -1.000000 0.000000 0.000000
vn -1.000000 0.000000 0.000000
vn -1.000000 0.000000 0.000000
vn -1.000000 0.000000 -0.000000
vn -1.000000 0.000000 -0.000000
vn -1.000000 0.000000 -0.000000
vn -1.000000 0.000000 0.000000
vn -1.000000 0.000000 0.000000
vn -1.000000 0.000000 0.000000
vn -1.000000 0.000000 0.000000
vn -1.000000 0.000000 0.000000
vn -1.000000 0.000000 0.000000
vn 0.000000 0.000000 1.000000
vn 0.000000 0.000000 1.000000
vn 0.000000 0.000000 1.000000
vn 0.000000 0.000000 1.000000
vn 0.000000 0.000000 1.000000
vn 0.000000 0.000000 1.000000
vn 0.000001 0.000000 1.000000
vn 0.000001 0.000000 1.000000
vn 0.000001 0.000000 1.000000
vn 0.000001 0.000000 1.000000
vn 0.000001 0.000000 1.000000
vn 0.000001 0.000000 1.000000
vn 1.000000 0.000000 0.000000
vn 1.000000 0.000000 0.000000
vn 1.000000 0.000000 0.000000
vn 1.000000 0.000000 0.000000
vn 1.000000 0.000000 0.000000
vn 1.000000 0.000000 0.000000
vn 1.000000 0.000000 0.000000
vn 1.000000 0.000000 0.000000
vn 1.000000 0.000000 0.000000
vn 1.000000 0.000000 0.000001
vn 1.000000 0.000000 0.000001
vn 1.000000 0.000000 0.000001
vn 1.000000 -0.000000 0.000000
vn 1.000000 -0.000000 0.000000
vn 1.000000 -0.000000 0.000000
vn 0.000000 0.000002 1.000000
vn 0.000000 0.000002 1.000000
vn 0.000000 0.000002 1.000000
vn 0.000001 0.000000 1.000000
vn 0.000001 0.000000 1.000000
vn 0.000001 0.000000 1.000000
vn 0.000000 0.000000 1.000000
vn 0.000000 0.000000 1.000000
vn 0.000000 0.000000 1.000000
vn 1.000000 0.000000 0.000000
vn 1.000000 0.000000 0.000000
vn 1.000000 0.000000 0.000000
vn 1.000000 -0.000000 -0.000002
vn 1.000000 -0.000000 -0.000002
vn 1.000000 -0.000000 -0.000002
vn 1.000000 0.000001 -0.000000
vn 1.000000 0.000001 -0.000000
vn 1.000000 0.000001 -0.000000
vn 0.000000 -0.000002 1.000000
vn 0.000000 -0.000002 1.000000
vn 0.000000 -0.000002 1.000000
vn 0.000000 0.000000 1.000000
vn 0.000000 0.000000 1.000000
vn 0.000000 0.000000 1.000000
vn 0.000002 0.000000 1.000000
vn 0.000002 0.000000 1.000000
vn 0.000002 0.000000 1.000000
vn -1.000000 0.000000 0.000000
vn -1.000000 0.000000 0.000000
vn -1.000000 0.000000 0.000000
vn -1.000000 0.000000 0.000000
vn -1.000000 0.000000 0.000000
vn -1.000000 0.000000 0.000000
vn 0.000000 0.000002 -1.000000
vn 0.000000 0.000002 -1.000000
vn 0.000000 0.000002 -1.000000
vn -0.000002 -0.000000 -1.000000
vn -0.000002 -0.000000 -1.000000
vn -0.000002 -0.000000 -1.000000
vn 0.000000 -0.000001 -1.000000
vn 0.000000 -0.000001 -1.000000
vn 0.000000 -0.000001 -1.000000
vn -0.000001 -0.000000 -1.000000
vn -0.000001 -0.000000 -1.000000
vn -0.000001 -0.000000 -1.000000
vn 0.000000 0.000000 -1.000000
vn 0.000000 0.000000 -1.000000
vn 0.000000 0.000000 -1.000000
vn -1.000000 -0.000000 0.000001
vn -1.000000 -0.000000 0.000001
vn -1.000000 -0.000000 0.000001
vn -1.000000 0.000000 -0.000000
vn -1.000000 0.000000 -0.000000
vn -1.000000 0.000000 -0.000000
# 590 vertex normals

g Material_0
f 1/1/1 2/2/2 3/3/3
f 4/4/4 3/3/3 2/2/2
f 5/5/5 6/6/6 7/7/7
f 8/8/8 7/7/7 6/6/6
f 9/9/9 10/10/10 11/11/11
f 12/12/12 11/11/11 10/10/10
f 13/13/13 14/14/14 15/15/15
f 16/16/16 15/15/15 14/14/14
f 17/17/17 18/18/18 19/19/19
f 20/20/20 19/19/19 18/18/18
f 21/21/21 22/22/22 23/23/23
f 24/24/24 23/23/23 22/22/22
f 25/25/25 26/26/26 27/27/27
f 28/28/28 27/27/27 26/26/26
f 29/29/29 30/30/30 31/31/31
f 32/32/32 31/31/31 30/30/30
f 33/33/33 34/34/34 35/35/35
f 36/36/36 35/35/35 34/34/34
f 37/37/37 38/38/38 39/39/39
f 39/39/39 40/40/40 37/37/37
f 41/41/41 42/42/42 43/43/43
f 43/43/43 44/44/44 41/41/41
f 45/45/45 46/46/46 47/47/47
f 48/48/48 47/47/47 46/46/46
f 49/49/49 50/50/50 51/51/51
f 52/52/52 51/51/51 50/50/50
f 53/53/53 54/54/54 55/55/55
f 56/56/56 55/55/55 54/54/54
f 57/57/57 58/58/58 59/59/59
f 60/60/60 59/59/59 58/58/58
f 61/61/61 62/62/62 63/63/63
f 63/63/63 64/64/64 61/61/61
f 65/65/65 66/66/66 67/67/67
f 67/67/67 68/68/68 65/65/65
f 69/69/69 70/70/70 71/71/71
f 72/72/72 71/71/71 70/70/70
f 73/73/73 74/74/74 75/75/75
f 76/76/76 75/75/75 74/74/74
f 77/77/77 78/78/78 79/79/79
f 80/80/80 79/79/79 78/78/78
f 81/81/81 82/82/82 83/83/83
f 84/84/84 83/83/83 82/82/82
f 85/85/85 86/86/86 87/87/87
f 87/87/87 88/88/88 85/85/85
f 89/89/89 90/90/90 91/91/91
f 91/91/91 92/92/92 89/89/89
f 93/93/93 94/94/94 95/95/95
f 96/96/96 95/95/95 94/94/94
f 97/97/97 98/98/98 99/99/99
f 100/100/100 99/99/99 98/98/98
f 101/101/101 102/102/102 103/103/103
f 104/104/104 103/103/103 102/102/102
f 105/105/105 106/106/106 107/107/107
f 108/108/108 107/107/107 106/106/106
f 109/109/109 110/110/110 111/111/111
f 111/111/111 112/112/112 109/109/109
f 113/113/113 114/114/114 115/115/115
f 115/115/115 116/116/116 113/113/113
f 117/117/117 118/118/118 119/119/119
f 120/120/120 119/119/119 118/118/118
f 121/121/121 122/122/122 123/123/123
f 124/124/124 123/123/123 122/122/122
f 125/125/125 126/126/126 127/127/127
f 128/128/128 127/127/127 126/126/126
f 129/129/129 130/130/130 131/131/131
f 129/129/129 132/132/132 130/130/130
f 133/133/133 134/134/134 135/135/135
f 133/133/133 136/136/136 134/134/134
f 137/137/137 138/138/138 139/139/139
f 137/137/137 140/140/140 138/138/138
f 141/141/141 142/142/142 143/143/143
f 141/141/141 143/143/143 144/144/144
f 145/145/145 146/146/146 147/147/147
f 145/145/145 147/147/147 148/148/148
f 149/149/149 150/150/150 151/151/151
f 149/149/149 151/151/151 152/152/152
f 153/153/153 154/154/154 155/155/155
f 153/153/153 156/156/156 154/154/154
f 157/157/157 158/158/158 159/159/159
f 157/157/157 159/159/159 160/160/160
f 161/161/161 162/162/162 163/163/163
f 161/161/161 164/164/164 162/162/162
f 165/165/165 166/166/166 167/167/167
f 165/165/165 167/167/167 168/168/168
f 169/169/169 170/170/170 171/171/171
f 169/169/169 172/172/172 170/170/170
f 173/173/173 174/174/174 175/175/175
f 173/173/173 176/176/176 174/174/174
f 177/177/177 178/178/178 179/179/179
f 177/177/177 180/180/180 178/178/178
f 181/181/181 182/182/182 183/183/183
f 181/181/181 184/184/184 182/182/182
f 185/185/185 186/186/186 187/187/187
f 185/185/185 188/188/188 186/186/186
f 189/189/189 190/190/190 191/191/191
f 189/189/189 192/192/192 190/190/190
f 193/193/193 194/194/194 195/195/195
f 193/193/193 196/196/196 194/194/194
f 197/197/197 198/198/198 199/199/199
f 197/197/197 200/200/200 198/198/198
f 201/201/201 202/202/202 203/203/203
f 201/201/201 204/204/204 202/202/202
f 205/205/205 206/206/206 207/207/207
f 205/205/205 207/207/207 208/208/208
f 209/209/209 210/210/210 211/211/211
f 209/209/209 211/211/211 212/212/212
f 213/213/213 214/214/214 215/215/215
f 213/213/213 215/215/215 216/216/216
f 217/217/217 218/218/218 219/219/219
f 217/217/217 219/219/219 220/220/220
f 221/221/221 222/222/222 223/223/223
f 221/221/221 223/223/223 224/224/224
f 225/225/225 226/226/226 227/227/227
f 225/225/225 227/227/227 228/228/228
f 229/229/229 230/230/230 231/231/231
f 229/229/229 231/231/231 232/232/232
f 233/233/233 234/234/234 235/235/235
f 233/233/233 235/235/235 236/236/236
f 237/237/237 238/238/238 239/239/239
f 237/237/237 239/239/239 240/240/240
f 241/241/241 242/242/242 243/243/243
f 244/244/244 245/245/245 246/246/246
f 244/244/244 247/247/247 245/245/245
f 248/248/248 249/249/249 250/250/250
f 248/248/248 251/251/251 249/249/249
f 252/252/252 253/253/253 254/254/254
f 252/252/252 255/255/255 253/253/253
f 256/256/256 257/257/257 258/258/258
f 256/256/256 259/259/259 257/257/257
f 260/260/260 261/261/261 262/262/262
f 260/260/260 263/263/263 261/261/261
f 264/264/264 265/265/265 266/266/266
f 264/264/264 267/267/267 265/265/265
f 268/268/268 269/269/269 270/270/270
f 268/268/268 271/271/271 269/269/269
f 272/272/272 273/273/273 274/274/274
f 272/272/272 275/275/275 273/273/273
f 276/276/276 277/277/277 278/278/278
f 276/276/276 279/279/279 277/277/277
f 280/280/280 281/281/281 282/282/282
f 280/280/280 282/282/282 283/283/283
f 284/284/284 285/285/285 286/286/286
f 287/287/287 288/288/288 289/289/289
f 287/287/287 289/289/289 290/290/290
f 291/291/291 292/292/292 293/293/293
f 291/291/291 293/293/293 294/294/294
f 295/295/295 296/296/296 297/297/297
f 295/295/295 297/297/297 298/298/298
f 299/299/299 300/300/300 301/301/301
f 299/299/299 301/301/301 302/302/302
f 303/303/303 304/304/304 305/305/305
f 303/303/303 305/305/305 306/306/306
f 307/307/307 308/308/308 309/309/309
f 307/307/307 309/309/309 310/310/310
f 311/311/311 312/312/312 313/313/313
f 311/311/311 313/313/313 314/314/314
f 315/315/315 316/316/316 317/317/317
f 315/315/315 317/317/317 318/318/318
f 319/319/319 320/320/320 321/321/321
f 322/322/322 323/323/323 324/324/324
f 325/325/325 326/326/326 327/327/327
f 325/325/325 328/328/328 326/326/326
f 329/329/329 330/330/330 331/331/331
f 329/329/329 332/332/332 330/330/330
f 333/333/333 334/334/334 335/335/335
f 333/333/333 335/335/335 336/336/336
f 337/337/337 338/338/338 339/339/339
f 337/337/337 339/339/339 340/340/340
f 341/341/341 342/342/342 343/343/343
f 344/344/344 345/345/345 346/346/346
f 343/343/343 344/344/344 346/346/346
f 341/341/341 343/343/343 346/346/346
f 347/347/347 348/348/348 349/349/349
f 347/347/347 349/349/349 350/350/350
f 350/350/350 351/351/351 352/352/352
f 347/347/347 350/350/350 352/352/352
f 353/353/353 354/354/354 355/355/355
f 355/355/355 356/356/356 353/353/353
f 357/357/357 358/358/358 359/359/359
f 357/357/357 359/359/359 360/360/360
f 357/357/357 360/360/360 361/361/361
f 362/362/362 363/363/363 364/364/364
f 364/364/364 365/365/365 362/362/362
f 366/366/366 356/356/356 364/364/364
f 364/364/364 367/367/367 366/366/366
f 363/363/363 367/367/367 364/364/364
f 361/361/361 360/360/360 368/368/368
f 368/368/368 369/369/369 361/361/361
f 354/354/354 370/370/370 355/355/355
f 370/370/370 371/371/371 372/372/372
f 372/372/372 355/355/355 370/370/370
f 373/373/373 374/374/374 372/372/372
f 372/372/372 371/371/371 373/373/373
f 375/375/375 348/348/348 374/374/374
f 374/374/374 373/373/373 375/375/375
f 376/376/376 342/342/342 341/341/341
f 376/376/376 341/341/341 377/377/377
f 378/378/378 379/379/379 380/380/380
f 378/378/378 380/380/380 381/381/381
f 377/377/377 378/378/378 381/381/381
f 377/377/377 381/381/381 382/382/382
f 377/377/377 382/382/382 383/383/383
f 376/376/376 377/377/377 383/383/383
f 384/384/384 385/385/385 386/386/386
f 386/386/386 387/387/387 384/384/384
f 384/384/384 387/387/387 388/388/388
f 388/388/388 389/389/389 384/384/384
f 388/388/388 390/390/390 389/389/389
f 389/389/389 390/390/390 391/391/391
f 391/391/391 392/392/392 389/389/389
f 393/393/393 394/394/394 395/395/395
f 395/395/395 396/396/396 393/393/393
f 353/353/353 356/356/356 366/366/366
f 375/375/375 358/358/358 357/357/357
f 375/375/375 357/357/357 349/349/349
f 375/375/375 349/349/349 348/348/348
f 393/393/393 392/392/392 397/397/397
f 397/397/397 398/398/398 393/393/393
f 385/385/385 342/342/342 376/376/376
f 376/376/376 386/386/386 385/385/385
f 399/399/399 400/400/400 401/401/401
f 402/402/402 393/393/393 398/398/398
f 403/403/403 404/404/404 405/405/405
f 406/406/406 407/407/407 408/408/408
f 405/405/405 406/406/406 408/408/408
f 403/403/403 405/405/405 408/408/408
f 409/409/409 410/410/410 411/411/411
f 412/412/412 413/413/413 414/414/414
f 412/412/412 414/414/414 415/415/415
f 416/416/416 407/407/407 406/406/406
f 416/416/416 406/406/406 417/417/417
f 418/418/418 416/416/416 417/417/417
f 419/419/419 418/418/418 417/417/417
f 415/415/415 419/419/419 417/417/417
f 412/412/412 415/415/415 417/417/417
f 420/420/420 421/421/421 422/422/422
f 422/422/422 423/423/423 420/420/420
f 420/420/420 423/423/423 424/424/424
f 424/424/424 425/425/425 420/420/420
f 424/424/424 426/426/426 425/425/425
f 425/425/425 426/426/426 409/409/409
f 409/409/409 411/411/411 425/425/425
f 427/427/427 428/428/428 429/429/429
f 429/429/429 430/430/430 427/427/427
f 428/428/428 427/427/427 431/431/431
f 432/432/432 433/433/433 434/434/434
f 432/432/432 434/434/434 435/435/435
f 435/435/435 436/436/436 437/437/437
f 432/432/432 435/435/435 437/437/437
f 438/438/438 439/439/439 440/440/440
f 440/440/440 441/441/441 438/438/438
f 442/442/442 443/443/443 444/444/444
f 444/444/444 445/445/445 446/446/446
f 442/442/442 444/444/444 446/446/446
f 447/447/447 448/448/448 449/449/449
f 449/449/449 450/450/450 447/447/447
f 449/449/449 451/451/451 452/452/452
f 452/452/452 441/441/441 449/449/449
f 443/443/443 442/442/442 453/453/453
f 453/453/453 454/454/454 443/443/443
f 439/439/439 455/455/455 440/440/440
f 455/455/455 456/456/456 457/457/457
f 457/457/457 440/440/440 455/455/455
f 458/458/458 459/459/459 457/457/457
f 457/457/457 456/456/456 458/458/458
f 459/459/459 458/458/458 460/460/460
f 460/460/460 436/436/436 459/459/459
f 461/461/461 462/462/462 463/463/463
f 410/410/410 431/431/431 427/427/427
f 427/427/427 411/411/411 410/410/410
f 416/416/416 422/422/422 421/421/421
f 421/421/421 407/407/407 416/416/416
f 460/460/460 445/445/445 444/444/444
f 460/460/460 444/444/444 437/437/437
f 460/460/460 437/437/437 436/436/436
f 464/464/464 442/442/442 451/451/451
f 465/465/465 466/466/466 467/467/467
f 468/468/468 469/469/469 470/470/470
f 471/471/471 472/472/472 473/473/473
f 474/474/474 475/475/475 476/476/476
f 477/477/477 478/478/478 479/479/479
f 480/480/480 481/481/481 482/482/482
f 483/483/483 484/484/484 485/485/485
f 486/486/486 487/487/487 488/488/488
f 489/489/489 490/490/490 491/491/491
f 492/492/492 493/493/493 494/494/494
f 495/495/495 496/496/496 497/497/497
f 498/498/498 499/499/499 500/500/500
f 501/501/501 502/502/502 503/503/503
f 504/504/504 505/505/505 506/506/506
f 507/507/507 508/508/508 509/509/509
f 510/510/510 511/511/511 512/512/512
f 513/513/513 514/514/514 515/515/515
f 516/516/516 517/517/517 518/518/518
f 519/519/519 520/520/520 521/521/521
f 522/522/522 523/523/523 524/524/524
f 525/525/525 526/526/526 527/527/527
f 528/528/528 529/529/529 530/530/530
f 531/531/531 532/532/532 533/533/533
f 534/534/534 535/535/535 536/536/536
f 537/537/537 538/538/538 539/539/539
f 540/540/540 541/541/541 542/542/542
f 543/543/543 544/544/544 545/545/545
f 546/546/546 547/547/547 548/548/548
f 549/549/549 550/550/550 551/551/551
f 552/552/552 553/553/553 554/554/554
f 555/555/555 556/556/556 557/557/557
f 558/558/558 559/559/559 560/560/560
f 561/561/561 562/562/562 563/563/563
f 564/564/564 565/565/565 566/566/566
f 567/567/567 568/568/568 569/569/569
f 570/570/570 571/571/571 572/572/572
f 573/573/573 574/574/574 575/575/575
f 576/576/576 577/577/577 578/578/578
f 579/579/579 580/580/580 581/581/581
f 582/582/582 583/583/583 584/584/584
f 585/585/585 586/586/586 587/587/587
f 588/588/588 589/589/589 590/590/590
# 318 faces

