v -0.211743 0.334355 0.203910
v 0.001371 0.389073 0.203910
v -0.108642 0.375175 0.203910
v -0.301453 0.269176 0.203910
v -0.372136 0.183736 0.203910
v -0.419349 0.083402 0.203910
v -0.460177 -0.024260 0.196477
v -0.452898 -0.139955 0.196477
v -0.417076 -0.250204 0.196477
v -0.354961 -0.348082 0.196477
v -0.270456 -0.427437 0.196477
v -0.168872 -0.483283 0.196477
v -0.056590 -0.512112 0.196477
v 0.059333 -0.512112 0.196477
v 0.171614 -0.483283 0.196477
v 0.273199 -0.427437 0.196477
v 0.357703 -0.348082 0.196477
v 0.419818 -0.250204 0.196477
v 0.455641 -0.139955 0.196477
v 0.462919 -0.024260 0.196477
v 0.422092 0.083402 0.203910
v 0.374878 0.183736 0.203910
v 0.304195 0.269177 0.203910
v 0.214485 0.334355 0.203910
v 0.111384 0.375175 0.203910
v -0.110107 0.380880 -0.117818
v 0.001371 0.409162 0.196477
v 0.001371 0.394963 -0.117818
v -0.113638 0.394633 0.196477
v -0.214580 0.339516 -0.117818
v -0.221421 0.351959 0.196477
v -0.305485 0.273470 -0.117818
v -0.315205 0.283821 0.196477
v -0.377108 0.186892 -0.117818
v -0.389097 0.194500 0.196477
v -0.424950 0.085222 -0.117818
v -0.438455 0.089610 0.196477
v -0.446005 -0.025152 -0.117818
v -0.460177 -0.024260 0.196477
v -0.438950 -0.137294 -0.117818
v -0.452898 -0.139955 0.196477
v -0.404227 -0.244159 -0.117818
v -0.417076 -0.250204 0.196477
v -0.344020 -0.339031 -0.117818
v -0.354961 -0.348082 0.196477
v -0.262110 -0.415949 -0.117818
v -0.270456 -0.427437 0.196477
v -0.163644 -0.470081 -0.117818
v -0.168872 -0.483283 0.196477
v 0.057553 -0.498025 -0.117818
v -0.056590 -0.512112 0.196477
v -0.054811 -0.498025 -0.117818
v 0.059333 -0.512112 0.196477
v 0.166387 -0.470081 -0.117818
v 0.171614 -0.483283 0.196477
v 0.264853 -0.415949 -0.117818
v 0.273199 -0.427437 0.196477
v 0.346763 -0.339031 -0.117818
v 0.357703 -0.348082 0.196477
v 0.406970 -0.244158 -0.117818
v 0.419818 -0.250204 0.196477
v 0.441693 -0.137294 -0.117818
v 0.455641 -0.139955 0.196477
v 0.448748 -0.025152 -0.117818
v 0.462919 -0.024260 0.196477
v 0.427693 0.085222 -0.117818
v 0.441197 0.089610 0.196477
v 0.379851 0.186892 -0.117818
v 0.391840 0.194501 0.196477
v 0.308227 0.273470 -0.117818
v 0.317947 0.283821 0.196477
v 0.217323 0.339516 -0.117818
v 0.224163 0.351959 0.196476
v 0.111299 0.374844 -0.123489
v 0.116380 0.394633 0.196477
v -0.168872 -0.483283 0.196477
v -0.163644 -0.470081 -0.117818
v 0.001371 0.394963 -0.117818
v 0.111300 0.374843 -0.123489
v 0.001372 0.363589 -0.138005
v 0.001372 0.363589 -0.138005
v 0.111300 0.374843 -0.123489
v 0.202209 0.312023 -0.138006
v 0.111300 0.374843 -0.123489
v 0.217323 0.339516 -0.117818
v 0.202209 0.312023 -0.138006
v 0.379851 0.186892 -0.117818
v 0.427693 0.085222 -0.117818
v 0.353361 0.170081 -0.138006
v 0.397855 0.075527 -0.138006
v 0.406971 -0.244158 -0.117818
v 0.346763 -0.339031 -0.117818
v 0.378583 -0.230800 -0.138006
v 0.322589 -0.319032 -0.138006
v 0.346763 -0.339031 -0.117818
v 0.264853 -0.415949 -0.117818
v 0.322589 -0.319032 -0.138006
v 0.246412 -0.390567 -0.138005
v 0.057554 -0.498025 -0.117818
v -0.054810 -0.498024 -0.117818
v 0.053622 -0.466898 -0.138006
v -0.050878 -0.466898 -0.138006
v 0.427693 0.085222 -0.117818
v 0.448748 -0.025152 -0.117818
v 0.397855 0.075527 -0.138006
v 0.417437 -0.027121 -0.138006
v -0.199466 0.312023 -0.138006
v -0.110106 0.380880 -0.117818
v -0.102304 0.350492 -0.138006
v -0.214580 0.339516 -0.117818
v -0.284008 0.250599 -0.138006
v -0.214580 0.339516 -0.117818
v -0.199466 0.312023 -0.138006
v -0.305484 0.273470 -0.117818
v -0.414693 -0.027122 -0.138006
v -0.424950 0.085222 -0.117818
v -0.395112 0.075527 -0.138006
v -0.446005 -0.025151 -0.117818
v -0.408132 -0.131415 -0.138006
v -0.446005 -0.025151 -0.117818
v -0.414693 -0.027122 -0.138006
v -0.438950 -0.137294 -0.117818
v -0.319846 -0.319032 -0.138006
v -0.404227 -0.244158 -0.117818
v -0.375839 -0.230800 -0.138006
v -0.344020 -0.339031 -0.117818
v -0.243669 -0.390567 -0.138006
v -0.344020 -0.339031 -0.117818
v -0.319846 -0.319032 -0.138006
v -0.262110 -0.415949 -0.117818
v -0.050878 -0.466898 -0.138006
v -0.163644 -0.470081 -0.117818
v -0.152095 -0.440910 -0.138006
v -0.054811 -0.498025 -0.117818
v 0.448748 -0.025152 -0.117817
v 0.441692 -0.137294 -0.117817
v 0.417436 -0.027121 -0.138005
v 0.410875 -0.131415 -0.138005
v 0.264853 -0.415949 -0.117817
v 0.166387 -0.470081 -0.117817
v 0.246412 -0.390567 -0.138005
v 0.154838 -0.440910 -0.138005
v 0.217323 0.339516 -0.117818
v 0.308227 0.273470 -0.117818
v 0.202209 0.312023 -0.138005
v 0.286750 0.250600 -0.138005
v -0.102305 0.350492 -0.138005
v 0.001371 0.394963 -0.117818
v 0.001371 0.363589 -0.138005
v -0.110107 0.380880 -0.117817
v -0.350618 0.170081 -0.138005
v -0.305484 0.273470 -0.117818
v -0.284008 0.250599 -0.138005
v -0.377108 0.186892 -0.117817
v -0.375839 -0.230800 -0.138005
v -0.438950 -0.137294 -0.117817
v -0.408132 -0.131415 -0.138005
v -0.404228 -0.244158 -0.117817
v -0.152095 -0.440910 -0.138005
v -0.262110 -0.415949 -0.117817
v -0.243669 -0.390567 -0.138005
v -0.163644 -0.470081 -0.117818
v 0.308227 0.273470 -0.117818
v 0.379851 0.186892 -0.117818
v 0.286750 0.250600 -0.138005
v 0.353361 0.170081 -0.138005
v 0.441692 -0.137294 -0.117817
v 0.406970 -0.244159 -0.117818
v 0.410875 -0.131415 -0.138005
v 0.378583 -0.230800 -0.138005
v 0.166387 -0.470081 -0.117817
v 0.057554 -0.498024 -0.117818
v 0.154838 -0.440910 -0.138005
v 0.053622 -0.466898 -0.138005
v -0.395112 0.075527 -0.138005
v -0.377108 0.186892 -0.117817
v -0.350618 0.170081 -0.138005
v -0.424950 0.085222 -0.117818
v -0.211743 0.334355 0.203910
v -0.108642 0.375175 0.203910
v -0.221421 0.351959 0.196477
v -0.113638 0.394633 0.196477
v -0.372136 0.183736 0.203910
v -0.301453 0.269176 0.203910
v -0.389097 0.194500 0.196477
v -0.315205 0.283821 0.196477
v 0.391840 0.194501 0.196477
v 0.422092 0.083402 0.203910
v 0.441197 0.089610 0.196477
v 0.374878 0.183736 0.203910
v 0.224163 0.351959 0.196476
v 0.304195 0.269177 0.203910
v 0.317947 0.283821 0.196477
v 0.214485 0.334355 0.203910
v 0.001371 0.409162 0.196477
v 0.111384 0.375175 0.203910
v 0.116380 0.394633 0.196477
v 0.001371 0.389073 0.203910
v 0.202209 0.312023 -0.138006
v 0.286750 0.250600 -0.138006
v 0.001371 0.363589 -0.138006
v 0.353361 0.170081 -0.138006
v 0.397855 0.075527 -0.138006
v 0.417436 -0.027121 -0.138005
v 0.410875 -0.131415 -0.138006
v 0.378583 -0.230800 -0.138006
v 0.322589 -0.319032 -0.138006
v 0.246412 -0.390567 -0.138006
v 0.154838 -0.440910 -0.138006
v 0.053622 -0.466898 -0.138006
v -0.050878 -0.466898 -0.138006
v -0.152095 -0.440910 -0.138005
v -0.243669 -0.390567 -0.138005
v -0.319846 -0.319032 -0.138006
v -0.375840 -0.230800 -0.138006
v -0.408132 -0.131415 -0.138006
v -0.414694 -0.027122 -0.138006
v -0.395112 0.075527 -0.138006
v -0.350618 0.170081 -0.138006
v -0.284008 0.250599 -0.138006
v -0.199466 0.312023 -0.138005
v -0.102304 0.350492 -0.138006
v -0.113638 0.394633 0.196477
v 0.001371 0.389073 0.203910
v 0.001371 0.409162 0.196477
v -0.108642 0.375175 0.203910
v -0.315205 0.283821 0.196477
v -0.211743 0.334355 0.203910
v -0.221421 0.351959 0.196477
v -0.301453 0.269177 0.203910
v -0.438455 0.089610 0.196477
v -0.372135 0.183736 0.203910
v -0.389097 0.194500 0.196477
v -0.419349 0.083402 0.203910
v 0.422092 0.083402 0.203910
v 0.462920 -0.024260 0.196477
v 0.441198 0.089610 0.196477
v 0.304195 0.269177 0.203910
v 0.374878 0.183736 0.203910
v 0.317947 0.283821 0.196477
v 0.391840 0.194501 0.196477
v 0.111385 0.375175 0.203910
v 0.214486 0.334355 0.203910
v 0.116381 0.394633 0.196477
v 0.224163 0.351959 0.196477
v -0.460177 -0.024260 0.196477
v -0.419349 0.083402 0.203910
v -0.438455 0.089610 0.196477
# 248 vertices

vt 0.007493 1.442219
vt 0.026685 1.365812
vt 0.012381 1.402773
vt 0.012330 1.481671
vt 0.026587 1.518651
vt 0.049369 1.550835
vt 0.075625 1.582261
vt 0.112321 1.599956
vt 0.152158 1.607742
vt 0.192633 1.605130
vt 0.231202 1.592282
vt 0.265443 1.570008
vt 0.293203 1.539705
vt 0.312740 1.503278
vt 0.322825 1.463015
vt 0.322825 1.421447
vt 0.312740 1.381184
vt 0.293203 1.344757
vt 0.265443 1.314454
vt 0.231203 1.292179
vt 0.191247 1.286296
vt 0.152529 1.283827
vt 0.114428 1.291305
vt 0.079339 1.308260
vt 0.049465 1.333627
vt 0.607740 1.135583
vt 0.555046 1.028415
vt 0.568708 1.140359
vt 0.595315 1.023488
vt 0.646823 1.131261
vt 0.635636 1.019029
vt 0.685951 1.127393
vt 0.676003 1.015038
vt 0.725119 1.123978
vt 0.716412 1.011515
vt 0.764323 1.121018
vt 0.756857 1.008461
vt 0.803556 1.118512
vt 0.797333 1.005877
vt 0.842815 1.116462
vt 0.837836 1.003761
vt 0.882093 1.114867
vt 0.878358 1.002116
vt 0.921387 1.113728
vt 0.918897 1.000940
vt 0.960691 1.113044
vt 0.959446 1.000235
vt 1.000000 1.112816
vt 1.000000 1.000000
vt 0.106766 1.234272
vt 0.038966 1.136430
vt 0.068876 1.245001
vt 0.078056 1.125361
vt 0.144772 1.223982
vt 0.117266 1.114745
vt 0.182889 1.214134
vt 0.156591 1.104585
vt 0.221113 1.204728
vt 0.196025 1.094881
vt 0.259437 1.195766
vt 0.235564 1.085635
vt 0.297859 1.187249
vt 0.275202 1.076849
vt 0.336371 1.179178
vt 0.314935 1.068522
vt 0.374971 1.171554
vt 0.354757 1.060657
vt 0.413652 1.164379
vt 0.394663 1.053254
vt 0.452410 1.157652
vt 0.434649 1.046314
vt 0.491239 1.151375
vt 0.474709 1.039838
vt 0.530220 1.147689
vt 0.514834 1.033808
vt 0.000000 1.147953
vt 0.031106 1.256170
vt 0.353583 1.941700
vt 0.353583 1.901575
vt 0.340742 1.939311
vt 0.323354 1.625417
vt 0.309045 1.662594
vt 0.323354 1.699770
vt 0.353584 1.884844
vt 0.353584 1.844719
vt 0.340742 1.847109
vt 0.353721 1.771299
vt 0.353721 1.731007
vt 0.340742 1.769889
vt 0.340742 1.732417
vt 0.108070 1.982479
vt 0.108070 1.942187
vt 0.095091 1.981069
vt 0.095091 1.943597
vt 0.322024 1.876889
vt 0.322024 1.836597
vt 0.309045 1.875479
vt 0.309045 1.838007
vt 0.353721 1.543875
vt 0.353721 1.503583
vt 0.340742 1.542465
vt 0.340742 1.504993
vt 0.353721 1.828155
vt 0.353721 1.787863
vt 0.340742 1.826745
vt 0.340742 1.789273
vt 0.031697 1.981069
vt 0.044676 1.942187
vt 0.031697 1.943597
vt 0.044676 1.982479
vt 0.340742 1.599321
vt 0.353721 1.560439
vt 0.340742 1.561849
vt 0.353721 1.600731
vt 0.340742 1.428753
vt 0.353721 1.389870
vt 0.340742 1.391280
vt 0.353721 1.430162
vt 0.158485 1.981069
vt 0.171464 1.942187
vt 0.158485 1.943597
vt 0.171464 1.982479
vt 0.340742 1.371896
vt 0.353721 1.333014
vt 0.340742 1.334424
vt 0.353721 1.373307
vt 0.000000 1.981069
vt 0.012979 1.942187
vt 0.000000 1.943597
vt 0.012979 1.982479
vt 0.309045 1.761767
vt 0.322024 1.722885
vt 0.309045 1.724295
vt 0.322024 1.763177
vt 0.353721 1.714443
vt 0.353721 1.674151
vt 0.340742 1.713033
vt 0.340742 1.675561
vt 0.322024 1.820033
vt 0.322024 1.779741
vt 0.309045 1.818623
vt 0.309045 1.781151
vt 0.298251 1.982479
vt 0.298251 1.942187
vt 0.285272 1.981069
vt 0.285272 1.943597
vt 0.340742 1.656177
vt 0.353721 1.617295
vt 0.340742 1.618705
vt 0.353721 1.657587
vt 0.221878 1.981069
vt 0.234858 1.942187
vt 0.221879 1.943597
vt 0.234858 1.982479
vt 0.063394 1.981069
vt 0.076373 1.942187
vt 0.063394 1.943597
vt 0.076373 1.982479
vt 0.126788 1.981069
vt 0.139767 1.942187
vt 0.126788 1.943597
vt 0.139767 1.982479
vt 0.353721 1.487019
vt 0.353721 1.446727
vt 0.340742 1.485609
vt 0.340742 1.448137
vt 0.353721 1.316450
vt 0.353721 1.276158
vt 0.340742 1.315040
vt 0.340742 1.277568
vt 0.266555 1.982479
vt 0.266555 1.942187
vt 0.253575 1.981069
vt 0.253576 1.943597
vt 0.190182 1.981069
vt 0.203161 1.942187
vt 0.190182 1.943597
vt 0.203161 1.982479
vt 0.007493 1.442219
vt 0.012381 1.402773
vt 0.000000 1.442153
vt 0.005109 1.400916
vt 0.026587 1.518651
vt 0.012330 1.481671
vt 0.019990 1.522294
vt 0.005086 1.483635
vt 0.152112 1.276158
vt 0.191247 1.286296
vt 0.192588 1.278740
vt 0.152529 1.283827
vt 0.075369 1.301746
vt 0.114428 1.291305
vt 0.112052 1.284021
vt 0.079339 1.308260
vt 0.020144 1.362064
vt 0.049465 1.333627
vt 0.043959 1.328417
vt 0.026685 1.365812
vt 0.285956 1.737435
vt 0.272498 1.702595
vt 0.285956 1.811789
vt 0.251010 1.672279
vt 0.222841 1.648394
vt 0.189763 1.632439
vt 0.153852 1.625417
vt 0.117366 1.627770
vt 0.082597 1.639349
vt 0.051730 1.659428
vt 0.026704 1.686744
vt 0.009092 1.719581
vt 0.000000 1.755876
vt 0.000000 1.793348
vt 0.009092 1.829643
vt 0.026704 1.862480
vt 0.051730 1.889796
vt 0.082597 1.909875
vt 0.117366 1.921454
vt 0.153852 1.923807
vt 0.189763 1.916785
vt 0.222841 1.900830
vt 0.251010 1.876945
vt 0.272498 1.846629
vt 0.379881 1.341137
vt 0.372439 1.381802
vt 0.379881 1.382705
vt 0.372439 1.342039
vt 0.348184 1.958432
vt 0.340742 1.999097
vt 0.348184 2.000000
vt 0.340742 1.959334
vt 0.379881 1.406115
vt 0.372439 1.446781
vt 0.379881 1.447683
vt 0.372439 1.407018
vt 0.372439 1.536975
vt 0.379881 1.577640
vt 0.379881 1.536072
vt 0.372439 1.601953
vt 0.372439 1.641716
vt 0.379880 1.601050
vt 0.379880 1.642619
vt 0.372439 1.471996
vt 0.372439 1.511759
vt 0.379881 1.471093
vt 0.379881 1.512662
vt 0.379881 1.276158
vt 0.372439 1.316824
vt 0.379881 1.317727
# 248 texture vertices

g Material_36
f 1/1 2/2 3/3
f 4/4 2/2 1/1
f 5/5 2/2 4/4
f 6/6 2/2 5/5
f 7/7 2/2 6/6
f 8/8 2/2 7/7
f 9/9 2/2 8/8
f 10/10 2/2 9/9
f 11/11 2/2 10/10
f 12/12 2/2 11/11
f 13/13 2/2 12/12
f 14/14 2/2 13/13
f 15/15 2/2 14/14
f 16/16 2/2 15/15
f 17/17 2/2 16/16
f 18/18 2/2 17/17
f 19/19 2/2 18/18
f 20/20 2/2 19/19
f 21/21 2/2 20/20
f 22/22 2/2 21/21
f 23/23 2/2 22/22
f 24/24 2/2 23/23
f 25/25 2/2 24/24
f 26/26 27/27 28/28
f 29/29 27/27 26/26
f 30/30 29/29 26/26
f 31/31 29/29 30/30
f 32/32 31/31 30/30
f 33/33 31/31 32/32
f 34/34 33/33 32/32
f 35/35 33/33 34/34
f 36/36 35/35 34/34
f 37/37 35/35 36/36
f 38/38 37/37 36/36
f 39/39 37/37 38/38
f 40/40 39/39 38/38
f 41/41 39/39 40/40
f 42/42 41/41 40/40
f 43/43 41/41 42/42
f 44/44 43/43 42/42
f 45/45 43/43 44/44
f 46/46 45/45 44/44
f 47/47 45/45 46/46
f 48/48 47/47 46/46
f 49/49 47/47 48/48
f 50/50 51/51 52/52
f 53/53 51/51 50/50
f 54/54 53/53 50/50
f 55/55 53/53 54/54
f 56/56 55/55 54/54
f 57/57 55/55 56/56
f 58/58 57/57 56/56
f 59/59 57/57 58/58
f 60/60 59/59 58/58
f 61/61 59/59 60/60
f 62/62 61/61 60/60
f 63/63 61/61 62/62
f 64/64 63/63 62/62
f 65/65 63/63 64/64
f 66/66 65/65 64/64
f 67/67 65/65 66/66
f 68/68 67/67 66/66
f 69/69 67/67 68/68
f 70/70 69/69 68/68
f 71/71 69/69 70/70
f 72/72 71/71 70/70
f 73/73 71/71 72/72
f 74/74 73/73 72/72
f 75/75 73/73 74/74
f 28/28 75/75 74/74
f 27/27 75/75 28/28
f 52/52 76/76 77/77
f 51/51 76/76 52/52
f 78/78 79/79 80/80
f 81/81 82/82 83/83
f 84/84 85/85 86/86
f 87/87 88/88 89/89
f 89/89 88/88 90/90
f 91/91 92/92 93/93
f 93/93 92/92 94/94
f 95/95 96/96 97/97
f 97/97 96/96 98/98
f 99/99 100/100 101/101
f 101/101 100/100 102/102
f 103/103 104/104 105/105
f 105/105 104/104 106/106
f 107/107 108/108 109/109
f 110/110 108/108 107/107
f 111/111 112/112 113/113
f 114/114 112/112 111/111
f 115/115 116/116 117/117
f 118/118 116/116 115/115
f 119/119 120/120 121/121
f 122/122 120/120 119/119
f 123/123 124/124 125/125
f 126/126 124/124 123/123
f 127/127 128/128 129/129
f 130/130 128/128 127/127
f 131/131 132/132 133/133
f 134/134 132/132 131/131
f 135/135 136/136 137/137
f 137/137 136/136 138/138
f 139/139 140/140 141/141
f 141/141 140/140 142/142
f 143/143 144/144 145/145
f 145/145 144/144 146/146
f 147/147 148/148 149/149
f 150/150 148/148 147/147
f 151/151 152/152 153/153
f 154/154 152/152 151/151
f 155/155 156/156 157/157
f 158/158 156/156 155/155
f 159/159 160/160 161/161
f 162/162 160/160 159/159
f 163/163 164/164 165/165
f 165/165 164/164 166/166
f 167/167 168/168 169/169
f 169/169 168/168 170/170
f 171/171 172/172 173/173
f 173/173 172/172 174/174
f 175/175 176/176 177/177
f 178/178 176/176 175/175
f 179/179 180/180 181/181
f 181/181 180/180 182/182
f 183/183 184/184 185/185
f 185/185 184/184 186/186
f 187/187 188/188 189/189
f 190/190 188/188 187/187
f 191/191 192/192 193/193
f 194/194 192/192 191/191
f 195/195 196/196 197/197
f 198/198 196/196 195/195
f 199/199 200/200 201/201
f 200/200 202/202 201/201
f 202/202 203/203 201/201
f 203/203 204/204 201/201
f 204/204 205/205 201/201
f 205/205 206/206 201/201
f 206/206 207/207 201/201
f 207/207 208/208 201/201
f 208/208 209/209 201/201
f 209/209 210/210 201/201
f 210/210 211/211 201/201
f 211/211 212/212 201/201
f 212/212 213/213 201/201
f 213/213 214/214 201/201
f 214/214 215/215 201/201
f 215/215 216/216 201/201
f 216/216 217/217 201/201
f 217/217 218/218 201/201
f 218/218 219/219 201/201
f 219/219 220/220 201/201
f 220/220 221/221 201/201
f 221/221 222/222 201/201
f 223/223 224/224 225/225
f 226/226 224/224 223/223
f 227/227 228/228 229/229
f 230/230 228/228 227/227
f 231/231 232/232 233/233
f 234/234 232/232 231/231
f 235/235 236/236 237/237
f 238/238 239/239 240/240
f 240/240 239/239 241/241
f 242/242 243/243 244/244
f 244/244 243/243 245/245
f 246/246 247/247 248/248
# 166 faces

