v -0.282632 0.578490 0.050781
v -0.199599 0.453492 0.050781
v -0.189195 0.578490 0.043989
v 0.284402 0.578491 -0.133206
v 0.201369 0.453493 -0.133206
v 0.190964 0.578491 -0.126414
v 0.020031 0.578491 -0.186300
v -0.081588 0.453493 -0.168429
v -0.087608 0.578491 -0.164326
v 0.047739 0.453493 -0.182078
v -0.201557 -0.372316 -0.272386
v -0.199550 -0.384282 -0.032046
v -0.222410 -0.372316 -0.034046
v -0.175392 -0.384282 -0.270097
v -0.173385 -0.372316 -0.029757
v -0.152532 -0.372316 -0.268097
v -0.224443 0.091968 -0.010216
v -0.205327 0.092780 -0.042089
v -0.221440 0.082620 -0.045128
v -0.206831 0.098023 -0.019915
v -0.191016 0.097721 -0.017647
v -0.213509 0.097721 0.053586
v -0.197544 0.096525 0.056321
v -0.196925 0.168259 0.050907
v -0.180072 0.091964 0.046150
v 0.305397 -0.372349 -0.140627
v 0.278113 -0.372345 0.171249
v 0.255237 -0.384280 0.169248
v 0.279216 -0.384280 -0.142917
v 0.229088 -0.372280 0.166961
v 0.256372 -0.372284 -0.144916
v 0.269393 -0.026234 -0.096534
v 0.248744 -0.010691 -0.052262
v 0.255678 -0.027009 -0.131195
v 0.138413 -0.000138 -0.113887
v 0.134939 0.080547 -0.114192
v 0.139254 0.080546 -0.163515
v 0.142728 -0.000138 -0.163210
v 0.114012 -0.000134 0.165037
v 0.110537 0.080551 0.164732
v 0.114852 0.080550 0.115409
v 0.118327 -0.000135 0.115714
v 0.032427 -0.486446 0.004431
v 0.054293 -0.485554 0.032779
v 0.040664 -0.484403 0.065876
v 0.016074 -0.484120 0.072272
v -0.009564 -0.484482 0.059379
v 0.032427 -0.486446 0.004431
v -0.015966 -0.485290 0.034803
v -0.003068 -0.486187 0.009181
v 0.050797 0.683903 0.017978
v 0.056888 0.682944 -0.010051
v 0.032278 0.682138 -0.036055
v -0.003964 0.684219 0.022839
v 0.030357 0.684467 0.033062
v -0.012269 0.683072 -0.011977
v 0.007029 0.682304 -0.033206
v -0.189195 0.578490 0.043989
v -0.138903 0.453492 -0.038716
v -0.138903 0.578490 -0.043709
v -0.199599 0.453492 0.050781
v -0.138903 0.578490 -0.043709
v -0.189195 0.453492 -0.126414
v -0.199599 0.578490 -0.133206
v -0.138903 0.453492 -0.038716
v -0.282632 0.453492 -0.133206
v 0.190964 0.578491 -0.126414
v 0.140672 0.453493 -0.043709
v 0.140672 0.578491 -0.038716
v 0.201369 0.453493 -0.133206
v 0.140672 0.578491 -0.038716
v 0.190965 0.453493 0.043989
v 0.201369 0.578491 0.050781
v 0.140672 0.453493 -0.043709
v 0.284402 0.453493 0.050781
v -0.087608 0.578491 -0.164326
v -0.150526 0.453492 -0.033401
v -0.148963 0.578491 -0.037691
v -0.081588 0.453493 -0.168429
v -0.148963 0.578491 -0.037691
v -0.150526 0.453492 -0.033401
v -0.097683 0.578491 0.069801
v -0.068058 0.453493 0.093815
v -0.018270 0.578491 0.103875
v 0.000825 0.628490 -0.188703
v -0.288102 0.578491 -0.129379
v -0.290093 0.628490 -0.128813
v 0.000935 0.578491 -0.188703
v -0.294835 0.628490 0.044570
v 0.000825 0.578491 0.106278
v 0.000935 0.628490 0.106278
v -0.290093 0.578491 0.046388
v 0.291862 0.628490 0.046388
v 0.345098 0.578491 -0.038718
v 0.343680 0.628490 -0.036013
v 0.289871 0.578491 0.046953
v 0.343680 0.628490 -0.036013
v 0.345098 0.578491 -0.038718
v 0.296604 0.628490 -0.126995
v 0.291862 0.578491 -0.128813
v -0.230989 -0.372316 0.064003
v -0.228289 -0.384283 0.296420
v -0.251148 -0.372317 0.294420
v -0.204824 -0.384282 0.066292
v -0.258844 -0.437891 0.382384
v -0.243588 0.001756 0.390890
v -0.258460 0.005547 0.377436
v -0.243374 -0.447891 0.393776
v -0.240217 0.039830 0.357462
v -0.254030 0.047353 0.327342
v -0.244652 0.118048 0.220148
v -0.228392 0.128749 0.224487
v -0.216326 0.171801 0.178708
v -0.237840 0.191128 0.142385
v -0.213229 0.215845 0.143306
v -0.210966 0.265555 0.117444
v -0.233545 0.287621 0.093235
v -0.216965 0.341985 0.090887
v -0.231546 0.403331 0.070345
v -0.215810 0.458431 0.077684
v -0.230994 0.557210 0.063979
v -0.207560 0.569343 0.078494
v -0.221666 0.557234 -0.042585
v -0.204152 0.457032 -0.053120
v -0.221471 0.453019 -0.044807
v -0.196110 0.569343 -0.052368
v -0.202893 0.340465 -0.066580
v -0.219535 0.297437 -0.066850
v -0.192701 0.265555 -0.091318
v -0.190438 0.215845 -0.117180
v -0.214273 0.182938 -0.126972
v -0.187341 0.171801 -0.152582
v -0.191501 0.128050 -0.200578
v -0.207742 0.115677 -0.201713
v -0.179795 0.039595 -0.333086
v -0.196371 0.028503 -0.331681
v -0.176987 0.001036 -0.366615
v -0.194007 -0.004309 -0.358942
v -0.176630 -0.382316 -0.369080
v -0.193029 -0.437852 -0.368314
v -0.226679 0.001034 0.392741
v -0.227033 -0.447891 0.395206
v -0.223871 0.039595 0.359211
v -0.212165 0.128051 0.226703
v -0.200775 0.340466 0.092706
v -0.199517 0.457028 0.079246
v -0.187859 0.458436 -0.051558
v -0.186703 0.341985 -0.064761
v -0.175275 0.128748 -0.198364
v -0.163449 0.039831 -0.331336
v -0.160078 0.001757 -0.364765
v -0.163690 -0.449582 -0.368357
v -0.202124 -0.372317 0.298709
v -0.181964 -0.372316 0.068292
v -0.209515 0.001936 0.383731
v -0.209820 -0.437891 0.386674
v -0.205005 0.047353 0.331632
v -0.195925 0.115678 0.227837
v -0.189394 0.182938 0.153098
v -0.184133 0.297436 0.092975
v -0.182198 0.453015 0.070933
v -0.182004 0.557234 0.068711
v -0.172676 0.557211 -0.037854
v -0.172123 0.403331 -0.044220
v -0.170122 0.287623 -0.067109
v -0.165827 0.191130 -0.116258
v -0.159015 0.118048 -0.194024
v -0.147593 0.030923 -0.324551
v -0.145056 -0.000889 -0.353337
v -0.144819 -0.372316 -0.356259
v -0.229699 -0.013177 0.049370
v -0.215927 0.016528 0.080769
v -0.231797 0.024698 0.073285
v -0.214082 -0.017454 0.060155
v -0.218890 0.037008 0.114809
v -0.235203 0.047180 0.112267
v -0.251541 0.046246 0.298970
v -0.237733 0.016164 0.329997
v -0.254842 0.022237 0.336700
v -0.234729 0.036860 0.296147
v -0.239503 -0.018004 0.350399
v -0.256798 -0.016894 0.359097
v -0.256710 -0.253521 0.358162
v -0.237700 -0.283227 0.329635
v -0.254625 -0.291395 0.334248
v -0.239462 -0.249245 0.350255
v -0.234707 -0.303707 0.295597
v -0.251213 -0.313880 0.295267
v -0.234878 -0.312944 0.108564
v -0.215894 -0.282863 0.080406
v -0.231581 -0.288936 0.070833
v -0.218815 -0.303559 0.114263
v -0.214095 -0.248695 0.060007
v -0.229617 -0.249805 0.048437
v -0.199679 0.016164 0.081825
v -0.197909 -0.018004 0.061423
v -0.202682 0.036861 0.115675
v -0.221484 0.016529 0.331053
v -0.218521 0.037008 0.297013
v -0.223330 -0.017454 0.351666
v -0.221515 -0.282863 0.331416
v -0.223315 -0.248695 0.351815
v -0.218595 -0.303559 0.297559
v -0.199709 -0.283227 0.082187
v -0.202703 -0.303706 0.116225
v -0.197947 -0.249245 0.061567
v -0.182568 0.022237 0.075122
v -0.180613 -0.016894 0.052725
v -0.185874 0.046244 0.112852
v -0.205616 0.024698 0.338536
v -0.202206 0.047182 0.299555
v -0.207712 -0.013177 0.362452
v -0.205831 -0.288935 0.340987
v -0.207798 -0.249804 0.363381
v -0.202531 -0.312943 0.303258
v -0.182781 -0.291397 0.077573
v -0.186196 -0.313879 0.116554
v -0.180694 -0.253522 0.053657
v -0.222970 -0.253522 -0.027532
v -0.203955 -0.283227 -0.056062
v -0.220882 -0.291397 -0.051448
v -0.205717 -0.249245 -0.035441
v -0.200961 -0.303706 -0.090100
v -0.217467 -0.313879 -0.090429
v -0.201129 -0.312941 -0.277131
v -0.182149 -0.282862 -0.305291
v -0.197833 -0.288934 -0.314862
v -0.185069 -0.303559 -0.271433
v -0.180349 -0.248694 -0.325690
v -0.195869 -0.249804 -0.337257
v -0.195952 -0.013178 -0.336326
v -0.182182 0.016529 -0.304927
v -0.198050 0.024698 -0.312411
v -0.180336 -0.017454 -0.325541
v -0.185145 0.037008 -0.270887
v -0.201457 0.047180 -0.273429
v -0.217794 0.046245 -0.086726
v -0.203987 0.016165 -0.055699
v -0.221099 0.022238 -0.048996
v -0.200984 0.036861 -0.089549
v -0.205757 -0.018004 -0.035297
v -0.223054 -0.016894 -0.026599
v -0.187769 -0.282863 -0.054281
v -0.189570 -0.248695 -0.033881
v -0.184849 -0.303559 -0.088138
v -0.165964 -0.283227 -0.303509
v -0.168957 -0.303706 -0.269472
v -0.164202 -0.249244 -0.324129
v -0.165933 0.016165 -0.303871
v -0.164163 -0.018004 -0.324274
v -0.168937 0.036861 -0.270021
v -0.187739 0.016529 -0.054643
v -0.184776 0.037008 -0.088683
v -0.189584 -0.017454 -0.034030
v -0.172756 -0.281375 -0.037158
v -0.168787 -0.312942 -0.082439
v -0.149039 -0.291395 -0.308122
v -0.152454 -0.313877 -0.269142
v -0.146952 -0.253521 -0.332038
v -0.148824 0.022237 -0.310574
v -0.146869 -0.016894 -0.332971
v -0.152129 0.046245 -0.272844
v -0.171869 0.024699 -0.047159
v -0.168462 0.047181 -0.086141
v -0.173966 -0.013177 -0.023243
v -0.221440 0.082620 -0.045128
v -0.196636 0.095831 -0.131418
v -0.212514 0.088222 -0.144868
v -0.205327 0.092780 -0.042089
v -0.197928 0.112762 -0.127647
v -0.214138 0.136710 -0.128527
v -0.201445 0.177605 -0.085029
v -0.205123 0.231086 -0.038978
v -0.221415 0.240244 -0.045353
v -0.206752 0.234863 -0.025335
v -0.223451 0.247041 -0.022176
v -0.224483 0.215232 -0.010333
v -0.207601 0.168258 -0.014969
v -0.224443 0.091968 -0.010216
v -0.206831 0.098023 -0.019915
v -0.185493 0.091202 -0.079588
v -0.181081 0.096655 -0.130513
v -0.181625 0.112421 -0.126263
v -0.185081 0.176811 -0.084208
v -0.188869 0.231104 -0.037868
v -0.191474 0.234269 -0.022857
v -0.191223 0.165766 -0.014366
v -0.191016 0.097721 -0.017647
v -0.175390 0.087302 -0.007706
v -0.165744 0.082754 -0.117151
v -0.163628 0.091745 -0.141295
v -0.164411 0.120936 -0.132371
v -0.171918 0.236820 -0.046777
v -0.174875 0.246532 -0.014116
v -0.175725 0.168029 -0.003035
v -0.228979 0.213268 0.041082
v -0.213303 0.165772 0.050305
v -0.213053 0.234269 0.058795
v -0.230100 0.247041 0.053825
v -0.215657 0.231104 0.073807
v -0.232610 0.236822 0.082716
v -0.219445 0.176809 0.120148
v -0.240113 0.120935 0.168310
v -0.222726 0.097988 0.168565
v -0.240897 0.091744 0.177234
v -0.238781 0.082753 0.153090
v -0.219032 0.091202 0.115529
v -0.229148 0.087294 0.043637
v -0.213509 0.097721 0.053586
v -0.196925 0.168259 0.050907
v -0.197774 0.234863 0.061274
v -0.199404 0.231086 0.074917
v -0.203081 0.177606 0.120968
v -0.206597 0.112762 0.163586
v -0.207889 0.095831 0.167357
v -0.202452 0.091912 0.114024
v -0.197544 0.096525 0.056321
v -0.180072 0.091964 0.046150
v -0.180043 0.215231 0.046272
v -0.181076 0.247041 0.058115
v -0.183110 0.240244 0.081293
v -0.190390 0.136709 0.164465
v -0.192011 0.088222 0.180807
v -0.183086 0.082620 0.081068
v 0.270331 -0.437917 0.259207
v 0.271268 0.043122 0.255898
v 0.245406 0.006746 0.268855
v 0.244748 -0.449993 0.269123
v 0.254594 0.057562 0.259180
v 0.274916 0.115856 0.215175
v 0.249353 0.120628 0.224687
v 0.281660 0.202435 0.139359
v 0.264095 0.206529 0.147322
v 0.285423 0.287590 0.097597
v 0.258956 0.265556 0.117514
v 0.269575 0.341974 0.092410
v 0.287581 0.403296 0.074719
v 0.262487 0.457980 0.080654
v 0.288345 0.557176 0.068369
v 0.262762 0.569341 0.078595
v 0.297663 0.557199 -0.038196
v 0.298091 0.370534 -0.045975
v 0.274194 0.457981 -0.054348
v 0.274210 0.569340 -0.052266
v 0.283059 0.340453 -0.065108
v 0.302555 0.213777 -0.099410
v 0.277219 0.265553 -0.091247
v 0.288207 0.205695 -0.119994
v 0.312590 0.071824 -0.215761
v 0.286442 0.120623 -0.198450
v 0.297566 0.056624 -0.231821
v 0.313582 0.004954 -0.228493
v 0.290091 0.006742 -0.242642
v 0.313024 -0.437923 -0.228795
v 0.289551 -0.449999 -0.243003
v 0.238061 0.056651 0.258045
v 0.247812 0.205721 0.146249
v 0.253313 0.340476 0.091390
v 0.266801 0.341993 -0.066128
v 0.271926 0.206547 -0.121068
v 0.281036 0.057578 -0.232956
v 0.222141 0.038754 0.252456
v 0.221307 -0.437853 0.254918
v 0.225555 0.110948 0.214627
v 0.233485 0.213844 0.125666
v 0.238360 0.370598 0.072263
v 0.239277 0.557265 0.064522
v 0.248596 0.557240 -0.042043
v 0.248956 0.403359 -0.048424
v 0.250811 0.287652 -0.071326
v 0.254350 0.202498 -0.113105
v 0.260867 0.115914 -0.188940
v 0.264323 0.043180 -0.229676
v 0.263999 -0.437859 -0.233084
v 0.284894 -0.332611 0.094111
v 0.302113 -0.322782 -0.102410
v 0.284926 -0.313365 -0.099625
v 0.267862 -0.320057 0.006738
v 0.302113 -0.322782 -0.102410
v 0.304491 -0.306197 -0.129279
v 0.286891 -0.300666 -0.118749
v 0.284926 -0.313365 -0.099625
v 0.302983 -0.273291 -0.111648
v 0.282499 -0.245234 -0.065415
v 0.291987 -0.186334 0.014499
v 0.291987 -0.186334 0.014499
v 0.275233 -0.199414 0.016810
v 0.282499 -0.245234 -0.065415
v 0.280688 -0.280683 0.142943
v 0.268768 -0.249744 0.091193
v 0.264390 -0.294625 0.136946
v 0.279588 -0.315780 0.155243
v 0.263888 -0.313354 0.140396
v 0.267862 -0.320057 0.006738
v 0.268683 -0.313697 -0.100721
v 0.272498 -0.298705 -0.120297
v 0.265880 -0.244050 -0.063009
v 0.259638 -0.199317 0.010652
v 0.259638 -0.199317 0.010652
v 0.252063 -0.251746 0.094499
v 0.248488 -0.307646 0.141195
v 0.252207 -0.326376 -0.096395
v 0.233836 -0.328896 0.113422
v 0.252207 -0.326376 -0.096395
v 0.255963 -0.301038 -0.136172
v 0.246853 -0.209073 -0.033545
v 0.242183 -0.189814 0.020528
v 0.246853 -0.209073 -0.033545
v 0.231657 -0.282740 0.139101
v 0.230563 -0.315715 0.150954
v 0.299380 -0.009974 -0.066517
v 0.282172 -0.012916 0.130229
v 0.265674 -0.022433 0.124829
v 0.267365 -0.019475 0.016954
v 0.279560 -0.032515 0.158941
v 0.264219 -0.034454 0.144430
v 0.284979 -0.102724 0.096754
v 0.268835 -0.091720 0.093091
v 0.292234 -0.151286 0.012658
v 0.275689 -0.140393 0.012485
v 0.292234 -0.151286 0.012658
v 0.303409 -0.063585 -0.113514
v 0.285758 -0.058837 -0.105357
v 0.275689 -0.140393 0.012485
v 0.304660 -0.028941 -0.127024
v 0.286609 -0.030853 -0.115054
v 0.249489 -0.022070 0.123075
v 0.249764 -0.036366 0.143523
v 0.252879 -0.092992 0.087882
v 0.259262 -0.140280 0.015842
v 0.266650 -0.090821 -0.069808
v 0.266650 -0.090821 -0.069808
v 0.271549 -0.036591 -0.118317
v 0.234080 -0.009553 0.115520
v 0.248744 -0.010691 -0.052262
v 0.230615 -0.033469 0.156282
v 0.239058 -0.128989 0.056783
v 0.243735 -0.150129 0.003419
v 0.254471 -0.061416 -0.118317
v 0.243735 -0.150129 0.003419
v 0.255678 -0.027009 -0.131195
v 0.310544 -0.231506 -0.197728
v 0.310429 -0.106628 -0.194327
v 0.292804 -0.111624 -0.186616
v 0.285272 -0.178791 -0.190152
v 0.308287 -0.086063 -0.170958
v 0.284167 -0.101406 -0.176197
v 0.289767 -0.109946 -0.145719
v 0.302624 -0.129303 -0.105264
v 0.298339 -0.182597 -0.057685
v 0.282385 -0.183693 -0.070482
v 0.299291 -0.210417 -0.068459
v 0.275696 -0.202307 -0.079833
v 0.305756 -0.270286 -0.143463
v 0.278816 -0.236115 -0.117074
v 0.282440 -0.261252 -0.159982
v 0.308821 -0.275217 -0.178299
v 0.283759 -0.262636 -0.173977
v 0.276705 -0.111846 -0.188353
v 0.273765 -0.109417 -0.148071
v 0.266839 -0.183260 -0.071852
v 0.261767 -0.114753 -0.202152
v 0.261132 -0.249017 -0.197324
v 0.260034 -0.087877 -0.182477
v 0.256903 -0.099155 -0.146702
v 0.249521 -0.179941 -0.063019
v 0.250151 -0.208283 -0.071272
v 0.256266 -0.267130 -0.141824
v 0.259796 -0.275152 -0.182588
v 0.273203 -0.132431 0.230542
v 0.273361 -0.257309 0.227150
v 0.257353 -0.252268 0.216495
v 0.249497 -0.185080 0.218684
v 0.274761 -0.275995 0.211012
v 0.250629 -0.262466 0.204731
v 0.278413 -0.260838 0.169326
v 0.261459 -0.253947 0.175691
v 0.285535 -0.177093 0.088283
v 0.267446 -0.180198 0.100331
v 0.259283 -0.161564 0.108383
v 0.282069 -0.125682 0.129692
v 0.255978 -0.127756 0.145609
v 0.275224 -0.085330 0.206091
v 0.252163 -0.102619 0.188500
v 0.251036 -0.101236 0.202511
v 0.241197 -0.252003 0.215409
v 0.245290 -0.254434 0.175229
v 0.251897 -0.180591 0.098981
v 0.224091 -0.249056 0.226409
v 0.224664 -0.114791 0.221571
v 0.225737 -0.275930 0.206723
v 0.228895 -0.264652 0.170949
v 0.236354 -0.183868 0.087263
v 0.235630 -0.155524 0.095519
v 0.229567 -0.096684 0.166078
v 0.225974 -0.088655 0.206833
v -0.189570 -0.248695 -0.033881
v -0.174123 -0.241282 -0.021361
v -0.172756 -0.281375 -0.037158
v -0.205327 0.092780 -0.042089
v -0.191016 0.097721 -0.017647
v -0.185493 0.091202 -0.079588
v -0.175390 0.087302 -0.007706
v -0.229148 0.087294 0.043637
v -0.213303 0.165772 0.050305
v -0.228979 0.213268 0.041082
v -0.213509 0.097721 0.053586
v -0.196925 0.168259 0.050907
v 0.284894 -0.332611 0.094111
v 0.267862 -0.320057 0.006738
v 0.263888 -0.313354 0.140396
v 0.279588 -0.315780 0.155243
v 0.250151 -0.317232 0.119020
v 0.248488 -0.307646 0.141195
v 0.233836 -0.328896 0.113422
v 0.230563 -0.315715 0.150954
v 0.299380 -0.009974 -0.066517
v 0.267365 -0.019475 0.016954
v 0.286609 -0.030853 -0.115054
v 0.304660 -0.028941 -0.127024
v 0.299380 -0.009974 -0.066517
v 0.286609 -0.030853 -0.115054
v 0.269393 -0.026234 -0.096534
v 0.269393 -0.026234 -0.096534
v 0.271549 -0.036591 -0.118317
v 0.248744 -0.010691 -0.052262
v 0.255678 -0.027009 -0.131195
v 0.310544 -0.231506 -0.197728
v 0.285272 -0.178791 -0.190152
v 0.284574 -0.249252 -0.181660
v 0.308821 -0.275217 -0.178299
v 0.283759 -0.262636 -0.173977
v 0.261132 -0.249017 -0.197324
v 0.259796 -0.275152 -0.182588
v 0.273203 -0.132431 0.230542
v 0.249497 -0.185080 0.218684
v 0.250469 -0.114621 0.210216
v 0.275224 -0.085330 0.206091
v 0.251036 -0.101236 0.202511
v 0.224664 -0.114791 0.221571
v 0.225974 -0.088655 0.206833
v -0.199599 0.578490 -0.133206
v -0.282632 0.453492 -0.133206
v -0.293036 0.578490 -0.126414
v -0.343329 0.453492 -0.043709
v -0.343329 0.578490 -0.038717
v -0.343329 0.578490 -0.038717
v -0.293036 0.453492 0.043989
v -0.282632 0.578490 0.050781
v -0.343329 0.453492 -0.043709
v -0.199599 0.453492 0.050781
v 0.201369 0.578491 0.050781
v 0.284402 0.453493 0.050781
v 0.294806 0.578491 0.043989
v 0.345098 0.453493 -0.038716
v 0.345098 0.578491 -0.043709
v 0.345098 0.578491 -0.043709
v 0.294806 0.453493 -0.126414
v 0.284402 0.578491 -0.133206
v 0.345098 0.453493 -0.038716
v 0.201369 0.453493 -0.133206
v -0.018270 0.578491 0.103875
v 0.051746 0.453493 0.096972
v 0.057580 0.578491 0.094676
v -0.068058 0.453493 0.093815
v 0.127790 0.453493 0.035929
v 0.116955 0.578491 0.047915
v 0.116955 0.578491 0.047915
v 0.127790 0.453493 0.035929
v 0.150724 0.578491 -0.044734
v 0.146913 0.453493 -0.060054
v 0.150724 0.578491 -0.044734
v 0.116955 0.453493 -0.130342
v 0.099443 0.578491 -0.152226
v 0.116955 0.453493 -0.130342
v 0.047739 0.453493 -0.182078
v 0.020031 0.578491 -0.186300
v -0.290093 0.628490 -0.128813
v -0.343328 0.578491 -0.043708
v -0.341910 0.628490 -0.046412
v -0.288102 0.578491 -0.129379
v -0.341910 0.628490 -0.046412
v -0.343328 0.578491 -0.043708
v -0.294835 0.628490 0.044570
v -0.290093 0.578491 0.046388
v 0.000935 0.628490 0.106278
v 0.289871 0.578491 0.046953
v 0.291862 0.628490 0.046388
v 0.000825 0.578491 0.106278
v 0.296604 0.628490 -0.126995
v 0.000935 0.578491 -0.188703
v 0.000825 0.628490 -0.188703
v 0.291862 0.578491 -0.128813
v -0.222410 -0.437890 -0.034047
v -0.208129 -0.449856 0.066003
v -0.230988 -0.437890 0.064003
v -0.196245 -0.449856 -0.031757
v -0.251148 -0.437891 0.294420
v -0.243374 -0.447891 0.393776
v -0.258844 -0.437891 0.382384
v -0.224983 -0.449857 0.296709
v -0.230994 0.557210 0.063979
v -0.196110 0.569343 -0.052368
v -0.221666 0.557234 -0.042585
v -0.207560 0.569343 0.078494
v -0.193029 -0.437852 -0.368314
v -0.178635 -0.449851 -0.270380
v -0.201557 -0.437890 -0.272386
v -0.163690 -0.449582 -0.368357
v -0.227033 -0.447891 0.395206
v -0.181964 -0.437890 0.068292
v -0.173385 -0.437890 -0.029757
v -0.209820 -0.437891 0.386674
v -0.202123 -0.437890 0.298709
v -0.172676 0.557211 -0.037854
v -0.182004 0.557234 0.068711
v -0.152532 -0.437890 -0.268097
v -0.143947 -0.438130 -0.366221
v -0.235203 0.047180 0.112267
v -0.234729 0.036860 0.296147
v -0.251541 0.046246 0.298970
v -0.218890 0.037008 0.114809
v -0.256798 -0.016894 0.359097
v -0.239462 -0.249245 0.350255
v -0.256710 -0.253521 0.358162
v -0.239503 -0.018004 0.350399
v -0.251213 -0.313880 0.295267
v -0.218815 -0.303559 0.114263
v -0.234878 -0.312944 0.108564
v -0.234707 -0.303707 0.295597
v -0.229617 -0.249805 0.048437
v -0.214082 -0.017454 0.060155
v -0.229699 -0.013177 0.049370
v -0.214095 -0.248695 0.060007
v -0.218521 0.037008 0.297013
v -0.202682 0.036861 0.115675
v -0.223315 -0.248695 0.351815
v -0.223330 -0.017454 0.351666
v -0.202703 -0.303706 0.116225
v -0.218595 -0.303559 0.297559
v -0.197909 -0.018004 0.061423
v -0.197947 -0.249245 0.061567
v -0.202206 0.047182 0.299555
v -0.185874 0.046244 0.112852
v -0.207798 -0.249804 0.363381
v -0.207712 -0.013177 0.362452
v -0.186196 -0.313879 0.116554
v -0.202531 -0.312943 0.303258
v -0.180613 -0.016894 0.052725
v -0.180694 -0.253522 0.053657
v -0.217467 -0.313879 -0.090429
v -0.185069 -0.303559 -0.271433
v -0.201129 -0.312941 -0.277131
v -0.200961 -0.303706 -0.090100
v -0.195869 -0.249804 -0.337257
v -0.180336 -0.017454 -0.325541
v -0.195952 -0.013178 -0.336326
v -0.180349 -0.248694 -0.325690
v -0.201457 0.047180 -0.273429
v -0.200984 0.036861 -0.089549
v -0.217794 0.046245 -0.086726
v -0.185145 0.037008 -0.270887
v -0.223054 -0.016894 -0.026599
v -0.205717 -0.249245 -0.035441
v -0.222970 -0.253522 -0.027532
v -0.205757 -0.018004 -0.035297
v -0.168957 -0.303706 -0.269472
v -0.184849 -0.303559 -0.088138
v -0.164163 -0.018004 -0.324274
v -0.164202 -0.249244 -0.324129
v -0.184776 0.037008 -0.088683
v -0.168937 0.036861 -0.270021
v -0.189570 -0.248695 -0.033881
v -0.189584 -0.017454 -0.034030
v -0.152454 -0.313877 -0.269142
v -0.168787 -0.312942 -0.082439
v -0.146869 -0.016894 -0.332971
v -0.146952 -0.253521 -0.332038
v -0.168462 0.047181 -0.086141
v -0.152129 0.046245 -0.272844
v -0.174123 -0.241282 -0.021361
v -0.173966 -0.013177 -0.023243
v 0.278027 -0.437918 0.171243
v 0.270331 -0.437917 0.259207
v 0.244748 -0.449993 0.269123
v 0.251846 -0.449850 0.168952
v 0.288345 0.557176 0.068369
v 0.297663 0.557199 -0.038196
v 0.274210 0.569340 -0.052266
v 0.262762 0.569341 0.078595
v 0.313024 -0.437923 -0.228795
v 0.305311 -0.437922 -0.140633
v 0.282436 -0.449858 -0.142635
v 0.289551 -0.449999 -0.243003
v 0.221307 -0.437853 0.254918
v 0.229002 -0.437854 0.166954
v 0.248596 0.557240 -0.042043
v 0.239277 0.557265 0.064522
v 0.256286 -0.437858 -0.144922
v 0.263999 -0.437859 -0.233084
v 0.032427 -0.486446 0.004431
v 0.032278 0.682138 -0.036055
v 0.056888 0.682944 -0.010051
v 0.054293 -0.485554 0.032779
v 0.054293 -0.485554 0.032779
v 0.056888 0.682944 -0.010051
v 0.050797 0.683903 0.017978
v 0.040664 -0.484403 0.065876
v 0.030357 0.684467 0.033062
v 0.016074 -0.484120 0.072272
v -0.003964 0.684219 0.022839
v -0.009564 -0.484482 0.059379
v -0.012269 0.683072 -0.011977
v -0.015966 -0.485290 0.034803
v -0.003068 -0.486187 0.009181
v 0.007029 0.682304 -0.033206
v -0.199599 0.578490 -0.133206
v -0.293036 0.578490 -0.126414
v -0.343329 0.578490 -0.038717
v -0.282632 0.578490 0.050781
v -0.189195 0.578490 0.043989
v -0.138903 0.578490 -0.043709
v 0.284402 0.578491 -0.133206
v 0.190964 0.578491 -0.126414
v 0.140672 0.578491 -0.038716
v 0.201369 0.578491 0.050781
v 0.294806 0.578491 0.043989
v 0.345098 0.578491 -0.043709
v -0.097683 0.578491 0.069801
v -0.018270 0.578491 0.103875
v 0.057580 0.578491 0.094676
v 0.116955 0.578491 0.047915
v 0.150724 0.578491 -0.044734
v -0.148963 0.578491 -0.037691
v -0.087608 0.578491 -0.164326
v 0.020031 0.578491 -0.186300
v 0.099443 0.578491 -0.152226
v -0.189195 0.453492 -0.126414
v -0.343329 0.453492 -0.043709
v -0.282632 0.453492 -0.133206
v -0.293036 0.453492 0.043989
v -0.199599 0.453492 0.050781
v -0.138903 0.453492 -0.038716
v 0.294806 0.453493 -0.126414
v 0.140672 0.453493 -0.043709
v 0.201369 0.453493 -0.133206
v 0.190965 0.453493 0.043989
v 0.284402 0.453493 0.050781
v 0.345098 0.453493 -0.038716
v -0.068058 0.453493 0.093815
v 0.127790 0.453493 0.035929
v 0.051746 0.453493 0.096972
v 0.146913 0.453493 -0.060054
v -0.150526 0.453492 -0.033401
v -0.081588 0.453493 -0.168429
v 0.047739 0.453493 -0.182078
v 0.116955 0.453493 -0.130342
v -0.290093 0.628490 -0.128813
v -0.341910 0.628490 -0.046412
v -0.294835 0.628490 0.044570
v 0.000935 0.628490 0.106278
v 0.000825 0.628490 -0.188703
v 0.291862 0.628490 0.046388
v 0.296604 0.628490 -0.126995
v 0.343680 0.628490 -0.036013
v -0.288102 0.578491 -0.129379
v -0.290093 0.578491 0.046388
v -0.343328 0.578491 -0.043708
v 0.000825 0.578491 0.106278
v 0.000935 0.578491 -0.188703
v 0.289871 0.578491 0.046953
v 0.291862 0.578491 -0.128813
v 0.345098 0.578491 -0.038718
v -0.251213 -0.313880 0.295267
v -0.201557 -0.372316 -0.272386
v -0.222410 -0.372316 -0.034046
v -0.234878 -0.312944 0.108564
v -0.217467 -0.313879 -0.090429
v -0.230989 -0.372316 0.064003
v -0.251148 -0.372317 0.294420
v -0.201557 -0.372316 -0.272386
v -0.217467 -0.313879 -0.090429
v -0.201129 -0.312941 -0.277131
v -0.212514 0.088222 -0.144868
v -0.201457 0.047180 -0.273429
v -0.217794 0.046245 -0.086726
v -0.220882 -0.291397 -0.051448
v -0.231581 -0.288936 0.070833
v -0.222970 -0.253522 -0.027532
v -0.229617 -0.249805 0.048437
v -0.230100 0.247041 0.053825
v -0.223451 0.247041 -0.022176
v -0.224483 0.215232 -0.010333
v -0.228979 0.213268 0.041082
v -0.224443 0.091968 -0.010216
v -0.223054 -0.016894 -0.026599
v -0.229699 -0.013177 0.049370
v -0.230994 0.557210 0.063979
v -0.221666 0.557234 -0.042585
v -0.221471 0.453019 -0.044807
v -0.221440 0.082620 -0.045128
v -0.229148 0.087294 0.043637
v -0.193029 -0.437852 -0.368314
v -0.197833 -0.288934 -0.314862
v -0.231546 0.403331 0.070345
v -0.258844 -0.437891 0.382384
v -0.254625 -0.291395 0.334248
v -0.219535 0.297437 -0.066850
v -0.233545 0.287621 0.093235
v -0.221099 0.022238 -0.048996
v -0.195869 -0.249804 -0.337257
v -0.256710 -0.253521 0.358162
v -0.224443 0.091968 -0.010216
v -0.221099 0.022238 -0.048996
v -0.231797 0.024698 0.073285
v -0.235203 0.047180 0.112267
v -0.238781 0.082753 0.153090
v -0.251541 0.046246 0.298970
v -0.240897 0.091744 0.177234
v -0.214138 0.136710 -0.128527
v -0.240113 0.120935 0.168310
v -0.194007 -0.004309 -0.358942
v -0.195952 -0.013178 -0.336326
v -0.196371 0.028503 -0.331681
v -0.198050 0.024698 -0.312411
v -0.207742 0.115677 -0.201713
v -0.214273 0.182938 -0.126972
v -0.219535 0.297437 -0.066850
v -0.221415 0.240244 -0.045353
v -0.223451 0.247041 -0.022176
v -0.232610 0.236822 0.082716
v -0.237840 0.191128 0.142385
v -0.244652 0.118048 0.220148
v -0.254030 0.047353 0.327342
v -0.254842 0.022237 0.336700
v -0.258460 0.005547 0.377436
v -0.256798 -0.016894 0.359097
v -0.202531 -0.312943 0.303258
v -0.173385 -0.372316 -0.029757
v -0.152532 -0.372316 -0.268097
v -0.186196 -0.313879 0.116554
v -0.168787 -0.312942 -0.082439
v -0.181964 -0.372316 0.068292
v -0.202124 -0.372317 0.298709
v -0.152532 -0.372316 -0.268097
v -0.152454 -0.313877 -0.269142
v -0.168787 -0.312942 -0.082439
v -0.163628 0.091745 -0.141295
v -0.168462 0.047181 -0.086141
v -0.152129 0.046245 -0.272844
v -0.172756 -0.281375 -0.037158
v -0.182781 -0.291397 0.077573
v -0.165744 0.082754 -0.117151
v -0.180694 -0.253522 0.053657
v -0.180043 0.215231 0.046272
v -0.174875 0.246532 -0.014116
v -0.181076 0.247041 0.058115
v -0.174123 -0.241282 -0.021361
v -0.175725 0.168029 -0.003035
v -0.180072 0.091964 0.046150
v -0.173966 -0.013177 -0.023243
v -0.180613 -0.016894 0.052725
v -0.182198 0.453015 0.070933
v -0.172676 0.557211 -0.037854
v -0.182004 0.557234 0.068711
v -0.175390 0.087302 -0.007706
v -0.144819 -0.372316 -0.356259
v -0.149039 -0.291395 -0.308122
v -0.172123 0.403331 -0.044220
v -0.209820 -0.437891 0.386674
v -0.205831 -0.288935 0.340987
v -0.184133 0.297436 0.092975
v -0.175390 0.087302 -0.007706
v -0.170122 0.287623 -0.067109
v -0.171869 0.024699 -0.047159
v -0.146952 -0.253521 -0.332038
v -0.207798 -0.249804 0.363381
v -0.171869 0.024699 -0.047159
v -0.182568 0.022237 0.075122
v -0.183086 0.082620 0.081068
v -0.185874 0.046244 0.112852
v -0.192011 0.088222 0.180807
v -0.202206 0.047182 0.299555
v -0.164411 0.120936 -0.132371
v -0.190390 0.136709 0.164465
v -0.145056 -0.000889 -0.353337
v -0.146869 -0.016894 -0.332971
v -0.147593 0.030923 -0.324551
v -0.148824 0.022237 -0.310574
v -0.159015 0.118048 -0.194024
v -0.165827 0.191130 -0.116258
v -0.171918 0.236820 -0.046777
v -0.170122 0.287623 -0.067109
v -0.174875 0.246532 -0.014116
v -0.183110 0.240244 0.081293
v -0.189394 0.182938 0.153098
v -0.195925 0.115678 0.227837
v -0.205005 0.047353 0.331632
v -0.205616 0.024698 0.338536
v -0.209515 0.001936 0.383731
v -0.207712 -0.013177 0.362452
v 0.279560 -0.032515 0.158941
v 0.282069 -0.125682 0.129692
v 0.285535 -0.177093 0.088283
v 0.284979 -0.102724 0.096754
v 0.303409 -0.063585 -0.113514
v 0.308287 -0.086063 -0.170958
v 0.304660 -0.028941 -0.127024
v 0.275224 -0.085330 0.206091
v 0.302113 -0.322782 -0.102410
v 0.305397 -0.372349 -0.140627
v 0.304491 -0.306197 -0.129279
v 0.302113 -0.322782 -0.102410
v 0.278113 -0.372345 0.171249
v 0.305397 -0.372349 -0.140627
v 0.284894 -0.332611 0.094111
v 0.279588 -0.315780 0.155243
v 0.302624 -0.129303 -0.105264
v 0.298339 -0.182597 -0.057685
v 0.292234 -0.151286 0.012658
v 0.288345 0.557176 0.068369
v 0.298091 0.370534 -0.045975
v 0.297663 0.557199 -0.038196
v 0.287581 0.403296 0.074719
v 0.285423 0.287590 0.097597
v 0.292234 -0.151286 0.012658
v 0.313024 -0.437923 -0.228795
v 0.291987 -0.186334 0.014499
v 0.299291 -0.210417 -0.068459
v 0.302983 -0.273291 -0.111648
v 0.305756 -0.270286 -0.143463
v 0.302555 0.213777 -0.099410
v 0.291987 -0.186334 0.014499
v 0.280688 -0.280683 0.142943
v 0.278413 -0.260838 0.169326
v 0.308821 -0.275217 -0.178299
v 0.270331 -0.437917 0.259207
v 0.274761 -0.275995 0.211012
v 0.273361 -0.257309 0.227150
v 0.271268 0.043122 0.255898
v 0.273203 -0.132431 0.230542
v 0.281660 0.202435 0.139359
v 0.310544 -0.231506 -0.197728
v 0.313582 0.004954 -0.228493
v 0.310429 -0.106628 -0.194327
v 0.312590 0.071824 -0.215761
v 0.299380 -0.009974 -0.066517
v 0.302555 0.213777 -0.099410
v 0.299380 -0.009974 -0.066517
v 0.282172 -0.012916 0.130229
v 0.274916 0.115856 0.215175
v 0.230615 -0.033469 0.156282
v 0.236354 -0.183868 0.087263
v 0.235630 -0.155524 0.095519
v 0.229567 -0.096684 0.166078
v 0.239058 -0.128989 0.056783
v 0.255678 -0.027009 -0.131195
v 0.260034 -0.087877 -0.182477
v 0.256903 -0.099155 -0.146702
v 0.254471 -0.061416 -0.118317
v 0.252207 -0.326376 -0.096395
v 0.255963 -0.301038 -0.136172
v 0.256372 -0.372284 -0.144916
v 0.252207 -0.326376 -0.096395
v 0.256372 -0.372284 -0.144916
v 0.229088 -0.372280 0.166961
v 0.233836 -0.328896 0.113422
v 0.230563 -0.315715 0.150954
v 0.243735 -0.150129 0.003419
v 0.249521 -0.179941 -0.063019
v 0.238360 0.370598 0.072263
v 0.239277 0.557265 0.064522
v 0.248596 0.557240 -0.042043
v 0.248956 0.403359 -0.048424
v 0.250811 0.287652 -0.071326
v 0.263999 -0.437859 -0.233084
v 0.242183 -0.189814 0.020528
v 0.243735 -0.150129 0.003419
v 0.249521 -0.179941 -0.063019
v 0.246853 -0.209073 -0.033545
v 0.246853 -0.209073 -0.033545
v 0.250151 -0.208283 -0.071272
v 0.256266 -0.267130 -0.141824
v 0.233485 0.213844 0.125666
v 0.231657 -0.282740 0.139101
v 0.228895 -0.264652 0.170949
v 0.259796 -0.275152 -0.182588
v 0.221307 -0.437853 0.254918
v 0.225737 -0.275930 0.206723
v 0.224091 -0.249056 0.226409
v 0.222141 0.038754 0.252456
v 0.224664 -0.114791 0.221571
v 0.225974 -0.088655 0.206833
v 0.254350 0.202498 -0.113105
v 0.261132 -0.249017 -0.197324
v 0.264323 0.043180 -0.229676
v 0.261767 -0.114753 -0.202152
v 0.260867 0.115914 -0.188940
v 0.248744 -0.010691 -0.052262
v 0.254350 0.202498 -0.113105
v 0.248744 -0.010691 -0.052262
v 0.234080 -0.009553 0.115520
v 0.225555 0.110948 0.214627
v -0.199550 -0.384282 -0.032046
v -0.222410 -0.437890 -0.034047
v -0.222410 -0.372316 -0.034046
v -0.222410 -0.437890 -0.034047
v -0.199550 -0.384282 -0.032046
v -0.196245 -0.449856 -0.031757
v -0.201557 -0.372316 -0.272386
v -0.178635 -0.449851 -0.270380
v -0.175392 -0.384282 -0.270097
v -0.178635 -0.449851 -0.270380
v -0.201557 -0.372316 -0.272386
v -0.201557 -0.437890 -0.272386
v -0.222410 -0.372316 -0.034046
v -0.230988 -0.437890 0.064003
v -0.230989 -0.372316 0.064003
v -0.230988 -0.437890 0.064003
v -0.222410 -0.372316 -0.034046
v -0.222410 -0.437890 -0.034047
v -0.230989 -0.372316 0.064003
v -0.208129 -0.449856 0.066003
v -0.204824 -0.384282 0.066292
v -0.208129 -0.449856 0.066003
v -0.230989 -0.372316 0.064003
v -0.230988 -0.437890 0.064003
v -0.228289 -0.384283 0.296420
v -0.251148 -0.437891 0.294420
v -0.251148 -0.372317 0.294420
v -0.251148 -0.437891 0.294420
v -0.228289 -0.384283 0.296420
v -0.224983 -0.449857 0.296709
v -0.258844 -0.437891 0.382384
v -0.251148 -0.372317 0.294420
v -0.251148 -0.437891 0.294420
v -0.193029 -0.437852 -0.368314
v -0.176630 -0.382316 -0.369080
v -0.163690 -0.449582 -0.368357
v -0.193029 -0.437852 -0.368314
v -0.201557 -0.437890 -0.272386
v -0.201557 -0.372316 -0.272386
v -0.173385 -0.372316 -0.029757
v -0.196245 -0.449856 -0.031757
v -0.199550 -0.384282 -0.032046
v -0.196245 -0.449856 -0.031757
v -0.173385 -0.372316 -0.029757
v -0.173385 -0.437890 -0.029757
v -0.175392 -0.384282 -0.270097
v -0.152532 -0.437890 -0.268097
v -0.152532 -0.372316 -0.268097
v -0.152532 -0.437890 -0.268097
v -0.175392 -0.384282 -0.270097
v -0.178635 -0.449851 -0.270380
v -0.204824 -0.384282 0.066292
v -0.181964 -0.437890 0.068292
v -0.181964 -0.372316 0.068292
v -0.181964 -0.437890 0.068292
v -0.204824 -0.384282 0.066292
v -0.208129 -0.449856 0.066003
v -0.181964 -0.372316 0.068292
v -0.173385 -0.437890 -0.029757
v -0.173385 -0.372316 -0.029757
v -0.173385 -0.437890 -0.029757
v -0.181964 -0.372316 0.068292
v -0.181964 -0.437890 0.068292
v -0.202124 -0.372317 0.298709
v -0.224983 -0.449857 0.296709
v -0.228289 -0.384283 0.296420
v -0.224983 -0.449857 0.296709
v -0.202124 -0.372317 0.298709
v -0.202123 -0.437890 0.298709
v -0.209820 -0.437891 0.386674
v -0.202123 -0.437890 0.298709
v -0.202124 -0.372317 0.298709
v -0.163690 -0.449582 -0.368357
v -0.144819 -0.372316 -0.356259
v -0.143947 -0.438130 -0.366221
v -0.152532 -0.372316 -0.268097
v -0.143947 -0.438130 -0.366221
v -0.144819 -0.372316 -0.356259
v -0.143947 -0.438130 -0.366221
v -0.152532 -0.372316 -0.268097
v -0.152532 -0.437890 -0.268097
v 0.255237 -0.384280 0.169248
v 0.278113 -0.372345 0.171249
v 0.278027 -0.437918 0.171243
v 0.278027 -0.437918 0.171243
v 0.251846 -0.449850 0.168952
v 0.255237 -0.384280 0.169248
v 0.305397 -0.372349 -0.140627
v 0.279216 -0.384280 -0.142917
v 0.282436 -0.449858 -0.142635
v 0.282436 -0.449858 -0.142635
v 0.305311 -0.437922 -0.140633
v 0.305397 -0.372349 -0.140627
v 0.270331 -0.437917 0.259207
v 0.278027 -0.437918 0.171243
v 0.278113 -0.372345 0.171249
v 0.313024 -0.437923 -0.228795
v 0.305397 -0.372349 -0.140627
v 0.305311 -0.437922 -0.140633
v 0.229088 -0.372280 0.166961
v 0.255237 -0.384280 0.169248
v 0.251846 -0.449850 0.168952
v 0.251846 -0.449850 0.168952
v 0.229002 -0.437854 0.166954
v 0.229088 -0.372280 0.166961
v 0.279216 -0.384280 -0.142917
v 0.256372 -0.372284 -0.144916
v 0.256286 -0.437858 -0.144922
v 0.256286 -0.437858 -0.144922
v 0.282436 -0.449858 -0.142635
v 0.279216 -0.384280 -0.142917
v 0.221307 -0.437853 0.254918
v 0.229088 -0.372280 0.166961
v 0.229002 -0.437854 0.166954
v 0.263999 -0.437859 -0.233084
v 0.256286 -0.437858 -0.144922
v 0.256372 -0.372284 -0.144916
v 0.253279 0.006284 -0.103838
v 0.253381 0.084122 -0.103831
v 0.134939 0.080547 -0.114192
v 0.134939 0.080547 -0.114192
v 0.138413 -0.000138 -0.113887
v 0.253279 0.006284 -0.103838
v 0.253381 0.084122 -0.103831
v 0.257696 0.084122 -0.153153
v 0.139254 0.080546 -0.163515
v 0.139254 0.080546 -0.163515
v 0.134939 0.080547 -0.114192
v 0.253381 0.084122 -0.103831
v 0.257696 0.084122 -0.153153
v 0.257594 0.006284 -0.153161
v 0.142728 -0.000138 -0.163210
v 0.142728 -0.000138 -0.163210
v 0.139254 0.080546 -0.163515
v 0.257696 0.084122 -0.153153
v 0.257594 0.006284 -0.153161
v 0.253279 0.006284 -0.103838
v 0.138413 -0.000138 -0.113887
v 0.138413 -0.000138 -0.113887
v 0.142728 -0.000138 -0.163210
v 0.257594 0.006284 -0.153161
v 0.228877 0.006288 0.175086
v 0.228979 0.084126 0.175094
v 0.110537 0.080551 0.164732
v 0.110537 0.080551 0.164732
v 0.114012 -0.000134 0.165037
v 0.228877 0.006288 0.175086
v 0.228979 0.084126 0.175094
v 0.233294 0.084125 0.125771
v 0.114852 0.080550 0.115409
v 0.114852 0.080550 0.115409
v 0.110537 0.080551 0.164732
v 0.228979 0.084126 0.175094
v 0.233294 0.084125 0.125771
v 0.233192 0.006287 0.125763
v 0.118327 -0.000135 0.115714
v 0.118327 -0.000135 0.115714
v 0.114852 0.080550 0.115409
v 0.233294 0.084125 0.125771
v 0.233192 0.006287 0.125763
v 0.228877 0.006288 0.175086
v 0.114012 -0.000134 0.165037
v 0.114012 -0.000134 0.165037
v 0.118327 -0.000135 0.115714
v 0.233192 0.006287 0.125763
# 1168 vertices

vt 0.088578 1.714071
vt 0.209071 1.000500
vt 0.224168 1.714071
vt 0.088578 1.714071
vt 0.209071 1.000500
vt 0.224168 1.714071
vt 0.472216 1.714071
vt 0.619680 1.000500
vt 0.628415 1.714071
vt 0.432008 1.000500
vt 0.795728 1.076632
vt 0.898722 1.064904
vt 0.921553 1.076631
vt 0.781896 1.064904
vt 0.854582 1.076631
vt 0.769391 1.076632
vt 0.960611 1.531651
vt 0.891947 1.532448
vt 0.906103 1.522490
vt 0.928541 1.537586
vt 0.912317 1.537290
vt 0.087510 1.537289
vt 0.110387 1.536118
vt 0.100092 1.606420
vt 0.115834 1.531647
vt -0.171545 1.076632
vt 0.171629 1.076631
vt 0.190817 1.064904
vt -0.193699 1.064904
vt 0.215184 1.076631
vt -0.215141 1.076632
vt 0.820107 1.415798
vt 0.829870 1.431010
vt 0.788145 1.415018
vt 0.652980 1.441204
vt 0.649692 1.520275
vt 0.674906 1.520275
vt 0.677685 1.441204
vt 0.322315 1.441204
vt 0.325094 1.520275
vt 0.350308 1.520275
vt 0.347020 1.441204
vt -0.200210 1.999500
vt -0.033328 1.999500
vt 0.133240 1.999500
vt 0.250000 1.999500
vt 0.382788 1.999500
vt 0.799790 1.999500
vt 0.499671 1.999500
vt 0.632809 1.999500
vt 0.083618 1.000500
vt -0.049385 1.000500
vt -0.216292 1.000500
vt 0.366760 1.000500
vt 0.200406 1.000500
vt 0.533327 1.000499
vt -0.333498 1.000500
vt 0.224168 1.714071
vt 0.297149 1.000500
vt 0.297149 1.714071
vt 0.209071 1.000500
vt 0.702851 1.714071
vt 0.775832 1.000500
vt 0.790929 1.714071
vt 0.702851 1.000500
vt 0.911422 1.000500
vt 0.224168 1.714071
vt 0.297149 1.000500
vt 0.297149 1.714071
vt 0.209071 1.000500
vt 0.702851 1.714071
vt 0.775832 1.000500
vt 0.790930 1.714071
vt 0.702851 1.000500
vt 0.911422 1.000500
vt 0.628415 1.714071
vt 0.719718 1.000500
vt 0.717450 1.714071
vt 0.619680 1.000500
vt 0.282550 1.714071
vt 0.280282 1.000500
vt 0.356965 1.714071
vt 0.399955 1.000500
vt 0.472204 1.714071
vt 0.500087 1.999500
vt 0.919359 1.714071
vt 0.922248 1.999500
vt 0.499927 1.714071
vt 0.070871 1.999500
vt 0.499913 1.714072
vt 0.500073 1.999500
vt 0.077752 1.714071
vt 0.922248 1.999500
vt 0.999500 1.714072
vt 0.997442 1.999500
vt 0.919359 1.714072
vt 0.002558 1.999500
vt 0.000500 1.714072
vt 0.070871 1.999500
vt 0.077752 1.714072
vt 0.089944 1.076631
vt 0.216348 1.064904
vt 0.204302 1.076631
vt 0.118582 1.064904
vt 0.214722 1.012366
vt 0.221782 1.443240
vt 0.214242 1.446955
vt 0.222175 1.002566
vt 0.219308 1.480554
vt 0.208837 1.487927
vt 0.189426 1.557212
vt 0.201172 1.567698
vt 0.195369 1.609891
vt 0.159763 1.628833
vt 0.182100 1.653057
vt 0.167887 1.701775
vt 0.123663 1.723401
vt 0.137061 1.776680
vt 0.098251 1.836802
vt 0.122463 1.890802
vt 0.089908 1.987610
vt 0.132948 1.999500
vt 0.909491 1.987634
vt 0.877122 1.889430
vt 0.906527 1.885498
vt 0.867052 1.999500
vt 0.862199 1.775190
vt 0.880850 1.733020
vt 0.832113 1.701775
vt 0.817900 1.653057
vt 0.836832 1.620806
vt 0.804630 1.609891
vt 0.798860 1.567013
vt 0.809694 1.554887
vt 0.780663 1.480323
vt 0.788142 1.469452
vt 0.778060 1.442533
vt 0.785435 1.437295
vt 0.777825 1.066831
vt 0.784524 1.012403
vt 0.228753 1.442533
vt 0.228832 1.002566
vt 0.226663 1.480323
vt 0.212649 1.567014
vt 0.158380 1.775190
vt 0.144448 1.889427
vt 0.855392 1.890807
vt 0.841573 1.776679
vt 0.787695 1.567697
vt 0.773356 1.480554
vt 0.771134 1.443240
vt 0.772551 1.000907
vt 0.230622 1.076631
vt 0.157880 1.076631
vt 0.235083 1.443416
vt 0.235180 1.012366
vt 0.232621 1.487927
vt 0.224261 1.554888
vt 0.210766 1.620806
vt 0.183211 1.733020
vt 0.161382 1.885494
vt 0.158451 1.987634
vt 0.842145 1.987611
vt 0.834094 1.836801
vt 0.813481 1.723402
vt 0.791069 1.628834
vt 0.776150 1.557211
vt 0.766193 1.471825
vt 0.764928 1.440647
vt 0.764820 1.076632
vt 0.068535 1.428605
vt 0.126296 1.457717
vt 0.101910 1.465724
vt 0.098323 1.424413
vt 0.157505 1.477788
vt 0.140129 1.487757
vt 0.204990 1.486842
vt 0.216766 1.457361
vt 0.209972 1.463312
vt 0.212958 1.477644
vt 0.218726 1.423874
vt 0.212451 1.424962
vt 0.212356 1.193057
vt 0.216729 1.163943
vt 0.209682 1.155938
vt 0.218724 1.197247
vt 0.212875 1.143872
vt 0.204436 1.133902
vt 0.137210 1.134820
vt 0.125873 1.164300
vt 0.098870 1.158348
vt 0.157142 1.144017
vt 0.098062 1.197786
vt 0.067064 1.196698
vt 0.147503 1.457361
vt 0.119432 1.423874
vt 0.175981 1.477644
vt 0.224589 1.457718
vt 0.221588 1.477788
vt 0.226096 1.424413
vt 0.224617 1.164300
vt 0.226118 1.197786
vt 0.221627 1.144017
vt 0.147909 1.163943
vt 0.176356 1.143872
vt 0.119634 1.197247
vt 0.166462 1.463312
vt 0.131209 1.424962
vt 0.195657 1.486840
vt 0.232987 1.465724
vt 0.230675 1.487759
vt 0.234148 1.428605
vt 0.233113 1.158350
vt 0.234188 1.196699
vt 0.230920 1.134820
vt 0.169202 1.155936
vt 0.197501 1.133903
vt 0.133154 1.193056
vt 0.931466 1.193056
vt 0.873704 1.163943
vt 0.898090 1.155936
vt 0.901678 1.197247
vt 0.842495 1.143872
vt 0.859871 1.133903
vt 0.795007 1.134822
vt 0.783234 1.164300
vt 0.790027 1.158350
vt 0.787042 1.144017
vt 0.781274 1.197787
vt 0.787548 1.196699
vt 0.787646 1.428604
vt 0.783271 1.457717
vt 0.790319 1.465724
vt 0.781276 1.424413
vt 0.787125 1.477788
vt 0.795564 1.487757
vt 0.862791 1.486841
vt 0.874127 1.457361
vt 0.901132 1.463312
vt 0.842858 1.477644
vt 0.901938 1.423874
vt 0.932938 1.424962
vt 0.852497 1.164300
vt 0.880569 1.197786
vt 0.824019 1.144017
vt 0.775411 1.163943
vt 0.778412 1.143873
vt 0.773904 1.197248
vt 0.775383 1.457361
vt 0.773882 1.423874
vt 0.778373 1.477644
vt 0.852091 1.457717
vt 0.823645 1.477788
vt 0.880366 1.424413
vt 0.843157 1.165759
vt 0.804343 1.134820
vt 0.767014 1.155938
vt 0.769328 1.133905
vt 0.765853 1.193056
vt 0.766886 1.463312
vt 0.765810 1.424962
vt 0.769081 1.486840
vt 0.830798 1.465724
vt 0.802498 1.487758
vt 0.866845 1.428605
vt 0.906103 1.522490
vt 0.819006 1.535437
vt 0.828312 1.527980
vt 0.891947 1.532448
vt 0.821551 1.552030
vt 0.836043 1.575501
vt 0.846282 1.615580
vt 0.895892 1.667993
vt 0.905802 1.676968
vt 0.918887 1.671695
vt 0.940083 1.683630
vt 0.960432 1.652456
vt 0.938681 1.606419
vt 0.960611 1.531651
vt 0.928541 1.537586
vt 0.829609 1.530901
vt 0.804146 1.536245
vt 0.805837 1.551696
vt 0.826407 1.614801
vt 0.873583 1.668011
vt 0.902557 1.671113
vt 0.919821 1.603977
vt 0.912317 1.537290
vt 0.907269 1.527078
vt 0.790799 1.522621
vt 0.784716 1.531433
vt 0.786746 1.560041
vt 0.831245 1.673613
vt 0.888604 1.683131
vt 0.922947 1.606194
vt 0.055046 1.650531
vt 0.081677 1.603982
vt 0.097046 1.671113
vt 0.075381 1.683630
vt 0.117409 1.668011
vt 0.112843 1.673615
vt 0.161090 1.614800
vt 0.172203 1.560041
vt 0.185974 1.537552
vt 0.175783 1.531433
vt 0.165307 1.522621
vt 0.157936 1.530901
vt 0.059328 1.527071
vt 0.087510 1.537289
vt 0.100092 1.606420
vt 0.119355 1.671695
vt 0.138753 1.667993
vt 0.179237 1.615581
vt 0.197905 1.552031
vt 0.198234 1.535437
vt 0.175037 1.531596
vt 0.110387 1.536118
vt 0.115834 1.531647
vt 0.116227 1.652455
vt 0.141793 1.683630
vt 0.173056 1.676969
vt 0.213646 1.575500
vt 0.216955 1.527980
vt 0.172839 1.522490
vt 0.197399 1.012366
vt 0.196711 1.483808
vt 0.213777 1.448126
vt 0.213839 1.000499
vt 0.207304 1.497939
vt 0.186883 1.555092
vt 0.206601 1.559737
vt 0.155543 1.639945
vt 0.176009 1.643936
vt 0.123666 1.723401
vt 0.167887 1.701775
vt 0.137061 1.776679
vt 0.098252 1.836799
vt 0.135337 1.890361
vt 0.089908 1.987610
vt 0.132948 1.999501
vt 0.909491 1.987634
vt 0.899448 1.804692
vt 0.864527 1.890364
vt 0.867052 1.999501
vt 0.862199 1.775190
vt 0.850347 1.651063
vt 0.832113 1.701775
vt 0.824509 1.643122
vt 0.805350 1.511944
vt 0.793449 1.559738
vt 0.792656 1.497026
vt 0.802653 1.446408
vt 0.786186 1.448129
vt 0.802601 1.012366
vt 0.786161 1.000499
vt 0.217458 1.497026
vt 0.192363 1.643122
vt 0.158380 1.775190
vt 0.841573 1.776679
vt 0.808525 1.643936
vt 0.782593 1.497940
vt 0.227300 1.479465
vt 0.227524 1.012366
vt 0.223149 1.550218
vt 0.203238 1.651063
vt 0.167987 1.804691
vt 0.158451 1.987634
vt 0.842145 1.987611
vt 0.834094 1.836800
vt 0.813483 1.723401
vt 0.793387 1.639946
vt 0.777344 1.555090
vt 0.772778 1.483808
vt 0.772476 1.012366
vt 0.120304 1.115573
vt -0.151563 1.125209
vt -0.165173 1.134416
vt -0.016968 1.127847
vt 0.848437 1.125209
vt 0.833571 1.141464
vt 0.824649 1.146863
vt 0.834827 1.134416
vt 0.842820 1.173713
vt 0.862153 1.201188
vt 0.998619 1.258933
vt -0.001381 1.258933
vt 0.007152 1.246093
vt -0.137847 1.201188
vt 0.157680 1.166465
vt 0.136058 1.196766
vt 0.170703 1.152779
vt 0.164241 1.132068
vt 0.172714 1.134424
vt 0.983032 1.127847
vt 0.817059 1.134070
vt 0.810157 1.148766
vt 0.844769 1.202327
vt 0.994610 1.246167
vt -0.005390 1.246167
vt 0.161504 1.194783
vt 0.189327 1.139998
vt -0.200220 1.121623
vt 0.198050 1.119151
vt 0.799780 1.121623
vt 0.787118 1.146456
vt 0.855426 1.236585
vt 0.042842 1.255459
vt -0.144574 1.236585
vt 0.207916 1.164386
vt 0.211350 1.132068
vt -0.123138 1.431776
vt 0.149844 1.428890
vt 0.163727 1.419541
vt 0.010342 1.422432
vt 0.166111 1.409682
vt 0.174426 1.407760
vt 0.122888 1.340874
vt 0.137918 1.351638
vt -0.004893 1.293282
vt -0.003097 1.303936
vt 0.995107 1.293282
vt 0.841732 1.379235
vt 0.831413 1.383866
vt 0.996903 1.303936
vt 0.834647 1.413188
vt 0.826174 1.411293
vt 0.181695 1.419876
vt 0.189086 1.405868
vt 0.155346 1.350370
vt 0.010703 1.304026
vt -0.161554 1.352500
vt 0.838446 1.352500
vt 0.809842 1.405649
vt 0.198998 1.432123
vt -0.170130 1.431010
vt 0.212554 1.408683
vt 0.146866 1.315070
vt -0.033980 1.294353
vt 0.791742 1.381297
vt 0.966020 1.294353
vt 0.788145 1.415018
vt 0.809590 1.214665
vt 0.810475 1.337052
vt 0.801271 1.332133
vt 0.795103 1.266297
vt 0.817150 1.357206
vt 0.798242 1.342138
vt 0.813635 1.333778
vt 0.846634 1.314828
vt 0.885909 1.262597
vt 0.856623 1.261501
vt 0.875019 1.235332
vt 0.840391 1.243248
vt 0.827242 1.176658
vt 0.817940 1.210115
vt 0.802381 1.185480
vt 0.814979 1.171826
vt 0.798784 1.184124
vt 0.789420 1.331895
vt 0.799271 1.334276
vt 0.836882 1.261905
vt 0.775716 1.329026
vt 0.776277 1.197440
vt 0.778242 1.355365
vt 0.784483 1.344312
vt 0.819898 1.265136
vt 0.813555 1.237359
vt 0.785564 1.179687
vt 0.778229 1.171826
vt 0.191007 1.311758
vt 0.190134 1.189371
vt 0.199286 1.194290
vt 0.205388 1.260128
vt 0.185694 1.171059
vt 0.202317 1.184286
vt 0.170811 1.185913
vt 0.187199 1.192646
vt 0.114288 1.267989
vt 0.145510 1.264923
vt 0.161409 1.283176
vt 0.149497 1.318374
vt 0.183132 1.316310
vt 0.184369 1.357919
vt 0.198274 1.340944
vt 0.201787 1.342300
vt 0.211019 1.194529
vt 0.201398 1.192148
vt 0.165056 1.264519
vt 0.224566 1.197396
vt 0.224010 1.328983
vt 0.222091 1.171059
vt 0.216010 1.182113
vt 0.182024 1.261286
vt 0.188041 1.289065
vt 0.214948 1.346730
vt 0.222104 1.354598
vt 0.880569 1.197786
vt 0.870811 1.205051
vt 0.843157 1.165759
vt 0.891947 1.532448
vt 0.912317 1.537290
vt 0.829609 1.530901
vt 0.907269 1.527078
vt 0.059328 1.527071
vt 0.081677 1.603982
vt 0.055046 1.650531
vt 0.087510 1.537289
vt 0.100092 1.606420
vt 0.120304 1.115573
vt -0.016968 1.127847
vt 0.172714 1.134424
vt 0.164241 1.132068
vt 0.178563 1.130603
vt 0.189327 1.139998
vt 0.198050 1.119151
vt 0.211350 1.132068
vt -0.123138 1.431776
vt 0.010342 1.422432
vt -0.173826 1.411293
vt 0.834647 1.413188
vt 0.876862 1.431776
vt 0.826174 1.411293
vt -0.179893 1.415798
vt 0.820107 1.415798
vt 0.809842 1.405649
vt -0.170130 1.431010
vt 0.788145 1.415018
vt 0.809590 1.214665
vt 0.795103 1.266297
vt 0.797061 1.197242
vt 0.814979 1.171826
vt 0.798784 1.184124
vt 0.776277 1.197440
vt 0.778229 1.171826
vt 0.191007 1.311758
vt 0.205388 1.260128
vt 0.203470 1.329182
vt 0.184369 1.357919
vt 0.201787 1.342300
vt 0.224010 1.328983
vt 0.222104 1.354598
vt 0.790929 1.714071
vt 0.911422 1.000500
vt 0.926520 1.714071
vt 0.999500 1.000500
vt 0.999500 1.714071
vt 0.000500 1.714071
vt 0.073481 1.000500
vt 0.088578 1.714071
vt 0.000500 1.000500
vt 0.209071 1.000500
vt 0.790930 1.714071
vt 0.911422 1.000500
vt 0.926519 1.714071
vt 0.999500 1.000500
vt 0.999500 1.714072
vt 0.000500 1.714072
vt 0.073480 1.000500
vt 0.088578 1.714071
vt 0.000500 1.000500
vt 0.209071 1.000500
vt 0.472204 1.714071
vt 0.573806 1.000500
vt 0.582273 1.714071
vt 0.399955 1.000500
vt 0.684157 1.000500
vt 0.668434 1.714071
vt 0.198153 1.714071
vt 0.238747 1.000500
vt 0.511925 1.714071
vt 0.563809 1.000500
vt 0.282563 1.714071
vt 0.331567 1.000500
vt 0.356978 1.714071
vt 0.801849 1.000500
vt 0.432008 1.000500
vt 0.472216 1.714071
vt 0.922248 1.999500
vt 0.999500 1.714071
vt 0.997442 1.999500
vt 0.919359 1.714071
vt 0.002558 1.999500
vt 0.000500 1.714071
vt 0.070871 1.999500
vt 0.077752 1.714071
vt 0.500073 1.999500
vt 0.919359 1.714072
vt 0.922248 1.999500
vt 0.499913 1.714072
vt 0.070871 1.999500
vt 0.499927 1.714071
vt 0.500087 1.999500
vt 0.077752 1.714072
vt -0.078447 1.012366
vt 0.114165 1.000639
vt 0.089944 1.012366
vt -0.105559 1.000639
vt 0.204302 1.012366
vt 0.222175 1.002566
vt 0.214722 1.012366
vt 0.218126 1.000639
vt 0.089908 1.987610
vt -0.132948 1.999500
vt -0.090509 1.987634
vt 0.132948 1.999500
vt 0.784524 1.012403
vt 0.783642 1.000643
vt 0.795728 1.012366
vt 0.772551 1.000907
vt 0.228832 1.002566
vt 0.157880 1.012366
vt -0.145418 1.012366
vt 0.235180 1.012366
vt 0.230622 1.012366
vt -0.157855 1.987611
vt 0.158451 1.987634
vt 0.769391 1.012366
vt 0.764435 1.012130
vt 0.140129 1.487757
vt 0.212958 1.477644
vt 0.204990 1.486842
vt 0.157505 1.477788
vt 0.212451 1.424962
vt 0.218724 1.197247
vt 0.212356 1.193057
vt 0.218726 1.423874
vt 0.204436 1.133902
vt 0.157142 1.144017
vt 0.137210 1.134820
vt 0.212875 1.143872
vt 0.067064 1.196698
vt 0.098323 1.424413
vt 0.068535 1.428605
vt 0.098062 1.197786
vt 0.221588 1.477788
vt 0.175981 1.477644
vt 0.226118 1.197786
vt 0.226096 1.424413
vt 0.176356 1.143872
vt 0.221627 1.144017
vt 0.119432 1.423874
vt 0.119634 1.197247
vt 0.230675 1.487759
vt 0.195657 1.486840
vt 0.234188 1.196699
vt 0.234148 1.428605
vt 0.197501 1.133903
vt 0.230920 1.134820
vt 0.131209 1.424962
vt 0.133154 1.193056
vt 0.859871 1.133903
vt 0.787042 1.144017
vt 0.795007 1.134822
vt 0.842495 1.143872
vt 0.787548 1.196699
vt 0.781276 1.424413
vt 0.787646 1.428604
vt 0.781274 1.197787
vt 0.795564 1.487757
vt 0.842858 1.477644
vt 0.862791 1.486841
vt 0.787125 1.477788
vt 0.932938 1.424962
vt 0.901678 1.197247
vt 0.931466 1.193056
vt 0.901938 1.423874
vt 0.778412 1.143873
vt 0.824019 1.144017
vt 0.773882 1.423874
vt 0.773904 1.197248
vt 0.823645 1.477788
vt 0.778373 1.477644
vt 0.880569 1.197786
vt 0.880366 1.424413
vt 0.769328 1.133905
vt 0.804343 1.134820
vt 0.765810 1.424962
vt 0.765853 1.193056
vt 0.802498 1.487758
vt 0.769081 1.486840
vt 0.870811 1.205051
vt 0.866845 1.428605
vt 0.171629 1.012366
vt 0.197399 1.012366
vt 0.213839 1.000499
vt 0.193764 1.000639
vt 0.089908 1.987610
vt -0.090509 1.987634
vt -0.132948 1.999501
vt 0.132948 1.999501
vt 0.802601 1.012366
vt 0.828455 1.012366
vt 0.809251 1.000639
vt 0.786161 1.000499
vt 0.227524 1.012366
vt 0.215184 1.012366
vt -0.157855 1.987611
vt 0.158451 1.987634
vt 0.784859 1.012366
vt 0.772476 1.012366
vt 0.799790 1.999500
vt 0.783708 1.000500
vt 0.950615 1.000500
vt 0.966672 1.999500
vt -0.033328 1.999500
vt -0.049385 1.000500
vt 0.083618 1.000500
vt 0.133240 1.999500
vt 0.200406 1.000500
vt 0.250000 1.999500
vt 0.366760 1.000500
vt 0.382788 1.999500
vt 0.533327 1.000499
vt 0.499671 1.999500
vt 0.632809 1.999500
vt 0.666502 1.000500
vt 0.188450 1.209071
vt 0.211452 1.073480
vt 0.508452 1.000500
vt 0.811551 1.088579
vt 0.788548 1.224168
vt 0.491547 1.297149
vt 0.188450 1.911422
vt 0.211452 1.775832
vt 0.508454 1.702851
vt 0.811550 1.790930
vt 0.788550 1.926519
vt 0.491547 1.999500
vt 0.875965 1.356965
vt 0.991363 1.472204
vt 0.960208 1.582273
vt 0.801847 1.668434
vt 0.488075 1.717437
vt 0.511925 1.282550
vt 0.083056 1.371585
vt 0.008637 1.527784
vt 0.124035 1.643022
vt 0.788548 1.224168
vt 0.508454 1.000500
vt 0.811551 1.088578
vt 0.211451 1.073481
vt 0.188450 1.209071
vt 0.491546 1.297149
vt 0.788548 1.926520
vt 0.508453 1.702851
vt 0.811550 1.790929
vt 0.211450 1.775832
vt 0.188450 1.911422
vt 0.491546 1.999500
vt 0.042707 1.399955
vt 0.238747 1.684157
vt 0.032015 1.573806
vt 0.563809 1.711907
vt 0.473545 1.280282
vt 0.930838 1.380320
vt 0.977062 1.567992
vt 0.801849 1.668433
vt 0.203326 1.077752
vt 0.482391 1.002558
vt 0.790517 1.070871
vt 0.999500 1.500073
vt 0.000499 1.499913
vt 0.796674 1.922248
vt 0.209483 1.929129
vt 0.517609 1.997442
vt 0.798589 1.080641
vt 0.203326 1.077752
vt 0.508451 1.000500
vt 0.000500 1.499913
vt 0.999501 1.500073
vt 0.201411 1.919359
vt 0.796674 1.922248
vt 0.491550 1.999500
vt 0.204436 1.133902
vt -0.204272 1.076632
vt -0.078447 1.076631
vt 0.137210 1.134820
vt -0.140129 1.133903
vt 0.089944 1.076631
vt 0.204302 1.076631
vt 0.795728 1.076632
vt 0.859871 1.133903
vt 0.795007 1.134822
vt 0.828312 1.527980
vt 0.795564 1.487757
vt 0.862791 1.486841
vt -0.101910 1.155936
vt 0.098870 1.158348
vt -0.068534 1.193056
vt 0.067064 1.196698
vt 0.075381 1.683630
vt -0.059917 1.683630
vt -0.039568 1.652456
vt 0.055046 1.650531
vt -0.039389 1.531651
vt -0.067062 1.424962
vt 0.068535 1.428605
vt 0.089908 1.987610
vt -0.090509 1.987634
vt -0.093473 1.885498
vt 0.906103 1.522490
vt 0.059328 1.527071
vt 0.784524 1.012403
vt 0.790027 1.158350
vt 0.098251 1.836802
vt 0.214722 1.012366
vt 0.209682 1.155938
vt -0.119150 1.733020
vt 0.123663 1.723401
vt 0.901132 1.463312
vt 0.787548 1.196699
vt 0.212356 1.193057
vt 0.960611 1.531651
vt -0.098868 1.463312
vt 0.101910 1.465724
vt 0.140129 1.487757
vt 0.165307 1.522621
vt 0.204990 1.486842
vt 0.175783 1.531433
vt 0.836043 1.575501
vt 0.172203 1.560041
vt 0.785435 1.437295
vt 0.787646 1.428604
vt 0.788142 1.469452
vt 0.790319 1.465724
vt 0.809694 1.554887
vt 0.836832 1.620806
vt 0.880850 1.733020
vt 0.905802 1.676968
vt 0.940083 1.683630
vt 0.112843 1.673615
vt 0.159763 1.628833
vt 0.189426 1.557212
vt 0.208837 1.487927
vt 0.209972 1.463312
vt 0.214242 1.446955
vt 0.212451 1.424962
vt 0.230920 1.134820
vt -0.145418 1.076631
vt -0.230609 1.076632
vt 0.197501 1.133903
vt -0.195657 1.134820
vt 0.157880 1.076631
vt 0.230622 1.076631
vt 0.769391 1.076632
vt 0.769328 1.133905
vt 0.804343 1.134820
vt 0.784716 1.531433
vt 0.802498 1.487758
vt 0.769081 1.486840
vt -0.156843 1.165759
vt 0.169202 1.155936
vt 0.790799 1.522621
vt 0.133154 1.193056
vt 0.116227 1.652455
vt -0.111396 1.683131
vt 0.141793 1.683630
vt -0.129189 1.205051
vt -0.077053 1.606194
vt 0.115834 1.531647
vt -0.133155 1.428605
vt 0.131209 1.424962
vt 0.161382 1.885494
vt -0.157855 1.987611
vt 0.158451 1.987634
vt -0.092731 1.527078
vt 0.764820 1.076632
vt 0.767014 1.155938
vt -0.165906 1.836801
vt 0.235180 1.012366
vt 0.233113 1.158350
vt 0.183211 1.733020
vt 0.907269 1.527078
vt -0.186519 1.723402
vt 0.830798 1.465724
vt 0.765853 1.193056
vt 0.234188 1.196699
vt -0.169202 1.465724
vt 0.166462 1.463312
vt 0.172839 1.522490
vt 0.195657 1.486840
vt 0.216955 1.527980
vt 0.230675 1.487759
vt 0.786746 1.560041
vt 0.213646 1.575500
vt 0.764928 1.440647
vt 0.765810 1.424962
vt 0.766193 1.471825
vt 0.766886 1.463312
vt 0.776150 1.557211
vt 0.791069 1.628834
vt 0.831245 1.673613
vt 0.813481 1.723402
vt 0.888604 1.683131
vt 0.173056 1.676969
vt 0.210766 1.620806
vt 0.224261 1.554888
vt 0.232621 1.487927
vt 0.232987 1.465724
vt 0.235083 1.443416
vt 0.234148 1.428605
vt 0.166111 1.409682
vt 0.149497 1.318374
vt 0.114288 1.267989
vt 0.122888 1.340874
vt 0.841732 1.379235
vt 0.817150 1.357206
vt 0.834647 1.413188
vt 0.184369 1.357919
vt 0.848437 1.125209
vt 0.828455 1.076632
vt 0.833571 1.141464
vt -0.151563 1.125209
vt 0.171629 1.076631
vt -0.171545 1.076632
vt 0.120304 1.115573
vt 0.164241 1.132068
vt 0.846634 1.314828
vt 0.885909 1.262597
vt 0.995107 1.293282
vt 0.089908 1.987610
vt -0.100552 1.804692
vt -0.090509 1.987634
vt 0.098252 1.836799
vt 0.123666 1.723401
vt -0.004893 1.293282
vt 0.802601 1.012366
vt 0.998619 1.258933
vt 0.875019 1.235332
vt 0.842820 1.173713
vt 0.827242 1.176658
vt -0.149653 1.651063
vt -0.001381 1.258933
vt 0.157680 1.166465
vt 0.170811 1.185913
vt 0.814979 1.171826
vt 0.197399 1.012366
vt 0.185694 1.171059
vt 0.190134 1.189371
vt 0.196711 1.483808
vt 0.191007 1.311758
vt 0.155543 1.639945
vt 0.809590 1.214665
vt 0.802653 1.446408
vt 0.810475 1.337052
vt 0.805350 1.511944
vt 0.876862 1.431776
vt 0.850347 1.651063
vt -0.123138 1.431776
vt 0.149844 1.428890
vt 0.186883 1.555092
vt 0.212554 1.408683
vt 0.182024 1.261286
vt 0.188041 1.289065
vt 0.214948 1.346730
vt 0.146866 1.315070
vt 0.788145 1.415018
vt 0.778242 1.355365
vt 0.784483 1.344312
vt 0.791742 1.381297
vt 0.799780 1.121623
vt 0.787118 1.146456
vt 0.784859 1.076632
vt -0.200220 1.121623
vt -0.215141 1.076632
vt 0.215184 1.076631
vt 0.198050 1.119151
vt 0.211350 1.132068
vt 0.966020 1.294353
vt 0.819898 1.265136
vt 0.167987 1.804691
vt 0.158451 1.987634
vt -0.157855 1.987611
vt -0.165906 1.836800
vt -0.186517 1.723401
vt 0.772476 1.012366
vt 0.042842 1.255459
vt -0.033980 1.294353
vt -0.180102 1.265136
vt -0.144574 1.236585
vt 0.855426 1.236585
vt 0.813555 1.237359
vt 0.785564 1.179687
vt 0.203238 1.651063
vt 0.207916 1.164386
vt 0.216010 1.182113
vt 0.778229 1.171826
vt 0.227524 1.012366
vt 0.222091 1.171059
vt 0.224566 1.197396
vt 0.227300 1.479465
vt 0.224010 1.328983
vt 0.222104 1.354598
vt -0.206613 1.639946
vt 0.776277 1.197440
vt 0.772778 1.483808
vt 0.775716 1.329026
vt 0.777344 1.555090
vt 0.829870 1.431010
vt 0.793387 1.639946
vt -0.170130 1.431010
vt 0.198998 1.432123
vt 0.223149 1.550218
vt 0.898722 1.064904
vt 0.921553 1.012366
vt 0.921553 1.076631
vt 0.921553 1.012366
vt 0.898722 1.064904
vt 0.894441 1.000639
vt 0.795728 1.076632
vt 0.783642 1.000643
vt 0.781896 1.064904
vt 0.783642 1.000643
vt 0.795728 1.076632
vt 0.795728 1.012366
vt -0.078447 1.076631
vt 0.089944 1.012366
vt 0.089944 1.076631
vt 0.089944 1.012366
vt -0.078447 1.076631
vt -0.078447 1.012366
vt 0.089944 1.076631
vt 0.114165 1.000639
vt 0.118582 1.064904
vt 0.114165 1.000639
vt 0.089944 1.076631
vt 0.089944 1.012366
vt 0.216348 1.064904
vt 0.204302 1.012366
vt 0.204302 1.076631
vt 0.204302 1.012366
vt 0.216348 1.064904
vt 0.218126 1.000639
vt 0.214722 1.012366
vt 0.204302 1.076631
vt 0.204302 1.012366
vt 0.784524 1.012403
vt 0.777825 1.066831
vt 0.772551 1.000907
vt 0.784524 1.012403
vt 0.795728 1.012366
vt 0.795728 1.076632
vt 0.854582 1.076631
vt 0.894441 1.000639
vt 0.898722 1.064904
vt 0.894441 1.000639
vt 0.854582 1.076631
vt 0.854582 1.012366
vt 0.781896 1.064904
vt 0.769391 1.012366
vt 0.769391 1.076632
vt 0.769391 1.012366
vt 0.781896 1.064904
vt 0.783642 1.000643
vt 0.118582 1.064904
vt 0.157880 1.012366
vt 0.157880 1.076631
vt 0.157880 1.012366
vt 0.118582 1.064904
vt 0.114165 1.000639
vt 0.157880 1.076631
vt -0.145418 1.012366
vt -0.145418 1.076631
vt -0.145418 1.012366
vt 0.157880 1.076631
vt 0.157880 1.012366
vt 0.230622 1.076631
vt 0.218126 1.000639
vt 0.216348 1.064904
vt 0.218126 1.000639
vt 0.230622 1.076631
vt 0.230622 1.012366
vt 0.235180 1.012366
vt 0.230622 1.012366
vt 0.230622 1.076631
vt 0.772551 1.000907
vt 0.764820 1.076632
vt 0.764435 1.012130
vt 0.769391 1.076632
vt 0.764435 1.012130
vt 0.764820 1.076632
vt 0.764435 1.012130
vt 0.769391 1.076632
vt 0.769391 1.012366
vt 0.190817 1.064904
vt 0.171629 1.076631
vt 0.171629 1.012366
vt 0.171629 1.012366
vt 0.193764 1.000639
vt 0.190817 1.064904
vt 0.828455 1.076632
vt 0.806301 1.064904
vt 0.809251 1.000639
vt 0.809251 1.000639
vt 0.828455 1.012366
vt 0.828455 1.076632
vt 0.197399 1.012366
vt 0.171629 1.012366
vt 0.171629 1.076631
vt 0.802601 1.012366
vt 0.828455 1.076632
vt 0.828455 1.012366
vt 0.215184 1.076631
vt 0.190817 1.064904
vt 0.193764 1.000639
vt 0.193764 1.000639
vt 0.215184 1.012366
vt 0.215184 1.076631
vt 0.806301 1.064904
vt 0.784859 1.076632
vt 0.784859 1.012366
vt 0.784859 1.012366
vt 0.809251 1.000639
vt 0.806301 1.064904
vt 0.227524 1.012366
vt 0.215184 1.076631
vt 0.215184 1.012366
vt 0.772476 1.012366
vt 0.784859 1.012366
vt 0.784859 1.076632
vt 0.796703 1.447647
vt 0.796703 1.523932
vt 0.649692 1.520275
vt 0.649692 1.520275
vt 0.652980 1.441204
vt 0.796703 1.447647
vt 0.796703 1.523932
vt 0.783151 1.523932
vt 0.674906 1.520275
vt 0.674906 1.520275
vt 0.649692 1.520275
vt 0.796703 1.523932
vt 0.783151 1.523932
vt 0.783151 1.447647
vt 0.677685 1.441204
vt 0.677685 1.441204
vt 0.674906 1.520275
vt 0.783151 1.523932
vt 0.783151 1.447647
vt 0.796703 1.447647
vt 0.652980 1.441204
vt 0.652980 1.441204
vt 0.677685 1.441204
vt 0.783151 1.447647
vt 0.216849 1.447647
vt 0.216849 1.523932
vt 0.325094 1.520275
vt 0.325094 1.520275
vt 0.322315 1.441204
vt 0.216849 1.447647
vt 0.216849 1.523932
vt 0.203297 1.523932
vt 0.350308 1.520275
vt 0.350308 1.520275
vt 0.325094 1.520275
vt 0.216849 1.523932
vt 0.203297 1.523932
vt 0.203297 1.447647
vt 0.347020 1.441204
vt 0.347020 1.441204
vt 0.350308 1.520275
vt 0.203297 1.523932
vt 0.203297 1.447647
vt 0.216849 1.447647
vt 0.322315 1.441204
vt 0.322315 1.441204
vt 0.347020 1.441204
vt 0.203297 1.447647
# 1168 texture vertices

g Material_43
f 1/1 2/2 3/3
f 4/4 5/5 6/6
f 7/7 8/8 9/9
f 7/7 10/10 8/8
f 11/11 12/12 13/13
f 11/11 14/14 12/12
f 14/14 15/15 12/12
f 14/14 16/16 15/15
f 17/17 18/18 19/19
f 17/17 20/20 18/18
f 20/20 21/21 18/18
f 22/22 23/23 24/24
f 23/23 25/25 24/24
f 26/26 27/27 28/28
f 26/26 28/28 29/29
f 29/29 28/28 30/30
f 29/29 30/30 31/31
f 32/32 33/33 34/34
f 35/35 36/36 37/37
f 35/35 37/37 38/38
f 39/39 40/40 41/41
f 39/39 41/41 42/42
f 43/43 44/44 45/45
f 43/43 45/45 46/46
f 43/43 46/46 47/47
f 48/48 47/47 49/49
f 48/48 49/49 50/50
f 51/51 52/52 53/53
f 51/51 54/54 55/55
f 51/51 56/56 54/54
f 51/51 57/57 56/56
f 51/51 53/53 57/57
f 58/58 59/59 60/60
f 58/58 61/61 59/59
f 62/62 63/63 64/64
f 62/62 65/65 63/63
f 64/64 63/63 66/66
f 67/67 68/68 69/69
f 67/67 70/70 68/68
f 71/71 72/72 73/73
f 71/71 74/74 72/72
f 73/73 72/72 75/75
f 76/76 77/77 78/78
f 76/76 79/79 77/77
f 80/80 81/81 82/82
f 82/82 81/81 83/83
f 82/82 83/83 84/84
f 85/85 86/86 87/87
f 85/85 88/88 86/86
f 89/89 90/90 91/91
f 89/89 92/92 90/90
f 93/93 94/94 95/95
f 93/93 96/96 94/94
f 97/97 98/98 99/99
f 99/99 98/98 100/100
f 101/101 102/102 103/103
f 101/101 104/104 102/102
f 105/105 106/106 107/107
f 105/105 108/108 106/106
f 107/107 106/106 109/109
f 107/107 109/109 110/110
f 110/110 109/109 111/111
f 111/111 109/109 112/112
f 111/111 113/113 114/114
f 111/111 112/112 113/113
f 114/114 113/113 115/115
f 114/114 116/116 117/117
f 114/114 115/115 116/116
f 117/117 116/116 118/118
f 117/117 118/118 119/119
f 119/119 118/118 120/120
f 119/119 120/120 121/121
f 121/121 120/120 122/122
f 123/123 124/124 125/125
f 123/123 126/126 124/124
f 125/125 127/127 128/128
f 125/125 124/124 127/127
f 128/128 127/127 129/129
f 128/128 130/130 131/131
f 128/128 129/129 130/130
f 131/131 130/130 132/132
f 131/131 133/133 134/134
f 131/131 132/132 133/133
f 134/134 133/133 135/135
f 134/134 135/135 136/136
f 136/136 137/137 138/138
f 136/136 135/135 137/137
f 138/138 139/139 140/140
f 138/138 137/137 139/139
f 108/108 141/141 106/106
f 108/108 142/142 141/141
f 106/106 143/143 109/109
f 106/106 141/141 143/143
f 109/109 144/144 112/112
f 109/109 143/143 144/144
f 112/112 144/144 113/113
f 116/116 145/145 118/118
f 118/118 146/146 120/120
f 118/118 145/145 146/146
f 120/120 146/146 122/122
f 126/126 147/147 124/124
f 124/124 148/148 127/127
f 124/124 147/147 148/148
f 127/127 148/148 129/129
f 132/132 149/149 133/133
f 133/133 150/150 135/135
f 133/133 149/149 150/150
f 135/135 151/151 137/137
f 135/135 150/150 151/151
f 137/137 152/152 139/139
f 137/137 151/151 152/152
f 104/104 153/153 102/102
f 104/104 154/154 153/153
f 142/142 155/155 141/141
f 142/142 156/156 155/155
f 141/141 155/155 143/143
f 143/143 155/155 157/157
f 143/143 157/157 158/158
f 143/143 158/158 144/144
f 144/144 159/159 113/113
f 144/144 158/158 159/159
f 113/113 159/159 115/115
f 115/115 160/160 116/116
f 115/115 159/159 160/160
f 116/116 160/160 145/145
f 145/145 161/161 146/146
f 145/145 160/160 161/161
f 146/146 162/162 122/122
f 146/146 161/161 162/162
f 126/126 163/163 147/147
f 147/147 163/163 164/164
f 147/147 164/164 148/148
f 148/148 164/164 165/165
f 148/148 165/165 129/129
f 129/129 166/166 130/130
f 129/129 165/165 166/166
f 130/130 166/166 132/132
f 132/132 167/167 149/149
f 132/132 166/166 167/167
f 149/149 167/167 150/150
f 150/150 167/167 168/168
f 150/150 169/169 151/151
f 150/150 168/168 169/169
f 151/151 170/170 152/152
f 151/151 169/169 170/170
f 171/171 172/172 173/173
f 171/171 174/174 172/172
f 173/173 175/175 176/176
f 173/173 172/172 175/175
f 177/177 178/178 179/179
f 177/177 180/180 178/178
f 179/179 181/181 182/182
f 179/179 178/178 181/181
f 183/183 184/184 185/185
f 183/183 186/186 184/184
f 185/185 187/187 188/188
f 185/185 184/184 187/187
f 189/189 190/190 191/191
f 189/189 192/192 190/190
f 191/191 193/193 194/194
f 191/191 190/190 193/193
f 174/174 195/195 172/172
f 174/174 196/196 195/195
f 172/172 197/197 175/175
f 172/172 195/195 197/197
f 180/180 198/198 178/178
f 180/180 199/199 198/198
f 178/178 200/200 181/181
f 178/178 198/198 200/200
f 186/186 201/201 184/184
f 186/186 202/202 201/201
f 184/184 203/203 187/187
f 184/184 201/201 203/203
f 192/192 204/204 190/190
f 192/192 205/205 204/204
f 190/190 206/206 193/193
f 190/190 204/204 206/206
f 196/196 207/207 195/195
f 196/196 208/208 207/207
f 195/195 209/209 197/197
f 195/195 207/207 209/209
f 199/199 210/210 198/198
f 199/199 211/211 210/210
f 198/198 212/212 200/200
f 198/198 210/210 212/212
f 202/202 213/213 201/201
f 202/202 214/214 213/213
f 201/201 215/215 203/203
f 201/201 213/213 215/215
f 205/205 216/216 204/204
f 205/205 217/217 216/216
f 204/204 218/218 206/206
f 204/204 216/216 218/218
f 219/219 220/220 221/221
f 219/219 222/222 220/220
f 221/221 223/223 224/224
f 221/221 220/220 223/223
f 225/225 226/226 227/227
f 225/225 228/228 226/226
f 227/227 229/229 230/230
f 227/227 226/226 229/229
f 231/231 232/232 233/233
f 231/231 234/234 232/232
f 233/233 235/235 236/236
f 233/233 232/232 235/235
f 237/237 238/238 239/239
f 237/237 240/240 238/238
f 239/239 241/241 242/242
f 239/239 238/238 241/241
f 222/222 243/243 220/220
f 222/222 244/244 243/243
f 220/220 245/245 223/223
f 220/220 243/243 245/245
f 228/228 246/246 226/226
f 228/228 247/247 246/246
f 226/226 248/248 229/229
f 226/226 246/246 248/248
f 234/234 249/249 232/232
f 234/234 250/250 249/249
f 232/232 251/251 235/235
f 232/232 249/249 251/251
f 240/240 252/252 238/238
f 240/240 253/253 252/252
f 238/238 254/254 241/241
f 238/238 252/252 254/254
f 244/244 255/255 243/243
f 243/243 256/256 245/245
f 243/243 255/255 256/256
f 247/247 257/257 246/246
f 247/247 258/258 257/257
f 246/246 259/259 248/248
f 246/246 257/257 259/259
f 250/250 260/260 249/249
f 250/250 261/261 260/260
f 249/249 262/262 251/251
f 249/249 260/260 262/262
f 253/253 263/263 252/252
f 253/253 264/264 263/263
f 252/252 265/265 254/254
f 252/252 263/263 265/265
f 266/266 267/267 268/268
f 266/266 269/269 267/267
f 268/268 270/270 271/271
f 268/268 267/267 270/270
f 271/271 270/270 272/272
f 271/271 273/273 274/274
f 271/271 272/272 273/273
f 274/274 275/275 276/276
f 274/274 273/273 275/275
f 276/276 275/275 277/277
f 277/277 275/275 278/278
f 277/277 278/278 279/279
f 279/279 278/278 280/280
f 269/269 281/281 267/267
f 267/267 281/281 282/282
f 267/267 283/283 270/270
f 267/267 282/282 283/283
f 270/270 284/284 272/272
f 270/270 283/283 284/284
f 272/272 285/285 273/273
f 272/272 284/284 285/285
f 273/273 286/286 275/275
f 273/273 285/285 286/286
f 275/275 286/286 278/278
f 278/278 286/286 287/287
f 278/278 287/287 288/288
f 278/278 288/288 280/280
f 281/281 289/289 290/290
f 281/281 290/290 282/282
f 282/282 290/290 291/291
f 282/282 292/292 283/283
f 282/282 291/291 292/292
f 283/283 292/292 284/284
f 284/284 292/292 293/293
f 284/284 293/293 285/285
f 285/285 294/294 286/286
f 285/285 293/293 294/294
f 286/286 295/295 287/287
f 286/286 294/294 295/295
f 287/287 289/289 288/288
f 287/287 295/295 289/289
f 296/296 297/297 298/298
f 296/296 298/298 299/299
f 299/299 300/300 301/301
f 299/299 298/298 300/300
f 301/301 300/300 302/302
f 301/301 302/302 303/303
f 303/303 302/302 304/304
f 303/303 304/304 305/305
f 305/305 304/304 306/306
f 306/306 304/304 307/307
f 306/306 307/307 308/308
f 308/308 307/307 309/309
f 297/297 310/310 298/298
f 298/298 310/310 311/311
f 298/298 312/312 300/300
f 298/298 311/311 312/312
f 300/300 313/313 302/302
f 300/300 312/312 313/313
f 302/302 314/314 304/304
f 302/302 313/313 314/314
f 304/304 314/314 315/315
f 304/304 315/315 307/307
f 307/307 315/315 316/316
f 307/307 316/316 317/317
f 307/307 317/317 309/309
f 310/310 318/318 319/319
f 310/310 319/319 311/311
f 311/311 319/319 320/320
f 311/311 321/321 312/312
f 311/311 320/320 321/321
f 312/312 322/322 313/313
f 312/312 321/321 322/322
f 313/313 322/322 314/314
f 314/314 323/323 315/315
f 314/314 322/322 323/323
f 315/315 324/324 316/316
f 315/315 323/323 324/324
f 316/316 324/324 317/317
f 317/317 324/324 318/318
f 325/325 326/326 327/327
f 325/325 327/327 328/328
f 326/326 329/329 327/327
f 326/326 330/330 331/331
f 326/326 331/331 329/329
f 330/330 332/332 333/333
f 330/330 333/333 331/331
f 332/332 334/334 335/335
f 332/332 335/335 333/333
f 334/334 336/336 335/335
f 334/334 337/337 336/336
f 337/337 338/338 336/336
f 337/337 339/339 338/338
f 339/339 340/340 338/338
f 341/341 342/342 343/343
f 341/341 343/343 344/344
f 342/342 345/345 343/343
f 342/342 346/346 347/347
f 342/342 347/347 345/345
f 346/346 348/348 347/347
f 346/346 349/349 350/350
f 346/346 350/350 348/348
f 349/349 351/351 350/350
f 349/349 352/352 353/353
f 349/349 353/353 351/351
f 352/352 354/354 355/355
f 352/352 355/355 353/353
f 327/327 329/329 356/356
f 329/329 331/331 356/356
f 331/331 333/333 357/357
f 333/333 335/335 357/357
f 335/335 336/336 358/358
f 336/336 338/338 358/358
f 343/343 345/345 359/359
f 345/345 347/347 359/359
f 347/347 348/348 360/360
f 348/348 350/350 360/360
f 350/350 351/351 361/361
f 351/351 353/353 361/361
f 328/328 327/327 362/362
f 328/328 362/362 363/363
f 327/327 356/356 362/362
f 356/356 331/331 364/364
f 356/356 364/364 362/362
f 331/331 357/357 365/365
f 331/331 365/365 364/364
f 357/357 335/335 365/365
f 335/335 358/358 366/366
f 335/335 366/366 365/365
f 358/358 338/338 366/366
f 338/338 340/340 367/367
f 338/338 367/367 366/366
f 344/344 343/343 368/368
f 343/343 369/369 368/368
f 343/343 359/359 369/369
f 359/359 370/370 369/369
f 359/359 347/347 370/370
f 347/347 360/360 371/371
f 347/347 371/371 370/370
f 360/360 350/350 372/372
f 360/360 372/372 371/371
f 350/350 361/361 373/373
f 350/350 373/373 372/372
f 361/361 353/353 373/373
f 353/353 355/355 374/374
f 353/353 374/374 373/373
f 375/375 376/376 377/377
f 375/375 377/377 378/378
f 379/379 380/380 381/381
f 379/379 381/381 382/382
f 380/380 383/383 381/381
f 383/383 384/384 381/381
f 383/383 385/385 384/384
f 386/386 387/387 388/388
f 386/386 389/389 390/390
f 386/386 390/390 387/387
f 389/389 391/391 390/390
f 389/389 392/392 393/393
f 389/389 393/393 391/391
f 394/394 382/382 395/395
f 382/382 381/381 396/396
f 382/382 396/396 395/395
f 381/381 384/384 396/396
f 384/384 397/397 396/396
f 384/384 398/398 397/397
f 388/388 387/387 399/399
f 387/387 400/400 399/399
f 387/387 390/390 400/400
f 390/390 391/391 400/400
f 391/391 401/401 400/400
f 391/391 393/393 401/401
f 378/378 402/402 403/403
f 394/394 395/395 404/404
f 395/395 396/396 405/405
f 395/395 405/405 404/404
f 396/396 397/397 406/406
f 396/396 406/406 405/405
f 397/397 398/398 406/406
f 399/399 407/407 408/408
f 399/399 400/400 407/407
f 400/400 409/409 407/407
f 400/400 401/401 409/409
f 401/401 410/410 409/409
f 411/411 412/412 413/413
f 411/411 413/413 414/414
f 412/412 415/415 416/416
f 412/412 416/416 413/413
f 415/415 417/417 418/418
f 415/415 418/418 416/416
f 417/417 419/419 420/420
f 417/417 420/420 418/418
f 421/421 422/422 423/423
f 421/421 423/423 424/424
f 422/422 425/425 426/426
f 422/422 426/426 423/423
f 414/414 413/413 427/427
f 413/413 416/416 428/428
f 413/413 428/428 427/427
f 416/416 418/418 428/428
f 418/418 429/429 428/428
f 418/418 430/430 429/429
f 418/418 420/420 430/430
f 420/420 431/431 430/430
f 424/424 423/423 432/432
f 423/423 433/433 432/432
f 423/423 426/426 433/433
f 414/414 434/434 435/435
f 414/414 427/427 434/434
f 427/427 428/428 436/436
f 427/427 436/436 434/434
f 428/428 429/429 437/437
f 428/428 437/437 436/436
f 429/429 430/430 437/437
f 430/430 438/438 437/437
f 430/430 431/431 438/438
f 432/432 439/439 440/440
f 432/432 433/433 439/439
f 433/433 441/441 439/439
f 442/442 443/443 444/444
f 442/442 444/444 445/445
f 443/443 446/446 447/447
f 443/443 447/447 444/444
f 446/446 448/448 447/447
f 446/446 449/449 448/448
f 449/449 450/450 451/451
f 449/449 451/451 448/448
f 450/450 452/452 453/453
f 450/450 453/453 451/451
f 452/452 454/454 455/455
f 452/452 455/455 453/453
f 454/454 456/456 455/455
f 454/454 457/457 458/458
f 454/454 458/458 456/456
f 445/445 444/444 459/459
f 444/444 447/447 459/459
f 447/447 448/448 460/460
f 448/448 451/451 461/461
f 448/448 461/461 460/460
f 451/451 453/453 461/461
f 445/445 462/462 463/463
f 445/445 459/459 462/462
f 459/459 447/447 464/464
f 459/459 464/464 462/462
f 447/447 460/460 465/465
f 447/447 465/465 464/464
f 460/460 461/461 466/466
f 460/460 466/466 465/465
f 461/461 453/453 467/467
f 461/461 467/467 466/466
f 453/453 455/455 468/468
f 453/453 468/468 467/467
f 455/455 456/456 468/468
f 456/456 458/458 469/469
f 456/456 469/469 468/468
f 470/470 471/471 472/472
f 470/470 472/472 473/473
f 471/471 474/474 475/475
f 471/471 475/475 472/472
f 474/474 476/476 477/477
f 474/474 477/477 475/475
f 476/476 478/478 479/479
f 476/476 479/479 477/477
f 478/478 480/480 479/479
f 478/478 481/481 480/480
f 481/481 482/482 480/480
f 481/481 483/483 484/484
f 481/481 484/484 482/482
f 483/483 485/485 484/484
f 473/473 472/472 486/486
f 472/472 475/475 486/486
f 475/475 477/477 487/487
f 477/477 479/479 488/488
f 477/477 488/488 487/487
f 479/479 480/480 488/488
f 473/473 489/489 490/490
f 473/473 486/486 489/489
f 486/486 475/475 491/491
f 486/486 491/491 489/489
f 475/475 487/487 492/492
f 475/475 492/492 491/491
f 487/487 488/488 493/493
f 487/487 493/493 492/492
f 488/488 480/480 494/494
f 488/488 494/494 493/493
f 480/480 482/482 495/495
f 480/480 495/495 494/494
f 482/482 484/484 495/495
f 484/484 485/485 496/496
f 484/484 496/496 495/495
f 497/497 498/498 499/499
f 500/500 501/501 502/502
f 501/501 503/503 502/502
f 504/504 505/505 506/506
f 504/504 507/507 505/505
f 507/507 508/508 505/505
f 509/509 510/510 511/511
f 512/512 509/509 511/511
f 511/511 510/510 513/513
f 511/511 513/513 514/514
f 513/513 510/510 515/515
f 514/514 513/513 515/515
f 514/514 515/515 516/516
f 517/517 518/518 519/519
f 520/520 521/521 522/522
f 519/519 518/518 523/523
f 522/522 524/524 525/525
f 523/523 518/518 526/526
f 525/525 524/524 527/527
f 528/528 529/529 530/530
f 531/531 528/528 530/530
f 531/531 530/530 532/532
f 530/530 529/529 533/533
f 532/532 530/530 533/533
f 532/532 533/533 534/534
f 535/535 536/536 537/537
f 538/538 535/535 537/537
f 538/538 537/537 539/539
f 537/537 536/536 540/540
f 539/539 537/537 540/540
f 539/539 540/540 541/541
f 542/542 543/543 544/544
f 544/544 545/545 546/546
f 544/544 543/543 545/545
f 547/547 548/548 549/549
f 547/547 550/550 548/548
f 549/549 548/548 551/551
f 552/552 553/553 554/554
f 554/554 555/555 556/556
f 554/554 553/553 555/555
f 557/557 558/558 559/559
f 557/557 560/560 558/558
f 559/559 558/558 561/561
f 562/562 563/563 564/564
f 562/562 565/565 563/563
f 564/564 566/566 567/567
f 564/564 563/563 566/566
f 568/568 569/569 570/570
f 570/570 569/569 571/571
f 572/572 573/573 574/574
f 570/570 571/571 575/575
f 574/574 573/573 576/576
f 574/574 576/576 577/577
f 578/578 579/579 580/580
f 578/578 581/581 579/579
f 582/582 583/583 584/584
f 584/584 583/583 585/585
f 586/586 587/587 588/588
f 586/586 589/589 587/587
f 590/590 591/591 592/592
f 590/590 593/593 591/591
f 594/594 595/595 596/596
f 594/594 597/597 595/595
f 598/598 599/599 600/600
f 598/598 601/601 599/599
f 602/602 603/603 604/604
f 602/602 605/605 603/603
f 606/606 607/607 608/608
f 606/606 609/609 607/607
f 601/601 610/610 599/599
f 597/597 611/611 595/595
f 597/597 612/612 611/611
f 601/601 613/613 610/610
f 601/601 614/614 613/613
f 605/605 615/615 603/603
f 605/605 616/616 615/615
f 609/609 617/617 607/607
f 609/609 618/618 617/617
f 619/619 620/620 621/621
f 619/619 622/622 620/620
f 623/623 624/624 625/625
f 623/623 626/626 624/624
f 627/627 628/628 629/629
f 627/627 630/630 628/628
f 631/631 632/632 633/633
f 631/631 634/634 632/632
f 622/622 635/635 620/620
f 622/622 636/636 635/635
f 626/626 637/637 624/624
f 626/626 638/638 637/637
f 630/630 639/639 628/628
f 630/630 640/640 639/639
f 634/634 641/641 632/632
f 634/634 642/642 641/641
f 636/636 643/643 635/635
f 636/636 644/644 643/643
f 638/638 645/645 637/637
f 638/638 646/646 645/645
f 640/640 647/647 639/639
f 640/640 648/648 647/647
f 642/642 649/649 641/641
f 642/642 650/650 649/649
f 651/651 652/652 653/653
f 651/651 654/654 652/652
f 655/655 656/656 657/657
f 655/655 658/658 656/656
f 659/659 660/660 661/661
f 659/659 662/662 660/660
f 663/663 664/664 665/665
f 663/663 666/666 664/664
f 654/654 667/667 652/652
f 654/654 668/668 667/667
f 658/658 669/669 656/656
f 658/658 670/670 669/669
f 662/662 671/671 660/660
f 662/662 672/672 671/671
f 666/666 673/673 664/664
f 666/666 674/674 673/673
f 668/668 675/675 667/667
f 668/668 676/676 675/675
f 670/670 677/677 669/669
f 670/670 678/678 677/677
f 672/672 679/679 671/671
f 672/672 680/680 679/679
f 674/674 681/681 673/673
f 674/674 682/682 681/681
f 683/683 684/684 685/685
f 683/683 685/685 686/686
f 687/687 688/688 689/689
f 687/687 689/689 690/690
f 691/691 692/692 693/693
f 691/691 693/693 694/694
f 686/686 685/685 695/695
f 686/686 695/695 696/696
f 690/690 689/689 697/697
f 690/690 697/697 698/698
f 694/694 693/693 699/699
f 694/694 699/699 700/700
f 701/701 702/702 703/703
f 701/701 703/703 704/704
f 705/705 706/706 707/707
f 705/705 707/707 708/708
f 708/708 707/707 709/709
f 708/708 709/709 710/710
f 710/710 709/709 711/711
f 710/710 711/711 712/712
f 712/712 711/711 713/713
f 712/712 713/713 714/714
f 714/714 713/713 715/715
f 715/715 713/713 716/716
f 715/715 716/716 702/702
f 715/715 702/702 701/701
f 717/717 718/718 719/719
f 717/717 719/719 720/720
f 717/717 720/720 721/721
f 717/717 721/721 722/722
f 723/723 724/724 725/725
f 723/723 725/725 726/726
f 723/723 726/726 727/727
f 723/723 727/727 728/728
f 729/729 730/730 731/731
f 729/729 731/731 732/732
f 729/729 732/732 733/733
f 734/734 729/729 733/733
f 735/735 734/734 733/733
f 736/736 735/735 733/733
f 737/737 736/736 733/733
f 738/738 739/739 740/740
f 738/738 741/741 739/739
f 738/738 742/742 741/741
f 738/738 743/743 742/742
f 744/744 745/745 746/746
f 744/744 747/747 745/745
f 744/744 748/748 747/747
f 744/744 749/749 748/748
f 750/750 751/751 752/752
f 750/750 753/753 751/751
f 754/754 753/753 750/750
f 755/755 753/753 754/754
f 756/756 753/753 755/755
f 757/757 753/753 756/756
f 758/758 759/759 760/760
f 758/758 760/760 761/761
f 762/762 758/758 761/761
f 762/762 761/761 763/763
f 764/764 762/762 763/763
f 764/764 763/763 765/765
f 766/766 767/767 768/768
f 766/766 769/769 767/767
f 770/770 769/769 766/766
f 770/770 771/771 769/769
f 772/772 771/771 770/770
f 772/772 773/773 771/771
f 774/774 775/775 776/776
f 775/775 774/774 777/777
f 775/775 777/777 778/778
f 774/774 776/776 779/779
f 774/774 779/779 780/780
f 781/781 782/782 783/783
f 784/784 785/785 786/786
f 787/787 778/778 777/777
f 787/787 777/777 788/788
f 789/789 787/787 788/788
f 789/789 788/788 790/790
f 791/791 792/792 793/793
f 794/794 791/791 793/793
f 794/794 793/793 795/795
f 796/796 789/789 790/790
f 796/796 790/790 797/797
f 798/798 799/799 800/800
f 801/801 784/784 786/786
f 802/802 794/794 795/795
f 803/803 781/781 783/783
f 803/803 783/783 804/804
f 805/805 798/798 800/800
f 774/774 780/780 806/806
f 807/807 774/774 806/806
f 805/805 800/800 808/808
f 809/809 805/805 808/808
f 801/801 786/786 810/810
f 803/803 804/804 811/811
f 812/812 807/807 806/806
f 813/813 801/801 810/810
f 802/802 795/795 814/814
f 802/802 814/814 796/796
f 802/802 796/796 797/797
f 802/802 797/797 815/815
f 802/802 815/815 816/816
f 817/817 802/802 816/816
f 817/817 816/816 818/818
f 819/819 817/817 818/818
f 785/785 784/784 820/820
f 821/821 819/819 818/818
f 822/822 803/803 811/811
f 822/822 811/811 823/823
f 824/824 822/822 823/823
f 824/824 823/823 825/825
f 824/824 825/825 785/785
f 826/826 824/824 785/785
f 826/826 785/785 820/820
f 827/827 826/826 820/820
f 828/828 827/827 820/820
f 828/828 820/820 829/829
f 828/828 829/829 830/830
f 809/809 808/808 792/792
f 809/809 792/792 791/791
f 809/809 791/791 831/831
f 832/832 809/809 831/831
f 832/832 831/831 821/821
f 833/833 832/832 821/821
f 833/833 821/821 818/818
f 834/834 833/833 818/818
f 834/834 818/818 835/835
f 836/836 834/834 835/835
f 836/836 835/835 837/837
f 806/806 836/836 837/837
f 806/806 837/837 812/812
f 838/838 839/839 840/840
f 840/840 841/841 838/838
f 840/840 842/842 841/841
f 838/838 843/843 839/839
f 838/838 844/844 843/843
f 845/845 846/846 847/847
f 848/848 849/849 850/850
f 851/851 841/841 842/842
f 851/851 852/852 841/841
f 853/853 849/849 848/848
f 851/851 854/854 852/852
f 855/855 856/856 857/857
f 858/858 854/854 851/851
f 855/855 859/859 856/856
f 860/860 859/859 855/855
f 861/861 854/854 858/858
f 861/861 862/862 854/854
f 863/863 864/864 865/865
f 860/860 866/866 859/859
f 867/867 846/846 845/845
f 867/867 868/868 846/846
f 863/863 869/869 864/864
f 838/838 870/870 844/844
f 871/871 870/870 838/838
f 872/872 869/869 863/863
f 873/873 849/849 853/853
f 872/872 874/874 869/869
f 873/873 875/875 849/849
f 867/867 876/876 868/868
f 877/877 870/870 871/871
f 860/860 878/878 866/866
f 860/860 861/861 878/878
f 860/860 862/862 861/861
f 860/860 879/879 862/862
f 880/880 879/879 860/860
f 880/880 881/881 879/879
f 882/882 881/881 880/880
f 882/882 883/883 881/881
f 850/850 884/884 848/848
f 885/885 883/883 882/882
f 886/886 876/876 867/867
f 886/886 887/887 876/876
f 888/888 887/887 886/886
f 888/888 889/889 887/887
f 888/888 850/850 889/889
f 890/890 850/850 888/888
f 890/890 884/884 850/850
f 891/891 884/884 890/890
f 891/891 892/892 884/884
f 893/893 892/892 891/891
f 893/893 894/894 892/892
f 872/872 856/856 874/874
f 872/872 857/857 856/856
f 872/872 895/895 857/857
f 896/896 895/895 872/872
f 896/896 885/885 895/895
f 897/897 885/885 896/896
f 897/897 883/883 885/885
f 898/898 883/883 897/897
f 898/898 899/899 883/883
f 900/900 899/899 898/898
f 900/900 901/901 899/899
f 870/870 901/901 900/900
f 870/870 877/877 901/901
f 902/902 903/903 904/904
f 904/904 905/905 902/902
f 906/906 907/907 908/908
f 902/902 909/909 903/903
f 910/910 911/911 912/912
f 913/913 914/914 915/915
f 916/916 914/914 913/913
f 917/917 914/914 916/916
f 906/906 918/918 907/907
f 906/906 919/919 918/918
f 920/920 919/919 906/906
f 921/921 922/922 923/923
f 924/924 922/922 921/921
f 925/925 922/922 924/924
f 904/904 926/926 905/905
f 927/927 912/912 911/911
f 928/928 919/919 920/920
f 928/928 929/929 919/919
f 930/930 929/929 928/928
f 930/930 931/931 929/929
f 925/925 932/932 922/922
f 904/904 933/933 926/926
f 904/904 934/934 933/933
f 935/935 934/934 904/904
f 935/935 917/917 934/934
f 912/912 931/931 930/930
f 927/927 931/931 912/912
f 927/927 936/936 931/931
f 917/917 937/937 914/914
f 935/935 937/937 917/917
f 938/938 937/937 935/935
f 939/939 937/937 938/938
f 939/939 940/940 937/937
f 941/941 940/940 939/939
f 909/909 940/940 941/941
f 942/942 932/932 925/925
f 927/927 943/943 936/936
f 944/944 943/943 927/927
f 944/944 945/945 943/943
f 944/944 907/907 945/945
f 944/944 908/908 907/907
f 946/946 908/908 944/944
f 946/946 947/947 908/908
f 948/948 947/947 946/946
f 942/942 949/949 932/932
f 942/942 950/950 949/949
f 951/951 950/950 942/942
f 940/940 950/950 951/951
f 940/940 902/902 950/950
f 909/909 902/902 940/940
f 952/952 953/953 954/954
f 952/952 954/954 955/955
f 953/953 952/952 956/956
f 957/957 958/958 959/959
f 960/960 957/957 959/959
f 961/961 962/962 963/963
f 964/964 965/965 966/966
f 967/967 964/964 966/966
f 968/968 967/967 966/966
f 969/969 960/960 959/959
f 969/969 959/959 970/970
f 971/971 972/972 973/973
f 971/971 973/973 974/974
f 971/971 974/974 975/975
f 976/976 963/963 962/962
f 977/977 978/978 979/979
f 980/980 977/977 979/979
f 981/981 970/970 982/982
f 981/981 982/982 983/983
f 962/962 981/981 983/983
f 984/984 971/971 975/975
f 956/956 978/978 977/977
f 953/953 956/956 977/977
f 953/953 977/977 985/985
f 986/986 953/953 985/985
f 986/986 985/985 968/968
f 976/976 962/962 983/983
f 976/976 983/983 987/987
f 968/968 966/966 988/988
f 986/986 968/968 988/988
f 989/989 986/986 988/988
f 990/990 989/989 988/988
f 990/990 988/988 991/991
f 992/992 990/990 991/991
f 993/993 992/992 991/991
f 984/984 975/975 994/994
f 976/976 987/987 995/995
f 996/996 976/976 995/995
f 996/996 995/995 997/997
f 996/996 997/997 958/958
f 996/996 958/958 957/957
f 998/998 996/996 957/957
f 998/998 957/957 999/999
f 1000/1000 998/998 999/999
f 984/984 994/994 1001/1001
f 984/984 1001/1001 1002/1002
f 1003/1003 984/984 1002/1002
f 991/991 1003/1003 1002/1002
f 991/991 1002/1002 952/952
f 993/993 991/991 952/952
f 993/993 952/952 955/955
f 1004/1004 1005/1005 1006/1006
f 1007/1007 1008/1008 1009/1009
f 1010/1010 1011/1011 1012/1012
f 1013/1013 1014/1014 1015/1015
f 1016/1016 1017/1017 1018/1018
f 1019/1019 1020/1020 1021/1021
f 1022/1022 1023/1023 1024/1024
f 1025/1025 1026/1026 1027/1027
f 1028/1028 1029/1029 1030/1030
f 1031/1031 1032/1032 1033/1033
f 1034/1034 1035/1035 1036/1036
f 1037/1037 1038/1038 1039/1039
f 1040/1040 1041/1041 1042/1042
f 1043/1043 1044/1044 1045/1045
f 1046/1046 1047/1047 1048/1048
f 1049/1049 1050/1050 1051/1051
f 1052/1052 1053/1053 1054/1054
f 1055/1055 1056/1056 1057/1057
f 1058/1058 1059/1059 1060/1060
f 1061/1061 1062/1062 1063/1063
f 1064/1064 1065/1065 1066/1066
f 1067/1067 1068/1068 1069/1069
f 1070/1070 1071/1071 1072/1072
f 1073/1073 1074/1074 1075/1075
f 1076/1076 1077/1077 1078/1078
f 1079/1079 1080/1080 1081/1081
f 1082/1082 1083/1083 1084/1084
f 1085/1085 1086/1086 1087/1087
f 1088/1088 1089/1089 1090/1090
f 1091/1091 1092/1092 1093/1093
f 1094/1094 1095/1095 1096/1096
f 1097/1097 1098/1098 1099/1099
f 1100/1100 1101/1101 1102/1102
f 1103/1103 1104/1104 1105/1105
f 1106/1106 1107/1107 1108/1108
f 1109/1109 1110/1110 1111/1111
f 1112/1112 1113/1113 1114/1114
f 1115/1115 1116/1116 1117/1117
f 1118/1118 1119/1119 1120/1120
f 1121/1121 1122/1122 1123/1123
f 1124/1124 1125/1125 1126/1126
f 1127/1127 1128/1128 1129/1129
f 1130/1130 1131/1131 1132/1132
f 1133/1133 1134/1134 1135/1135
f 1136/1136 1137/1137 1138/1138
f 1139/1139 1140/1140 1141/1141
f 1142/1142 1143/1143 1144/1144
f 1145/1145 1146/1146 1147/1147
f 1148/1148 1149/1149 1150/1150
f 1151/1151 1152/1152 1153/1153
f 1154/1154 1155/1155 1156/1156
f 1157/1157 1158/1158 1159/1159
f 1160/1160 1161/1161 1162/1162
f 1163/1163 1164/1164 1165/1165
f 1166/1166 1167/1167 1168/1168
# 1006 faces

