v 0.512757 0.000000 -0.000000
v 0.478991 0.062957 0.128345
v 0.495285 0.000000 0.132711
v 0.495888 0.062957 -0.000000
v 0.434474 0.109045 0.116417
v 0.449800 0.109045 -0.000000
v 0.373662 0.125914 0.100122
v 0.386843 0.125914 -0.000000
v 0.312850 0.109045 0.083828
v 0.323886 0.109045 -0.000000
v 0.268332 0.062957 0.071899
v 0.277798 0.062957 -0.000000
v 0.252038 -0.000000 0.067533
v 0.260929 -0.000000 -0.000000
v 0.268332 -0.062957 0.071899
v 0.277798 -0.062957 -0.000000
v 0.312850 -0.109045 0.083828
v 0.323886 -0.109045 -0.000000
v 0.373662 -0.125914 0.100122
v 0.386843 -0.125914 -0.000000
v 0.434474 -0.109045 0.116417
v 0.449800 -0.109045 -0.000000
v 0.478991 -0.062957 0.128345
v 0.495888 -0.062957 -0.000000
v 0.429452 0.062957 0.247944
v 0.444061 0.000000 0.256379
v 0.389538 0.109045 0.224900
v 0.335016 0.125914 0.193422
v 0.280493 0.109045 0.161943
v 0.240580 0.062957 0.138899
v 0.225971 -0.000000 0.130464
v 0.240580 -0.062957 0.138899
v 0.280493 -0.109045 0.161943
v 0.335016 -0.125914 0.193422
v 0.389538 -0.109045 0.224900
v 0.429452 -0.062957 0.247944
v 0.350646 0.062957 0.350646
v 0.362574 0.000000 0.362574
v 0.318057 0.109045 0.318057
v 0.273539 0.125914 0.273539
v 0.229022 0.109045 0.229022
v 0.196433 0.062957 0.196433
v 0.184505 -0.000000 0.184505
v 0.196433 -0.062957 0.196433
v 0.229022 -0.109045 0.229022
v 0.273539 -0.125914 0.273539
v 0.318057 -0.109045 0.318057
v 0.350646 -0.062957 0.350646
v 0.247944 0.062957 0.429452
v 0.256379 0.000000 0.444061
v 0.224900 0.109045 0.389538
v 0.193422 0.125914 0.335016
v 0.161943 0.109045 0.280493
v 0.138899 0.062957 0.240580
v 0.130464 -0.000000 0.225971
v 0.138899 -0.062957 0.240580
v 0.161943 -0.109045 0.280493
v 0.193422 -0.125914 0.335016
v 0.224900 -0.109045 0.389538
v 0.247944 -0.062957 0.429452
v 0.128345 0.062957 0.478991
v 0.132711 0.000000 0.495285
v 0.116417 0.109045 0.434474
v 0.100122 0.125914 0.373662
v 0.083828 0.109045 0.312850
v 0.071899 0.062957 0.268332
v 0.067533 -0.000000 0.252038
v 0.071899 -0.062957 0.268332
v 0.083828 -0.109045 0.312850
v 0.100122 -0.125914 0.373662
v 0.116417 -0.109045 0.434474
v 0.128345 -0.062957 0.478991
v -0.000000 0.062957 0.495888
v -0.000000 0.000000 0.512757
v -0.000000 0.109045 0.449800
v -0.000000 0.125914 0.386843
v -0.000000 0.109045 0.323886
v -0.000000 0.062957 0.277798
v -0.000000 -0.000000 0.260929
v -0.000000 -0.062957 0.277798
v -0.000000 -0.109045 0.323886
v -0.000000 -0.125914 0.386843
v -0.000000 -0.109045 0.449800
v -0.000000 -0.062957 0.495888
v -0.128345 0.062957 0.478991
v -0.132711 0.000000 0.495285
v -0.116417 0.109045 0.434474
v -0.100122 0.125914 0.373662
v -0.083828 0.109045 0.312850
v -0.071899 0.062957 0.268332
v -0.067533 -0.000000 0.252038
v -0.071899 -0.062957 0.268332
v -0.083828 -0.109045 0.312850
v -0.100122 -0.125914 0.373662
v -0.116417 -0.109045 0.434474
v -0.128345 -0.062957 0.478991
v -0.247944 0.062957 0.429452
v -0.256379 0.000000 0.444061
v -0.224900 0.109045 0.389538
v -0.193422 0.125914 0.335016
v -0.161943 0.109045 0.280493
v -0.138899 0.062957 0.240580
v -0.130464 -0.000000 0.225971
v -0.138899 -0.062957 0.240580
v -0.161943 -0.109045 0.280493
v -0.193422 -0.125914 0.335016
v -0.224900 -0.109045 0.389538
v -0.247944 -0.062957 0.429452
v -0.350646 0.062957 0.350646
v -0.362574 0.000000 0.362574
v -0.318057 0.109045 0.318057
v -0.273539 0.125914 0.273539
v -0.229022 0.109045 0.229022
v -0.196433 0.062957 0.196433
v -0.184505 -0.000000 0.184505
v -0.196433 -0.062957 0.196433
v -0.229022 -0.109045 0.229022
v -0.273539 -0.125914 0.273539
v -0.318057 -0.109045 0.318057
v -0.350646 -0.062957 0.350646
v -0.429452 0.062957 0.247944
v -0.444061 0.000000 0.256379
v -0.389538 0.109045 0.224900
v -0.335016 0.125914 0.193422
v -0.280493 0.109045 0.161943
v -0.240580 0.062957 0.138899
v -0.225971 -0.000000 0.130464
v -0.240580 -0.062957 0.138899
v -0.280493 -0.109045 0.161943
v -0.335016 -0.125914 0.193422
v -0.389538 -0.109045 0.224900
v -0.429452 -0.062957 0.247944
v -0.478991 0.062957 0.128345
v -0.495285 0.000000 0.132711
v -0.434474 0.109045 0.116417
v -0.373662 0.125914 0.100122
v -0.312850 0.109045 0.083828
v -0.268332 0.062957 0.071899
v -0.252038 -0.000000 0.067533
v -0.268332 -0.062957 0.071899
v -0.312850 -0.109045 0.083828
v -0.373662 -0.125914 0.100122
v -0.434474 -0.109045 0.116417
v -0.478991 -0.062957 0.128345
v -0.495888 0.062957 -0.000000
v -0.512757 0.000000 -0.000000
v -0.449800 0.109045 -0.000000
v -0.386843 0.125914 -0.000000
v -0.323886 0.109045 -0.000000
v -0.277798 0.062957 -0.000000
v -0.260929 -0.000000 -0.000000
v -0.277798 -0.062957 -0.000000
v -0.323886 -0.109045 -0.000000
v -0.386843 -0.125914 -0.000000
v -0.449800 -0.109045 -0.000000
v -0.495888 -0.062957 -0.000000
v -0.478991 0.062957 -0.128345
v -0.495285 0.000000 -0.132711
v -0.434474 0.109045 -0.116417
v -0.373662 0.125914 -0.100122
v -0.312850 0.109045 -0.083828
v -0.268332 0.062957 -0.071899
v -0.252038 -0.000000 -0.067533
v -0.268332 -0.062957 -0.071899
v -0.312850 -0.109045 -0.083828
v -0.373662 -0.125914 -0.100122
v -0.434474 -0.109045 -0.116417
v -0.478991 -0.062957 -0.128345
v -0.429452 0.062957 -0.247944
v -0.444061 0.000000 -0.256379
v -0.389538 0.109045 -0.224900
v -0.335016 0.125914 -0.193422
v -0.280493 0.109045 -0.161943
v -0.240580 0.062957 -0.138899
v -0.225971 -0.000000 -0.130464
v -0.240580 -0.062957 -0.138899
v -0.280493 -0.109045 -0.161943
v -0.335016 -0.125914 -0.193422
v -0.389538 -0.109045 -0.224900
v -0.429452 -0.062957 -0.247944
v -0.350646 0.062957 -0.350646
v -0.362574 0.000000 -0.362574
v -0.318057 0.109045 -0.318057
v -0.273539 0.125914 -0.273539
v -0.229022 0.109045 -0.229022
v -0.196433 0.062957 -0.196433
v -0.184505 -0.000000 -0.184505
v -0.196433 -0.062957 -0.196433
v -0.229022 -0.109045 -0.229022
v -0.273539 -0.125914 -0.273539
v -0.318057 -0.109045 -0.318057
v -0.350646 -0.062957 -0.350646
v -0.247944 0.062957 -0.429452
v -0.256379 0.000000 -0.444061
v -0.224900 0.109045 -0.389538
v -0.193422 0.125914 -0.335016
v -0.161943 0.109045 -0.280494
v -0.138899 0.062957 -0.240580
v -0.130464 -0.000000 -0.225971
v -0.138899 -0.062957 -0.240580
v -0.161943 -0.109045 -0.280494
v -0.193422 -0.125914 -0.335016
v -0.224900 -0.109045 -0.389538
v -0.247944 -0.062957 -0.429452
v -0.128345 0.062957 -0.478991
v -0.132711 0.000000 -0.495286
v -0.116417 0.109045 -0.434474
v -0.100122 0.125914 -0.373662
v -0.083828 0.109045 -0.312850
v -0.071899 0.062957 -0.268332
v -0.067533 -0.000000 -0.252038
v -0.071899 -0.062957 -0.268332
v -0.083828 -0.109045 -0.312850
v -0.100122 -0.125914 -0.373662
v -0.116417 -0.109045 -0.434474
v -0.128345 -0.062957 -0.478991
v 0.000000 0.062957 -0.495888
v 0.000000 0.000000 -0.512757
v 0.000000 0.109045 -0.449800
v 0.000000 0.125914 -0.386843
v 0.000000 0.109045 -0.323886
v 0.000000 0.062957 -0.277798
v 0.000000 -0.000000 -0.260929
v 0.000000 -0.062957 -0.277798
v 0.000000 -0.109045 -0.323886
v 0.000000 -0.125914 -0.386843
v 0.000000 -0.109045 -0.449800
v 0.000000 -0.062957 -0.495888
v 0.128345 0.062957 -0.478991
v 0.132711 0.000000 -0.495285
v 0.116417 0.109045 -0.434474
v 0.100122 0.125914 -0.373662
v 0.083828 0.109045 -0.312850
v 0.071899 0.062957 -0.268332
v 0.067533 -0.000000 -0.252038
v 0.071899 -0.062957 -0.268332
v 0.083828 -0.109045 -0.312850
v 0.100122 -0.125914 -0.373662
v 0.116417 -0.109045 -0.434474
v 0.128345 -0.062957 -0.478991
v 0.247944 0.062957 -0.429452
v 0.256379 0.000000 -0.444061
v 0.224900 0.109045 -0.389538
v 0.193422 0.125914 -0.335016
v 0.161943 0.109045 -0.280493
v 0.138899 0.062957 -0.240580
v 0.130464 -0.000000 -0.225971
v 0.138899 -0.062957 -0.240580
v 0.161943 -0.109045 -0.280493
v 0.193422 -0.125914 -0.335016
v 0.224900 -0.109045 -0.389538
v 0.247944 -0.062957 -0.429452
v 0.350646 0.062957 -0.350646
v 0.362574 0.000000 -0.362574
v 0.318057 0.109045 -0.318057
v 0.273539 0.125914 -0.273539
v 0.229022 0.109045 -0.229022
v 0.196433 0.062957 -0.196433
v 0.184505 -0.000000 -0.184505
v 0.196433 -0.062957 -0.196433
v 0.229022 -0.109045 -0.229022
v 0.273539 -0.125914 -0.273539
v 0.318057 -0.109045 -0.318057
v 0.350646 -0.062957 -0.350646
v 0.429452 0.062957 -0.247944
v 0.444061 0.000000 -0.256379
v 0.389538 0.109045 -0.224900
v 0.335016 0.125914 -0.193421
v 0.280493 0.109045 -0.161943
v 0.240580 0.062957 -0.138899
v 0.225971 -0.000000 -0.130464
v 0.240580 -0.062957 -0.138899
v 0.280493 -0.109045 -0.161943
v 0.335016 -0.125914 -0.193422
v 0.389538 -0.109045 -0.224900
v 0.429452 -0.062957 -0.247944
v 0.478991 0.062957 -0.128345
v 0.495285 0.000000 -0.132711
v 0.434474 0.109045 -0.116417
v 0.373662 0.125914 -0.100122
v 0.312850 0.109045 -0.083828
v 0.268332 0.062957 -0.071899
v 0.252038 -0.000000 -0.067533
v 0.268332 -0.062957 -0.071899
v 0.312850 -0.109045 -0.083828
v 0.373662 -0.125914 -0.100122
v 0.434474 -0.109045 -0.116417
v 0.478991 -0.062957 -0.128345
# 288 vertices

vn 1.000000 -0.000000 0.000000
vn 0.837766 0.500421 0.218465
vn 0.965926 -0.000000 0.258819
vn 0.865762 0.500422 -0.005809
vn 0.485144 0.866231 0.119494
vn 0.499541 0.866231 -0.010142
vn 0.003043 0.999931 -0.011357
vn -0.000000 0.999931 -0.011758
vn -0.479895 0.866231 -0.139087
vn -0.499541 0.866231 -0.010142
vn -0.834759 0.500422 -0.229687
vn -0.865762 0.500421 -0.005809
vn -0.965926 0.000000 -0.258819
vn -1.000000 0.000000 -0.000000
vn -0.837766 -0.500422 -0.218465
vn -0.865762 -0.500422 0.005809
vn -0.485144 -0.866231 -0.119494
vn -0.499541 -0.866231 0.010142
vn -0.003043 -0.999931 0.011357
vn -0.000000 -0.999931 0.011758
vn 0.479895 -0.866231 0.139087
vn 0.499541 -0.866231 0.010142
vn 0.834759 -0.500421 0.229687
vn 0.865763 -0.500421 0.005809
vn 0.752677 0.500421 0.427851
vn 0.866025 -0.000000 0.500000
vn 0.437686 0.866231 0.240987
vn 0.005879 0.999931 -0.010183
vn -0.427544 0.866231 -0.258554
vn -0.746868 0.500422 -0.437912
vn -0.866025 0.000000 -0.500000
vn -0.752677 -0.500422 -0.427850
vn -0.437686 -0.866231 -0.240987
vn -0.005879 -0.999931 0.010183
vn 0.427544 -0.866231 0.258554
vn 0.746868 -0.500421 0.437912
vn 0.616294 0.500421 0.608079
vn 0.707107 0.000000 0.707107
vn 0.360400 0.866231 0.346057
vn 0.008314 0.999931 -0.008314
vn -0.346057 0.866231 -0.360400
vn -0.608079 0.500422 -0.616294
vn -0.707107 -0.000000 -0.707107
vn -0.616294 -0.500422 -0.608079
vn -0.360400 -0.866231 -0.346057
vn -0.008314 -0.999931 0.008314
vn 0.346057 -0.866231 0.360400
vn 0.608079 -0.500421 0.616294
vn 0.437912 0.500421 0.746868
vn 0.500000 0.000000 0.866025
vn 0.258554 0.866231 0.427544
vn 0.010183 0.999931 -0.005879
vn -0.240987 0.866231 -0.437686
vn -0.427851 0.500421 -0.752677
vn -0.500000 0.000000 -0.866025
vn -0.437912 -0.500422 -0.746868
vn -0.258554 -0.866231 -0.427544
vn -0.010183 -0.999931 0.005879
vn 0.240987 -0.866231 0.437686
vn 0.427851 -0.500421 0.752677
vn 0.229687 0.500422 0.834759
vn 0.258819 0.000000 0.965926
vn 0.139087 0.866231 0.479895
vn 0.011357 0.999931 -0.003043
vn -0.119494 0.866231 -0.485144
vn -0.218465 0.500422 -0.837766
vn -0.258819 0.000000 -0.965926
vn -0.229687 -0.500422 -0.834759
vn -0.139087 -0.866231 -0.479895
vn -0.011357 -0.999931 0.003043
vn 0.119494 -0.866231 0.485145
vn 0.218465 -0.500421 0.837766
vn 0.005809 0.500422 0.865762
vn -0.000000 -0.000000 1.000000
vn 0.010142 0.866231 0.499541
vn 0.011758 0.999931 -0.000000
vn 0.010142 0.866231 -0.499541
vn 0.005809 0.500421 -0.865762
vn -0.000000 0.000000 -1.000000
vn -0.005809 -0.500422 -0.865762
vn -0.010142 -0.866231 -0.499541
vn -0.011758 -0.999931 0.000000
vn -0.010142 -0.866231 0.499541
vn -0.005809 -0.500421 0.865762
vn -0.218465 0.500422 0.837766
vn -0.258819 -0.000000 0.965926
vn -0.119494 0.866231 0.485144
vn 0.011357 0.999931 0.003043
vn 0.139087 0.866231 -0.479895
vn 0.229687 0.500422 -0.834759
vn 0.258819 0.000000 -0.965926
vn 0.218465 -0.500422 -0.837766
vn 0.119494 -0.866231 -0.485144
vn -0.011357 -0.999931 -0.003043
vn -0.139087 -0.866231 0.479895
vn -0.229687 -0.500421 0.834759
vn -0.427851 0.500422 0.752677
vn -0.500000 -0.000000 0.866025
vn -0.240987 0.866231 0.437686
vn 0.010183 0.999931 0.005879
vn 0.258554 0.866231 -0.427544
vn 0.437912 0.500421 -0.746868
vn 0.500000 -0.000000 -0.866025
vn 0.427850 -0.500422 -0.752677
vn 0.240987 -0.866231 -0.437686
vn -0.010183 -0.999931 -0.005879
vn -0.258554 -0.866231 0.427544
vn -0.437912 -0.500421 0.746868
vn -0.608079 0.500421 0.616294
vn -0.707107 -0.000000 0.707107
vn -0.346057 0.866231 0.360400
vn 0.008314 0.999931 0.008314
vn 0.360400 0.866231 -0.346058
vn 0.616294 0.500422 -0.608079
vn 0.707107 0.000000 -0.707107
vn 0.608079 -0.500422 -0.616294
vn 0.346057 -0.866231 -0.360400
vn -0.008314 -0.999931 -0.008314
vn -0.360400 -0.866231 0.346057
vn -0.616294 -0.500421 0.608079
vn -0.746868 0.500421 0.437912
vn -0.866025 0.000000 0.500000
vn -0.427544 0.866231 0.258554
vn 0.005879 0.999931 0.010183
vn 0.437686 0.866231 -0.240987
vn 0.752677 0.500422 -0.427851
vn 0.866025 0.000000 -0.500000
vn 0.746868 -0.500422 -0.437912
vn 0.427544 -0.866231 -0.258554
vn -0.005879 -0.999931 -0.010183
vn -0.437686 -0.866231 0.240987
vn -0.752677 -0.500421 0.427851
vn -0.834759 0.500421 0.229687
vn -0.965926 0.000000 0.258819
vn -0.479895 0.866231 0.139087
vn 0.003043 0.999931 0.011357
vn 0.485145 0.866231 -0.119494
vn 0.837766 0.500422 -0.218465
vn 0.965926 -0.000000 -0.258819
vn 0.834759 -0.500422 -0.229687
vn 0.479895 -0.866231 -0.139087
vn -0.003043 -0.999931 -0.011357
vn -0.485145 -0.866231 0.119494
vn -0.837766 -0.500421 0.218465
vn -0.865762 0.500422 0.005809
vn -1.000000 -0.000000 -0.000000
vn -0.499541 0.866231 0.010142
vn 0.000000 0.999931 0.011758
vn 0.499541 0.866231 0.010142
vn 0.865762 0.500421 0.005809
vn 1.000000 0.000000 0.000000
vn 0.865762 -0.500422 -0.005809
vn 0.499541 -0.866231 -0.010142
vn -0.000000 -0.999931 -0.011758
vn -0.499541 -0.866231 -0.010142
vn -0.865763 -0.500421 -0.005809
vn -0.837766 0.500421 -0.218465
vn -0.965926 -0.000000 -0.258819
vn -0.485144 0.866231 -0.119494
vn -0.003043 0.999931 0.011357
vn 0.479895 0.866231 0.139087
vn 0.834759 0.500422 0.229687
vn 0.965926 0.000000 0.258819
vn 0.837766 -0.500422 0.218465
vn 0.485144 -0.866231 0.119494
vn 0.003043 -0.999931 -0.011357
vn -0.479895 -0.866231 -0.139087
vn -0.834759 -0.500421 -0.229687
vn -0.752677 0.500422 -0.427851
vn -0.866025 0.000000 -0.500000
vn -0.437686 0.866231 -0.240987
vn -0.005879 0.999931 0.010183
vn 0.427544 0.866231 0.258554
vn 0.746868 0.500422 0.437912
vn 0.866025 0.000000 0.500000
vn 0.752677 -0.500422 0.427851
vn 0.437686 -0.866231 0.240987
vn 0.005879 -0.999931 -0.010183
vn -0.427544 -0.866231 -0.258554
vn -0.746868 -0.500421 -0.437912
vn -0.616294 0.500422 -0.608079
vn -0.707107 0.000000 -0.707107
vn -0.360400 0.866231 -0.346057
vn -0.008314 0.999931 0.008314
vn 0.346058 0.866231 0.360400
vn 0.608079 0.500421 0.616294
vn 0.707107 0.000000 0.707107
vn 0.616294 -0.500422 0.608079
vn 0.360400 -0.866231 0.346057
vn 0.008314 -0.999931 -0.008314
vn -0.346057 -0.866231 -0.360400
vn -0.608079 -0.500421 -0.616294
vn -0.437912 0.500421 -0.746868
vn -0.500000 -0.000000 -0.866025
vn -0.258554 0.866231 -0.427544
vn -0.010183 0.999931 0.005879
vn 0.240987 0.866231 0.437686
vn 0.427851 0.500422 0.752677
vn 0.500000 -0.000000 0.866025
vn 0.437912 -0.500422 0.746868
vn 0.258554 -0.866231 0.427544
vn 0.010183 -0.999931 -0.005879
vn -0.240987 -0.866231 -0.437686
vn -0.427851 -0.500421 -0.752677
vn -0.229687 0.500421 -0.834759
vn -0.258819 -0.000000 -0.965926
vn -0.139087 0.866231 -0.479895
vn -0.011357 0.999931 0.003043
vn 0.119494 0.866231 0.485145
vn 0.218465 0.500422 0.837766
vn 0.258819 0.000000 0.965926
vn 0.229687 -0.500422 0.834759
vn 0.139087 -0.866231 0.479894
vn 0.011357 -0.999931 -0.003043
vn -0.119494 -0.866231 -0.485145
vn -0.218465 -0.500421 -0.837766
vn -0.005809 0.500421 -0.865763
vn 0.000000 -0.000000 -1.000000
vn -0.010142 0.866231 -0.499541
vn -0.011758 0.999931 0.000000
vn -0.010142 0.866231 0.499541
vn -0.005809 0.500421 0.865762
vn -0.000000 -0.000000 1.000000
vn 0.005809 -0.500422 0.865762
vn 0.010142 -0.866231 0.499541
vn 0.011758 -0.999931 0.000000
vn 0.010142 -0.866231 -0.499541
vn 0.005809 -0.500421 -0.865763
vn 0.218465 0.500421 -0.837766
vn 0.258819 0.000000 -0.965926
vn 0.119494 0.866231 -0.485144
vn -0.011357 0.999931 -0.003043
vn -0.139087 0.866231 0.479895
vn -0.229687 0.500422 0.834759
vn -0.258819 0.000000 0.965926
vn -0.218465 -0.500422 0.837766
vn -0.119495 -0.866231 0.485144
vn 0.011357 -0.999931 0.003043
vn 0.139087 -0.866231 -0.479895
vn 0.229687 -0.500421 -0.834759
vn 0.427851 0.500421 -0.752677
vn 0.500000 0.000000 -0.866025
vn 0.240987 0.866231 -0.437686
vn -0.010183 0.999931 -0.005879
vn -0.258554 0.866231 0.427544
vn -0.437912 0.500422 0.746868
vn -0.500000 0.000000 0.866025
vn -0.427851 -0.500422 0.752677
vn -0.240987 -0.866231 0.437686
vn 0.010183 -0.999931 0.005879
vn 0.258554 -0.866231 -0.427544
vn 0.437912 -0.500421 -0.746868
vn 0.608079 0.500422 -0.616294
vn 0.707107 0.000000 -0.707107
vn 0.346057 0.866231 -0.360400
vn -0.008314 0.999931 -0.008314
vn -0.360400 0.866231 0.346057
vn -0.616294 0.500421 0.608079
vn -0.707107 -0.000000 0.707107
vn -0.608079 -0.500422 0.616294
vn -0.346057 -0.866231 0.360400
vn 0.008314 -0.999931 0.008314
vn 0.360400 -0.866231 -0.346057
vn 0.616294 -0.500421 -0.608079
vn 0.746868 0.500421 -0.437912
vn 0.866026 -0.000000 -0.500000
vn 0.427544 0.866231 -0.258554
vn -0.005879 0.999931 -0.010183
vn -0.437686 0.866231 0.240987
vn -0.752677 0.500422 0.427851
vn -0.866025 -0.000000 0.500000
vn -0.746868 -0.500422 0.437912
vn -0.427544 -0.866231 0.258554
vn 0.005879 -0.999931 0.010183
vn 0.437686 -0.866231 -0.240987
vn 0.752677 -0.500421 -0.427851
vn 0.834759 0.500421 -0.229687
vn 0.965926 0.000000 -0.258819
vn 0.479895 0.866231 -0.139087
vn -0.003043 0.999931 -0.011357
vn -0.485145 0.866231 0.119494
vn -0.837766 0.500422 0.218465
vn -0.965926 0.000000 0.258819
vn -0.834759 -0.500422 0.229687
vn -0.479895 -0.866231 0.139087
vn 0.003043 -0.999931 0.011357
vn 0.485145 -0.866231 -0.119494
vn 0.837766 -0.500421 -0.218465
# 288 vertex normals

g Material_1
f 1/1/1 2/2/2 3/3/3
f 1/1/1 4/4/4 2/2/2
f 4/4/4 5/5/5 2/2/2
f 4/4/4 6/6/6 5/5/5
f 6/6/6 7/7/7 5/5/5
f 6/6/6 8/8/8 7/7/7
f 8/8/8 9/9/9 7/7/7
f 8/8/8 10/10/10 9/9/9
f 10/10/10 11/11/11 9/9/9
f 10/10/10 12/12/12 11/11/11
f 12/12/12 13/13/13 11/11/11
f 12/12/12 14/14/14 13/13/13
f 14/14/14 15/15/15 13/13/13
f 14/14/14 16/16/16 15/15/15
f 16/16/16 17/17/17 15/15/15
f 16/16/16 18/18/18 17/17/17
f 18/18/18 19/19/19 17/17/17
f 18/18/18 20/20/20 19/19/19
f 20/20/20 21/21/21 19/19/19
f 20/20/20 22/22/22 21/21/21
f 22/22/22 23/23/23 21/21/21
f 22/22/22 24/24/24 23/23/23
f 24/24/24 3/3/3 23/23/23
f 24/24/24 1/1/1 3/3/3
f 3/3/3 25/25/25 26/26/26
f 3/3/3 2/2/2 25/25/25
f 2/2/2 27/27/27 25/25/25
f 2/2/2 5/5/5 27/27/27
f 5/5/5 28/28/28 27/27/27
f 5/5/5 7/7/7 28/28/28
f 7/7/7 29/29/29 28/28/28
f 7/7/7 9/9/9 29/29/29
f 9/9/9 30/30/30 29/29/29
f 9/9/9 11/11/11 30/30/30
f 11/11/11 31/31/31 30/30/30
f 11/11/11 13/13/13 31/31/31
f 13/13/13 32/32/32 31/31/31
f 13/13/13 15/15/15 32/32/32
f 15/15/15 33/33/33 32/32/32
f 15/15/15 17/17/17 33/33/33
f 17/17/17 34/34/34 33/33/33
f 17/17/17 19/19/19 34/34/34
f 19/19/19 35/35/35 34/34/34
f 19/19/19 21/21/21 35/35/35
f 21/21/21 36/36/36 35/35/35
f 21/21/21 23/23/23 36/36/36
f 23/23/23 26/26/26 36/36/36
f 23/23/23 3/3/3 26/26/26
f 26/26/26 37/37/37 38/38/38
f 26/26/26 25/25/25 37/37/37
f 25/25/25 39/39/39 37/37/37
f 25/25/25 27/27/27 39/39/39
f 27/27/27 40/40/40 39/39/39
f 27/27/27 28/28/28 40/40/40
f 28/28/28 41/41/41 40/40/40
f 28/28/28 29/29/29 41/41/41
f 29/29/29 42/42/42 41/41/41
f 29/29/29 30/30/30 42/42/42
f 30/30/30 43/43/43 42/42/42
f 30/30/30 31/31/31 43/43/43
f 31/31/31 44/44/44 43/43/43
f 31/31/31 32/32/32 44/44/44
f 32/32/32 45/45/45 44/44/44
f 32/32/32 33/33/33 45/45/45
f 33/33/33 46/46/46 45/45/45
f 33/33/33 34/34/34 46/46/46
f 34/34/34 47/47/47 46/46/46
f 34/34/34 35/35/35 47/47/47
f 35/35/35 48/48/48 47/47/47
f 35/35/35 36/36/36 48/48/48
f 36/36/36 38/38/38 48/48/48
f 36/36/36 26/26/26 38/38/38
f 38/38/38 49/49/49 50/50/50
f 38/38/38 37/37/37 49/49/49
f 37/37/37 51/51/51 49/49/49
f 37/37/37 39/39/39 51/51/51
f 39/39/39 52/52/52 51/51/51
f 39/39/39 40/40/40 52/52/52
f 40/40/40 53/53/53 52/52/52
f 40/40/40 41/41/41 53/53/53
f 41/41/41 54/54/54 53/53/53
f 41/41/41 42/42/42 54/54/54
f 42/42/42 55/55/55 54/54/54
f 42/42/42 43/43/43 55/55/55
f 43/43/43 56/56/56 55/55/55
f 43/43/43 44/44/44 56/56/56
f 44/44/44 57/57/57 56/56/56
f 44/44/44 45/45/45 57/57/57
f 45/45/45 58/58/58 57/57/57
f 45/45/45 46/46/46 58/58/58
f 46/46/46 59/59/59 58/58/58
f 46/46/46 47/47/47 59/59/59
f 47/47/47 60/60/60 59/59/59
f 47/47/47 48/48/48 60/60/60
f 48/48/48 50/50/50 60/60/60
f 48/48/48 38/38/38 50/50/50
f 50/50/50 61/61/61 62/62/62
f 50/50/50 49/49/49 61/61/61
f 49/49/49 63/63/63 61/61/61
f 49/49/49 51/51/51 63/63/63
f 51/51/51 64/64/64 63/63/63
f 51/51/51 52/52/52 64/64/64
f 52/52/52 65/65/65 64/64/64
f 52/52/52 53/53/53 65/65/65
f 53/53/53 66/66/66 65/65/65
f 53/53/53 54/54/54 66/66/66
f 54/54/54 67/67/67 66/66/66
f 54/54/54 55/55/55 67/67/67
f 55/55/55 68/68/68 67/67/67
f 55/55/55 56/56/56 68/68/68
f 56/56/56 69/69/69 68/68/68
f 56/56/56 57/57/57 69/69/69
f 57/57/57 70/70/70 69/69/69
f 57/57/57 58/58/58 70/70/70
f 58/58/58 71/71/71 70/70/70
f 58/58/58 59/59/59 71/71/71
f 59/59/59 72/72/72 71/71/71
f 59/59/59 60/60/60 72/72/72
f 60/60/60 62/62/62 72/72/72
f 60/60/60 50/50/50 62/62/62
f 62/62/62 73/73/73 74/74/74
f 62/62/62 61/61/61 73/73/73
f 61/61/61 75/75/75 73/73/73
f 61/61/61 63/63/63 75/75/75
f 63/63/63 76/76/76 75/75/75
f 63/63/63 64/64/64 76/76/76
f 64/64/64 77/77/77 76/76/76
f 64/64/64 65/65/65 77/77/77
f 65/65/65 78/78/78 77/77/77
f 65/65/65 66/66/66 78/78/78
f 66/66/66 79/79/79 78/78/78
f 66/66/66 67/67/67 79/79/79
f 67/67/67 80/80/80 79/79/79
f 67/67/67 68/68/68 80/80/80
f 68/68/68 81/81/81 80/80/80
f 68/68/68 69/69/69 81/81/81
f 69/69/69 82/82/82 81/81/81
f 69/69/69 70/70/70 82/82/82
f 70/70/70 83/83/83 82/82/82
f 70/70/70 71/71/71 83/83/83
f 71/71/71 84/84/84 83/83/83
f 71/71/71 72/72/72 84/84/84
f 72/72/72 74/74/74 84/84/84
f 72/72/72 62/62/62 74/74/74
f 74/74/74 85/85/85 86/86/86
f 74/74/74 73/73/73 85/85/85
f 73/73/73 87/87/87 85/85/85
f 73/73/73 75/75/75 87/87/87
f 75/75/75 88/88/88 87/87/87
f 75/75/75 76/76/76 88/88/88
f 76/76/76 89/89/89 88/88/88
f 76/76/76 77/77/77 89/89/89
f 77/77/77 90/90/90 89/89/89
f 77/77/77 78/78/78 90/90/90
f 78/78/78 91/91/91 90/90/90
f 78/78/78 79/79/79 91/91/91
f 79/79/79 92/92/92 91/91/91
f 79/79/79 80/80/80 92/92/92
f 80/80/80 93/93/93 92/92/92
f 80/80/80 81/81/81 93/93/93
f 81/81/81 94/94/94 93/93/93
f 81/81/81 82/82/82 94/94/94
f 82/82/82 95/95/95 94/94/94
f 82/82/82 83/83/83 95/95/95
f 83/83/83 96/96/96 95/95/95
f 83/83/83 84/84/84 96/96/96
f 84/84/84 86/86/86 96/96/96
f 84/84/84 74/74/74 86/86/86
f 86/86/86 97/97/97 98/98/98
f 86/86/86 85/85/85 97/97/97
f 85/85/85 99/99/99 97/97/97
f 85/85/85 87/87/87 99/99/99
f 87/87/87 100/100/100 99/99/99
f 87/87/87 88/88/88 100/100/100
f 88/88/88 101/101/101 100/100/100
f 88/88/88 89/89/89 101/101/101
f 89/89/89 102/102/102 101/101/101
f 89/89/89 90/90/90 102/102/102
f 90/90/90 103/103/103 102/102/102
f 90/90/90 91/91/91 103/103/103
f 91/91/91 104/104/104 103/103/103
f 91/91/91 92/92/92 104/104/104
f 92/92/92 105/105/105 104/104/104
f 92/92/92 93/93/93 105/105/105
f 93/93/93 106/106/106 105/105/105
f 93/93/93 94/94/94 106/106/106
f 94/94/94 107/107/107 106/106/106
f 94/94/94 95/95/95 107/107/107
f 95/95/95 108/108/108 107/107/107
f 95/95/95 96/96/96 108/108/108
f 96/96/96 98/98/98 108/108/108
f 96/96/96 86/86/86 98/98/98
f 98/98/98 109/109/109 110/110/110
f 98/98/98 97/97/97 109/109/109
f 97/97/97 111/111/111 109/109/109
f 97/97/97 99/99/99 111/111/111
f 99/99/99 112/112/112 111/111/111
f 99/99/99 100/100/100 112/112/112
f 100/100/100 113/113/113 112/112/112
f 100/100/100 101/101/101 113/113/113
f 101/101/101 114/114/114 113/113/113
f 101/101/101 102/102/102 114/114/114
f 102/102/102 115/115/115 114/114/114
f 102/102/102 103/103/103 115/115/115
f 103/103/103 116/116/116 115/115/115
f 103/103/103 104/104/104 116/116/116
f 104/104/104 117/117/117 116/116/116
f 104/104/104 105/105/105 117/117/117
f 105/105/105 118/118/118 117/117/117
f 105/105/105 106/106/106 118/118/118
f 106/106/106 119/119/119 118/118/118
f 106/106/106 107/107/107 119/119/119
f 107/107/107 120/120/120 119/119/119
f 107/107/107 108/108/108 120/120/120
f 108/108/108 110/110/110 120/120/120
f 108/108/108 98/98/98 110/110/110
f 110/110/110 121/121/121 122/122/122
f 110/110/110 109/109/109 121/121/121
f 109/109/109 123/123/123 121/121/121
f 109/109/109 111/111/111 123/123/123
f 111/111/111 124/124/124 123/123/123
f 111/111/111 112/112/112 124/124/124
f 112/112/112 125/125/125 124/124/124
f 112/112/112 113/113/113 125/125/125
f 113/113/113 126/126/126 125/125/125
f 113/113/113 114/114/114 126/126/126
f 114/114/114 127/127/127 126/126/126
f 114/114/114 115/115/115 127/127/127
f 115/115/115 128/128/128 127/127/127
f 115/115/115 116/116/116 128/128/128
f 116/116/116 129/129/129 128/128/128
f 116/116/116 117/117/117 129/129/129
f 117/117/117 130/130/130 129/129/129
f 117/117/117 118/118/118 130/130/130
f 118/118/118 131/131/131 130/130/130
f 118/118/118 119/119/119 131/131/131
f 119/119/119 132/132/132 131/131/131
f 119/119/119 120/120/120 132/132/132
f 120/120/120 122/122/122 132/132/132
f 120/120/120 110/110/110 122/122/122
f 122/122/122 133/133/133 134/134/134
f 122/122/122 121/121/121 133/133/133
f 121/121/121 135/135/135 133/133/133
f 121/121/121 123/123/123 135/135/135
f 123/123/123 136/136/136 135/135/135
f 123/123/123 124/124/124 136/136/136
f 124/124/124 137/137/137 136/136/136
f 124/124/124 125/125/125 137/137/137
f 125/125/125 138/138/138 137/137/137
f 125/125/125 126/126/126 138/138/138
f 126/126/126 139/139/139 138/138/138
f 126/126/126 127/127/127 139/139/139
f 127/127/127 140/140/140 139/139/139
f 127/127/127 128/128/128 140/140/140
f 128/128/128 141/141/141 140/140/140
f 128/128/128 129/129/129 141/141/141
f 129/129/129 142/142/142 141/141/141
f 129/129/129 130/130/130 142/142/142
f 130/130/130 143/143/143 142/142/142
f 130/130/130 131/131/131 143/143/143
f 131/131/131 144/144/144 143/143/143
f 131/131/131 132/132/132 144/144/144
f 132/132/132 134/134/134 144/144/144
f 132/132/132 122/122/122 134/134/134
f 134/134/134 145/145/145 146/146/146
f 134/134/134 133/133/133 145/145/145
f 133/133/133 147/147/147 145/145/145
f 133/133/133 135/135/135 147/147/147
f 135/135/135 148/148/148 147/147/147
f 135/135/135 136/136/136 148/148/148
f 136/136/136 149/149/149 148/148/148
f 136/136/136 137/137/137 149/149/149
f 137/137/137 150/150/150 149/149/149
f 137/137/137 138/138/138 150/150/150
f 138/138/138 151/151/151 150/150/150
f 138/138/138 139/139/139 151/151/151
f 139/139/139 152/152/152 151/151/151
f 139/139/139 140/140/140 152/152/152
f 140/140/140 153/153/153 152/152/152
f 140/140/140 141/141/141 153/153/153
f 141/141/141 154/154/154 153/153/153
f 141/141/141 142/142/142 154/154/154
f 142/142/142 155/155/155 154/154/154
f 142/142/142 143/143/143 155/155/155
f 143/143/143 156/156/156 155/155/155
f 143/143/143 144/144/144 156/156/156
f 144/144/144 146/146/146 156/156/156
f 144/144/144 134/134/134 146/146/146
f 146/146/146 157/157/157 158/158/158
f 146/146/146 145/145/145 157/157/157
f 145/145/145 159/159/159 157/157/157
f 145/145/145 147/147/147 159/159/159
f 147/147/147 160/160/160 159/159/159
f 147/147/147 148/148/148 160/160/160
f 148/148/148 161/161/161 160/160/160
f 148/148/148 149/149/149 161/161/161
f 149/149/149 162/162/162 161/161/161
f 149/149/149 150/150/150 162/162/162
f 150/150/150 163/163/163 162/162/162
f 150/150/150 151/151/151 163/163/163
f 151/151/151 164/164/164 163/163/163
f 151/151/151 152/152/152 164/164/164
f 152/152/152 165/165/165 164/164/164
f 152/152/152 153/153/153 165/165/165
f 153/153/153 166/166/166 165/165/165
f 153/153/153 154/154/154 166/166/166
f 154/154/154 167/167/167 166/166/166
f 154/154/154 155/155/155 167/167/167
f 155/155/155 168/168/168 167/167/167
f 155/155/155 156/156/156 168/168/168
f 156/156/156 158/158/158 168/168/168
f 156/156/156 146/146/146 158/158/158
f 158/158/158 169/169/169 170/170/170
f 158/158/158 157/157/157 169/169/169
f 157/157/157 171/171/171 169/169/169
f 157/157/157 159/159/159 171/171/171
f 159/159/159 172/172/172 171/171/171
f 159/159/159 160/160/160 172/172/172
f 160/160/160 173/173/173 172/172/172
f 160/160/160 161/161/161 173/173/173
f 161/161/161 174/174/174 173/173/173
f 161/161/161 162/162/162 174/174/174
f 162/162/162 175/175/175 174/174/174
f 162/162/162 163/163/163 175/175/175
f 163/163/163 176/176/176 175/175/175
f 163/163/163 164/164/164 176/176/176
f 164/164/164 177/177/177 176/176/176
f 164/164/164 165/165/165 177/177/177
f 165/165/165 178/178/178 177/177/177
f 165/165/165 166/166/166 178/178/178
f 166/166/166 179/179/179 178/178/178
f 166/166/166 167/167/167 179/179/179
f 167/167/167 180/180/180 179/179/179
f 167/167/167 168/168/168 180/180/180
f 168/168/168 170/170/170 180/180/180
f 168/168/168 158/158/158 170/170/170
f 170/170/170 181/181/181 182/182/182
f 170/170/170 169/169/169 181/181/181
f 169/169/169 183/183/183 181/181/181
f 169/169/169 171/171/171 183/183/183
f 171/171/171 184/184/184 183/183/183
f 171/171/171 172/172/172 184/184/184
f 172/172/172 185/185/185 184/184/184
f 172/172/172 173/173/173 185/185/185
f 173/173/173 186/186/186 185/185/185
f 173/173/173 174/174/174 186/186/186
f 174/174/174 187/187/187 186/186/186
f 174/174/174 175/175/175 187/187/187
f 175/175/175 188/188/188 187/187/187
f 175/175/175 176/176/176 188/188/188
f 176/176/176 189/189/189 188/188/188
f 176/176/176 177/177/177 189/189/189
f 177/177/177 190/190/190 189/189/189
f 177/177/177 178/178/178 190/190/190
f 178/178/178 191/191/191 190/190/190
f 178/178/178 179/179/179 191/191/191
f 179/179/179 192/192/192 191/191/191
f 179/179/179 180/180/180 192/192/192
f 180/180/180 182/182/182 192/192/192
f 180/180/180 170/170/170 182/182/182
f 182/182/182 193/193/193 194/194/194
f 182/182/182 181/181/181 193/193/193
f 181/181/181 195/195/195 193/193/193
f 181/181/181 183/183/183 195/195/195
f 183/183/183 196/196/196 195/195/195
f 183/183/183 184/184/184 196/196/196
f 184/184/184 197/197/197 196/196/196
f 184/184/184 185/185/185 197/197/197
f 185/185/185 198/198/198 197/197/197
f 185/185/185 186/186/186 198/198/198
f 186/186/186 199/199/199 198/198/198
f 186/186/186 187/187/187 199/199/199
f 187/187/187 200/200/200 199/199/199
f 187/187/187 188/188/188 200/200/200
f 188/188/188 201/201/201 200/200/200
f 188/188/188 189/189/189 201/201/201
f 189/189/189 202/202/202 201/201/201
f 189/189/189 190/190/190 202/202/202
f 190/190/190 203/203/203 202/202/202
f 190/190/190 191/191/191 203/203/203
f 191/191/191 204/204/204 203/203/203
f 191/191/191 192/192/192 204/204/204
f 192/192/192 194/194/194 204/204/204
f 192/192/192 182/182/182 194/194/194
f 194/194/194 205/205/205 206/206/206
f 194/194/194 193/193/193 205/205/205
f 193/193/193 207/207/207 205/205/205
f 193/193/193 195/195/195 207/207/207
f 195/195/195 208/208/208 207/207/207
f 195/195/195 196/196/196 208/208/208
f 196/196/196 209/209/209 208/208/208
f 196/196/196 197/197/197 209/209/209
f 197/197/197 210/210/210 209/209/209
f 197/197/197 198/198/198 210/210/210
f 198/198/198 211/211/211 210/210/210
f 198/198/198 199/199/199 211/211/211
f 199/199/199 212/212/212 211/211/211
f 199/199/199 200/200/200 212/212/212
f 200/200/200 213/213/213 212/212/212
f 200/200/200 201/201/201 213/213/213
f 201/201/201 214/214/214 213/213/213
f 201/201/201 202/202/202 214/214/214
f 202/202/202 215/215/215 214/214/214
f 202/202/202 203/203/203 215/215/215
f 203/203/203 216/216/216 215/215/215
f 203/203/203 204/204/204 216/216/216
f 204/204/204 206/206/206 216/216/216
f 204/204/204 194/194/194 206/206/206
f 206/206/206 217/217/217 218/218/218
f 206/206/206 205/205/205 217/217/217
f 205/205/205 219/219/219 217/217/217
f 205/205/205 207/207/207 219/219/219
f 207/207/207 220/220/220 219/219/219
f 207/207/207 208/208/208 220/220/220
f 208/208/208 221/221/221 220/220/220
f 208/208/208 209/209/209 221/221/221
f 209/209/209 222/222/222 221/221/221
f 209/209/209 210/210/210 222/222/222
f 210/210/210 223/223/223 222/222/222
f 210/210/210 211/211/211 223/223/223
f 211/211/211 224/224/224 223/223/223
f 211/211/211 212/212/212 224/224/224
f 212/212/212 225/225/225 224/224/224
f 212/212/212 213/213/213 225/225/225
f 213/213/213 226/226/226 225/225/225
f 213/213/213 214/214/214 226/226/226
f 214/214/214 227/227/227 226/226/226
f 214/214/214 215/215/215 227/227/227
f 215/215/215 228/228/228 227/227/227
f 215/215/215 216/216/216 228/228/228
f 216/216/216 218/218/218 228/228/228
f 216/216/216 206/206/206 218/218/218
f 218/218/218 229/229/229 230/230/230
f 218/218/218 217/217/217 229/229/229
f 217/217/217 231/231/231 229/229/229
f 217/217/217 219/219/219 231/231/231
f 219/219/219 232/232/232 231/231/231
f 219/219/219 220/220/220 232/232/232
f 220/220/220 233/233/233 232/232/232
f 220/220/220 221/221/221 233/233/233
f 221/221/221 234/234/234 233/233/233
f 221/221/221 222/222/222 234/234/234
f 222/222/222 235/235/235 234/234/234
f 222/222/222 223/223/223 235/235/235
f 223/223/223 236/236/236 235/235/235
f 223/223/223 224/224/224 236/236/236
f 224/224/224 237/237/237 236/236/236
f 224/224/224 225/225/225 237/237/237
f 225/225/225 238/238/238 237/237/237
f 225/225/225 226/226/226 238/238/238
f 226/226/226 239/239/239 238/238/238
f 226/226/226 227/227/227 239/239/239
f 227/227/227 240/240/240 239/239/239
f 227/227/227 228/228/228 240/240/240
f 228/228/228 230/230/230 240/240/240
f 228/228/228 218/218/218 230/230/230
f 230/230/230 241/241/241 242/242/242
f 230/230/230 229/229/229 241/241/241
f 229/229/229 243/243/243 241/241/241
f 229/229/229 231/231/231 243/243/243
f 231/231/231 244/244/244 243/243/243
f 231/231/231 232/232/232 244/244/244
f 232/232/232 245/245/245 244/244/244
f 232/232/232 233/233/233 245/245/245
f 233/233/233 246/246/246 245/245/245
f 233/233/233 234/234/234 246/246/246
f 234/234/234 247/247/247 246/246/246
f 234/234/234 235/235/235 247/247/247
f 235/235/235 248/248/248 247/247/247
f 235/235/235 236/236/236 248/248/248
f 236/236/236 249/249/249 248/248/248
f 236/236/236 237/237/237 249/249/249
f 237/237/237 250/250/250 249/249/249
f 237/237/237 238/238/238 250/250/250
f 238/238/238 251/251/251 250/250/250
f 238/238/238 239/239/239 251/251/251
f 239/239/239 252/252/252 251/251/251
f 239/239/239 240/240/240 252/252/252
f 240/240/240 242/242/242 252/252/252
f 240/240/240 230/230/230 242/242/242
f 242/242/242 253/253/253 254/254/254
f 242/242/242 241/241/241 253/253/253
f 241/241/241 255/255/255 253/253/253
f 241/241/241 243/243/243 255/255/255
f 243/243/243 256/256/256 255/255/255
f 243/243/243 244/244/244 256/256/256
f 244/244/244 257/257/257 256/256/256
f 244/244/244 245/245/245 257/257/257
f 245/245/245 258/258/258 257/257/257
f 245/245/245 246/246/246 258/258/258
f 246/246/246 259/259/259 258/258/258
f 246/246/246 247/247/247 259/259/259
f 247/247/247 260/260/260 259/259/259
f 247/247/247 248/248/248 260/260/260
f 248/248/248 261/261/261 260/260/260
f 248/248/248 249/249/249 261/261/261
f 249/249/249 262/262/262 261/261/261
f 249/249/249 250/250/250 262/262/262
f 250/250/250 263/263/263 262/262/262
f 250/250/250 251/251/251 263/263/263
f 251/251/251 264/264/264 263/263/263
f 251/251/251 252/252/252 264/264/264
f 252/252/252 254/254/254 264/264/264
f 252/252/252 242/242/242 254/254/254
f 254/254/254 265/265/265 266/266/266
f 254/254/254 253/253/253 265/265/265
f 253/253/253 267/267/267 265/265/265
f 253/253/253 255/255/255 267/267/267
f 255/255/255 268/268/268 267/267/267
f 255/255/255 256/256/256 268/268/268
f 256/256/256 269/269/269 268/268/268
f 256/256/256 257/257/257 269/269/269
f 257/257/257 270/270/270 269/269/269
f 257/257/257 258/258/258 270/270/270
f 258/258/258 271/271/271 270/270/270
f 258/258/258 259/259/259 271/271/271
f 259/259/259 272/272/272 271/271/271
f 259/259/259 260/260/260 272/272/272
f 260/260/260 273/273/273 272/272/272
f 260/260/260 261/261/261 273/273/273
f 261/261/261 274/274/274 273/273/273
f 261/261/261 262/262/262 274/274/274
f 262/262/262 275/275/275 274/274/274
f 262/262/262 263/263/263 275/275/275
f 263/263/263 276/276/276 275/275/275
f 263/263/263 264/264/264 276/276/276
f 264/264/264 266/266/266 276/276/276
f 264/264/264 254/254/254 266/266/266
f 266/266/266 277/277/277 278/278/278
f 266/266/266 265/265/265 277/277/277
f 265/265/265 279/279/279 277/277/277
f 265/265/265 267/267/267 279/279/279
f 267/267/267 280/280/280 279/279/279
f 267/267/267 268/268/268 280/280/280
f 268/268/268 281/281/281 280/280/280
f 268/268/268 269/269/269 281/281/281
f 269/269/269 282/282/282 281/281/281
f 269/269/269 270/270/270 282/282/282
f 270/270/270 283/283/283 282/282/282
f 270/270/270 271/271/271 283/283/283
f 271/271/271 284/284/284 283/283/283
f 271/271/271 272/272/272 284/284/284
f 272/272/272 285/285/285 284/284/284
f 272/272/272 273/273/273 285/285/285
f 273/273/273 286/286/286 285/285/285
f 273/273/273 274/274/274 286/286/286
f 274/274/274 287/287/287 286/286/286
f 274/274/274 275/275/275 287/287/287
f 275/275/275 288/288/288 287/287/287
f 275/275/275 276/276/276 288/288/288
f 276/276/276 278/278/278 288/288/288
f 276/276/276 266/266/266 278/278/278
f 278/278/278 4/4/4 1/1/1
f 278/278/278 277/277/277 4/4/4
f 277/277/277 6/6/6 4/4/4
f 277/277/277 279/279/279 6/6/6
f 279/279/279 8/8/8 6/6/6
f 279/279/279 280/280/280 8/8/8
f 280/280/280 10/10/10 8/8/8
f 280/280/280 281/281/281 10/10/10
f 281/281/281 12/12/12 10/10/10
f 281/281/281 282/282/282 12/12/12
f 282/282/282 14/14/14 12/12/12
f 282/282/282 283/283/283 14/14/14
f 283/283/283 16/16/16 14/14/14
f 283/283/283 284/284/284 16/16/16
f 284/284/284 18/18/18 16/16/16
f 284/284/284 285/285/285 18/18/18
f 285/285/285 20/20/20 18/18/18
f 285/285/285 286/286/286 20/20/20
f 286/286/286 22/22/22 20/20/20
f 286/286/286 287/287/287 22/22/22
f 287/287/287 24/24/24 22/22/22
f 287/287/287 288/288/288 24/24/24
f 288/288/288 1/1/1 24/24/24
f 288/288/288 278/278/278 1/1/1
# 576 faces

