v -0.027146 1.921032 0.072932
v -0.027146 1.847923 0.597825
v 0.472057 1.847923 0.235133
v -0.027146 1.634161 1.082761
v 0.477769 1.718247 0.767887
v 0.933259 1.634161 0.384986
v -0.027146 1.296018 1.490825
v 0.481247 1.422387 1.259732
v 0.944466 1.422387 0.923184
v 1.321351 1.296018 0.511085
v -0.027146 0.859235 1.790955
v 0.472057 0.971617 1.653026
v 0.933259 1.010052 1.394815
v 1.321351 0.971617 1.035978
v 1.606792 0.859235 0.603831
v -0.027146 1.921032 0.072932
v 0.281379 1.847923 -0.351715
v 0.789823 1.718247 -0.192517
v 0.566417 1.634161 -0.744036
v 1.258670 1.422387 -0.043837
v 1.081736 1.422387 -0.588383
v 0.806271 1.296018 -1.074167
v 1.629875 0.971617 0.086438
v 1.526821 1.010052 -0.431982
v 1.305474 0.971617 -0.911967
v 0.982683 0.859235 -1.316978
v -0.027146 1.921032 0.072932
v 0.281379 1.847923 -0.351715
v -0.335670 1.847923 -0.351715
v 0.566417 1.634161 -0.744036
v -0.027146 1.718247 -0.786079
v -0.620708 1.634161 -0.744036
v 0.259139 1.422387 -1.186035
v 0.259139 1.422387 -1.186035
v -0.313431 1.422387 -1.186035
v -0.860562 1.296018 -1.074167
v 0.497747 0.971617 -1.498814
v 0.497747 0.971617 -1.498814
v -0.027146 1.010052 -1.561005
v -0.552038 0.971617 -1.498814
v -1.036974 0.859235 -1.316977
v -0.027146 1.921032 0.072932
v -0.526348 1.847923 0.235133
v -0.844114 1.718247 -0.192517
v -0.987550 1.634161 0.384987
v -1.136028 1.422387 -0.588383
v -1.312961 1.422387 -0.043836
v -1.375642 1.296018 0.511086
v -1.359765 0.971617 -0.911966
v -1.581112 1.010052 -0.431982
v -1.684166 0.971617 0.086439
v -1.661083 0.859235 0.603831
v -0.027146 1.921032 0.072932
v -0.532060 1.718247 0.767887
v -0.998757 1.422387 0.923184
v -0.535538 1.422387 1.259732
v -1.375642 0.971617 1.035978
v -0.987550 1.010052 1.394815
v -0.526348 0.971617 1.653026
v -0.335670 0.446724 1.915472
v 0.281379 0.446724 1.915472
v -0.620708 0.000224 1.899729
v -0.027145 0.000224 1.993740
v 0.566417 0.000224 1.899729
v -0.860562 -0.446276 1.744925
v -0.313430 -0.489820 1.907981
v 0.259140 -0.489820 1.907980
v 0.806271 -0.446276 1.744924
v -1.036974 -0.858788 1.462842
v -0.552038 -0.971169 1.644679
v -0.027145 -1.009605 1.706869
v 0.497747 -0.971169 1.644679
v 0.982683 -0.858788 1.462842
v 1.629875 0.446724 0.935732
v 1.820553 0.446724 0.348885
v 1.526821 0.000224 1.201955
v 1.799652 0.000224 0.666495
v 1.893663 0.000224 0.072932
v 1.305474 -0.446276 1.382232
v 1.629622 -0.489820 0.912266
v 1.806556 -0.489820 0.367720
v 1.820553 -0.446276 -0.203020
v 1.305474 -0.971169 1.057831
v 1.526821 -1.009605 0.577847
v 1.629875 -0.971169 0.059426
v 1.606791 -0.858788 -0.457966
v 1.305474 0.446724 -1.236368
v 0.806271 0.446724 -1.599060
v 1.526821 0.000224 -1.056090
v 1.101877 0.000224 -1.481034
v 0.566417 0.000224 -1.753865
v 1.629875 -0.446276 -0.789868
v 1.283078 -0.489820 -1.243379
v 0.819859 -0.489820 -1.579927
v 0.281378 -0.446276 -1.769608
v 1.321351 -0.971169 -0.890113
v 0.933258 -1.009605 -1.248950
v 0.472057 -0.971169 -1.507161
v 0.281378 -0.446276 -1.769608
v 0.472057 -0.971169 -1.507161
v -0.027146 -0.858788 -1.645090
v -0.860563 0.446724 -1.599060
v -1.359765 0.446724 -1.236368
v -0.620708 0.000224 -1.753864
v -1.156168 0.000224 -1.481034
v -1.581112 0.000224 -1.056090
v -0.335670 -0.446276 -1.769608
v -0.874150 -0.489820 -1.579926
v -1.337369 -0.489820 -1.243378
v -1.684166 -0.446276 -0.789868
v -0.526348 -0.971169 -1.507161
v -0.987550 -1.009605 -1.248950
v -1.375642 -0.971169 -0.890113
v -1.661083 -0.858788 -0.457966
v -1.874845 0.446724 0.348885
v -1.684166 0.446724 0.935733
v -1.947954 0.000224 0.072932
v -1.853943 0.000224 0.666495
v -1.581112 0.000224 1.201955
v -1.874845 -0.446276 -0.203020
v -1.860847 -0.489820 0.367720
v -1.683913 -0.489820 0.912267
v -1.359764 -0.446276 1.382233
v -1.684166 -0.971169 0.059426
v -1.581112 -1.009605 0.577847
v -1.359765 -0.971169 1.057832
v 1.101877 0.000224 1.626899
v 1.283078 0.490268 1.389243
v 0.819859 0.490268 1.725791
v 1.799652 0.000224 -0.520630
v 1.629622 0.490268 -0.766402
v 1.806556 0.490268 -0.221856
v -0.027146 0.000224 -1.847875
v 0.566417 0.000224 -1.753865
v -0.313431 0.490268 -1.762116
v 0.259139 0.490268 -1.762116
v 0.259139 0.490268 -1.762116
v -1.853943 0.000224 -0.520630
v -1.860847 0.490268 -0.221855
v -1.683913 0.490268 -0.766402
v -1.156168 0.000224 1.626899
v -0.874150 0.490268 1.725792
v -1.337369 0.490268 1.389244
v -0.027146 -1.920584 0.072932
v 0.472057 -1.847475 -0.089268
v 0.281379 -1.847475 0.497579
v 0.933259 -1.633713 -0.239122
v 0.789823 -1.717799 0.338381
v 0.566417 -1.633713 0.889901
v 1.321351 -1.295570 -0.365221
v 1.258670 -1.421939 0.189701
v 1.081736 -1.421939 0.734248
v 0.806271 -1.295570 1.220032
v -0.027146 -1.920584 0.072932
v -0.027146 -1.847475 -0.451960
v 0.472057 -1.847475 -0.089268
v -0.027146 -1.633713 -0.936896
v 0.477769 -1.717799 -0.622022
v 0.477769 -1.717799 -0.622022
v -0.027146 -1.295570 -1.344961
v 0.481247 -1.421939 -1.113867
v 0.481247 -1.421939 -1.113867
v 0.944466 -1.421939 -0.777319
v -0.027146 -1.920584 0.072932
v -0.526348 -1.847475 -0.089268
v -0.987550 -1.633713 -0.239122
v -0.532060 -1.717799 -0.622022
v -1.375642 -1.295570 -0.365221
v -0.998757 -1.421939 -0.777319
v -0.535538 -1.421939 -1.113867
v -0.027146 -1.920584 0.072932
v -0.335670 -1.847475 0.497579
v -0.620708 -1.633713 0.889901
v -0.844114 -1.717799 0.338382
v -0.860562 -1.295570 1.220032
v -1.136027 -1.421939 0.734248
v -1.312961 -1.421939 0.189701
v -0.027146 -1.920584 0.072932
v -0.027145 -1.717799 0.931944
v 0.259140 -1.421939 1.331899
v -0.313430 -1.421939 1.331899
# 181 vertices

vt 0.600000 0.000000
vt 0.500000 0.088104
vt 0.700000 0.088104
vt 0.500000 0.176208
vt 0.600000 0.147584
vt 0.700000 0.176208
vt 0.500000 0.264312
vt 0.564414 0.234637
vt 0.635586 0.234637
vt 0.700000 0.264312
vt 0.500000 0.352416
vt 0.548703 0.331227
vt 0.600000 0.323792
vt 0.651297 0.331227
vt 0.700000 0.352416
vt 0.800000 0.000000
vt 0.900000 0.088104
vt 0.800000 0.147584
vt 0.900000 0.176208
vt 0.764414 0.234637
vt 0.835586 0.234637
vt 0.900000 0.264312
vt 0.748703 0.331227
vt 0.800000 0.323792
vt 0.851297 0.331227
vt 0.900000 0.352416
vt 0.000000 0.000000
vt -0.100000 0.088104
vt 0.100000 0.088104
vt -0.100000 0.176208
vt 0.000000 0.147584
vt 0.100000 0.176208
vt 0.964414 0.234637
vt -0.035586 0.234637
vt 0.035586 0.234637
vt 0.100000 0.264312
vt 0.948703 0.331227
vt -0.051297 0.331227
vt 0.000000 0.323792
vt 0.051297 0.331227
vt 0.100000 0.352416
vt 0.200000 0.000000
vt 0.300000 0.088104
vt 0.200000 0.147584
vt 0.300000 0.176208
vt 0.164414 0.234637
vt 0.235586 0.234637
vt 0.300000 0.264312
vt 0.148703 0.331227
vt 0.200000 0.323792
vt 0.251297 0.331227
vt 0.300000 0.352416
vt 0.400000 0.000000
vt 0.400000 0.147584
vt 0.364414 0.234637
vt 0.435586 0.234637
vt 0.348703 0.331227
vt 0.400000 0.323792
vt 0.451297 0.331227
vt 0.473595 0.425324
vt 0.526405 0.425324
vt 0.450000 0.500000
vt 0.500000 0.500000
vt 0.550000 0.500000
vt 0.426405 0.574676
vt 0.475369 0.582116
vt 0.524631 0.582116
vt 0.573595 0.574676
vt 0.400000 0.647584
vt 0.448703 0.668773
vt 0.500000 0.676208
vt 0.551297 0.668773
vt 0.600000 0.647584
vt 0.673595 0.425324
vt 0.726405 0.425324
vt 0.650000 0.500000
vt 0.700000 0.500000
vt 0.750000 0.500000
vt 0.626405 0.574676
vt 0.675369 0.582116
vt 0.724631 0.582116
vt 0.773595 0.574676
vt 0.648703 0.668773
vt 0.700000 0.676208
vt 0.751297 0.668773
vt 0.800000 0.647584
vt 0.873595 0.425324
vt 0.926405 0.425324
vt 0.850000 0.500000
vt 0.900000 0.500000
vt 0.950000 0.500000
vt 0.826405 0.574676
vt 0.875369 0.582116
vt 0.924631 0.582116
vt 0.973595 0.574676
vt 0.848703 0.668773
vt 0.900000 0.676208
vt 0.951297 0.668773
vt -0.026405 0.574676
vt -0.048703 0.668773
vt 0.000000 0.647584
vt 0.073595 0.425324
vt 0.126405 0.425324
vt 0.050000 0.500000
vt 0.100000 0.500000
vt 0.150000 0.500000
vt 0.026405 0.574676
vt 0.075369 0.582116
vt 0.124631 0.582116
vt 0.173595 0.574676
vt 0.048703 0.668773
vt 0.100000 0.676208
vt 0.151297 0.668773
vt 0.200000 0.647584
vt 0.273595 0.425324
vt 0.326405 0.425324
vt 0.250000 0.500000
vt 0.300000 0.500000
vt 0.350000 0.500000
vt 0.226405 0.574676
vt 0.275369 0.582116
vt 0.324631 0.582116
vt 0.373595 0.574676
vt 0.248703 0.668773
vt 0.300000 0.676208
vt 0.351297 0.668773
vt 0.600000 0.500000
vt 0.624631 0.417884
vt 0.575369 0.417884
vt 0.800000 0.500000
vt 0.824631 0.417884
vt 0.775369 0.417884
vt 0.000000 0.500000
vt -0.050000 0.500000
vt 0.024631 0.417884
vt -0.024631 0.417884
vt 0.975369 0.417884
vt 0.200000 0.500000
vt 0.224631 0.417884
vt 0.175369 0.417884
vt 0.400000 0.500000
vt 0.424631 0.417884
vt 0.375369 0.417884
vt 0.700000 1.000000
vt 0.800000 0.911896
vt 0.600000 0.911896
vt 0.800000 0.823792
vt 0.700000 0.852416
vt 0.600000 0.823792
vt 0.800000 0.735688
vt 0.735586 0.765363
vt 0.664414 0.765363
vt 0.600000 0.735688
vt -0.100000 1.000000
vt 0.000000 0.911896
vt -0.200000 0.911896
vt 0.000000 0.823792
vt -0.100000 0.852416
vt 0.900000 0.852416
vt 0.000000 0.735688
vt -0.064414 0.765363
vt 0.935586 0.765363
vt 0.864414 0.765363
vt 0.100000 1.000000
vt 0.200000 0.911896
vt 0.200000 0.823792
vt 0.100000 0.852416
vt 0.200000 0.735688
vt 0.135586 0.765363
vt 0.064414 0.765363
vt 0.300000 1.000000
vt 0.400000 0.911896
vt 0.400000 0.823792
vt 0.300000 0.852416
vt 0.400000 0.735688
vt 0.335586 0.765363
vt 0.264414 0.765363
vt 0.500000 1.000000
vt 0.500000 0.852416
vt 0.535586 0.765363
vt 0.464414 0.765363
# 181 texture vertices

vn -0.000000 1.000000 -0.000000
vn 0.000000 0.965478 0.260485
vn 0.247736 0.965478 0.080494
vn 0.000000 0.852937 0.522014
vn 0.265735 0.891970 0.365753
vn 0.496465 0.852937 0.161311
vn 0.000000 0.668248 0.743938
vn 0.267864 0.735618 0.622186
vn 0.508959 0.735618 0.447020
vn 0.707528 0.668248 0.229890
vn 0.000000 0.447214 0.894427
vn 0.251964 0.504458 0.825855
vn 0.500000 0.525731 0.688191
vn 0.707573 0.504458 0.494835
vn 0.850651 0.447214 0.276393
vn -0.000000 1.000000 -0.000000
vn 0.153109 0.965478 -0.210737
vn 0.429968 0.891970 -0.139705
vn 0.306832 0.852937 -0.422318
vn 0.674508 0.735618 -0.062488
vn 0.582418 0.735618 -0.345912
vn 0.437276 0.668248 -0.601859
vn 0.863295 0.504458 0.015571
vn 0.809017 0.525731 -0.262866
vn 0.689268 0.504459 -0.520030
vn 0.525731 0.447214 -0.723607
vn -0.000000 1.000000 -0.000000
vn 0.153109 0.965478 -0.210737
vn -0.153109 0.965478 -0.210737
vn 0.306832 0.852937 -0.422318
vn -0.000000 0.891970 -0.452095
vn -0.306832 0.852937 -0.422318
vn 0.149005 0.735618 -0.660806
vn 0.149005 0.735618 -0.660806
vn -0.149005 0.735618 -0.660805
vn -0.437276 0.668248 -0.601859
vn 0.281582 0.504458 -0.816231
vn 0.281582 0.504458 -0.816231
vn -0.000000 0.525731 -0.850651
vn -0.281582 0.504458 -0.816231
vn -0.525731 0.447214 -0.723607
vn -0.000000 1.000000 -0.000000
vn -0.247736 0.965478 0.080494
vn -0.429968 0.891970 -0.139705
vn -0.496465 0.852937 0.161311
vn -0.582418 0.735618 -0.345912
vn -0.674508 0.735618 -0.062488
vn -0.707527 0.668248 0.229890
vn -0.689268 0.504458 -0.520030
vn -0.809017 0.525731 -0.262865
vn -0.863295 0.504458 0.015572
vn -0.850651 0.447214 0.276393
vn -0.000000 1.000000 -0.000000
vn -0.265735 0.891970 0.365753
vn -0.508959 0.735618 0.447020
vn -0.267864 0.735618 0.622186
vn -0.707573 0.504459 0.494835
vn -0.500000 0.525731 0.688191
vn -0.251964 0.504459 0.825855
vn -0.155657 0.242172 0.957666
vn 0.155658 0.242173 0.957665
vn -0.309017 -0.000000 0.951057
vn 0.000000 -0.005465 0.999985
vn 0.309017 0.000000 0.951057
vn -0.436972 -0.242172 0.866261
vn -0.149005 -0.262064 0.953478
vn 0.149005 -0.262064 0.953478
vn 0.436972 -0.242173 0.866261
vn -0.525731 -0.447214 0.723607
vn -0.281582 -0.504459 0.816231
vn 0.000000 -0.525731 0.850651
vn 0.281582 -0.504458 0.816231
vn 0.525731 -0.447213 0.723607
vn 0.862693 0.242172 0.443974
vn 0.958895 0.242172 0.147896
vn 0.809017 -0.000000 0.587785
vn 0.951042 -0.005466 0.309012
vn 1.000000 -0.000000 0.000000
vn 0.688831 -0.242173 0.683274
vn 0.860766 -0.262064 0.436353
vn 0.952856 -0.262064 0.152929
vn 0.958895 -0.242173 -0.147896
vn 0.689268 -0.504458 0.520030
vn 0.809017 -0.525731 0.262866
vn 0.863295 -0.504459 -0.015571
vn 0.850651 -0.447214 -0.276393
vn 0.688831 0.242173 -0.683274
vn 0.436972 0.242173 -0.866261
vn 0.809017 -0.000000 -0.587785
vn 0.587776 -0.005466 -0.809005
vn 0.309017 -0.000000 -0.951057
vn 0.862693 -0.242173 -0.443974
vn 0.680988 -0.262064 -0.683797
vn 0.439893 -0.262064 -0.858963
vn 0.155658 -0.242172 -0.957666
vn 0.707573 -0.504458 -0.494835
vn 0.500000 -0.525731 -0.688191
vn 0.251964 -0.504459 -0.825855
vn 0.155658 -0.242172 -0.957666
vn 0.251964 -0.504459 -0.825855
vn -0.000000 -0.447214 -0.894427
vn -0.436972 0.242172 -0.866261
vn -0.688831 0.242173 -0.683274
vn -0.309017 -0.000000 -0.951056
vn -0.587776 -0.005466 -0.809005
vn -0.809017 -0.000000 -0.587785
vn -0.155658 -0.242172 -0.957666
vn -0.439893 -0.262064 -0.858963
vn -0.680987 -0.262064 -0.683797
vn -0.862693 -0.242173 -0.443974
vn -0.251964 -0.504458 -0.825855
vn -0.500000 -0.525731 -0.688191
vn -0.707573 -0.504459 -0.494835
vn -0.850651 -0.447214 -0.276393
vn -0.958895 0.242173 0.147896
vn -0.862693 0.242173 0.443974
vn -1.000000 0.000000 -0.000000
vn -0.951042 -0.005465 0.309013
vn -0.809017 -0.000000 0.587786
vn -0.958895 -0.242173 -0.147896
vn -0.952856 -0.262064 0.152929
vn -0.860766 -0.262064 0.436353
vn -0.688831 -0.242172 0.683275
vn -0.863295 -0.504459 -0.015571
vn -0.809017 -0.525731 0.262866
vn -0.689268 -0.504458 0.520030
vn 0.587776 0.005465 0.809005
vn 0.680988 0.262064 0.683797
vn 0.439893 0.262064 0.858963
vn 0.951042 0.005465 -0.309012
vn 0.860766 0.262064 -0.436353
vn 0.952856 0.262064 -0.152929
vn -0.000000 0.005465 -0.999985
vn 0.309017 -0.000000 -0.951057
vn -0.149005 0.262064 -0.953478
vn 0.149005 0.262064 -0.953478
vn 0.149005 0.262064 -0.953478
vn -0.951042 0.005465 -0.309012
vn -0.952856 0.262064 -0.152929
vn -0.860766 0.262064 -0.436353
vn -0.587776 0.005465 0.809005
vn -0.439893 0.262064 0.858963
vn -0.680988 0.262064 0.683797
vn 0.000000 -1.000000 0.000000
vn 0.247736 -0.965478 -0.080494
vn 0.153109 -0.965478 0.210737
vn 0.496465 -0.852937 -0.161311
vn 0.429968 -0.891970 0.139705
vn 0.306832 -0.852937 0.422318
vn 0.707527 -0.668248 -0.229890
vn 0.674508 -0.735618 0.062488
vn 0.582418 -0.735618 0.345912
vn 0.437276 -0.668248 0.601859
vn 0.000000 -1.000000 0.000000
vn 0.000000 -0.965478 -0.260485
vn 0.247736 -0.965478 -0.080494
vn 0.000000 -0.852937 -0.522014
vn 0.265735 -0.891970 -0.365753
vn 0.265735 -0.891970 -0.365753
vn -0.000000 -0.668248 -0.743939
vn 0.267864 -0.735618 -0.622186
vn 0.267864 -0.735618 -0.622186
vn 0.508959 -0.735618 -0.447020
vn 0.000000 -1.000000 0.000000
vn -0.247736 -0.965478 -0.080494
vn -0.496465 -0.852937 -0.161311
vn -0.265735 -0.891970 -0.365753
vn -0.707527 -0.668248 -0.229890
vn -0.508959 -0.735618 -0.447020
vn -0.267864 -0.735618 -0.622186
vn 0.000000 -1.000000 0.000000
vn -0.153109 -0.965478 0.210737
vn -0.306832 -0.852937 0.422319
vn -0.429968 -0.891970 0.139705
vn -0.437276 -0.668248 0.601859
vn -0.582418 -0.735618 0.345912
vn -0.674508 -0.735618 0.062488
vn 0.000000 -1.000000 0.000000
vn 0.000000 -0.891970 0.452096
vn 0.149005 -0.735618 0.660806
vn -0.149005 -0.735618 0.660806
# 181 vertex normals

g Material_1
f 1/1/1 2/2/2 3/3/3
f 2/2/2 4/4/4 5/5/5
f 2/2/2 5/5/5 3/3/3
f 3/3/3 5/5/5 6/6/6
f 4/4/4 7/7/7 8/8/8
f 4/4/4 8/8/8 5/5/5
f 5/5/5 8/8/8 9/9/9
f 5/5/5 9/9/9 6/6/6
f 6/6/6 9/9/9 10/10/10
f 7/7/7 11/11/11 12/12/12
f 7/7/7 12/12/12 8/8/8
f 8/8/8 12/12/12 13/13/13
f 8/8/8 13/13/13 9/9/9
f 9/9/9 13/13/13 14/14/14
f 9/9/9 14/14/14 10/10/10
f 10/10/10 14/14/14 15/15/15
f 16/16/16 3/3/3 17/17/17
f 3/3/3 6/6/6 18/18/18
f 3/3/3 18/18/18 17/17/17
f 17/17/17 18/18/18 19/19/19
f 6/6/6 10/10/10 20/20/20
f 6/6/6 20/20/20 18/18/18
f 18/18/18 20/20/20 21/21/21
f 18/18/18 21/21/21 19/19/19
f 19/19/19 21/21/21 22/22/22
f 10/10/10 15/15/15 23/23/23
f 10/10/10 23/23/23 20/20/20
f 20/20/20 23/23/23 24/24/24
f 20/20/20 24/24/24 21/21/21
f 21/21/21 24/24/24 25/25/25
f 21/21/21 25/25/25 22/22/22
f 22/22/22 25/25/25 26/26/26
f 27/27/27 28/28/28 29/29/29
f 28/28/28 30/30/30 31/31/31
f 28/28/28 31/31/31 29/29/29
f 29/29/29 31/31/31 32/32/32
f 19/19/19 22/22/22 33/33/33
f 30/30/30 34/34/34 31/31/31
f 31/31/31 34/34/34 35/35/35
f 31/31/31 35/35/35 32/32/32
f 32/32/32 35/35/35 36/36/36
f 22/22/22 26/26/26 37/37/37
f 22/22/22 37/37/37 33/33/33
f 34/34/34 38/38/38 39/39/39
f 34/34/34 39/39/39 35/35/35
f 35/35/35 39/39/39 40/40/40
f 35/35/35 40/40/40 36/36/36
f 36/36/36 40/40/40 41/41/41
f 42/42/42 29/29/29 43/43/43
f 29/29/29 32/32/32 44/44/44
f 29/29/29 44/44/44 43/43/43
f 43/43/43 44/44/44 45/45/45
f 32/32/32 36/36/36 46/46/46
f 32/32/32 46/46/46 44/44/44
f 44/44/44 46/46/46 47/47/47
f 44/44/44 47/47/47 45/45/45
f 45/45/45 47/47/47 48/48/48
f 36/36/36 41/41/41 49/49/49
f 36/36/36 49/49/49 46/46/46
f 46/46/46 49/49/49 50/50/50
f 46/46/46 50/50/50 47/47/47
f 47/47/47 50/50/50 51/51/51
f 47/47/47 51/51/51 48/48/48
f 48/48/48 51/51/51 52/52/52
f 53/53/53 43/43/43 2/2/2
f 43/43/43 45/45/45 54/54/54
f 43/43/43 54/54/54 2/2/2
f 2/2/2 54/54/54 4/4/4
f 45/45/45 48/48/48 55/55/55
f 45/45/45 55/55/55 54/54/54
f 54/54/54 55/55/55 56/56/56
f 54/54/54 56/56/56 4/4/4
f 4/4/4 56/56/56 7/7/7
f 48/48/48 52/52/52 57/57/57
f 48/48/48 57/57/57 55/55/55
f 55/55/55 57/57/57 58/58/58
f 55/55/55 58/58/58 56/56/56
f 56/56/56 58/58/58 59/59/59
f 56/56/56 59/59/59 7/7/7
f 7/7/7 59/59/59 11/11/11
f 11/11/11 60/60/60 61/61/61
f 60/60/60 62/62/62 63/63/63
f 60/60/60 63/63/63 61/61/61
f 61/61/61 63/63/63 64/64/64
f 62/62/62 65/65/65 66/66/66
f 62/62/62 66/66/66 63/63/63
f 63/63/63 66/66/66 67/67/67
f 63/63/63 67/67/67 64/64/64
f 64/64/64 67/67/67 68/68/68
f 65/65/65 69/69/69 70/70/70
f 65/65/65 70/70/70 66/66/66
f 66/66/66 70/70/70 71/71/71
f 66/66/66 71/71/71 67/67/67
f 67/67/67 71/71/71 72/72/72
f 67/67/67 72/72/72 68/68/68
f 68/68/68 72/72/72 73/73/73
f 15/15/15 74/74/74 75/75/75
f 74/74/74 76/76/76 77/77/77
f 74/74/74 77/77/77 75/75/75
f 75/75/75 77/77/77 78/78/78
f 76/76/76 79/79/79 80/80/80
f 76/76/76 80/80/80 77/77/77
f 77/77/77 80/80/80 81/81/81
f 77/77/77 81/81/81 78/78/78
f 78/78/78 81/81/81 82/82/82
f 79/79/79 73/73/73 83/83/83
f 79/79/79 83/83/83 80/80/80
f 80/80/80 83/83/83 84/84/84
f 80/80/80 84/84/84 81/81/81
f 81/81/81 84/84/84 85/85/85
f 81/81/81 85/85/85 82/82/82
f 82/82/82 85/85/85 86/86/86
f 26/26/26 87/87/87 88/88/88
f 87/87/87 89/89/89 90/90/90
f 87/87/87 90/90/90 88/88/88
f 88/88/88 90/90/90 91/91/91
f 89/89/89 92/92/92 93/93/93
f 89/89/89 93/93/93 90/90/90
f 90/90/90 93/93/93 94/94/94
f 90/90/90 94/94/94 91/91/91
f 91/91/91 94/94/94 95/95/95
f 92/92/92 86/86/86 96/96/96
f 92/92/92 96/96/96 93/93/93
f 93/93/93 96/96/96 97/97/97
f 93/93/93 97/97/97 94/94/94
f 94/94/94 97/97/97 98/98/98
f 94/94/94 98/98/98 95/95/95
f 99/99/99 100/100/100 101/101/101
f 41/41/41 102/102/102 103/103/103
f 102/102/102 104/104/104 105/105/105
f 102/102/102 105/105/105 103/103/103
f 103/103/103 105/105/105 106/106/106
f 104/104/104 107/107/107 108/108/108
f 104/104/104 108/108/108 105/105/105
f 105/105/105 108/108/108 109/109/109
f 105/105/105 109/109/109 106/106/106
f 106/106/106 109/109/109 110/110/110
f 107/107/107 101/101/101 111/111/111
f 107/107/107 111/111/111 108/108/108
f 108/108/108 111/111/111 112/112/112
f 108/108/108 112/112/112 109/109/109
f 109/109/109 112/112/112 113/113/113
f 109/109/109 113/113/113 110/110/110
f 110/110/110 113/113/113 114/114/114
f 52/52/52 115/115/115 116/116/116
f 115/115/115 117/117/117 118/118/118
f 115/115/115 118/118/118 116/116/116
f 116/116/116 118/118/118 119/119/119
f 117/117/117 120/120/120 121/121/121
f 117/117/117 121/121/121 118/118/118
f 118/118/118 121/121/121 122/122/122
f 118/118/118 122/122/122 119/119/119
f 119/119/119 122/122/122 123/123/123
f 120/120/120 114/114/114 124/124/124
f 120/120/120 124/124/124 121/121/121
f 121/121/121 124/124/124 125/125/125
f 121/121/121 125/125/125 122/122/122
f 122/122/122 125/125/125 126/126/126
f 122/122/122 126/126/126 123/123/123
f 123/123/123 126/126/126 69/69/69
f 73/73/73 79/79/79 68/68/68
f 79/79/79 76/76/76 127/127/127
f 79/79/79 127/127/127 68/68/68
f 68/68/68 127/127/127 64/64/64
f 76/76/76 74/74/74 128/128/128
f 76/76/76 128/128/128 127/127/127
f 127/127/127 128/128/128 129/129/129
f 127/127/127 129/129/129 64/64/64
f 64/64/64 129/129/129 61/61/61
f 74/74/74 15/15/15 14/14/14
f 74/74/74 14/14/14 128/128/128
f 128/128/128 14/14/14 13/13/13
f 128/128/128 13/13/13 129/129/129
f 129/129/129 13/13/13 12/12/12
f 129/129/129 12/12/12 61/61/61
f 61/61/61 12/12/12 11/11/11
f 86/86/86 92/92/92 82/82/82
f 92/92/92 89/89/89 130/130/130
f 92/92/92 130/130/130 82/82/82
f 82/82/82 130/130/130 78/78/78
f 89/89/89 87/87/87 131/131/131
f 89/89/89 131/131/131 130/130/130
f 130/130/130 131/131/131 132/132/132
f 130/130/130 132/132/132 78/78/78
f 78/78/78 132/132/132 75/75/75
f 87/87/87 26/26/26 25/25/25
f 87/87/87 25/25/25 131/131/131
f 131/131/131 25/25/25 24/24/24
f 131/131/131 24/24/24 132/132/132
f 132/132/132 24/24/24 23/23/23
f 132/132/132 23/23/23 75/75/75
f 75/75/75 23/23/23 15/15/15
f 101/101/101 107/107/107 99/99/99
f 107/107/107 104/104/104 133/133/133
f 107/107/107 133/133/133 99/99/99
f 99/99/99 133/133/133 134/134/134
f 104/104/104 102/102/102 135/135/135
f 104/104/104 135/135/135 133/133/133
f 133/133/133 135/135/135 136/136/136
f 133/133/133 136/136/136 134/134/134
f 91/91/91 137/137/137 88/88/88
f 102/102/102 41/41/41 40/40/40
f 102/102/102 40/40/40 135/135/135
f 135/135/135 40/40/40 39/39/39
f 135/135/135 39/39/39 136/136/136
f 136/136/136 39/39/39 38/38/38
f 137/137/137 37/37/37 88/88/88
f 88/88/88 37/37/37 26/26/26
f 114/114/114 120/120/120 110/110/110
f 120/120/120 117/117/117 138/138/138
f 120/120/120 138/138/138 110/110/110
f 110/110/110 138/138/138 106/106/106
f 117/117/117 115/115/115 139/139/139
f 117/117/117 139/139/139 138/138/138
f 138/138/138 139/139/139 140/140/140
f 138/138/138 140/140/140 106/106/106
f 106/106/106 140/140/140 103/103/103
f 115/115/115 52/52/52 51/51/51
f 115/115/115 51/51/51 139/139/139
f 139/139/139 51/51/51 50/50/50
f 139/139/139 50/50/50 140/140/140
f 140/140/140 50/50/50 49/49/49
f 140/140/140 49/49/49 103/103/103
f 103/103/103 49/49/49 41/41/41
f 69/69/69 65/65/65 123/123/123
f 65/65/65 62/62/62 141/141/141
f 65/65/65 141/141/141 123/123/123
f 123/123/123 141/141/141 119/119/119
f 62/62/62 60/60/60 142/142/142
f 62/62/62 142/142/142 141/141/141
f 141/141/141 142/142/142 143/143/143
f 141/141/141 143/143/143 119/119/119
f 119/119/119 143/143/143 116/116/116
f 60/60/60 11/11/11 59/59/59
f 60/60/60 59/59/59 142/142/142
f 142/142/142 59/59/59 58/58/58
f 142/142/142 58/58/58 143/143/143
f 143/143/143 58/58/58 57/57/57
f 143/143/143 57/57/57 116/116/116
f 116/116/116 57/57/57 52/52/52
f 144/144/144 145/145/145 146/146/146
f 145/145/145 147/147/147 148/148/148
f 145/145/145 148/148/148 146/146/146
f 146/146/146 148/148/148 149/149/149
f 147/147/147 150/150/150 151/151/151
f 147/147/147 151/151/151 148/148/148
f 148/148/148 151/151/151 152/152/152
f 148/148/148 152/152/152 149/149/149
f 149/149/149 152/152/152 153/153/153
f 150/150/150 86/86/86 85/85/85
f 150/150/150 85/85/85 151/151/151
f 151/151/151 85/85/85 84/84/84
f 151/151/151 84/84/84 152/152/152
f 152/152/152 84/84/84 83/83/83
f 152/152/152 83/83/83 153/153/153
f 153/153/153 83/83/83 73/73/73
f 154/154/154 155/155/155 156/156/156
f 155/155/155 157/157/157 158/158/158
f 155/155/155 158/158/158 156/156/156
f 145/145/145 159/159/159 147/147/147
f 157/157/157 160/160/160 161/161/161
f 157/157/157 161/161/161 158/158/158
f 159/159/159 162/162/162 163/163/163
f 159/159/159 163/163/163 147/147/147
f 147/147/147 163/163/163 150/150/150
f 160/160/160 101/101/101 100/100/100
f 160/160/160 100/100/100 161/161/161
f 162/162/162 98/98/98 97/97/97
f 162/162/162 97/97/97 163/163/163
f 163/163/163 97/97/97 96/96/96
f 163/163/163 96/96/96 150/150/150
f 150/150/150 96/96/96 86/86/86
f 164/164/164 165/165/165 155/155/155
f 165/165/165 166/166/166 167/167/167
f 165/165/165 167/167/167 155/155/155
f 155/155/155 167/167/167 157/157/157
f 166/166/166 168/168/168 169/169/169
f 166/166/166 169/169/169 167/167/167
f 167/167/167 169/169/169 170/170/170
f 167/167/167 170/170/170 157/157/157
f 157/157/157 170/170/170 160/160/160
f 168/168/168 114/114/114 113/113/113
f 168/168/168 113/113/113 169/169/169
f 169/169/169 113/113/113 112/112/112
f 169/169/169 112/112/112 170/170/170
f 170/170/170 112/112/112 111/111/111
f 170/170/170 111/111/111 160/160/160
f 160/160/160 111/111/111 101/101/101
f 171/171/171 172/172/172 165/165/165
f 172/172/172 173/173/173 174/174/174
f 172/172/172 174/174/174 165/165/165
f 165/165/165 174/174/174 166/166/166
f 173/173/173 175/175/175 176/176/176
f 173/173/173 176/176/176 174/174/174
f 174/174/174 176/176/176 177/177/177
f 174/174/174 177/177/177 166/166/166
f 166/166/166 177/177/177 168/168/168
f 175/175/175 69/69/69 126/126/126
f 175/175/175 126/126/126 176/176/176
f 176/176/176 126/126/126 125/125/125
f 176/176/176 125/125/125 177/177/177
f 177/177/177 125/125/125 124/124/124
f 177/177/177 124/124/124 168/168/168
f 168/168/168 124/124/124 114/114/114
f 178/178/178 146/146/146 172/172/172
f 146/146/146 149/149/149 179/179/179
f 146/146/146 179/179/179 172/172/172
f 172/172/172 179/179/179 173/173/173
f 149/149/149 153/153/153 180/180/180
f 149/149/149 180/180/180 179/179/179
f 179/179/179 180/180/180 181/181/181
f 179/179/179 181/181/181 173/173/173
f 173/173/173 181/181/181 175/175/175
f 153/153/153 73/73/73 72/72/72
f 153/153/153 72/72/72 180/180/180
f 180/180/180 72/72/72 71/71/71
f 180/180/180 71/71/71 181/181/181
f 181/181/181 71/71/71 70/70/70
f 181/181/181 70/70/70 175/175/175
f 175/175/175 70/70/70 69/69/69
# 320 faces

