v 0.282632 -0.578491 -0.050781
v 0.189195 -0.578491 -0.043989
v 0.199599 -0.453493 -0.050781
v -0.284402 -0.578491 0.133206
v -0.190965 -0.578491 0.126414
v -0.201369 -0.453493 0.133206
v -0.020031 -0.578491 0.186301
v 0.087608 -0.578491 0.164326
v 0.081588 -0.453493 0.168429
v -0.047739 -0.453493 0.182078
v 0.201557 0.372317 0.272387
v 0.222410 0.372317 0.034046
v 0.199550 0.384283 0.032046
v 0.175392 0.384283 0.270097
v 0.173385 0.372317 0.029757
v 0.152532 0.372317 0.268097
v 0.224443 -0.091968 0.010216
v 0.221440 -0.082620 0.045128
v 0.205327 -0.092780 0.042089
v 0.206832 -0.098023 0.019915
v 0.191017 -0.097721 0.017647
v 0.213509 -0.097721 -0.053586
v 0.196925 -0.168259 -0.050908
v 0.197544 -0.096525 -0.056321
v 0.180072 -0.091964 -0.046150
v -0.305397 0.372349 0.140627
v -0.255238 0.384281 -0.169249
v -0.278113 0.372345 -0.171250
v -0.279217 0.384281 0.142917
v -0.229088 0.372280 -0.166961
v -0.256373 0.372284 0.144916
v -0.269393 0.026234 0.096534
v -0.255679 0.027009 0.131195
v -0.248745 0.010691 0.052262
v -0.138414 0.000138 0.113887
v -0.139254 -0.080547 0.163515
v -0.134939 -0.080547 0.114192
v -0.142729 0.000139 0.163210
v -0.114012 0.000134 -0.165038
v -0.114853 -0.080550 -0.115410
v -0.110538 -0.080551 -0.164733
v -0.118327 0.000135 -0.115715
v -0.032427 0.486446 -0.004431
v -0.040664 0.484404 -0.065876
v -0.054293 0.485554 -0.032779
v -0.016074 0.484120 -0.072273
v 0.009564 0.484482 -0.059379
v -0.032427 0.486446 -0.004431
v 0.015966 0.485291 -0.034803
v 0.003068 0.486188 -0.009181
v -0.050797 -0.683904 -0.017978
v -0.032278 -0.682139 0.036055
v -0.056888 -0.682945 0.010051
v -0.030357 -0.684468 -0.033063
v 0.003964 -0.684220 -0.022840
v 0.012269 -0.683073 0.011977
v -0.007029 -0.682305 0.033206
v 0.189195 -0.578491 -0.043989
v 0.138903 -0.578491 0.043709
v 0.138903 -0.453493 0.038716
v 0.199599 -0.453493 -0.050781
v 0.138903 -0.578491 0.043709
v 0.199599 -0.578491 0.133206
v 0.189195 -0.453493 0.126414
v 0.138903 -0.453493 0.038716
v 0.282633 -0.453493 0.133206
v -0.190965 -0.578491 0.126414
v -0.140672 -0.578491 0.038716
v -0.140672 -0.453493 0.043709
v -0.201369 -0.453493 0.133206
v -0.140672 -0.578491 0.038716
v -0.201369 -0.578491 -0.050781
v -0.190965 -0.453493 -0.043989
v -0.140672 -0.453493 0.043709
v -0.284402 -0.453493 -0.050781
v 0.087608 -0.578491 0.164326
v 0.148963 -0.578491 0.037691
v 0.150527 -0.453493 0.033401
v 0.081588 -0.453493 0.168429
v 0.148963 -0.578491 0.037691
v 0.097683 -0.578491 -0.069801
v 0.150527 -0.453493 0.033401
v 0.068058 -0.453493 -0.093815
v 0.018270 -0.578491 -0.103875
v -0.000825 -0.628490 0.188703
v 0.290093 -0.628490 0.128814
v 0.288102 -0.578491 0.129379
v -0.000935 -0.578491 0.188703
v 0.294835 -0.628490 -0.044570
v -0.000935 -0.628491 -0.106278
v -0.000825 -0.578491 -0.106278
v 0.290093 -0.578491 -0.046388
v -0.291863 -0.628491 -0.046388
v -0.343680 -0.628491 0.036013
v -0.345098 -0.578491 0.038717
v -0.289871 -0.578491 -0.046954
v -0.343680 -0.628491 0.036013
v -0.296604 -0.628491 0.126995
v -0.345098 -0.578491 0.038717
v -0.291863 -0.578491 0.128814
v 0.230989 0.372317 -0.064003
v 0.251149 0.372317 -0.294420
v 0.228289 0.384283 -0.296420
v 0.204824 0.384283 -0.066293
v 0.258845 0.437891 -0.382385
v 0.258461 -0.005547 -0.377437
v 0.243588 -0.001756 -0.390891
v 0.243375 0.447891 -0.393777
v 0.240217 -0.039830 -0.357462
v 0.254031 -0.047353 -0.327343
v 0.244652 -0.118049 -0.220149
v 0.228392 -0.128749 -0.224488
v 0.237841 -0.191128 -0.142385
v 0.216327 -0.171801 -0.178708
v 0.213229 -0.215845 -0.143306
v 0.233546 -0.287622 -0.093235
v 0.210967 -0.265555 -0.117444
v 0.216966 -0.341985 -0.090887
v 0.231546 -0.403332 -0.070346
v 0.215811 -0.458432 -0.077684
v 0.230995 -0.557211 -0.063979
v 0.207560 -0.569343 -0.078494
v 0.221666 -0.557235 0.042585
v 0.221472 -0.453020 0.044807
v 0.204152 -0.457032 0.053120
v 0.196110 -0.569343 0.052368
v 0.219535 -0.297437 0.066850
v 0.202894 -0.340465 0.066580
v 0.192702 -0.265555 0.091318
v 0.214273 -0.182938 0.126972
v 0.190439 -0.215845 0.117180
v 0.187341 -0.171801 0.152582
v 0.207742 -0.115677 0.201714
v 0.191502 -0.128050 0.200578
v 0.179795 -0.039595 0.333086
v 0.196372 -0.028503 0.331682
v 0.194007 0.004309 0.358942
v 0.176987 -0.001035 0.366615
v 0.193030 0.437853 0.368315
v 0.176631 0.382316 0.369081
v 0.226679 -0.001034 -0.392741
v 0.227033 0.447891 -0.395207
v 0.223872 -0.039595 -0.359212
v 0.212166 -0.128051 -0.226703
v 0.200775 -0.340466 -0.092707
v 0.199518 -0.457028 -0.079246
v 0.187859 -0.458437 0.051558
v 0.186703 -0.341985 0.064761
v 0.175275 -0.128748 0.198364
v 0.163450 -0.039831 0.331336
v 0.160078 -0.001757 0.364765
v 0.163690 0.449583 0.368358
v 0.202124 0.372317 -0.298710
v 0.181964 0.372317 -0.068293
v 0.209515 -0.001935 -0.383732
v 0.209820 0.437891 -0.386674
v 0.205006 -0.047353 -0.331632
v 0.195925 -0.115678 -0.227838
v 0.189394 -0.182938 -0.153098
v 0.184133 -0.297437 -0.092976
v 0.182198 -0.453016 -0.070934
v 0.182004 -0.557235 -0.068711
v 0.172677 -0.557211 0.037854
v 0.172124 -0.403331 0.044220
v 0.170122 -0.287623 0.067109
v 0.165827 -0.191130 0.116258
v 0.159015 -0.118048 0.194024
v 0.147594 -0.030923 0.324551
v 0.145056 0.000889 0.353337
v 0.144819 0.372316 0.356259
v 0.229699 0.013177 -0.049370
v 0.231797 -0.024698 -0.073285
v 0.215927 -0.016528 -0.080769
v 0.214082 0.017454 -0.060156
v 0.235203 -0.047180 -0.112268
v 0.218891 -0.037008 -0.114809
v 0.251541 -0.046246 -0.298971
v 0.254843 -0.022237 -0.336700
v 0.237733 -0.016164 -0.329997
v 0.234730 -0.036860 -0.296148
v 0.256798 0.016894 -0.359098
v 0.239503 0.018004 -0.350400
v 0.256710 0.253521 -0.358163
v 0.254626 0.291396 -0.334249
v 0.237700 0.283227 -0.329635
v 0.239463 0.249245 -0.350255
v 0.251214 0.313880 -0.295268
v 0.234707 0.303707 -0.295598
v 0.234879 0.312944 -0.108565
v 0.231581 0.288936 -0.070833
v 0.215895 0.282863 -0.080406
v 0.218815 0.303560 -0.114263
v 0.229617 0.249806 -0.048437
v 0.214095 0.248695 -0.060007
v 0.199679 -0.016164 -0.081825
v 0.197909 0.018004 -0.061423
v 0.202683 -0.036861 -0.115675
v 0.221485 -0.016529 -0.331053
v 0.218522 -0.037008 -0.297014
v 0.223330 0.017454 -0.351667
v 0.221515 0.282863 -0.331416
v 0.223315 0.248695 -0.351816
v 0.218595 0.303560 -0.297559
v 0.199710 0.283228 -0.082188
v 0.202703 0.303707 -0.116225
v 0.197948 0.249245 -0.061567
v 0.182568 -0.022237 -0.075122
v 0.180613 0.016894 -0.052725
v 0.185875 -0.046244 -0.112853
v 0.205616 -0.024698 -0.338537
v 0.202206 -0.047182 -0.299556
v 0.207713 0.013177 -0.362453
v 0.205831 0.288935 -0.340988
v 0.207798 0.249804 -0.363382
v 0.202531 0.312944 -0.303258
v 0.182782 0.291397 -0.077573
v 0.186196 0.313880 -0.116555
v 0.180694 0.253522 -0.053657
v 0.222970 0.253522 0.027532
v 0.220883 0.291398 0.051448
v 0.203955 0.283227 0.056062
v 0.205717 0.249245 0.035441
v 0.217467 0.313879 0.090429
v 0.200961 0.303707 0.090100
v 0.201129 0.312941 0.277132
v 0.197833 0.288934 0.314862
v 0.182149 0.282863 0.305291
v 0.185069 0.303559 0.271434
v 0.195869 0.249804 0.337257
v 0.180349 0.248695 0.325690
v 0.195953 0.013178 0.336326
v 0.198050 -0.024698 0.312411
v 0.182182 -0.016529 0.304928
v 0.180336 0.017454 0.325541
v 0.201457 -0.047180 0.273429
v 0.185145 -0.037008 0.270888
v 0.217794 -0.046245 0.086726
v 0.221099 -0.022237 0.048995
v 0.203988 -0.016164 0.055699
v 0.200984 -0.036861 0.089549
v 0.223054 0.016894 0.026599
v 0.205757 0.018004 0.035297
v 0.187770 0.282864 0.054281
v 0.189570 0.248695 0.033881
v 0.184849 0.303559 0.088138
v 0.165964 0.283227 0.303509
v 0.168957 0.303706 0.269472
v 0.164202 0.249245 0.324130
v 0.165934 -0.016165 0.303872
v 0.164163 0.018004 0.324274
v 0.168937 -0.036861 0.270022
v 0.187739 -0.016529 0.054643
v 0.184776 -0.037008 0.088683
v 0.189584 0.017454 0.034030
v 0.172756 0.281375 0.037158
v 0.168787 0.312943 0.082439
v 0.149039 0.291396 0.308123
v 0.152454 0.313877 0.269142
v 0.146952 0.253521 0.332038
v 0.148824 -0.022237 0.310575
v 0.146869 0.016894 0.332971
v 0.152129 -0.046245 0.272844
v 0.171869 -0.024699 0.047159
v 0.168462 -0.047181 0.086141
v 0.173966 0.013177 0.023243
v 0.221440 -0.082620 0.045128
v 0.212515 -0.088222 0.144868
v 0.196636 -0.095831 0.131418
v 0.205327 -0.092780 0.042089
v 0.214138 -0.136710 0.128527
v 0.197928 -0.112762 0.127647
v 0.201445 -0.177605 0.085029
v 0.221415 -0.240244 0.045353
v 0.205123 -0.231086 0.038978
v 0.223451 -0.247041 0.022176
v 0.206753 -0.234863 0.025335
v 0.224484 -0.215232 0.010333
v 0.207601 -0.168258 0.014968
v 0.224443 -0.091968 0.010216
v 0.206832 -0.098023 0.019915
v 0.185493 -0.091203 0.079588
v 0.181081 -0.096655 0.130513
v 0.181626 -0.112421 0.126263
v 0.185082 -0.176811 0.084208
v 0.188869 -0.231104 0.037868
v 0.191474 -0.234270 0.022856
v 0.191223 -0.165766 0.014366
v 0.191017 -0.097721 0.017647
v 0.165745 -0.082754 0.117151
v 0.175390 -0.087302 0.007706
v 0.163628 -0.091745 0.141295
v 0.164411 -0.120936 0.132372
v 0.171918 -0.236821 0.046777
v 0.174875 -0.246532 0.014116
v 0.175725 -0.168029 0.003035
v 0.228979 -0.213268 -0.041083
v 0.213053 -0.234269 -0.058796
v 0.213303 -0.165772 -0.050305
v 0.230101 -0.247041 -0.053826
v 0.232611 -0.236822 -0.082716
v 0.215658 -0.231104 -0.073807
v 0.219445 -0.176809 -0.120148
v 0.240113 -0.120935 -0.168311
v 0.222727 -0.097988 -0.168565
v 0.240897 -0.091744 -0.177234
v 0.238782 -0.082753 -0.153090
v 0.219033 -0.091202 -0.115529
v 0.229148 -0.087294 -0.043637
v 0.213509 -0.097721 -0.053586
v 0.196925 -0.168259 -0.050908
v 0.197774 -0.234864 -0.061274
v 0.199404 -0.231086 -0.074917
v 0.203081 -0.177606 -0.120968
v 0.206598 -0.112762 -0.163586
v 0.207890 -0.095831 -0.167357
v 0.202452 -0.091912 -0.114024
v 0.197544 -0.096525 -0.056321
v 0.180043 -0.215231 -0.046272
v 0.180072 -0.091964 -0.046150
v 0.181076 -0.247041 -0.058115
v 0.183110 -0.240245 -0.081293
v 0.190390 -0.136709 -0.164465
v 0.192011 -0.088222 -0.180807
v 0.183086 -0.082620 -0.081068
v -0.270331 0.437918 -0.259208
v -0.245406 -0.006746 -0.268856
v -0.271268 -0.043122 -0.255898
v -0.244748 0.449993 -0.269124
v -0.254594 -0.057562 -0.259181
v -0.249354 -0.120628 -0.224688
v -0.274916 -0.115856 -0.215175
v -0.264095 -0.206529 -0.147323
v -0.281660 -0.202435 -0.139360
v -0.258956 -0.265556 -0.117514
v -0.285423 -0.287590 -0.097597
v -0.269576 -0.341974 -0.092410
v -0.287582 -0.403296 -0.074719
v -0.262487 -0.457981 -0.080654
v -0.288346 -0.557177 -0.068369
v -0.262762 -0.569342 -0.078595
v -0.297664 -0.557200 0.038196
v -0.274194 -0.457982 0.054348
v -0.298092 -0.370534 0.045975
v -0.274211 -0.569340 0.052266
v -0.283059 -0.340453 0.065108
v -0.277220 -0.265553 0.091247
v -0.302555 -0.213777 0.099410
v -0.288207 -0.205695 0.119994
v -0.286442 -0.120623 0.198450
v -0.312591 -0.071824 0.215762
v -0.297567 -0.056624 0.231821
v -0.290092 -0.006742 0.242642
v -0.313583 -0.004954 0.228493
v -0.289551 0.450000 0.243003
v -0.313024 0.437924 0.228795
v -0.238061 -0.056651 -0.258046
v -0.247812 -0.205721 -0.146249
v -0.253314 -0.340476 -0.091390
v -0.266801 -0.341994 0.066128
v -0.271926 -0.206547 0.121068
v -0.281036 -0.057578 0.232956
v -0.222141 -0.038754 -0.252456
v -0.221307 0.437853 -0.254919
v -0.225555 -0.110948 -0.214628
v -0.233485 -0.213844 -0.125667
v -0.238360 -0.370599 -0.072263
v -0.239278 -0.557266 -0.064522
v -0.248597 -0.557241 0.042043
v -0.248956 -0.403360 0.048424
v -0.250811 -0.287653 0.071326
v -0.254350 -0.202498 0.113105
v -0.260868 -0.115914 0.188940
v -0.264324 -0.043180 0.229677
v -0.263999 0.437859 0.233084
v -0.284894 0.332612 -0.094111
v -0.284926 0.313365 0.099625
v -0.302114 0.322782 0.102410
v -0.267862 0.320057 -0.006738
v -0.302114 0.322782 0.102410
v -0.286892 0.300666 0.118749
v -0.304492 0.306197 0.129279
v -0.284926 0.313365 0.099625
v -0.302983 0.273291 0.111648
v -0.282499 0.245235 0.065415
v -0.291988 0.186334 -0.014499
v -0.291988 0.186334 -0.014499
v -0.282499 0.245235 0.065415
v -0.275233 0.199414 -0.016810
v -0.268768 0.249745 -0.091193
v -0.280688 0.280684 -0.142944
v -0.264390 0.294626 -0.136946
v -0.263888 0.313354 -0.140396
v -0.279588 0.315781 -0.155244
v -0.267862 0.320057 -0.006738
v -0.268683 0.313697 0.100721
v -0.272499 0.298705 0.120297
v -0.265880 0.244050 0.063009
v -0.259638 0.199318 -0.010652
v -0.259638 0.199318 -0.010652
v -0.252063 0.251747 -0.094500
v -0.248488 0.307647 -0.141196
v -0.233836 0.328896 -0.113423
v -0.252207 0.326377 0.096395
v -0.252207 0.326377 0.096395
v -0.255963 0.301038 0.136172
v -0.246853 0.209073 0.033545
v -0.246853 0.209073 0.033545
v -0.242183 0.189815 -0.020528
v -0.231658 0.282740 -0.139102
v -0.230563 0.315716 -0.150955
v -0.299380 0.009974 0.066517
v -0.265674 0.022433 -0.124829
v -0.282172 0.012916 -0.130229
v -0.267366 0.019475 -0.016955
v -0.264219 0.034454 -0.144431
v -0.279560 0.032515 -0.158942
v -0.268835 0.091720 -0.093091
v -0.284980 0.102724 -0.096754
v -0.275689 0.140393 -0.012486
v -0.292234 0.151287 -0.012658
v -0.292234 0.151287 -0.012658
v -0.285758 0.058837 0.105357
v -0.303409 0.063585 0.113514
v -0.275689 0.140393 -0.012486
v -0.286609 0.030853 0.115054
v -0.304661 0.028941 0.127025
v -0.249490 0.022070 -0.123076
v -0.249765 0.036366 -0.143523
v -0.252880 0.092993 -0.087882
v -0.259262 0.140281 -0.015842
v -0.266650 0.090821 0.069808
v -0.266650 0.090821 0.069808
v -0.271549 0.036591 0.118318
v -0.248745 0.010691 0.052262
v -0.234081 0.009553 -0.115520
v -0.230616 0.033470 -0.156283
v -0.239058 0.128989 -0.056783
v -0.243736 0.150129 -0.003420
v -0.243736 0.150129 -0.003420
v -0.254472 0.061416 0.118317
v -0.255679 0.027009 0.131195
v -0.310544 0.231507 0.197728
v -0.292805 0.111624 0.186617
v -0.310430 0.106628 0.194328
v -0.285273 0.178791 0.190152
v -0.284167 0.101406 0.176197
v -0.308288 0.086063 0.170958
v -0.289768 0.109946 0.145719
v -0.302624 0.129303 0.105264
v -0.282385 0.183693 0.070482
v -0.298339 0.182597 0.057685
v -0.275696 0.202308 0.079833
v -0.299292 0.210417 0.068459
v -0.278816 0.236115 0.117074
v -0.305757 0.270286 0.143463
v -0.282440 0.261253 0.159982
v -0.283760 0.262636 0.173977
v -0.308821 0.275218 0.178299
v -0.276705 0.111847 0.188353
v -0.273765 0.109417 0.148071
v -0.266839 0.183261 0.071852
v -0.261132 0.249018 0.197324
v -0.261768 0.114753 0.202152
v -0.260034 0.087877 0.182477
v -0.256903 0.099155 0.146702
v -0.249521 0.179941 0.063019
v -0.250151 0.208284 0.071272
v -0.256267 0.267131 0.141824
v -0.259797 0.275153 0.182588
v -0.273204 0.132432 -0.230543
v -0.257353 0.252268 -0.216495
v -0.273361 0.257310 -0.227151
v -0.249498 0.185080 -0.218685
v -0.250629 0.262467 -0.204732
v -0.274762 0.275995 -0.211012
v -0.261459 0.253948 -0.175691
v -0.278414 0.260839 -0.169327
v -0.267446 0.180199 -0.100332
v -0.285535 0.177093 -0.088284
v -0.259284 0.161565 -0.108383
v -0.282070 0.125683 -0.129692
v -0.255978 0.127756 -0.145610
v -0.252163 0.102619 -0.188500
v -0.275224 0.085331 -0.206091
v -0.251036 0.101236 -0.202512
v -0.241197 0.252003 -0.215410
v -0.245290 0.254434 -0.175229
v -0.251897 0.180591 -0.098982
v -0.224665 0.114791 -0.221571
v -0.224091 0.249056 -0.226410
v -0.225737 0.275931 -0.206723
v -0.228895 0.264652 -0.170949
v -0.236354 0.183869 -0.087264
v -0.235630 0.155524 -0.095519
v -0.229568 0.096684 -0.166079
v -0.225975 0.088655 -0.206833
v 0.189570 0.248695 0.033881
v 0.172756 0.281375 0.037158
v 0.174123 0.241282 0.021361
v 0.205327 -0.092780 0.042089
v 0.185493 -0.091203 0.079588
v 0.191017 -0.097721 0.017647
v 0.175390 -0.087302 0.007706
v 0.229148 -0.087294 -0.043637
v 0.228979 -0.213268 -0.041083
v 0.213303 -0.165772 -0.050305
v 0.213509 -0.097721 -0.053586
v 0.196925 -0.168259 -0.050908
v -0.284894 0.332612 -0.094111
v -0.263888 0.313354 -0.140396
v -0.267862 0.320057 -0.006738
v -0.279588 0.315781 -0.155244
v -0.250152 0.317233 -0.119020
v -0.248488 0.307647 -0.141196
v -0.233836 0.328896 -0.113423
v -0.230563 0.315716 -0.150955
v -0.299380 0.009974 0.066517
v -0.286609 0.030853 0.115054
v -0.267366 0.019475 -0.016955
v -0.304661 0.028941 0.127025
v -0.286609 0.030853 0.115054
v -0.299380 0.009974 0.066517
v -0.269393 0.026234 0.096534
v -0.271549 0.036591 0.118318
v -0.269393 0.026234 0.096534
v -0.248745 0.010691 0.052262
v -0.255679 0.027009 0.131195
v -0.310544 0.231507 0.197728
v -0.284575 0.249252 0.181660
v -0.285273 0.178791 0.190152
v -0.308821 0.275218 0.178299
v -0.283760 0.262636 0.173977
v -0.261132 0.249018 0.197324
v -0.259797 0.275153 0.182588
v -0.273204 0.132432 -0.230543
v -0.250470 0.114621 -0.210216
v -0.249498 0.185080 -0.218685
v -0.275224 0.085331 -0.206091
v -0.251036 0.101236 -0.202512
v -0.224665 0.114791 -0.221571
v -0.225975 0.088655 -0.206833
v 0.199599 -0.578491 0.133206
v 0.293037 -0.578491 0.126414
v 0.282633 -0.453493 0.133206
v 0.343329 -0.578491 0.038717
v 0.343329 -0.453493 0.043709
v 0.343329 -0.578491 0.038717
v 0.282632 -0.578491 -0.050781
v 0.293036 -0.453493 -0.043989
v 0.343329 -0.453493 0.043709
v 0.199599 -0.453493 -0.050781
v -0.201369 -0.578491 -0.050781
v -0.294806 -0.578491 -0.043989
v -0.284402 -0.453493 -0.050781
v -0.345098 -0.578491 0.043709
v -0.345099 -0.453493 0.038716
v -0.345098 -0.578491 0.043709
v -0.284402 -0.578491 0.133206
v -0.294806 -0.453493 0.126414
v -0.345099 -0.453493 0.038716
v -0.201369 -0.453493 0.133206
v 0.018270 -0.578491 -0.103875
v -0.057580 -0.578491 -0.094676
v -0.051746 -0.453493 -0.096972
v 0.068058 -0.453493 -0.093815
v -0.116955 -0.578491 -0.047916
v -0.127790 -0.453493 -0.035929
v -0.116955 -0.578491 -0.047916
v -0.150724 -0.578491 0.044734
v -0.127790 -0.453493 -0.035929
v -0.146913 -0.453493 0.060054
v -0.150724 -0.578491 0.044734
v -0.099443 -0.578491 0.152226
v -0.116955 -0.453493 0.130342
v -0.116955 -0.453493 0.130342
v -0.047739 -0.453493 0.182078
v -0.020031 -0.578491 0.186301
v 0.290093 -0.628490 0.128814
v 0.341911 -0.628490 0.046412
v 0.343329 -0.578491 0.043708
v 0.288102 -0.578491 0.129379
v 0.341911 -0.628490 0.046412
v 0.294835 -0.628490 -0.044570
v 0.343329 -0.578491 0.043708
v 0.290093 -0.578491 -0.046388
v -0.000935 -0.628491 -0.106278
v -0.291863 -0.628491 -0.046388
v -0.289871 -0.578491 -0.046954
v -0.000825 -0.578491 -0.106278
v -0.296604 -0.628491 0.126995
v -0.000825 -0.628490 0.188703
v -0.000935 -0.578491 0.188703
v -0.291863 -0.578491 0.128814
v 0.222410 0.437891 0.034046
v 0.230989 0.437891 -0.064003
v 0.208129 0.449857 -0.066003
v 0.196245 0.449857 0.031757
v 0.251148 0.437891 -0.294420
v 0.258845 0.437891 -0.382385
v 0.243375 0.447891 -0.393777
v 0.224983 0.449857 -0.296710
v 0.230995 -0.557211 -0.063979
v 0.221666 -0.557235 0.042585
v 0.196110 -0.569343 0.052368
v 0.207560 -0.569343 -0.078494
v 0.193030 0.437853 0.368315
v 0.201557 0.437891 0.272387
v 0.178635 0.449852 0.270381
v 0.163690 0.449583 0.368358
v 0.227033 0.447891 -0.395207
v 0.181964 0.437891 -0.068293
v 0.173385 0.437891 0.029757
v 0.209820 0.437891 -0.386674
v 0.202124 0.437891 -0.298710
v 0.172677 -0.557211 0.037854
v 0.182004 -0.557235 -0.068711
v 0.152532 0.437891 0.268097
v 0.143947 0.438131 0.366221
v 0.235203 -0.047180 -0.112268
v 0.251541 -0.046246 -0.298971
v 0.234730 -0.036860 -0.296148
v 0.218891 -0.037008 -0.114809
v 0.256798 0.016894 -0.359098
v 0.256710 0.253521 -0.358163
v 0.239463 0.249245 -0.350255
v 0.239503 0.018004 -0.350400
v 0.251214 0.313880 -0.295268
v 0.234879 0.312944 -0.108565
v 0.218815 0.303560 -0.114263
v 0.234707 0.303707 -0.295598
v 0.229617 0.249806 -0.048437
v 0.229699 0.013177 -0.049370
v 0.214082 0.017454 -0.060156
v 0.214095 0.248695 -0.060007
v 0.218522 -0.037008 -0.297014
v 0.202683 -0.036861 -0.115675
v 0.223315 0.248695 -0.351816
v 0.223330 0.017454 -0.351667
v 0.202703 0.303707 -0.116225
v 0.218595 0.303560 -0.297559
v 0.197909 0.018004 -0.061423
v 0.197948 0.249245 -0.061567
v 0.202206 -0.047182 -0.299556
v 0.185875 -0.046244 -0.112853
v 0.207798 0.249804 -0.363382
v 0.207713 0.013177 -0.362453
v 0.186196 0.313880 -0.116555
v 0.202531 0.312944 -0.303258
v 0.180613 0.016894 -0.052725
v 0.180694 0.253522 -0.053657
v 0.217467 0.313879 0.090429
v 0.201129 0.312941 0.277132
v 0.185069 0.303559 0.271434
v 0.200961 0.303707 0.090100
v 0.195869 0.249804 0.337257
v 0.195953 0.013178 0.336326
v 0.180336 0.017454 0.325541
v 0.180349 0.248695 0.325690
v 0.201457 -0.047180 0.273429
v 0.217794 -0.046245 0.086726
v 0.200984 -0.036861 0.089549
v 0.185145 -0.037008 0.270888
v 0.223054 0.016894 0.026599
v 0.222970 0.253522 0.027532
v 0.205717 0.249245 0.035441
v 0.205757 0.018004 0.035297
v 0.168957 0.303706 0.269472
v 0.184849 0.303559 0.088138
v 0.164163 0.018004 0.324274
v 0.164202 0.249245 0.324130
v 0.184776 -0.037008 0.088683
v 0.168937 -0.036861 0.270022
v 0.189570 0.248695 0.033881
v 0.189584 0.017454 0.034030
v 0.152454 0.313877 0.269142
v 0.168787 0.312943 0.082439
v 0.146869 0.016894 0.332971
v 0.146952 0.253521 0.332038
v 0.168462 -0.047181 0.086141
v 0.152129 -0.046245 0.272844
v 0.174123 0.241282 0.021361
v 0.173966 0.013177 0.023243
v -0.278027 0.437919 -0.171243
v -0.244748 0.449993 -0.269124
v -0.270331 0.437918 -0.259208
v -0.251846 0.449850 -0.168953
v -0.288346 -0.557177 -0.068369
v -0.274211 -0.569340 0.052266
v -0.297664 -0.557200 0.038196
v -0.262762 -0.569342 -0.078595
v -0.313024 0.437924 0.228795
v -0.282436 0.449859 0.142635
v -0.305311 0.437923 0.140633
v -0.289551 0.450000 0.243003
v -0.221307 0.437853 -0.254919
v -0.229002 0.437854 -0.166954
v -0.248597 -0.557241 0.042043
v -0.239278 -0.557266 -0.064522
v -0.256287 0.437858 0.144922
v -0.263999 0.437859 0.233084
v -0.032427 0.486446 -0.004431
v -0.056888 -0.682945 0.010051
v -0.032278 -0.682139 0.036055
v -0.054293 0.485554 -0.032779
v -0.054293 0.485554 -0.032779
v -0.050797 -0.683904 -0.017978
v -0.056888 -0.682945 0.010051
v -0.040664 0.484404 -0.065876
v -0.030357 -0.684468 -0.033063
v -0.016074 0.484120 -0.072273
v 0.003964 -0.684220 -0.022840
v 0.009564 0.484482 -0.059379
v 0.012269 -0.683073 0.011977
v 0.015966 0.485291 -0.034803
v 0.003068 0.486188 -0.009181
v -0.007029 -0.682305 0.033206
v 0.199599 -0.578491 0.133206
v 0.343329 -0.578491 0.038717
v 0.293037 -0.578491 0.126414
v 0.282632 -0.578491 -0.050781
v 0.189195 -0.578491 -0.043989
v 0.138903 -0.578491 0.043709
v -0.284402 -0.578491 0.133206
v -0.140672 -0.578491 0.038716
v -0.190965 -0.578491 0.126414
v -0.201369 -0.578491 -0.050781
v -0.294806 -0.578491 -0.043989
v -0.345098 -0.578491 0.043709
v 0.097683 -0.578491 -0.069801
v -0.057580 -0.578491 -0.094676
v 0.018270 -0.578491 -0.103875
v -0.116955 -0.578491 -0.047916
v -0.150724 -0.578491 0.044734
v 0.148963 -0.578491 0.037691
v 0.087608 -0.578491 0.164326
v -0.020031 -0.578491 0.186301
v -0.099443 -0.578491 0.152226
v 0.189195 -0.453493 0.126414
v 0.282633 -0.453493 0.133206
v 0.343329 -0.453493 0.043709
v 0.293036 -0.453493 -0.043989
v 0.199599 -0.453493 -0.050781
v 0.138903 -0.453493 0.038716
v -0.294806 -0.453493 0.126414
v -0.201369 -0.453493 0.133206
v -0.140672 -0.453493 0.043709
v -0.190965 -0.453493 -0.043989
v -0.284402 -0.453493 -0.050781
v -0.345099 -0.453493 0.038716
v 0.068058 -0.453493 -0.093815
v -0.051746 -0.453493 -0.096972
v -0.127790 -0.453493 -0.035929
v -0.146913 -0.453493 0.060054
v 0.150527 -0.453493 0.033401
v 0.081588 -0.453493 0.168429
v -0.047739 -0.453493 0.182078
v -0.116955 -0.453493 0.130342
v 0.290093 -0.628490 0.128814
v 0.294835 -0.628490 -0.044570
v 0.341911 -0.628490 0.046412
v -0.000935 -0.628491 -0.106278
v -0.000825 -0.628490 0.188703
v -0.291863 -0.628491 -0.046388
v -0.296604 -0.628491 0.126995
v -0.343680 -0.628491 0.036013
v 0.288102 -0.578491 0.129379
v 0.343329 -0.578491 0.043708
v 0.290093 -0.578491 -0.046388
v -0.000825 -0.578491 -0.106278
v -0.000935 -0.578491 0.188703
v -0.289871 -0.578491 -0.046954
v -0.291863 -0.578491 0.128814
v -0.345098 -0.578491 0.038717
v 0.251214 0.313880 -0.295268
v 0.222410 0.372317 0.034046
v 0.201557 0.372317 0.272387
v 0.234879 0.312944 -0.108565
v 0.217467 0.313879 0.090429
v 0.230989 0.372317 -0.064003
v 0.251149 0.372317 -0.294420
v 0.201557 0.372317 0.272387
v 0.201129 0.312941 0.277132
v 0.217467 0.313879 0.090429
v 0.212515 -0.088222 0.144868
v 0.217794 -0.046245 0.086726
v 0.201457 -0.047180 0.273429
v 0.220883 0.291398 0.051448
v 0.231581 0.288936 -0.070833
v 0.222970 0.253522 0.027532
v 0.229617 0.249806 -0.048437
v 0.230101 -0.247041 -0.053826
v 0.224484 -0.215232 0.010333
v 0.223451 -0.247041 0.022176
v 0.228979 -0.213268 -0.041083
v 0.224443 -0.091968 0.010216
v 0.223054 0.016894 0.026599
v 0.229699 0.013177 -0.049370
v 0.230995 -0.557211 -0.063979
v 0.221472 -0.453020 0.044807
v 0.221666 -0.557235 0.042585
v 0.221440 -0.082620 0.045128
v 0.229148 -0.087294 -0.043637
v 0.193030 0.437853 0.368315
v 0.197833 0.288934 0.314862
v 0.231546 -0.403332 -0.070346
v 0.258845 0.437891 -0.382385
v 0.254626 0.291396 -0.334249
v 0.219535 -0.297437 0.066850
v 0.233546 -0.287622 -0.093235
v 0.221099 -0.022237 0.048995
v 0.195869 0.249804 0.337257
v 0.256710 0.253521 -0.358163
v 0.224443 -0.091968 0.010216
v 0.221099 -0.022237 0.048995
v 0.231797 -0.024698 -0.073285
v 0.235203 -0.047180 -0.112268
v 0.238782 -0.082753 -0.153090
v 0.251541 -0.046246 -0.298971
v 0.240897 -0.091744 -0.177234
v 0.214138 -0.136710 0.128527
v 0.240113 -0.120935 -0.168311
v 0.194007 0.004309 0.358942
v 0.195953 0.013178 0.336326
v 0.196372 -0.028503 0.331682
v 0.198050 -0.024698 0.312411
v 0.207742 -0.115677 0.201714
v 0.214273 -0.182938 0.126972
v 0.219535 -0.297437 0.066850
v 0.221415 -0.240244 0.045353
v 0.223451 -0.247041 0.022176
v 0.232611 -0.236822 -0.082716
v 0.237841 -0.191128 -0.142385
v 0.244652 -0.118049 -0.220149
v 0.254031 -0.047353 -0.327343
v 0.254843 -0.022237 -0.336700
v 0.258461 -0.005547 -0.377437
v 0.256798 0.016894 -0.359098
v 0.202531 0.312944 -0.303258
v 0.152532 0.372317 0.268097
v 0.173385 0.372317 0.029757
v 0.186196 0.313880 -0.116555
v 0.168787 0.312943 0.082439
v 0.181964 0.372317 -0.068293
v 0.202124 0.372317 -0.298710
v 0.152532 0.372317 0.268097
v 0.168787 0.312943 0.082439
v 0.152454 0.313877 0.269142
v 0.163628 -0.091745 0.141295
v 0.152129 -0.046245 0.272844
v 0.168462 -0.047181 0.086141
v 0.172756 0.281375 0.037158
v 0.182782 0.291397 -0.077573
v 0.165745 -0.082754 0.117151
v 0.180694 0.253522 -0.053657
v 0.180043 -0.215231 -0.046272
v 0.181076 -0.247041 -0.058115
v 0.174875 -0.246532 0.014116
v 0.174123 0.241282 0.021361
v 0.175725 -0.168029 0.003035
v 0.180072 -0.091964 -0.046150
v 0.173966 0.013177 0.023243
v 0.180613 0.016894 -0.052725
v 0.182198 -0.453016 -0.070934
v 0.182004 -0.557235 -0.068711
v 0.172677 -0.557211 0.037854
v 0.175390 -0.087302 0.007706
v 0.144819 0.372316 0.356259
v 0.149039 0.291396 0.308123
v 0.172124 -0.403331 0.044220
v 0.209820 0.437891 -0.386674
v 0.205831 0.288935 -0.340988
v 0.184133 -0.297437 -0.092976
v 0.175390 -0.087302 0.007706
v 0.170122 -0.287623 0.067109
v 0.171869 -0.024699 0.047159
v 0.146952 0.253521 0.332038
v 0.207798 0.249804 -0.363382
v 0.171869 -0.024699 0.047159
v 0.182568 -0.022237 -0.075122
v 0.183086 -0.082620 -0.081068
v 0.185875 -0.046244 -0.112853
v 0.192011 -0.088222 -0.180807
v 0.202206 -0.047182 -0.299556
v 0.164411 -0.120936 0.132372
v 0.190390 -0.136709 -0.164465
v 0.145056 0.000889 0.353337
v 0.146869 0.016894 0.332971
v 0.147594 -0.030923 0.324551
v 0.148824 -0.022237 0.310575
v 0.159015 -0.118048 0.194024
v 0.165827 -0.191130 0.116258
v 0.171918 -0.236821 0.046777
v 0.170122 -0.287623 0.067109
v 0.174875 -0.246532 0.014116
v 0.183110 -0.240245 -0.081293
v 0.189394 -0.182938 -0.153098
v 0.195925 -0.115678 -0.227838
v 0.205006 -0.047353 -0.331632
v 0.205616 -0.024698 -0.338537
v 0.209515 -0.001935 -0.383732
v 0.207713 0.013177 -0.362453
v -0.279560 0.032515 -0.158942
v -0.285535 0.177093 -0.088284
v -0.282070 0.125683 -0.129692
v -0.284980 0.102724 -0.096754
v -0.303409 0.063585 0.113514
v -0.304661 0.028941 0.127025
v -0.308288 0.086063 0.170958
v -0.275224 0.085331 -0.206091
v -0.302114 0.322782 0.102410
v -0.304492 0.306197 0.129279
v -0.305397 0.372349 0.140627
v -0.302114 0.322782 0.102410
v -0.305397 0.372349 0.140627
v -0.278113 0.372345 -0.171250
v -0.284894 0.332612 -0.094111
v -0.279588 0.315781 -0.155244
v -0.302624 0.129303 0.105264
v -0.298339 0.182597 0.057685
v -0.292234 0.151287 -0.012658
v -0.288346 -0.557177 -0.068369
v -0.297664 -0.557200 0.038196
v -0.298092 -0.370534 0.045975
v -0.287582 -0.403296 -0.074719
v -0.285423 -0.287590 -0.097597
v -0.292234 0.151287 -0.012658
v -0.313024 0.437924 0.228795
v -0.291988 0.186334 -0.014499
v -0.299292 0.210417 0.068459
v -0.302983 0.273291 0.111648
v -0.305757 0.270286 0.143463
v -0.302555 -0.213777 0.099410
v -0.291988 0.186334 -0.014499
v -0.280688 0.280684 -0.142944
v -0.278414 0.260839 -0.169327
v -0.308821 0.275218 0.178299
v -0.270331 0.437918 -0.259208
v -0.274762 0.275995 -0.211012
v -0.273361 0.257310 -0.227151
v -0.271268 -0.043122 -0.255898
v -0.273204 0.132432 -0.230543
v -0.281660 -0.202435 -0.139360
v -0.310544 0.231507 0.197728
v -0.313583 -0.004954 0.228493
v -0.310430 0.106628 0.194328
v -0.312591 -0.071824 0.215762
v -0.299380 0.009974 0.066517
v -0.302555 -0.213777 0.099410
v -0.299380 0.009974 0.066517
v -0.282172 0.012916 -0.130229
v -0.274916 -0.115856 -0.215175
v -0.230616 0.033470 -0.156283
v -0.235630 0.155524 -0.095519
v -0.236354 0.183869 -0.087264
v -0.229568 0.096684 -0.166079
v -0.239058 0.128989 -0.056783
v -0.255679 0.027009 0.131195
v -0.256903 0.099155 0.146702
v -0.260034 0.087877 0.182477
v -0.254472 0.061416 0.118317
v -0.252207 0.326377 0.096395
v -0.256373 0.372284 0.144916
v -0.255963 0.301038 0.136172
v -0.252207 0.326377 0.096395
v -0.229088 0.372280 -0.166961
v -0.256373 0.372284 0.144916
v -0.233836 0.328896 -0.113423
v -0.230563 0.315716 -0.150955
v -0.243736 0.150129 -0.003420
v -0.249521 0.179941 0.063019
v -0.238360 -0.370599 -0.072263
v -0.248597 -0.557241 0.042043
v -0.239278 -0.557266 -0.064522
v -0.248956 -0.403360 0.048424
v -0.250811 -0.287653 0.071326
v -0.263999 0.437859 0.233084
v -0.242183 0.189815 -0.020528
v -0.249521 0.179941 0.063019
v -0.243736 0.150129 -0.003420
v -0.246853 0.209073 0.033545
v -0.246853 0.209073 0.033545
v -0.250151 0.208284 0.071272
v -0.256267 0.267131 0.141824
v -0.233485 -0.213844 -0.125667
v -0.231658 0.282740 -0.139102
v -0.228895 0.264652 -0.170949
v -0.259797 0.275153 0.182588
v -0.221307 0.437853 -0.254919
v -0.225737 0.275931 -0.206723
v -0.224091 0.249056 -0.226410
v -0.222141 -0.038754 -0.252456
v -0.224665 0.114791 -0.221571
v -0.225975 0.088655 -0.206833
v -0.254350 -0.202498 0.113105
v -0.261132 0.249018 0.197324
v -0.264324 -0.043180 0.229677
v -0.261768 0.114753 0.202152
v -0.260868 -0.115914 0.188940
v -0.248745 0.010691 0.052262
v -0.254350 -0.202498 0.113105
v -0.248745 0.010691 0.052262
v -0.234081 0.009553 -0.115520
v -0.225555 -0.110948 -0.214628
v 0.199550 0.384283 0.032046
v 0.222410 0.372317 0.034046
v 0.222410 0.437891 0.034046
v 0.222410 0.437891 0.034046
v 0.196245 0.449857 0.031757
v 0.199550 0.384283 0.032046
v 0.201557 0.372317 0.272387
v 0.175392 0.384283 0.270097
v 0.178635 0.449852 0.270381
v 0.178635 0.449852 0.270381
v 0.201557 0.437891 0.272387
v 0.201557 0.372317 0.272387
v 0.222410 0.372317 0.034046
v 0.230989 0.372317 -0.064003
v 0.230989 0.437891 -0.064003
v 0.230989 0.437891 -0.064003
v 0.222410 0.437891 0.034046
v 0.222410 0.372317 0.034046
v 0.230989 0.372317 -0.064003
v 0.204824 0.384283 -0.066293
v 0.208129 0.449857 -0.066003
v 0.208129 0.449857 -0.066003
v 0.230989 0.437891 -0.064003
v 0.230989 0.372317 -0.064003
v 0.228289 0.384283 -0.296420
v 0.251149 0.372317 -0.294420
v 0.251148 0.437891 -0.294420
v 0.251148 0.437891 -0.294420
v 0.224983 0.449857 -0.296710
v 0.228289 0.384283 -0.296420
v 0.258845 0.437891 -0.382385
v 0.251148 0.437891 -0.294420
v 0.251149 0.372317 -0.294420
v 0.193030 0.437853 0.368315
v 0.163690 0.449583 0.368358
v 0.176631 0.382316 0.369081
v 0.193030 0.437853 0.368315
v 0.201557 0.372317 0.272387
v 0.201557 0.437891 0.272387
v 0.173385 0.372317 0.029757
v 0.199550 0.384283 0.032046
v 0.196245 0.449857 0.031757
v 0.196245 0.449857 0.031757
v 0.173385 0.437891 0.029757
v 0.173385 0.372317 0.029757
v 0.175392 0.384283 0.270097
v 0.152532 0.372317 0.268097
v 0.152532 0.437891 0.268097
v 0.152532 0.437891 0.268097
v 0.178635 0.449852 0.270381
v 0.175392 0.384283 0.270097
v 0.204824 0.384283 -0.066293
v 0.181964 0.372317 -0.068293
v 0.181964 0.437891 -0.068293
v 0.181964 0.437891 -0.068293
v 0.208129 0.449857 -0.066003
v 0.204824 0.384283 -0.066293
v 0.181964 0.372317 -0.068293
v 0.173385 0.372317 0.029757
v 0.173385 0.437891 0.029757
v 0.173385 0.437891 0.029757
v 0.181964 0.437891 -0.068293
v 0.181964 0.372317 -0.068293
v 0.202124 0.372317 -0.298710
v 0.228289 0.384283 -0.296420
v 0.224983 0.449857 -0.296710
v 0.224983 0.449857 -0.296710
v 0.202124 0.437891 -0.298710
v 0.202124 0.372317 -0.298710
v 0.209820 0.437891 -0.386674
v 0.202124 0.372317 -0.298710
v 0.202124 0.437891 -0.298710
v 0.163690 0.449583 0.368358
v 0.143947 0.438131 0.366221
v 0.144819 0.372316 0.356259
v 0.152532 0.372317 0.268097
v 0.144819 0.372316 0.356259
v 0.143947 0.438131 0.366221
v 0.143947 0.438131 0.366221
v 0.152532 0.437891 0.268097
v 0.152532 0.372317 0.268097
v -0.255238 0.384281 -0.169249
v -0.278027 0.437919 -0.171243
v -0.278113 0.372345 -0.171250
v -0.278027 0.437919 -0.171243
v -0.255238 0.384281 -0.169249
v -0.251846 0.449850 -0.168953
v -0.305397 0.372349 0.140627
v -0.282436 0.449859 0.142635
v -0.279217 0.384281 0.142917
v -0.282436 0.449859 0.142635
v -0.305397 0.372349 0.140627
v -0.305311 0.437923 0.140633
v -0.270331 0.437918 -0.259208
v -0.278113 0.372345 -0.171250
v -0.278027 0.437919 -0.171243
v -0.313024 0.437924 0.228795
v -0.305311 0.437923 0.140633
v -0.305397 0.372349 0.140627
v -0.229088 0.372280 -0.166961
v -0.251846 0.449850 -0.168953
v -0.255238 0.384281 -0.169249
v -0.251846 0.449850 -0.168953
v -0.229088 0.372280 -0.166961
v -0.229002 0.437854 -0.166954
v -0.279217 0.384281 0.142917
v -0.256287 0.437858 0.144922
v -0.256373 0.372284 0.144916
v -0.256287 0.437858 0.144922
v -0.279217 0.384281 0.142917
v -0.282436 0.449859 0.142635
v -0.221307 0.437853 -0.254919
v -0.229002 0.437854 -0.166954
v -0.229088 0.372280 -0.166961
v -0.263999 0.437859 0.233084
v -0.256373 0.372284 0.144916
v -0.256287 0.437858 0.144922
v -0.253279 -0.006284 0.103839
v -0.134939 -0.080547 0.114192
v -0.253381 -0.084122 0.103831
v -0.134939 -0.080547 0.114192
v -0.253279 -0.006284 0.103839
v -0.138414 0.000138 0.113887
v -0.253381 -0.084122 0.103831
v -0.139254 -0.080547 0.163515
v -0.257696 -0.084122 0.153153
v -0.139254 -0.080547 0.163515
v -0.253381 -0.084122 0.103831
v -0.134939 -0.080547 0.114192
v -0.257696 -0.084122 0.153153
v -0.142729 0.000139 0.163210
v -0.257594 -0.006284 0.153161
v -0.142729 0.000139 0.163210
v -0.257696 -0.084122 0.153153
v -0.139254 -0.080547 0.163515
v -0.257594 -0.006284 0.153161
v -0.138414 0.000138 0.113887
v -0.253279 -0.006284 0.103839
v -0.138414 0.000138 0.113887
v -0.257594 -0.006284 0.153161
v -0.142729 0.000139 0.163210
v -0.228877 -0.006288 -0.175086
v -0.110538 -0.080551 -0.164733
v -0.228980 -0.084126 -0.175094
v -0.110538 -0.080551 -0.164733
v -0.228877 -0.006288 -0.175086
v -0.114012 0.000134 -0.165038
v -0.228980 -0.084126 -0.175094
v -0.114853 -0.080550 -0.115410
v -0.233295 -0.084125 -0.125771
v -0.114853 -0.080550 -0.115410
v -0.228980 -0.084126 -0.175094
v -0.110538 -0.080551 -0.164733
v -0.233295 -0.084125 -0.125771
v -0.118327 0.000135 -0.115715
v -0.233192 -0.006287 -0.125764
v -0.118327 0.000135 -0.115715
v -0.233295 -0.084125 -0.125771
v -0.114853 -0.080550 -0.115410
v -0.233192 -0.006287 -0.125764
v -0.114012 0.000134 -0.165038
v -0.228877 -0.006288 -0.175086
v -0.114012 0.000134 -0.165038
v -0.233192 -0.006287 -0.125764
v -0.118327 0.000135 -0.115715
# 1168 vertices

vt 0.088578 1.714071
vt 0.224168 1.714071
vt 0.209071 1.000500
vt 0.088578 1.714071
vt 0.224168 1.714071
vt 0.209071 1.000500
vt 0.472216 1.714071
vt 0.628415 1.714071
vt 0.619680 1.000500
vt 0.432008 1.000500
vt 0.795728 1.076632
vt 0.921553 1.076631
vt 0.898722 1.064904
vt 0.781896 1.064904
vt 0.854582 1.076631
vt 0.769391 1.076632
vt 0.960611 1.531651
vt 0.906103 1.522490
vt 0.891947 1.532448
vt 0.928541 1.537586
vt 0.912317 1.537290
vt 0.087510 1.537289
vt 0.100092 1.606420
vt 0.110387 1.536118
vt 0.115834 1.531647
vt -0.171545 1.076632
vt 0.190817 1.064904
vt 0.171629 1.076631
vt -0.193699 1.064904
vt 0.215184 1.076631
vt -0.215141 1.076632
vt 0.820107 1.415798
vt 0.788145 1.415018
vt 0.829870 1.431010
vt 0.652980 1.441204
vt 0.674906 1.520275
vt 0.649692 1.520275
vt 0.677685 1.441204
vt 0.322315 1.441204
vt 0.350308 1.520275
vt 0.325094 1.520275
vt 0.347020 1.441204
vt -0.200210 1.999500
vt 0.133240 1.999500
vt -0.033328 1.999500
vt 0.250000 1.999500
vt 0.382788 1.999500
vt 0.799790 1.999500
vt 0.499671 1.999500
vt 0.632809 1.999500
vt 0.083618 1.000500
vt -0.216292 1.000500
vt -0.049385 1.000500
vt 0.200406 1.000500
vt 0.366760 1.000500
vt 0.533327 1.000499
vt -0.333498 1.000500
vt 0.224168 1.714071
vt 0.297149 1.714071
vt 0.297149 1.000500
vt 0.209071 1.000500
vt 0.702851 1.714071
vt 0.790929 1.714071
vt 0.775832 1.000500
vt 0.702851 1.000500
vt 0.911422 1.000500
vt 0.224168 1.714071
vt 0.297149 1.714071
vt 0.297149 1.000500
vt 0.209071 1.000500
vt 0.702851 1.714071
vt 0.790930 1.714071
vt 0.775832 1.000500
vt 0.702851 1.000500
vt 0.911422 1.000500
vt 0.628415 1.714071
vt 0.717450 1.714071
vt 0.719718 1.000500
vt 0.619680 1.000500
vt 0.282550 1.714071
vt 0.356965 1.714071
vt 0.280282 1.000500
vt 0.399955 1.000500
vt 0.472204 1.714071
vt 0.500087 1.999500
vt 0.922248 1.999500
vt 0.919359 1.714071
vt 0.499927 1.714071
vt 0.070871 1.999500
vt 0.500073 1.999500
vt 0.499913 1.714072
vt 0.077752 1.714071
vt 0.922248 1.999500
vt 0.997442 1.999500
vt 0.999500 1.714072
vt 0.919359 1.714072
vt 0.002558 1.999500
vt 0.070871 1.999500
vt 0.000500 1.714072
vt 0.077752 1.714072
vt 0.089944 1.076631
vt 0.204302 1.076631
vt 0.216348 1.064904
vt 0.118582 1.064904
vt 0.214722 1.012366
vt 0.214242 1.446955
vt 0.221782 1.443240
vt 0.222175 1.002566
vt 0.219308 1.480554
vt 0.208837 1.487927
vt 0.189426 1.557212
vt 0.201172 1.567698
vt 0.159763 1.628833
vt 0.195369 1.609891
vt 0.182100 1.653057
vt 0.123663 1.723401
vt 0.167887 1.701775
vt 0.137061 1.776680
vt 0.098251 1.836802
vt 0.122463 1.890802
vt 0.089908 1.987610
vt 0.132948 1.999500
vt 0.909491 1.987634
vt 0.906527 1.885498
vt 0.877122 1.889430
vt 0.867052 1.999500
vt 0.880850 1.733020
vt 0.862199 1.775190
vt 0.832113 1.701775
vt 0.836832 1.620806
vt 0.817900 1.653057
vt 0.804630 1.609891
vt 0.809694 1.554887
vt 0.798860 1.567013
vt 0.780663 1.480323
vt 0.788142 1.469452
vt 0.785435 1.437295
vt 0.778060 1.442533
vt 0.784524 1.012403
vt 0.777825 1.066831
vt 0.228753 1.442533
vt 0.228832 1.002566
vt 0.226663 1.480323
vt 0.212649 1.567014
vt 0.158380 1.775190
vt 0.144448 1.889427
vt 0.855392 1.890807
vt 0.841573 1.776679
vt 0.787695 1.567697
vt 0.773356 1.480554
vt 0.771134 1.443240
vt 0.772551 1.000907
vt 0.230622 1.076631
vt 0.157880 1.076631
vt 0.235083 1.443416
vt 0.235180 1.012366
vt 0.232621 1.487927
vt 0.224261 1.554888
vt 0.210766 1.620806
vt 0.183211 1.733020
vt 0.161382 1.885494
vt 0.158451 1.987634
vt 0.842145 1.987611
vt 0.834094 1.836801
vt 0.813481 1.723402
vt 0.791069 1.628834
vt 0.776150 1.557211
vt 0.766193 1.471825
vt 0.764928 1.440647
vt 0.764820 1.076632
vt 0.068535 1.428605
vt 0.101910 1.465724
vt 0.126296 1.457717
vt 0.098323 1.424413
vt 0.140129 1.487757
vt 0.157505 1.477788
vt 0.204990 1.486842
vt 0.209972 1.463312
vt 0.216766 1.457361
vt 0.212958 1.477644
vt 0.212451 1.424962
vt 0.218726 1.423874
vt 0.212356 1.193057
vt 0.209682 1.155938
vt 0.216729 1.163943
vt 0.218724 1.197247
vt 0.204436 1.133902
vt 0.212875 1.143872
vt 0.137210 1.134820
vt 0.098870 1.158348
vt 0.125873 1.164300
vt 0.157142 1.144017
vt 0.067064 1.196698
vt 0.098062 1.197786
vt 0.147503 1.457361
vt 0.119432 1.423874
vt 0.175981 1.477644
vt 0.224589 1.457718
vt 0.221588 1.477788
vt 0.226096 1.424413
vt 0.224617 1.164300
vt 0.226118 1.197786
vt 0.221627 1.144017
vt 0.147909 1.163943
vt 0.176356 1.143872
vt 0.119634 1.197247
vt 0.166462 1.463312
vt 0.131209 1.424962
vt 0.195657 1.486840
vt 0.232987 1.465724
vt 0.230675 1.487759
vt 0.234148 1.428605
vt 0.233113 1.158350
vt 0.234188 1.196699
vt 0.230920 1.134820
vt 0.169202 1.155936
vt 0.197501 1.133903
vt 0.133154 1.193056
vt 0.931466 1.193056
vt 0.898090 1.155936
vt 0.873704 1.163943
vt 0.901678 1.197247
vt 0.859871 1.133903
vt 0.842495 1.143872
vt 0.795007 1.134822
vt 0.790027 1.158350
vt 0.783234 1.164300
vt 0.787042 1.144017
vt 0.787548 1.196699
vt 0.781274 1.197787
vt 0.787646 1.428604
vt 0.790319 1.465724
vt 0.783271 1.457717
vt 0.781276 1.424413
vt 0.795564 1.487757
vt 0.787125 1.477788
vt 0.862791 1.486841
vt 0.901132 1.463312
vt 0.874127 1.457361
vt 0.842858 1.477644
vt 0.932938 1.424962
vt 0.901938 1.423874
vt 0.852497 1.164300
vt 0.880569 1.197786
vt 0.824019 1.144017
vt 0.775411 1.163943
vt 0.778412 1.143873
vt 0.773904 1.197248
vt 0.775383 1.457361
vt 0.773882 1.423874
vt 0.778373 1.477644
vt 0.852091 1.457717
vt 0.823645 1.477788
vt 0.880366 1.424413
vt 0.843157 1.165759
vt 0.804343 1.134820
vt 0.767014 1.155938
vt 0.769328 1.133905
vt 0.765853 1.193056
vt 0.766886 1.463312
vt 0.765810 1.424962
vt 0.769081 1.486840
vt 0.830798 1.465724
vt 0.802498 1.487758
vt 0.866845 1.428605
vt 0.906103 1.522490
vt 0.828312 1.527980
vt 0.819006 1.535437
vt 0.891947 1.532448
vt 0.836043 1.575501
vt 0.821551 1.552030
vt 0.846282 1.615580
vt 0.905802 1.676968
vt 0.895892 1.667993
vt 0.940083 1.683630
vt 0.918887 1.671695
vt 0.960432 1.652456
vt 0.938681 1.606419
vt 0.960611 1.531651
vt 0.928541 1.537586
vt 0.829609 1.530901
vt 0.804146 1.536245
vt 0.805837 1.551696
vt 0.826407 1.614801
vt 0.873583 1.668011
vt 0.902557 1.671113
vt 0.919821 1.603977
vt 0.912317 1.537290
vt 0.790799 1.522621
vt 0.907269 1.527078
vt 0.784716 1.531433
vt 0.786746 1.560041
vt 0.831245 1.673613
vt 0.888604 1.683131
vt 0.922947 1.606194
vt 0.055046 1.650531
vt 0.097046 1.671113
vt 0.081677 1.603982
vt 0.075381 1.683630
vt 0.112843 1.673615
vt 0.117409 1.668011
vt 0.161090 1.614800
vt 0.172203 1.560041
vt 0.185974 1.537552
vt 0.175783 1.531433
vt 0.165307 1.522621
vt 0.157936 1.530901
vt 0.059328 1.527071
vt 0.087510 1.537289
vt 0.100092 1.606420
vt 0.119355 1.671695
vt 0.138753 1.667993
vt 0.179237 1.615581
vt 0.197905 1.552031
vt 0.198234 1.535437
vt 0.175037 1.531596
vt 0.110387 1.536118
vt 0.116227 1.652455
vt 0.115834 1.531647
vt 0.141793 1.683630
vt 0.173056 1.676969
vt 0.213646 1.575500
vt 0.216955 1.527980
vt 0.172839 1.522490
vt 0.197399 1.012366
vt 0.213777 1.448126
vt 0.196711 1.483808
vt 0.213839 1.000499
vt 0.207304 1.497939
vt 0.206601 1.559737
vt 0.186883 1.555092
vt 0.176009 1.643936
vt 0.155543 1.639945
vt 0.167887 1.701775
vt 0.123666 1.723401
vt 0.137061 1.776679
vt 0.098252 1.836799
vt 0.135337 1.890361
vt 0.089908 1.987610
vt 0.132948 1.999501
vt 0.909491 1.987634
vt 0.864527 1.890364
vt 0.899448 1.804692
vt 0.867052 1.999501
vt 0.862199 1.775190
vt 0.832113 1.701775
vt 0.850347 1.651063
vt 0.824509 1.643122
vt 0.793449 1.559738
vt 0.805350 1.511944
vt 0.792656 1.497026
vt 0.786186 1.448129
vt 0.802653 1.446408
vt 0.786161 1.000499
vt 0.802601 1.012366
vt 0.217458 1.497026
vt 0.192363 1.643122
vt 0.158380 1.775190
vt 0.841573 1.776679
vt 0.808525 1.643936
vt 0.782593 1.497940
vt 0.227300 1.479465
vt 0.227524 1.012366
vt 0.223149 1.550218
vt 0.203238 1.651063
vt 0.167987 1.804691
vt 0.158451 1.987634
vt 0.842145 1.987611
vt 0.834094 1.836800
vt 0.813483 1.723401
vt 0.793387 1.639946
vt 0.777344 1.555090
vt 0.772778 1.483808
vt 0.772476 1.012366
vt 0.120304 1.115573
vt -0.165173 1.134416
vt -0.151563 1.125209
vt -0.016968 1.127847
vt 0.848437 1.125209
vt 0.824649 1.146863
vt 0.833571 1.141464
vt 0.834827 1.134416
vt 0.842820 1.173713
vt 0.862153 1.201188
vt 0.998619 1.258933
vt -0.001381 1.258933
vt -0.137847 1.201188
vt 0.007152 1.246093
vt 0.136058 1.196766
vt 0.157680 1.166465
vt 0.170703 1.152779
vt 0.172714 1.134424
vt 0.164241 1.132068
vt 0.983032 1.127847
vt 0.817059 1.134070
vt 0.810157 1.148766
vt 0.844769 1.202327
vt 0.994610 1.246167
vt -0.005390 1.246167
vt 0.161504 1.194783
vt 0.189327 1.139998
vt 0.198050 1.119151
vt -0.200220 1.121623
vt 0.799780 1.121623
vt 0.787118 1.146456
vt 0.855426 1.236585
vt -0.144574 1.236585
vt 0.042842 1.255459
vt 0.207916 1.164386
vt 0.211350 1.132068
vt -0.123138 1.431776
vt 0.163727 1.419541
vt 0.149844 1.428890
vt 0.010342 1.422432
vt 0.174426 1.407760
vt 0.166111 1.409682
vt 0.137918 1.351638
vt 0.122888 1.340874
vt -0.003097 1.303936
vt -0.004893 1.293282
vt 0.995107 1.293282
vt 0.831413 1.383866
vt 0.841732 1.379235
vt 0.996903 1.303936
vt 0.826174 1.411293
vt 0.834647 1.413188
vt 0.181695 1.419876
vt 0.189086 1.405868
vt 0.155346 1.350370
vt 0.010703 1.304026
vt -0.161554 1.352500
vt 0.838446 1.352500
vt 0.809842 1.405649
vt -0.170130 1.431010
vt 0.198998 1.432123
vt 0.212554 1.408683
vt 0.146866 1.315070
vt -0.033980 1.294353
vt 0.966020 1.294353
vt 0.791742 1.381297
vt 0.788145 1.415018
vt 0.809590 1.214665
vt 0.801271 1.332133
vt 0.810475 1.337052
vt 0.795103 1.266297
vt 0.798242 1.342138
vt 0.817150 1.357206
vt 0.813635 1.333778
vt 0.846634 1.314828
vt 0.856623 1.261501
vt 0.885909 1.262597
vt 0.840391 1.243248
vt 0.875019 1.235332
vt 0.817940 1.210115
vt 0.827242 1.176658
vt 0.802381 1.185480
vt 0.798784 1.184124
vt 0.814979 1.171826
vt 0.789420 1.331895
vt 0.799271 1.334276
vt 0.836882 1.261905
vt 0.776277 1.197440
vt 0.775716 1.329026
vt 0.778242 1.355365
vt 0.784483 1.344312
vt 0.819898 1.265136
vt 0.813555 1.237359
vt 0.785564 1.179687
vt 0.778229 1.171826
vt 0.191007 1.311758
vt 0.199286 1.194290
vt 0.190134 1.189371
vt 0.205388 1.260128
vt 0.202317 1.184286
vt 0.185694 1.171059
vt 0.187199 1.192646
vt 0.170811 1.185913
vt 0.145510 1.264923
vt 0.114288 1.267989
vt 0.161409 1.283176
vt 0.149497 1.318374
vt 0.183132 1.316310
vt 0.198274 1.340944
vt 0.184369 1.357919
vt 0.201787 1.342300
vt 0.211019 1.194529
vt 0.201398 1.192148
vt 0.165056 1.264519
vt 0.224010 1.328983
vt 0.224566 1.197396
vt 0.222091 1.171059
vt 0.216010 1.182113
vt 0.182024 1.261286
vt 0.188041 1.289065
vt 0.214948 1.346730
vt 0.222104 1.354598
vt 0.880569 1.197786
vt 0.843157 1.165759
vt 0.870811 1.205051
vt 0.891947 1.532448
vt 0.829609 1.530901
vt 0.912317 1.537290
vt 0.907269 1.527078
vt 0.059328 1.527071
vt 0.055046 1.650531
vt 0.081677 1.603982
vt 0.087510 1.537289
vt 0.100092 1.606420
vt 0.120304 1.115573
vt 0.172714 1.134424
vt -0.016968 1.127847
vt 0.164241 1.132068
vt 0.178563 1.130603
vt 0.189327 1.139998
vt 0.198050 1.119151
vt 0.211350 1.132068
vt -0.123138 1.431776
vt -0.173826 1.411293
vt 0.010342 1.422432
vt 0.834647 1.413188
vt 0.826174 1.411293
vt 0.876862 1.431776
vt -0.179893 1.415798
vt 0.809842 1.405649
vt 0.820107 1.415798
vt -0.170130 1.431010
vt 0.788145 1.415018
vt 0.809590 1.214665
vt 0.797061 1.197242
vt 0.795103 1.266297
vt 0.814979 1.171826
vt 0.798784 1.184124
vt 0.776277 1.197440
vt 0.778229 1.171826
vt 0.191007 1.311758
vt 0.203470 1.329182
vt 0.205388 1.260128
vt 0.184369 1.357919
vt 0.201787 1.342300
vt 0.224010 1.328983
vt 0.222104 1.354598
vt 0.790929 1.714071
vt 0.926520 1.714071
vt 0.911422 1.000500
vt 0.999500 1.714071
vt 0.999500 1.000500
vt 0.000500 1.714071
vt 0.088578 1.714071
vt 0.073481 1.000500
vt 0.000500 1.000500
vt 0.209071 1.000500
vt 0.790930 1.714071
vt 0.926519 1.714071
vt 0.911422 1.000500
vt 0.999500 1.714072
vt 0.999500 1.000500
vt 0.000500 1.714072
vt 0.088578 1.714071
vt 0.073480 1.000500
vt 0.000500 1.000500
vt 0.209071 1.000500
vt 0.472204 1.714071
vt 0.582273 1.714071
vt 0.573806 1.000500
vt 0.399955 1.000500
vt 0.668434 1.714071
vt 0.684157 1.000500
vt 0.198153 1.714071
vt 0.511925 1.714071
vt 0.238747 1.000500
vt 0.563809 1.000500
vt 0.282563 1.714071
vt 0.356978 1.714071
vt 0.331567 1.000500
vt 0.801849 1.000500
vt 0.432008 1.000500
vt 0.472216 1.714071
vt 0.922248 1.999500
vt 0.997442 1.999500
vt 0.999500 1.714071
vt 0.919359 1.714071
vt 0.002558 1.999500
vt 0.070871 1.999500
vt 0.000500 1.714071
vt 0.077752 1.714071
vt 0.500073 1.999500
vt 0.922248 1.999500
vt 0.919359 1.714072
vt 0.499913 1.714072
vt 0.070871 1.999500
vt 0.500087 1.999500
vt 0.499927 1.714071
vt 0.077752 1.714072
vt -0.078447 1.012366
vt 0.089944 1.012366
vt 0.114165 1.000639
vt -0.105559 1.000639
vt 0.204302 1.012366
vt 0.214722 1.012366
vt 0.222175 1.002566
vt 0.218126 1.000639
vt 0.089908 1.987610
vt -0.090509 1.987634
vt -0.132948 1.999500
vt 0.132948 1.999500
vt 0.784524 1.012403
vt 0.795728 1.012366
vt 0.783642 1.000643
vt 0.772551 1.000907
vt 0.228832 1.002566
vt 0.157880 1.012366
vt -0.145418 1.012366
vt 0.235180 1.012366
vt 0.230622 1.012366
vt -0.157855 1.987611
vt 0.158451 1.987634
vt 0.769391 1.012366
vt 0.764435 1.012130
vt 0.140129 1.487757
vt 0.204990 1.486842
vt 0.212958 1.477644
vt 0.157505 1.477788
vt 0.212451 1.424962
vt 0.212356 1.193057
vt 0.218724 1.197247
vt 0.218726 1.423874
vt 0.204436 1.133902
vt 0.137210 1.134820
vt 0.157142 1.144017
vt 0.212875 1.143872
vt 0.067064 1.196698
vt 0.068535 1.428605
vt 0.098323 1.424413
vt 0.098062 1.197786
vt 0.221588 1.477788
vt 0.175981 1.477644
vt 0.226118 1.197786
vt 0.226096 1.424413
vt 0.176356 1.143872
vt 0.221627 1.144017
vt 0.119432 1.423874
vt 0.119634 1.197247
vt 0.230675 1.487759
vt 0.195657 1.486840
vt 0.234188 1.196699
vt 0.234148 1.428605
vt 0.197501 1.133903
vt 0.230920 1.134820
vt 0.131209 1.424962
vt 0.133154 1.193056
vt 0.859871 1.133903
vt 0.795007 1.134822
vt 0.787042 1.144017
vt 0.842495 1.143872
vt 0.787548 1.196699
vt 0.787646 1.428604
vt 0.781276 1.424413
vt 0.781274 1.197787
vt 0.795564 1.487757
vt 0.862791 1.486841
vt 0.842858 1.477644
vt 0.787125 1.477788
vt 0.932938 1.424962
vt 0.931466 1.193056
vt 0.901678 1.197247
vt 0.901938 1.423874
vt 0.778412 1.143873
vt 0.824019 1.144017
vt 0.773882 1.423874
vt 0.773904 1.197248
vt 0.823645 1.477788
vt 0.778373 1.477644
vt 0.880569 1.197786
vt 0.880366 1.424413
vt 0.769328 1.133905
vt 0.804343 1.134820
vt 0.765810 1.424962
vt 0.765853 1.193056
vt 0.802498 1.487758
vt 0.769081 1.486840
vt 0.870811 1.205051
vt 0.866845 1.428605
vt 0.171629 1.012366
vt 0.213839 1.000499
vt 0.197399 1.012366
vt 0.193764 1.000639
vt 0.089908 1.987610
vt -0.132948 1.999501
vt -0.090509 1.987634
vt 0.132948 1.999501
vt 0.802601 1.012366
vt 0.809251 1.000639
vt 0.828455 1.012366
vt 0.786161 1.000499
vt 0.227524 1.012366
vt 0.215184 1.012366
vt -0.157855 1.987611
vt 0.158451 1.987634
vt 0.784859 1.012366
vt 0.772476 1.012366
vt 0.799790 1.999500
vt 0.950615 1.000500
vt 0.783708 1.000500
vt 0.966672 1.999500
vt -0.033328 1.999500
vt 0.083618 1.000500
vt -0.049385 1.000500
vt 0.133240 1.999500
vt 0.200406 1.000500
vt 0.250000 1.999500
vt 0.366760 1.000500
vt 0.382788 1.999500
vt 0.533327 1.000499
vt 0.499671 1.999500
vt 0.632809 1.999500
vt 0.666502 1.000500
vt 0.188450 1.209071
vt 0.508452 1.000500
vt 0.211452 1.073480
vt 0.811551 1.088579
vt 0.788548 1.224168
vt 0.491547 1.297149
vt 0.188450 1.911422
vt 0.508454 1.702851
vt 0.211452 1.775832
vt 0.811550 1.790930
vt 0.788550 1.926519
vt 0.491547 1.999500
vt 0.875965 1.356965
vt 0.960208 1.582273
vt 0.991363 1.472204
vt 0.801847 1.668434
vt 0.488075 1.717437
vt 0.511925 1.282550
vt 0.083056 1.371585
vt 0.008637 1.527784
vt 0.124035 1.643022
vt 0.788548 1.224168
vt 0.811551 1.088578
vt 0.508454 1.000500
vt 0.211451 1.073481
vt 0.188450 1.209071
vt 0.491546 1.297149
vt 0.788548 1.926520
vt 0.811550 1.790929
vt 0.508453 1.702851
vt 0.211450 1.775832
vt 0.188450 1.911422
vt 0.491546 1.999500
vt 0.042707 1.399955
vt 0.032015 1.573806
vt 0.238747 1.684157
vt 0.563809 1.711907
vt 0.473545 1.280282
vt 0.930838 1.380320
vt 0.977062 1.567992
vt 0.801849 1.668433
vt 0.203326 1.077752
vt 0.790517 1.070871
vt 0.482391 1.002558
vt 0.999500 1.500073
vt 0.000499 1.499913
vt 0.796674 1.922248
vt 0.209483 1.929129
vt 0.517609 1.997442
vt 0.798589 1.080641
vt 0.508451 1.000500
vt 0.203326 1.077752
vt 0.000500 1.499913
vt 0.999501 1.500073
vt 0.201411 1.919359
vt 0.796674 1.922248
vt 0.491550 1.999500
vt 0.204436 1.133902
vt -0.078447 1.076631
vt -0.204272 1.076632
vt 0.137210 1.134820
vt -0.140129 1.133903
vt 0.089944 1.076631
vt 0.204302 1.076631
vt 0.795728 1.076632
vt 0.795007 1.134822
vt 0.859871 1.133903
vt 0.828312 1.527980
vt 0.862791 1.486841
vt 0.795564 1.487757
vt -0.101910 1.155936
vt 0.098870 1.158348
vt -0.068534 1.193056
vt 0.067064 1.196698
vt 0.075381 1.683630
vt -0.039568 1.652456
vt -0.059917 1.683630
vt 0.055046 1.650531
vt -0.039389 1.531651
vt -0.067062 1.424962
vt 0.068535 1.428605
vt 0.089908 1.987610
vt -0.093473 1.885498
vt -0.090509 1.987634
vt 0.906103 1.522490
vt 0.059328 1.527071
vt 0.784524 1.012403
vt 0.790027 1.158350
vt 0.098251 1.836802
vt 0.214722 1.012366
vt 0.209682 1.155938
vt -0.119150 1.733020
vt 0.123663 1.723401
vt 0.901132 1.463312
vt 0.787548 1.196699
vt 0.212356 1.193057
vt 0.960611 1.531651
vt -0.098868 1.463312
vt 0.101910 1.465724
vt 0.140129 1.487757
vt 0.165307 1.522621
vt 0.204990 1.486842
vt 0.175783 1.531433
vt 0.836043 1.575501
vt 0.172203 1.560041
vt 0.785435 1.437295
vt 0.787646 1.428604
vt 0.788142 1.469452
vt 0.790319 1.465724
vt 0.809694 1.554887
vt 0.836832 1.620806
vt 0.880850 1.733020
vt 0.905802 1.676968
vt 0.940083 1.683630
vt 0.112843 1.673615
vt 0.159763 1.628833
vt 0.189426 1.557212
vt 0.208837 1.487927
vt 0.209972 1.463312
vt 0.214242 1.446955
vt 0.212451 1.424962
vt 0.230920 1.134820
vt -0.230609 1.076632
vt -0.145418 1.076631
vt 0.197501 1.133903
vt -0.195657 1.134820
vt 0.157880 1.076631
vt 0.230622 1.076631
vt 0.769391 1.076632
vt 0.804343 1.134820
vt 0.769328 1.133905
vt 0.784716 1.531433
vt 0.769081 1.486840
vt 0.802498 1.487758
vt -0.156843 1.165759
vt 0.169202 1.155936
vt 0.790799 1.522621
vt 0.133154 1.193056
vt 0.116227 1.652455
vt 0.141793 1.683630
vt -0.111396 1.683131
vt -0.129189 1.205051
vt -0.077053 1.606194
vt 0.115834 1.531647
vt -0.133155 1.428605
vt 0.131209 1.424962
vt 0.161382 1.885494
vt 0.158451 1.987634
vt -0.157855 1.987611
vt -0.092731 1.527078
vt 0.764820 1.076632
vt 0.767014 1.155938
vt -0.165906 1.836801
vt 0.235180 1.012366
vt 0.233113 1.158350
vt 0.183211 1.733020
vt 0.907269 1.527078
vt -0.186519 1.723402
vt 0.830798 1.465724
vt 0.765853 1.193056
vt 0.234188 1.196699
vt -0.169202 1.465724
vt 0.166462 1.463312
vt 0.172839 1.522490
vt 0.195657 1.486840
vt 0.216955 1.527980
vt 0.230675 1.487759
vt 0.786746 1.560041
vt 0.213646 1.575500
vt 0.764928 1.440647
vt 0.765810 1.424962
vt 0.766193 1.471825
vt 0.766886 1.463312
vt 0.776150 1.557211
vt 0.791069 1.628834
vt 0.831245 1.673613
vt 0.813481 1.723402
vt 0.888604 1.683131
vt 0.173056 1.676969
vt 0.210766 1.620806
vt 0.224261 1.554888
vt 0.232621 1.487927
vt 0.232987 1.465724
vt 0.235083 1.443416
vt 0.234148 1.428605
vt 0.166111 1.409682
vt 0.114288 1.267989
vt 0.149497 1.318374
vt 0.122888 1.340874
vt 0.841732 1.379235
vt 0.834647 1.413188
vt 0.817150 1.357206
vt 0.184369 1.357919
vt 0.848437 1.125209
vt 0.833571 1.141464
vt 0.828455 1.076632
vt -0.151563 1.125209
vt -0.171545 1.076632
vt 0.171629 1.076631
vt 0.120304 1.115573
vt 0.164241 1.132068
vt 0.846634 1.314828
vt 0.885909 1.262597
vt 0.995107 1.293282
vt 0.089908 1.987610
vt -0.090509 1.987634
vt -0.100552 1.804692
vt 0.098252 1.836799
vt 0.123666 1.723401
vt -0.004893 1.293282
vt 0.802601 1.012366
vt 0.998619 1.258933
vt 0.875019 1.235332
vt 0.842820 1.173713
vt 0.827242 1.176658
vt -0.149653 1.651063
vt -0.001381 1.258933
vt 0.157680 1.166465
vt 0.170811 1.185913
vt 0.814979 1.171826
vt 0.197399 1.012366
vt 0.185694 1.171059
vt 0.190134 1.189371
vt 0.196711 1.483808
vt 0.191007 1.311758
vt 0.155543 1.639945
vt 0.809590 1.214665
vt 0.802653 1.446408
vt 0.810475 1.337052
vt 0.805350 1.511944
vt 0.876862 1.431776
vt 0.850347 1.651063
vt -0.123138 1.431776
vt 0.149844 1.428890
vt 0.186883 1.555092
vt 0.212554 1.408683
vt 0.188041 1.289065
vt 0.182024 1.261286
vt 0.214948 1.346730
vt 0.146866 1.315070
vt 0.788145 1.415018
vt 0.784483 1.344312
vt 0.778242 1.355365
vt 0.791742 1.381297
vt 0.799780 1.121623
vt 0.784859 1.076632
vt 0.787118 1.146456
vt -0.200220 1.121623
vt 0.215184 1.076631
vt -0.215141 1.076632
vt 0.198050 1.119151
vt 0.211350 1.132068
vt 0.966020 1.294353
vt 0.819898 1.265136
vt 0.167987 1.804691
vt -0.157855 1.987611
vt 0.158451 1.987634
vt -0.165906 1.836800
vt -0.186517 1.723401
vt 0.772476 1.012366
vt 0.042842 1.255459
vt -0.180102 1.265136
vt -0.033980 1.294353
vt -0.144574 1.236585
vt 0.855426 1.236585
vt 0.813555 1.237359
vt 0.785564 1.179687
vt 0.203238 1.651063
vt 0.207916 1.164386
vt 0.216010 1.182113
vt 0.778229 1.171826
vt 0.227524 1.012366
vt 0.222091 1.171059
vt 0.224566 1.197396
vt 0.227300 1.479465
vt 0.224010 1.328983
vt 0.222104 1.354598
vt -0.206613 1.639946
vt 0.776277 1.197440
vt 0.772778 1.483808
vt 0.775716 1.329026
vt 0.777344 1.555090
vt 0.829870 1.431010
vt 0.793387 1.639946
vt -0.170130 1.431010
vt 0.198998 1.432123
vt 0.223149 1.550218
vt 0.898722 1.064904
vt 0.921553 1.076631
vt 0.921553 1.012366
vt 0.921553 1.012366
vt 0.894441 1.000639
vt 0.898722 1.064904
vt 0.795728 1.076632
vt 0.781896 1.064904
vt 0.783642 1.000643
vt 0.783642 1.000643
vt 0.795728 1.012366
vt 0.795728 1.076632
vt -0.078447 1.076631
vt 0.089944 1.076631
vt 0.089944 1.012366
vt 0.089944 1.012366
vt -0.078447 1.012366
vt -0.078447 1.076631
vt 0.089944 1.076631
vt 0.118582 1.064904
vt 0.114165 1.000639
vt 0.114165 1.000639
vt 0.089944 1.012366
vt 0.089944 1.076631
vt 0.216348 1.064904
vt 0.204302 1.076631
vt 0.204302 1.012366
vt 0.204302 1.012366
vt 0.218126 1.000639
vt 0.216348 1.064904
vt 0.214722 1.012366
vt 0.204302 1.012366
vt 0.204302 1.076631
vt 0.784524 1.012403
vt 0.772551 1.000907
vt 0.777825 1.066831
vt 0.784524 1.012403
vt 0.795728 1.076632
vt 0.795728 1.012366
vt 0.854582 1.076631
vt 0.898722 1.064904
vt 0.894441 1.000639
vt 0.894441 1.000639
vt 0.854582 1.012366
vt 0.854582 1.076631
vt 0.781896 1.064904
vt 0.769391 1.076632
vt 0.769391 1.012366
vt 0.769391 1.012366
vt 0.783642 1.000643
vt 0.781896 1.064904
vt 0.118582 1.064904
vt 0.157880 1.076631
vt 0.157880 1.012366
vt 0.157880 1.012366
vt 0.114165 1.000639
vt 0.118582 1.064904
vt 0.157880 1.076631
vt -0.145418 1.076631
vt -0.145418 1.012366
vt -0.145418 1.012366
vt 0.157880 1.012366
vt 0.157880 1.076631
vt 0.230622 1.076631
vt 0.216348 1.064904
vt 0.218126 1.000639
vt 0.218126 1.000639
vt 0.230622 1.012366
vt 0.230622 1.076631
vt 0.235180 1.012366
vt 0.230622 1.076631
vt 0.230622 1.012366
vt 0.772551 1.000907
vt 0.764435 1.012130
vt 0.764820 1.076632
vt 0.769391 1.076632
vt 0.764820 1.076632
vt 0.764435 1.012130
vt 0.764435 1.012130
vt 0.769391 1.012366
vt 0.769391 1.076632
vt 0.190817 1.064904
vt 0.171629 1.012366
vt 0.171629 1.076631
vt 0.171629 1.012366
vt 0.190817 1.064904
vt 0.193764 1.000639
vt 0.828455 1.076632
vt 0.809251 1.000639
vt 0.806301 1.064904
vt 0.809251 1.000639
vt 0.828455 1.076632
vt 0.828455 1.012366
vt 0.197399 1.012366
vt 0.171629 1.076631
vt 0.171629 1.012366
vt 0.802601 1.012366
vt 0.828455 1.012366
vt 0.828455 1.076632
vt 0.215184 1.076631
vt 0.193764 1.000639
vt 0.190817 1.064904
vt 0.193764 1.000639
vt 0.215184 1.076631
vt 0.215184 1.012366
vt 0.806301 1.064904
vt 0.784859 1.012366
vt 0.784859 1.076632
vt 0.784859 1.012366
vt 0.806301 1.064904
vt 0.809251 1.000639
vt 0.227524 1.012366
vt 0.215184 1.012366
vt 0.215184 1.076631
vt 0.772476 1.012366
vt 0.784859 1.076632
vt 0.784859 1.012366
vt 0.796703 1.447647
vt 0.649692 1.520275
vt 0.796703 1.523932
vt 0.649692 1.520275
vt 0.796703 1.447647
vt 0.652980 1.441204
vt 0.796703 1.523932
vt 0.674906 1.520275
vt 0.783151 1.523932
vt 0.674906 1.520275
vt 0.796703 1.523932
vt 0.649692 1.520275
vt 0.783151 1.523932
vt 0.677685 1.441204
vt 0.783151 1.447647
vt 0.677685 1.441204
vt 0.783151 1.523932
vt 0.674906 1.520275
vt 0.783151 1.447647
vt 0.652980 1.441204
vt 0.796703 1.447647
vt 0.652980 1.441204
vt 0.783151 1.447647
vt 0.677685 1.441204
vt 0.216849 1.447647
vt 0.325094 1.520275
vt 0.216849 1.523932
vt 0.325094 1.520275
vt 0.216849 1.447647
vt 0.322315 1.441204
vt 0.216849 1.523932
vt 0.350308 1.520275
vt 0.203297 1.523932
vt 0.350308 1.520275
vt 0.216849 1.523932
vt 0.325094 1.520275
vt 0.203297 1.523932
vt 0.347020 1.441204
vt 0.203297 1.447647
vt 0.347020 1.441204
vt 0.203297 1.523932
vt 0.350308 1.520275
vt 0.203297 1.447647
vt 0.322315 1.441204
vt 0.216849 1.447647
vt 0.322315 1.441204
vt 0.203297 1.447647
vt 0.347020 1.441204
# 1168 texture vertices

g Material_43
f 1/1 2/2 3/3
f 4/4 5/5 6/6
f 7/7 8/8 9/9
f 7/7 9/9 10/10
f 11/11 12/12 13/13
f 11/11 13/13 14/14
f 14/14 13/13 15/15
f 14/14 15/15 16/16
f 17/17 18/18 19/19
f 17/17 19/19 20/20
f 20/20 19/19 21/21
f 22/22 23/23 24/24
f 24/24 23/23 25/25
f 26/26 27/27 28/28
f 26/26 29/29 27/27
f 29/29 30/30 27/27
f 29/29 31/31 30/30
f 32/32 33/33 34/34
f 35/35 36/36 37/37
f 35/35 38/38 36/36
f 39/39 40/40 41/41
f 39/39 42/42 40/40
f 43/43 44/44 45/45
f 43/43 46/46 44/44
f 43/43 47/47 46/46
f 48/48 49/49 47/47
f 48/48 50/50 49/49
f 51/51 52/52 53/53
f 51/51 54/54 55/55
f 51/51 55/55 56/56
f 51/51 56/56 57/57
f 51/51 57/57 52/52
f 58/58 59/59 60/60
f 58/58 60/60 61/61
f 62/62 63/63 64/64
f 62/62 64/64 65/65
f 63/63 66/66 64/64
f 67/67 68/68 69/69
f 67/67 69/69 70/70
f 71/71 72/72 73/73
f 71/71 73/73 74/74
f 72/72 75/75 73/73
f 76/76 77/77 78/78
f 76/76 78/78 79/79
f 80/80 81/81 82/82
f 81/81 83/83 82/82
f 81/81 84/84 83/83
f 85/85 86/86 87/87
f 85/85 87/87 88/88
f 89/89 90/90 91/91
f 89/89 91/91 92/92
f 93/93 94/94 95/95
f 93/93 95/95 96/96
f 97/97 98/98 99/99
f 98/98 100/100 99/99
f 101/101 102/102 103/103
f 101/101 103/103 104/104
f 105/105 106/106 107/107
f 105/105 107/107 108/108
f 106/106 109/109 107/107
f 106/106 110/110 109/109
f 110/110 111/111 109/109
f 111/111 112/112 109/109
f 111/111 113/113 114/114
f 111/111 114/114 112/112
f 113/113 115/115 114/114
f 113/113 116/116 117/117
f 113/113 117/117 115/115
f 116/116 118/118 117/117
f 116/116 119/119 118/118
f 119/119 120/120 118/118
f 119/119 121/121 120/120
f 121/121 122/122 120/120
f 123/123 124/124 125/125
f 123/123 125/125 126/126
f 124/124 127/127 128/128
f 124/124 128/128 125/125
f 127/127 129/129 128/128
f 127/127 130/130 131/131
f 127/127 131/131 129/129
f 130/130 132/132 131/131
f 130/130 133/133 134/134
f 130/130 134/134 132/132
f 133/133 135/135 134/134
f 133/133 136/136 135/135
f 136/136 137/137 138/138
f 136/136 138/138 135/135
f 137/137 139/139 140/140
f 137/137 140/140 138/138
f 108/108 107/107 141/141
f 108/108 141/141 142/142
f 107/107 109/109 143/143
f 107/107 143/143 141/141
f 109/109 112/112 144/144
f 109/109 144/144 143/143
f 112/112 114/114 144/144
f 117/117 118/118 145/145
f 118/118 120/120 146/146
f 118/118 146/146 145/145
f 120/120 122/122 146/146
f 126/126 125/125 147/147
f 125/125 128/128 148/148
f 125/125 148/148 147/147
f 128/128 129/129 148/148
f 132/132 134/134 149/149
f 134/134 135/135 150/150
f 134/134 150/150 149/149
f 135/135 138/138 151/151
f 135/135 151/151 150/150
f 138/138 140/140 152/152
f 138/138 152/152 151/151
f 104/104 103/103 153/153
f 104/104 153/153 154/154
f 142/142 141/141 155/155
f 142/142 155/155 156/156
f 141/141 143/143 155/155
f 143/143 157/157 155/155
f 143/143 158/158 157/157
f 143/143 144/144 158/158
f 144/144 114/114 159/159
f 144/144 159/159 158/158
f 114/114 115/115 159/159
f 115/115 117/117 160/160
f 115/115 160/160 159/159
f 117/117 145/145 160/160
f 145/145 146/146 161/161
f 145/145 161/161 160/160
f 146/146 122/122 162/162
f 146/146 162/162 161/161
f 126/126 147/147 163/163
f 147/147 164/164 163/163
f 147/147 148/148 164/164
f 148/148 165/165 164/164
f 148/148 129/129 165/165
f 129/129 131/131 166/166
f 129/129 166/166 165/165
f 131/131 132/132 166/166
f 132/132 149/149 167/167
f 132/132 167/167 166/166
f 149/149 150/150 167/167
f 150/150 168/168 167/167
f 150/150 151/151 169/169
f 150/150 169/169 168/168
f 151/151 152/152 170/170
f 151/151 170/170 169/169
f 171/171 172/172 173/173
f 171/171 173/173 174/174
f 172/172 175/175 176/176
f 172/172 176/176 173/173
f 177/177 178/178 179/179
f 177/177 179/179 180/180
f 178/178 181/181 182/182
f 178/178 182/182 179/179
f 183/183 184/184 185/185
f 183/183 185/185 186/186
f 184/184 187/187 188/188
f 184/184 188/188 185/185
f 189/189 190/190 191/191
f 189/189 191/191 192/192
f 190/190 193/193 194/194
f 190/190 194/194 191/191
f 174/174 173/173 195/195
f 174/174 195/195 196/196
f 173/173 176/176 197/197
f 173/173 197/197 195/195
f 180/180 179/179 198/198
f 180/180 198/198 199/199
f 179/179 182/182 200/200
f 179/179 200/200 198/198
f 186/186 185/185 201/201
f 186/186 201/201 202/202
f 185/185 188/188 203/203
f 185/185 203/203 201/201
f 192/192 191/191 204/204
f 192/192 204/204 205/205
f 191/191 194/194 206/206
f 191/191 206/206 204/204
f 196/196 195/195 207/207
f 196/196 207/207 208/208
f 195/195 197/197 209/209
f 195/195 209/209 207/207
f 199/199 198/198 210/210
f 199/199 210/210 211/211
f 198/198 200/200 212/212
f 198/198 212/212 210/210
f 202/202 201/201 213/213
f 202/202 213/213 214/214
f 201/201 203/203 215/215
f 201/201 215/215 213/213
f 205/205 204/204 216/216
f 205/205 216/216 217/217
f 204/204 206/206 218/218
f 204/204 218/218 216/216
f 219/219 220/220 221/221
f 219/219 221/221 222/222
f 220/220 223/223 224/224
f 220/220 224/224 221/221
f 225/225 226/226 227/227
f 225/225 227/227 228/228
f 226/226 229/229 230/230
f 226/226 230/230 227/227
f 231/231 232/232 233/233
f 231/231 233/233 234/234
f 232/232 235/235 236/236
f 232/232 236/236 233/233
f 237/237 238/238 239/239
f 237/237 239/239 240/240
f 238/238 241/241 242/242
f 238/238 242/242 239/239
f 222/222 221/221 243/243
f 222/222 243/243 244/244
f 221/221 224/224 245/245
f 221/221 245/245 243/243
f 228/228 227/227 246/246
f 228/228 246/246 247/247
f 227/227 230/230 248/248
f 227/227 248/248 246/246
f 234/234 233/233 249/249
f 234/234 249/249 250/250
f 233/233 236/236 251/251
f 233/233 251/251 249/249
f 240/240 239/239 252/252
f 240/240 252/252 253/253
f 239/239 242/242 254/254
f 239/239 254/254 252/252
f 244/244 243/243 255/255
f 243/243 245/245 256/256
f 243/243 256/256 255/255
f 247/247 246/246 257/257
f 247/247 257/257 258/258
f 246/246 248/248 259/259
f 246/246 259/259 257/257
f 250/250 249/249 260/260
f 250/250 260/260 261/261
f 249/249 251/251 262/262
f 249/249 262/262 260/260
f 253/253 252/252 263/263
f 253/253 263/263 264/264
f 252/252 254/254 265/265
f 252/252 265/265 263/263
f 266/266 267/267 268/268
f 266/266 268/268 269/269
f 267/267 270/270 271/271
f 267/267 271/271 268/268
f 270/270 272/272 271/271
f 270/270 273/273 274/274
f 270/270 274/274 272/272
f 273/273 275/275 276/276
f 273/273 276/276 274/274
f 275/275 277/277 276/276
f 277/277 278/278 276/276
f 277/277 279/279 278/278
f 279/279 280/280 278/278
f 269/269 268/268 281/281
f 268/268 282/282 281/281
f 268/268 271/271 283/283
f 268/268 283/283 282/282
f 271/271 272/272 284/284
f 271/271 284/284 283/283
f 272/272 274/274 285/285
f 272/272 285/285 284/284
f 274/274 276/276 286/286
f 274/274 286/286 285/285
f 276/276 278/278 286/286
f 278/278 287/287 286/286
f 278/278 288/288 287/287
f 278/278 280/280 288/288
f 281/281 289/289 290/290
f 281/281 282/282 289/289
f 282/282 291/291 289/289
f 282/282 283/283 292/292
f 282/282 292/292 291/291
f 283/283 284/284 292/292
f 284/284 293/293 292/292
f 284/284 285/285 293/293
f 285/285 286/286 294/294
f 285/285 294/294 293/293
f 286/286 287/287 295/295
f 286/286 295/295 294/294
f 287/287 288/288 290/290
f 287/287 290/290 295/295
f 296/296 297/297 298/298
f 296/296 299/299 297/297
f 299/299 300/300 301/301
f 299/299 301/301 297/297
f 300/300 302/302 301/301
f 300/300 303/303 302/302
f 303/303 304/304 302/302
f 303/303 305/305 304/304
f 305/305 306/306 304/304
f 306/306 307/307 304/304
f 306/306 308/308 307/307
f 308/308 309/309 307/307
f 298/298 297/297 310/310
f 297/297 311/311 310/310
f 297/297 301/301 312/312
f 297/297 312/312 311/311
f 301/301 302/302 313/313
f 301/301 313/313 312/312
f 302/302 304/304 314/314
f 302/302 314/314 313/313
f 304/304 315/315 314/314
f 304/304 307/307 315/315
f 307/307 316/316 315/315
f 307/307 317/317 316/316
f 307/307 309/309 317/317
f 310/310 318/318 319/319
f 310/310 311/311 318/318
f 311/311 320/320 318/318
f 311/311 312/312 321/321
f 311/311 321/321 320/320
f 312/312 313/313 322/322
f 312/312 322/322 321/321
f 313/313 314/314 322/322
f 314/314 315/315 323/323
f 314/314 323/323 322/322
f 315/315 316/316 324/324
f 315/315 324/324 323/323
f 316/316 317/317 324/324
f 317/317 319/319 324/324
f 325/325 326/326 327/327
f 325/325 328/328 326/326
f 327/327 326/326 329/329
f 327/327 330/330 331/331
f 327/327 329/329 330/330
f 331/331 332/332 333/333
f 331/331 330/330 332/332
f 333/333 334/334 335/335
f 333/333 332/332 334/334
f 335/335 334/334 336/336
f 335/335 336/336 337/337
f 337/337 336/336 338/338
f 337/337 338/338 339/339
f 339/339 338/338 340/340
f 341/341 342/342 343/343
f 341/341 344/344 342/342
f 343/343 342/342 345/345
f 343/343 346/346 347/347
f 343/343 345/345 346/346
f 347/347 346/346 348/348
f 347/347 349/349 350/350
f 347/347 348/348 349/349
f 350/350 349/349 351/351
f 350/350 352/352 353/353
f 350/350 351/351 352/352
f 353/353 354/354 355/355
f 353/353 352/352 354/354
f 326/326 356/356 329/329
f 329/329 356/356 330/330
f 330/330 357/357 332/332
f 332/332 357/357 334/334
f 334/334 358/358 336/336
f 336/336 358/358 338/338
f 342/342 359/359 345/345
f 345/345 359/359 346/346
f 346/346 360/360 348/348
f 348/348 360/360 349/349
f 349/349 361/361 351/351
f 351/351 361/361 352/352
f 328/328 362/362 326/326
f 328/328 363/363 362/362
f 326/326 362/362 356/356
f 356/356 364/364 330/330
f 356/356 362/362 364/364
f 330/330 365/365 357/357
f 330/330 364/364 365/365
f 357/357 365/365 334/334
f 334/334 366/366 358/358
f 334/334 365/365 366/366
f 358/358 366/366 338/338
f 338/338 367/367 340/340
f 338/338 366/366 367/367
f 344/344 368/368 342/342
f 342/342 368/368 369/369
f 342/342 369/369 359/359
f 359/359 369/369 370/370
f 359/359 370/370 346/346
f 346/346 371/371 360/360
f 346/346 370/370 371/371
f 360/360 372/372 349/349
f 360/360 371/371 372/372
f 349/349 373/373 361/361
f 349/349 372/372 373/373
f 361/361 373/373 352/352
f 352/352 374/374 354/354
f 352/352 373/373 374/374
f 375/375 376/376 377/377
f 375/375 378/378 376/376
f 379/379 380/380 381/381
f 379/379 382/382 380/380
f 381/381 380/380 383/383
f 383/383 380/380 384/384
f 383/383 384/384 385/385
f 386/386 387/387 388/388
f 386/386 389/389 390/390
f 386/386 388/388 389/389
f 390/390 389/389 391/391
f 390/390 392/392 393/393
f 390/390 391/391 392/392
f 394/394 395/395 382/382
f 382/382 396/396 380/380
f 382/382 395/395 396/396
f 380/380 396/396 384/384
f 384/384 396/396 397/397
f 384/384 397/397 398/398
f 387/387 399/399 388/388
f 388/388 399/399 400/400
f 388/388 400/400 389/389
f 389/389 400/400 391/391
f 391/391 400/400 401/401
f 391/391 401/401 392/392
f 378/378 402/402 403/403
f 394/394 404/404 395/395
f 395/395 405/405 396/396
f 395/395 404/404 405/405
f 396/396 406/406 397/397
f 396/396 405/405 406/406
f 397/397 406/406 398/398
f 399/399 407/407 408/408
f 399/399 408/408 400/400
f 400/400 408/408 409/409
f 400/400 409/409 401/401
f 401/401 409/409 410/410
f 411/411 412/412 413/413
f 411/411 414/414 412/412
f 413/413 415/415 416/416
f 413/413 412/412 415/415
f 416/416 417/417 418/418
f 416/416 415/415 417/417
f 418/418 419/419 420/420
f 418/418 417/417 419/419
f 421/421 422/422 423/423
f 421/421 424/424 422/422
f 423/423 425/425 426/426
f 423/423 422/422 425/425
f 414/414 427/427 412/412
f 412/412 428/428 415/415
f 412/412 427/427 428/428
f 415/415 428/428 417/417
f 417/417 428/428 429/429
f 417/417 429/429 430/430
f 417/417 430/430 419/419
f 419/419 430/430 431/431
f 424/424 432/432 422/422
f 422/422 432/432 433/433
f 422/422 433/433 425/425
f 414/414 434/434 435/435
f 414/414 435/435 427/427
f 427/427 436/436 428/428
f 427/427 435/435 436/436
f 428/428 437/437 429/429
f 428/428 436/436 437/437
f 429/429 437/437 430/430
f 430/430 437/437 438/438
f 430/430 438/438 431/431
f 432/432 439/439 440/440
f 432/432 440/440 433/433
f 433/433 440/440 441/441
f 442/442 443/443 444/444
f 442/442 445/445 443/443
f 444/444 446/446 447/447
f 444/444 443/443 446/446
f 447/447 446/446 448/448
f 447/447 448/448 449/449
f 449/449 450/450 451/451
f 449/449 448/448 450/450
f 451/451 452/452 453/453
f 451/451 450/450 452/452
f 453/453 454/454 455/455
f 453/453 452/452 454/454
f 455/455 454/454 456/456
f 455/455 457/457 458/458
f 455/455 456/456 457/457
f 445/445 459/459 443/443
f 443/443 459/459 446/446
f 446/446 460/460 448/448
f 448/448 461/461 450/450
f 448/448 460/460 461/461
f 450/450 461/461 452/452
f 445/445 462/462 463/463
f 445/445 463/463 459/459
f 459/459 464/464 446/446
f 459/459 463/463 464/464
f 446/446 465/465 460/460
f 446/446 464/464 465/465
f 460/460 466/466 461/461
f 460/460 465/465 466/466
f 461/461 467/467 452/452
f 461/461 466/466 467/467
f 452/452 468/468 454/454
f 452/452 467/467 468/468
f 454/454 468/468 456/456
f 456/456 469/469 457/457
f 456/456 468/468 469/469
f 470/470 471/471 472/472
f 470/470 473/473 471/471
f 472/472 474/474 475/475
f 472/472 471/471 474/474
f 475/475 476/476 477/477
f 475/475 474/474 476/476
f 477/477 478/478 479/479
f 477/477 476/476 478/478
f 479/479 478/478 480/480
f 479/479 480/480 481/481
f 481/481 480/480 482/482
f 481/481 483/483 484/484
f 481/481 482/482 483/483
f 484/484 483/483 485/485
f 473/473 486/486 471/471
f 471/471 486/486 474/474
f 474/474 487/487 476/476
f 476/476 488/488 478/478
f 476/476 487/487 488/488
f 478/478 488/488 480/480
f 473/473 489/489 490/490
f 473/473 490/490 486/486
f 486/486 491/491 474/474
f 486/486 490/490 491/491
f 474/474 492/492 487/487
f 474/474 491/491 492/492
f 487/487 493/493 488/488
f 487/487 492/492 493/493
f 488/488 494/494 480/480
f 488/488 493/493 494/494
f 480/480 495/495 482/482
f 480/480 494/494 495/495
f 482/482 495/495 483/483
f 483/483 496/496 485/485
f 483/483 495/495 496/496
f 497/497 498/498 499/499
f 500/500 501/501 502/502
f 502/502 501/501 503/503
f 504/504 505/505 506/506
f 504/504 506/506 507/507
f 507/507 506/506 508/508
f 509/509 510/510 511/511
f 512/512 510/510 509/509
f 510/510 513/513 511/511
f 510/510 514/514 513/513
f 513/513 515/515 511/511
f 514/514 515/515 513/513
f 514/514 516/516 515/515
f 517/517 518/518 519/519
f 520/520 521/521 522/522
f 518/518 523/523 519/519
f 521/521 524/524 525/525
f 523/523 526/526 519/519
f 524/524 527/527 525/525
f 528/528 529/529 530/530
f 531/531 529/529 528/528
f 531/531 532/532 529/529
f 529/529 533/533 530/530
f 532/532 533/533 529/529
f 532/532 534/534 533/533
f 535/535 536/536 537/537
f 538/538 536/536 535/535
f 538/538 539/539 536/536
f 536/536 540/540 537/537
f 539/539 540/540 536/536
f 539/539 541/541 540/540
f 542/542 543/543 544/544
f 543/543 545/545 546/546
f 543/543 546/546 544/544
f 547/547 548/548 549/549
f 547/547 549/549 550/550
f 548/548 551/551 549/549
f 552/552 553/553 554/554
f 553/553 555/555 556/556
f 553/553 556/556 554/554
f 557/557 558/558 559/559
f 557/557 559/559 560/560
f 558/558 561/561 559/559
f 562/562 563/563 564/564
f 562/562 564/564 565/565
f 563/563 566/566 567/567
f 563/563 567/567 564/564
f 568/568 569/569 570/570
f 569/569 571/571 570/570
f 572/572 573/573 574/574
f 569/569 575/575 571/571
f 573/573 576/576 574/574
f 573/573 577/577 576/576
f 578/578 579/579 580/580
f 578/578 580/580 581/581
f 582/582 583/583 584/584
f 583/583 585/585 584/584
f 586/586 587/587 588/588
f 586/586 588/588 589/589
f 590/590 591/591 592/592
f 590/590 592/592 593/593
f 594/594 595/595 596/596
f 594/594 596/596 597/597
f 598/598 599/599 600/600
f 598/598 600/600 601/601
f 602/602 603/603 604/604
f 602/602 604/604 605/605
f 606/606 607/607 608/608
f 606/606 608/608 609/609
f 601/601 600/600 610/610
f 597/597 596/596 611/611
f 597/597 611/611 612/612
f 601/601 610/610 613/613
f 601/601 613/613 614/614
f 605/605 604/604 615/615
f 605/605 615/615 616/616
f 609/609 608/608 617/617
f 609/609 617/617 618/618
f 619/619 620/620 621/621
f 619/619 621/621 622/622
f 623/623 624/624 625/625
f 623/623 625/625 626/626
f 627/627 628/628 629/629
f 627/627 629/629 630/630
f 631/631 632/632 633/633
f 631/631 633/633 634/634
f 622/622 621/621 635/635
f 622/622 635/635 636/636
f 626/626 625/625 637/637
f 626/626 637/637 638/638
f 630/630 629/629 639/639
f 630/630 639/639 640/640
f 634/634 633/633 641/641
f 634/634 641/641 642/642
f 636/636 635/635 643/643
f 636/636 643/643 644/644
f 638/638 637/637 645/645
f 638/638 645/645 646/646
f 640/640 639/639 647/647
f 640/640 647/647 648/648
f 642/642 641/641 649/649
f 642/642 649/649 650/650
f 651/651 652/652 653/653
f 651/651 653/653 654/654
f 655/655 656/656 657/657
f 655/655 657/657 658/658
f 659/659 660/660 661/661
f 659/659 661/661 662/662
f 663/663 664/664 665/665
f 663/663 665/665 666/666
f 654/654 653/653 667/667
f 654/654 667/667 668/668
f 658/658 657/657 669/669
f 658/658 669/669 670/670
f 662/662 661/661 671/671
f 662/662 671/671 672/672
f 666/666 665/665 673/673
f 666/666 673/673 674/674
f 668/668 667/667 675/675
f 668/668 675/675 676/676
f 670/670 669/669 677/677
f 670/670 677/677 678/678
f 672/672 671/671 679/679
f 672/672 679/679 680/680
f 674/674 673/673 681/681
f 674/674 681/681 682/682
f 683/683 684/684 685/685
f 683/683 686/686 684/684
f 687/687 688/688 689/689
f 687/687 690/690 688/688
f 691/691 692/692 693/693
f 691/691 694/694 692/692
f 686/686 695/695 684/684
f 686/686 696/696 695/695
f 690/690 697/697 688/688
f 690/690 698/698 697/697
f 694/694 699/699 692/692
f 694/694 700/700 699/699
f 701/701 702/702 703/703
f 701/701 704/704 702/702
f 705/705 706/706 707/707
f 705/705 708/708 706/706
f 708/708 709/709 706/706
f 708/708 710/710 709/709
f 710/710 711/711 709/709
f 710/710 712/712 711/711
f 712/712 713/713 711/711
f 712/712 714/714 713/713
f 714/714 715/715 713/713
f 715/715 716/716 713/713
f 715/715 703/703 716/716
f 715/715 701/701 703/703
f 717/717 718/718 719/719
f 717/717 720/720 718/718
f 717/717 721/721 720/720
f 717/717 722/722 721/721
f 723/723 724/724 725/725
f 723/723 726/726 724/724
f 723/723 727/727 726/726
f 723/723 728/728 727/727
f 729/729 730/730 731/731
f 729/729 732/732 730/730
f 729/729 733/733 732/732
f 734/734 733/733 729/729
f 735/735 733/733 734/734
f 736/736 733/733 735/735
f 737/737 733/733 736/736
f 738/738 739/739 740/740
f 738/738 740/740 741/741
f 738/738 741/741 742/742
f 738/738 742/742 743/743
f 744/744 745/745 746/746
f 744/744 746/746 747/747
f 744/744 747/747 748/748
f 744/744 748/748 749/749
f 750/750 751/751 752/752
f 750/750 752/752 753/753
f 754/754 750/750 753/753
f 755/755 754/754 753/753
f 756/756 755/755 753/753
f 757/757 756/756 753/753
f 758/758 759/759 760/760
f 758/758 761/761 759/759
f 762/762 761/761 758/758
f 762/762 763/763 761/761
f 764/764 763/763 762/762
f 764/764 765/765 763/763
f 766/766 767/767 768/768
f 766/766 768/768 769/769
f 770/770 766/766 769/769
f 770/770 769/769 771/771
f 772/772 770/770 771/771
f 772/772 771/771 773/773
f 774/774 775/775 776/776
f 776/776 777/777 774/774
f 776/776 778/778 777/777
f 774/774 779/779 775/775
f 774/774 780/780 779/779
f 781/781 782/782 783/783
f 784/784 785/785 786/786
f 787/787 777/777 778/778
f 787/787 788/788 777/777
f 789/789 788/788 787/787
f 789/789 790/790 788/788
f 791/791 792/792 793/793
f 794/794 792/792 791/791
f 794/794 795/795 792/792
f 796/796 790/790 789/789
f 796/796 797/797 790/790
f 798/798 799/799 800/800
f 801/801 785/785 784/784
f 802/802 795/795 794/794
f 803/803 782/782 781/781
f 803/803 804/804 782/782
f 805/805 799/799 798/798
f 774/774 806/806 780/780
f 807/807 806/806 774/774
f 805/805 808/808 799/799
f 809/809 808/808 805/805
f 801/801 810/810 785/785
f 803/803 811/811 804/804
f 812/812 806/806 807/807
f 813/813 810/810 801/801
f 802/802 814/814 795/795
f 802/802 796/796 814/814
f 802/802 797/797 796/796
f 802/802 815/815 797/797
f 802/802 816/816 815/815
f 817/817 816/816 802/802
f 817/817 818/818 816/816
f 819/819 818/818 817/817
f 786/786 820/820 784/784
f 821/821 818/818 819/819
f 822/822 811/811 803/803
f 822/822 823/823 811/811
f 824/824 823/823 822/822
f 824/824 825/825 823/823
f 824/824 786/786 825/825
f 826/826 786/786 824/824
f 826/826 820/820 786/786
f 827/827 820/820 826/826
f 828/828 820/820 827/827
f 828/828 829/829 820/820
f 828/828 830/830 829/829
f 809/809 793/793 808/808
f 809/809 791/791 793/793
f 809/809 831/831 791/791
f 832/832 831/831 809/809
f 832/832 821/821 831/831
f 833/833 821/821 832/832
f 833/833 818/818 821/821
f 834/834 818/818 833/833
f 834/834 835/835 818/818
f 836/836 835/835 834/834
f 836/836 837/837 835/835
f 806/806 837/837 836/836
f 806/806 812/812 837/837
f 838/838 839/839 840/840
f 839/839 838/838 841/841
f 839/839 841/841 842/842
f 838/838 840/840 843/843
f 838/838 843/843 844/844
f 845/845 846/846 847/847
f 848/848 849/849 850/850
f 851/851 842/842 841/841
f 851/851 841/841 852/852
f 853/853 848/848 850/850
f 851/851 852/852 854/854
f 855/855 856/856 857/857
f 858/858 851/851 854/854
f 855/855 857/857 859/859
f 860/860 855/855 859/859
f 861/861 858/858 854/854
f 861/861 854/854 862/862
f 863/863 864/864 865/865
f 860/860 859/859 866/866
f 867/867 845/845 847/847
f 867/867 847/847 868/868
f 863/863 865/865 869/869
f 838/838 844/844 870/870
f 871/871 838/838 870/870
f 872/872 863/863 869/869
f 873/873 853/853 850/850
f 872/872 869/869 874/874
f 873/873 850/850 875/875
f 867/867 868/868 876/876
f 877/877 871/871 870/870
f 860/860 866/866 878/878
f 860/860 878/878 861/861
f 860/860 861/861 862/862
f 860/860 862/862 879/879
f 880/880 860/860 879/879
f 880/880 879/879 881/881
f 882/882 880/880 881/881
f 882/882 881/881 883/883
f 849/849 848/848 884/884
f 885/885 882/882 883/883
f 886/886 867/867 876/876
f 886/886 876/876 887/887
f 888/888 886/886 887/887
f 888/888 887/887 889/889
f 888/888 889/889 849/849
f 890/890 888/888 849/849
f 890/890 849/849 884/884
f 891/891 890/890 884/884
f 891/891 884/884 892/892
f 893/893 891/891 892/892
f 893/893 892/892 894/894
f 872/872 874/874 857/857
f 872/872 857/857 856/856
f 872/872 856/856 895/895
f 896/896 872/872 895/895
f 896/896 895/895 885/885
f 897/897 896/896 885/885
f 897/897 885/885 883/883
f 898/898 897/897 883/883
f 898/898 883/883 899/899
f 900/900 898/898 899/899
f 900/900 899/899 901/901
f 870/870 900/900 901/901
f 870/870 901/901 877/877
f 902/902 903/903 904/904
f 903/903 902/902 905/905
f 906/906 907/907 908/908
f 902/902 904/904 909/909
f 910/910 911/911 912/912
f 913/913 914/914 915/915
f 916/916 913/913 915/915
f 917/917 916/916 915/915
f 906/906 908/908 918/918
f 906/906 918/918 919/919
f 920/920 906/906 919/919
f 921/921 922/922 923/923
f 924/924 921/921 923/923
f 925/925 924/924 923/923
f 903/903 905/905 926/926
f 927/927 912/912 911/911
f 928/928 920/920 919/919
f 928/928 919/919 929/929
f 930/930 928/928 929/929
f 930/930 929/929 931/931
f 925/925 923/923 932/932
f 903/903 926/926 933/933
f 903/903 933/933 934/934
f 935/935 903/903 934/934
f 935/935 934/934 917/917
f 911/911 930/930 931/931
f 927/927 911/911 931/931
f 927/927 931/931 936/936
f 917/917 915/915 937/937
f 935/935 917/917 937/937
f 938/938 935/935 937/937
f 939/939 938/938 937/937
f 939/939 937/937 940/940
f 941/941 939/939 940/940
f 909/909 941/941 940/940
f 942/942 925/925 932/932
f 927/927 936/936 943/943
f 944/944 927/927 943/943
f 944/944 943/943 945/945
f 944/944 945/945 908/908
f 944/944 908/908 907/907
f 946/946 944/944 907/907
f 946/946 907/907 947/947
f 948/948 946/946 947/947
f 942/942 932/932 949/949
f 942/942 949/949 950/950
f 951/951 942/942 950/950
f 940/940 951/951 950/950
f 940/940 950/950 902/902
f 909/909 940/940 902/902
f 952/952 953/953 954/954
f 952/952 955/955 953/953
f 954/954 956/956 952/952
f 957/957 958/958 959/959
f 960/960 958/958 957/957
f 961/961 962/962 963/963
f 964/964 965/965 966/966
f 967/967 965/965 964/964
f 968/968 965/965 967/967
f 969/969 958/958 960/960
f 969/969 970/970 958/958
f 971/971 972/972 973/973
f 971/971 974/974 972/972
f 971/971 975/975 974/974
f 976/976 963/963 962/962
f 977/977 978/978 979/979
f 980/980 978/978 977/977
f 981/981 982/982 970/970
f 981/981 983/983 982/982
f 963/963 983/983 981/981
f 984/984 975/975 971/971
f 956/956 977/977 979/979
f 954/954 977/977 956/956
f 954/954 985/985 977/977
f 986/986 985/985 954/954
f 986/986 968/968 985/985
f 976/976 983/983 963/963
f 976/976 987/987 983/983
f 968/968 988/988 965/965
f 986/986 988/988 968/968
f 989/989 988/988 986/986
f 990/990 988/988 989/989
f 990/990 991/991 988/988
f 992/992 991/991 990/990
f 993/993 991/991 992/992
f 984/984 994/994 975/975
f 976/976 995/995 987/987
f 996/996 995/995 976/976
f 996/996 997/997 995/995
f 996/996 959/959 997/997
f 996/996 957/957 959/959
f 998/998 957/957 996/996
f 998/998 999/999 957/957
f 1000/1000 999/999 998/998
f 984/984 1001/1001 994/994
f 984/984 1002/1002 1001/1001
f 1003/1003 1002/1002 984/984
f 991/991 1002/1002 1003/1003
f 991/991 952/952 1002/1002
f 993/993 952/952 991/991
f 993/993 955/955 952/952
f 1004/1004 1005/1005 1006/1006
f 1007/1007 1008/1008 1009/1009
f 1010/1010 1011/1011 1012/1012
f 1013/1013 1014/1014 1015/1015
f 1016/1016 1017/1017 1018/1018
f 1019/1019 1020/1020 1021/1021
f 1022/1022 1023/1023 1024/1024
f 1025/1025 1026/1026 1027/1027
f 1028/1028 1029/1029 1030/1030
f 1031/1031 1032/1032 1033/1033
f 1034/1034 1035/1035 1036/1036
f 1037/1037 1038/1038 1039/1039
f 1040/1040 1041/1041 1042/1042
f 1043/1043 1044/1044 1045/1045
f 1046/1046 1047/1047 1048/1048
f 1049/1049 1050/1050 1051/1051
f 1052/1052 1053/1053 1054/1054
f 1055/1055 1056/1056 1057/1057
f 1058/1058 1059/1059 1060/1060
f 1061/1061 1062/1062 1063/1063
f 1064/1064 1065/1065 1066/1066
f 1067/1067 1068/1068 1069/1069
f 1070/1070 1071/1071 1072/1072
f 1073/1073 1074/1074 1075/1075
f 1076/1076 1077/1077 1078/1078
f 1079/1079 1080/1080 1081/1081
f 1082/1082 1083/1083 1084/1084
f 1085/1085 1086/1086 1087/1087
f 1088/1088 1089/1089 1090/1090
f 1091/1091 1092/1092 1093/1093
f 1094/1094 1095/1095 1096/1096
f 1097/1097 1098/1098 1099/1099
f 1100/1100 1101/1101 1102/1102
f 1103/1103 1104/1104 1105/1105
f 1106/1106 1107/1107 1108/1108
f 1109/1109 1110/1110 1111/1111
f 1112/1112 1113/1113 1114/1114
f 1115/1115 1116/1116 1117/1117
f 1118/1118 1119/1119 1120/1120
f 1121/1121 1122/1122 1123/1123
f 1124/1124 1125/1125 1126/1126
f 1127/1127 1128/1128 1129/1129
f 1130/1130 1131/1131 1132/1132
f 1133/1133 1134/1134 1135/1135
f 1136/1136 1137/1137 1138/1138
f 1139/1139 1140/1140 1141/1141
f 1142/1142 1143/1143 1144/1144
f 1145/1145 1146/1146 1147/1147
f 1148/1148 1149/1149 1150/1150
f 1151/1151 1152/1152 1153/1153
f 1154/1154 1155/1155 1156/1156
f 1157/1157 1158/1158 1159/1159
f 1160/1160 1161/1161 1162/1162
f 1163/1163 1164/1164 1165/1165
f 1166/1166 1167/1167 1168/1168
# 1006 faces

