v 0.258488 -0.006761 -0.002071
v 0.258488 -0.006761 0.482651
v 0.258488 -0.172546 0.453419
v 0.258488 -0.318335 0.369247
v 0.258488 -0.426543 0.240290
v 0.258488 -0.484120 0.082100
v 0.258488 -0.484120 -0.086243
v 0.258488 -0.426543 -0.244433
v 0.258488 -0.318335 -0.373391
v 0.258488 -0.172546 -0.457562
v 0.258488 -0.006761 -0.486794
v 0.258488 0.159024 -0.457561
v 0.258488 0.304813 -0.373391
v 0.258488 0.413021 -0.244432
v 0.258488 0.470597 -0.086243
v 0.258488 0.470597 0.082100
v 0.258488 0.413021 0.240290
v 0.258488 0.304812 0.369247
v 0.258488 0.159024 0.453419
v -0.216179 -0.006761 -0.002071
v -0.216179 -0.089197 0.224419
v -0.216179 -0.006761 0.238954
v -0.216179 -0.161689 0.182565
v -0.216179 -0.215495 0.118441
v -0.216179 -0.244125 0.039782
v -0.216179 -0.244125 -0.043925
v -0.216179 -0.215495 -0.122584
v -0.216179 -0.161689 -0.186707
v -0.216179 -0.089197 -0.228561
v -0.216179 -0.006761 -0.243097
v -0.216179 0.075675 -0.228561
v -0.216179 0.148167 -0.186707
v -0.216179 0.201973 -0.122584
v -0.216179 0.230603 -0.043925
v -0.216179 0.230603 0.039783
v -0.216179 0.201973 0.118441
v -0.216179 0.148167 0.182565
v -0.216179 0.075674 0.224419
v 0.618268 0.760370 0.440833
v 0.187822 0.806398 0.467407
v 0.187822 0.596788 0.717210
v 0.618268 0.562625 0.676496
v 0.064484 0.806398 0.467407
v 0.064484 0.596788 0.717211
v -0.365963 0.760370 0.440833
v -0.365963 0.562625 0.676496
v 0.618268 0.562625 0.676496
v 0.187822 0.314380 0.880259
v 0.618268 0.296203 0.830315
v 0.064485 0.314380 0.880258
v -0.365962 0.562625 0.676496
v -0.365962 0.296203 0.830315
v 0.618268 0.296203 0.830315
v 0.187822 -0.006761 0.936884
v 0.618268 -0.006761 0.883736
v 0.064485 -0.006761 0.936884
v -0.365963 -0.006761 0.883736
v -0.365962 0.296203 0.830315
v 0.618269 -0.006761 0.883735
v 0.187822 -0.327903 0.880258
v 0.618268 -0.309725 0.830314
v 0.064485 -0.327903 0.880258
v -0.365962 -0.006761 0.883736
v -0.365962 -0.309725 0.830315
v 0.618268 -0.309725 0.830315
v 0.187822 -0.610310 0.717210
v 0.618268 -0.576147 0.676496
v 0.064484 -0.610310 0.717210
v -0.365963 -0.309725 0.830315
v -0.365963 -0.576147 0.676496
v 0.618268 -0.576147 0.676496
v 0.187822 -0.819920 0.467406
v 0.618268 -0.773893 0.440832
v 0.064485 -0.819921 0.467406
v -0.365962 -0.576147 0.676496
v -0.365962 -0.773893 0.440832
v 0.618268 -0.773893 0.440832
v 0.187822 -0.931452 0.160976
v 0.618268 -0.879111 0.151747
v 0.064484 -0.931452 0.160976
v -0.365962 -0.773893 0.440832
v -0.365962 -0.879111 0.151748
v 0.618269 -0.879111 0.151747
v 0.187822 -0.931452 -0.165120
v 0.618269 -0.879111 -0.155890
v 0.064485 -0.931452 -0.165120
v -0.365962 -0.879111 0.151747
v -0.365962 -0.879111 -0.155891
v 0.618268 -0.879111 -0.155890
v 0.187822 -0.819920 -0.471550
v 0.618268 -0.773892 -0.444975
v 0.064485 -0.819921 -0.471550
v -0.365962 -0.879111 -0.155890
v -0.365963 -0.773892 -0.444975
v 0.618269 -0.773892 -0.444975
v 0.187822 -0.610310 -0.721354
v 0.618269 -0.576147 -0.680640
v 0.064485 -0.610310 -0.721354
v -0.365962 -0.773893 -0.444975
v -0.365962 -0.576147 -0.680640
v 0.618268 -0.576147 -0.680639
v 0.187822 -0.327903 -0.884401
v 0.618268 -0.309725 -0.834458
v 0.064484 -0.327902 -0.884401
v -0.365963 -0.576147 -0.680639
v -0.365963 -0.309725 -0.834458
v 0.618269 -0.309725 -0.834459
v 0.187822 -0.006761 -0.941028
v 0.618269 -0.006761 -0.887879
v 0.064485 -0.006761 -0.941028
v -0.365962 -0.309725 -0.834458
v -0.365963 -0.006761 -0.887879
v 0.618268 -0.006761 -0.887879
v 0.187822 0.314381 -0.884401
v 0.618268 0.296203 -0.834458
v 0.064484 0.314381 -0.884402
v -0.365963 -0.006761 -0.887879
v -0.365963 0.296203 -0.834458
v 0.618269 0.296203 -0.834458
v 0.187822 0.596788 -0.721353
v 0.618268 0.562625 -0.680639
v 0.064484 0.596788 -0.721353
v -0.365962 0.296203 -0.834458
v -0.365962 0.562625 -0.680639
v 0.618268 0.562625 -0.680639
v 0.187821 0.806398 -0.471550
v 0.618268 0.760371 -0.444975
v 0.064484 0.806398 -0.471550
v -0.365963 0.562625 -0.680639
v -0.365963 0.760371 -0.444975
v 0.618268 0.760371 -0.444975
v 0.187822 0.917930 -0.165119
v 0.618268 0.865589 -0.155890
v 0.064484 0.917929 -0.165119
v -0.365963 0.760370 -0.444975
v -0.365962 0.865589 -0.155890
v 0.618268 0.865589 -0.155890
v 0.187822 0.917930 0.160977
v 0.618268 0.865589 0.151748
v 0.064484 0.917929 0.160977
v -0.365963 0.865589 -0.155890
v -0.365963 0.865589 0.151748
v 0.618268 0.865589 0.151748
v 0.187822 0.806398 0.467406
v 0.618269 0.760370 0.440832
v 0.064484 0.806398 0.467406
v -0.365962 0.865589 0.151748
v -0.365962 0.760370 0.440833
v 0.618268 -0.309725 0.830315
v 0.678479 -0.006761 0.482651
v 0.618268 -0.006761 0.883736
v 0.678479 -0.172546 0.453419
v 0.618268 -0.576147 0.676496
v 0.678479 -0.318335 0.369247
v 0.618268 -0.773893 0.440832
v 0.678479 -0.426543 0.240290
v 0.618268 -0.879111 0.151747
v 0.678479 -0.484120 0.082099
v 0.618268 -0.879111 -0.155890
v 0.678479 -0.484120 -0.086243
v 0.618268 -0.773893 -0.444975
v 0.678479 -0.426543 -0.244433
v 0.618268 -0.576147 -0.680639
v 0.678479 -0.318335 -0.373391
v 0.618268 -0.309725 -0.834458
v 0.678479 -0.172546 -0.457562
v 0.618268 -0.006761 -0.887879
v 0.678479 -0.006761 -0.486794
v 0.618268 0.296203 -0.834458
v 0.678479 0.159024 -0.457562
v 0.618268 0.562625 -0.680639
v 0.678479 0.304813 -0.373391
v 0.618268 0.760371 -0.444975
v 0.678479 0.413021 -0.244432
v 0.618268 0.865589 0.151748
v 0.678479 0.470597 -0.086243
v 0.618268 0.865589 -0.155890
v 0.678479 0.470597 0.082100
v 0.618268 0.760370 0.440833
v 0.678479 0.413021 0.240290
v 0.618268 0.562625 0.676496
v 0.678479 0.304812 0.369247
v 0.618268 0.296203 0.830315
v 0.678479 0.159024 0.453419
v 0.618268 0.865589 -0.155890
v 0.678479 0.470597 -0.086243
v -0.365962 -0.006761 0.883736
v -0.426174 -0.172546 0.453419
v -0.365962 -0.309725 0.830316
v -0.426174 -0.006761 0.482651
v -0.365962 0.296203 0.830316
v -0.426174 0.159024 0.453419
v -0.365962 0.562625 0.676497
v -0.426174 0.304812 0.369247
v -0.365963 0.760370 0.440833
v -0.426174 0.413021 0.240290
v -0.365962 0.865589 -0.155890
v -0.426174 0.470597 0.082100
v -0.365962 0.865589 0.151748
v -0.426174 0.470597 -0.086242
v -0.365963 0.760371 -0.444974
v -0.426174 0.413021 -0.244432
v -0.365963 0.562625 -0.680639
v -0.426174 0.304813 -0.373390
v -0.365963 0.296203 -0.834457
v -0.426174 0.159024 -0.457561
v -0.365963 -0.006761 -0.887878
v -0.426174 -0.006761 -0.486794
v -0.365963 -0.309725 -0.834457
v -0.426174 -0.172546 -0.457561
v -0.365963 -0.576147 -0.680639
v -0.426174 -0.318335 -0.373390
v -0.365963 -0.773893 -0.444975
v -0.426174 -0.426543 -0.244432
v -0.365962 -0.879111 -0.155890
v -0.426174 -0.484120 -0.086242
v -0.365962 -0.879111 0.151748
v -0.426174 -0.484119 0.082100
v -0.365962 -0.773893 0.440833
v -0.426174 -0.426543 0.240290
v -0.365963 -0.576147 0.676496
v -0.426174 -0.318335 0.369248
v -0.365962 0.865589 0.151748
v -0.426174 0.470597 0.082100
v -0.426174 -0.006761 0.482651
v -0.006183 -0.172546 0.453419
v -0.426174 -0.172546 0.453419
v -0.006183 -0.006761 0.482651
v -0.426174 0.159024 0.453419
v -0.006183 0.159024 0.453419
v -0.426174 0.304812 0.369247
v -0.006183 0.304812 0.369247
v -0.426174 0.413021 0.240290
v -0.006183 0.413021 0.240290
v -0.426174 0.470597 0.082100
v -0.006183 0.470597 0.082100
v -0.426174 0.470597 -0.086243
v -0.006183 0.470597 -0.086243
v -0.426174 0.413021 -0.244432
v -0.006183 0.413021 -0.244432
v -0.426174 0.304813 -0.373391
v -0.006183 0.304813 -0.373391
v -0.426174 0.159024 -0.457561
v -0.006183 0.159024 -0.457561
v -0.426174 -0.006761 -0.486794
v -0.006183 -0.006761 -0.486794
v -0.426174 -0.172546 -0.457561
v -0.006183 -0.172546 -0.457561
v -0.426174 -0.318335 -0.373391
v -0.006183 -0.318335 -0.373391
v -0.426174 -0.426543 -0.244432
v -0.006183 -0.426543 -0.244433
v -0.426174 -0.484120 -0.086243
v -0.006183 -0.484120 -0.086243
v -0.426174 -0.426543 0.240290
v -0.006183 -0.484120 0.082100
v -0.426174 -0.484120 0.082100
v -0.006183 -0.426543 0.240290
v -0.426174 -0.318335 0.369247
v -0.006183 -0.318335 0.369247
v -0.006183 -0.484120 -0.086243
v -0.426174 -0.484120 -0.086243
v 0.678479 -0.172546 0.453419
v 0.258488 -0.006761 0.482651
v 0.678479 -0.006761 0.482651
v 0.258488 -0.172546 0.453419
v 0.678479 -0.318335 0.369247
v 0.258488 -0.318335 0.369247
v 0.678479 -0.426543 0.240290
v 0.258488 -0.426543 0.240290
v 0.678479 -0.484120 0.082099
v 0.258488 -0.484120 0.082100
v 0.678479 -0.484120 -0.086243
v 0.258488 -0.484120 -0.086243
v 0.678479 -0.426543 -0.244433
v 0.258488 -0.426543 -0.244433
v 0.678479 -0.318335 -0.373391
v 0.258488 -0.318335 -0.373391
v 0.678479 -0.172546 -0.457562
v 0.258488 -0.172546 -0.457562
v 0.678479 -0.006761 -0.486794
v 0.258488 -0.006761 -0.486794
v 0.678479 0.159024 -0.457562
v 0.258488 0.159024 -0.457561
v 0.678479 0.304813 -0.373391
v 0.258488 0.304813 -0.373391
v 0.678479 0.413021 -0.244432
v 0.258488 0.413021 -0.244432
v 0.678479 0.470597 -0.086243
v 0.258488 0.470597 -0.086243
v 0.678479 0.470597 0.082100
v 0.258488 0.470597 0.082100
v 0.678479 0.413021 0.240290
v 0.258488 0.413021 0.240290
v 0.678479 0.159024 0.453419
v 0.258488 0.304812 0.369247
v 0.678479 0.304812 0.369247
v 0.258488 0.159024 0.453419
v 0.258488 0.413021 0.240290
v 0.678479 0.413021 0.240290
v -0.006183 -0.006761 0.482651
v -0.016183 -0.099615 0.253044
v -0.006183 -0.172546 0.453419
v -0.016183 -0.099615 0.253044
v -0.006183 -0.006761 0.482651
v -0.016183 -0.006761 0.269416
v -0.006183 0.159024 0.453419
v -0.016183 -0.006761 0.269416
v -0.006183 -0.006761 0.482651
v -0.016183 -0.006761 0.269416
v -0.006183 0.159024 0.453419
v -0.016183 0.086093 0.253044
v -0.006183 0.304812 0.369247
v -0.016183 0.086093 0.253044
v -0.006183 0.159024 0.453419
v -0.016183 0.086093 0.253044
v -0.006183 0.304812 0.369247
v -0.016183 0.167748 0.205900
v -0.006183 0.413021 0.240290
v -0.016183 0.167748 0.205900
v -0.006183 0.304812 0.369247
v -0.016183 0.167748 0.205900
v -0.006183 0.413021 0.240290
v -0.016183 0.228354 0.133673
v -0.006183 0.470597 0.082100
v -0.016183 0.228354 0.133673
v -0.006183 0.413021 0.240290
v -0.016183 0.228354 0.133673
v -0.006183 0.470597 0.082100
v -0.016183 0.260602 0.045072
v -0.006183 0.470597 -0.086243
v -0.016183 0.260602 0.045072
v -0.006183 0.470597 0.082100
v -0.016183 0.260602 0.045072
v -0.006183 0.470597 -0.086243
v -0.016183 0.260602 -0.049215
v -0.006183 0.413021 -0.244432
v -0.016183 0.260602 -0.049215
v -0.006183 0.470597 -0.086243
v -0.016183 0.260602 -0.049215
v -0.006183 0.413021 -0.244432
v -0.016183 0.228354 -0.137815
v -0.006183 0.304813 -0.373391
v -0.016183 0.228354 -0.137815
v -0.006183 0.413021 -0.244432
v -0.016183 0.228354 -0.137815
v -0.006183 0.304813 -0.373391
v -0.016183 0.167748 -0.210043
v -0.006183 0.159024 -0.457561
v -0.016183 0.167748 -0.210043
v -0.006183 0.304813 -0.373391
v -0.016183 0.167748 -0.210043
v -0.006183 0.159024 -0.457561
v -0.016183 0.086093 -0.257186
v -0.006183 -0.006761 -0.486794
v -0.016183 0.086093 -0.257186
v -0.006183 0.159024 -0.457561
v -0.016183 0.086093 -0.257186
v -0.006183 -0.006761 -0.486794
v -0.016183 -0.006761 -0.273559
v -0.006183 -0.172546 -0.457561
v -0.016183 -0.006761 -0.273559
v -0.006183 -0.006761 -0.486794
v -0.016183 -0.006761 -0.273559
v -0.006183 -0.172546 -0.457561
v -0.016183 -0.099615 -0.257186
v -0.006183 -0.318335 -0.373391
v -0.016183 -0.099615 -0.257186
v -0.006183 -0.172546 -0.457561
v -0.016183 -0.099615 -0.257186
v -0.006183 -0.318335 -0.373391
v -0.016183 -0.181270 -0.210043
v -0.006183 -0.426543 -0.244433
v -0.016183 -0.181270 -0.210043
v -0.006183 -0.318335 -0.373391
v -0.016183 -0.181270 -0.210043
v -0.006183 -0.426543 -0.244433
v -0.016183 -0.241876 -0.137815
v -0.006183 -0.484120 -0.086243
v -0.016183 -0.241876 -0.137815
v -0.006183 -0.426543 -0.244433
v -0.016183 -0.241876 -0.137815
v -0.006183 -0.484120 -0.086243
v -0.016183 -0.274124 -0.049215
v -0.006183 -0.484120 0.082100
v -0.016183 -0.274124 -0.049215
v -0.006183 -0.484120 -0.086243
v -0.016183 -0.274124 -0.049215
v -0.006183 -0.484120 0.082100
v -0.016183 -0.274124 0.045072
v -0.006183 -0.426543 0.240290
v -0.016183 -0.274124 0.045072
v -0.006183 -0.484120 0.082100
v -0.016183 -0.274124 0.045072
v -0.006183 -0.426543 0.240290
v -0.016183 -0.241876 0.133672
v -0.006183 -0.318335 0.369247
v -0.016183 -0.241876 0.133672
v -0.006183 -0.426543 0.240290
v -0.016183 -0.241876 0.133672
v -0.006183 -0.318335 0.369247
v -0.016183 -0.181270 0.205900
v -0.006183 -0.172546 0.453419
v -0.016183 -0.181270 0.205900
v -0.006183 -0.318335 0.369247
v -0.016183 -0.181270 0.205900
v -0.006183 -0.172546 0.453419
v -0.016183 -0.099615 0.253044
v -0.016183 -0.006761 0.269416
v -0.186179 -0.099615 0.253044
v -0.016183 -0.099615 0.253044
v -0.186179 -0.099615 0.253044
v -0.016183 -0.006761 0.269416
v -0.186179 -0.006761 0.269416
v -0.016183 0.086093 0.253044
v -0.186179 -0.006761 0.269416
v -0.016183 -0.006761 0.269416
v -0.186179 -0.006761 0.269416
v -0.016183 0.086093 0.253044
v -0.186179 0.086093 0.253044
v -0.016183 0.167748 0.205900
v -0.186179 0.086093 0.253044
v -0.016183 0.086093 0.253044
v -0.186179 0.086093 0.253044
v -0.016183 0.167748 0.205900
v -0.186179 0.167748 0.205900
v -0.016183 0.228354 0.133673
v -0.186179 0.167748 0.205900
v -0.016183 0.167748 0.205900
v -0.186179 0.167748 0.205900
v -0.016183 0.228354 0.133673
v -0.186179 0.228354 0.133673
v -0.016183 0.260602 0.045072
v -0.186179 0.228354 0.133673
v -0.016183 0.228354 0.133673
v -0.186179 0.228354 0.133673
v -0.016183 0.260602 0.045072
v -0.186179 0.260602 0.045072
v -0.016183 0.260602 -0.049215
v -0.186179 0.260602 0.045072
v -0.016183 0.260602 0.045072
v -0.186179 0.260602 0.045072
v -0.016183 0.260602 -0.049215
v -0.186179 0.260602 -0.049215
v -0.016183 0.228354 -0.137815
v -0.186179 0.260602 -0.049215
v -0.016183 0.260602 -0.049215
v -0.186179 0.260602 -0.049215
v -0.016183 0.228354 -0.137815
v -0.186179 0.228354 -0.137815
v -0.016183 0.167748 -0.210043
v -0.186179 0.228354 -0.137815
v -0.016183 0.228354 -0.137815
v -0.186179 0.228354 -0.137815
v -0.016183 0.167748 -0.210043
v -0.186179 0.167748 -0.210043
v -0.016183 0.086093 -0.257186
v -0.186179 0.167748 -0.210043
v -0.016183 0.167748 -0.210043
v -0.186179 0.167748 -0.210043
v -0.016183 0.086093 -0.257186
v -0.186179 0.086093 -0.257186
v -0.016183 -0.006761 -0.273559
v -0.186179 0.086093 -0.257186
v -0.016183 0.086093 -0.257186
v -0.186179 0.086093 -0.257186
v -0.016183 -0.006761 -0.273559
v -0.186179 -0.006761 -0.273559
v -0.016183 -0.099615 -0.257186
v -0.186179 -0.006761 -0.273559
v -0.016183 -0.006761 -0.273559
v -0.186179 -0.006761 -0.273559
v -0.016183 -0.099615 -0.257186
v -0.186179 -0.099615 -0.257186
v -0.016183 -0.181270 -0.210043
v -0.186179 -0.099615 -0.257186
v -0.016183 -0.099615 -0.257186
v -0.186179 -0.099615 -0.257186
v -0.016183 -0.181270 -0.210043
v -0.186179 -0.181270 -0.210043
v -0.016183 -0.241876 -0.137815
v -0.186179 -0.181270 -0.210043
v -0.016183 -0.181270 -0.210043
v -0.186179 -0.181270 -0.210043
v -0.016183 -0.241876 -0.137815
v -0.186179 -0.241876 -0.137815
v -0.016183 -0.274124 -0.049215
v -0.186179 -0.241876 -0.137815
v -0.016183 -0.241876 -0.137815
v -0.186179 -0.241876 -0.137815
v -0.016183 -0.274124 -0.049215
v -0.186179 -0.274124 -0.049215
v -0.016183 -0.241876 0.133672
v -0.186179 -0.274124 0.045072
v -0.016183 -0.274124 0.045072
v -0.186179 -0.274124 0.045072
v -0.016183 -0.241876 0.133672
v -0.186179 -0.241876 0.133672
v -0.016183 -0.181270 0.205900
v -0.186179 -0.241876 0.133672
v -0.016183 -0.241876 0.133672
v -0.186179 -0.241876 0.133672
v -0.016183 -0.181270 0.205900
v -0.186179 -0.181270 0.205900
v -0.016183 -0.099615 0.253044
v -0.186179 -0.181270 0.205900
v -0.016183 -0.181270 0.205900
v -0.186179 -0.181270 0.205900
v -0.016183 -0.099615 0.253044
v -0.186179 -0.099615 0.253044
v -0.016183 -0.274124 0.045072
v -0.186179 -0.274124 -0.049215
v -0.016183 -0.274124 -0.049215
v -0.186179 -0.274124 -0.049215
v -0.016183 -0.274124 0.045072
v -0.186179 -0.274124 0.045072
v -0.186179 -0.006761 0.269416
v -0.216179 -0.089197 0.224419
v -0.186179 -0.099615 0.253044
v -0.216179 -0.089197 0.224419
v -0.186179 -0.006761 0.269416
v -0.216179 -0.006761 0.238954
v -0.186179 0.086093 0.253044
v -0.216179 -0.006761 0.238954
v -0.186179 -0.006761 0.269416
v -0.216179 -0.006761 0.238954
v -0.186179 0.086093 0.253044
v -0.216179 0.075674 0.224419
v -0.186179 0.167748 0.205900
v -0.216179 0.075674 0.224419
v -0.186179 0.086093 0.253044
v -0.216179 0.075674 0.224419
v -0.186179 0.167748 0.205900
v -0.216179 0.148167 0.182565
v -0.186179 0.228354 0.133673
v -0.216179 0.148167 0.182565
v -0.186179 0.167748 0.205900
v -0.216179 0.148167 0.182565
v -0.186179 0.228354 0.133673
v -0.216179 0.201973 0.118441
v -0.186179 0.260602 0.045072
v -0.216179 0.201973 0.118441
v -0.186179 0.228354 0.133673
v -0.216179 0.201973 0.118441
v -0.186179 0.260602 0.045072
v -0.216179 0.230603 0.039783
v -0.186179 0.260602 -0.049215
v -0.216179 0.230603 0.039783
v -0.186179 0.260602 0.045072
v -0.216179 0.230603 0.039783
v -0.186179 0.260602 -0.049215
v -0.216179 0.230603 -0.043925
v -0.186179 0.228354 -0.137815
v -0.216179 0.230603 -0.043925
v -0.186179 0.260602 -0.049215
v -0.216179 0.230603 -0.043925
v -0.186179 0.228354 -0.137815
v -0.216179 0.201973 -0.122584
v -0.186179 0.167748 -0.210043
v -0.216179 0.201973 -0.122584
v -0.186179 0.228354 -0.137815
v -0.216179 0.201973 -0.122584
v -0.186179 0.167748 -0.210043
v -0.216179 0.148167 -0.186707
v -0.186179 0.086093 -0.257186
v -0.216179 0.148167 -0.186707
v -0.186179 0.167748 -0.210043
v -0.216179 0.148167 -0.186707
v -0.186179 0.086093 -0.257186
v -0.216179 0.075675 -0.228561
v -0.186179 -0.006761 -0.273559
v -0.216179 0.075675 -0.228561
v -0.186179 0.086093 -0.257186
v -0.216179 0.075675 -0.228561
v -0.186179 -0.006761 -0.273559
v -0.216179 -0.006761 -0.243097
v -0.186179 -0.099615 -0.257186
v -0.216179 -0.006761 -0.243097
v -0.186179 -0.006761 -0.273559
v -0.216179 -0.006761 -0.243097
v -0.186179 -0.099615 -0.257186
v -0.216179 -0.089197 -0.228561
v -0.186179 -0.181270 -0.210043
v -0.216179 -0.089197 -0.228561
v -0.186179 -0.099615 -0.257186
v -0.216179 -0.089197 -0.228561
v -0.186179 -0.181270 -0.210043
v -0.216179 -0.161689 -0.186707
v -0.186179 -0.241876 -0.137815
v -0.216179 -0.161689 -0.186707
v -0.186179 -0.181270 -0.210043
v -0.216179 -0.161689 -0.186707
v -0.186179 -0.241876 -0.137815
v -0.216179 -0.215495 -0.122584
v -0.186179 -0.274124 -0.049215
v -0.216179 -0.215495 -0.122584
v -0.186179 -0.241876 -0.137815
v -0.216179 -0.215495 -0.122584
v -0.186179 -0.274124 -0.049215
v -0.216179 -0.244125 -0.043925
v -0.186179 -0.274124 0.045072
v -0.216179 -0.244125 -0.043925
v -0.186179 -0.274124 -0.049215
v -0.216179 -0.244125 -0.043925
v -0.186179 -0.274124 0.045072
v -0.216179 -0.244125 0.039782
v -0.186179 -0.241876 0.133672
v -0.216179 -0.244125 0.039782
v -0.186179 -0.274124 0.045072
v -0.216179 -0.244125 0.039782
v -0.186179 -0.241876 0.133672
v -0.216179 -0.215495 0.118441
v -0.186179 -0.099615 0.253044
v -0.216179 -0.161689 0.182565
v -0.186179 -0.181270 0.205900
v -0.216179 -0.161689 0.182565
v -0.186179 -0.099615 0.253044
v -0.216179 -0.089197 0.224419
v -0.186179 -0.181270 0.205900
v -0.216179 -0.215495 0.118441
v -0.186179 -0.241876 0.133672
v -0.216179 -0.215495 0.118441
v -0.186179 -0.181270 0.205900
v -0.216179 -0.161689 0.182565
# 624 vertices

vt 0.392147 1.446449
vt 0.463648 1.487911
vt 0.445217 1.509972
vt 0.420385 1.524372
vt 0.392148 1.529373
vt 0.363910 1.524372
vt 0.339078 1.509973
vt 0.320647 1.487912
vt 0.310840 1.460849
vt 0.310840 1.432050
vt 0.320647 1.404988
vt 0.339078 1.382926
vt 0.363909 1.368527
vt 0.392147 1.363526
vt 0.420384 1.368526
vt 0.445216 1.382925
vt 0.463647 1.404987
vt 0.473454 1.432049
vt 0.473454 1.460848
vt 0.215011 1.875204
vt 0.188622 1.906790
vt 0.179458 1.895820
vt 0.200970 1.913950
vt 0.215011 1.916437
vt 0.229052 1.913950
vt 0.241399 1.906790
vt 0.250564 1.895820
vt 0.255440 1.882364
vt 0.255440 1.868043
vt 0.250564 1.854587
vt 0.241399 1.843617
vt 0.229052 1.836457
vt 0.215011 1.833970
vt 0.200970 1.836457
vt 0.188622 1.843617
vt 0.179458 1.854587
vt 0.174581 1.868044
vt 0.174581 1.882364
vt 1.000000 1.021333
vt 0.999999 1.095531
vt 0.944468 1.094343
vt 0.947613 1.020212
vt 0.999551 1.116626
vt 0.944021 1.115438
vt 0.996407 1.190756
vt 0.944020 1.189635
vt 0.944470 1.020145
vt 0.888938 1.093155
vt 0.892082 1.019024
vt 0.888491 1.114250
vt 0.940877 1.189568
vt 0.888490 1.188447
vt 0.888939 1.018957
vt 0.833408 1.091966
vt 0.836553 1.017836
vt 0.832960 1.113062
vt 0.832959 1.187259
vt 0.885346 1.188380
vt 0.833408 1.017769
vt 0.777877 1.090779
vt 0.781021 1.016648
vt 0.777430 1.111874
vt 0.829816 1.187192
vt 0.777429 1.186071
vt 0.777878 1.016581
vt 0.722347 1.089591
vt 0.725491 1.015460
vt 0.721900 1.110686
vt 0.774285 1.186004
vt 0.721899 1.184884
vt 0.722347 1.015393
vt 0.666816 1.088403
vt 0.669960 1.014273
vt 0.666369 1.109498
vt 0.718756 1.184816
vt 0.666369 1.183696
vt 0.666817 1.014205
vt 0.611286 1.087216
vt 0.614430 1.013085
vt 0.610839 1.108311
vt 0.663225 1.183629
vt 0.610838 1.182508
vt 0.611287 1.013018
vt 0.555756 1.086028
vt 0.558900 1.011897
vt 0.555309 1.107123
vt 0.607694 1.182441
vt 0.555308 1.181320
vt 0.555757 1.011830
vt 0.500226 1.084840
vt 0.503370 1.010709
vt 0.499778 1.105935
vt 0.552163 1.181253
vt 0.499776 1.180132
vt 0.500229 1.010642
vt 0.444695 1.083651
vt 0.447842 1.009520
vt 0.444248 1.104746
vt 0.496631 1.180065
vt 0.444245 1.178943
vt 0.444699 1.009453
vt 0.389165 1.082461
vt 0.392312 1.008331
vt 0.388717 1.103557
vt 0.441101 1.178876
vt 0.388715 1.177754
vt 0.389169 1.008264
vt 0.333635 1.081272
vt 0.336781 1.007142
vt 0.333187 1.102367
vt 0.385571 1.177687
vt 0.333184 1.176565
vt 0.333639 1.007075
vt 0.278105 1.080083
vt 0.281251 1.005952
vt 0.277657 1.101178
vt 0.330040 1.176498
vt 0.277654 1.175376
vt 0.278109 1.005886
vt 0.222574 1.078893
vt 0.225721 1.004763
vt 0.222126 1.099988
vt 0.274510 1.175308
vt 0.222123 1.174186
vt 0.222579 1.004696
vt 0.167044 1.077703
vt 0.170191 1.003573
vt 0.166596 1.098798
vt 0.218979 1.174118
vt 0.166592 1.172996
vt 0.167049 1.003506
vt 0.111514 1.076513
vt 0.114661 1.002382
vt 0.111066 1.097608
vt 0.163448 1.172928
vt 0.111061 1.171805
vt 0.111519 1.002315
vt 0.055984 1.075321
vt 0.059132 1.001191
vt 0.055535 1.096417
vt 0.107917 1.171738
vt 0.055530 1.170614
vt 0.055990 1.001124
vt 0.000454 1.074130
vt 0.003602 1.000000
vt 0.000005 1.095226
vt 0.052387 1.170547
vt 0.000000 1.169423
vt 0.016859 1.280664
vt 0.068253 1.341205
vt 0.000000 1.330494
vt 0.077479 1.313938
vt 0.049511 1.239501
vt 0.095346 1.291413
vt 0.094103 1.211863
vt 0.119747 1.276289
vt 0.145375 1.201008
vt 0.147804 1.270350
vt 0.197280 1.208218
vt 0.176206 1.274295
vt 0.243695 1.232641
vt 0.201605 1.287659
vt 0.279146 1.271397
vt 0.221004 1.308867
vt 0.299450 1.319914
vt 0.232115 1.335416
vt 0.302212 1.372470
vt 0.233626 1.364175
vt 0.287107 1.422865
vt 0.225361 1.391752
vt 0.255917 1.465155
vt 0.208293 1.414893
vt 0.212321 1.494351
vt 0.184437 1.430870
vt 0.099118 1.498350
vt 0.150739 1.438003
vt 0.150739 1.507388
vt 0.122491 1.433058
vt 0.053586 1.472303
vt 0.097576 1.418805
vt 0.019514 1.432319
vt 0.078931 1.396925
vt 0.000921 1.383115
vt 0.068757 1.370000
vt 0.161460 1.507010
vt 0.156605 1.437797
vt 0.302212 1.688951
vt 0.232115 1.651897
vt 0.299450 1.636395
vt 0.233626 1.680656
vt 0.287107 1.739346
vt 0.225361 1.708233
vt 0.255917 1.781635
vt 0.208293 1.731374
vt 0.212320 1.810831
vt 0.184437 1.747350
vt 0.099118 1.814831
vt 0.150739 1.754484
vt 0.150739 1.823869
vt 0.122491 1.749539
vt 0.053586 1.788784
vt 0.097576 1.735286
vt 0.019515 1.748800
vt 0.078931 1.713406
vt 0.000921 1.699596
vt 0.068757 1.686481
vt 0.000000 1.646975
vt 0.068253 1.657687
vt 0.016859 1.597145
vt 0.077479 1.630419
vt 0.049511 1.555983
vt 0.095346 1.607894
vt 0.094102 1.528344
vt 0.119747 1.592770
vt 0.145375 1.517489
vt 0.147804 1.586830
vt 0.197280 1.524699
vt 0.176206 1.590776
vt 0.243695 1.549122
vt 0.201605 1.604140
vt 0.279145 1.587878
vt 0.221004 1.625348
vt 0.161460 1.823490
vt 0.156605 1.754277
vt 0.454206 1.201009
vt 0.425533 1.272859
vt 0.425533 1.201009
vt 0.454207 1.272859
vt 0.482880 1.201009
vt 0.482880 1.272859
vt 0.511553 1.201009
vt 0.511553 1.272858
vt 0.540226 1.201009
vt 0.540226 1.272858
vt 0.568899 1.201009
vt 0.568900 1.272858
vt 0.597573 1.201009
vt 0.597573 1.272858
vt 0.626246 1.201009
vt 0.626246 1.272858
vt 0.654919 1.201008
vt 0.654919 1.272858
vt 0.683592 1.201008
vt 0.683593 1.272858
vt 0.712266 1.201008
vt 0.712266 1.272858
vt 0.740939 1.201008
vt 0.740939 1.272858
vt 0.769612 1.201008
vt 0.769612 1.272858
vt 0.798286 1.201008
vt 0.798286 1.272858
vt 0.826959 1.201008
vt 0.826959 1.272858
vt 0.368187 1.201009
vt 0.339514 1.272859
vt 0.339513 1.201009
vt 0.368187 1.272859
vt 0.396860 1.201009
vt 0.396860 1.272859
vt 0.310840 1.272859
vt 0.310840 1.201010
vt 0.712266 1.354117
vt 0.740939 1.282267
vt 0.740939 1.354117
vt 0.712266 1.282267
vt 0.683593 1.354117
vt 0.683593 1.282267
vt 0.654919 1.354117
vt 0.654919 1.282267
vt 0.626246 1.354117
vt 0.626246 1.282267
vt 0.597573 1.354117
vt 0.597573 1.282267
vt 0.568900 1.354117
vt 0.568899 1.282267
vt 0.540226 1.354117
vt 0.540226 1.282267
vt 0.511553 1.354117
vt 0.511553 1.282268
vt 0.482880 1.354117
vt 0.482880 1.282268
vt 0.454207 1.354117
vt 0.454206 1.282268
vt 0.425533 1.354117
vt 0.425533 1.282268
vt 0.396860 1.354117
vt 0.396860 1.282268
vt 0.368187 1.354117
vt 0.368187 1.282268
vt 0.339513 1.354117
vt 0.339513 1.282268
vt 0.310840 1.354118
vt 0.310840 1.282268
vt 0.769612 1.354117
vt 0.798286 1.282267
vt 0.798286 1.354117
vt 0.769612 1.282267
vt 0.826959 1.282267
vt 0.826959 1.354117
vt 0.152829 1.958778
vt 0.126968 1.925259
vt 0.162779 1.931708
vt 0.126968 1.925259
vt 0.152829 1.958778
vt 0.121413 1.940393
vt 0.134315 1.980769
vt 0.121413 1.940393
vt 0.152829 1.958778
vt 0.121413 1.940393
vt 0.134315 1.980769
vt 0.111044 1.952710
vt 0.109435 1.995084
vt 0.111044 1.952710
vt 0.134315 1.980769
vt 0.111044 1.952710
vt 0.109435 1.995084
vt 0.097108 1.960728
vt 0.081182 2.000000
vt 0.097108 1.960728
vt 0.109435 1.995084
vt 0.097108 1.960728
vt 0.081182 2.000000
vt 0.081285 1.963481
vt 0.052958 1.994925
vt 0.081285 1.963481
vt 0.081182 2.000000
vt 0.081285 1.963481
vt 0.052958 1.994925
vt 0.065476 1.960638
vt 0.028158 1.980470
vt 0.065476 1.960638
vt 0.052958 1.994925
vt 0.065476 1.960638
vt 0.028158 1.980470
vt 0.051586 1.952542
vt 0.009768 1.958374
vt 0.051586 1.952542
vt 0.028158 1.980470
vt 0.051586 1.952542
vt 0.009768 1.958374
vt 0.041286 1.940167
vt 0.000000 1.931298
vt 0.041286 1.940167
vt 0.009768 1.958374
vt 0.041286 1.940167
vt 0.000000 1.931298
vt 0.035815 1.925002
vt 0.000031 1.902499
vt 0.035815 1.925002
vt 0.000000 1.931298
vt 0.035815 1.925002
vt 0.000031 1.902499
vt 0.035832 1.908871
vt 0.009856 1.875443
vt 0.035832 1.908871
vt 0.000031 1.902499
vt 0.035832 1.908871
vt 0.009856 1.875443
vt 0.041335 1.893718
vt 0.028293 1.853387
vt 0.041335 1.893718
vt 0.009856 1.875443
vt 0.041335 1.893718
vt 0.028293 1.853387
vt 0.051662 1.881364
vt 0.053123 1.838985
vt 0.051662 1.881364
vt 0.028293 1.853387
vt 0.051662 1.881364
vt 0.053123 1.838985
vt 0.065569 1.873298
vt 0.081358 1.833970
vt 0.065569 1.873298
vt 0.053123 1.838985
vt 0.065569 1.873298
vt 0.081358 1.833970
vt 0.081383 1.870489
vt 0.109600 1.838946
vt 0.081383 1.870489
vt 0.081358 1.833970
vt 0.081383 1.870489
vt 0.109600 1.838946
vt 0.097201 1.873277
vt 0.134450 1.853315
vt 0.097201 1.873277
vt 0.109600 1.838946
vt 0.097201 1.873277
vt 0.134450 1.853315
vt 0.111119 1.881324
vt 0.152917 1.875346
vt 0.111119 1.881324
vt 0.134450 1.853315
vt 0.111119 1.881324
vt 0.152917 1.875346
vt 0.121462 1.893663
vt 0.162779 1.902388
vt 0.121462 1.893663
vt 0.152917 1.875346
vt 0.121462 1.893663
vt 0.162779 1.902388
vt 0.126963 1.909255
vt 0.162779 1.931708
vt 0.126963 1.909255
vt 0.162779 1.902388
vt 0.126963 1.909255
vt 0.162779 1.931708
vt 0.126968 1.925259
vt 0.565719 1.363526
vt 0.549660 1.392608
vt 0.549660 1.363526
vt 0.549660 1.392608
vt 0.565719 1.363526
vt 0.565719 1.392608
vt 0.581779 1.363526
vt 0.565719 1.392608
vt 0.565719 1.363526
vt 0.565719 1.392608
vt 0.581779 1.363526
vt 0.581779 1.392608
vt 0.597839 1.363526
vt 0.581779 1.392608
vt 0.581779 1.363526
vt 0.581779 1.392608
vt 0.597839 1.363526
vt 0.597839 1.392608
vt 0.613898 1.363526
vt 0.597839 1.392608
vt 0.597839 1.363526
vt 0.597839 1.392608
vt 0.613898 1.363526
vt 0.613898 1.392608
vt 0.629958 1.363526
vt 0.613898 1.392608
vt 0.613898 1.363526
vt 0.613898 1.392608
vt 0.629958 1.363526
vt 0.629958 1.392608
vt 0.646017 1.363526
vt 0.629958 1.392608
vt 0.629958 1.363526
vt 0.629958 1.392608
vt 0.646017 1.363526
vt 0.646017 1.392608
vt 0.662077 1.363526
vt 0.646017 1.392608
vt 0.646017 1.363526
vt 0.646017 1.392608
vt 0.662077 1.363526
vt 0.662077 1.392608
vt 0.678136 1.363526
vt 0.662077 1.392608
vt 0.662077 1.363526
vt 0.662077 1.392608
vt 0.678136 1.363526
vt 0.678136 1.392608
vt 0.694196 1.363526
vt 0.678136 1.392608
vt 0.678136 1.363526
vt 0.678136 1.392608
vt 0.694196 1.363526
vt 0.694196 1.392608
vt 0.710256 1.363526
vt 0.694196 1.392608
vt 0.694196 1.363526
vt 0.694196 1.392608
vt 0.710256 1.363526
vt 0.710256 1.392608
vt 0.726315 1.363526
vt 0.710256 1.392608
vt 0.710256 1.363526
vt 0.710256 1.392608
vt 0.726315 1.363526
vt 0.726315 1.392608
vt 0.742375 1.363526
vt 0.726315 1.392608
vt 0.726315 1.363526
vt 0.726315 1.392608
vt 0.742375 1.363526
vt 0.742375 1.392608
vt 0.758434 1.363526
vt 0.742375 1.392608
vt 0.742375 1.363526
vt 0.742375 1.392608
vt 0.758434 1.363526
vt 0.758434 1.392608
vt 0.774494 1.363526
vt 0.758434 1.392608
vt 0.758434 1.363526
vt 0.758434 1.392608
vt 0.774494 1.363526
vt 0.774494 1.392608
vt 0.517541 1.363526
vt 0.501481 1.392608
vt 0.501481 1.363526
vt 0.501481 1.392608
vt 0.517541 1.363526
vt 0.517541 1.392608
vt 0.533600 1.363526
vt 0.517541 1.392608
vt 0.517541 1.363526
vt 0.517541 1.392608
vt 0.533600 1.363526
vt 0.533600 1.392608
vt 0.549660 1.363526
vt 0.533600 1.392608
vt 0.533600 1.363526
vt 0.533600 1.392608
vt 0.549660 1.363526
vt 0.549660 1.392608
vt 0.501481 1.363526
vt 0.485421 1.392608
vt 0.485422 1.363526
vt 0.485421 1.392608
vt 0.501481 1.363526
vt 0.501481 1.392608
vt 0.436146 1.615666
vt 0.432863 1.599125
vt 0.440089 1.600030
vt 0.432863 1.599125
vt 0.436146 1.615666
vt 0.429362 1.613007
vt 0.428500 1.629851
vt 0.429362 1.613007
vt 0.436146 1.615666
vt 0.429362 1.613007
vt 0.428500 1.629851
vt 0.422574 1.625600
vt 0.417621 1.641716
vt 0.422574 1.625600
vt 0.428500 1.629851
vt 0.422574 1.625600
vt 0.417621 1.641716
vt 0.412916 1.636134
vt 0.404174 1.650535
vt 0.412916 1.636134
vt 0.417621 1.641716
vt 0.412916 1.636134
vt 0.404174 1.650535
vt 0.400978 1.643963
vt 0.388983 1.655767
vt 0.400978 1.643963
vt 0.404174 1.650535
vt 0.400978 1.643963
vt 0.388983 1.655767
vt 0.387491 1.648608
vt 0.372978 1.657093
vt 0.387491 1.648608
vt 0.388983 1.655767
vt 0.387491 1.648608
vt 0.372978 1.657093
vt 0.373282 1.649785
vt 0.357139 1.654431
vt 0.373282 1.649785
vt 0.372978 1.657093
vt 0.373282 1.649785
vt 0.357139 1.654431
vt 0.359220 1.647422
vt 0.342435 1.647944
vt 0.359220 1.647422
vt 0.357139 1.654431
vt 0.359220 1.647422
vt 0.342435 1.647944
vt 0.346166 1.641662
vt 0.329767 1.638029
vt 0.346166 1.641662
vt 0.342435 1.647944
vt 0.346166 1.641662
vt 0.329767 1.638029
vt 0.334920 1.632860
vt 0.319912 1.625294
vt 0.334920 1.632860
vt 0.329767 1.638029
vt 0.334920 1.632860
vt 0.319912 1.625294
vt 0.326170 1.621554
vt 0.313471 1.610518
vt 0.326170 1.621554
vt 0.319912 1.625294
vt 0.326170 1.621554
vt 0.313471 1.610518
vt 0.320452 1.608436
vt 0.310840 1.594605
vt 0.320452 1.608436
vt 0.313471 1.610518
vt 0.320452 1.608436
vt 0.310840 1.594605
vt 0.318116 1.594309
vt 0.312180 1.578532
vt 0.318116 1.594309
vt 0.310840 1.594605
vt 0.318116 1.594309
vt 0.312180 1.578532
vt 0.319306 1.580039
vt 0.317408 1.563280
vt 0.319306 1.580039
vt 0.312180 1.578532
vt 0.319306 1.580039
vt 0.317408 1.563280
vt 0.323947 1.566499
vt 0.326205 1.549785
vt 0.323947 1.566499
vt 0.317408 1.563280
vt 0.323947 1.566499
vt 0.326205 1.549785
vt 0.331757 1.554518
vt 0.338031 1.538873
vt 0.331757 1.554518
vt 0.326205 1.549785
vt 0.331757 1.554518
vt 0.338031 1.538873
vt 0.342257 1.544830
vt 0.440089 1.600030
vt 0.432863 1.584805
vt 0.440089 1.583900
vt 0.432863 1.584805
vt 0.440089 1.600030
vt 0.432863 1.599125
vt 0.440089 1.583900
vt 0.429362 1.570923
vt 0.436146 1.568263
vt 0.429362 1.570923
vt 0.440089 1.583900
vt 0.432863 1.584805
# 624 texture vertices

g Material_44
f 1/1 2/2 3/3
f 1/1 3/3 4/4
f 1/1 4/4 5/5
f 1/1 5/5 6/6
f 1/1 6/6 7/7
f 1/1 7/7 8/8
f 1/1 8/8 9/9
f 1/1 9/9 10/10
f 1/1 10/10 11/11
f 1/1 11/11 12/12
f 1/1 12/12 13/13
f 1/1 13/13 14/14
f 1/1 14/14 15/15
f 1/1 15/15 16/16
f 1/1 16/16 17/17
f 1/1 17/17 18/18
f 1/1 18/18 19/19
f 1/1 19/19 2/2
f 20/20 21/21 22/22
f 20/20 23/23 21/21
f 20/20 24/24 23/23
f 20/20 25/25 24/24
f 20/20 26/26 25/25
f 20/20 27/27 26/26
f 20/20 28/28 27/27
f 20/20 29/29 28/28
f 20/20 30/30 29/29
f 20/20 31/31 30/30
f 20/20 32/32 31/31
f 20/20 33/33 32/32
f 20/20 34/34 33/33
f 20/20 35/35 34/34
f 20/20 36/36 35/35
f 20/20 37/37 36/36
f 20/20 38/38 37/37
f 20/20 22/22 38/38
f 39/39 40/40 41/41
f 39/39 41/41 42/42
f 40/40 43/43 44/44
f 40/40 44/44 41/41
f 43/43 45/45 46/46
f 43/43 46/46 44/44
f 47/47 41/41 48/48
f 47/47 48/48 49/49
f 41/41 44/44 50/50
f 41/41 50/50 48/48
f 44/44 51/51 52/52
f 44/44 52/52 50/50
f 53/53 48/48 54/54
f 53/53 54/54 55/55
f 48/48 56/56 54/54
f 48/48 50/50 56/56
f 50/50 57/57 56/56
f 50/50 58/58 57/57
f 59/59 54/54 60/60
f 59/59 60/60 61/61
f 54/54 56/56 62/62
f 54/54 62/62 60/60
f 56/56 63/63 64/64
f 56/56 64/64 62/62
f 65/65 60/60 66/66
f 65/65 66/66 67/67
f 60/60 62/62 68/68
f 60/60 68/68 66/66
f 62/62 69/69 70/70
f 62/62 70/70 68/68
f 71/71 66/66 72/72
f 71/71 72/72 73/73
f 66/66 68/68 74/74
f 66/66 74/74 72/72
f 68/68 75/75 76/76
f 68/68 76/76 74/74
f 77/77 72/72 78/78
f 77/77 78/78 79/79
f 72/72 74/74 80/80
f 72/72 80/80 78/78
f 74/74 81/81 82/82
f 74/74 82/82 80/80
f 83/83 78/78 84/84
f 83/83 84/84 85/85
f 78/78 80/80 86/86
f 78/78 86/86 84/84
f 80/80 87/87 88/88
f 80/80 88/88 86/86
f 89/89 84/84 90/90
f 89/89 90/90 91/91
f 84/84 86/86 92/92
f 84/84 92/92 90/90
f 86/86 93/93 94/94
f 86/86 94/94 92/92
f 95/95 90/90 96/96
f 95/95 96/96 97/97
f 90/90 92/92 98/98
f 90/90 98/98 96/96
f 92/92 99/99 100/100
f 92/92 100/100 98/98
f 101/101 96/96 102/102
f 101/101 102/102 103/103
f 96/96 98/98 104/104
f 96/96 104/104 102/102
f 98/98 105/105 106/106
f 98/98 106/106 104/104
f 107/107 102/102 108/108
f 107/107 108/108 109/109
f 102/102 104/104 110/110
f 102/102 110/110 108/108
f 104/104 111/111 112/112
f 104/104 112/112 110/110
f 113/113 108/108 114/114
f 113/113 114/114 115/115
f 108/108 110/110 116/116
f 108/108 116/116 114/114
f 110/110 117/117 118/118
f 110/110 118/118 116/116
f 119/119 114/114 120/120
f 119/119 120/120 121/121
f 114/114 116/116 122/122
f 114/114 122/122 120/120
f 116/116 123/123 124/124
f 116/116 124/124 122/122
f 125/125 120/120 126/126
f 125/125 126/126 127/127
f 120/120 122/122 128/128
f 120/120 128/128 126/126
f 122/122 129/129 130/130
f 122/122 130/130 128/128
f 131/131 126/126 132/132
f 131/131 132/132 133/133
f 126/126 128/128 134/134
f 126/126 134/134 132/132
f 128/128 135/135 136/136
f 128/128 136/136 134/134
f 137/137 132/132 138/138
f 137/137 138/138 139/139
f 132/132 134/134 140/140
f 132/132 140/140 138/138
f 134/134 141/141 142/142
f 134/134 142/142 140/140
f 143/143 138/138 144/144
f 143/143 144/144 145/145
f 138/138 140/140 146/146
f 138/138 146/146 144/144
f 140/140 147/147 148/148
f 140/140 148/148 146/146
f 149/149 150/150 151/151
f 150/150 149/149 152/152
f 153/153 152/152 149/149
f 152/152 153/153 154/154
f 155/155 154/154 153/153
f 154/154 155/155 156/156
f 157/157 156/156 155/155
f 156/156 157/157 158/158
f 159/159 158/158 157/157
f 158/158 159/159 160/160
f 161/161 160/160 159/159
f 160/160 161/161 162/162
f 163/163 162/162 161/161
f 162/162 163/163 164/164
f 165/165 164/164 163/163
f 164/164 165/165 166/166
f 167/167 166/166 165/165
f 166/166 167/167 168/168
f 169/169 168/168 167/167
f 168/168 169/169 170/170
f 171/171 170/170 169/169
f 170/170 171/171 172/172
f 173/173 172/172 171/171
f 172/172 173/173 174/174
f 175/175 176/176 177/177
f 176/176 175/175 178/178
f 179/179 178/178 175/175
f 178/178 179/179 180/180
f 181/181 180/180 179/179
f 180/180 181/181 182/182
f 183/183 182/182 181/181
f 182/182 183/183 184/184
f 151/151 184/184 183/183
f 184/184 151/151 150/150
f 185/185 174/174 173/173
f 174/174 185/185 186/186
f 187/187 188/188 189/189
f 188/188 187/187 190/190
f 191/191 190/190 187/187
f 190/190 191/191 192/192
f 193/193 192/192 191/191
f 192/192 193/193 194/194
f 195/195 194/194 193/193
f 194/194 195/195 196/196
f 197/197 198/198 199/199
f 198/198 197/197 200/200
f 201/201 200/200 197/197
f 200/200 201/201 202/202
f 203/203 202/202 201/201
f 202/202 203/203 204/204
f 205/205 204/204 203/203
f 204/204 205/205 206/206
f 207/207 206/206 205/205
f 206/206 207/207 208/208
f 209/209 208/208 207/207
f 208/208 209/209 210/210
f 211/211 210/210 209/209
f 210/210 211/211 212/212
f 213/213 212/212 211/211
f 212/212 213/213 214/214
f 215/215 214/214 213/213
f 214/214 215/215 216/216
f 217/217 216/216 215/215
f 216/216 217/217 218/218
f 219/219 218/218 217/217
f 218/218 219/219 220/220
f 221/221 220/220 219/219
f 220/220 221/221 222/222
f 189/189 222/222 221/221
f 222/222 189/189 188/188
f 223/223 196/196 195/195
f 196/196 223/223 224/224
f 225/225 226/226 227/227
f 226/226 225/225 228/228
f 229/229 228/228 225/225
f 228/228 229/229 230/230
f 231/231 230/230 229/229
f 230/230 231/231 232/232
f 233/233 232/232 231/231
f 232/232 233/233 234/234
f 235/235 234/234 233/233
f 234/234 235/235 236/236
f 237/237 236/236 235/235
f 236/236 237/237 238/238
f 239/239 238/238 237/237
f 238/238 239/239 240/240
f 241/241 240/240 239/239
f 240/240 241/241 242/242
f 243/243 242/242 241/241
f 242/242 243/243 244/244
f 245/245 244/244 243/243
f 244/244 245/245 246/246
f 247/247 246/246 245/245
f 246/246 247/247 248/248
f 249/249 248/248 247/247
f 248/248 249/249 250/250
f 251/251 250/250 249/249
f 250/250 251/251 252/252
f 253/253 252/252 251/251
f 252/252 253/253 254/254
f 255/255 256/256 257/257
f 256/256 255/255 258/258
f 259/259 258/258 255/255
f 258/258 259/259 260/260
f 227/227 260/260 259/259
f 260/260 227/227 226/226
f 257/257 261/261 262/262
f 261/261 257/257 256/256
f 263/263 264/264 265/265
f 264/264 263/263 266/266
f 267/267 266/266 263/263
f 266/266 267/267 268/268
f 269/269 268/268 267/267
f 268/268 269/269 270/270
f 271/271 270/270 269/269
f 270/270 271/271 272/272
f 273/273 272/272 271/271
f 272/272 273/273 274/274
f 275/275 274/274 273/273
f 274/274 275/275 276/276
f 277/277 276/276 275/275
f 276/276 277/277 278/278
f 279/279 278/278 277/277
f 278/278 279/279 280/280
f 281/281 280/280 279/279
f 280/280 281/281 282/282
f 283/283 282/282 281/281
f 282/282 283/283 284/284
f 285/285 284/284 283/283
f 284/284 285/285 286/286
f 287/287 286/286 285/285
f 286/286 287/287 288/288
f 289/289 288/288 287/287
f 288/288 289/289 290/290
f 291/291 290/290 289/289
f 290/290 291/291 292/292
f 293/293 292/292 291/291
f 292/292 293/293 294/294
f 295/295 296/296 297/297
f 296/296 295/295 298/298
f 265/265 298/298 295/295
f 298/298 265/265 264/264
f 297/297 299/299 300/300
f 299/299 297/297 296/296
f 301/301 302/302 303/303
f 304/304 305/305 306/306
f 307/307 308/308 309/309
f 310/310 311/311 312/312
f 313/313 314/314 315/315
f 316/316 317/317 318/318
f 319/319 320/320 321/321
f 322/322 323/323 324/324
f 325/325 326/326 327/327
f 328/328 329/329 330/330
f 331/331 332/332 333/333
f 334/334 335/335 336/336
f 337/337 338/338 339/339
f 340/340 341/341 342/342
f 343/343 344/344 345/345
f 346/346 347/347 348/348
f 349/349 350/350 351/351
f 352/352 353/353 354/354
f 355/355 356/356 357/357
f 358/358 359/359 360/360
f 361/361 362/362 363/363
f 364/364 365/365 366/366
f 367/367 368/368 369/369
f 370/370 371/371 372/372
f 373/373 374/374 375/375
f 376/376 377/377 378/378
f 379/379 380/380 381/381
f 382/382 383/383 384/384
f 385/385 386/386 387/387
f 388/388 389/389 390/390
f 391/391 392/392 393/393
f 394/394 395/395 396/396
f 397/397 398/398 399/399
f 400/400 401/401 402/402
f 403/403 404/404 405/405
f 406/406 407/407 408/408
f 409/409 410/410 411/411
f 412/412 413/413 414/414
f 415/415 416/416 417/417
f 418/418 419/419 420/420
f 421/421 422/422 423/423
f 424/424 425/425 426/426
f 427/427 428/428 429/429
f 430/430 431/431 432/432
f 433/433 434/434 435/435
f 436/436 437/437 438/438
f 439/439 440/440 441/441
f 442/442 443/443 444/444
f 445/445 446/446 447/447
f 448/448 449/449 450/450
f 451/451 452/452 453/453
f 454/454 455/455 456/456
f 457/457 458/458 459/459
f 460/460 461/461 462/462
f 463/463 464/464 465/465
f 466/466 467/467 468/468
f 469/469 470/470 471/471
f 472/472 473/473 474/474
f 475/475 476/476 477/477
f 478/478 479/479 480/480
f 481/481 482/482 483/483
f 484/484 485/485 486/486
f 487/487 488/488 489/489
f 490/490 491/491 492/492
f 493/493 494/494 495/495
f 496/496 497/497 498/498
f 499/499 500/500 501/501
f 502/502 503/503 504/504
f 505/505 506/506 507/507
f 508/508 509/509 510/510
f 511/511 512/512 513/513
f 514/514 515/515 516/516
f 517/517 518/518 519/519
f 520/520 521/521 522/522
f 523/523 524/524 525/525
f 526/526 527/527 528/528
f 529/529 530/530 531/531
f 532/532 533/533 534/534
f 535/535 536/536 537/537
f 538/538 539/539 540/540
f 541/541 542/542 543/543
f 544/544 545/545 546/546
f 547/547 548/548 549/549
f 550/550 551/551 552/552
f 553/553 554/554 555/555
f 556/556 557/557 558/558
f 559/559 560/560 561/561
f 562/562 563/563 564/564
f 565/565 566/566 567/567
f 568/568 569/569 570/570
f 571/571 572/572 573/573
f 574/574 575/575 576/576
f 577/577 578/578 579/579
f 580/580 581/581 582/582
f 583/583 584/584 585/585
f 586/586 587/587 588/588
f 589/589 590/590 591/591
f 592/592 593/593 594/594
f 595/595 596/596 597/597
f 598/598 599/599 600/600
f 601/601 602/602 603/603
f 604/604 605/605 606/606
f 607/607 608/608 609/609
f 610/610 611/611 612/612
f 613/613 614/614 615/615
f 616/616 617/617 618/618
f 619/619 620/620 621/621
f 622/622 623/623 624/624
# 396 faces

