v -0.248282 -0.074926 -0.932338
v -0.248282 -0.074926 -0.117229
v -0.248282 0.074927 -0.117229
v -0.248282 0.074927 -0.932338
v -0.081291 -0.074926 0.551330
v 0.507695 -0.074926 0.551330
v 0.507695 0.074927 0.551330
v -0.081291 0.074927 0.551330
v 0.507695 -0.074926 0.501115
v -0.041404 -0.074926 0.501115
v -0.041404 0.074927 0.501115
v 0.507695 0.074927 0.501115
v -0.198067 -0.074926 -0.122985
v -0.198067 -0.074926 -0.932338
v -0.198067 0.074927 -0.932338
v -0.198067 0.074927 -0.122985
v -0.248282 -0.074926 -0.117229
v -0.081291 -0.074926 0.551330
v -0.081291 0.074927 0.551330
v -0.248282 0.074927 -0.117229
v 0.507695 -0.074926 0.551330
v 0.507695 -0.074926 0.501115
v 0.507695 0.074927 0.501115
v 0.507695 0.074927 0.551330
v -0.041404 -0.074926 0.501115
v -0.198067 -0.074926 -0.122985
v -0.198067 0.074927 -0.122985
v -0.041404 0.074927 0.501115
v -0.198067 -0.074926 -0.932338
v -0.248282 -0.074926 -0.932338
v -0.248282 0.074927 -0.932338
v -0.198067 0.074927 -0.932338
v -0.198067 -0.074926 -0.122985
v -0.248282 -0.074926 -0.932338
v -0.198067 -0.074926 -0.932338
v -0.248282 -0.074926 -0.117229
v -0.081291 -0.074926 0.551330
v -0.041404 -0.074926 0.501115
v 0.507695 -0.074926 0.551330
v 0.507695 -0.074926 0.501115
v -0.198067 0.074927 -0.122985
v -0.198067 0.074927 -0.932338
v -0.248282 0.074927 -0.932338
v -0.248282 0.074927 -0.117229
v -0.081291 0.074927 0.551330
v -0.041404 0.074927 0.501115
v 0.507695 0.074927 0.551330
v 0.507695 0.074927 0.501115
# 48 vertices

vt 0.000500 1.999500
vt 0.549338 1.999500
vt 0.549338 1.000499
vt 0.000500 1.000499
vt 0.221173 1.999500
vt 0.999500 1.999500
vt 0.999500 1.000500
vt 0.221173 1.000500
vt 0.000500 1.999500
vt 0.726118 1.999500
vt 0.726118 1.000500
vt 0.000500 1.000500
vt 0.454537 1.999500
vt 0.999500 1.999500
vt 0.999500 1.000499
vt 0.454537 1.000499
vt 0.549338 1.999500
vt 0.999500 1.999500
vt 0.999500 1.000500
vt 0.549338 1.000499
vt 0.000500 1.999500
vt 0.034311 1.999500
vt 0.034311 1.000500
vt 0.000500 1.000500
vt 0.034311 1.999500
vt 0.454537 1.999500
vt 0.454537 1.000499
vt 0.034311 1.000500
vt 0.933143 1.999500
vt 0.999500 1.999500
vt 0.999500 1.000499
vt 0.933143 1.000499
vt 0.454537 1.933143
vt 0.999500 1.999500
vt 0.999500 1.933143
vt 0.450662 1.999500
vt 0.000500 1.778827
vt 0.034311 1.726118
vt 0.000500 1.000500
vt 0.034311 1.000500
vt 0.545463 1.933143
vt 0.000500 1.933143
vt 0.000500 1.999500
vt 0.549338 1.999500
vt 0.999500 1.778827
vt 0.965689 1.726118
vt 0.999500 1.000500
vt 0.965689 1.000500
# 48 texture vertices

g Material_42
f 1/1 2/2 3/3
f 1/1 3/3 4/4
f 5/5 6/6 7/7
f 5/5 7/7 8/8
f 9/9 10/10 11/11
f 9/9 11/11 12/12
f 13/13 14/14 15/15
f 13/13 15/15 16/16
f 17/17 18/18 19/19
f 17/17 19/19 20/20
f 21/21 22/22 23/23
f 21/21 23/23 24/24
f 25/25 26/26 27/27
f 25/25 27/27 28/28
f 29/29 30/30 31/31
f 29/29 31/31 32/32
f 33/33 34/34 35/35
f 33/33 36/36 34/34
f 33/33 37/37 36/36
f 38/38 37/37 33/33
f 38/38 39/39 37/37
f 40/40 39/39 38/38
f 41/41 42/42 43/43
f 41/41 43/43 44/44
f 41/41 44/44 45/45
f 46/46 41/41 45/45
f 46/46 45/45 47/47
f 48/48 46/46 47/47
# 28 faces

