v 9842.520508 -9842.521484 -9842.520508
v -9842.520508 -9842.521484 -9842.520508
v 9842.520508 -9842.521484 9842.520508
v -9842.520508 -9842.521484 9842.520508
v -9842.520508 9842.519531 9842.520508
v -9842.520508 9842.519531 -9842.520508
v 9842.520508 9842.519531 9842.520508
v 9842.520508 9842.519531 -9842.520508
v -9842.520508 -9842.521484 9842.520508
v -9842.520508 -9842.521484 -9842.520508
v -9842.520508 9842.519531 9842.520508
v -9842.520508 9842.519531 -9842.520508
v 9842.520508 -9842.521484 9842.520508
v -9842.520508 -9842.521484 9842.520508
v 9842.520508 9842.519531 9842.520508
v -9842.520508 9842.519531 9842.520508
v 9842.520508 -9842.521484 -9842.520508
v 9842.520508 -9842.521484 9842.520508
v 9842.520508 9842.519531 -9842.520508
v 9842.520508 9842.519531 9842.520508
v -9842.520508 -9842.521484 -9842.520508
v 9842.520508 -9842.521484 -9842.520508
v -9842.520508 9842.519531 -9842.520508
v 9842.520508 9842.519531 -9842.520508
# 24 vertices

vt 1.000000 0.000000
vt 1.000000 1.000000
vt 0.000000 0.000000
vt 0.000000 1.000000
vt 1.000000 1.000000
vt 0.000000 1.000000
vt 1.000000 0.000000
vt 0.000000 0.000000
vt 1.000000 1.000000
vt 0.000000 1.000000
vt 1.000000 0.000000
vt 0.000000 0.000000
vt 1.000000 0.000000
vt 1.000000 1.000000
vt 0.000000 0.000000
vt 0.000000 1.000000
vt 1.000000 1.000000
vt 0.000000 1.000000
vt 1.000000 0.000000
vt 0.000000 0.000000
vt 0.000000 1.000000
vt 0.000000 0.000000
vt 1.000000 1.000000
vt 1.000000 0.000000
# 24 texture vertices

vn 0.000000 1.000000 0.000000
vn 0.000000 1.000000 0.000000
vn 0.000000 1.000000 0.000000
vn 0.000000 1.000000 0.000000
vn 0.000000 -1.000000 0.000000
vn 0.000000 -1.000000 0.000000
vn 0.000000 -1.000000 0.000000
vn 0.000000 -1.000000 0.000000
vn 1.000000 0.000000 0.000000
vn 1.000000 0.000000 0.000000
vn 1.000000 0.000000 0.000000
vn 1.000000 0.000000 0.000000
vn 0.000000 0.000000 -1.000000
vn 0.000000 0.000000 -1.000000
vn 0.000000 0.000000 -1.000000
vn 0.000000 0.000000 -1.000000
vn -1.000000 0.000000 0.000000
vn -1.000000 0.000000 0.000000
vn -1.000000 0.000000 0.000000
vn -1.000000 0.000000 0.000000
vn 0.000000 0.000000 1.000000
vn 0.000000 0.000000 1.000000
vn 0.000000 0.000000 1.000000
vn 0.000000 0.000000 1.000000
# 24 vertex normals

g Material_6
f 1/1/1 2/2/2 3/3/3
f 4/4/4 3/3/3 2/2/2
g Material_7
f 5/5/5 6/6/6 7/7/7
f 8/8/8 7/7/7 6/6/6
g Material_8
f 9/9/9 10/10/10 11/11/11
f 12/12/12 11/11/11 10/10/10
g Material_9
f 13/13/13 14/14/14 15/15/15
f 16/16/16 15/15/15 14/14/14
g Material_10
f 17/17/17 18/18/18 19/19/19
f 20/20/20 19/19/19 18/18/18
g Material_11
f 21/21/21 22/22/22 23/23/23
f 24/24/24 23/23/23 22/22/22
# 12 faces

