v -0.000000 -0.539234 -0.000000
v 0.221661 -0.539234 0.383928
v -0.000000 -0.539234 0.443322
v 0.383928 -0.539234 0.221661
v 0.443322 -0.539234 -0.000000
v 0.383928 -0.539234 -0.221661
v 0.221661 -0.539234 -0.383928
v -0.000000 -0.539234 -0.443322
v -0.221661 -0.539234 -0.383928
v -0.383928 -0.539234 -0.221661
v -0.443322 -0.539234 0.000000
v -0.383928 -0.539234 0.221661
v -0.221661 -0.539234 0.383928
v -0.000000 0.539235 -0.000000
v -0.000000 0.539235 1.578553
v 0.789276 0.539235 1.367067
v 1.367067 0.539235 0.789276
v 1.578553 0.539235 -0.000000
v 1.367067 0.539235 -0.789277
v 0.789276 0.539235 -1.367067
v -0.000000 0.539235 -1.578553
v -0.789277 0.539235 -1.367067
v -1.367067 0.539235 -0.789276
v -1.578553 0.539235 0.000000
v -1.367067 0.539235 0.789277
v -0.789276 0.539235 1.367067
v -0.000000 -0.539234 0.443322
v 0.789276 0.539235 1.367067
v -0.000000 0.539235 1.578553
v 0.221661 -0.539234 0.383928
v 1.367067 0.539235 0.789276
v 0.383928 -0.539234 0.221661
v 1.578553 0.539235 -0.000000
v 0.443322 -0.539234 -0.000000
v 1.367067 0.539235 -0.789277
v 0.383928 -0.539234 -0.221661
v 0.789276 0.539235 -1.367067
v 0.221661 -0.539234 -0.383928
v -0.000000 0.539235 -1.578553
v -0.000000 -0.539234 -0.443322
v -0.789277 0.539235 -1.367067
v -0.221661 -0.539234 -0.383928
v -1.367067 0.539235 -0.789276
v -0.383928 -0.539234 -0.221661
v -1.578553 0.539235 0.000000
v -0.443322 -0.539234 0.000000
v -1.367067 0.539235 0.789277
v -0.383928 -0.539234 0.221661
v -0.789276 0.539235 1.367067
v -0.221661 -0.539234 0.383928
# 50 vertices

vn 0.000000 -1.000000 0.000000
vn 0.000000 -1.000000 0.000000
vn 0.000000 -1.000000 0.000000
vn 0.000000 -1.000000 0.000000
vn 0.000000 -1.000000 0.000000
vn 0.000000 -1.000000 0.000000
vn 0.000000 -1.000000 0.000000
vn 0.000000 -1.000000 0.000000
vn 0.000000 -1.000000 0.000000
vn 0.000000 -1.000000 0.000000
vn 0.000000 -1.000000 0.000000
vn 0.000000 -1.000000 0.000000
vn 0.000000 -1.000000 0.000000
vn 0.000000 1.000000 0.000000
vn 0.000000 1.000000 0.000000
vn 0.000000 1.000000 0.000000
vn 0.000000 1.000000 0.000000
vn 0.000000 1.000000 0.000000
vn 0.000000 1.000000 0.000000
vn 0.000000 1.000000 0.000000
vn 0.000000 1.000000 0.000000
vn 0.000000 1.000000 0.000000
vn 0.000000 1.000000 0.000000
vn 0.000000 1.000000 0.000000
vn 0.000000 1.000000 0.000000
vn 0.000000 1.000000 0.000000
vn 0.061401 -0.723632 0.687450
vn 0.290551 -0.723632 0.626049
vn -0.061400 -0.723632 0.687450
vn 0.396899 -0.723632 0.564649
vn 0.564649 -0.723632 0.396899
vn 0.626049 -0.723632 0.290550
vn 0.687450 -0.723632 0.061400
vn 0.687450 -0.723632 -0.061401
vn 0.626049 -0.723632 -0.290551
vn 0.564649 -0.723632 -0.396899
vn 0.396899 -0.723632 -0.564649
vn 0.290550 -0.723632 -0.626049
vn 0.061400 -0.723632 -0.687450
vn -0.061401 -0.723632 -0.687450
vn -0.290551 -0.723632 -0.626049
vn -0.396899 -0.723632 -0.564649
vn -0.564649 -0.723632 -0.396899
vn -0.626049 -0.723632 -0.290550
vn -0.687450 -0.723632 -0.061400
vn -0.687450 -0.723632 0.061401
vn -0.626049 -0.723632 0.290551
vn -0.564649 -0.723632 0.396899
vn -0.396899 -0.723632 0.564649
vn -0.290550 -0.723632 0.626049
# 50 vertex normals

g Material_4
f 1/1/1 2/2/2 3/3/3
f 1/1/1 4/4/4 2/2/2
f 1/1/1 5/5/5 4/4/4
f 1/1/1 6/6/6 5/5/5
f 1/1/1 7/7/7 6/6/6
f 1/1/1 8/8/8 7/7/7
f 1/1/1 9/9/9 8/8/8
f 1/1/1 10/10/10 9/9/9
f 1/1/1 11/11/11 10/10/10
f 1/1/1 12/12/12 11/11/11
f 1/1/1 13/13/13 12/12/12
f 1/1/1 3/3/3 13/13/13
f 14/14/14 15/15/15 16/16/16
f 14/14/14 16/16/16 17/17/17
f 14/14/14 17/17/17 18/18/18
f 14/14/14 18/18/18 19/19/19
f 14/14/14 19/19/19 20/20/20
f 14/14/14 20/20/20 21/21/21
f 14/14/14 21/21/21 22/22/22
f 14/14/14 22/22/22 23/23/23
f 14/14/14 23/23/23 24/24/24
f 14/14/14 24/24/24 25/25/25
f 14/14/14 25/25/25 26/26/26
f 14/14/14 26/26/26 15/15/15
f 27/27/27 28/28/28 29/29/29
f 27/27/27 30/30/30 28/28/28
f 30/30/30 31/31/31 28/28/28
f 30/30/30 32/32/32 31/31/31
f 32/32/32 33/33/33 31/31/31
f 32/32/32 34/34/34 33/33/33
f 34/34/34 35/35/35 33/33/33
f 34/34/34 36/36/36 35/35/35
f 36/36/36 37/37/37 35/35/35
f 36/36/36 38/38/38 37/37/37
f 38/38/38 39/39/39 37/37/37
f 38/38/38 40/40/40 39/39/39
f 40/40/40 41/41/41 39/39/39
f 40/40/40 42/42/42 41/41/41
f 42/42/42 43/43/43 41/41/41
f 42/42/42 44/44/44 43/43/43
f 44/44/44 45/45/45 43/43/43
f 44/44/44 46/46/46 45/45/45
f 46/46/46 47/47/47 45/45/45
f 46/46/46 48/48/48 47/47/47
f 48/48/48 49/49/49 47/47/47
f 48/48/48 50/50/50 49/49/49
f 50/50/50 29/29/29 49/49/49
f 50/50/50 27/27/27 29/29/29
# 48 faces

