v 0.000000 -0.838889 -0.000000
v 0.222862 -0.838889 0.265596
v 0.000000 -0.838889 0.346711
v 0.341444 -0.838889 0.060206
v 0.300261 -0.838889 -0.173356
v 0.118582 -0.838889 -0.325802
v -0.118582 -0.838889 -0.325802
v -0.300261 -0.838889 -0.173356
v -0.341444 -0.838889 0.060206
v -0.222862 -0.838889 0.265596
v 0.000000 0.838889 -0.000000
v 0.000000 0.838889 0.346711
v 0.222862 0.838889 0.265596
v 0.341444 0.838889 0.060206
v 0.300261 0.838889 -0.173356
v 0.118582 0.838889 -0.325802
v -0.118582 0.838889 -0.325802
v -0.300261 0.838889 -0.173356
v -0.341444 0.838889 0.060206
v -0.222862 0.838889 0.265596
v 0.000000 -0.838889 0.346711
v 0.222862 0.838889 0.265596
v 0.000000 0.838889 0.346711
v 0.222862 -0.838889 0.265596
v 0.341444 0.838889 0.060206
v 0.341444 -0.838889 0.060206
v 0.300261 0.838889 -0.173356
v 0.300261 -0.838889 -0.173356
v 0.118582 0.838889 -0.325802
v 0.118582 -0.838889 -0.325802
v -0.118582 0.838889 -0.325802
v -0.118582 -0.838889 -0.325802
v -0.300261 0.838889 -0.173356
v -0.300261 -0.838889 -0.173356
v -0.341444 0.838889 0.060206
v -0.341444 -0.838889 0.060206
v -0.222862 0.838889 0.265596
v -0.222862 -0.838889 0.265596
# 38 vertices

vn 0.000000 -1.000000 0.000000
vn 0.000000 -1.000000 0.000000
vn 0.000000 -1.000000 0.000000
vn 0.000000 -1.000000 0.000000
vn 0.000000 -1.000000 0.000000
vn 0.000000 -1.000000 0.000000
vn 0.000000 -1.000000 0.000000
vn 0.000000 -1.000000 0.000000
vn 0.000000 -1.000000 0.000000
vn 0.000000 -1.000000 0.000000
vn 0.000000 1.000000 0.000000
vn 0.000000 1.000000 0.000000
vn 0.000000 1.000000 0.000000
vn 0.000000 1.000000 0.000000
vn 0.000000 1.000000 0.000000
vn 0.000000 1.000000 0.000000
vn 0.000000 1.000000 0.000000
vn 0.000000 1.000000 0.000000
vn 0.000000 1.000000 0.000000
vn 0.000000 1.000000 0.000000
vn 0.120440 0.000000 0.992721
vn 0.545846 0.000000 0.837886
vn -0.120440 0.000000 0.992721
vn 0.730371 0.000000 0.683051
vn 0.956725 0.000000 0.290995
vn 0.998553 0.000000 0.053774
vn 0.919941 -0.000000 -0.392056
vn 0.799501 -0.000000 -0.600665
vn 0.452707 -0.000000 -0.891659
vn 0.226353 0.000000 -0.974045
vn -0.226354 0.000000 -0.974045
vn -0.452707 0.000000 -0.891659
vn -0.799501 0.000000 -0.600664
vn -0.919941 0.000000 -0.392056
vn -0.998553 0.000000 0.053774
vn -0.956725 0.000000 0.290995
vn -0.730371 0.000000 0.683051
vn -0.545846 0.000000 0.837886
# 38 vertex normals

g Material_0
f 1/1/1 2/2/2 3/3/3
f 1/1/1 4/4/4 2/2/2
f 1/1/1 5/5/5 4/4/4
f 1/1/1 6/6/6 5/5/5
f 1/1/1 7/7/7 6/6/6
f 1/1/1 8/8/8 7/7/7
f 1/1/1 9/9/9 8/8/8
f 1/1/1 10/10/10 9/9/9
f 1/1/1 3/3/3 10/10/10
f 11/11/11 12/12/12 13/13/13
f 11/11/11 13/13/13 14/14/14
f 11/11/11 14/14/14 15/15/15
f 11/11/11 15/15/15 16/16/16
f 11/11/11 16/16/16 17/17/17
f 11/11/11 17/17/17 18/18/18
f 11/11/11 18/18/18 19/19/19
f 11/11/11 19/19/19 20/20/20
f 11/11/11 20/20/20 12/12/12
f 21/21/21 22/22/22 23/23/23
f 21/21/21 24/24/24 22/22/22
f 24/24/24 25/25/25 22/22/22
f 24/24/24 26/26/26 25/25/25
f 26/26/26 27/27/27 25/25/25
f 26/26/26 28/28/28 27/27/27
f 28/28/28 29/29/29 27/27/27
f 28/28/28 30/30/30 29/29/29
f 30/30/30 31/31/31 29/29/29
f 30/30/30 32/32/32 31/31/31
f 32/32/32 33/33/33 31/31/31
f 32/32/32 34/34/34 33/33/33
f 34/34/34 35/35/35 33/33/33
f 34/34/34 36/36/36 35/35/35
f 36/36/36 37/37/37 35/35/35
f 36/36/36 38/38/38 37/37/37
f 38/38/38 23/23/23 37/37/37
f 38/38/38 21/21/21 23/23/23
# 36 faces

