v -0.000000 0.647181 0.000000
v -0.323590 0.323590 0.457626
v 0.323590 0.323590 0.457626
v 0.323590 0.323590 0.457626
v 0.323590 -0.323590 0.457626
v 0.647181 -0.000000 0.000000
v 0.647181 -0.000000 0.000000
v 0.323590 -0.323590 -0.457626
v 0.323590 0.323590 -0.457626
v 0.323590 0.323590 -0.457626
v -0.323590 0.323590 -0.457626
v -0.000000 0.647181 0.000000
v -0.323590 0.323590 -0.457626
v -0.323590 -0.323590 -0.457626
v -0.647181 -0.000000 0.000000
v -0.647181 -0.000000 0.000000
v -0.323590 -0.323590 0.457626
v -0.323590 0.323590 0.457626
v -0.323590 -0.323590 0.457626
v -0.000000 -0.647181 0.000000
v 0.323590 -0.323590 0.457626
v -0.323590 -0.323590 -0.457626
v 0.323590 -0.323590 -0.457626
v -0.000000 -0.647181 0.000000
v 0.323590 0.323590 0.457626
v 0.647181 -0.000000 0.000000
v 0.323590 0.323590 -0.457626
v 0.323590 0.323590 0.457626
v 0.323590 0.323590 -0.457626
v -0.000000 0.647181 0.000000
v -0.323590 0.323590 -0.457626
v -0.647181 -0.000000 0.000000
v -0.323590 0.323590 0.457626
v -0.323590 0.323590 -0.457626
v -0.323590 0.323590 0.457626
v -0.000000 0.647181 0.000000
v -0.323590 0.323590 0.457626
v -0.323590 -0.323590 0.457626
v 0.323590 -0.323590 0.457626
v -0.323590 0.323590 0.457626
v 0.323590 -0.323590 0.457626
v 0.323590 0.323590 0.457626
v -0.647181 -0.000000 0.000000
v -0.323590 -0.323590 -0.457626
v -0.000000 -0.647181 0.000000
v -0.647181 -0.000000 0.000000
v -0.000000 -0.647181 0.000000
v -0.323590 -0.323590 0.457626
v -0.000000 -0.647181 0.000000
v 0.323590 -0.323590 -0.457626
v 0.647181 -0.000000 0.000000
v -0.000000 -0.647181 0.000000
v 0.647181 -0.000000 0.000000
v 0.323590 -0.323590 0.457626
v -0.323590 -0.323590 -0.457626
v -0.323590 0.323590 -0.457626
v 0.323590 0.323590 -0.457626
v -0.323590 -0.323590 -0.457626
v 0.323590 0.323590 -0.457626
v 0.323590 -0.323590 -0.457626
# 60 vertices

vn 0.000000 0.816497 0.577350
vn 0.000000 0.816497 0.577350
vn 0.000000 0.816497 0.577350
vn 0.816497 0.000000 0.577350
vn 0.816497 0.000000 0.577350
vn 0.816497 0.000000 0.577350
vn 0.816497 0.000000 -0.577350
vn 0.816497 0.000000 -0.577350
vn 0.816497 0.000000 -0.577350
vn 0.000000 0.816497 -0.577350
vn 0.000000 0.816497 -0.577350
vn 0.000000 0.816497 -0.577350
vn -0.816497 0.000000 -0.577350
vn -0.816497 0.000000 -0.577350
vn -0.816497 0.000000 -0.577350
vn -0.816497 0.000000 0.577350
vn -0.816497 0.000000 0.577350
vn -0.816497 0.000000 0.577350
vn 0.000000 -0.816497 0.577350
vn 0.000000 -0.816497 0.577350
vn 0.000000 -0.816497 0.577350
vn 0.000000 -0.816497 -0.577350
vn 0.000000 -0.816497 -0.577350
vn 0.000000 -0.816497 -0.577350
vn 0.707107 0.707107 -0.000000
vn 0.707107 0.707107 -0.000000
vn 0.707107 0.707107 -0.000000
vn 0.707107 0.707107 0.000000
vn 0.707107 0.707107 0.000000
vn 0.707107 0.707107 0.000000
vn -0.707107 0.707107 0.000000
vn -0.707107 0.707107 0.000000
vn -0.707107 0.707107 0.000000
vn -0.707107 0.707107 0.000000
vn -0.707107 0.707107 0.000000
vn -0.707107 0.707107 0.000000
vn 0.000000 0.000000 1.000000
vn 0.000000 0.000000 1.000000
vn 0.000000 0.000000 1.000000
vn 0.000000 0.000000 1.000000
vn 0.000000 0.000000 1.000000
vn 0.000000 0.000000 1.000000
vn -0.707107 -0.707107 -0.000000
vn -0.707107 -0.707107 -0.000000
vn -0.707107 -0.707107 -0.000000
vn -0.707107 -0.707107 0.000000
vn -0.707107 -0.707107 0.000000
vn -0.707107 -0.707107 0.000000
vn 0.707107 -0.707107 0.000000
vn 0.707107 -0.707107 0.000000
vn 0.707107 -0.707107 0.000000
vn 0.707107 -0.707107 -0.000000
vn 0.707107 -0.707107 -0.000000
vn 0.707107 -0.707107 -0.000000
vn 0.000000 0.000000 -1.000000
vn 0.000000 0.000000 -1.000000
vn 0.000000 0.000000 -1.000000
vn 0.000000 0.000000 -1.000000
vn 0.000000 0.000000 -1.000000
vn 0.000000 0.000000 -1.000000
# 60 vertex normals

g Material_6
f 1/1/1 2/2/2 3/3/3
f 4/4/4 5/5/5 6/6/6
f 7/7/7 8/8/8 9/9/9
f 10/10/10 11/11/11 12/12/12
f 13/13/13 14/14/14 15/15/15
f 16/16/16 17/17/17 18/18/18
f 19/19/19 20/20/20 21/21/21
f 22/22/22 23/23/23 24/24/24
f 25/25/25 26/26/26 27/27/27
f 28/28/28 29/29/29 30/30/30
f 31/31/31 32/32/32 33/33/33
f 34/34/34 35/35/35 36/36/36
f 37/37/37 38/38/38 39/39/39
f 40/40/40 41/41/41 42/42/42
f 43/43/43 44/44/44 45/45/45
f 46/46/46 47/47/47 48/48/48
f 49/49/49 50/50/50 51/51/51
f 52/52/52 53/53/53 54/54/54
f 55/55/55 56/56/56 57/57/57
f 58/58/58 59/59/59 60/60/60
# 20 faces

