v -0.000000 0.976562 -0.000000
v -0.690534 0.000000 0.690534
v 0.690534 0.000000 0.690534
v 0.690534 0.000000 0.690534
v -0.000000 -0.976562 -0.000000
v 0.690534 0.000000 -0.690534
v 0.690534 0.000000 -0.690534
v -0.690534 -0.000000 -0.690534
v -0.000000 0.976562 -0.000000
v -0.690534 -0.000000 -0.690534
v -0.000000 -0.976562 -0.000000
v -0.690534 0.000000 0.690534
v 0.690534 0.000000 0.690534
v 0.690534 0.000000 -0.690534
v -0.000000 0.976562 -0.000000
v -0.690534 -0.000000 -0.690534
v -0.690534 0.000000 0.690534
v -0.000000 0.976562 -0.000000
v -0.690534 0.000000 0.690534
v -0.000000 -0.976562 -0.000000
v 0.690534 0.000000 0.690534
v -0.690534 -0.000000 -0.690534
v 0.690534 0.000000 -0.690534
v -0.000000 -0.976562 -0.000000
# 24 vertices

vn -0.000000 0.577350 0.816497
vn -0.000000 0.577350 0.816497
vn -0.000000 0.577350 0.816497
vn 0.816497 -0.577350 -0.000000
vn 0.816497 -0.577350 -0.000000
vn 0.816497 -0.577350 -0.000000
vn -0.000000 0.577350 -0.816497
vn -0.000000 0.577350 -0.816497
vn -0.000000 0.577350 -0.816497
vn -0.816497 -0.577350 0.000000
vn -0.816497 -0.577350 0.000000
vn -0.816497 -0.577350 0.000000
vn 0.816497 0.577350 -0.000000
vn 0.816497 0.577350 -0.000000
vn 0.816497 0.577350 -0.000000
vn -0.816497 0.577350 -0.000000
vn -0.816497 0.577350 -0.000000
vn -0.816497 0.577350 -0.000000
vn 0.000000 -0.577350 0.816497
vn 0.000000 -0.577350 0.816497
vn 0.000000 -0.577350 0.816497
vn 0.000000 -0.577350 -0.816497
vn 0.000000 -0.577350 -0.816497
vn 0.000000 -0.577350 -0.816497
# 24 vertex normals

g Material_5
f 1/1/1 2/2/2 3/3/3
f 4/4/4 5/5/5 6/6/6
f 7/7/7 8/8/8 9/9/9
f 10/10/10 11/11/11 12/12/12
f 13/13/13 14/14/14 15/15/15
f 16/16/16 17/17/17 18/18/18
f 19/19/19 20/20/20 21/21/21
f 22/22/22 23/23/23 24/24/24
# 8 faces

