v 0.007515 -1.153995 0.002342
v -0.340439 -1.153995 -0.345680
v -0.119816 -1.153995 -0.473038
v -0.467831 -1.153995 -0.125076
v -0.467850 -1.153995 0.129669
v -0.340500 -1.153995 0.350288
v -0.119896 -1.153995 0.477684
v 0.134846 -1.153995 0.477707
v 0.355469 -1.153995 0.350349
v 0.482864 -1.153995 0.129745
v 0.482887 -1.153995 -0.124992
v 0.355537 -1.153995 -0.345619
v 0.134926 -1.153995 -0.473015
v 0.007515 0.289949 0.002342
v -0.114010 0.289947 -0.451424
v -0.324612 0.289946 -0.329849
v -0.446205 0.289950 -0.119293
v -0.446220 0.289945 0.123871
v -0.324673 0.289949 0.334457
v -0.114101 0.289949 0.456047
v 0.129055 0.289948 0.456078
v 0.339645 0.289948 0.334503
v 0.461239 0.289947 0.123947
v 0.461258 0.289948 -0.119209
v 0.339699 0.289948 -0.329803
v 0.129128 0.289949 -0.451393
v -0.119816 -1.153995 -0.473038
v -0.340439 0.322381 -0.345680
v -0.119816 0.322381 -0.473038
v -0.340439 -1.153995 -0.345680
v 0.134926 -1.153995 -0.473015
v 0.134926 0.322381 -0.473015
v -0.467831 -1.153995 -0.125076
v -0.467850 0.322381 0.129669
v -0.467831 0.322381 -0.125076
v -0.467850 -1.153995 0.129669
v -0.340500 0.322381 0.350288
v -0.340500 -1.153995 0.350288
v -0.119896 0.322381 0.477684
v -0.119896 -1.153995 0.477684
v 0.134846 0.322381 0.477707
v 0.134846 -1.153995 0.477707
v 0.355469 0.322381 0.350349
v 0.355469 -1.153995 0.350349
v 0.482864 0.322381 0.129745
v 0.482864 -1.153995 0.129745
v 0.482887 0.322381 -0.124992
v 0.482887 -1.153995 -0.124992
v 0.355537 0.322381 -0.345619
v 0.355537 -1.153995 -0.345619
v -0.467831 0.322381 -0.125076
v -0.467831 -1.153995 -0.125076
v 0.134933 0.322386 -0.473015
v -0.119816 0.322382 -0.473038
v -0.114010 0.289947 -0.451424
v -0.114010 0.289947 -0.451424
v 0.129128 0.289949 -0.451393
v 0.134933 0.322386 -0.473015
v 0.482887 0.322383 -0.124992
v 0.355530 0.322386 -0.345619
v 0.339699 0.289948 -0.329803
v 0.339699 0.289948 -0.329803
v 0.461258 0.289948 -0.119209
v 0.482887 0.322383 -0.124992
v -0.119888 0.322383 0.477684
v 0.134846 0.322385 0.477692
v 0.129055 0.289948 0.456078
v 0.129055 0.289948 0.456078
v -0.114101 0.289949 0.456047
v -0.119888 0.322383 0.477684
v -0.467850 0.322386 0.129662
v -0.340496 0.322388 0.350288
v -0.324673 0.289949 0.334457
v -0.324673 0.289949 0.334457
v -0.446220 0.289945 0.123871
v -0.467850 0.322386 0.129662
v -0.340435 0.322386 -0.345695
v -0.467827 0.322386 -0.125092
v -0.446205 0.289950 -0.119293
v -0.446205 0.289950 -0.119293
v -0.324612 0.289946 -0.329849
v -0.340435 0.322386 -0.345695
v 0.355469 0.322383 0.350349
v 0.482876 0.322384 0.129745
v 0.461239 0.289947 0.123947
v 0.461239 0.289947 0.123947
v 0.339645 0.289948 0.334503
v 0.355469 0.322383 0.350349
v -0.119823 0.322375 -0.473038
v -0.340435 0.322385 -0.345695
v -0.324612 0.289946 -0.329849
v -0.324612 0.289946 -0.329849
v -0.114010 0.289947 -0.451424
v -0.119823 0.322375 -0.473038
v -0.467850 0.322377 -0.125092
v -0.467873 0.322380 0.129662
v -0.446220 0.289945 0.123871
v -0.446220 0.289945 0.123871
v -0.446205 0.289950 -0.119293
v -0.467850 0.322377 -0.125092
v 0.355515 0.322378 -0.345619
v 0.134926 0.322383 -0.473030
v 0.129128 0.289949 -0.451393
v 0.129128 0.289949 -0.451393
v 0.339699 0.289948 -0.329803
v 0.355515 0.322378 -0.345619
v 0.482868 0.322385 0.129730
v 0.482876 0.322382 -0.125008
v 0.461258 0.289948 -0.119209
v 0.461258 0.289948 -0.119209
v 0.461239 0.289947 0.123947
v 0.482868 0.322385 0.129730
v 0.134827 0.322384 0.477692
v 0.355453 0.322381 0.350349
v 0.339645 0.289948 0.334503
v 0.339645 0.289948 0.334503
v 0.129055 0.289948 0.456078
v 0.134827 0.322384 0.477692
v -0.340511 0.322380 0.350273
v -0.119900 0.322377 0.477684
v -0.114101 0.289949 0.456047
v -0.114101 0.289949 0.456047
v -0.324673 0.289949 0.334457
v -0.340511 0.322380 0.350273
# 124 vertices

vt 0.498967 1.744408
vt 0.386726 1.632169
vt 0.345643 1.703328
vt 0.457883 1.591087
vt 0.540049 1.591087
vt 0.611207 1.632170
vt 0.652289 1.703328
vt 0.652282 1.785495
vt 0.611200 1.856652
vt 0.540042 1.897732
vt 0.457876 1.897729
vt 0.386722 1.856644
vt 0.345641 1.785492
vt 0.165898 1.749976
vt 0.058764 1.642839
vt 0.019550 1.710763
vt 0.019551 1.789190
vt 0.058768 1.857109
vt 0.126683 1.896324
vt 0.205109 1.896321
vt 0.273028 1.857109
vt 0.312241 1.789187
vt 0.312244 1.710764
vt 0.273030 1.642844
vt 0.205111 1.603627
vt 0.126682 1.603628
vt 0.171370 1.091122
vt 0.089153 1.567304
vt 0.171317 1.567313
vt 0.089208 1.091113
vt 0.253536 1.091131
vt 0.253488 1.567323
vt 0.993024 1.091202
vt 0.910814 1.567385
vt 0.992982 1.567394
vt 0.910858 1.091194
vt 0.828649 1.567376
vt 0.828696 1.091185
vt 0.746481 1.567369
vt 0.746525 1.091178
vt 0.664314 1.567360
vt 0.664360 1.091169
vt 0.582150 1.567353
vt 0.582193 1.091162
vt 0.499980 1.567345
vt 0.500031 1.091154
vt 0.417812 1.567336
vt 0.417868 1.091146
vt 0.335649 1.567329
vt 0.335699 1.091137
vt 0.006989 1.567294
vt 0.007043 1.091104
vt 0.122016 1.591802
vt 0.050858 1.632884
vt 0.058764 1.642839
vt 0.058764 1.642839
vt 0.126682 1.603628
vt 0.122016 1.591802
vt 0.280936 1.632893
vt 0.209779 1.591805
vt 0.205111 1.603627
vt 0.205111 1.603627
vt 0.273030 1.642844
vt 0.280936 1.632893
vt 0.209777 1.908147
vt 0.280935 1.867063
vt 0.273028 1.857109
vt 0.273028 1.857109
vt 0.205109 1.896321
vt 0.209777 1.908147
vt 0.050860 1.867066
vt 0.122015 1.908147
vt 0.126683 1.896324
vt 0.126683 1.896324
vt 0.058768 1.857109
vt 0.050860 1.867066
vt 0.006976 1.708894
vt 0.006977 1.791060
vt 0.019551 1.789190
vt 0.019551 1.789190
vt 0.019550 1.710763
vt 0.006976 1.708894
vt 0.324815 1.791062
vt 0.324822 1.708894
vt 0.312244 1.710764
vt 0.312244 1.710764
vt 0.312241 1.789187
vt 0.324815 1.791062
vt 0.048804 1.634939
vt 0.007727 1.706091
vt 0.019550 1.710763
vt 0.019550 1.710763
vt 0.058764 1.642839
vt 0.048804 1.634939
vt 0.007725 1.793857
vt 0.048804 1.865017
vt 0.058768 1.857109
vt 0.058768 1.857109
vt 0.019551 1.789190
vt 0.007725 1.793857
vt 0.206972 1.591058
vt 0.124815 1.591052
vt 0.126682 1.603628
vt 0.126682 1.603628
vt 0.205111 1.603627
vt 0.206972 1.591058
vt 0.324067 1.706093
vt 0.282979 1.634940
vt 0.273030 1.642844
vt 0.273030 1.642844
vt 0.312244 1.710764
vt 0.324067 1.706093
vt 0.282979 1.865015
vt 0.324059 1.793865
vt 0.312241 1.789187
vt 0.312241 1.789187
vt 0.273028 1.857109
vt 0.282979 1.865015
vt 0.124811 1.908896
vt 0.206977 1.908895
vt 0.205109 1.896321
vt 0.205109 1.896321
vt 0.126683 1.896324
vt 0.124811 1.908896
# 124 texture vertices

g Material_31
f 1/1 2/2 3/3
f 1/1 4/4 2/2
f 1/1 5/5 4/4
f 1/1 6/6 5/5
f 1/1 7/7 6/6
f 1/1 8/8 7/7
f 1/1 9/9 8/8
f 1/1 10/10 9/9
f 1/1 11/11 10/10
f 1/1 12/12 11/11
f 1/1 13/13 12/12
f 1/1 3/3 13/13
f 14/14 15/15 16/16
f 14/14 16/16 17/17
f 14/14 17/17 18/18
f 14/14 18/18 19/19
f 14/14 19/19 20/20
f 14/14 20/20 21/21
f 14/14 21/21 22/22
f 14/14 22/22 23/23
f 14/14 23/23 24/24
f 14/14 24/24 25/25
f 14/14 25/25 26/26
f 14/14 26/26 15/15
f 27/27 28/28 29/29
f 27/27 30/30 28/28
f 31/31 27/27 29/29
f 31/31 29/29 32/32
f 33/33 34/34 35/35
f 33/33 36/36 34/34
f 36/36 37/37 34/34
f 36/36 38/38 37/37
f 38/38 39/39 37/37
f 38/38 40/40 39/39
f 40/40 41/41 39/39
f 40/40 42/42 41/41
f 42/42 43/43 41/41
f 42/42 44/44 43/43
f 44/44 45/45 43/43
f 44/44 46/46 45/45
f 46/46 47/47 45/45
f 46/46 48/48 47/47
f 48/48 49/49 47/47
f 48/48 50/50 49/49
f 50/50 32/32 49/49
f 50/50 31/31 32/32
f 30/30 51/51 28/28
f 30/30 52/52 51/51
f 53/53 54/54 55/55
f 56/56 57/57 58/58
f 59/59 60/60 61/61
f 62/62 63/63 64/64
f 65/65 66/66 67/67
f 68/68 69/69 70/70
f 71/71 72/72 73/73
f 74/74 75/75 76/76
f 77/77 78/78 79/79
f 80/80 81/81 82/82
f 83/83 84/84 85/85
f 86/86 87/87 88/88
f 89/89 90/90 91/91
f 92/92 93/93 94/94
f 95/95 96/96 97/97
f 98/98 99/99 100/100
f 101/101 102/102 103/103
f 104/104 105/105 106/106
f 107/107 108/108 109/109
f 110/110 111/111 112/112
f 113/113 114/114 115/115
f 116/116 117/117 118/118
f 119/119 120/120 121/121
f 122/122 123/123 124/124
# 72 faces

