v 1.005257 -0.996553 -0.987858
v 0.987862 -0.996553 1.005177
v -1.005173 -0.996553 0.987785
v -0.987778 -0.996553 -1.005249
v 1.005257 0.996555 -0.987858
v -0.987778 0.996555 -1.005249
v -1.005173 0.996555 0.987785
v 0.987862 0.996555 1.005177
v 1.005257 -0.996553 -0.987858
v -0.987778 -0.996553 -1.005249
v -0.987778 0.996555 -1.005249
v 1.005257 0.996555 -0.987858
v -0.987778 -0.996553 -1.005249
v -1.005173 -0.996553 0.987785
v -1.005173 0.996555 0.987785
v -0.987778 0.996555 -1.005249
v -1.005173 -0.996553 0.987785
v 0.987862 -0.996553 1.005177
v 0.987862 0.996555 1.005177
v -1.005173 0.996555 0.987785
v 0.987862 -0.996553 1.005177
v 1.005257 -0.996553 -0.987858
v 1.005257 0.996555 -0.987858
v 0.987862 0.996555 1.005177
# 24 vertices

vt 0.400101 1.599904
vt 0.599903 1.799703
vt 0.799699 1.599898
vt 0.599898 1.400100
vt 0.200300 1.400105
vt 0.400098 1.200303
vt 0.200297 1.000502
vt 0.000499 1.200304
vt 0.400101 1.599904
vt 0.599898 1.400100
vt 0.400098 1.200303
vt 0.200300 1.400105
vt 0.599898 1.400100
vt 0.799693 1.200301
vt 0.599895 1.000499
vt 0.400098 1.200303
vt 0.799699 1.599898
vt 0.599903 1.799703
vt 0.799703 1.999500
vt 0.999501 1.799696
vt 0.200301 1.799706
vt 0.400101 1.599904
vt 0.200300 1.400105
vt 0.000501 1.599906
# 24 texture vertices

g Material_2
f 1/1 2/2 3/3
f 3/3 4/4 1/1
f 5/5 6/6 7/7
f 7/7 8/8 5/5
f 9/9 10/10 11/11
f 11/11 12/12 9/9
f 13/13 14/14 15/15
f 15/15 16/16 13/13
f 17/17 18/18 19/19
f 19/19 20/20 17/17
f 21/21 22/22 23/23
f 23/23 24/24 21/21
# 12 faces

