v -12.447536 -6.609035 16.939266
v -12.447536 -6.609035 -7.667028
v -12.447536 -16.451553 -7.667028
v -12.447536 -16.451553 16.939266
v -12.447536 3.233482 16.939266
v -12.447536 3.233482 -7.667028
v 12.158759 -6.609035 16.939266
v -12.447536 -6.609035 16.939266
v -12.447536 -16.451553 16.939266
v 12.158759 -16.451553 16.939266
v 12.158759 3.233482 16.939266
v -12.447536 3.233482 16.939266
v 12.158759 -6.609035 -7.667028
v 12.158759 -6.609035 16.939266
v 12.158759 -16.451553 16.939266
v 12.158759 -16.451553 -7.667028
v 12.158759 3.233482 -7.667028
v 12.158759 3.233482 16.939266
v 3.956660 -6.609035 -7.667028
v 12.158759 -6.609035 -7.667028
v 12.158759 -16.451553 -7.667028
v 3.956660 -16.451553 -7.667028
v -4.245439 -6.609035 -7.667028
v -4.245439 -16.451553 -7.667028
v -12.447536 -6.609035 -7.667028
v -12.447536 -16.451553 -7.667028
v -12.447536 3.233482 -7.667028
v -4.245439 3.233482 -7.667028
v 3.956660 3.233482 -7.667028
v 12.158759 3.233482 -7.667028
v -4.245439 3.233482 -2.288647
v 3.956660 3.233482 -2.288647
v 3.956660 -6.609035 -2.288647
v -4.245439 -6.609035 -2.288647
v -4.245439 -6.609035 -2.288647
v 3.956660 -6.609035 -2.288647
v 3.956660 -6.609035 -7.667028
v 3.956660 -6.609035 -7.667028
v -4.245439 -6.609035 -7.667028
v -4.245439 -6.609035 -2.288647
v 3.956660 -6.609035 -2.288647
v 3.956660 3.233482 -2.288647
v 3.956660 3.233482 -7.667028
v 3.956660 3.233482 -7.667028
v 3.956660 -6.609035 -7.667028
v 3.956660 -6.609035 -2.288647
v -4.245439 3.233482 -2.288647
v -4.245439 -6.609035 -2.288647
v -4.245439 -6.609035 -7.667028
v -4.245439 -6.609035 -7.667028
v -4.245439 3.233482 -7.667028
v -4.245439 3.233482 -2.288647
v -12.128902 0.765013 -7.348397
v -12.128902 0.765013 16.620634
v 11.840125 0.765013 16.620634
v -12.128902 0.765013 -7.348397
v 11.840125 0.765013 16.620634
v -4.564062 0.765013 -1.970017
v 11.840125 0.765013 16.620634
v 4.275283 0.765013 -1.970017
v -4.564062 0.765013 -1.970017
v 11.840125 0.765013 16.620634
v 4.275283 0.765013 -7.348397
v 4.275283 0.765013 -1.970017
v 11.840125 0.765013 16.620634
v 11.840125 0.765013 -7.348397
v 4.275283 0.765013 -7.348397
v -12.128902 0.765013 -7.348397
v -4.564062 0.765013 -1.970017
v -4.564062 0.765013 -7.348397
v -12.128902 3.233482 16.620634
v 11.840125 3.233482 16.620634
v 11.840125 0.765013 16.620634
v 11.840125 0.765013 16.620634
v -12.128902 0.765013 16.620634
v -12.128902 3.233482 16.620634
v -12.447536 3.233482 16.939266
v 12.158759 3.233482 16.939266
v 11.840125 3.233482 16.620634
v 11.840125 3.233482 16.620634
v -12.128902 3.233482 16.620634
v -12.447536 3.233482 16.939266
v 11.840125 3.233482 16.620634
v 11.840125 3.233482 -7.348397
v 11.840125 0.765013 -7.348397
v 11.840125 0.765013 -7.348397
v 11.840125 0.765013 16.620634
v 11.840125 3.233482 16.620634
v 12.158759 3.233482 16.939266
v 12.158759 3.233482 -7.667028
v 11.840125 3.233482 -7.348397
v 11.840125 3.233482 -7.348397
v 11.840125 3.233482 16.620634
v 12.158759 3.233482 16.939266
v -12.128902 3.233482 -7.348397
v -12.128902 3.233482 16.620634
v -12.128902 0.765013 16.620634
v -12.128902 0.765013 16.620634
v -12.128902 0.765013 -7.348397
v -12.128902 3.233482 -7.348397
v -12.447536 3.233482 -7.667028
v -12.447536 3.233482 16.939266
v -12.128902 3.233482 16.620634
v -12.128902 3.233482 16.620634
v -12.128902 3.233482 -7.348397
v -12.447536 3.233482 -7.667028
v -4.564062 3.233482 -7.348397
v -12.128902 3.233482 -7.348397
v -12.128902 0.765013 -7.348397
v -12.128902 0.765013 -7.348397
v -4.564062 0.765013 -7.348397
v -4.564062 3.233482 -7.348397
v -4.245439 3.233482 -7.667028
v -12.447536 3.233482 -7.667028
v -12.128902 3.233482 -7.348397
v -12.128902 3.233482 -7.348397
v -4.564062 3.233482 -7.348397
v -4.245439 3.233482 -7.667028
v 11.840125 3.233482 -7.348397
v 4.275283 3.233482 -7.348397
v 4.275283 0.765013 -7.348397
v 4.275283 0.765013 -7.348397
v 11.840125 0.765013 -7.348397
v 11.840125 3.233482 -7.348397
v 12.158759 3.233482 -7.667028
v 3.956660 3.233482 -7.667028
v 4.275283 3.233482 -7.348397
v 4.275283 3.233482 -7.348397
v 11.840125 3.233482 -7.348397
v 12.158759 3.233482 -7.667028
v 4.275283 3.233482 -7.348397
v 4.275283 3.233482 -1.970017
v 4.275283 0.765013 -1.970017
v 4.275283 0.765013 -1.970017
v 4.275283 0.765013 -7.348397
v 4.275283 3.233482 -7.348397
v 3.956660 3.233482 -7.667028
v 3.956660 3.233482 -2.288647
v 4.275283 3.233482 -1.970017
v 4.275283 3.233482 -1.970017
v 4.275283 3.233482 -7.348397
v 3.956660 3.233482 -7.667028
v -4.245439 3.233482 -2.288647
v -4.245439 3.233482 -7.667028
v -4.564062 3.233482 -7.348397
v -4.564062 3.233482 -7.348397
v -4.564062 3.233482 -1.970017
v -4.245439 3.233482 -2.288647
v -4.564062 3.233482 -1.970017
v -4.564062 3.233482 -7.348397
v -4.564062 0.765013 -7.348397
v -4.564062 0.765013 -7.348397
v -4.564062 0.765013 -1.970017
v -4.564062 3.233482 -1.970017
v 4.275283 3.233482 -1.970017
v -4.564062 3.233482 -1.970017
v -4.564062 0.765013 -1.970017
v -4.564062 0.765013 -1.970017
v 4.275283 0.765013 -1.970017
v 4.275283 3.233482 -1.970017
v 3.956660 3.233482 -2.288647
v -4.245439 3.233482 -2.288647
v -4.564062 3.233482 -1.970017
v -4.564062 3.233482 -1.970017
v 4.275283 3.233482 -1.970017
v 3.956660 3.233482 -2.288647
# 166 vertices

vt 0.660925 2.000000
vt 0.660925 1.644064
vt 0.496206 1.644064
vt 0.496206 2.000000
vt 0.825644 2.000000
vt 0.825644 1.644064
vt 0.164920 1.784830
vt 0.164920 1.428894
vt 0.000000 1.428964
vt 0.000201 1.784899
vt 0.329639 1.784830
vt 0.329639 1.428894
vt 0.660925 1.642347
vt 0.660926 1.286412
vt 0.496206 1.286412
vt 0.496206 1.642347
vt 0.825644 1.642347
vt 0.825645 1.286412
vt 0.770738 1.142374
vt 0.908004 1.142374
vt 0.908004 1.000000
vt 0.770738 1.000000
vt 0.633472 1.142374
vt 0.633472 1.000000
vt 0.496207 1.142374
vt 0.496206 1.000000
vt 0.496207 1.284749
vt 0.633473 1.284749
vt 0.770738 1.284749
vt 0.908004 1.284749
vt 0.331362 1.571268
vt 0.468628 1.571268
vt 0.468628 1.428894
vt 0.331362 1.428894
vt 1.000000 1.262574
vt 1.000000 1.143929
vt 0.909990 1.143929
vt 0.909990 1.143929
vt 0.909990 1.262574
vt 1.000000 1.262574
vt 0.331362 1.572823
vt 0.331362 1.715197
vt 0.421372 1.715197
vt 0.421372 1.715197
vt 0.421372 1.572823
vt 0.331362 1.572823
vt 1.000000 1.142374
vt 1.000000 1.000000
vt 0.909990 1.000000
vt 0.909990 1.000000
vt 0.909990 1.142374
vt 1.000000 1.142374
vt 0.447776 1.387038
vt 0.447781 1.040320
vt 0.046648 1.040316
vt 0.447776 1.387038
vt 0.046648 1.040316
vt 0.321176 1.309237
vt 0.046648 1.040316
vt 0.173245 1.309235
vt 0.321176 1.309237
vt 0.046648 1.040316
vt 0.173244 1.387035
vt 0.173245 1.309235
vt 0.046648 1.040316
vt 0.046643 1.387033
vt 0.173244 1.387035
vt 0.447776 1.387038
vt 0.321176 1.309237
vt 0.321175 1.387036
vt 0.447782 1.004613
vt 0.046649 1.004609
vt 0.046648 1.040316
vt 0.046648 1.040316
vt 0.447781 1.040320
vt 0.447782 1.004613
vt 0.453114 1.000000
vt 0.041316 1.000000
vt 0.046649 1.004609
vt 0.046649 1.004609
vt 0.447782 1.004613
vt 0.453114 1.000000
vt 0.005337 1.040315
vt 0.005332 1.387033
vt 0.046643 1.387033
vt 0.046643 1.387033
vt 0.046648 1.040316
vt 0.005337 1.040315
vt 0.000000 1.035706
vt 0.000000 1.391642
vt 0.005332 1.387033
vt 0.005332 1.387033
vt 0.005337 1.040315
vt 0.000000 1.035706
vt 0.489087 1.387038
vt 0.489092 1.040321
vt 0.447781 1.040320
vt 0.447781 1.040320
vt 0.447776 1.387038
vt 0.489087 1.387038
vt 0.494424 1.391647
vt 0.494424 1.035712
vt 0.489092 1.040321
vt 0.489092 1.040321
vt 0.489087 1.387038
vt 0.494424 1.391647
vt 0.321194 1.422797
vt 0.447795 1.422745
vt 0.447776 1.387038
vt 0.447776 1.387038
vt 0.321175 1.387036
vt 0.321194 1.422797
vt 0.315865 1.427408
vt 0.453130 1.427351
vt 0.447795 1.422745
vt 0.447795 1.422745
vt 0.321194 1.422797
vt 0.315865 1.427408
vt 0.046643 1.422740
vt 0.173244 1.422742
vt 0.173244 1.387035
vt 0.173244 1.387035
vt 0.046643 1.387033
vt 0.046643 1.422740
vt 0.041310 1.427350
vt 0.178576 1.427351
vt 0.173244 1.422742
vt 0.173244 1.422742
vt 0.046643 1.422740
vt 0.041310 1.427350
vt 0.214599 1.387018
vt 0.214556 1.309218
vt 0.173245 1.309235
vt 0.173245 1.309235
vt 0.173244 1.387035
vt 0.214599 1.387018
vt 0.219934 1.391625
vt 0.219891 1.313825
vt 0.214556 1.309218
vt 0.214556 1.309218
vt 0.214599 1.387018
vt 0.219934 1.391625
vt 0.274532 1.313845
vt 0.274531 1.391645
vt 0.279864 1.387036
vt 0.279864 1.387036
vt 0.279865 1.309236
vt 0.274532 1.313845
vt 0.279865 1.309236
vt 0.279864 1.387036
vt 0.321175 1.387036
vt 0.321175 1.387036
vt 0.321176 1.309237
vt 0.279865 1.309236
vt 0.428809 1.572823
vt 0.428737 1.700686
vt 0.470120 1.700686
vt 0.470120 1.700686
vt 0.470120 1.572823
vt 0.428809 1.572823
vt 0.423474 1.577430
vt 0.423407 1.696075
vt 0.428737 1.700686
vt 0.428737 1.700686
vt 0.428809 1.572823
vt 0.423474 1.577430
# 166 texture vertices

g Material_13
f 1/1 2/2 3/3
f 3/3 4/4 1/1
f 2/2 1/1 5/5
f 5/5 6/6 2/2
f 7/7 8/8 9/9
f 9/9 10/10 7/7
f 8/8 7/7 11/11
f 11/11 12/12 8/8
f 13/13 14/14 15/15
f 15/15 16/16 13/13
f 14/14 13/13 17/17
f 17/17 18/18 14/14
f 19/19 20/20 21/21
f 21/21 22/22 19/19
f 23/23 19/19 22/22
f 22/22 24/24 23/23
f 25/25 23/23 24/24
f 24/24 26/26 25/25
f 23/23 25/25 27/27
f 27/27 28/28 23/23
f 20/20 19/19 29/29
f 29/29 30/30 20/20
f 31/31 32/32 33/33
f 33/33 34/34 31/31
f 35/35 36/36 37/37
f 38/38 39/39 40/40
f 41/41 42/42 43/43
f 44/44 45/45 46/46
f 47/47 48/48 49/49
f 50/50 51/51 52/52
f 53/53 54/54 55/55
f 56/56 57/57 58/58
f 59/59 60/60 61/61
f 62/62 63/63 64/64
f 65/65 66/66 67/67
f 68/68 69/69 70/70
f 71/71 72/72 73/73
f 74/74 75/75 76/76
f 77/77 78/78 79/79
f 80/80 81/81 82/82
f 83/83 84/84 85/85
f 86/86 87/87 88/88
f 89/89 90/90 91/91
f 92/92 93/93 94/94
f 95/95 96/96 97/97
f 98/98 99/99 100/100
f 101/101 102/102 103/103
f 104/104 105/105 106/106
f 107/107 108/108 109/109
f 110/110 111/111 112/112
f 113/113 114/114 115/115
f 116/116 117/117 118/118
f 119/119 120/120 121/121
f 122/122 123/123 124/124
f 125/125 126/126 127/127
f 128/128 129/129 130/130
f 131/131 132/132 133/133
f 134/134 135/135 136/136
f 137/137 138/138 139/139
f 140/140 141/141 142/142
f 143/143 144/144 145/145
f 146/146 147/147 148/148
f 149/149 150/150 151/151
f 152/152 153/153 154/154
f 155/155 156/156 157/157
f 158/158 159/159 160/160
f 161/161 162/162 163/163
f 164/164 165/165 166/166
# 68 faces

