v -12.303148 -5.663861 -12.303147
v 12.303147 -5.663861 -12.303147
v 12.303147 -5.663861 12.303148
v -12.303148 -5.663861 12.303148
v -12.303148 -5.663861 -12.303147
v -12.303148 -5.663861 12.303148
v -12.303146 8.495793 12.303147
v -12.303146 8.495793 -12.303146
v -12.303148 -5.663861 12.303148
v 12.303147 -5.663861 12.303148
v 12.303146 8.495793 12.303147
v -12.303146 8.495793 12.303147
v 12.303147 -5.663861 12.303148
v 12.303147 -5.663861 -12.303147
v 12.303146 8.495793 -12.303146
v 12.303146 8.495793 12.303147
v 12.303147 -5.663861 -12.303147
v -12.303148 -5.663861 -12.303147
v -12.303146 8.495793 -12.303146
v 12.303146 8.495793 -12.303146
# 20 vertices

vt 1.126143 2.009491
vt 1.126143 0.990509
vt -0.112620 0.990509
vt -0.112620 2.009492
vt -0.126144 2.012188
vt 1.112620 2.012188
vt 1.112619 1.010756
vt -0.126144 1.010757
vt -0.009492 2.012188
vt 1.009491 2.012188
vt 1.009491 1.010757
vt -0.009491 1.010756
vt -0.112620 2.012188
vt 1.126143 2.012189
vt 1.126143 1.010758
vt -0.112620 1.010757
vt -0.009491 2.012189
vt 1.009491 2.012188
vt 1.009491 1.010757
vt -0.009492 1.010758
# 20 texture vertices

g Material_1
f 1/1 2/2 3/3
f 3/3 4/4 1/1
f 5/5 6/6 7/7
f 7/7 8/8 5/5
f 9/9 10/10 11/11
f 11/11 12/12 9/9
f 13/13 14/14 15/15
f 15/15 16/16 13/13
f 17/17 18/18 19/19
f 19/19 20/20 17/17
# 10 faces

