v -11.707044 -1.999915 -11.707042
v -11.707044 -1.999915 11.707045
v 11.707042 -1.999915 11.707045
v 11.707042 -1.999915 -11.707042
v -12.303147 0.888881 -12.303145
v -12.303147 0.888881 12.303148
v -11.707044 0.888881 11.707045
v -11.707044 0.888881 11.707045
v -11.707044 0.888881 -11.707042
v -12.303147 0.888881 -12.303145
v -12.303147 0.888881 12.303148
v 12.303145 0.888881 12.303148
v 11.707042 0.888881 11.707045
v 11.707042 0.888881 11.707045
v -11.707044 0.888881 11.707045
v -12.303147 0.888881 12.303148
v 12.303145 0.888881 12.303148
v 12.303145 0.888881 -12.303145
v 11.707042 0.888881 -11.707042
v 11.707042 0.888881 -11.707042
v 11.707042 0.888881 11.707045
v 12.303145 0.888881 12.303148
v 12.303145 0.888881 -12.303145
v -12.303147 0.888881 -12.303145
v -11.707044 0.888881 -11.707042
v -11.707044 0.888881 -11.707042
v 11.707042 0.888881 -11.707042
v 12.303145 0.888881 -12.303145
v -11.707044 0.888881 -11.707042
v -11.707044 0.888881 11.707045
v -11.707044 -1.999915 11.707045
v -11.707044 -1.999915 11.707045
v -11.707044 -1.999915 -11.707042
v -11.707044 0.888881 -11.707042
v -11.707044 0.888881 11.707045
v 11.707042 0.888881 11.707045
v 11.707042 -1.999915 11.707045
v 11.707042 -1.999915 11.707045
v -11.707044 -1.999915 11.707045
v -11.707044 0.888881 11.707045
v 11.707042 0.888881 11.707045
v 11.707042 0.888881 -11.707042
v 11.707042 -1.999915 -11.707042
v 11.707042 -1.999915 -11.707042
v 11.707042 -1.999915 11.707045
v 11.707042 0.888881 11.707045
v 11.707042 0.888881 -11.707042
v -11.707044 0.888881 -11.707042
v -11.707044 -1.999915 -11.707042
v -11.707044 -1.999915 -11.707042
v 11.707042 -1.999915 -11.707042
v 11.707042 0.888881 -11.707042
# 52 vertices

vt 0.024701 1.975299
vt 0.975299 1.975299
vt 0.975299 1.024701
vt 0.024701 1.024701
vt 0.000499 1.999500
vt 0.999500 1.999501
vt 0.975299 1.975299
vt 0.975299 1.975299
vt 0.024701 1.975299
vt 0.000499 1.999500
vt 0.999500 1.999501
vt 0.999501 1.000500
vt 0.975299 1.024701
vt 0.975299 1.024701
vt 0.975299 1.975299
vt 0.999500 1.999501
vt 0.999501 1.000500
vt 0.000500 1.000499
vt 0.024701 1.024701
vt 0.024701 1.024701
vt 0.975299 1.024701
vt 0.999501 1.000500
vt 0.000500 1.000499
vt 0.000499 1.999500
vt 0.024701 1.975299
vt 0.024701 1.975299
vt 0.024701 1.024701
vt 0.000500 1.000499
vt 0.975299 1.000499
vt 0.024701 1.000499
vt 0.024701 1.999500
vt 0.024701 1.999500
vt 0.975299 1.999500
vt 0.975299 1.000499
vt 0.975299 1.000499
vt 0.024701 1.000499
vt 0.024701 1.999500
vt 0.024701 1.999500
vt 0.975299 1.999500
vt 0.975299 1.000499
vt 0.975299 1.000499
vt 0.024701 1.000499
vt 0.024701 1.999500
vt 0.024701 1.999500
vt 0.975299 1.999500
vt 0.975299 1.000499
vt 0.975299 1.000499
vt 0.024701 1.000499
vt 0.024701 1.999500
vt 0.024701 1.999500
vt 0.975299 1.999500
vt 0.975299 1.000499
# 52 texture vertices

g Material_0
f 1/1 2/2 3/3
f 3/3 4/4 1/1
f 5/5 6/6 7/7
f 8/8 9/9 10/10
f 11/11 12/12 13/13
f 14/14 15/15 16/16
f 17/17 18/18 19/19
f 20/20 21/21 22/22
f 23/23 24/24 25/25
f 26/26 27/27 28/28
f 29/29 30/30 31/31
f 32/32 33/33 34/34
f 35/35 36/36 37/37
f 38/38 39/39 40/40
f 41/41 42/42 43/43
f 44/44 45/45 46/46
f 47/47 48/48 49/49
f 50/50 51/51 52/52
# 18 faces

