v -0.049532 -0.899909 -0.000511
v -0.042938 0.084342 0.024094
v -0.049532 0.084342 -0.000511
v -0.042938 -0.899909 0.024094
v -0.024925 0.084342 0.042110
v -0.024925 -0.899909 0.042110
v -0.042938 -0.899909 -0.025112
v -0.042938 0.084342 -0.025112
v -0.024925 -0.899909 -0.043133
v -0.024925 0.084342 -0.043133
v -0.000319 -0.899909 -0.049725
v -0.000319 0.084342 -0.049725
v 0.024288 -0.899909 -0.043133
v 0.024288 0.084342 -0.043133
v 0.042301 -0.899909 -0.025112
v 0.042301 0.084342 -0.025112
v -0.000319 0.084342 0.048702
v -0.000319 -0.899909 0.048702
v 0.024288 0.084342 0.042110
v 0.024288 -0.899909 0.042110
v 0.042301 -0.899909 0.024094
v 0.048895 0.084342 -0.000511
v 0.042301 0.084342 0.024094
v 0.048895 -0.899909 -0.000511
v 0.024288 -0.899909 0.042110
v 0.024288 0.084342 0.042110
v 0.024288 0.084342 0.042110
v 0.042301 0.084342 0.024094
v 0.031414 0.102558 0.017811
v 0.031414 0.102558 0.017811
v 0.018002 0.102558 0.031223
v 0.024288 0.084342 0.042110
v 0.018002 0.102558 0.031223
v 0.031414 0.102558 0.017811
v -0.000319 0.117738 -0.000511
v -0.049532 0.084342 -0.000511
v -0.042938 0.084342 0.024094
v -0.032051 0.102558 0.017811
v -0.032051 0.102558 0.017811
v -0.036959 0.102558 -0.000511
v -0.049532 0.084342 -0.000511
v -0.042938 0.084342 -0.025112
v -0.049532 0.084342 -0.000511
v -0.036959 0.102558 -0.000511
v -0.036959 0.102558 -0.000511
v -0.032051 0.102558 -0.018833
v -0.042938 0.084342 -0.025112
v -0.024925 0.084342 -0.043133
v -0.042938 0.084342 -0.025112
v -0.032051 0.102558 -0.018833
v -0.032051 0.102558 -0.018833
v -0.018639 0.102558 -0.032242
v -0.024925 0.084342 -0.043133
v -0.000319 0.084342 -0.049725
v -0.024925 0.084342 -0.043133
v -0.018639 0.102558 -0.032242
v -0.018639 0.102558 -0.032242
v -0.000319 0.102558 -0.037151
v -0.000319 0.084342 -0.049725
v 0.024288 0.084342 -0.043133
v -0.000319 0.084342 -0.049725
v -0.000319 0.102558 -0.037151
v -0.000319 0.102558 -0.037151
v 0.018002 0.102558 -0.032242
v 0.024288 0.084342 -0.043133
v 0.042301 0.084342 -0.025112
v 0.024288 0.084342 -0.043133
v 0.018002 0.102558 -0.032242
v 0.018002 0.102558 -0.032242
v 0.031414 0.102558 -0.018833
v 0.042301 0.084342 -0.025112
v 0.048895 0.084342 -0.000511
v 0.042301 0.084342 -0.025112
v 0.031414 0.102558 -0.018833
v 0.031414 0.102558 -0.018833
v 0.036322 0.102558 -0.000511
v 0.048895 0.084342 -0.000511
v 0.042301 0.084342 0.024094
v 0.048895 0.084342 -0.000511
v 0.036322 0.102558 -0.000511
v 0.036322 0.102558 -0.000511
v 0.031414 0.102558 0.017811
v 0.042301 0.084342 0.024094
v -0.000319 0.084342 0.048702
v 0.024288 0.084342 0.042110
v 0.018002 0.102558 0.031223
v 0.018002 0.102558 0.031223
v -0.000319 0.102558 0.036129
v -0.000319 0.084342 0.048702
v -0.024925 0.084342 0.042110
v -0.000319 0.084342 0.048702
v -0.000319 0.102558 0.036129
v -0.000319 0.102558 0.036129
v -0.018639 0.102558 0.031223
v -0.024925 0.084342 0.042110
v -0.042938 0.084342 0.024094
v -0.024925 0.084342 0.042110
v -0.018639 0.102558 0.031223
v -0.018639 0.102558 0.031223
v -0.032051 0.102558 0.017811
v -0.042938 0.084342 0.024094
v -0.036959 0.102558 -0.000511
v -0.032051 0.102558 0.017811
v -0.000319 0.117738 -0.000511
v -0.032051 0.102558 0.017811
v -0.018639 0.102558 0.031223
v -0.000319 0.117738 -0.000511
v -0.018639 0.102558 0.031223
v -0.000319 0.102558 0.036129
v -0.000319 0.117738 -0.000511
v -0.000319 0.102558 0.036129
v 0.018002 0.102558 0.031223
v -0.000319 0.117738 -0.000511
v 0.031414 0.102558 0.017811
v 0.036322 0.102558 -0.000511
v -0.000319 0.117738 -0.000511
v 0.036322 0.102558 -0.000511
v 0.031414 0.102558 -0.018833
v -0.000319 0.117738 -0.000511
v 0.031414 0.102558 -0.018833
v 0.018002 0.102558 -0.032242
v -0.000319 0.117738 -0.000511
v 0.018002 0.102558 -0.032242
v -0.000319 0.102558 -0.037151
v -0.000319 0.117738 -0.000511
v -0.000319 0.102558 -0.037151
v -0.018639 0.102558 -0.032242
v -0.000319 0.117738 -0.000511
v -0.018639 0.102558 -0.032242
v -0.032051 0.102558 -0.018833
v -0.000319 0.117738 -0.000511
v -0.032051 0.102558 -0.018833
v -0.036959 0.102558 -0.000511
v -0.000319 0.117738 -0.000511
# 134 vertices

vt 0.691316 1.999462
vt 0.715500 1.058222
vt 0.691129 1.058227
vt 0.715681 1.999457
vt 0.739866 1.058218
vt 0.740052 1.999453
vt 0.666951 1.999467
vt 0.666758 1.058231
vt 0.642579 1.999472
vt 0.642393 1.058237
vt 0.618208 1.999477
vt 0.618022 1.058242
vt 0.593831 1.999481
vt 0.593651 1.058246
vt 0.569460 1.999486
vt 0.569279 1.058251
vt 0.764237 1.058213
vt 0.764429 1.999448
vt 0.788608 1.058208
vt 0.788800 1.999443
vt 0.520730 1.999495
vt 0.544908 1.058255
vt 0.520537 1.058260
vt 0.545095 1.999491
vt 0.496359 1.999500
vt 0.496160 1.058265
vt 0.496160 1.058265
vt 0.520537 1.058260
vt 0.517416 1.037327
vt 0.517416 1.037327
vt 0.499270 1.037328
vt 0.496160 1.058265
vt 0.499270 1.037328
vt 0.517416 1.037327
vt 0.508332 1.000500
vt 0.350802 1.952215
vt 0.364361 1.972454
vt 0.380037 1.958230
vt 0.380037 1.958230
vt 0.369934 1.943155
vt 0.350802 1.952215
vt 0.343720 1.928910
vt 0.350802 1.952215
vt 0.369934 1.943155
vt 0.369934 1.943155
vt 0.364662 1.925798
vt 0.343720 1.928910
vt 0.343720 1.904541
vt 0.343720 1.928910
vt 0.364662 1.925798
vt 0.364662 1.925798
vt 0.364661 1.907656
vt 0.343720 1.904541
vt 0.350809 1.881236
vt 0.343720 1.904541
vt 0.364661 1.907656
vt 0.364661 1.907656
vt 0.369940 1.890303
vt 0.350809 1.881236
vt 0.364372 1.860998
vt 0.350809 1.881236
vt 0.369940 1.890303
vt 0.369940 1.890303
vt 0.380032 1.875235
vt 0.364372 1.860998
vt 0.383252 1.845587
vt 0.364372 1.860998
vt 0.380032 1.875235
vt 0.380032 1.875235
vt 0.394083 1.863769
vt 0.383252 1.845587
vt 0.405792 1.836334
vt 0.383252 1.845587
vt 0.394083 1.863769
vt 0.394083 1.863769
vt 0.410873 1.856881
vt 0.405792 1.836334
vt 0.430043 1.834023
vt 0.405792 1.836334
vt 0.410873 1.856881
vt 0.410873 1.856881
vt 0.428938 1.855158
vt 0.430043 1.834023
vt 0.405743 1.997168
vt 0.429997 1.999500
vt 0.428913 1.978367
vt 0.428913 1.978367
vt 0.410850 1.976627
vt 0.405743 1.997168
vt 0.383213 1.987892
vt 0.405743 1.997168
vt 0.410850 1.976627
vt 0.410850 1.976627
vt 0.394073 1.969717
vt 0.383213 1.987892
vt 0.364361 1.972454
vt 0.383213 1.987892
vt 0.394073 1.969717
vt 0.394073 1.969717
vt 0.380037 1.958230
vt 0.364361 1.972454
vt 0.284383 1.976039
vt 0.286541 1.958027
vt 0.248882 1.962651
vt 0.286541 1.958027
vt 0.280087 1.941079
vt 0.248882 1.962651
vt 0.280087 1.941079
vt 0.266496 1.929060
vt 0.248882 1.962651
vt 0.266496 1.929060
vt 0.248882 1.924723
vt 0.248882 1.962651
vt 0.217559 1.941251
vt 0.211200 1.958239
vt 0.248882 1.962651
vt 0.211200 1.958239
vt 0.213460 1.976240
vt 0.248882 1.962651
vt 0.213460 1.976240
vt 0.223823 1.991124
vt 0.248882 1.962651
vt 0.223823 1.991124
vt 0.239915 1.999500
vt 0.248882 1.962651
vt 0.239915 1.999500
vt 0.258056 1.999452
vt 0.248882 1.962651
vt 0.258056 1.999452
vt 0.274102 1.990988
vt 0.248882 1.962651
vt 0.274102 1.990988
vt 0.284383 1.976039
vt 0.248882 1.962651
# 134 texture vertices

g Material_2
f 1/1 2/2 3/3
f 1/1 4/4 2/2
f 4/4 5/5 2/2
f 4/4 6/6 5/5
f 7/7 1/1 3/3
f 7/7 3/3 8/8
f 9/9 7/7 8/8
f 9/9 8/8 10/10
f 11/11 9/9 10/10
f 11/11 10/10 12/12
f 13/13 11/11 12/12
f 13/13 12/12 14/14
f 15/15 13/13 14/14
f 15/15 14/14 16/16
f 6/6 17/17 5/5
f 6/6 18/18 17/17
f 18/18 19/19 17/17
f 18/18 20/20 19/19
f 21/21 22/22 23/23
f 21/21 24/24 22/22
f 24/24 16/16 22/22
f 24/24 15/15 16/16
f 25/25 23/23 26/26
f 25/25 21/21 23/23
f 27/27 28/28 29/29
f 30/30 31/31 32/32
f 33/33 34/34 35/35
f 36/36 37/37 38/38
f 39/39 40/40 41/41
f 42/42 43/43 44/44
f 45/45 46/46 47/47
f 48/48 49/49 50/50
f 51/51 52/52 53/53
f 54/54 55/55 56/56
f 57/57 58/58 59/59
f 60/60 61/61 62/62
f 63/63 64/64 65/65
f 66/66 67/67 68/68
f 69/69 70/70 71/71
f 72/72 73/73 74/74
f 75/75 76/76 77/77
f 78/78 79/79 80/80
f 81/81 82/82 83/83
f 84/84 85/85 86/86
f 87/87 88/88 89/89
f 90/90 91/91 92/92
f 93/93 94/94 95/95
f 96/96 97/97 98/98
f 99/99 100/100 101/101
f 102/102 103/103 104/104
f 105/105 106/106 107/107
f 108/108 109/109 110/110
f 111/111 112/112 113/113
f 114/114 115/115 116/116
f 117/117 118/118 119/119
f 120/120 121/121 122/122
f 123/123 124/124 125/125
f 126/126 127/127 128/128
f 129/129 130/130 131/131
f 132/132 133/133 134/134
# 60 faces

