v 0.984253 -0.098425 0.328099
v 0.984253 -0.098425 -0.656199
v 0.984253 0.049213 -0.656199
v 0.984253 0.049213 0.328099
v -1.968505 -0.098425 0.328099
v 0.984253 -0.098425 0.328099
v 0.984253 0.049213 0.328099
v -1.968505 0.049213 0.328099
v -1.968505 0.049213 -0.656199
v -1.968505 0.049213 0.328099
v 0.984253 0.049213 0.328099
v 0.984253 0.049213 -0.656199
# 12 vertices

vt 0.666485 1.996782
vt 0.999500 1.996782
vt 0.999500 1.946832
vt 0.666485 1.946832
vt 0.000499 1.996782
vt 0.999501 1.996782
vt 0.999501 1.946832
vt 0.000499 1.946832
vt 0.999500 1.000499
vt 0.666485 1.000499
vt 0.666485 1.999501
vt 0.999500 1.999501
# 12 texture vertices

g Material_5
f 1/1 2/2 3/3
f 1/1 3/3 4/4
f 5/5 6/6 7/7
f 5/5 7/7 8/8
f 9/9 10/10 11/11
f 12/12 9/9 11/11
# 6 faces

