v 0.738187 -0.110735 12.303141
v 0.738191 -0.110722 -12.303146
v 0.738191 0.036916 -12.303146
v 0.738187 0.036903 12.303141
v -2.214563 0.036916 -12.303148
v -2.214569 0.036903 12.303141
v 0.738187 0.036903 12.303141
v 0.738191 0.036916 -12.303146
# 8 vertices

vt 0.000998 1.997280
vt 8.317701 1.997275
vt 8.317701 1.947275
vt 0.000998 1.947280
vt 8.317702 1.000004
vt 0.000998 0.999999
vt 0.000998 2.000000
vt 8.317701 2.000005
# 8 texture vertices

g Material_5
f 1/1 2/2 3/3
f 1/1 3/3 4/4
f 5/5 6/6 7/7
f 8/8 5/5 7/7
# 4 faces

