v -0.738187 0.110728 -20.669264
v -0.738191 -0.036909 20.669256
v -0.738191 0.110728 20.669256
v -0.738187 -0.036909 -20.669264
v 2.214564 -0.036909 20.669256
v -0.738187 -0.036909 -20.669264
v 2.214566 -0.036909 -20.669260
v -0.738191 -0.036909 20.669256
# 8 vertices

vt -12.973046 1.997280
vt 0.999002 1.947280
vt 0.999002 1.997280
vt -12.973046 1.947280
vt 0.999002 1.000000
vt -12.973046 1.999994
vt -12.973044 0.999993
vt 0.999002 2.000001
# 8 texture vertices

g Material_5
f 1/1 2/2 3/3
f 1/1 4/4 2/2
f 5/5 6/6 7/7
f 8/8 6/6 5/5
# 4 faces

