v 0.738187 -0.110728 20.669268
v 0.738191 -0.110728 -20.669260
v 0.738191 0.036909 -20.669260
v 0.738187 0.036909 20.669268
v -2.214564 0.036909 -20.669260
v -2.214567 0.036909 20.669264
v 0.738187 0.036909 20.669268
v 0.738191 0.036909 -20.669260
# 8 vertices

vt -12.973046 1.997280
vt 0.999002 1.997280
vt 0.999002 1.947280
vt -12.973046 1.947280
vt 0.999002 1.000000
vt -12.973044 0.999993
vt -12.973046 1.999994
vt 0.999002 2.000001
# 8 texture vertices

g Material_1
f 1/1 2/2 3/3
f 1/1 3/3 4/4
f 5/5 6/6 7/7
f 8/8 5/5 7/7
# 4 faces

