v -0.738186 0.110735 -12.303134
v -0.738191 -0.036916 12.303137
v -0.738191 0.110721 12.303137
v -0.738186 -0.036903 -12.303134
v 2.214562 -0.036916 12.303141
v -0.738186 -0.036903 -12.303134
v 2.214567 -0.036903 -12.303134
v -0.738191 -0.036916 12.303137
# 8 vertices

vt 0.000998 1.997280
vt 8.317701 1.947275
vt 8.317701 1.997275
vt 0.000998 1.947280
vt 8.317702 1.000004
vt 0.000998 2.000000
vt 0.000998 0.999999
vt 8.317701 2.000005
# 8 texture vertices

g Material_5
f 1/1 2/2 3/3
f 1/1 4/4 2/2
f 5/5 6/6 7/7
f 8/8 6/6 5/5
# 4 faces

