v 0.738187 -0.110728 25.098368
v 0.738189 -0.110728 -25.098373
v 0.738189 0.036909 -25.098373
v 0.738187 0.036909 25.098368
v -2.214562 0.036909 -25.098373
v -2.214565 0.036909 25.098368
v 0.738187 0.036909 25.098368
v 0.738189 0.036909 -25.098373
# 8 vertices

vt 0.000998 1.997280
vt 16.967056 1.997280
vt 16.967056 1.947280
vt 0.000998 1.947280
vt 16.967058 1.000007
vt 0.000998 0.999999
vt 0.000998 2.000000
vt 16.967056 2.000008
# 8 texture vertices

g Material_5
f 1/1 2/2 3/3
f 1/1 3/3 4/4
f 5/5 6/6 7/7
f 8/8 5/5 7/7
# 4 faces

