v -0.738188 0.110728 -25.098381
v -0.738189 -0.036909 25.098389
v -0.738189 0.110728 25.098389
v -0.738188 -0.036909 -25.098381
v 2.214564 -0.036909 25.098392
v -0.738188 -0.036909 -25.098381
v 2.214566 -0.036909 -25.098381
v -0.738189 -0.036909 25.098389
# 8 vertices

vt 0.000998 1.997280
vt 16.967056 1.947280
vt 16.967056 1.997280
vt 0.000998 1.947280
vt 16.967058 1.000007
vt 0.000998 2.000000
vt 0.000998 0.999999
vt 16.967056 2.000008
# 8 texture vertices

g Material_5
f 1/1 2/2 3/3
f 1/1 4/4 2/2
f 5/5 6/6 7/7
f 8/8 6/6 5/5
# 4 faces

