v 1.476379 -0.073819 1.476379
v 1.476379 -0.073819 -1.476379
v 1.476379 0.073819 -1.476379
v 1.476379 0.073819 1.476379
v -1.476379 -0.073819 -1.476379
v -1.476379 -0.073819 1.476379
v -1.476379 0.073819 1.476379
v -1.476379 0.073819 -1.476379
v 1.476379 -0.073819 -1.476379
v -1.476379 -0.073819 -1.476379
v -1.476379 0.073819 -1.476379
v 1.476379 0.073819 -1.476379
v -1.476379 -0.073819 1.476379
v 1.476379 -0.073819 1.476379
v 1.476379 0.073819 1.476379
v -1.476379 0.073819 1.476379
v -1.476379 -0.073819 -1.476379
v 1.476379 -0.073819 1.476379
v -1.476379 -0.073819 1.476379
v 1.476379 -0.073819 -1.476379
v -1.476379 0.073819 -1.476379
v -1.476379 0.073819 1.476379
v 1.476379 0.073819 1.476379
v 1.476379 0.073819 -1.476379
# 24 vertices

vt 0.000000 2.000000
vt 0.250000 2.000000
vt 0.250000 1.000000
vt 0.000000 1.000000
vt 0.500000 2.000000
vt 0.750000 2.000000
vt 0.750000 1.000000
vt 0.500000 1.000000
vt 0.250000 2.000000
vt 0.500000 2.000000
vt 0.500000 1.000000
vt 0.250000 1.000000
vt 0.750000 2.000000
vt 1.000000 2.000000
vt 1.000000 1.000000
vt 0.750000 1.000000
vt 0.000000 2.000000
vt 1.000000 1.000000
vt 1.000000 2.000000
vt 0.000000 1.000000
vt 0.000000 2.000000
vt 1.000000 2.000000
vt 1.000000 1.000000
vt 0.000000 1.000000
# 24 texture vertices

g Material_25
f 1/1 2/2 3/3
f 1/1 3/3 4/4
f 5/5 6/6 7/7
f 5/5 7/7 8/8
f 9/9 10/10 11/11
f 9/9 11/11 12/12
f 13/13 14/14 15/15
f 13/13 15/15 16/16
f 17/17 18/18 19/19
f 20/20 18/18 17/17
f 21/21 22/22 23/23
f 24/24 21/21 23/23
# 12 faces

