v -0.138106 0.157616 -0.026409
v -0.138469 0.133114 -0.008605
v -0.138192 0.151832 -0.008605
v -0.138555 0.127330 -0.026409
v -0.138331 0.142473 -0.037413
v -0.029418 -0.186486 -0.066970
v 0.195871 -0.048680 0.028659
v 0.191576 -0.186486 0.026836
v 0.195871 -0.181821 0.028659
v 0.191644 -0.044088 0.026865
v -0.033713 -0.181821 -0.068793
v -0.029486 -0.044088 -0.066999
v -0.033713 -0.048680 -0.068793
v -0.060915 -0.188673 -0.010304
v 0.172694 -0.041901 0.088857
v -0.060915 -0.047362 -0.010304
v 0.172694 -0.188673 0.088857
v -0.055889 -0.041901 -0.008171
v -0.051763 -0.035028 -0.037704
v 0.191644 -0.044088 0.026865
v -0.029486 -0.044088 -0.066999
v 0.186169 -0.035028 0.063292
v -0.057733 -0.035028 -0.035394
v -0.068186 -0.035028 -0.010767
v -0.064901 -0.035028 -0.004529
v 0.172231 -0.035028 0.096127
v -0.055991 -0.191016 -0.039498
v -0.033713 -0.048680 -0.068793
v -0.033713 -0.181821 -0.068793
v -0.055991 -0.039620 -0.039498
v -0.069928 -0.191016 -0.006663
v -0.057733 -0.035028 -0.035394
v -0.068186 -0.035028 -0.010767
v -0.069928 -0.040489 -0.006663
v 0.186103 -0.195546 0.063264
v -0.029418 -0.186486 -0.066970
v 0.191576 -0.186486 0.026836
v -0.051820 -0.195546 -0.037728
v 0.172165 -0.195546 0.096099
v -0.065758 -0.195546 -0.004893
v 0.190273 -0.039487 0.065034
v 0.195871 -0.181821 0.028659
v 0.195871 -0.048680 0.028659
v 0.190273 -0.191016 0.065034
v 0.176335 -0.039487 0.097870
v 0.176335 -0.191016 0.097870
v 0.172231 -0.035028 0.096127
v -0.055889 -0.041901 -0.008171
v 0.174972 -0.037602 0.094494
v 0.174972 -0.037602 0.094494
v -0.055889 -0.041901 -0.008171
v 0.172694 -0.041901 0.088857
v -0.055889 -0.041901 -0.008171
v 0.172231 -0.035028 0.096127
v -0.064901 -0.035028 -0.004529
v 0.172694 -0.188673 0.088857
v -0.065758 -0.195546 -0.004893
v 0.174950 -0.192931 0.094440
v -0.065758 -0.195546 -0.004893
v 0.172694 -0.188673 0.088857
v -0.066499 -0.192931 -0.008049
v -0.066499 -0.192931 -0.008049
v 0.172694 -0.188673 0.088857
v -0.060915 -0.188673 -0.010304
v 0.174950 -0.192931 0.094440
v -0.065758 -0.195546 -0.004893
v 0.172165 -0.195546 0.096099
v -0.033713 -0.048680 -0.068793
v -0.055991 -0.039620 -0.039498
v -0.051764 -0.035028 -0.037704
v -0.051764 -0.035028 -0.037704
v -0.029486 -0.044088 -0.066999
v -0.033713 -0.048680 -0.068793
v -0.069928 -0.191016 -0.006663
v -0.055991 -0.191016 -0.039498
v -0.051821 -0.195546 -0.037728
v -0.051821 -0.195546 -0.037728
v -0.065758 -0.195546 -0.004893
v -0.069928 -0.191016 -0.006663
v -0.055991 -0.191016 -0.039498
v -0.033713 -0.181821 -0.068793
v -0.029418 -0.186486 -0.066970
v -0.029418 -0.186486 -0.066970
v -0.051821 -0.195546 -0.037728
v -0.055991 -0.191016 -0.039498
v -0.051764 -0.035028 -0.037704
v -0.055991 -0.039620 -0.039498
v -0.057733 -0.035028 -0.035394
v -0.069928 -0.040489 -0.006663
v -0.060915 -0.188673 -0.010304
v -0.060915 -0.047362 -0.010304
v -0.060915 -0.188673 -0.010304
v -0.069928 -0.040489 -0.006663
v -0.066499 -0.192931 -0.008049
v -0.066499 -0.192931 -0.008049
v -0.069928 -0.040489 -0.006663
v -0.069928 -0.191016 -0.006663
v -0.064901 -0.035028 -0.004529
v -0.068186 -0.035028 -0.010767
v -0.069928 -0.040489 -0.006663
v -0.055889 -0.041901 -0.008171
v -0.064901 -0.035028 -0.004529
v -0.069928 -0.040489 -0.006663
v -0.069928 -0.040489 -0.006663
v -0.060915 -0.047362 -0.010304
v -0.055889 -0.041901 -0.008171
v -0.005064 0.076464 -0.008605
v -0.023784 -0.048407 -0.008605
v -0.005064 -0.048407 -0.008605
v -0.023784 -0.048407 -0.008605
v -0.005064 0.076464 -0.008605
v -0.023784 0.076464 -0.008605
v -0.034428 0.135143 -0.008605
v -0.023784 0.076464 -0.008605
v -0.005064 0.076464 -0.008605
v -0.023784 0.076464 -0.008605
v -0.034428 0.135143 -0.008605
v -0.045593 0.120116 -0.008605
v -0.054455 0.145644 -0.008605
v -0.045593 0.120116 -0.008605
v -0.034428 0.135143 -0.008605
v -0.045593 0.120116 -0.008605
v -0.054455 0.145644 -0.008605
v -0.060466 0.127915 -0.008605
v -0.076738 0.149489 -0.008605
v -0.060466 0.127915 -0.008605
v -0.054455 0.145644 -0.008605
v -0.060466 0.127915 -0.008605
v -0.076738 0.149489 -0.008605
v -0.077015 0.130771 -0.008605
v -0.138192 0.151832 -0.008605
v -0.077015 0.130771 -0.008605
v -0.076738 0.149489 -0.008605
v -0.077015 0.130771 -0.008605
v -0.138192 0.151832 -0.008605
v -0.138469 0.133114 -0.008605
v -0.052597 0.151123 -0.026409
v -0.034428 0.135143 -0.008605
v -0.030978 0.139787 -0.026409
v -0.034428 0.135143 -0.008605
v -0.052597 0.151123 -0.026409
v -0.054455 0.145644 -0.008605
v -0.076653 0.155273 -0.026409
v -0.054455 0.145644 -0.008605
v -0.052597 0.151123 -0.026409
v -0.054455 0.145644 -0.008605
v -0.076653 0.155273 -0.026409
v -0.076738 0.149489 -0.008605
v -0.138106 0.157616 -0.026409
v -0.076738 0.149489 -0.008605
v -0.076653 0.155273 -0.026409
v -0.076738 0.149489 -0.008605
v -0.138106 0.157616 -0.026409
v -0.138192 0.151832 -0.008605
v 0.000721 0.076464 -0.026409
v -0.005064 -0.048407 -0.008605
v 0.000721 -0.048407 -0.026409
v -0.005064 -0.048407 -0.008605
v 0.000721 0.076464 -0.026409
v -0.005064 0.076464 -0.008605
v -0.030978 0.139787 -0.026409
v -0.005064 0.076464 -0.008605
v 0.000721 0.076464 -0.026409
v -0.005064 0.076464 -0.008605
v -0.030978 0.139787 -0.026409
v -0.034428 0.135143 -0.008605
v -0.023784 0.076464 -0.008605
v -0.029569 -0.048407 -0.026409
v -0.023784 -0.048407 -0.008605
v -0.029569 -0.048407 -0.026409
v -0.023784 0.076464 -0.008605
v -0.029569 0.076464 -0.026409
v -0.045593 0.120116 -0.008605
v -0.029569 0.076464 -0.026409
v -0.023784 0.076464 -0.008605
v -0.029569 0.076464 -0.026409
v -0.045593 0.120116 -0.008605
v -0.049043 0.115473 -0.026409
v -0.060466 0.127915 -0.008605
v -0.049043 0.115473 -0.026409
v -0.045593 0.120116 -0.008605
v -0.049043 0.115473 -0.026409
v -0.060466 0.127915 -0.008605
v -0.062323 0.122437 -0.026409
v -0.077015 0.130771 -0.008605
v -0.062323 0.122437 -0.026409
v -0.060466 0.127915 -0.008605
v -0.062323 0.122437 -0.026409
v -0.077015 0.130771 -0.008605
v -0.077101 0.124986 -0.026409
v -0.138469 0.133114 -0.008605
v -0.077101 0.124986 -0.026409
v -0.077015 0.130771 -0.008605
v -0.077101 0.124986 -0.026409
v -0.138469 0.133114 -0.008605
v -0.138555 0.127330 -0.026409
v -0.029569 0.076464 -0.026409
v -0.014424 -0.048407 -0.037413
v -0.029569 -0.048407 -0.026409
v -0.014424 -0.048407 -0.037413
v -0.029569 0.076464 -0.026409
v -0.014424 0.076464 -0.037413
v -0.049043 0.115473 -0.026409
v -0.014424 0.076464 -0.037413
v -0.029569 0.076464 -0.026409
v -0.014424 0.076464 -0.037413
v -0.049043 0.115473 -0.026409
v -0.040010 0.127630 -0.037413
v -0.062323 0.122437 -0.026409
v -0.040010 0.127630 -0.037413
v -0.049043 0.115473 -0.026409
v -0.040010 0.127630 -0.037413
v -0.062323 0.122437 -0.026409
v -0.057460 0.136780 -0.037413
v -0.077101 0.124986 -0.026409
v -0.057460 0.136780 -0.037413
v -0.062323 0.122437 -0.026409
v -0.057460 0.136780 -0.037413
v -0.077101 0.124986 -0.026409
v -0.076877 0.140130 -0.037413
v -0.138555 0.127330 -0.026409
v -0.076877 0.140130 -0.037413
v -0.077101 0.124986 -0.026409
v -0.076877 0.140130 -0.037413
v -0.138555 0.127330 -0.026409
v -0.138331 0.142473 -0.037413
v -0.014424 0.076464 -0.037413
v 0.000721 -0.048407 -0.026409
v -0.014424 -0.048407 -0.037413
v 0.000721 -0.048407 -0.026409
v -0.014424 0.076464 -0.037413
v 0.000721 0.076464 -0.026409
v -0.040010 0.127630 -0.037413
v 0.000721 0.076464 -0.026409
v -0.014424 0.076464 -0.037413
v 0.000721 0.076464 -0.026409
v -0.040010 0.127630 -0.037413
v -0.030978 0.139787 -0.026409
v -0.057460 0.136780 -0.037413
v -0.030978 0.139787 -0.026409
v -0.040010 0.127630 -0.037413
v -0.030978 0.139787 -0.026409
v -0.057460 0.136780 -0.037413
v -0.052597 0.151123 -0.026409
v -0.076877 0.140130 -0.037413
v -0.052597 0.151123 -0.026409
v -0.057460 0.136780 -0.037413
v -0.052597 0.151123 -0.026409
v -0.076877 0.140130 -0.037413
v -0.076653 0.155273 -0.026409
v -0.138331 0.142473 -0.037413
v -0.076653 0.155273 -0.026409
v -0.076877 0.140130 -0.037413
v -0.076653 0.155273 -0.026409
v -0.138331 0.142473 -0.037413
v -0.138106 0.157616 -0.026409
v 0.186103 -0.195546 0.063264
v 0.191576 -0.186486 0.026836
v 0.195871 -0.181821 0.028659
v 0.195871 -0.181821 0.028659
v 0.190273 -0.191016 0.065034
v 0.186103 -0.195546 0.063264
v 0.172165 -0.195546 0.096099
v 0.186103 -0.195546 0.063264
v 0.190273 -0.191016 0.065034
v 0.190273 -0.191016 0.065034
v 0.176335 -0.191016 0.097870
v 0.172165 -0.195546 0.096099
v 0.190273 -0.039487 0.065034
v 0.195871 -0.048680 0.028659
v 0.191644 -0.044088 0.026865
v 0.191644 -0.044088 0.026865
v 0.186169 -0.035028 0.063292
v 0.190273 -0.039487 0.065034
v 0.176335 -0.039487 0.097870
v 0.190273 -0.039487 0.065034
v 0.186169 -0.035028 0.063292
v 0.186169 -0.035028 0.063292
v 0.172231 -0.035028 0.096127
v 0.176335 -0.039487 0.097870
v 0.172694 -0.041901 0.088857
v 0.176335 -0.191016 0.097870
v 0.174972 -0.037602 0.094494
v 0.176335 -0.191016 0.097870
v 0.172694 -0.041901 0.088857
v 0.174950 -0.192931 0.094440
v 0.174950 -0.192931 0.094440
v 0.172694 -0.041901 0.088857
v 0.172694 -0.188673 0.088857
v 0.174972 -0.037602 0.094494
v 0.176335 -0.191016 0.097870
v 0.176335 -0.039487 0.097870
v 0.172231 -0.035028 0.096127
v 0.174972 -0.037602 0.094494
v 0.176335 -0.039487 0.097870
v 0.172165 -0.195546 0.096099
v 0.176335 -0.191016 0.097870
v 0.174950 -0.192931 0.094440
v -0.069928 -0.191016 -0.006663
v -0.065758 -0.195546 -0.004893
v -0.066499 -0.192931 -0.008049
# 301 vertices

vt 0.642001 1.914789
vt 0.672614 1.875731
vt 0.672614 1.905577
vt 0.642005 1.866508
vt 0.623085 1.890647
vt 0.386132 1.978122
vt 0.149208 1.588011
vt 0.386132 1.595448
vt 0.378111 1.588012
vt 0.141315 1.595330
vt 0.378111 1.985559
vt 0.141314 1.978239
vt 0.149209 1.985558
vt 0.875424 1.000000
vt 0.623086 1.404519
vt 0.632475 1.000000
vt 0.875424 1.404519
vt 0.623085 1.008705
vt 0.078040 1.992680
vt 0.141315 1.595330
vt 0.141314 1.978239
vt 0.078040 1.580676
vt 0.070374 2.000000
vt 0.024378 2.000000
vt 0.016712 1.991295
vt 0.016713 1.580676
vt 0.689081 1.515675
vt 0.625807 1.742552
vt 0.625807 1.530332
vt 0.689082 1.756993
vt 0.750409 1.515675
vt 0.696748 1.764313
vt 0.742743 1.764313
vt 0.750409 1.755608
vt 0.449407 1.580790
vt 0.386132 1.978122
vt 0.386132 1.595448
vt 0.449407 1.992779
vt 0.510734 1.580790
vt 0.510735 1.992779
vt 0.921961 1.515663
vt 0.858687 1.742537
vt 0.858686 1.530317
vt 0.921962 1.757194
vt 0.983288 1.515663
vt 0.983289 1.757193
vt 0.016713 1.580676
vt 0.000000 1.980339
vt 0.010454 1.577672
vt 0.010454 1.577672
vt 0.000000 1.980339
vt 0.000000 1.584525
vt 0.000000 1.980339
vt 0.016713 1.580676
vt 0.016712 1.991295
vt 0.527446 1.584525
vt 0.510735 1.992779
vt 0.517094 1.577738
vt 0.510735 1.992779
vt 0.527446 1.584525
vt 0.517091 1.995831
vt 0.517091 1.995831
vt 0.527446 1.584525
vt 0.527445 1.989044
vt 0.517094 1.577738
vt 0.510735 1.992779
vt 0.510734 1.580790
vt 0.625807 1.742552
vt 0.689082 1.756993
vt 0.686413 1.767044
vt 0.686413 1.767044
vt 0.623138 1.752603
vt 0.625807 1.742552
vt 0.750409 1.515675
vt 0.689081 1.515675
vt 0.686438 1.505761
vt 0.686438 1.505761
vt 0.750409 1.505463
vt 0.750409 1.515675
vt 0.689081 1.515675
vt 0.625807 1.530332
vt 0.623085 1.520123
vt 0.623085 1.520123
vt 0.686438 1.505761
vt 0.689081 1.515675
vt 0.686413 1.767044
vt 0.689082 1.756993
vt 0.696956 1.764121
vt 0.750409 1.755608
vt 0.767121 1.519410
vt 0.767121 1.744652
vt 0.767121 1.519410
vt 0.750409 1.755608
vt 0.756768 1.512623
vt 0.756768 1.512623
vt 0.750409 1.755608
vt 0.750409 1.515675
vt 0.754415 1.767345
vt 0.742743 1.764313
vt 0.750409 1.755608
vt 0.774787 1.754703
vt 0.758075 1.765659
vt 0.750409 1.755608
vt 0.750409 1.755608
vt 0.767121 1.744652
vt 0.774787 1.754703
vt 0.320125 1.257355
vt 0.523840 1.326893
vt 0.508365 1.353057
vt 0.523840 1.326893
vt 0.320125 1.257355
vt 0.335600 1.231191
vt 0.255942 1.171343
vt 0.335600 1.231191
vt 0.320125 1.257355
vt 0.335600 1.231191
vt 0.255942 1.171343
vt 0.287824 1.167256
vt 0.256668 1.135305
vt 0.287824 1.167256
vt 0.255942 1.171343
vt 0.287824 1.167256
vt 0.256668 1.135305
vt 0.288363 1.140492
vt 0.269293 1.101215
vt 0.288363 1.140492
vt 0.256668 1.135305
vt 0.288363 1.140492
vt 0.269293 1.101215
vt 0.297739 1.115174
vt 0.316564 1.013532
vt 0.297739 1.115174
vt 0.269293 1.101215
vt 0.297739 1.115174
vt 0.316564 1.013532
vt 0.345010 1.027491
vt 0.223394 1.123169
vt 0.240875 1.168226
vt 0.209930 1.160022
vt 0.240875 1.168226
vt 0.223394 1.123169
vt 0.253347 1.134087
vt 0.240608 1.087683
vt 0.253347 1.134087
vt 0.223394 1.123169
vt 0.253347 1.134087
vt 0.240608 1.087683
vt 0.269293 1.101215
vt 0.287879 1.000000
vt 0.269293 1.101215
vt 0.240608 1.087683
vt 0.269293 1.101215
vt 0.287879 1.000000
vt 0.316564 1.013532
vt 0.193089 1.271811
vt 0.225274 1.470850
vt 0.193089 1.470850
vt 0.225274 1.470850
vt 0.193089 1.271811
vt 0.225274 1.271811
vt 0.209930 1.160022
vt 0.225274 1.271811
vt 0.193089 1.271811
vt 0.225274 1.271811
vt 0.209930 1.160022
vt 0.240875 1.168226
vt 0.277737 1.244223
vt 0.329491 1.439682
vt 0.297442 1.442421
vt 0.329491 1.439682
vt 0.277737 1.244223
vt 0.309787 1.241484
vt 0.281649 1.166527
vt 0.309787 1.241484
vt 0.277737 1.244223
vt 0.309787 1.241484
vt 0.281649 1.166527
vt 0.313275 1.172064
vt 0.288363 1.140492
vt 0.313275 1.172064
vt 0.281649 1.166527
vt 0.313275 1.172064
vt 0.288363 1.140492
vt 0.319270 1.148816
vt 0.297739 1.115174
vt 0.319270 1.148816
vt 0.288363 1.140492
vt 0.319270 1.148816
vt 0.297739 1.115174
vt 0.326424 1.128707
vt 0.345010 1.027491
vt 0.326424 1.128707
vt 0.297739 1.115174
vt 0.326424 1.128707
vt 0.345010 1.027491
vt 0.373695 1.041024
vt 0.220923 1.182115
vt 0.003917 1.187505
vt 0.007834 1.157887
vt 0.003917 1.187505
vt 0.220923 1.182115
vt 0.217006 1.211732
vt 0.293595 1.165078
vt 0.217006 1.211732
vt 0.220923 1.182115
vt 0.217006 1.211732
vt 0.293595 1.165078
vt 0.312345 1.189331
vt 0.312496 1.148821
vt 0.312345 1.189331
vt 0.293595 1.165078
vt 0.312345 1.189331
vt 0.312496 1.148821
vt 0.337179 1.167971
vt 0.326424 1.128707
vt 0.337179 1.167971
vt 0.312496 1.148821
vt 0.337179 1.167971
vt 0.326424 1.128707
vt 0.355479 1.141542
vt 0.373695 1.041024
vt 0.355479 1.141542
vt 0.326424 1.128707
vt 0.355479 1.141542
vt 0.373695 1.041024
vt 0.402750 1.053859
vt 0.217007 1.211734
vt 0.000000 1.217126
vt 0.003917 1.187508
vt 0.000000 1.217126
vt 0.217007 1.211734
vt 0.213089 1.241351
vt 0.312346 1.189332
vt 0.213089 1.241351
vt 0.217007 1.211734
vt 0.213089 1.241351
vt 0.312346 1.189332
vt 0.331096 1.213584
vt 0.337179 1.167971
vt 0.331096 1.213584
vt 0.312346 1.189332
vt 0.331096 1.213584
vt 0.337179 1.167971
vt 0.361862 1.187120
vt 0.355479 1.141542
vt 0.361862 1.187120
vt 0.337179 1.167971
vt 0.361862 1.187120
vt 0.355479 1.141542
vt 0.384535 1.154377
vt 0.402750 1.053859
vt 0.384535 1.154377
vt 0.355479 1.141542
vt 0.384535 1.154377
vt 0.402750 1.053859
vt 0.431805 1.066695
vt 0.921962 1.767406
vt 0.856742 1.767559
vt 0.856742 1.757042
vt 0.856742 1.757042
vt 0.921962 1.757194
vt 0.921962 1.767406
vt 0.983289 1.767405
vt 0.921962 1.767406
vt 0.921962 1.757194
vt 0.921962 1.757194
vt 0.983289 1.757193
vt 0.983289 1.767405
vt 0.921961 1.515663
vt 0.856742 1.515814
vt 0.856742 1.505463
vt 0.856742 1.505463
vt 0.921960 1.505612
vt 0.921961 1.515663
vt 0.983288 1.515663
vt 0.921961 1.515663
vt 0.921960 1.505612
vt 0.921960 1.505612
vt 0.983288 1.505612
vt 0.983288 1.515663
vt 1.000000 1.519511
vt 0.983289 1.757193
vt 0.989547 1.512659
vt 0.983289 1.757193
vt 1.000000 1.519511
vt 0.989648 1.760245
vt 0.989648 1.760245
vt 1.000000 1.519511
vt 1.000000 1.753458
vt 0.989547 1.512659
vt 0.983289 1.757193
vt 0.983288 1.515663
vt 0.983288 1.505612
vt 0.987792 1.510637
vt 0.983288 1.515663
vt 0.983289 1.767405
vt 0.983289 1.757193
vt 0.987866 1.762299
vt 0.861319 1.866508
vt 0.861319 1.876720
vt 0.856742 1.871614
# 301 texture vertices

g Material_40
f 1/1 2/2 3/3
f 1/1 4/4 2/2
f 1/1 5/5 4/4
f 6/6 7/7 8/8
f 8/8 7/7 9/9
f 7/7 6/6 10/10
f 11/11 10/10 6/6
f 10/10 11/11 12/12
f 12/12 11/11 13/13
f 14/14 15/15 16/16
f 15/15 14/14 17/17
f 16/16 15/15 18/18
f 19/19 20/20 21/21
f 20/20 19/19 22/22
f 23/23 22/22 19/19
f 24/24 22/22 23/23
f 25/25 22/22 24/24
f 22/22 25/25 26/26
f 27/27 28/28 29/29
f 28/28 27/27 30/30
f 31/31 30/30 27/27
f 30/30 31/31 32/32
f 32/32 31/31 33/33
f 33/33 31/31 34/34
f 35/35 36/36 37/37
f 36/36 35/35 38/38
f 39/39 38/38 35/35
f 38/38 39/39 40/40
f 41/41 42/42 43/43
f 42/42 41/41 44/44
f 45/45 44/44 41/41
f 44/44 45/45 46/46
f 47/47 48/48 49/49
f 50/50 51/51 52/52
f 53/53 54/54 55/55
f 56/56 57/57 58/58
f 59/59 60/60 61/61
f 62/62 63/63 64/64
f 65/65 66/66 67/67
f 68/68 69/69 70/70
f 71/71 72/72 73/73
f 74/74 75/75 76/76
f 77/77 78/78 79/79
f 80/80 81/81 82/82
f 83/83 84/84 85/85
f 86/86 87/87 88/88
f 89/89 90/90 91/91
f 92/92 93/93 94/94
f 95/95 96/96 97/97
f 98/98 99/99 100/100
f 101/101 102/102 103/103
f 104/104 105/105 106/106
f 107/107 108/108 109/109
f 110/110 111/111 112/112
f 113/113 114/114 115/115
f 116/116 117/117 118/118
f 119/119 120/120 121/121
f 122/122 123/123 124/124
f 125/125 126/126 127/127
f 128/128 129/129 130/130
f 131/131 132/132 133/133
f 134/134 135/135 136/136
f 137/137 138/138 139/139
f 140/140 141/141 142/142
f 143/143 144/144 145/145
f 146/146 147/147 148/148
f 149/149 150/150 151/151
f 152/152 153/153 154/154
f 155/155 156/156 157/157
f 158/158 159/159 160/160
f 161/161 162/162 163/163
f 164/164 165/165 166/166
f 167/167 168/168 169/169
f 170/170 171/171 172/172
f 173/173 174/174 175/175
f 176/176 177/177 178/178
f 179/179 180/180 181/181
f 182/182 183/183 184/184
f 185/185 186/186 187/187
f 188/188 189/189 190/190
f 191/191 192/192 193/193
f 194/194 195/195 196/196
f 197/197 198/198 199/199
f 200/200 201/201 202/202
f 203/203 204/204 205/205
f 206/206 207/207 208/208
f 209/209 210/210 211/211
f 212/212 213/213 214/214
f 215/215 216/216 217/217
f 218/218 219/219 220/220
f 221/221 222/222 223/223
f 224/224 225/225 226/226
f 227/227 228/228 229/229
f 230/230 231/231 232/232
f 233/233 234/234 235/235
f 236/236 237/237 238/238
f 239/239 240/240 241/241
f 242/242 243/243 244/244
f 245/245 246/246 247/247
f 248/248 249/249 250/250
f 251/251 252/252 253/253
f 254/254 255/255 256/256
f 257/257 258/258 259/259
f 260/260 261/261 262/262
f 263/263 264/264 265/265
f 266/266 267/267 268/268
f 269/269 270/270 271/271
f 272/272 273/273 274/274
f 275/275 276/276 277/277
f 278/278 279/279 280/280
f 281/281 282/282 283/283
f 284/284 285/285 286/286
f 287/287 288/288 289/289
f 290/290 291/291 292/292
f 293/293 294/294 295/295
f 296/296 297/297 298/298
f 299/299 300/300 301/301
# 117 faces

