v 0.000000 0.0129817 0.000000
v -0.486688 0.0129817 -0.842969
v -0.486688 0.0129817 0.842969
v 0.973376 0.0129817 0.000000
v -0.486688 -0.0129817 -0.842969
v 0.000000 -0.0129817 0.000000
v -0.486688 -0.0129817 0.842969
v 0.973376 -0.0129817 0.000000
v -0.486688 0.0129817 -0.842969
v -0.486688 -0.0129817 -0.842969
v -0.486688 -0.0129817 0.842969
v -0.486688 0.0129817 0.842969
v -0.486688 0.0129817 0.842969
v -0.486688 -0.0129817 0.842969
v 0.973376 -0.0129817 0.000000
v 0.973376 0.0129817 0.000000
v 0.973376 0.0129817 0.000000
v 0.973376 -0.0129817 0.000000
v -0.486688 -0.0129817 -0.842969
v -0.486688 0.0129817 -0.842969
# 20 vertices

vt 0.500000 1.666667
vt 0.000000 2.000000
vt 1.000000 2.000000
vt 0.500000 1.000000
vt 1.000000 1.000000
vt 0.500000 1.333333
vt 0.000000 1.000000
vt 0.500000 2.000000
vt 0.000000 1.000000
vt 0.000000 2.000000
vt 0.333333 2.000000
vt 0.333333 1.000000
vt 0.333333 1.000000
vt 0.333333 2.000000
vt 0.666667 2.000000
vt 0.666667 1.000000
vt 0.666667 1.000000
vt 0.666667 2.000000
vt 1.000000 2.000000
vt 1.000000 1.000000
# 20 texture vertices

g Material_4
f 1/1 2/2 3/3
f 1/1 3/3 4/4
f 1/1 4/4 2/2
f 5/5 6/6 7/7
f 7/7 6/6 8/8
f 8/8 6/6 5/5
f 9/9 10/10 11/11
f 9/9 11/11 12/12
f 13/13 14/14 15/15
f 13/13 15/15 16/16
f 17/17 18/18 19/19
f 17/17 19/19 20/20
# 12 faces

