v 0.039370 -0.195281 0.393704
v -0.039370 -0.195281 0.393704
v -0.039370 -0.195281 -0.393697
v 0.039370 -0.195281 -0.393697
v -0.393701 -0.195281 0.039374
v -0.393701 -0.195281 -0.039366
v 0.393701 -0.195281 -0.039366
v 0.393701 -0.195281 0.039374
v -0.039370 -0.136083 0.039373
v -0.039370 -0.136083 -0.039366
v 0.039370 -0.136083 -0.039366
v 0.039370 -0.136083 0.039373
v 0.039370 -0.136083 0.393704
v 0.039370 -0.136083 -0.393697
v -0.039370 -0.136083 -0.393697
v -0.039370 -0.136083 0.393704
v -0.393701 -0.136083 0.039373
v 0.393701 -0.136083 0.039373
v 0.393701 -0.136083 -0.039366
v -0.393701 -0.136083 -0.039366
v -0.039370 0.798813 0.039374
v 0.039370 0.798813 0.039374
v 0.039370 0.798813 -0.039366
v -0.039370 0.798813 -0.039366
v 0.039370 -0.195281 0.393704
v 0.039370 -0.195281 -0.393697
v 0.039370 -0.136083 -0.393697
v 0.039370 -0.136083 0.393704
v -0.393701 -0.195281 0.039374
v 0.393701 -0.195281 0.039374
v 0.393701 -0.136083 0.039373
v -0.393701 -0.136083 0.039373
v -0.039370 -0.136083 0.039373
v 0.039370 -0.136083 0.039373
v 0.039370 0.798813 0.039374
v -0.039370 0.798813 0.039374
v 0.039370 -0.195281 -0.393697
v -0.039370 -0.195281 -0.393697
v -0.039370 -0.136083 -0.393697
v 0.039370 -0.136083 -0.393697
v 0.393701 -0.195281 0.039374
v 0.393701 -0.195281 -0.039366
v 0.393701 -0.136083 -0.039366
v 0.393701 -0.136083 0.039373
v 0.039370 -0.136083 0.039373
v 0.039370 -0.136083 -0.039366
v 0.039370 0.798813 -0.039366
v 0.039370 0.798813 0.039374
v -0.039370 -0.195281 -0.393697
v -0.039370 -0.195281 0.393704
v -0.039370 -0.136083 0.393704
v -0.039370 -0.136083 -0.393697
v 0.393701 -0.195281 -0.039366
v -0.393701 -0.195281 -0.039366
v -0.393701 -0.136083 -0.039366
v 0.393701 -0.136083 -0.039366
v 0.039370 -0.136083 -0.039366
v -0.039370 -0.136083 -0.039366
v -0.039370 0.798813 -0.039366
v 0.039370 0.798813 -0.039366
v -0.039370 -0.195281 0.393704
v 0.039370 -0.195281 0.393704
v 0.039370 -0.136083 0.393704
v -0.039370 -0.136083 0.393704
v -0.393701 -0.195281 -0.039366
v -0.393701 -0.195281 0.039374
v -0.393701 -0.136083 0.039373
v -0.393701 -0.136083 -0.039366
v -0.039370 -0.136083 -0.039366
v -0.039370 -0.136083 0.039373
v -0.039370 0.798813 0.039374
v -0.039370 0.798813 -0.039366
# 72 vertices

vt 0.999501 1.549950
vt 0.999501 1.450050
vt 0.000499 1.450050
vt 0.000499 1.549950
vt 0.549950 1.000499
vt 0.450050 1.000499
vt 0.450050 1.999501
vt 0.549950 1.999501
vt 0.549950 1.450050
vt 0.450050 1.450050
vt 0.450050 1.549950
vt 0.549950 1.549950
vt 0.000500 1.549950
vt 0.999501 1.549950
vt 0.999501 1.450050
vt 0.000500 1.450050
vt 0.450051 1.000499
vt 0.450050 1.999501
vt 0.549950 1.999501
vt 0.549950 1.000499
vt 0.450050 1.450050
vt 0.450050 1.549950
vt 0.549950 1.549950
vt 0.549950 1.450050
vt 0.000499 1.999501
vt 0.999501 1.999501
vt 0.999501 1.940009
vt 0.000500 1.940009
vt 0.000499 1.000499
vt 0.000499 1.999501
vt 0.059991 1.999501
vt 0.059991 1.000499
vt 0.059991 1.450050
vt 0.059991 1.549950
vt 0.999501 1.549950
vt 0.999501 1.450050
vt 0.999501 1.549950
vt 0.999501 1.450050
vt 0.940009 1.450050
vt 0.940009 1.549950
vt 0.450050 1.999501
vt 0.549950 1.999501
vt 0.549950 1.940009
vt 0.450050 1.940009
vt 0.450050 1.940009
vt 0.549950 1.940009
vt 0.549950 1.000499
vt 0.450050 1.000499
vt 0.000499 1.999501
vt 0.999501 1.999501
vt 0.999500 1.940009
vt 0.000499 1.940009
vt 0.999501 1.999501
vt 0.999501 1.000499
vt 0.940009 1.000499
vt 0.940009 1.999501
vt 0.940009 1.549950
vt 0.940009 1.450050
vt 0.000499 1.450050
vt 0.000499 1.549950
vt 0.000499 1.450050
vt 0.000499 1.549950
vt 0.059991 1.549950
vt 0.059991 1.450050
vt 0.450050 1.999501
vt 0.549950 1.999501
vt 0.549949 1.940009
vt 0.450050 1.940009
vt 0.450050 1.940009
vt 0.549950 1.940009
vt 0.549950 1.000499
vt 0.450050 1.000499
# 72 texture vertices

g Material_27
f 1/1 2/2 3/3
f 3/3 4/4 1/1
f 5/5 6/6 7/7
f 7/7 8/8 5/5
f 9/9 10/10 11/11
f 11/11 12/12 9/9
f 13/13 14/14 15/15
f 15/15 16/16 13/13
f 17/17 18/18 19/19
f 19/19 20/20 17/17
f 21/21 22/22 23/23
f 23/23 24/24 21/21
f 25/25 26/26 27/27
f 27/27 28/28 25/25
f 29/29 30/30 31/31
f 31/31 32/32 29/29
f 33/33 34/34 35/35
f 35/35 36/36 33/33
f 37/37 38/38 39/39
f 39/39 40/40 37/37
f 41/41 42/42 43/43
f 43/43 44/44 41/41
f 45/45 46/46 47/47
f 47/47 48/48 45/45
f 49/49 50/50 51/51
f 51/51 52/52 49/49
f 53/53 54/54 55/55
f 55/55 56/56 53/53
f 57/57 58/58 59/59
f 59/59 60/60 57/57
f 61/61 62/62 63/63
f 63/63 64/64 61/61
f 65/65 66/66 67/67
f 67/67 68/68 65/65
f 69/69 70/70 71/71
f 71/71 72/72 69/69
# 36 faces

