v -0.500000 -4.784652 -2.500000
v 0.500000 -4.784652 -2.500000
v 0.500000 -4.784652 2.500000
v -0.500000 -4.784652 2.500000
v -0.500000 4.784651 -2.500000
v -0.500000 4.784651 2.500000
v 0.500000 4.784651 2.500000
v 0.500000 4.784651 -2.500000
v -0.500000 -4.784652 -2.500000
v -0.500000 -4.784652 2.500000
v -0.500000 4.784651 2.500000
v -0.500000 4.784651 -2.500000
v -0.500000 -4.784652 2.500000
v 0.500000 -4.784652 2.500000
v 0.500000 4.784651 2.500000
v -0.500000 4.784651 2.500000
v 0.500000 -4.784652 2.500000
v 0.500000 -4.784652 -2.500000
v 0.500000 4.784651 -2.500000
v 0.500000 4.784651 2.500000
v 0.500000 -4.784652 -2.500000
v -0.500000 -4.784652 -2.500000
v -0.500000 4.784651 -2.500000
v 0.500000 4.784651 -2.500000
# 24 vertices

vn 0.000000 -1.000000 0.000000
vn 0.000000 -1.000000 0.000000
vn 0.000000 -1.000000 0.000000
vn 0.000000 -1.000000 0.000000
vn 0.000000 1.000000 0.000000
vn 0.000000 1.000000 0.000000
vn 0.000000 1.000000 0.000000
vn 0.000000 1.000000 0.000000
vn -1.000000 0.000000 0.000000
vn -1.000000 0.000000 0.000000
vn -1.000000 0.000000 0.000000
vn -1.000000 0.000000 0.000000
vn 0.000000 0.000000 1.000000
vn 0.000000 0.000000 1.000000
vn 0.000000 0.000000 1.000000
vn 0.000000 0.000000 1.000000
vn 1.000000 0.000000 0.000000
vn 1.000000 0.000000 0.000000
vn 1.000000 0.000000 0.000000
vn 1.000000 0.000000 0.000000
vn 0.000000 0.000000 -1.000000
vn 0.000000 0.000000 -1.000000
vn 0.000000 0.000000 -1.000000
vn 0.000000 0.000000 -1.000000
# 24 vertex normals

g Material_0
f 1/1/1 2/2/2 3/3/3
f 3/3/3 4/4/4 1/1/1
f 5/5/5 6/6/6 7/7/7
f 7/7/7 8/8/8 5/5/5
f 9/9/9 10/10/10 11/11/11
f 11/11/11 12/12/12 9/9/9
f 13/13/13 14/14/14 15/15/15
f 15/15/15 16/16/16 13/13/13
f 17/17/17 18/18/18 19/19/19
f 19/19/19 20/20/20 17/17/17
f 21/21/21 22/22/22 23/23/23
f 23/23/23 24/24/24 21/21/21
# 12 faces

