v -0.000000 -0.246782 -0.000000
v 0.195035 -0.246782 0.535855
v -0.000000 -0.246782 0.570245
v 0.366547 -0.246782 0.436833
v 0.493847 -0.246782 0.285123
v 0.561582 -0.246782 0.099022
v 0.561582 -0.246782 -0.099022
v 0.493847 -0.246782 -0.285123
v 0.366547 -0.246782 -0.436833
v 0.195035 -0.246782 -0.535856
v -0.000000 -0.246782 -0.570246
v -0.195036 -0.246782 -0.535855
v -0.366547 -0.246782 -0.436833
v -0.493847 -0.246782 -0.285123
v -0.561582 -0.246782 -0.099022
v -0.561582 -0.246782 0.099022
v -0.493847 -0.246782 0.285123
v -0.366547 -0.246782 0.436833
v -0.195035 -0.246782 0.535855
v -0.000000 0.246782 -0.000000
v -0.000000 0.246782 0.570245
v 0.195035 0.246782 0.535855
v 0.366547 0.246782 0.436833
v 0.493847 0.246782 0.285123
v 0.561582 0.246782 0.099022
v 0.561582 0.246782 -0.099022
v 0.493847 0.246782 -0.285123
v 0.366547 0.246782 -0.436833
v 0.195035 0.246782 -0.535856
v -0.000000 0.246782 -0.570246
v -0.195036 0.246782 -0.535855
v -0.366547 0.246782 -0.436833
v -0.493847 0.246782 -0.285123
v -0.561582 0.246782 -0.099022
v -0.561582 0.246782 0.099022
v -0.493847 0.246782 0.285123
v -0.366547 0.246782 0.436833
v -0.195035 0.246782 0.535855
v -0.000000 -0.246782 0.570245
v 0.195035 -0.148069 0.535855
v -0.000000 -0.148069 0.570245
v 0.195035 -0.246782 0.535855
v 0.366547 -0.148069 0.436833
v 0.366547 -0.246782 0.436833
v 0.493847 -0.148069 0.285123
v 0.493847 -0.246782 0.285123
v 0.561582 -0.148069 0.099022
v 0.561582 -0.246782 0.099022
v 0.561582 -0.148069 -0.099022
v 0.561582 -0.246782 -0.099022
v 0.493847 -0.148069 -0.285123
v 0.493847 -0.246782 -0.285123
v 0.366547 -0.148069 -0.436833
v 0.366547 -0.246782 -0.436833
v 0.195035 -0.148069 -0.535856
v 0.195035 -0.246782 -0.535856
v -0.000000 -0.148069 -0.570246
v -0.000000 -0.246782 -0.570246
v -0.195036 -0.148069 -0.535855
v -0.195036 -0.246782 -0.535855
v -0.366547 -0.148069 -0.436833
v -0.366547 -0.246782 -0.436833
v -0.493847 -0.148069 -0.285123
v -0.493847 -0.246782 -0.285123
v -0.561582 -0.148069 -0.099022
v -0.561582 -0.246782 -0.099022
v -0.561582 -0.148069 0.099022
v -0.561582 -0.246782 0.099022
v -0.493847 -0.148069 0.285123
v -0.493847 -0.246782 0.285123
v -0.366547 -0.148069 0.436833
v -0.366547 -0.246782 0.436833
v -0.195035 -0.148069 0.535855
v -0.195035 -0.246782 0.535855
v 0.195035 -0.049356 0.535855
v -0.000000 -0.049356 0.570245
v 0.366547 -0.049356 0.436833
v 0.493847 -0.049356 0.285123
v 0.561582 -0.049356 0.099022
v 0.561582 -0.049356 -0.099022
v 0.493847 -0.049356 -0.285123
v 0.366547 -0.049356 -0.436833
v 0.195035 -0.049356 -0.535856
v -0.000000 -0.049356 -0.570246
v -0.195036 -0.049356 -0.535855
v -0.366547 -0.049356 -0.436833
v -0.493847 -0.049356 -0.285123
v -0.561582 -0.049356 -0.099022
v -0.561582 -0.049356 0.099022
v -0.493847 -0.049356 0.285123
v -0.366547 -0.049356 0.436833
v -0.195035 -0.049356 0.535855
v 0.195035 0.049356 0.535855
v -0.000000 0.049356 0.570245
v 0.366547 0.049356 0.436833
v 0.493847 0.049356 0.285123
v 0.561582 0.049356 0.099022
v 0.561582 0.049356 -0.099022
v 0.493847 0.049356 -0.285123
v 0.366547 0.049356 -0.436833
v 0.195035 0.049356 -0.535856
v -0.000000 0.049356 -0.570246
v -0.195036 0.049356 -0.535855
v -0.366547 0.049356 -0.436833
v -0.493847 0.049356 -0.285123
v -0.561582 0.049356 -0.099022
v -0.561582 0.049356 0.099022
v -0.493847 0.049356 0.285123
v -0.366547 0.049356 0.436833
v -0.195035 0.049356 0.535855
v 0.195035 0.148069 0.535855
v -0.000000 0.148069 0.570245
v 0.366547 0.148069 0.436833
v 0.493847 0.148069 0.285123
v 0.561582 0.148069 0.099022
v 0.561582 0.148069 -0.099022
v 0.493847 0.148069 -0.285123
v 0.366547 0.148069 -0.436833
v 0.195035 0.148069 -0.535856
v -0.000000 0.148069 -0.570246
v -0.195036 0.148069 -0.535855
v -0.366547 0.148069 -0.436833
v -0.493847 0.148069 -0.285123
v -0.561582 0.148069 -0.099022
v -0.561582 0.148069 0.099022
v -0.493847 0.148069 0.285123
v -0.366547 0.148069 0.436833
v -0.195035 0.148069 0.535855
v 0.195035 0.246782 0.535855
v -0.000000 0.246782 0.570245
v 0.366547 0.246782 0.436833
v 0.493847 0.246782 0.285123
v 0.561582 0.246782 0.099022
v 0.561582 0.246782 -0.099022
v 0.493847 0.246782 -0.285123
v 0.366547 0.246782 -0.436833
v 0.195035 0.246782 -0.535856
v -0.000000 0.246782 -0.570246
v -0.195036 0.246782 -0.535855
v -0.366547 0.246782 -0.436833
v -0.493847 0.246782 -0.285123
v -0.561582 0.246782 -0.099022
v -0.561582 0.246782 0.099022
v -0.493847 0.246782 0.285123
v -0.366547 0.246782 0.436833
v -0.195035 0.246782 0.535855
# 146 vertices

vn 0.000000 -1.000000 0.000000
vn 0.000000 -1.000000 0.000000
vn 0.000000 -1.000000 0.000000
vn 0.000000 -1.000000 0.000000
vn 0.000000 -1.000000 0.000000
vn 0.000000 -1.000000 0.000000
vn 0.000000 -1.000000 0.000000
vn 0.000000 -1.000000 0.000000
vn 0.000000 -1.000000 0.000000
vn 0.000000 -1.000000 0.000000
vn 0.000000 -1.000000 0.000000
vn 0.000000 -1.000000 0.000000
vn 0.000000 -1.000000 0.000000
vn 0.000000 -1.000000 0.000000
vn 0.000000 -1.000000 0.000000
vn 0.000000 -1.000000 0.000000
vn 0.000000 -1.000000 0.000000
vn 0.000000 -1.000000 0.000000
vn 0.000000 -1.000000 0.000000
vn 0.000000 1.000000 0.000000
vn 0.000000 1.000000 0.000000
vn 0.000000 1.000000 0.000000
vn 0.000000 1.000000 0.000000
vn 0.000000 1.000000 0.000000
vn 0.000000 1.000000 0.000000
vn 0.000000 1.000000 0.000000
vn 0.000000 1.000000 0.000000
vn 0.000000 1.000000 0.000000
vn 0.000000 1.000000 0.000000
vn 0.000000 1.000000 0.000000
vn 0.000000 1.000000 0.000000
vn 0.000000 1.000000 0.000000
vn 0.000000 1.000000 0.000000
vn 0.000000 1.000000 0.000000
vn 0.000000 1.000000 0.000000
vn 0.000000 1.000000 0.000000
vn 0.000000 1.000000 0.000000
vn 0.000000 1.000000 0.000000
vn 0.058674 0.000000 0.998277
vn 0.342020 0.000000 0.939693
vn 0.000000 0.000000 1.000000
vn 0.396567 0.000000 0.918006
vn 0.642788 0.000000 0.766044
vn 0.686627 0.000000 0.727010
vn 0.866025 0.000000 0.500000
vn 0.893871 0.000000 0.448325
vn 0.984808 0.000000 0.173648
vn 0.993300 0.000000 0.115566
vn 0.984808 0.000000 -0.173648
vn 0.972922 0.000000 -0.231132
vn 0.866025 0.000000 -0.500000
vn 0.835196 0.000000 -0.549952
vn 0.642787 0.000000 -0.766045
vn 0.596733 0.000000 -0.802440
vn 0.342020 0.000000 -0.939693
vn 0.286295 0.000000 -0.958142
vn -0.000000 0.000000 -1.000000
vn -0.058675 0.000000 -0.998277
vn -0.342020 0.000000 -0.939693
vn -0.396567 0.000000 -0.918006
vn -0.642788 0.000000 -0.766044
vn -0.686628 0.000000 -0.727009
vn -0.866026 0.000000 -0.500000
vn -0.893871 0.000000 -0.448325
vn -0.984808 0.000000 -0.173648
vn -0.993300 0.000000 -0.115566
vn -0.984808 0.000000 0.173649
vn -0.972922 0.000000 0.231132
vn -0.866025 0.000000 0.500000
vn -0.835196 0.000000 0.549952
vn -0.642787 0.000000 0.766045
vn -0.596733 0.000000 0.802440
vn -0.342020 0.000000 0.939693
vn -0.286295 0.000000 0.958142
vn 0.342020 0.000000 0.939693
vn 0.000000 0.000000 1.000000
vn 0.642788 0.000000 0.766044
vn 0.866025 0.000000 0.500000
vn 0.984808 0.000000 0.173648
vn 0.984808 0.000000 -0.173648
vn 0.866025 0.000000 -0.500000
vn 0.642787 0.000000 -0.766045
vn 0.342020 0.000000 -0.939693
vn -0.000000 0.000000 -1.000000
vn -0.342020 0.000000 -0.939693
vn -0.642788 0.000000 -0.766044
vn -0.866026 0.000000 -0.500000
vn -0.984808 0.000000 -0.173648
vn -0.984808 0.000000 0.173649
vn -0.866025 0.000000 0.500000
vn -0.642787 0.000000 0.766045
vn -0.342020 0.000000 0.939693
vn 0.342020 0.000000 0.939693
vn 0.000000 0.000000 1.000000
vn 0.642788 0.000000 0.766044
vn 0.866025 0.000000 0.500000
vn 0.984808 0.000000 0.173648
vn 0.984808 0.000000 -0.173648
vn 0.866025 0.000000 -0.500000
vn 0.642787 0.000000 -0.766045
vn 0.342020 0.000000 -0.939693
vn -0.000000 0.000000 -1.000000
vn -0.342020 0.000000 -0.939693
vn -0.642788 0.000000 -0.766044
vn -0.866026 0.000000 -0.500000
vn -0.984808 0.000000 -0.173648
vn -0.984808 0.000000 0.173649
vn -0.866025 0.000000 0.500000
vn -0.642787 0.000000 0.766045
vn -0.342020 0.000000 0.939693
vn 0.342020 0.000000 0.939693
vn 0.000000 0.000000 1.000000
vn 0.642788 0.000000 0.766044
vn 0.866025 0.000000 0.500000
vn 0.984808 0.000000 0.173648
vn 0.984808 0.000000 -0.173648
vn 0.866025 0.000000 -0.500000
vn 0.642787 0.000000 -0.766045
vn 0.342020 0.000000 -0.939693
vn -0.000000 0.000000 -1.000000
vn -0.342020 0.000000 -0.939693
vn -0.642788 0.000000 -0.766044
vn -0.866026 0.000000 -0.500000
vn -0.984808 0.000000 -0.173648
vn -0.984808 0.000000 0.173649
vn -0.866025 0.000000 0.500000
vn -0.642787 0.000000 0.766045
vn -0.342020 0.000000 0.939693
vn 0.286295 0.000000 0.958142
vn -0.058674 0.000000 0.998277
vn 0.596733 0.000000 0.802440
vn 0.835196 0.000000 0.549952
vn 0.972922 0.000000 0.231132
vn 0.993300 0.000000 -0.115566
vn 0.893871 0.000000 -0.448325
vn 0.686627 0.000000 -0.727010
vn 0.396567 0.000000 -0.918006
vn 0.058674 0.000000 -0.998277
vn -0.286295 0.000000 -0.958142
vn -0.596733 0.000000 -0.802440
vn -0.835196 0.000000 -0.549952
vn -0.972922 0.000000 -0.231132
vn -0.993300 0.000000 0.115566
vn -0.893870 0.000000 0.448325
vn -0.686627 0.000000 0.727010
vn -0.396567 0.000000 0.918006
# 146 vertex normals

g Material_1
f 1/1/1 2/2/2 3/3/3
f 1/1/1 4/4/4 2/2/2
f 1/1/1 5/5/5 4/4/4
f 1/1/1 6/6/6 5/5/5
f 1/1/1 7/7/7 6/6/6
f 1/1/1 8/8/8 7/7/7
f 1/1/1 9/9/9 8/8/8
f 1/1/1 10/10/10 9/9/9
f 1/1/1 11/11/11 10/10/10
f 1/1/1 12/12/12 11/11/11
f 1/1/1 13/13/13 12/12/12
f 1/1/1 14/14/14 13/13/13
f 1/1/1 15/15/15 14/14/14
f 1/1/1 16/16/16 15/15/15
f 1/1/1 17/17/17 16/16/16
f 1/1/1 18/18/18 17/17/17
f 1/1/1 19/19/19 18/18/18
f 1/1/1 3/3/3 19/19/19
f 20/20/20 21/21/21 22/22/22
f 20/20/20 22/22/22 23/23/23
f 20/20/20 23/23/23 24/24/24
f 20/20/20 24/24/24 25/25/25
f 20/20/20 25/25/25 26/26/26
f 20/20/20 26/26/26 27/27/27
f 20/20/20 27/27/27 28/28/28
f 20/20/20 28/28/28 29/29/29
f 20/20/20 29/29/29 30/30/30
f 20/20/20 30/30/30 31/31/31
f 20/20/20 31/31/31 32/32/32
f 20/20/20 32/32/32 33/33/33
f 20/20/20 33/33/33 34/34/34
f 20/20/20 34/34/34 35/35/35
f 20/20/20 35/35/35 36/36/36
f 20/20/20 36/36/36 37/37/37
f 20/20/20 37/37/37 38/38/38
f 20/20/20 38/38/38 21/21/21
f 39/39/39 40/40/40 41/41/41
f 39/39/39 42/42/42 40/40/40
f 42/42/42 43/43/43 40/40/40
f 42/42/42 44/44/44 43/43/43
f 44/44/44 45/45/45 43/43/43
f 44/44/44 46/46/46 45/45/45
f 46/46/46 47/47/47 45/45/45
f 46/46/46 48/48/48 47/47/47
f 48/48/48 49/49/49 47/47/47
f 48/48/48 50/50/50 49/49/49
f 50/50/50 51/51/51 49/49/49
f 50/50/50 52/52/52 51/51/51
f 52/52/52 53/53/53 51/51/51
f 52/52/52 54/54/54 53/53/53
f 54/54/54 55/55/55 53/53/53
f 54/54/54 56/56/56 55/55/55
f 56/56/56 57/57/57 55/55/55
f 56/56/56 58/58/58 57/57/57
f 58/58/58 59/59/59 57/57/57
f 58/58/58 60/60/60 59/59/59
f 60/60/60 61/61/61 59/59/59
f 60/60/60 62/62/62 61/61/61
f 62/62/62 63/63/63 61/61/61
f 62/62/62 64/64/64 63/63/63
f 64/64/64 65/65/65 63/63/63
f 64/64/64 66/66/66 65/65/65
f 66/66/66 67/67/67 65/65/65
f 66/66/66 68/68/68 67/67/67
f 68/68/68 69/69/69 67/67/67
f 68/68/68 70/70/70 69/69/69
f 70/70/70 71/71/71 69/69/69
f 70/70/70 72/72/72 71/71/71
f 72/72/72 73/73/73 71/71/71
f 72/72/72 74/74/74 73/73/73
f 74/74/74 41/41/41 73/73/73
f 74/74/74 39/39/39 41/41/41
f 41/41/41 75/75/75 76/76/76
f 41/41/41 40/40/40 75/75/75
f 40/40/40 77/77/77 75/75/75
f 40/40/40 43/43/43 77/77/77
f 43/43/43 78/78/78 77/77/77
f 43/43/43 45/45/45 78/78/78
f 45/45/45 79/79/79 78/78/78
f 45/45/45 47/47/47 79/79/79
f 47/47/47 80/80/80 79/79/79
f 47/47/47 49/49/49 80/80/80
f 49/49/49 81/81/81 80/80/80
f 49/49/49 51/51/51 81/81/81
f 51/51/51 82/82/82 81/81/81
f 51/51/51 53/53/53 82/82/82
f 53/53/53 83/83/83 82/82/82
f 53/53/53 55/55/55 83/83/83
f 55/55/55 84/84/84 83/83/83
f 55/55/55 57/57/57 84/84/84
f 57/57/57 85/85/85 84/84/84
f 57/57/57 59/59/59 85/85/85
f 59/59/59 86/86/86 85/85/85
f 59/59/59 61/61/61 86/86/86
f 61/61/61 87/87/87 86/86/86
f 61/61/61 63/63/63 87/87/87
f 63/63/63 88/88/88 87/87/87
f 63/63/63 65/65/65 88/88/88
f 65/65/65 89/89/89 88/88/88
f 65/65/65 67/67/67 89/89/89
f 67/67/67 90/90/90 89/89/89
f 67/67/67 69/69/69 90/90/90
f 69/69/69 91/91/91 90/90/90
f 69/69/69 71/71/71 91/91/91
f 71/71/71 92/92/92 91/91/91
f 71/71/71 73/73/73 92/92/92
f 73/73/73 76/76/76 92/92/92
f 73/73/73 41/41/41 76/76/76
f 76/76/76 93/93/93 94/94/94
f 76/76/76 75/75/75 93/93/93
f 75/75/75 95/95/95 93/93/93
f 75/75/75 77/77/77 95/95/95
f 77/77/77 96/96/96 95/95/95
f 77/77/77 78/78/78 96/96/96
f 78/78/78 97/97/97 96/96/96
f 78/78/78 79/79/79 97/97/97
f 79/79/79 98/98/98 97/97/97
f 79/79/79 80/80/80 98/98/98
f 80/80/80 99/99/99 98/98/98
f 80/80/80 81/81/81 99/99/99
f 81/81/81 100/100/100 99/99/99
f 81/81/81 82/82/82 100/100/100
f 82/82/82 101/101/101 100/100/100
f 82/82/82 83/83/83 101/101/101
f 83/83/83 102/102/102 101/101/101
f 83/83/83 84/84/84 102/102/102
f 84/84/84 103/103/103 102/102/102
f 84/84/84 85/85/85 103/103/103
f 85/85/85 104/104/104 103/103/103
f 85/85/85 86/86/86 104/104/104
f 86/86/86 105/105/105 104/104/104
f 86/86/86 87/87/87 105/105/105
f 87/87/87 106/106/106 105/105/105
f 87/87/87 88/88/88 106/106/106
f 88/88/88 107/107/107 106/106/106
f 88/88/88 89/89/89 107/107/107
f 89/89/89 108/108/108 107/107/107
f 89/89/89 90/90/90 108/108/108
f 90/90/90 109/109/109 108/108/108
f 90/90/90 91/91/91 109/109/109
f 91/91/91 110/110/110 109/109/109
f 91/91/91 92/92/92 110/110/110
f 92/92/92 94/94/94 110/110/110
f 92/92/92 76/76/76 94/94/94
f 94/94/94 111/111/111 112/112/112
f 94/94/94 93/93/93 111/111/111
f 93/93/93 113/113/113 111/111/111
f 93/93/93 95/95/95 113/113/113
f 95/95/95 114/114/114 113/113/113
f 95/95/95 96/96/96 114/114/114
f 96/96/96 115/115/115 114/114/114
f 96/96/96 97/97/97 115/115/115
f 97/97/97 116/116/116 115/115/115
f 97/97/97 98/98/98 116/116/116
f 98/98/98 117/117/117 116/116/116
f 98/98/98 99/99/99 117/117/117
f 99/99/99 118/118/118 117/117/117
f 99/99/99 100/100/100 118/118/118
f 100/100/100 119/119/119 118/118/118
f 100/100/100 101/101/101 119/119/119
f 101/101/101 120/120/120 119/119/119
f 101/101/101 102/102/102 120/120/120
f 102/102/102 121/121/121 120/120/120
f 102/102/102 103/103/103 121/121/121
f 103/103/103 122/122/122 121/121/121
f 103/103/103 104/104/104 122/122/122
f 104/104/104 123/123/123 122/122/122
f 104/104/104 105/105/105 123/123/123
f 105/105/105 124/124/124 123/123/123
f 105/105/105 106/106/106 124/124/124
f 106/106/106 125/125/125 124/124/124
f 106/106/106 107/107/107 125/125/125
f 107/107/107 126/126/126 125/125/125
f 107/107/107 108/108/108 126/126/126
f 108/108/108 127/127/127 126/126/126
f 108/108/108 109/109/109 127/127/127
f 109/109/109 128/128/128 127/127/127
f 109/109/109 110/110/110 128/128/128
f 110/110/110 112/112/112 128/128/128
f 110/110/110 94/94/94 112/112/112
f 112/112/112 129/129/129 130/130/130
f 112/112/112 111/111/111 129/129/129
f 111/111/111 131/131/131 129/129/129
f 111/111/111 113/113/113 131/131/131
f 113/113/113 132/132/132 131/131/131
f 113/113/113 114/114/114 132/132/132
f 114/114/114 133/133/133 132/132/132
f 114/114/114 115/115/115 133/133/133
f 115/115/115 134/134/134 133/133/133
f 115/115/115 116/116/116 134/134/134
f 116/116/116 135/135/135 134/134/134
f 116/116/116 117/117/117 135/135/135
f 117/117/117 136/136/136 135/135/135
f 117/117/117 118/118/118 136/136/136
f 118/118/118 137/137/137 136/136/136
f 118/118/118 119/119/119 137/137/137
f 119/119/119 138/138/138 137/137/137
f 119/119/119 120/120/120 138/138/138
f 120/120/120 139/139/139 138/138/138
f 120/120/120 121/121/121 139/139/139
f 121/121/121 140/140/140 139/139/139
f 121/121/121 122/122/122 140/140/140
f 122/122/122 141/141/141 140/140/140
f 122/122/122 123/123/123 141/141/141
f 123/123/123 142/142/142 141/141/141
f 123/123/123 124/124/124 142/142/142
f 124/124/124 143/143/143 142/142/142
f 124/124/124 125/125/125 143/143/143
f 125/125/125 144/144/144 143/143/143
f 125/125/125 126/126/126 144/144/144
f 126/126/126 145/145/145 144/144/144
f 126/126/126 127/127/127 145/145/145
f 127/127/127 146/146/146 145/145/145
f 127/127/127 128/128/128 146/146/146
f 128/128/128 130/130/130 146/146/146
f 128/128/128 112/112/112 130/130/130
# 216 faces

