v -0.000000 0.242865 -0.000000
v -0.000000 0.233621 0.049184
v 0.098603 0.233621 0.015199
v -0.000000 0.206594 0.094623
v 0.099731 0.217225 0.065119
v 0.189700 0.206594 0.029240
v -0.000000 0.163839 0.132860
v 0.100418 0.179817 0.111206
v 0.191914 0.179817 0.079670
v 0.266356 0.163839 0.041056
v -0.000000 0.108613 0.160983
v 0.098603 0.122822 0.148058
v 0.189700 0.127682 0.123863
v 0.266356 0.122822 0.090239
v 0.322737 0.108613 0.049746
v 0.060940 0.233621 -0.039790
v 0.161368 0.217225 -0.024873
v 0.117241 0.206594 -0.076552
v 0.253975 0.179817 -0.010942
v 0.219027 0.179817 -0.061967
v 0.164617 0.163839 -0.107486
v 0.327296 0.122822 0.001266
v 0.306941 0.127682 -0.047312
v 0.263220 0.122822 -0.092287
v 0.199462 0.108613 -0.130238
v -0.060940 0.233621 -0.039790
v -0.000000 0.217225 -0.080491
v -0.117241 0.206594 -0.076552
v 0.056547 0.179817 -0.117968
v -0.056547 0.179817 -0.117968
v -0.164617 0.163839 -0.107486
v 0.103677 0.122822 -0.147276
v -0.000000 0.127682 -0.153103
v -0.103677 0.122822 -0.147276
v -0.199462 0.108613 -0.130238
v -0.098603 0.233621 0.015199
v -0.161368 0.217225 -0.024873
v -0.189700 0.206594 0.029240
v -0.219027 0.179817 -0.061967
v -0.253975 0.179817 -0.010941
v -0.266356 0.163839 0.041056
v -0.263220 0.122822 -0.092287
v -0.306941 0.127682 -0.047312
v -0.327296 0.122822 0.001266
v -0.322737 0.108613 0.049746
v -0.099731 0.217225 0.065119
v -0.191914 0.179817 0.079670
v -0.100418 0.179817 0.111206
v -0.266356 0.122822 0.090239
v -0.189700 0.127682 0.123863
v -0.098603 0.122822 0.148058
v -0.060940 0.056455 0.172650
v 0.060940 0.056455 0.172650
v -0.117241 0.000000 0.171175
v 0.000000 0.000000 0.179984
v 0.117241 0.000000 0.171175
v -0.164617 -0.056455 0.156669
v -0.056547 -0.061961 0.171948
v 0.056547 -0.061961 0.171948
v 0.164617 -0.056455 0.156669
v -0.199462 -0.108613 0.130238
v -0.103677 -0.122822 0.147276
v 0.000000 -0.127682 0.153103
v 0.103677 -0.122822 0.147276
v 0.199462 -0.108613 0.130238
v 0.327296 0.056455 0.080846
v 0.364959 0.056455 0.025857
v 0.306941 0.000000 0.105792
v 0.360831 0.000000 0.055618
v 0.379400 0.000000 -0.000000
v 0.263220 -0.056455 0.122684
v 0.327246 -0.061961 0.078647
v 0.362194 -0.061961 0.027622
v 0.364959 -0.056455 -0.025857
v 0.263220 -0.122822 0.092287
v 0.306941 -0.127682 0.047312
v 0.327296 -0.122822 -0.001266
v 0.322737 -0.108613 -0.049746
v 0.263220 0.056455 -0.122684
v 0.164617 0.056455 -0.156669
v 0.306941 0.000000 -0.105792
v 0.223006 0.000000 -0.145610
v 0.117241 0.000000 -0.171175
v 0.327296 -0.056455 -0.080846
v 0.258797 -0.061961 -0.123341
v 0.167301 -0.061961 -0.154877
v 0.060940 -0.056455 -0.172650
v 0.266356 -0.122822 -0.090239
v 0.189700 -0.127682 -0.123863
v 0.098603 -0.122822 -0.148058
v -0.000000 -0.108613 -0.160983
v -0.164617 0.056455 -0.156669
v -0.263220 0.056455 -0.122684
v -0.117241 0.000000 -0.171175
v -0.223006 0.000000 -0.145610
v -0.306941 0.000000 -0.105792
v -0.060940 -0.056455 -0.172650
v -0.167301 -0.061961 -0.154877
v -0.258797 -0.061961 -0.123341
v -0.327296 -0.056455 -0.080846
v -0.098603 -0.122822 -0.148058
v -0.189700 -0.127682 -0.123863
v -0.266356 -0.122822 -0.090239
v -0.322737 -0.108613 -0.049746
v -0.364959 0.056455 0.025857
v -0.327296 0.056455 0.080846
v -0.379400 0.000000 0.000000
v -0.360831 0.000000 0.055618
v -0.306941 0.000000 0.105792
v -0.364959 -0.056455 -0.025857
v -0.362194 -0.061961 0.027622
v -0.327246 -0.061961 0.078647
v -0.263220 -0.056455 0.122684
v -0.327296 -0.122822 -0.001266
v -0.306941 -0.127682 0.047312
v -0.263220 -0.122822 0.092287
v 0.223006 0.000000 0.145610
v 0.258797 0.061961 0.123341
v 0.167301 0.061961 0.154877
v 0.360831 0.000000 -0.055618
v 0.327246 0.061961 -0.078647
v 0.362194 0.061961 -0.027622
v -0.000000 0.000000 -0.179984
v -0.056547 0.061961 -0.171948
v 0.056547 0.061961 -0.171948
v -0.360831 0.000000 -0.055618
v -0.362194 0.061961 -0.027622
v -0.327246 0.061961 -0.078647
v -0.223006 0.000000 0.145610
v -0.167301 0.061961 0.154877
v -0.258796 0.061961 0.123341
v -0.000000 -0.242865 -0.000000
v 0.098603 -0.233621 -0.015199
v 0.060940 -0.233621 0.039790
v 0.189700 -0.206594 -0.029240
v 0.161368 -0.217225 0.024873
v 0.117241 -0.206594 0.076552
v 0.266356 -0.163839 -0.041056
v 0.253975 -0.179817 0.010942
v 0.219027 -0.179817 0.061967
v 0.164617 -0.163839 0.107486
v -0.000000 -0.233621 -0.049184
v -0.000000 -0.206594 -0.094623
v 0.099731 -0.217225 -0.065119
v -0.000000 -0.163839 -0.132860
v 0.100418 -0.179817 -0.111206
v 0.191914 -0.179817 -0.079670
v -0.098603 -0.233621 -0.015199
v -0.189700 -0.206594 -0.029240
v -0.099731 -0.217225 -0.065119
v -0.266356 -0.163839 -0.041056
v -0.191914 -0.179817 -0.079670
v -0.100418 -0.179817 -0.111206
v -0.060940 -0.233621 0.039790
v -0.117241 -0.206594 0.076552
v -0.161368 -0.217225 0.024873
v -0.164617 -0.163839 0.107486
v -0.219027 -0.179817 0.061967
v -0.253975 -0.179817 0.010942
v 0.000000 -0.217225 0.080491
v 0.056547 -0.179817 0.117968
v -0.056547 -0.179817 0.117968
# 162 vertices

vn -0.000000 1.000000 -0.000009
vn 0.000000 0.940837 0.338859
vn 0.162527 0.980680 0.108862
vn -0.000000 0.773712 0.633537
vn 0.166640 0.865078 0.473149
vn 0.342687 0.911222 0.228562
vn -0.000000 0.556909 0.830574
vn 0.153591 0.654728 0.740095
vn 0.327874 0.734272 0.594426
vn 0.529220 0.772503 0.350950
vn -0.000000 0.349660 0.936876
vn 0.132054 0.411794 0.901658
vn 0.290443 0.475065 0.830636
vn 0.481628 0.532255 0.696232
vn 0.690515 0.559584 0.458317
vn 0.097918 0.955531 -0.278159
vn 0.291628 0.936490 -0.194779
vn 0.190562 0.819079 -0.541107
vn 0.508498 0.855587 -0.096959
vn 0.398351 0.777305 -0.486943
vn 0.261126 0.617199 -0.742212
vn 0.744536 0.667021 0.027366
vn 0.639731 0.639174 -0.426851
vn 0.460643 0.521375 -0.718315
vn 0.303021 0.399920 -0.865010
vn -0.097918 0.955531 -0.278159
vn -0.000000 0.827868 -0.560923
vn -0.190562 0.819079 -0.541107
vn 0.083315 0.637965 -0.765545
vn -0.083315 0.637965 -0.765545
vn -0.261126 0.617199 -0.742212
vn 0.148718 0.415176 -0.897503
vn -0.000000 0.419926 -0.907558
vn -0.148718 0.415176 -0.897503
vn -0.303021 0.399920 -0.865010
vn -0.162527 0.980680 0.108862
vn -0.291629 0.936490 -0.194779
vn -0.342687 0.911222 0.228562
vn -0.398352 0.777305 -0.486943
vn -0.508498 0.855587 -0.096959
vn -0.529219 0.772503 0.350950
vn -0.460643 0.521375 -0.718315
vn -0.639731 0.639174 -0.426850
vn -0.744536 0.667021 0.027367
vn -0.690515 0.559584 0.458317
vn -0.166641 0.865078 0.473150
vn -0.327874 0.734272 0.594427
vn -0.153591 0.654728 0.740095
vn -0.481628 0.532255 0.696232
vn -0.290443 0.475065 0.830636
vn -0.132054 0.411794 0.901658
vn -0.076623 0.184933 0.979760
vn 0.076623 0.184933 0.979760
vn -0.154413 0.000285 0.988006
vn 0.000000 -0.004065 0.999992
vn 0.154413 0.000285 0.988006
vn -0.231294 -0.198363 0.952447
vn -0.073278 -0.200489 0.976952
vn 0.073278 -0.200489 0.976952
vn 0.231295 -0.198363 0.952447
vn -0.303021 -0.399920 0.865010
vn -0.148718 -0.415176 0.897503
vn 0.000000 -0.419926 0.907558
vn 0.148718 -0.415176 0.897503
vn 0.303021 -0.399920 0.865010
vn 0.660608 0.284906 0.694569
vn 0.894917 0.348225 0.279039
vn 0.556633 -0.001170 0.830758
vn 0.835600 -0.007450 0.549288
vn 1.000000 -0.000000 0.000000
vn 0.426558 -0.233100 0.873906
vn 0.659420 -0.310050 0.684860
vn 0.883002 -0.371815 0.286464
vn 0.894917 -0.348225 -0.279039
vn 0.460643 -0.521375 0.718315
vn 0.639731 -0.639174 0.426851
vn 0.744536 -0.667021 -0.027367
vn 0.690515 -0.559584 -0.458317
vn 0.426558 0.233100 -0.873907
vn 0.231294 0.198363 -0.952447
vn 0.556633 0.001169 -0.830758
vn 0.330963 -0.004775 -0.943632
vn 0.154413 -0.000285 -0.988006
vn 0.660608 -0.284906 -0.694569
vn 0.419975 -0.250248 -0.872351
vn 0.233601 -0.216368 -0.947953
vn 0.076623 -0.184933 -0.979760
vn 0.481628 -0.532255 -0.696232
vn 0.290443 -0.475065 -0.830636
vn 0.132054 -0.411794 -0.901658
vn -0.000000 -0.349661 -0.936876
vn -0.231294 0.198363 -0.952447
vn -0.426558 0.233100 -0.873906
vn -0.154413 -0.000285 -0.988006
vn -0.330963 -0.004775 -0.943631
vn -0.556633 0.001170 -0.830758
vn -0.076623 -0.184933 -0.979760
vn -0.233601 -0.216368 -0.947953
vn -0.419975 -0.250248 -0.872351
vn -0.660608 -0.284906 -0.694569
vn -0.132054 -0.411794 -0.901658
vn -0.290443 -0.475065 -0.830636
vn -0.481628 -0.532255 -0.696232
vn -0.690515 -0.559584 -0.458317
vn -0.894917 0.348225 0.279039
vn -0.660607 0.284906 0.694569
vn -1.000000 -0.000000 -0.000000
vn -0.835600 -0.007450 0.549289
vn -0.556632 -0.001170 0.830758
vn -0.894917 -0.348225 -0.279039
vn -0.883001 -0.371815 0.286464
vn -0.659420 -0.310050 0.684861
vn -0.426558 -0.233100 0.873907
vn -0.744536 -0.667021 -0.027366
vn -0.639731 -0.639174 0.426851
vn -0.460643 -0.521375 0.718315
vn 0.330963 0.004775 0.943632
vn 0.419975 0.250248 0.872351
vn 0.233601 0.216368 0.947953
vn 0.835600 0.007449 -0.549288
vn 0.659420 0.310050 -0.684860
vn 0.883002 0.371815 -0.286464
vn -0.000000 0.004065 -0.999992
vn -0.073278 0.200489 -0.976952
vn 0.073278 0.200489 -0.976952
vn -0.835600 0.007450 -0.549288
vn -0.883002 0.371815 -0.286464
vn -0.659421 0.310050 -0.684860
vn -0.330963 0.004775 0.943632
vn -0.233601 0.216368 0.947953
vn -0.419975 0.250248 0.872352
vn 0.000000 -1.000000 0.000009
vn 0.162527 -0.980680 -0.108862
vn 0.097918 -0.955531 0.278159
vn 0.342687 -0.911222 -0.228562
vn 0.291628 -0.936490 0.194779
vn 0.190562 -0.819079 0.541107
vn 0.529219 -0.772503 -0.350950
vn 0.508498 -0.855587 0.096959
vn 0.398352 -0.777305 0.486943
vn 0.261126 -0.617199 0.742212
vn 0.000000 -0.940837 -0.338859
vn -0.000000 -0.773712 -0.633537
vn 0.166640 -0.865078 -0.473149
vn -0.000000 -0.556909 -0.830574
vn 0.153591 -0.654728 -0.740095
vn 0.327874 -0.734272 -0.594426
vn -0.162527 -0.980680 -0.108862
vn -0.342687 -0.911222 -0.228562
vn -0.166640 -0.865078 -0.473149
vn -0.529219 -0.772503 -0.350950
vn -0.327874 -0.734272 -0.594427
vn -0.153591 -0.654728 -0.740095
vn -0.097918 -0.955531 0.278159
vn -0.190562 -0.819078 0.541107
vn -0.291629 -0.936490 0.194779
vn -0.261126 -0.617199 0.742212
vn -0.398352 -0.777305 0.486943
vn -0.508498 -0.855587 0.096959
vn 0.000000 -0.827868 0.560923
vn 0.083315 -0.637965 0.765545
vn -0.083315 -0.637965 0.765545
# 162 vertex normals

g Material_1
f 1/1/1 2/2/2 3/3/3
f 2/2/2 4/4/4 5/5/5
f 2/2/2 5/5/5 3/3/3
f 3/3/3 5/5/5 6/6/6
f 4/4/4 7/7/7 8/8/8
f 4/4/4 8/8/8 5/5/5
f 5/5/5 8/8/8 9/9/9
f 5/5/5 9/9/9 6/6/6
f 6/6/6 9/9/9 10/10/10
f 7/7/7 11/11/11 12/12/12
f 7/7/7 12/12/12 8/8/8
f 8/8/8 12/12/12 13/13/13
f 8/8/8 13/13/13 9/9/9
f 9/9/9 13/13/13 14/14/14
f 9/9/9 14/14/14 10/10/10
f 10/10/10 14/14/14 15/15/15
f 1/1/1 3/3/3 16/16/16
f 3/3/3 6/6/6 17/17/17
f 3/3/3 17/17/17 16/16/16
f 16/16/16 17/17/17 18/18/18
f 6/6/6 10/10/10 19/19/19
f 6/6/6 19/19/19 17/17/17
f 17/17/17 19/19/19 20/20/20
f 17/17/17 20/20/20 18/18/18
f 18/18/18 20/20/20 21/21/21
f 10/10/10 15/15/15 22/22/22
f 10/10/10 22/22/22 19/19/19
f 19/19/19 22/22/22 23/23/23
f 19/19/19 23/23/23 20/20/20
f 20/20/20 23/23/23 24/24/24
f 20/20/20 24/24/24 21/21/21
f 21/21/21 24/24/24 25/25/25
f 1/1/1 16/16/16 26/26/26
f 16/16/16 18/18/18 27/27/27
f 16/16/16 27/27/27 26/26/26
f 26/26/26 27/27/27 28/28/28
f 18/18/18 21/21/21 29/29/29
f 18/18/18 29/29/29 27/27/27
f 27/27/27 29/29/29 30/30/30
f 27/27/27 30/30/30 28/28/28
f 28/28/28 30/30/30 31/31/31
f 21/21/21 25/25/25 32/32/32
f 21/21/21 32/32/32 29/29/29
f 29/29/29 32/32/32 33/33/33
f 29/29/29 33/33/33 30/30/30
f 30/30/30 33/33/33 34/34/34
f 30/30/30 34/34/34 31/31/31
f 31/31/31 34/34/34 35/35/35
f 1/1/1 26/26/26 36/36/36
f 26/26/26 28/28/28 37/37/37
f 26/26/26 37/37/37 36/36/36
f 36/36/36 37/37/37 38/38/38
f 28/28/28 31/31/31 39/39/39
f 28/28/28 39/39/39 37/37/37
f 37/37/37 39/39/39 40/40/40
f 37/37/37 40/40/40 38/38/38
f 38/38/38 40/40/40 41/41/41
f 31/31/31 35/35/35 42/42/42
f 31/31/31 42/42/42 39/39/39
f 39/39/39 42/42/42 43/43/43
f 39/39/39 43/43/43 40/40/40
f 40/40/40 43/43/43 44/44/44
f 40/40/40 44/44/44 41/41/41
f 41/41/41 44/44/44 45/45/45
f 1/1/1 36/36/36 2/2/2
f 36/36/36 38/38/38 46/46/46
f 36/36/36 46/46/46 2/2/2
f 2/2/2 46/46/46 4/4/4
f 38/38/38 41/41/41 47/47/47
f 38/38/38 47/47/47 46/46/46
f 46/46/46 47/47/47 48/48/48
f 46/46/46 48/48/48 4/4/4
f 4/4/4 48/48/48 7/7/7
f 41/41/41 45/45/45 49/49/49
f 41/41/41 49/49/49 47/47/47
f 47/47/47 49/49/49 50/50/50
f 47/47/47 50/50/50 48/48/48
f 48/48/48 50/50/50 51/51/51
f 48/48/48 51/51/51 7/7/7
f 7/7/7 51/51/51 11/11/11
f 11/11/11 52/52/52 53/53/53
f 52/52/52 54/54/54 55/55/55
f 52/52/52 55/55/55 53/53/53
f 53/53/53 55/55/55 56/56/56
f 54/54/54 57/57/57 58/58/58
f 54/54/54 58/58/58 55/55/55
f 55/55/55 58/58/58 59/59/59
f 55/55/55 59/59/59 56/56/56
f 56/56/56 59/59/59 60/60/60
f 57/57/57 61/61/61 62/62/62
f 57/57/57 62/62/62 58/58/58
f 58/58/58 62/62/62 63/63/63
f 58/58/58 63/63/63 59/59/59
f 59/59/59 63/63/63 64/64/64
f 59/59/59 64/64/64 60/60/60
f 60/60/60 64/64/64 65/65/65
f 15/15/15 66/66/66 67/67/67
f 66/66/66 68/68/68 69/69/69
f 66/66/66 69/69/69 67/67/67
f 67/67/67 69/69/69 70/70/70
f 68/68/68 71/71/71 72/72/72
f 68/68/68 72/72/72 69/69/69
f 69/69/69 72/72/72 73/73/73
f 69/69/69 73/73/73 70/70/70
f 70/70/70 73/73/73 74/74/74
f 71/71/71 65/65/65 75/75/75
f 71/71/71 75/75/75 72/72/72
f 72/72/72 75/75/75 76/76/76
f 72/72/72 76/76/76 73/73/73
f 73/73/73 76/76/76 77/77/77
f 73/73/73 77/77/77 74/74/74
f 74/74/74 77/77/77 78/78/78
f 25/25/25 79/79/79 80/80/80
f 79/79/79 81/81/81 82/82/82
f 79/79/79 82/82/82 80/80/80
f 80/80/80 82/82/82 83/83/83
f 81/81/81 84/84/84 85/85/85
f 81/81/81 85/85/85 82/82/82
f 82/82/82 85/85/85 86/86/86
f 82/82/82 86/86/86 83/83/83
f 83/83/83 86/86/86 87/87/87
f 84/84/84 78/78/78 88/88/88
f 84/84/84 88/88/88 85/85/85
f 85/85/85 88/88/88 89/89/89
f 85/85/85 89/89/89 86/86/86
f 86/86/86 89/89/89 90/90/90
f 86/86/86 90/90/90 87/87/87
f 87/87/87 90/90/90 91/91/91
f 35/35/35 92/92/92 93/93/93
f 92/92/92 94/94/94 95/95/95
f 92/92/92 95/95/95 93/93/93
f 93/93/93 95/95/95 96/96/96
f 94/94/94 97/97/97 98/98/98
f 94/94/94 98/98/98 95/95/95
f 95/95/95 98/98/98 99/99/99
f 95/95/95 99/99/99 96/96/96
f 96/96/96 99/99/99 100/100/100
f 97/97/97 91/91/91 101/101/101
f 97/97/97 101/101/101 98/98/98
f 98/98/98 101/101/101 102/102/102
f 98/98/98 102/102/102 99/99/99
f 99/99/99 102/102/102 103/103/103
f 99/99/99 103/103/103 100/100/100
f 100/100/100 103/103/103 104/104/104
f 45/45/45 105/105/105 106/106/106
f 105/105/105 107/107/107 108/108/108
f 105/105/105 108/108/108 106/106/106
f 106/106/106 108/108/108 109/109/109
f 107/107/107 110/110/110 111/111/111
f 107/107/107 111/111/111 108/108/108
f 108/108/108 111/111/111 112/112/112
f 108/108/108 112/112/112 109/109/109
f 109/109/109 112/112/112 113/113/113
f 110/110/110 104/104/104 114/114/114
f 110/110/110 114/114/114 111/111/111
f 111/111/111 114/114/114 115/115/115
f 111/111/111 115/115/115 112/112/112
f 112/112/112 115/115/115 116/116/116
f 112/112/112 116/116/116 113/113/113
f 113/113/113 116/116/116 61/61/61
f 65/65/65 71/71/71 60/60/60
f 71/71/71 68/68/68 117/117/117
f 71/71/71 117/117/117 60/60/60
f 60/60/60 117/117/117 56/56/56
f 68/68/68 66/66/66 118/118/118
f 68/68/68 118/118/118 117/117/117
f 117/117/117 118/118/118 119/119/119
f 117/117/117 119/119/119 56/56/56
f 56/56/56 119/119/119 53/53/53
f 66/66/66 15/15/15 14/14/14
f 66/66/66 14/14/14 118/118/118
f 118/118/118 14/14/14 13/13/13
f 118/118/118 13/13/13 119/119/119
f 119/119/119 13/13/13 12/12/12
f 119/119/119 12/12/12 53/53/53
f 53/53/53 12/12/12 11/11/11
f 78/78/78 84/84/84 74/74/74
f 84/84/84 81/81/81 120/120/120
f 84/84/84 120/120/120 74/74/74
f 74/74/74 120/120/120 70/70/70
f 81/81/81 79/79/79 121/121/121
f 81/81/81 121/121/121 120/120/120
f 120/120/120 121/121/121 122/122/122
f 120/120/120 122/122/122 70/70/70
f 70/70/70 122/122/122 67/67/67
f 79/79/79 25/25/25 24/24/24
f 79/79/79 24/24/24 121/121/121
f 121/121/121 24/24/24 23/23/23
f 121/121/121 23/23/23 122/122/122
f 122/122/122 23/23/23 22/22/22
f 122/122/122 22/22/22 67/67/67
f 67/67/67 22/22/22 15/15/15
f 91/91/91 97/97/97 87/87/87
f 97/97/97 94/94/94 123/123/123
f 97/97/97 123/123/123 87/87/87
f 87/87/87 123/123/123 83/83/83
f 94/94/94 92/92/92 124/124/124
f 94/94/94 124/124/124 123/123/123
f 123/123/123 124/124/124 125/125/125
f 123/123/123 125/125/125 83/83/83
f 83/83/83 125/125/125 80/80/80
f 92/92/92 35/35/35 34/34/34
f 92/92/92 34/34/34 124/124/124
f 124/124/124 34/34/34 33/33/33
f 124/124/124 33/33/33 125/125/125
f 125/125/125 33/33/33 32/32/32
f 125/125/125 32/32/32 80/80/80
f 80/80/80 32/32/32 25/25/25
f 104/104/104 110/110/110 100/100/100
f 110/110/110 107/107/107 126/126/126
f 110/110/110 126/126/126 100/100/100
f 100/100/100 126/126/126 96/96/96
f 107/107/107 105/105/105 127/127/127
f 107/107/107 127/127/127 126/126/126
f 126/126/126 127/127/127 128/128/128
f 126/126/126 128/128/128 96/96/96
f 96/96/96 128/128/128 93/93/93
f 105/105/105 45/45/45 44/44/44
f 105/105/105 44/44/44 127/127/127
f 127/127/127 44/44/44 43/43/43
f 127/127/127 43/43/43 128/128/128
f 128/128/128 43/43/43 42/42/42
f 128/128/128 42/42/42 93/93/93
f 93/93/93 42/42/42 35/35/35
f 61/61/61 57/57/57 113/113/113
f 57/57/57 54/54/54 129/129/129
f 57/57/57 129/129/129 113/113/113
f 113/113/113 129/129/129 109/109/109
f 54/54/54 52/52/52 130/130/130
f 54/54/54 130/130/130 129/129/129
f 129/129/129 130/130/130 131/131/131
f 129/129/129 131/131/131 109/109/109
f 109/109/109 131/131/131 106/106/106
f 52/52/52 11/11/11 51/51/51
f 52/52/52 51/51/51 130/130/130
f 130/130/130 51/51/51 50/50/50
f 130/130/130 50/50/50 131/131/131
f 131/131/131 50/50/50 49/49/49
f 131/131/131 49/49/49 106/106/106
f 106/106/106 49/49/49 45/45/45
f 132/132/132 133/133/133 134/134/134
f 133/133/133 135/135/135 136/136/136
f 133/133/133 136/136/136 134/134/134
f 134/134/134 136/136/136 137/137/137
f 135/135/135 138/138/138 139/139/139
f 135/135/135 139/139/139 136/136/136
f 136/136/136 139/139/139 140/140/140
f 136/136/136 140/140/140 137/137/137
f 137/137/137 140/140/140 141/141/141
f 138/138/138 78/78/78 77/77/77
f 138/138/138 77/77/77 139/139/139
f 139/139/139 77/77/77 76/76/76
f 139/139/139 76/76/76 140/140/140
f 140/140/140 76/76/76 75/75/75
f 140/140/140 75/75/75 141/141/141
f 141/141/141 75/75/75 65/65/65
f 132/132/132 142/142/142 133/133/133
f 142/142/142 143/143/143 144/144/144
f 142/142/142 144/144/144 133/133/133
f 133/133/133 144/144/144 135/135/135
f 143/143/143 145/145/145 146/146/146
f 143/143/143 146/146/146 144/144/144
f 144/144/144 146/146/146 147/147/147
f 144/144/144 147/147/147 135/135/135
f 135/135/135 147/147/147 138/138/138
f 145/145/145 91/91/91 90/90/90
f 145/145/145 90/90/90 146/146/146
f 146/146/146 90/90/90 89/89/89
f 146/146/146 89/89/89 147/147/147
f 147/147/147 89/89/89 88/88/88
f 147/147/147 88/88/88 138/138/138
f 138/138/138 88/88/88 78/78/78
f 132/132/132 148/148/148 142/142/142
f 148/148/148 149/149/149 150/150/150
f 148/148/148 150/150/150 142/142/142
f 142/142/142 150/150/150 143/143/143
f 149/149/149 151/151/151 152/152/152
f 149/149/149 152/152/152 150/150/150
f 150/150/150 152/152/152 153/153/153
f 150/150/150 153/153/153 143/143/143
f 143/143/143 153/153/153 145/145/145
f 151/151/151 104/104/104 103/103/103
f 151/151/151 103/103/103 152/152/152
f 152/152/152 103/103/103 102/102/102
f 152/152/152 102/102/102 153/153/153
f 153/153/153 102/102/102 101/101/101
f 153/153/153 101/101/101 145/145/145
f 145/145/145 101/101/101 91/91/91
f 132/132/132 154/154/154 148/148/148
f 154/154/154 155/155/155 156/156/156
f 154/154/154 156/156/156 148/148/148
f 148/148/148 156/156/156 149/149/149
f 155/155/155 157/157/157 158/158/158
f 155/155/155 158/158/158 156/156/156
f 156/156/156 158/158/158 159/159/159
f 156/156/156 159/159/159 149/149/149
f 149/149/149 159/159/159 151/151/151
f 157/157/157 61/61/61 116/116/116
f 157/157/157 116/116/116 158/158/158
f 158/158/158 116/116/116 115/115/115
f 158/158/158 115/115/115 159/159/159
f 159/159/159 115/115/115 114/114/114
f 159/159/159 114/114/114 151/151/151
f 151/151/151 114/114/114 104/104/104
f 132/132/132 134/134/134 154/154/154
f 134/134/134 137/137/137 160/160/160
f 134/134/134 160/160/160 154/154/154
f 154/154/154 160/160/160 155/155/155
f 137/137/137 141/141/141 161/161/161
f 137/137/137 161/161/161 160/160/160
f 160/160/160 161/161/161 162/162/162
f 160/160/160 162/162/162 155/155/155
f 155/155/155 162/162/162 157/157/157
f 141/141/141 65/65/65 64/64/64
f 141/141/141 64/64/64 161/161/161
f 161/161/161 64/64/64 63/63/63
f 161/161/161 63/63/63 162/162/162
f 162/162/162 63/63/63 62/62/62
f 162/162/162 62/62/62 157/157/157
f 157/157/157 62/62/62 61/61/61
# 320 faces

