v -0.000000 0.477613 -0.000000
v 0.200440 0.467183 -0.000000
v 0.196588 0.467211 -0.002957
v 0.185182 0.467291 -0.005797
v 0.166660 0.467411 -0.008408
v 0.141732 0.467551 -0.010689
v 0.111358 0.467692 -0.012556
v 0.076705 0.467810 -0.013938
v 0.039104 0.467890 -0.014788
v -0.000000 0.467918 -0.015074
v -0.039104 0.467890 -0.014788
v -0.076705 0.467810 -0.013938
v -0.111358 0.467692 -0.012556
v -0.141732 0.467551 -0.010689
v -0.166660 0.467411 -0.008408
v -0.185182 0.467291 -0.005797
v -0.196588 0.467211 -0.002957
v -0.200440 0.467183 -0.000000
v -0.196588 0.467211 0.002957
v -0.185182 0.467291 0.005796
v -0.166660 0.467411 0.008408
v -0.141732 0.467551 0.010689
v -0.111358 0.467692 0.012556
v -0.076705 0.467810 0.013938
v -0.039104 0.467890 0.014788
v 0.000000 0.467918 0.015074
v 0.039104 0.467890 0.014788
v 0.076705 0.467810 0.013938
v 0.111358 0.467692 0.012556
v 0.141732 0.467551 0.010689
v 0.166660 0.467411 0.008408
v 0.185182 0.467291 0.005796
v 0.196588 0.467211 0.002957
v 0.393177 0.436297 -0.000000
v 0.385622 0.436481 -0.009907
v 0.363248 0.437005 -0.019388
v 0.326914 0.437787 -0.028048
v 0.278018 0.438705 -0.035549
v 0.218437 0.439619 -0.041628
v 0.150462 0.440392 -0.046091
v 0.076705 0.440906 -0.048814
v -0.000000 0.441087 -0.049729
v -0.076705 0.440906 -0.048814
v -0.150462 0.440392 -0.046091
v -0.218437 0.439619 -0.041628
v -0.278018 0.438705 -0.035549
v -0.326915 0.437787 -0.028048
v -0.363248 0.437005 -0.019388
v -0.385622 0.436481 -0.009907
v -0.393177 0.436297 -0.000000
v -0.385622 0.436481 0.009907
v -0.363248 0.437005 0.019388
v -0.326914 0.437787 0.028047
v -0.278018 0.438705 0.035549
v -0.218437 0.439619 0.041628
v -0.150462 0.440392 0.046091
v -0.076705 0.440906 0.048814
v 0.000000 0.441087 0.049729
v 0.076705 0.440906 0.048814
v 0.150462 0.440392 0.046091
v 0.218437 0.439619 0.041628
v 0.278018 0.438705 0.035549
v 0.326914 0.437787 0.028047
v 0.363248 0.437005 0.019388
v 0.385622 0.436481 0.009907
v 0.570804 0.386140 -0.000000
v 0.559836 0.386790 -0.024051
v 0.527354 0.388633 -0.046945
v 0.474606 0.391375 -0.067648
v 0.403619 0.394583 -0.085345
v 0.317122 0.397763 -0.099472
v 0.218437 0.400437 -0.109699
v 0.111358 0.402213 -0.115871
v -0.000000 0.402834 -0.117932
v -0.111358 0.402213 -0.115871
v -0.218437 0.400437 -0.109699
v -0.317122 0.397763 -0.099472
v -0.403620 0.394583 -0.085345
v -0.474606 0.391375 -0.067648
v -0.527354 0.388633 -0.046945
v -0.559836 0.386790 -0.024051
v -0.570804 0.386140 -0.000000
v -0.559836 0.386790 0.024051
v -0.527354 0.388633 0.046945
v -0.474606 0.391375 0.067648
v -0.403619 0.394583 0.085345
v -0.317122 0.397763 0.099472
v -0.218437 0.400437 0.109699
v -0.111358 0.402213 0.115871
v 0.000000 0.402834 0.117932
v 0.111358 0.402213 0.115871
v 0.218437 0.400437 0.109699
v 0.317122 0.397763 0.099472
v 0.403619 0.394583 0.085345
v 0.474606 0.391375 0.067648
v 0.527354 0.388633 0.046945
v 0.559836 0.386790 0.024051
v 0.726496 0.318641 -0.000000
v 0.712536 0.320262 -0.047144
v 0.671195 0.324854 -0.091736
v 0.604059 0.331658 -0.131579
v 0.513710 0.339578 -0.165085
v 0.403619 0.347385 -0.191340
v 0.278018 0.353916 -0.210009
v 0.141732 0.358235 -0.221113
v -0.000000 0.359743 -0.224792
v -0.141732 0.358235 -0.221113
v -0.278018 0.353916 -0.210009
v -0.403620 0.347385 -0.191340
v -0.513710 0.339578 -0.165085
v -0.604059 0.331658 -0.131579
v -0.671195 0.324854 -0.091736
v -0.712536 0.320262 -0.047144
v -0.726496 0.318641 -0.000000
v -0.712536 0.320262 0.047144
v -0.671194 0.324854 0.091736
v -0.604059 0.331658 0.131579
v -0.513710 0.339578 0.165085
v -0.403619 0.347385 0.191340
v -0.278018 0.353916 0.210009
v -0.141732 0.358235 0.221113
v 0.000000 0.359743 0.224791
v 0.141732 0.358235 0.221113
v 0.278018 0.353916 0.210009
v 0.403619 0.347385 0.191340
v 0.513710 0.339578 0.165085
v 0.604059 0.331658 0.131579
v 0.671195 0.324854 0.091736
v 0.712536 0.320262 0.047144
v 0.854269 0.236392 -0.000000
v 0.837854 0.239592 -0.079086
v 0.789241 0.248636 -0.153414
v 0.710298 0.261984 -0.219021
v 0.604059 0.277444 -0.273264
v 0.474606 0.292597 -0.314938
v 0.326914 0.305207 -0.343989
v 0.166659 0.313512 -0.360991
v -0.000000 0.316406 -0.366571
v -0.166660 0.313512 -0.360991
v -0.326915 0.305207 -0.343989
v -0.474606 0.292597 -0.314938
v -0.604059 0.277444 -0.273264
v -0.710298 0.261984 -0.219021
v -0.789241 0.248636 -0.153414
v -0.837854 0.239592 -0.079086
v -0.854269 0.236392 0.000000
v -0.837854 0.239592 0.079086
v -0.789241 0.248636 0.153414
v -0.710298 0.261984 0.219021
v -0.604059 0.277444 0.273264
v -0.474606 0.292597 0.314937
v -0.326914 0.305207 0.343989
v -0.166659 0.313512 0.360991
v 0.000000 0.316406 0.366571
v 0.166660 0.313512 0.360991
v 0.326915 0.305207 0.343989
v 0.474606 0.292597 0.314937
v 0.604059 0.277444 0.273264
v 0.710299 0.261984 0.219021
v 0.789241 0.248636 0.153414
v 0.837854 0.239592 0.079085
v 0.949212 0.142555 -0.000000
v 0.930974 0.147855 -0.117824
v 0.876958 0.162807 -0.227961
v 0.789241 0.184802 -0.324156
v 0.671194 0.210166 -0.402512
v 0.527354 0.234907 -0.461645
v 0.363248 0.255402 -0.502120
v 0.185182 0.268854 -0.525443
v -0.000000 0.273531 -0.533030
v -0.185182 0.268854 -0.525443
v -0.363248 0.255402 -0.502120
v -0.527354 0.234907 -0.461645
v -0.671195 0.210166 -0.402512
v -0.789241 0.184802 -0.324156
v -0.876958 0.162807 -0.227961
v -0.930974 0.147854 -0.117824
v -0.949212 0.142555 0.000000
v -0.930974 0.147855 0.117824
v -0.876958 0.162807 0.227961
v -0.789241 0.184802 0.324156
v -0.671194 0.210166 0.402512
v -0.527354 0.234907 0.461645
v -0.363248 0.255402 0.502120
v -0.185182 0.268854 0.525443
v 0.000000 0.273531 0.533030
v 0.185182 0.268854 0.525443
v 0.363248 0.255402 0.502120
v 0.527354 0.234907 0.461645
v 0.671195 0.210166 0.402511
v 0.789241 0.184802 0.324156
v 0.876958 0.162807 0.227961
v 0.930974 0.147854 0.117824
v 1.007679 0.040736 -0.000000
v 0.988316 0.048358 -0.159574
v 0.930974 0.069837 -0.308196
v 0.837854 0.101364 -0.437080
v 0.712536 0.137611 -0.540992
v 0.559836 0.172856 -0.618438
v 0.385622 0.201962 -0.670751
v 0.196588 0.221019 -0.700554
v -0.000000 0.227638 -0.710184
v -0.196588 0.221019 -0.700554
v -0.385622 0.201962 -0.670751
v -0.559836 0.172856 -0.618438
v -0.712536 0.137611 -0.540992
v -0.837854 0.101364 -0.437080
v -0.930974 0.069837 -0.308196
v -0.988316 0.048358 -0.159574
v -1.007679 0.040736 0.000000
v -0.988316 0.048358 0.159574
v -0.930974 0.069837 0.308196
v -0.837854 0.101364 0.437080
v -0.712536 0.137612 0.540992
v -0.559836 0.172856 0.618438
v -0.385622 0.201962 0.670751
v -0.196588 0.221019 0.700554
v 0.000000 0.227638 0.710184
v 0.196588 0.221019 0.700554
v 0.385622 0.201962 0.670751
v 0.559836 0.172856 0.618437
v 0.712537 0.137611 0.540992
v 0.837854 0.101364 0.437080
v 0.930974 0.069837 0.308195
v 0.988316 0.048358 0.159574
v 1.027420 -0.065152 -0.000000
v 1.007679 -0.055445 -0.199312
v 0.949212 -0.028099 -0.384708
v 0.854269 0.012007 -0.545076
v 0.726496 0.058070 -0.673901
v 0.570804 0.102808 -0.769481
v 0.393177 0.139713 -0.833733
v 0.200440 0.163857 -0.870183
v -0.000000 0.172239 -0.881931
v -0.200440 0.163857 -0.870183
v -0.393177 0.139713 -0.833733
v -0.570804 0.102808 -0.769481
v -0.726496 0.058070 -0.673901
v -0.854269 0.012007 -0.545076
v -0.949212 -0.028099 -0.384708
v -1.007679 -0.055445 -0.199312
v -1.027420 -0.065152 0.000000
v -1.007679 -0.055445 0.199312
v -0.949212 -0.028099 0.384708
v -0.854269 0.012007 0.545076
v -0.726496 0.058070 0.673901
v -0.570804 0.102808 0.769481
v -0.393177 0.139713 0.833732
v -0.200440 0.163858 0.870183
v 0.000000 0.172239 0.881931
v 0.200440 0.163857 0.870183
v 0.393177 0.139713 0.833732
v 0.570804 0.102808 0.769481
v 0.726496 0.058070 0.673901
v 0.854269 0.012007 0.545076
v 0.949213 -0.028099 0.384707
v 1.007679 -0.055445 0.199312
v 1.007679 -0.171040 -0.000000
v 0.988316 -0.159984 -0.231475
v 0.930974 -0.128827 -0.447064
v 0.837854 -0.083094 -0.634021
v 0.712536 -0.030514 -0.784755
v 0.559836 0.020611 -0.897096
v 0.385622 0.062831 -0.972981
v 0.196588 0.090476 -1.016214
v -0.000000 0.100077 -1.030182
v -0.196588 0.090476 -1.016214
v -0.385622 0.062831 -0.972981
v -0.559836 0.020611 -0.897096
v -0.712536 -0.030514 -0.784755
v -0.837854 -0.083094 -0.634021
v -0.930974 -0.128827 -0.447064
v -0.988316 -0.159984 -0.231475
v -1.007679 -0.171040 0.000000
v -0.988316 -0.159984 0.231475
v -0.930974 -0.128827 0.447064
v -0.837854 -0.083094 0.634021
v -0.712536 -0.030514 0.784755
v -0.559836 0.020611 0.897096
v -0.385622 0.062831 0.972981
v -0.196588 0.090476 1.016213
v 0.000000 0.100077 1.030182
v 0.196588 0.090476 1.016213
v 0.385622 0.062831 0.972981
v 0.559836 0.020611 0.897096
v 0.712536 -0.030514 0.784754
v 0.837854 -0.083094 0.634021
v 0.930974 -0.128827 0.447064
v 0.988316 -0.159984 0.231475
v 0.949212 -0.272859 -0.000000
v 0.930974 -0.261580 -0.250762
v 0.876958 -0.229757 -0.485165
v 0.789241 -0.182945 -0.689894
v 0.671194 -0.128965 -0.856656
v 0.527354 -0.076308 -0.982510
v 0.363248 -0.032689 -1.068650
v 0.185182 -0.004061 -1.118289
v -0.000000 0.005895 -1.134435
v -0.185182 -0.004061 -1.118289
v -0.363248 -0.032689 -1.068650
v -0.527354 -0.076308 -0.982510
v -0.671195 -0.128965 -0.856656
v -0.789241 -0.182945 -0.689894
v -0.876958 -0.229757 -0.485165
v -0.930974 -0.261580 -0.250762
v -0.949212 -0.272859 0.000000
v -0.930974 -0.261580 0.250762
v -0.876958 -0.229757 0.485165
v -0.789241 -0.182945 0.689894
v -0.671194 -0.128965 0.856656
v -0.527354 -0.076308 0.982510
v -0.363248 -0.032689 1.068650
v -0.185182 -0.004061 1.118289
v 0.000000 0.005895 1.134435
v 0.185182 -0.004061 1.118288
v 0.363248 -0.032689 1.068650
v 0.527354 -0.076308 0.982510
v 0.671195 -0.128965 0.856656
v 0.789241 -0.182945 0.689894
v 0.876958 -0.229757 0.485165
v 0.930974 -0.261580 0.250762
v 0.854269 -0.366696 0.000000
v 0.837854 -0.356462 -0.252937
v 0.789241 -0.327536 -0.490659
v 0.710298 -0.284844 -0.700488
v 0.604059 -0.235401 -0.873971
v 0.474606 -0.186936 -1.007253
v 0.326914 -0.146608 -1.100166
v 0.166659 -0.120045 -1.154543
v -0.000000 -0.110790 -1.172391
v -0.166660 -0.120045 -1.154543
v -0.326915 -0.146608 -1.100166
v -0.474606 -0.186936 -1.007253
v -0.604059 -0.235401 -0.873971
v -0.710298 -0.284844 -0.700487
v -0.789241 -0.327536 -0.490659
v -0.837854 -0.356462 -0.252936
v -0.854269 -0.366696 0.000000
v -0.837854 -0.356462 0.252937
v -0.789241 -0.327536 0.490659
v -0.710298 -0.284844 0.700488
v -0.604059 -0.235401 0.873971
v -0.474606 -0.186936 1.007253
v -0.326914 -0.146607 1.100166
v -0.166659 -0.120045 1.154543
v 0.000000 -0.110790 1.172391
v 0.166660 -0.120045 1.154543
v 0.326915 -0.146608 1.100166
v 0.474606 -0.186936 1.007253
v 0.604059 -0.235401 0.873971
v 0.710298 -0.284844 0.700487
v 0.789241 -0.327536 0.490659
v 0.837854 -0.356462 0.252936
v 0.726496 -0.448944 0.000000
v 0.712536 -0.440845 -0.235522
v 0.671194 -0.417904 -0.458292
v 0.604059 -0.383913 -0.657342
v 0.513710 -0.344345 -0.824729
v 0.403619 -0.305342 -0.955895
v 0.278018 -0.272715 -1.049159
v 0.141732 -0.251138 -1.104633
v -0.000000 -0.243603 -1.123010
v -0.141732 -0.251138 -1.104633
v -0.278018 -0.272715 -1.049159
v -0.403619 -0.305342 -0.955895
v -0.513710 -0.344345 -0.824729
v -0.604059 -0.383913 -0.657342
v -0.671195 -0.417904 -0.458292
v -0.712536 -0.440845 -0.235522
v -0.726496 -0.448944 0.000000
v -0.712536 -0.440845 0.235523
v -0.671194 -0.417903 0.458292
v -0.604059 -0.383913 0.657342
v -0.513710 -0.344345 0.824729
v -0.403619 -0.305342 0.955895
v -0.278018 -0.272715 1.049159
v -0.141732 -0.251138 1.104633
v 0.000000 -0.243603 1.123010
v 0.141732 -0.251138 1.104633
v 0.278018 -0.272715 1.049159
v 0.403619 -0.305342 0.955895
v 0.513710 -0.344345 0.824729
v 0.604059 -0.383913 0.657342
v 0.671195 -0.417904 0.458292
v 0.712536 -0.440845 0.235522
v 0.570804 -0.516444 0.000000
v 0.559836 -0.511090 -0.198278
v 0.527354 -0.495892 -0.387012
v 0.474606 -0.473287 -0.557687
v 0.403619 -0.446839 -0.703576
v 0.317122 -0.420623 -0.820037
v 0.218437 -0.398580 -0.904351
v 0.111358 -0.383943 -0.955230
v -0.000000 -0.378821 -0.972221
v -0.111358 -0.383943 -0.955230
v -0.218437 -0.398580 -0.904351
v -0.317122 -0.420623 -0.820037
v -0.403619 -0.446839 -0.703576
v -0.474606 -0.473287 -0.557687
v -0.527354 -0.495892 -0.387011
v -0.559836 -0.511090 -0.198278
v -0.570804 -0.516444 0.000000
v -0.559836 -0.511090 0.198278
v -0.527354 -0.495892 0.387012
v -0.474606 -0.473287 0.557688
v -0.403619 -0.446839 0.703577
v -0.317122 -0.420623 0.820037
v -0.218437 -0.398580 0.904351
v -0.111358 -0.383943 0.955230
v 0.000000 -0.378821 0.972221
v 0.111358 -0.383943 0.955230
v 0.218437 -0.398580 0.904351
v 0.317122 -0.420623 0.820037
v 0.403619 -0.446839 0.703576
v 0.474606 -0.473287 0.557687
v 0.527354 -0.495892 0.387012
v 0.559836 -0.511090 0.198278
v 0.393177 -0.566601 0.000000
v 0.385622 -0.563935 -0.143376
v 0.363248 -0.556355 -0.280582
v 0.326914 -0.545045 -0.405909
v 0.278018 -0.531754 -0.514478
v 0.218437 -0.518519 -0.602445
v 0.150462 -0.507342 -0.667035
v 0.076705 -0.499896 -0.706445
v -0.000000 -0.497285 -0.719686
v -0.076705 -0.499896 -0.706445
v -0.150462 -0.507342 -0.667035
v -0.218437 -0.518519 -0.602445
v -0.278018 -0.531754 -0.514478
v -0.326914 -0.545045 -0.405909
v -0.363248 -0.556355 -0.280582
v -0.385622 -0.563935 -0.143376
v -0.393177 -0.566601 0.000000
v -0.385622 -0.563935 0.143377
v -0.363248 -0.556355 0.280582
v -0.326914 -0.545045 0.405910
v -0.278018 -0.531754 0.514478
v -0.218437 -0.518519 0.602445
v -0.150462 -0.507342 0.667035
v -0.076705 -0.499896 0.706446
v 0.000000 -0.497285 0.719686
v 0.076705 -0.499896 0.706446
v 0.150462 -0.507342 0.667035
v 0.218437 -0.518519 0.602445
v 0.278018 -0.531754 0.514478
v 0.326914 -0.545045 0.405909
v 0.363248 -0.556355 0.280582
v 0.385622 -0.563935 0.143376
v 0.200440 -0.597487 0.000000
v 0.196588 -0.596774 -0.075234
v 0.185182 -0.594745 -0.147487
v 0.166659 -0.591710 -0.213922
v 0.141732 -0.588134 -0.271977
v 0.111358 -0.584562 -0.319466
v 0.076705 -0.581536 -0.354647
v 0.039104 -0.579516 -0.376261
v -0.000000 -0.578807 -0.383550
v -0.039104 -0.579516 -0.376261
v -0.076705 -0.581536 -0.354647
v -0.111358 -0.584562 -0.319466
v -0.141732 -0.588134 -0.271977
v -0.166660 -0.591710 -0.213922
v -0.185182 -0.594745 -0.147487
v -0.196588 -0.596774 -0.075234
v -0.200440 -0.597487 0.000000
v -0.196588 -0.596774 0.075234
v -0.185182 -0.594745 0.147487
v -0.166659 -0.591710 0.213922
v -0.141732 -0.588134 0.271977
v -0.111358 -0.584562 0.319467
v -0.076705 -0.581536 0.354647
v -0.039104 -0.579516 0.376261
v 0.000000 -0.578807 0.383550
v 0.039104 -0.579516 0.376261
v 0.076705 -0.581536 0.354647
v 0.111358 -0.584562 0.319466
v 0.141732 -0.588134 0.271977
v 0.166659 -0.591710 0.213922
v 0.185182 -0.594745 0.147487
v 0.196588 -0.596774 0.075234
v -0.000000 -0.607916 0.000000
# 482 vertices

vn 0.000000 1.000000 0.000000
vn 0.114627 0.993219 -0.019415
vn 0.103608 0.967191 -0.231963
vn 0.084129 0.921544 -0.379050
vn 0.064989 0.881994 -0.466758
vn 0.048433 0.853373 -0.519045
vn 0.034140 0.833809 -0.550997
vn 0.021404 0.821082 -0.570408
vn 0.009592 0.813668 -0.581251
vn -0.001842 0.810746 -0.585395
vn -0.013398 0.812176 -0.583258
vn -0.025581 0.818501 -0.573936
vn -0.038942 0.830981 -0.554937
vn -0.054092 0.851635 -0.521337
vn -0.071573 0.883032 -0.463823
vn -0.091099 0.926449 -0.365231
vn -0.108775 0.973304 -0.202106
vn -0.114627 0.993219 0.019415
vn -0.103608 0.967191 0.231964
vn -0.084129 0.921544 0.379050
vn -0.064989 0.881994 0.466759
vn -0.048434 0.853373 0.519045
vn -0.034140 0.833809 0.550997
vn -0.021404 0.821082 0.570408
vn -0.009592 0.813668 0.581251
vn 0.001842 0.810746 0.585395
vn 0.013398 0.812176 0.583258
vn 0.025581 0.818501 0.573936
vn 0.038942 0.830981 0.554937
vn 0.054092 0.851635 0.521337
vn 0.071573 0.883032 0.463823
vn 0.091099 0.926449 0.365231
vn 0.108775 0.973304 0.202106
vn 0.213142 0.976868 0.017318
vn 0.192220 0.951468 -0.240334
vn 0.152317 0.899532 -0.409441
vn 0.114184 0.861647 -0.494496
vn 0.082790 0.842341 -0.532549
vn 0.057189 0.834845 -0.547506
vn 0.035621 0.832997 -0.552129
vn 0.016508 0.832915 -0.553155
vn -0.001491 0.832580 -0.553903
vn -0.019590 0.831351 -0.555403
vn -0.039011 0.829781 -0.556724
vn -0.061111 0.829809 -0.554692
vn -0.087481 0.835299 -0.542792
vn -0.119813 0.852616 -0.508616
vn -0.158538 0.889323 -0.428918
vn -0.196913 0.943061 -0.268069
vn -0.213142 0.976868 -0.017318
vn -0.192220 0.951468 0.240334
vn -0.152317 0.899532 0.409442
vn -0.114184 0.861647 0.494496
vn -0.082790 0.842341 0.532549
vn -0.057189 0.834845 0.547506
vn -0.035621 0.832997 0.552129
vn -0.016508 0.832915 0.553155
vn 0.001491 0.832580 0.553903
vn 0.019590 0.831351 0.555403
vn 0.039011 0.829781 0.556724
vn 0.061111 0.829809 0.554692
vn 0.087481 0.835299 0.542792
vn 0.119813 0.852616 0.508616
vn 0.158538 0.889323 0.428918
vn 0.196913 0.943061 0.268069
vn 0.331748 0.943199 0.017829
vn 0.300599 0.929669 -0.212967
vn 0.238281 0.901843 -0.360420
vn 0.177482 0.886811 -0.426691
vn 0.127478 0.885023 -0.447754
vn 0.087287 0.889571 -0.448380
vn 0.054051 0.895273 -0.442227
vn 0.025069 0.899348 -0.436514
vn -0.001962 0.900551 -0.434747
vn -0.029108 0.898500 -0.438007
vn -0.058440 0.893445 -0.445354
vn -0.092276 0.886465 -0.453503
vn -0.133333 0.880151 -0.455583
vn -0.184374 0.879671 -0.438390
vn -0.245645 0.892657 -0.377917
vn -0.305692 0.921331 -0.240212
vn -0.331748 0.943199 -0.017828
vn -0.300599 0.929669 0.212967
vn -0.238281 0.901843 0.360420
vn -0.177482 0.886811 0.426691
vn -0.127478 0.885023 0.447753
vn -0.087287 0.889571 0.448380
vn -0.054051 0.895273 0.442227
vn -0.025069 0.899348 0.436513
vn 0.001962 0.900551 0.434747
vn 0.029108 0.898500 0.438007
vn 0.058440 0.893445 0.445354
vn 0.092276 0.886465 0.453503
vn 0.133333 0.880151 0.455583
vn 0.184374 0.879671 0.438390
vn 0.245645 0.892658 0.377917
vn 0.305692 0.921331 0.240212
vn 0.465677 0.884850 0.013608
vn 0.425553 0.885980 -0.184241
vn 0.341287 0.887225 -0.310412
vn 0.255364 0.896245 -0.362676
vn 0.183292 0.909933 -0.372056
vn 0.125254 0.923338 -0.362984
vn 0.077502 0.933677 -0.349631
vn 0.036093 0.939917 -0.339490
vn -0.002395 0.941810 -0.336138
vn -0.041013 0.939293 -0.340655
vn -0.082815 0.932295 -0.352092
vn -0.131231 0.920876 -0.367105
vn -0.190222 0.905819 -0.378560
vn -0.263407 0.889807 -0.372639
vn -0.349658 0.878632 -0.325185
vn -0.431117 0.878456 -0.206040
vn -0.465677 0.884850 -0.013608
vn -0.425553 0.885980 0.184241
vn -0.341287 0.887225 0.310412
vn -0.255364 0.896245 0.362676
vn -0.183292 0.909933 0.372056
vn -0.125254 0.923338 0.362985
vn -0.077502 0.933677 0.349631
vn -0.036093 0.939917 0.339490
vn 0.002395 0.941810 0.336138
vn 0.041014 0.939293 0.340655
vn 0.082815 0.932295 0.352091
vn 0.131231 0.920876 0.367105
vn 0.190222 0.905819 0.378560
vn 0.263408 0.889807 0.372639
vn 0.349658 0.878632 0.325185
vn 0.431117 0.878457 0.206040
vn 0.618818 0.785476 0.009515
vn 0.571053 0.803428 -0.168529
vn 0.465168 0.838861 -0.282721
vn 0.351162 0.877475 -0.326683
vn 0.252743 0.910283 -0.327880
vn 0.172801 0.934455 -0.311342
vn 0.107021 0.950340 -0.292234
vn 0.050062 0.959125 -0.278521
vn -0.002829 0.961747 -0.273923
vn -0.055873 0.958506 -0.279544
vn -0.113294 0.948944 -0.294397
vn -0.179857 0.931904 -0.314970
vn -0.260907 0.905899 -0.333577
vn -0.360507 0.870459 -0.335166
vn -0.474460 0.829536 -0.294548
vn -0.576889 0.795691 -0.184594
vn -0.618818 0.785476 -0.009516
vn -0.571053 0.803428 0.168529
vn -0.465168 0.838861 0.282721
vn -0.351162 0.877476 0.326683
vn -0.252743 0.910283 0.327880
vn -0.172801 0.934455 0.311342
vn -0.107022 0.950340 0.292234
vn -0.050062 0.959125 0.278521
vn 0.002829 0.961748 0.273923
vn 0.055873 0.958506 0.279544
vn 0.113294 0.948944 0.294396
vn 0.179857 0.931904 0.314970
vn 0.260908 0.905899 0.333577
vn 0.360507 0.870459 0.335165
vn 0.474460 0.829536 0.294548
vn 0.576889 0.795691 0.184594
vn 0.785681 0.618601 0.006176
vn 0.734868 0.657106 -0.167874
vn 0.612582 0.738030 -0.282939
vn 0.469549 0.820287 -0.326577
vn 0.339931 0.883123 -0.323329
vn 0.232746 0.924877 -0.300718
vn 0.144266 0.950181 -0.276304
vn 0.067720 0.963459 -0.259154
vn -0.003290 0.967365 -0.253367
vn -0.074494 0.962694 -0.260137
vn -0.151629 0.948423 -0.278392
vn -0.241114 0.921594 -0.304184
vn -0.349620 0.877404 -0.328524
vn -0.480170 0.811267 -0.333591
vn -0.621898 0.726786 -0.291589
vn -0.739812 0.648653 -0.178682
vn -0.785681 0.618601 -0.006176
vn -0.734867 0.657106 0.167874
vn -0.612582 0.738030 0.282939
vn -0.469548 0.820288 0.326577
vn -0.339931 0.883123 0.323329
vn -0.232746 0.924877 0.300718
vn -0.144266 0.950181 0.276304
vn -0.067720 0.963459 0.259154
vn 0.003290 0.967365 0.253367
vn 0.074494 0.962694 0.260138
vn 0.151630 0.948423 0.278392
vn 0.241114 0.921594 0.304184
vn 0.349620 0.877404 0.328524
vn 0.480170 0.811267 0.333591
vn 0.621898 0.726786 0.291588
vn 0.739812 0.648653 0.178682
vn 0.934238 0.356629 0.003877
vn 0.891944 0.415276 -0.178836
vn 0.773835 0.552132 -0.310370
vn 0.612300 0.700122 -0.367310
vn 0.449892 0.814337 -0.366678
vn 0.309303 0.888072 -0.340089
vn 0.191827 0.931024 -0.310478
vn 0.090225 0.952880 -0.289619
vn -0.003842 0.959241 -0.282564
vn -0.098175 0.951754 -0.290732
vn -0.200586 0.928391 -0.312818
vn -0.319345 0.883085 -0.343772
vn -0.461114 0.805846 -0.371465
vn -0.622800 0.688106 -0.372330
vn -0.780233 0.540138 -0.315417
vn -0.893793 0.408377 -0.185372
vn -0.934238 0.356629 -0.003877
vn -0.891944 0.415276 0.178836
vn -0.773835 0.552132 0.310370
vn -0.612300 0.700123 0.367310
vn -0.449891 0.814337 0.366678
vn -0.309302 0.888072 0.340089
vn -0.191827 0.931024 0.310478
vn -0.090225 0.952880 0.289619
vn 0.003842 0.959241 0.282564
vn 0.098175 0.951754 0.290732
vn 0.200586 0.928391 0.312818
vn 0.319345 0.883085 0.343772
vn 0.461114 0.805846 0.371464
vn 0.622800 0.688106 0.372330
vn 0.780233 0.540137 0.315417
vn 0.893793 0.408377 0.185372
vn 0.999935 0.010981 0.003084
vn 0.978915 0.074963 -0.190016
vn 0.902625 0.249476 -0.350757
vn 0.761462 0.471755 -0.444548
vn 0.582760 0.666041 -0.465596
vn 0.407436 0.798463 -0.443229
vn 0.253810 0.875943 -0.410250
vn 0.119576 0.914885 -0.385601
vn -0.004646 0.926111 -0.377223
vn -0.129234 0.912898 -0.387191
vn -0.264471 0.871318 -0.413352
vn -0.419119 0.790126 -0.447259
vn -0.593544 0.654046 -0.468967
vn -0.767497 0.460321 -0.446153
vn -0.903233 0.244358 -0.352787
vn -0.977981 0.074943 -0.194773
vn -0.999935 0.010981 -0.003084
vn -0.978915 0.074963 0.190016
vn -0.902625 0.249476 0.350757
vn -0.761462 0.471756 0.444548
vn -0.582760 0.666041 0.465596
vn -0.407436 0.798464 0.443229
vn -0.253810 0.875943 0.410250
vn -0.119576 0.914885 0.385601
vn 0.004646 0.926111 0.377223
vn 0.129234 0.912898 0.387191
vn 0.264471 0.871318 0.413352
vn 0.419119 0.790126 0.447259
vn 0.593544 0.654046 0.468967
vn 0.767497 0.460321 0.446153
vn 0.903233 0.244358 0.352787
vn 0.977981 0.074943 0.194773
vn 0.941345 -0.337429 0.003335
vn 0.938867 -0.288837 -0.187354
vn 0.918955 -0.135673 -0.370290
vn 0.847914 0.104427 -0.519747
vn 0.706915 0.370397 -0.602559
vn 0.521938 0.588986 -0.616990
vn 0.333311 0.730532 -0.596008
vn 0.158486 0.804327 -0.572662
vn -0.005830 0.825681 -0.564107
vn -0.170378 0.800355 -0.574807
vn -0.345303 0.722303 -0.599203
vn -0.531958 0.577944 -0.618871
vn -0.711614 0.362695 -0.601713
vn -0.847961 0.106498 -0.519250
vn -0.918856 -0.127189 -0.373534
vn -0.939606 -0.282431 -0.193324
vn -0.941345 -0.337429 -0.003335
vn -0.938867 -0.288837 0.187354
vn -0.918955 -0.135672 0.370290
vn -0.847914 0.104428 0.519747
vn -0.706915 0.370397 0.602559
vn -0.521938 0.588986 0.616990
vn -0.333311 0.730533 0.596008
vn -0.158486 0.804327 0.572661
vn 0.005830 0.825681 0.564107
vn 0.170379 0.800355 0.574807
vn 0.345303 0.722303 0.599203
vn 0.531958 0.577944 0.618871
vn 0.711614 0.362695 0.601713
vn 0.847961 0.106498 0.519250
vn 0.918856 -0.127189 0.373534
vn 0.939606 -0.282431 0.193324
vn 0.796108 -0.605144 0.003594
vn 0.798848 -0.577331 -0.168909
vn 0.803860 -0.483336 -0.346691
vn 0.790078 -0.315368 -0.525662
vn 0.725606 -0.082712 -0.683121
vn 0.592121 0.167858 -0.788173
vn 0.406679 0.373419 -0.833769
vn 0.201421 0.498294 -0.843287
vn -0.005788 0.537611 -0.843173
vn -0.211934 0.494509 -0.842938
vn -0.413767 0.369768 -0.831906
vn -0.594645 0.171276 -0.785533
vn -0.726522 -0.069276 -0.683642
vn -0.793108 -0.298298 -0.531036
vn -0.808215 -0.470416 -0.354256
vn -0.801769 -0.571012 -0.176385
vn -0.796108 -0.605144 -0.003594
vn -0.798848 -0.577331 0.168909
vn -0.803860 -0.483336 0.346692
vn -0.790078 -0.315368 0.525662
vn -0.725606 -0.082712 0.683122
vn -0.592120 0.167858 0.788173
vn -0.406678 0.373419 0.833769
vn -0.201420 0.498295 0.843287
vn 0.005788 0.537612 0.843172
vn 0.211934 0.494509 0.842938
vn 0.413767 0.369769 0.831906
vn 0.594645 0.171277 0.785533
vn 0.726522 -0.069275 0.683642
vn 0.793108 -0.298297 0.531036
vn 0.808215 -0.470416 0.354256
vn 0.801769 -0.571012 0.176385
vn 0.629215 -0.777222 0.003666
vn 0.629657 -0.763726 -0.142316
vn 0.631216 -0.717711 -0.294036
vn 0.624920 -0.634349 -0.455056
vn 0.594344 -0.510290 -0.621578
vn 0.519002 -0.354038 -0.778006
vn 0.386878 -0.195202 -0.901233
vn 0.206046 -0.076146 -0.975575
vn -0.000367 -0.029736 -0.999558
vn -0.206453 -0.066992 -0.976160
vn -0.387459 -0.177427 -0.904652
vn -0.521726 -0.331565 -0.786045
vn -0.599918 -0.489568 -0.632789
vn -0.631523 -0.619490 -0.466273
vn -0.636571 -0.708972 -0.303539
vn -0.632531 -0.759824 -0.150240
vn -0.629215 -0.777222 -0.003666
vn -0.629657 -0.763726 0.142316
vn -0.631216 -0.717711 0.294036
vn -0.624920 -0.634349 0.455056
vn -0.594344 -0.510289 0.621578
vn -0.519002 -0.354038 0.778006
vn -0.386878 -0.195201 0.901234
vn -0.206046 -0.076145 0.975575
vn 0.000367 -0.029735 0.999558
vn 0.206453 -0.066992 0.976160
vn 0.387459 -0.177426 0.904652
vn 0.521726 -0.331564 0.786045
vn 0.599919 -0.489567 0.632789
vn 0.631523 -0.619490 0.466273
vn 0.636571 -0.708972 0.303539
vn 0.632531 -0.759824 0.150240
vn 0.474483 -0.880257 0.003732
vn 0.471886 -0.874343 -0.113347
vn 0.464946 -0.854188 -0.232784
vn 0.449399 -0.819204 -0.356294
vn 0.418010 -0.769504 -0.482837
vn 0.361526 -0.708116 -0.606523
vn 0.271981 -0.643777 -0.715247
vn 0.148504 -0.591621 -0.792421
vn 0.002125 -0.568279 -0.822833
vn -0.145858 -0.582616 -0.799553
vn -0.272953 -0.629648 -0.727352
vn -0.365778 -0.693695 -0.620478
vn -0.423758 -0.757850 -0.496077
vn -0.454877 -0.811146 -0.367599
vn -0.469045 -0.849342 -0.242104
vn -0.474050 -0.872103 -0.121293
vn -0.474483 -0.880257 -0.003732
vn -0.471886 -0.874343 0.113348
vn -0.464945 -0.854188 0.232784
vn -0.449399 -0.819204 0.356294
vn -0.418010 -0.769504 0.482837
vn -0.361526 -0.708116 0.606524
vn -0.271981 -0.643776 0.715247
vn -0.148503 -0.591621 0.792421
vn -0.002125 -0.568278 0.822834
vn 0.145858 -0.582615 0.799553
vn 0.272953 -0.629647 0.727352
vn 0.365778 -0.693695 0.620479
vn 0.423758 -0.757850 0.496077
vn 0.454877 -0.811146 0.367599
vn 0.469045 -0.849342 0.242104
vn 0.474050 -0.872103 0.121294
vn 0.338385 -0.941000 0.003845
vn 0.334292 -0.938719 -0.084003
vn 0.323229 -0.930634 -0.171589
vn 0.303483 -0.917141 -0.258359
vn 0.272397 -0.899167 -0.342489
vn 0.227024 -0.878554 -0.420242
vn 0.165352 -0.858371 -0.485651
vn 0.088125 -0.842728 -0.531077
vn 0.000547 -0.835669 -0.549233
vn -0.087976 -0.839370 -0.536393
vn -0.167250 -0.852867 -0.494617
vn -0.230653 -0.872503 -0.430742
vn -0.276731 -0.893770 -0.352980
vn -0.307563 -0.912987 -0.268066
vn -0.326365 -0.927885 -0.180321
vn -0.335998 -0.937361 -0.091977
vn -0.338385 -0.941000 -0.003845
vn -0.334292 -0.938719 0.084003
vn -0.323229 -0.930634 0.171589
vn -0.303483 -0.917141 0.258359
vn -0.272397 -0.899167 0.342489
vn -0.227024 -0.878554 0.420242
vn -0.165352 -0.858371 0.485652
vn -0.088125 -0.842728 0.531078
vn -0.000547 -0.835669 0.549233
vn 0.087976 -0.839370 0.536393
vn 0.167250 -0.852867 0.494617
vn 0.230654 -0.872502 0.430742
vn 0.276731 -0.893770 0.352980
vn 0.307563 -0.912987 0.268066
vn 0.326365 -0.927885 0.180321
vn 0.335998 -0.937361 0.091977
vn 0.217461 -0.976061 0.003973
vn 0.213504 -0.975412 -0.054649
vn 0.203193 -0.972708 -0.112039
vn 0.186268 -0.968218 -0.166906
vn 0.162332 -0.962448 -0.217584
vn 0.131081 -0.956147 -0.261916
vn 0.092629 -0.950282 -0.297296
vn 0.047947 -0.945896 -0.320908
vn -0.000686 -0.943876 -0.330298
vn -0.049736 -0.944678 -0.324207
vn -0.095342 -0.948149 -0.303188
vn -0.134602 -0.953569 -0.269423
vn -0.166162 -0.959885 -0.225855
vn -0.189841 -0.966029 -0.175353
vn -0.205982 -0.971129 -0.120329
vn -0.215046 -0.974589 -0.062703
vn -0.217461 -0.976061 -0.003973
vn -0.213505 -0.975412 0.054649
vn -0.203193 -0.972708 0.112039
vn -0.186268 -0.968218 0.166906
vn -0.162332 -0.962448 0.217584
vn -0.131081 -0.956147 0.261916
vn -0.092628 -0.950282 0.297296
vn -0.047947 -0.945896 0.320908
vn 0.000686 -0.943876 0.330298
vn 0.049736 -0.944678 0.324207
vn 0.095342 -0.948149 0.303188
vn 0.134602 -0.953569 0.269423
vn 0.166161 -0.959885 0.225855
vn 0.189841 -0.966029 0.175353
vn 0.205982 -0.971129 0.120329
vn 0.215046 -0.974589 0.062703
vn 0.117226 -0.993091 0.005412
vn 0.113751 -0.993095 -0.028674
vn 0.105263 -0.992555 -0.061279
vn 0.092727 -0.991510 -0.091152
vn 0.077279 -0.990087 -0.117288
vn 0.059926 -0.988488 -0.138927
vn 0.041324 -0.986973 -0.155491
vn 0.021754 -0.985805 -0.166477
vn 0.001373 -0.985200 -0.171405
vn -0.019512 -0.985267 -0.169907
vn -0.040362 -0.985986 -0.161871
vn -0.060493 -0.987210 -0.147501
vn -0.079105 -0.988711 -0.127255
vn -0.095194 -0.990237 -0.101823
vn -0.107575 -0.991574 -0.072165
vn -0.115147 -0.992561 -0.039537
vn -0.117226 -0.993091 -0.005412
vn -0.113751 -0.993095 0.028674
vn -0.105263 -0.992555 0.061279
vn -0.092727 -0.991510 0.091153
vn -0.077279 -0.990087 0.117288
vn -0.059927 -0.988488 0.138927
vn -0.041324 -0.986973 0.155491
vn -0.021755 -0.985805 0.166477
vn -0.001373 -0.985200 0.171405
vn 0.019513 -0.985267 0.169907
vn 0.040362 -0.985986 0.161872
vn 0.060494 -0.987210 0.147501
vn 0.079105 -0.988711 0.127255
vn 0.095193 -0.990237 0.101824
vn 0.107575 -0.991574 0.072165
vn 0.115147 -0.992561 0.039537
vn 0.000000 -1.000000 0.000000
# 482 vertex normals

g Material_0
f 1/1/1 2/2/2 3/3/3
f 1/1/1 3/3/3 4/4/4
f 1/1/1 4/4/4 5/5/5
f 1/1/1 5/5/5 6/6/6
f 1/1/1 6/6/6 7/7/7
f 1/1/1 7/7/7 8/8/8
f 1/1/1 8/8/8 9/9/9
f 1/1/1 9/9/9 10/10/10
f 1/1/1 10/10/10 11/11/11
f 1/1/1 11/11/11 12/12/12
f 1/1/1 12/12/12 13/13/13
f 1/1/1 13/13/13 14/14/14
f 1/1/1 14/14/14 15/15/15
f 1/1/1 15/15/15 16/16/16
f 1/1/1 16/16/16 17/17/17
f 1/1/1 17/17/17 18/18/18
f 1/1/1 18/18/18 19/19/19
f 1/1/1 19/19/19 20/20/20
f 1/1/1 20/20/20 21/21/21
f 1/1/1 21/21/21 22/22/22
f 1/1/1 22/22/22 23/23/23
f 1/1/1 23/23/23 24/24/24
f 1/1/1 24/24/24 25/25/25
f 1/1/1 25/25/25 26/26/26
f 1/1/1 26/26/26 27/27/27
f 1/1/1 27/27/27 28/28/28
f 1/1/1 28/28/28 29/29/29
f 1/1/1 29/29/29 30/30/30
f 1/1/1 30/30/30 31/31/31
f 1/1/1 31/31/31 32/32/32
f 1/1/1 32/32/32 33/33/33
f 1/1/1 33/33/33 2/2/2
f 2/2/2 34/34/34 35/35/35
f 2/2/2 35/35/35 3/3/3
f 3/3/3 35/35/35 36/36/36
f 3/3/3 36/36/36 4/4/4
f 4/4/4 36/36/36 37/37/37
f 4/4/4 37/37/37 5/5/5
f 5/5/5 37/37/37 38/38/38
f 5/5/5 38/38/38 6/6/6
f 6/6/6 38/38/38 39/39/39
f 6/6/6 39/39/39 7/7/7
f 7/7/7 39/39/39 40/40/40
f 7/7/7 40/40/40 8/8/8
f 8/8/8 40/40/40 41/41/41
f 8/8/8 41/41/41 9/9/9
f 9/9/9 41/41/41 42/42/42
f 9/9/9 42/42/42 10/10/10
f 10/10/10 42/42/42 43/43/43
f 10/10/10 43/43/43 11/11/11
f 11/11/11 43/43/43 44/44/44
f 11/11/11 44/44/44 12/12/12
f 12/12/12 44/44/44 45/45/45
f 12/12/12 45/45/45 13/13/13
f 13/13/13 45/45/45 46/46/46
f 13/13/13 46/46/46 14/14/14
f 14/14/14 46/46/46 47/47/47
f 14/14/14 47/47/47 15/15/15
f 15/15/15 47/47/47 48/48/48
f 15/15/15 48/48/48 16/16/16
f 16/16/16 48/48/48 49/49/49
f 16/16/16 49/49/49 17/17/17
f 17/17/17 49/49/49 50/50/50
f 17/17/17 50/50/50 18/18/18
f 18/18/18 50/50/50 51/51/51
f 18/18/18 51/51/51 19/19/19
f 19/19/19 51/51/51 52/52/52
f 19/19/19 52/52/52 20/20/20
f 20/20/20 52/52/52 53/53/53
f 20/20/20 53/53/53 21/21/21
f 21/21/21 53/53/53 54/54/54
f 21/21/21 54/54/54 22/22/22
f 22/22/22 54/54/54 55/55/55
f 22/22/22 55/55/55 23/23/23
f 23/23/23 55/55/55 56/56/56
f 23/23/23 56/56/56 24/24/24
f 24/24/24 56/56/56 57/57/57
f 24/24/24 57/57/57 25/25/25
f 25/25/25 57/57/57 58/58/58
f 25/25/25 58/58/58 26/26/26
f 26/26/26 58/58/58 59/59/59
f 26/26/26 59/59/59 27/27/27
f 27/27/27 59/59/59 60/60/60
f 27/27/27 60/60/60 28/28/28
f 28/28/28 60/60/60 61/61/61
f 28/28/28 61/61/61 29/29/29
f 29/29/29 61/61/61 62/62/62
f 29/29/29 62/62/62 30/30/30
f 30/30/30 62/62/62 63/63/63
f 30/30/30 63/63/63 31/31/31
f 31/31/31 63/63/63 64/64/64
f 31/31/31 64/64/64 32/32/32
f 32/32/32 64/64/64 65/65/65
f 32/32/32 65/65/65 33/33/33
f 33/33/33 65/65/65 34/34/34
f 33/33/33 34/34/34 2/2/2
f 34/34/34 66/66/66 67/67/67
f 34/34/34 67/67/67 35/35/35
f 35/35/35 67/67/67 68/68/68
f 35/35/35 68/68/68 36/36/36
f 36/36/36 68/68/68 69/69/69
f 36/36/36 69/69/69 37/37/37
f 37/37/37 69/69/69 70/70/70
f 37/37/37 70/70/70 38/38/38
f 38/38/38 70/70/70 71/71/71
f 38/38/38 71/71/71 39/39/39
f 39/39/39 71/71/71 72/72/72
f 39/39/39 72/72/72 40/40/40
f 40/40/40 72/72/72 73/73/73
f 40/40/40 73/73/73 41/41/41
f 41/41/41 73/73/73 74/74/74
f 41/41/41 74/74/74 42/42/42
f 42/42/42 74/74/74 75/75/75
f 42/42/42 75/75/75 43/43/43
f 43/43/43 75/75/75 76/76/76
f 43/43/43 76/76/76 44/44/44
f 44/44/44 76/76/76 77/77/77
f 44/44/44 77/77/77 45/45/45
f 45/45/45 77/77/77 78/78/78
f 45/45/45 78/78/78 46/46/46
f 46/46/46 78/78/78 79/79/79
f 46/46/46 79/79/79 47/47/47
f 47/47/47 79/79/79 80/80/80
f 47/47/47 80/80/80 48/48/48
f 48/48/48 80/80/80 81/81/81
f 48/48/48 81/81/81 49/49/49
f 49/49/49 81/81/81 82/82/82
f 49/49/49 82/82/82 50/50/50
f 50/50/50 82/82/82 83/83/83
f 50/50/50 83/83/83 51/51/51
f 51/51/51 83/83/83 84/84/84
f 51/51/51 84/84/84 52/52/52
f 52/52/52 84/84/84 85/85/85
f 52/52/52 85/85/85 53/53/53
f 53/53/53 85/85/85 86/86/86
f 53/53/53 86/86/86 54/54/54
f 54/54/54 86/86/86 87/87/87
f 54/54/54 87/87/87 55/55/55
f 55/55/55 87/87/87 88/88/88
f 55/55/55 88/88/88 56/56/56
f 56/56/56 88/88/88 89/89/89
f 56/56/56 89/89/89 57/57/57
f 57/57/57 89/89/89 90/90/90
f 57/57/57 90/90/90 58/58/58
f 58/58/58 90/90/90 91/91/91
f 58/58/58 91/91/91 59/59/59
f 59/59/59 91/91/91 92/92/92
f 59/59/59 92/92/92 60/60/60
f 60/60/60 92/92/92 93/93/93
f 60/60/60 93/93/93 61/61/61
f 61/61/61 93/93/93 94/94/94
f 61/61/61 94/94/94 62/62/62
f 62/62/62 94/94/94 95/95/95
f 62/62/62 95/95/95 63/63/63
f 63/63/63 95/95/95 96/96/96
f 63/63/63 96/96/96 64/64/64
f 64/64/64 96/96/96 97/97/97
f 64/64/64 97/97/97 65/65/65
f 65/65/65 97/97/97 66/66/66
f 65/65/65 66/66/66 34/34/34
f 66/66/66 98/98/98 99/99/99
f 66/66/66 99/99/99 67/67/67
f 67/67/67 99/99/99 100/100/100
f 67/67/67 100/100/100 68/68/68
f 68/68/68 100/100/100 101/101/101
f 68/68/68 101/101/101 69/69/69
f 69/69/69 101/101/101 102/102/102
f 69/69/69 102/102/102 70/70/70
f 70/70/70 102/102/102 103/103/103
f 70/70/70 103/103/103 71/71/71
f 71/71/71 103/103/103 104/104/104
f 71/71/71 104/104/104 72/72/72
f 72/72/72 104/104/104 105/105/105
f 72/72/72 105/105/105 73/73/73
f 73/73/73 105/105/105 106/106/106
f 73/73/73 106/106/106 74/74/74
f 74/74/74 106/106/106 107/107/107
f 74/74/74 107/107/107 75/75/75
f 75/75/75 107/107/107 108/108/108
f 75/75/75 108/108/108 76/76/76
f 76/76/76 108/108/108 109/109/109
f 76/76/76 109/109/109 77/77/77
f 77/77/77 109/109/109 110/110/110
f 77/77/77 110/110/110 78/78/78
f 78/78/78 110/110/110 111/111/111
f 78/78/78 111/111/111 79/79/79
f 79/79/79 111/111/111 112/112/112
f 79/79/79 112/112/112 80/80/80
f 80/80/80 112/112/112 113/113/113
f 80/80/80 113/113/113 81/81/81
f 81/81/81 113/113/113 114/114/114
f 81/81/81 114/114/114 82/82/82
f 82/82/82 114/114/114 115/115/115
f 82/82/82 115/115/115 83/83/83
f 83/83/83 115/115/115 116/116/116
f 83/83/83 116/116/116 84/84/84
f 84/84/84 116/116/116 117/117/117
f 84/84/84 117/117/117 85/85/85
f 85/85/85 117/117/117 118/118/118
f 85/85/85 118/118/118 86/86/86
f 86/86/86 118/118/118 119/119/119
f 86/86/86 119/119/119 87/87/87
f 87/87/87 119/119/119 120/120/120
f 87/87/87 120/120/120 88/88/88
f 88/88/88 120/120/120 121/121/121
f 88/88/88 121/121/121 89/89/89
f 89/89/89 121/121/121 122/122/122
f 89/89/89 122/122/122 90/90/90
f 90/90/90 122/122/122 123/123/123
f 90/90/90 123/123/123 91/91/91
f 91/91/91 123/123/123 124/124/124
f 91/91/91 124/124/124 92/92/92
f 92/92/92 124/124/124 125/125/125
f 92/92/92 125/125/125 93/93/93
f 93/93/93 125/125/125 126/126/126
f 93/93/93 126/126/126 94/94/94
f 94/94/94 126/126/126 127/127/127
f 94/94/94 127/127/127 95/95/95
f 95/95/95 127/127/127 128/128/128
f 95/95/95 128/128/128 96/96/96
f 96/96/96 128/128/128 129/129/129
f 96/96/96 129/129/129 97/97/97
f 97/97/97 129/129/129 98/98/98
f 97/97/97 98/98/98 66/66/66
f 98/98/98 130/130/130 131/131/131
f 98/98/98 131/131/131 99/99/99
f 99/99/99 131/131/131 132/132/132
f 99/99/99 132/132/132 100/100/100
f 100/100/100 132/132/132 133/133/133
f 100/100/100 133/133/133 101/101/101
f 101/101/101 133/133/133 134/134/134
f 101/101/101 134/134/134 102/102/102
f 102/102/102 134/134/134 135/135/135
f 102/102/102 135/135/135 103/103/103
f 103/103/103 135/135/135 136/136/136
f 103/103/103 136/136/136 104/104/104
f 104/104/104 136/136/136 137/137/137
f 104/104/104 137/137/137 105/105/105
f 105/105/105 137/137/137 138/138/138
f 105/105/105 138/138/138 106/106/106
f 106/106/106 138/138/138 139/139/139
f 106/106/106 139/139/139 107/107/107
f 107/107/107 139/139/139 140/140/140
f 107/107/107 140/140/140 108/108/108
f 108/108/108 140/140/140 141/141/141
f 108/108/108 141/141/141 109/109/109
f 109/109/109 141/141/141 142/142/142
f 109/109/109 142/142/142 110/110/110
f 110/110/110 142/142/142 143/143/143
f 110/110/110 143/143/143 111/111/111
f 111/111/111 143/143/143 144/144/144
f 111/111/111 144/144/144 112/112/112
f 112/112/112 144/144/144 145/145/145
f 112/112/112 145/145/145 113/113/113
f 113/113/113 145/145/145 146/146/146
f 113/113/113 146/146/146 114/114/114
f 114/114/114 146/146/146 147/147/147
f 114/114/114 147/147/147 115/115/115
f 115/115/115 147/147/147 148/148/148
f 115/115/115 148/148/148 116/116/116
f 116/116/116 148/148/148 149/149/149
f 116/116/116 149/149/149 117/117/117
f 117/117/117 149/149/149 150/150/150
f 117/117/117 150/150/150 118/118/118
f 118/118/118 150/150/150 151/151/151
f 118/118/118 151/151/151 119/119/119
f 119/119/119 151/151/151 152/152/152
f 119/119/119 152/152/152 120/120/120
f 120/120/120 152/152/152 153/153/153
f 120/120/120 153/153/153 121/121/121
f 121/121/121 153/153/153 154/154/154
f 121/121/121 154/154/154 122/122/122
f 122/122/122 154/154/154 155/155/155
f 122/122/122 155/155/155 123/123/123
f 123/123/123 155/155/155 156/156/156
f 123/123/123 156/156/156 124/124/124
f 124/124/124 156/156/156 157/157/157
f 124/124/124 157/157/157 125/125/125
f 125/125/125 157/157/157 158/158/158
f 125/125/125 158/158/158 126/126/126
f 126/126/126 158/158/158 159/159/159
f 126/126/126 159/159/159 127/127/127
f 127/127/127 159/159/159 160/160/160
f 127/127/127 160/160/160 128/128/128
f 128/128/128 160/160/160 161/161/161
f 128/128/128 161/161/161 129/129/129
f 129/129/129 161/161/161 130/130/130
f 129/129/129 130/130/130 98/98/98
f 130/130/130 162/162/162 163/163/163
f 130/130/130 163/163/163 131/131/131
f 131/131/131 163/163/163 164/164/164
f 131/131/131 164/164/164 132/132/132
f 132/132/132 164/164/164 165/165/165
f 132/132/132 165/165/165 133/133/133
f 133/133/133 165/165/165 166/166/166
f 133/133/133 166/166/166 134/134/134
f 134/134/134 166/166/166 167/167/167
f 134/134/134 167/167/167 135/135/135
f 135/135/135 167/167/167 168/168/168
f 135/135/135 168/168/168 136/136/136
f 136/136/136 168/168/168 169/169/169
f 136/136/136 169/169/169 137/137/137
f 137/137/137 169/169/169 170/170/170
f 137/137/137 170/170/170 138/138/138
f 138/138/138 170/170/170 171/171/171
f 138/138/138 171/171/171 139/139/139
f 139/139/139 171/171/171 172/172/172
f 139/139/139 172/172/172 140/140/140
f 140/140/140 172/172/172 173/173/173
f 140/140/140 173/173/173 141/141/141
f 141/141/141 173/173/173 174/174/174
f 141/141/141 174/174/174 142/142/142
f 142/142/142 174/174/174 175/175/175
f 142/142/142 175/175/175 143/143/143
f 143/143/143 175/175/175 176/176/176
f 143/143/143 176/176/176 144/144/144
f 144/144/144 176/176/176 177/177/177
f 144/144/144 177/177/177 145/145/145
f 145/145/145 177/177/177 178/178/178
f 145/145/145 178/178/178 146/146/146
f 146/146/146 178/178/178 179/179/179
f 146/146/146 179/179/179 147/147/147
f 147/147/147 179/179/179 180/180/180
f 147/147/147 180/180/180 148/148/148
f 148/148/148 180/180/180 181/181/181
f 148/148/148 181/181/181 149/149/149
f 149/149/149 181/181/181 182/182/182
f 149/149/149 182/182/182 150/150/150
f 150/150/150 182/182/182 183/183/183
f 150/150/150 183/183/183 151/151/151
f 151/151/151 183/183/183 184/184/184
f 151/151/151 184/184/184 152/152/152
f 152/152/152 184/184/184 185/185/185
f 152/152/152 185/185/185 153/153/153
f 153/153/153 185/185/185 186/186/186
f 153/153/153 186/186/186 154/154/154
f 154/154/154 186/186/186 187/187/187
f 154/154/154 187/187/187 155/155/155
f 155/155/155 187/187/187 188/188/188
f 155/155/155 188/188/188 156/156/156
f 156/156/156 188/188/188 189/189/189
f 156/156/156 189/189/189 157/157/157
f 157/157/157 189/189/189 190/190/190
f 157/157/157 190/190/190 158/158/158
f 158/158/158 190/190/190 191/191/191
f 158/158/158 191/191/191 159/159/159
f 159/159/159 191/191/191 192/192/192
f 159/159/159 192/192/192 160/160/160
f 160/160/160 192/192/192 193/193/193
f 160/160/160 193/193/193 161/161/161
f 161/161/161 193/193/193 162/162/162
f 161/161/161 162/162/162 130/130/130
f 162/162/162 194/194/194 195/195/195
f 162/162/162 195/195/195 163/163/163
f 163/163/163 195/195/195 196/196/196
f 163/163/163 196/196/196 164/164/164
f 164/164/164 196/196/196 197/197/197
f 164/164/164 197/197/197 165/165/165
f 165/165/165 197/197/197 198/198/198
f 165/165/165 198/198/198 166/166/166
f 166/166/166 198/198/198 199/199/199
f 166/166/166 199/199/199 167/167/167
f 167/167/167 199/199/199 200/200/200
f 167/167/167 200/200/200 168/168/168
f 168/168/168 200/200/200 201/201/201
f 168/168/168 201/201/201 169/169/169
f 169/169/169 201/201/201 202/202/202
f 169/169/169 202/202/202 170/170/170
f 170/170/170 202/202/202 203/203/203
f 170/170/170 203/203/203 171/171/171
f 171/171/171 203/203/203 204/204/204
f 171/171/171 204/204/204 172/172/172
f 172/172/172 204/204/204 205/205/205
f 172/172/172 205/205/205 173/173/173
f 173/173/173 205/205/205 206/206/206
f 173/173/173 206/206/206 174/174/174
f 174/174/174 206/206/206 207/207/207
f 174/174/174 207/207/207 175/175/175
f 175/175/175 207/207/207 208/208/208
f 175/175/175 208/208/208 176/176/176
f 176/176/176 208/208/208 209/209/209
f 176/176/176 209/209/209 177/177/177
f 177/177/177 209/209/209 210/210/210
f 177/177/177 210/210/210 178/178/178
f 178/178/178 210/210/210 211/211/211
f 178/178/178 211/211/211 179/179/179
f 179/179/179 211/211/211 212/212/212
f 179/179/179 212/212/212 180/180/180
f 180/180/180 212/212/212 213/213/213
f 180/180/180 213/213/213 181/181/181
f 181/181/181 213/213/213 214/214/214
f 181/181/181 214/214/214 182/182/182
f 182/182/182 214/214/214 215/215/215
f 182/182/182 215/215/215 183/183/183
f 183/183/183 215/215/215 216/216/216
f 183/183/183 216/216/216 184/184/184
f 184/184/184 216/216/216 217/217/217
f 184/184/184 217/217/217 185/185/185
f 185/185/185 217/217/217 218/218/218
f 185/185/185 218/218/218 186/186/186
f 186/186/186 218/218/218 219/219/219
f 186/186/186 219/219/219 187/187/187
f 187/187/187 219/219/219 220/220/220
f 187/187/187 220/220/220 188/188/188
f 188/188/188 220/220/220 221/221/221
f 188/188/188 221/221/221 189/189/189
f 189/189/189 221/221/221 222/222/222
f 189/189/189 222/222/222 190/190/190
f 190/190/190 222/222/222 223/223/223
f 190/190/190 223/223/223 191/191/191
f 191/191/191 223/223/223 224/224/224
f 191/191/191 224/224/224 192/192/192
f 192/192/192 224/224/224 225/225/225
f 192/192/192 225/225/225 193/193/193
f 193/193/193 225/225/225 194/194/194
f 193/193/193 194/194/194 162/162/162
f 194/194/194 226/226/226 227/227/227
f 194/194/194 227/227/227 195/195/195
f 195/195/195 227/227/227 228/228/228
f 195/195/195 228/228/228 196/196/196
f 196/196/196 228/228/228 229/229/229
f 196/196/196 229/229/229 197/197/197
f 197/197/197 229/229/229 230/230/230
f 197/197/197 230/230/230 198/198/198
f 198/198/198 230/230/230 231/231/231
f 198/198/198 231/231/231 199/199/199
f 199/199/199 231/231/231 232/232/232
f 199/199/199 232/232/232 200/200/200
f 200/200/200 232/232/232 233/233/233
f 200/200/200 233/233/233 201/201/201
f 201/201/201 233/233/233 234/234/234
f 201/201/201 234/234/234 202/202/202
f 202/202/202 234/234/234 235/235/235
f 202/202/202 235/235/235 203/203/203
f 203/203/203 235/235/235 236/236/236
f 203/203/203 236/236/236 204/204/204
f 204/204/204 236/236/236 237/237/237
f 204/204/204 237/237/237 205/205/205
f 205/205/205 237/237/237 238/238/238
f 205/205/205 238/238/238 206/206/206
f 206/206/206 238/238/238 239/239/239
f 206/206/206 239/239/239 207/207/207
f 207/207/207 239/239/239 240/240/240
f 207/207/207 240/240/240 208/208/208
f 208/208/208 240/240/240 241/241/241
f 208/208/208 241/241/241 209/209/209
f 209/209/209 241/241/241 242/242/242
f 209/209/209 242/242/242 210/210/210
f 210/210/210 242/242/242 243/243/243
f 210/210/210 243/243/243 211/211/211
f 211/211/211 243/243/243 244/244/244
f 211/211/211 244/244/244 212/212/212
f 212/212/212 244/244/244 245/245/245
f 212/212/212 245/245/245 213/213/213
f 213/213/213 245/245/245 246/246/246
f 213/213/213 246/246/246 214/214/214
f 214/214/214 246/246/246 247/247/247
f 214/214/214 247/247/247 215/215/215
f 215/215/215 247/247/247 248/248/248
f 215/215/215 248/248/248 216/216/216
f 216/216/216 248/248/248 249/249/249
f 216/216/216 249/249/249 217/217/217
f 217/217/217 249/249/249 250/250/250
f 217/217/217 250/250/250 218/218/218
f 218/218/218 250/250/250 251/251/251
f 218/218/218 251/251/251 219/219/219
f 219/219/219 251/251/251 252/252/252
f 219/219/219 252/252/252 220/220/220
f 220/220/220 252/252/252 253/253/253
f 220/220/220 253/253/253 221/221/221
f 221/221/221 253/253/253 254/254/254
f 221/221/221 254/254/254 222/222/222
f 222/222/222 254/254/254 255/255/255
f 222/222/222 255/255/255 223/223/223
f 223/223/223 255/255/255 256/256/256
f 223/223/223 256/256/256 224/224/224
f 224/224/224 256/256/256 257/257/257
f 224/224/224 257/257/257 225/225/225
f 225/225/225 257/257/257 226/226/226
f 225/225/225 226/226/226 194/194/194
f 226/226/226 258/258/258 259/259/259
f 226/226/226 259/259/259 227/227/227
f 227/227/227 259/259/259 260/260/260
f 227/227/227 260/260/260 228/228/228
f 228/228/228 260/260/260 261/261/261
f 228/228/228 261/261/261 229/229/229
f 229/229/229 261/261/261 262/262/262
f 229/229/229 262/262/262 230/230/230
f 230/230/230 262/262/262 263/263/263
f 230/230/230 263/263/263 231/231/231
f 231/231/231 263/263/263 264/264/264
f 231/231/231 264/264/264 232/232/232
f 232/232/232 264/264/264 265/265/265
f 232/232/232 265/265/265 233/233/233
f 233/233/233 265/265/265 266/266/266
f 233/233/233 266/266/266 234/234/234
f 234/234/234 266/266/266 267/267/267
f 234/234/234 267/267/267 235/235/235
f 235/235/235 267/267/267 268/268/268
f 235/235/235 268/268/268 236/236/236
f 236/236/236 268/268/268 269/269/269
f 236/236/236 269/269/269 237/237/237
f 237/237/237 269/269/269 270/270/270
f 237/237/237 270/270/270 238/238/238
f 238/238/238 270/270/270 271/271/271
f 238/238/238 271/271/271 239/239/239
f 239/239/239 271/271/271 272/272/272
f 239/239/239 272/272/272 240/240/240
f 240/240/240 272/272/272 273/273/273
f 240/240/240 273/273/273 241/241/241
f 241/241/241 273/273/273 274/274/274
f 241/241/241 274/274/274 242/242/242
f 242/242/242 274/274/274 275/275/275
f 242/242/242 275/275/275 243/243/243
f 243/243/243 275/275/275 276/276/276
f 243/243/243 276/276/276 244/244/244
f 244/244/244 276/276/276 277/277/277
f 244/244/244 277/277/277 245/245/245
f 245/245/245 277/277/277 278/278/278
f 245/245/245 278/278/278 246/246/246
f 246/246/246 278/278/278 279/279/279
f 246/246/246 279/279/279 247/247/247
f 247/247/247 279/279/279 280/280/280
f 247/247/247 280/280/280 248/248/248
f 248/248/248 280/280/280 281/281/281
f 248/248/248 281/281/281 249/249/249
f 249/249/249 281/281/281 282/282/282
f 249/249/249 282/282/282 250/250/250
f 250/250/250 282/282/282 283/283/283
f 250/250/250 283/283/283 251/251/251
f 251/251/251 283/283/283 284/284/284
f 251/251/251 284/284/284 252/252/252
f 252/252/252 284/284/284 285/285/285
f 252/252/252 285/285/285 253/253/253
f 253/253/253 285/285/285 286/286/286
f 253/253/253 286/286/286 254/254/254
f 254/254/254 286/286/286 287/287/287
f 254/254/254 287/287/287 255/255/255
f 255/255/255 287/287/287 288/288/288
f 255/255/255 288/288/288 256/256/256
f 256/256/256 288/288/288 289/289/289
f 256/256/256 289/289/289 257/257/257
f 257/257/257 289/289/289 258/258/258
f 257/257/257 258/258/258 226/226/226
f 258/258/258 290/290/290 291/291/291
f 258/258/258 291/291/291 259/259/259
f 259/259/259 291/291/291 292/292/292
f 259/259/259 292/292/292 260/260/260
f 260/260/260 292/292/292 293/293/293
f 260/260/260 293/293/293 261/261/261
f 261/261/261 293/293/293 294/294/294
f 261/261/261 294/294/294 262/262/262
f 262/262/262 294/294/294 295/295/295
f 262/262/262 295/295/295 263/263/263
f 263/263/263 295/295/295 296/296/296
f 263/263/263 296/296/296 264/264/264
f 264/264/264 296/296/296 297/297/297
f 264/264/264 297/297/297 265/265/265
f 265/265/265 297/297/297 298/298/298
f 265/265/265 298/298/298 266/266/266
f 266/266/266 298/298/298 299/299/299
f 266/266/266 299/299/299 267/267/267
f 267/267/267 299/299/299 300/300/300
f 267/267/267 300/300/300 268/268/268
f 268/268/268 300/300/300 301/301/301
f 268/268/268 301/301/301 269/269/269
f 269/269/269 301/301/301 302/302/302
f 269/269/269 302/302/302 270/270/270
f 270/270/270 302/302/302 303/303/303
f 270/270/270 303/303/303 271/271/271
f 271/271/271 303/303/303 304/304/304
f 271/271/271 304/304/304 272/272/272
f 272/272/272 304/304/304 305/305/305
f 272/272/272 305/305/305 273/273/273
f 273/273/273 305/305/305 306/306/306
f 273/273/273 306/306/306 274/274/274
f 274/274/274 306/306/306 307/307/307
f 274/274/274 307/307/307 275/275/275
f 275/275/275 307/307/307 308/308/308
f 275/275/275 308/308/308 276/276/276
f 276/276/276 308/308/308 309/309/309
f 276/276/276 309/309/309 277/277/277
f 277/277/277 309/309/309 310/310/310
f 277/277/277 310/310/310 278/278/278
f 278/278/278 310/310/310 311/311/311
f 278/278/278 311/311/311 279/279/279
f 279/279/279 311/311/311 312/312/312
f 279/279/279 312/312/312 280/280/280
f 280/280/280 312/312/312 313/313/313
f 280/280/280 313/313/313 281/281/281
f 281/281/281 313/313/313 314/314/314
f 281/281/281 314/314/314 282/282/282
f 282/282/282 314/314/314 315/315/315
f 282/282/282 315/315/315 283/283/283
f 283/283/283 315/315/315 316/316/316
f 283/283/283 316/316/316 284/284/284
f 284/284/284 316/316/316 317/317/317
f 284/284/284 317/317/317 285/285/285
f 285/285/285 317/317/317 318/318/318
f 285/285/285 318/318/318 286/286/286
f 286/286/286 318/318/318 319/319/319
f 286/286/286 319/319/319 287/287/287
f 287/287/287 319/319/319 320/320/320
f 287/287/287 320/320/320 288/288/288
f 288/288/288 320/320/320 321/321/321
f 288/288/288 321/321/321 289/289/289
f 289/289/289 321/321/321 290/290/290
f 289/289/289 290/290/290 258/258/258
f 290/290/290 322/322/322 323/323/323
f 290/290/290 323/323/323 291/291/291
f 291/291/291 323/323/323 324/324/324
f 291/291/291 324/324/324 292/292/292
f 292/292/292 324/324/324 325/325/325
f 292/292/292 325/325/325 293/293/293
f 293/293/293 325/325/325 326/326/326
f 293/293/293 326/326/326 294/294/294
f 294/294/294 326/326/326 327/327/327
f 294/294/294 327/327/327 295/295/295
f 295/295/295 327/327/327 328/328/328
f 295/295/295 328/328/328 296/296/296
f 296/296/296 328/328/328 329/329/329
f 296/296/296 329/329/329 297/297/297
f 297/297/297 329/329/329 330/330/330
f 297/297/297 330/330/330 298/298/298
f 298/298/298 330/330/330 331/331/331
f 298/298/298 331/331/331 299/299/299
f 299/299/299 331/331/331 332/332/332
f 299/299/299 332/332/332 300/300/300
f 300/300/300 332/332/332 333/333/333
f 300/300/300 333/333/333 301/301/301
f 301/301/301 333/333/333 334/334/334
f 301/301/301 334/334/334 302/302/302
f 302/302/302 334/334/334 335/335/335
f 302/302/302 335/335/335 303/303/303
f 303/303/303 335/335/335 336/336/336
f 303/303/303 336/336/336 304/304/304
f 304/304/304 336/336/336 337/337/337
f 304/304/304 337/337/337 305/305/305
f 305/305/305 337/337/337 338/338/338
f 305/305/305 338/338/338 306/306/306
f 306/306/306 338/338/338 339/339/339
f 306/306/306 339/339/339 307/307/307
f 307/307/307 339/339/339 340/340/340
f 307/307/307 340/340/340 308/308/308
f 308/308/308 340/340/340 341/341/341
f 308/308/308 341/341/341 309/309/309
f 309/309/309 341/341/341 342/342/342
f 309/309/309 342/342/342 310/310/310
f 310/310/310 342/342/342 343/343/343
f 310/310/310 343/343/343 311/311/311
f 311/311/311 343/343/343 344/344/344
f 311/311/311 344/344/344 312/312/312
f 312/312/312 344/344/344 345/345/345
f 312/312/312 345/345/345 313/313/313
f 313/313/313 345/345/345 346/346/346
f 313/313/313 346/346/346 314/314/314
f 314/314/314 346/346/346 347/347/347
f 314/314/314 347/347/347 315/315/315
f 315/315/315 347/347/347 348/348/348
f 315/315/315 348/348/348 316/316/316
f 316/316/316 348/348/348 349/349/349
f 316/316/316 349/349/349 317/317/317
f 317/317/317 349/349/349 350/350/350
f 317/317/317 350/350/350 318/318/318
f 318/318/318 350/350/350 351/351/351
f 318/318/318 351/351/351 319/319/319
f 319/319/319 351/351/351 352/352/352
f 319/319/319 352/352/352 320/320/320
f 320/320/320 352/352/352 353/353/353
f 320/320/320 353/353/353 321/321/321
f 321/321/321 353/353/353 322/322/322
f 321/321/321 322/322/322 290/290/290
f 322/322/322 354/354/354 355/355/355
f 322/322/322 355/355/355 323/323/323
f 323/323/323 355/355/355 356/356/356
f 323/323/323 356/356/356 324/324/324
f 324/324/324 356/356/356 357/357/357
f 324/324/324 357/357/357 325/325/325
f 325/325/325 357/357/357 358/358/358
f 325/325/325 358/358/358 326/326/326
f 326/326/326 358/358/358 359/359/359
f 326/326/326 359/359/359 327/327/327
f 327/327/327 359/359/359 360/360/360
f 327/327/327 360/360/360 328/328/328
f 328/328/328 360/360/360 361/361/361
f 328/328/328 361/361/361 329/329/329
f 329/329/329 361/361/361 362/362/362
f 329/329/329 362/362/362 330/330/330
f 330/330/330 362/362/362 363/363/363
f 330/330/330 363/363/363 331/331/331
f 331/331/331 363/363/363 364/364/364
f 331/331/331 364/364/364 332/332/332
f 332/332/332 364/364/364 365/365/365
f 332/332/332 365/365/365 333/333/333
f 333/333/333 365/365/365 366/366/366
f 333/333/333 366/366/366 334/334/334
f 334/334/334 366/366/366 367/367/367
f 334/334/334 367/367/367 335/335/335
f 335/335/335 367/367/367 368/368/368
f 335/335/335 368/368/368 336/336/336
f 336/336/336 368/368/368 369/369/369
f 336/336/336 369/369/369 337/337/337
f 337/337/337 369/369/369 370/370/370
f 337/337/337 370/370/370 338/338/338
f 338/338/338 370/370/370 371/371/371
f 338/338/338 371/371/371 339/339/339
f 339/339/339 371/371/371 372/372/372
f 339/339/339 372/372/372 340/340/340
f 340/340/340 372/372/372 373/373/373
f 340/340/340 373/373/373 341/341/341
f 341/341/341 373/373/373 374/374/374
f 341/341/341 374/374/374 342/342/342
f 342/342/342 374/374/374 375/375/375
f 342/342/342 375/375/375 343/343/343
f 343/343/343 375/375/375 376/376/376
f 343/343/343 376/376/376 344/344/344
f 344/344/344 376/376/376 377/377/377
f 344/344/344 377/377/377 345/345/345
f 345/345/345 377/377/377 378/378/378
f 345/345/345 378/378/378 346/346/346
f 346/346/346 378/378/378 379/379/379
f 346/346/346 379/379/379 347/347/347
f 347/347/347 379/379/379 380/380/380
f 347/347/347 380/380/380 348/348/348
f 348/348/348 380/380/380 381/381/381
f 348/348/348 381/381/381 349/349/349
f 349/349/349 381/381/381 382/382/382
f 349/349/349 382/382/382 350/350/350
f 350/350/350 382/382/382 383/383/383
f 350/350/350 383/383/383 351/351/351
f 351/351/351 383/383/383 384/384/384
f 351/351/351 384/384/384 352/352/352
f 352/352/352 384/384/384 385/385/385
f 352/352/352 385/385/385 353/353/353
f 353/353/353 385/385/385 354/354/354
f 353/353/353 354/354/354 322/322/322
f 354/354/354 386/386/386 387/387/387
f 354/354/354 387/387/387 355/355/355
f 355/355/355 387/387/387 388/388/388
f 355/355/355 388/388/388 356/356/356
f 356/356/356 388/388/388 389/389/389
f 356/356/356 389/389/389 357/357/357
f 357/357/357 389/389/389 390/390/390
f 357/357/357 390/390/390 358/358/358
f 358/358/358 390/390/390 391/391/391
f 358/358/358 391/391/391 359/359/359
f 359/359/359 391/391/391 392/392/392
f 359/359/359 392/392/392 360/360/360
f 360/360/360 392/392/392 393/393/393
f 360/360/360 393/393/393 361/361/361
f 361/361/361 393/393/393 394/394/394
f 361/361/361 394/394/394 362/362/362
f 362/362/362 394/394/394 395/395/395
f 362/362/362 395/395/395 363/363/363
f 363/363/363 395/395/395 396/396/396
f 363/363/363 396/396/396 364/364/364
f 364/364/364 396/396/396 397/397/397
f 364/364/364 397/397/397 365/365/365
f 365/365/365 397/397/397 398/398/398
f 365/365/365 398/398/398 366/366/366
f 366/366/366 398/398/398 399/399/399
f 366/366/366 399/399/399 367/367/367
f 367/367/367 399/399/399 400/400/400
f 367/367/367 400/400/400 368/368/368
f 368/368/368 400/400/400 401/401/401
f 368/368/368 401/401/401 369/369/369
f 369/369/369 401/401/401 402/402/402
f 369/369/369 402/402/402 370/370/370
f 370/370/370 402/402/402 403/403/403
f 370/370/370 403/403/403 371/371/371
f 371/371/371 403/403/403 404/404/404
f 371/371/371 404/404/404 372/372/372
f 372/372/372 404/404/404 405/405/405
f 372/372/372 405/405/405 373/373/373
f 373/373/373 405/405/405 406/406/406
f 373/373/373 406/406/406 374/374/374
f 374/374/374 406/406/406 407/407/407
f 374/374/374 407/407/407 375/375/375
f 375/375/375 407/407/407 408/408/408
f 375/375/375 408/408/408 376/376/376
f 376/376/376 408/408/408 409/409/409
f 376/376/376 409/409/409 377/377/377
f 377/377/377 409/409/409 410/410/410
f 377/377/377 410/410/410 378/378/378
f 378/378/378 410/410/410 411/411/411
f 378/378/378 411/411/411 379/379/379
f 379/379/379 411/411/411 412/412/412
f 379/379/379 412/412/412 380/380/380
f 380/380/380 412/412/412 413/413/413
f 380/380/380 413/413/413 381/381/381
f 381/381/381 413/413/413 414/414/414
f 381/381/381 414/414/414 382/382/382
f 382/382/382 414/414/414 415/415/415
f 382/382/382 415/415/415 383/383/383
f 383/383/383 415/415/415 416/416/416
f 383/383/383 416/416/416 384/384/384
f 384/384/384 416/416/416 417/417/417
f 384/384/384 417/417/417 385/385/385
f 385/385/385 417/417/417 386/386/386
f 385/385/385 386/386/386 354/354/354
f 386/386/386 418/418/418 419/419/419
f 386/386/386 419/419/419 387/387/387
f 387/387/387 419/419/419 420/420/420
f 387/387/387 420/420/420 388/388/388
f 388/388/388 420/420/420 421/421/421
f 388/388/388 421/421/421 389/389/389
f 389/389/389 421/421/421 422/422/422
f 389/389/389 422/422/422 390/390/390
f 390/390/390 422/422/422 423/423/423
f 390/390/390 423/423/423 391/391/391
f 391/391/391 423/423/423 424/424/424
f 391/391/391 424/424/424 392/392/392
f 392/392/392 424/424/424 425/425/425
f 392/392/392 425/425/425 393/393/393
f 393/393/393 425/425/425 426/426/426
f 393/393/393 426/426/426 394/394/394
f 394/394/394 426/426/426 427/427/427
f 394/394/394 427/427/427 395/395/395
f 395/395/395 427/427/427 428/428/428
f 395/395/395 428/428/428 396/396/396
f 396/396/396 428/428/428 429/429/429
f 396/396/396 429/429/429 397/397/397
f 397/397/397 429/429/429 430/430/430
f 397/397/397 430/430/430 398/398/398
f 398/398/398 430/430/430 431/431/431
f 398/398/398 431/431/431 399/399/399
f 399/399/399 431/431/431 432/432/432
f 399/399/399 432/432/432 400/400/400
f 400/400/400 432/432/432 433/433/433
f 400/400/400 433/433/433 401/401/401
f 401/401/401 433/433/433 434/434/434
f 401/401/401 434/434/434 402/402/402
f 402/402/402 434/434/434 435/435/435
f 402/402/402 435/435/435 403/403/403
f 403/403/403 435/435/435 436/436/436
f 403/403/403 436/436/436 404/404/404
f 404/404/404 436/436/436 437/437/437
f 404/404/404 437/437/437 405/405/405
f 405/405/405 437/437/437 438/438/438
f 405/405/405 438/438/438 406/406/406
f 406/406/406 438/438/438 439/439/439
f 406/406/406 439/439/439 407/407/407
f 407/407/407 439/439/439 440/440/440
f 407/407/407 440/440/440 408/408/408
f 408/408/408 440/440/440 441/441/441
f 408/408/408 441/441/441 409/409/409
f 409/409/409 441/441/441 442/442/442
f 409/409/409 442/442/442 410/410/410
f 410/410/410 442/442/442 443/443/443
f 410/410/410 443/443/443 411/411/411
f 411/411/411 443/443/443 444/444/444
f 411/411/411 444/444/444 412/412/412
f 412/412/412 444/444/444 445/445/445
f 412/412/412 445/445/445 413/413/413
f 413/413/413 445/445/445 446/446/446
f 413/413/413 446/446/446 414/414/414
f 414/414/414 446/446/446 447/447/447
f 414/414/414 447/447/447 415/415/415
f 415/415/415 447/447/447 448/448/448
f 415/415/415 448/448/448 416/416/416
f 416/416/416 448/448/448 449/449/449
f 416/416/416 449/449/449 417/417/417
f 417/417/417 449/449/449 418/418/418
f 417/417/417 418/418/418 386/386/386
f 418/418/418 450/450/450 451/451/451
f 418/418/418 451/451/451 419/419/419
f 419/419/419 451/451/451 452/452/452
f 419/419/419 452/452/452 420/420/420
f 420/420/420 452/452/452 453/453/453
f 420/420/420 453/453/453 421/421/421
f 421/421/421 453/453/453 454/454/454
f 421/421/421 454/454/454 422/422/422
f 422/422/422 454/454/454 455/455/455
f 422/422/422 455/455/455 423/423/423
f 423/423/423 455/455/455 456/456/456
f 423/423/423 456/456/456 424/424/424
f 424/424/424 456/456/456 457/457/457
f 424/424/424 457/457/457 425/425/425
f 425/425/425 457/457/457 458/458/458
f 425/425/425 458/458/458 426/426/426
f 426/426/426 458/458/458 459/459/459
f 426/426/426 459/459/459 427/427/427
f 427/427/427 459/459/459 460/460/460
f 427/427/427 460/460/460 428/428/428
f 428/428/428 460/460/460 461/461/461
f 428/428/428 461/461/461 429/429/429
f 429/429/429 461/461/461 462/462/462
f 429/429/429 462/462/462 430/430/430
f 430/430/430 462/462/462 463/463/463
f 430/430/430 463/463/463 431/431/431
f 431/431/431 463/463/463 464/464/464
f 431/431/431 464/464/464 432/432/432
f 432/432/432 464/464/464 465/465/465
f 432/432/432 465/465/465 433/433/433
f 433/433/433 465/465/465 466/466/466
f 433/433/433 466/466/466 434/434/434
f 434/434/434 466/466/466 467/467/467
f 434/434/434 467/467/467 435/435/435
f 435/435/435 467/467/467 468/468/468
f 435/435/435 468/468/468 436/436/436
f 436/436/436 468/468/468 469/469/469
f 436/436/436 469/469/469 437/437/437
f 437/437/437 469/469/469 470/470/470
f 437/437/437 470/470/470 438/438/438
f 438/438/438 470/470/470 471/471/471
f 438/438/438 471/471/471 439/439/439
f 439/439/439 471/471/471 472/472/472
f 439/439/439 472/472/472 440/440/440
f 440/440/440 472/472/472 473/473/473
f 440/440/440 473/473/473 441/441/441
f 441/441/441 473/473/473 474/474/474
f 441/441/441 474/474/474 442/442/442
f 442/442/442 474/474/474 475/475/475
f 442/442/442 475/475/475 443/443/443
f 443/443/443 475/475/475 476/476/476
f 443/443/443 476/476/476 444/444/444
f 444/444/444 476/476/476 477/477/477
f 444/444/444 477/477/477 445/445/445
f 445/445/445 477/477/477 478/478/478
f 445/445/445 478/478/478 446/446/446
f 446/446/446 478/478/478 479/479/479
f 446/446/446 479/479/479 447/447/447
f 447/447/447 479/479/479 480/480/480
f 447/447/447 480/480/480 448/448/448
f 448/448/448 480/480/480 481/481/481
f 448/448/448 481/481/481 449/449/449
f 449/449/449 481/481/481 450/450/450
f 449/449/449 450/450/450 418/418/418
f 482/482/482 451/451/451 450/450/450
f 482/482/482 452/452/452 451/451/451
f 482/482/482 453/453/453 452/452/452
f 482/482/482 454/454/454 453/453/453
f 482/482/482 455/455/455 454/454/454
f 482/482/482 456/456/456 455/455/455
f 482/482/482 457/457/457 456/456/456
f 482/482/482 458/458/458 457/457/457
f 482/482/482 459/459/459 458/458/458
f 482/482/482 460/460/460 459/459/459
f 482/482/482 461/461/461 460/460/460
f 482/482/482 462/462/462 461/461/461
f 482/482/482 463/463/463 462/462/462
f 482/482/482 464/464/464 463/463/463
f 482/482/482 465/465/465 464/464/464
f 482/482/482 466/466/466 465/465/465
f 482/482/482 467/467/467 466/466/466
f 482/482/482 468/468/468 467/467/467
f 482/482/482 469/469/469 468/468/468
f 482/482/482 470/470/470 469/469/469
f 482/482/482 471/471/471 470/470/470
f 482/482/482 472/472/472 471/471/471
f 482/482/482 473/473/473 472/472/472
f 482/482/482 474/474/474 473/473/473
f 482/482/482 475/475/475 474/474/474
f 482/482/482 476/476/476 475/475/475
f 482/482/482 477/477/477 476/476/476
f 482/482/482 478/478/478 477/477/477
f 482/482/482 479/479/479 478/478/478
f 482/482/482 480/480/480 479/479/479
f 482/482/482 481/481/481 480/480/480
f 482/482/482 450/450/450 481/481/481
# 960 faces

