v -0.149663 0.000000 -0.270059
v -0.149663 -0.057415 -0.344541
v -0.149663 -0.095691 -0.344541
v -0.149663 -0.019138 -0.344541
v -0.149663 0.019138 -0.344541
v -0.149663 0.057415 -0.344541
v -0.149663 0.095691 -0.344541
v -0.149663 0.095691 -0.195577
v -0.149663 0.057415 -0.195577
v -0.149663 0.019138 -0.195577
v -0.149663 -0.019138 -0.195577
v -0.149663 -0.057415 -0.195577
v -0.149663 -0.095691 -0.195577
v -0.149663 0.000000 0.270059
v -0.149663 -0.095691 0.344541
v -0.149663 -0.057415 0.344541
v -0.149663 -0.019138 0.344541
v -0.149663 0.019138 0.344541
v -0.149663 0.057415 0.344541
v -0.149663 0.095691 0.344541
v -0.149663 0.095691 0.195577
v -0.149663 0.057415 0.195577
v -0.149663 0.019138 0.195577
v -0.149663 -0.019138 0.195577
v -0.149663 -0.057415 0.195577
v -0.149663 -0.095691 0.195577
v -0.149663 -0.095691 -0.344541
v -0.089834 -0.057415 -0.339307
v -0.089834 -0.095691 -0.339307
v -0.149663 -0.057415 -0.344541
v -0.089834 -0.019138 -0.339307
v -0.149663 -0.019138 -0.344541
v -0.089834 0.019138 -0.339307
v -0.149663 0.019138 -0.344541
v -0.089834 0.057415 -0.339307
v -0.149663 0.057415 -0.344541
v -0.089834 0.095691 -0.339307
v -0.149663 0.095691 -0.344541
v -0.149663 0.095691 -0.195577
v -0.115701 0.057415 -0.192606
v -0.115701 0.095691 -0.192606
v -0.149663 0.057415 -0.195577
v -0.115701 0.019138 -0.192606
v -0.149663 0.019138 -0.195577
v -0.115701 -0.019138 -0.192606
v -0.149663 -0.019138 -0.195577
v -0.115701 -0.057415 -0.192606
v -0.149663 -0.057415 -0.195577
v -0.115701 -0.095691 -0.192606
v -0.149663 -0.095691 -0.195577
v -0.031823 -0.057415 -0.323763
v -0.031823 -0.095691 -0.323763
v -0.031823 -0.019138 -0.323763
v -0.031823 0.019138 -0.323763
v -0.031823 0.057415 -0.323763
v -0.031823 0.095691 -0.323763
v -0.082771 0.057415 -0.183783
v -0.082771 0.095691 -0.183783
v -0.082771 0.019138 -0.183783
v -0.082771 -0.019138 -0.183783
v -0.082771 -0.057415 -0.183783
v -0.082771 -0.095691 -0.183783
v 0.022608 -0.057415 -0.298381
v 0.022608 -0.095691 -0.298381
v 0.022608 -0.019138 -0.298381
v 0.022608 0.019138 -0.298381
v 0.022608 0.057415 -0.298381
v 0.022608 0.095691 -0.298381
v -0.051874 0.057415 -0.169375
v -0.051874 0.095691 -0.169375
v -0.051874 0.019138 -0.169375
v -0.051874 -0.019138 -0.169375
v -0.051874 -0.057415 -0.169375
v -0.051874 -0.095691 -0.169375
v 0.071804 -0.057415 -0.263934
v 0.071804 -0.095691 -0.263934
v 0.071804 -0.019138 -0.263934
v 0.071804 0.019138 -0.263934
v 0.071804 0.057415 -0.263934
v 0.071804 0.095691 -0.263934
v -0.023948 0.057415 -0.149821
v -0.023948 0.095691 -0.149821
v -0.023948 0.019138 -0.149821
v -0.023948 -0.019138 -0.149821
v -0.023948 -0.057415 -0.149821
v -0.023948 -0.095691 -0.149821
v 0.114271 -0.057415 -0.221467
v 0.114271 -0.095691 -0.221467
v 0.114271 -0.019138 -0.221467
v 0.114271 0.019138 -0.221467
v 0.114271 0.057415 -0.221467
v 0.114271 0.095691 -0.221467
v 0.000158 0.057415 -0.125715
v 0.000158 0.095691 -0.125715
v 0.000158 0.019138 -0.125715
v 0.000158 -0.019138 -0.125715
v 0.000158 -0.057415 -0.125715
v 0.000158 -0.095691 -0.125715
v 0.148719 -0.057415 -0.172270
v 0.148719 -0.095691 -0.172270
v 0.148719 -0.019138 -0.172270
v 0.148719 0.019138 -0.172270
v 0.148719 0.057415 -0.172270
v 0.148719 0.095691 -0.172270
v 0.019712 0.057415 -0.097789
v 0.019712 0.095691 -0.097789
v 0.019712 0.019138 -0.097789
v 0.019712 -0.019138 -0.097789
v 0.019712 -0.057415 -0.097789
v 0.019712 -0.095691 -0.097789
v 0.174100 -0.057415 -0.117840
v 0.174100 -0.095691 -0.117840
v 0.174100 -0.019138 -0.117840
v 0.174100 0.019138 -0.117840
v 0.174100 0.057415 -0.117840
v 0.174100 0.095691 -0.117840
v 0.034120 0.057415 -0.066891
v 0.034120 0.095691 -0.066891
v 0.034120 0.019138 -0.066891
v 0.034120 -0.019138 -0.066891
v 0.034120 -0.057415 -0.066891
v 0.034120 -0.095691 -0.066891
v 0.189644 -0.057415 -0.059829
v 0.189644 -0.095691 -0.059829
v 0.189644 -0.019138 -0.059829
v 0.189644 0.019138 -0.059829
v 0.189644 0.057415 -0.059829
v 0.189644 0.095691 -0.059829
v 0.042943 0.057415 -0.033962
v 0.042943 0.095691 -0.033962
v 0.042943 0.019138 -0.033962
v 0.042943 -0.019138 -0.033962
v 0.042943 -0.057415 -0.033962
v 0.042943 -0.095691 -0.033962
v 0.194878 -0.057415 0.000000
v 0.194878 -0.095691 0.000000
v 0.194878 -0.019138 0.000000
v 0.194878 0.019138 0.000000
v 0.194878 0.057415 0.000000
v 0.194878 0.095691 0.000000
v 0.045915 0.057415 0.000000
v 0.045915 0.095691 0.000000
v 0.045915 0.019138 0.000000
v 0.045915 -0.019138 0.000000
v 0.045915 -0.057415 0.000000
v 0.045915 -0.095691 0.000000
v 0.189644 -0.057415 0.059829
v 0.189644 -0.095691 0.059829
v 0.189644 -0.019138 0.059829
v 0.189644 0.019138 0.059829
v 0.189644 0.057415 0.059829
v 0.189644 0.095691 0.059829
v 0.042943 0.057415 0.033962
v 0.042943 0.095691 0.033962
v 0.042943 0.019138 0.033962
v 0.042943 -0.019138 0.033962
v 0.042943 -0.057415 0.033962
v 0.042943 -0.095691 0.033962
v 0.174100 -0.057415 0.117840
v 0.174100 -0.095691 0.117840
v 0.174100 -0.019138 0.117840
v 0.174100 0.019138 0.117840
v 0.174100 0.057415 0.117840
v 0.174100 0.095691 0.117840
v 0.034120 0.057415 0.066891
v 0.034120 0.095691 0.066891
v 0.034120 0.019138 0.066891
v 0.034120 -0.019138 0.066891
v 0.034120 -0.057415 0.066891
v 0.034120 -0.095691 0.066891
v 0.148719 -0.057415 0.172271
v 0.148719 -0.095691 0.172271
v 0.148719 -0.019138 0.172271
v 0.148719 0.019138 0.172271
v 0.148719 0.057415 0.172271
v 0.148719 0.095691 0.172271
v 0.019712 0.057415 0.097789
v 0.019712 0.095691 0.097789
v 0.019712 0.019138 0.097789
v 0.019712 -0.019138 0.097789
v 0.019712 -0.057415 0.097789
v 0.019712 -0.095691 0.097789
v 0.114271 -0.057415 0.221467
v 0.114271 -0.095691 0.221467
v 0.114271 -0.019138 0.221467
v 0.114271 0.019138 0.221467
v 0.114271 0.057415 0.221467
v 0.114271 0.095691 0.221467
v 0.000158 0.057415 0.125715
v 0.000158 0.095691 0.125715
v 0.000158 0.019138 0.125715
v 0.000158 -0.019138 0.125715
v 0.000158 -0.057415 0.125715
v 0.000158 -0.095691 0.125715
v 0.071804 -0.057415 0.263934
v 0.071804 -0.095691 0.263934
v 0.071804 -0.019138 0.263934
v 0.071804 0.019138 0.263934
v 0.071804 0.057415 0.263934
v 0.071804 0.095691 0.263934
v -0.023948 0.057415 0.149821
v -0.023948 0.095691 0.149821
v -0.023948 0.019138 0.149821
v -0.023948 -0.019138 0.149821
v -0.023948 -0.057415 0.149821
v -0.023948 -0.095691 0.149821
v 0.022608 -0.057415 0.298381
v 0.022608 -0.095691 0.298381
v 0.022608 -0.019138 0.298381
v 0.022608 0.019138 0.298381
v 0.022608 0.057415 0.298381
v 0.022608 0.095691 0.298381
v -0.051874 0.057415 0.169375
v -0.051874 0.095691 0.169375
v -0.051874 0.019138 0.169375
v -0.051874 -0.019138 0.169375
v -0.051874 -0.057415 0.169375
v -0.051874 -0.095691 0.169375
v -0.031823 -0.057415 0.323763
v -0.031823 -0.095691 0.323763
v -0.031823 -0.019138 0.323763
v -0.031823 0.019138 0.323763
v -0.031823 0.057415 0.323763
v -0.031823 0.095691 0.323763
v -0.082771 0.057415 0.183783
v -0.082771 0.095691 0.183783
v -0.082771 0.019138 0.183783
v -0.082771 -0.019138 0.183783
v -0.082771 -0.057415 0.183783
v -0.082771 -0.095691 0.183783
v -0.089834 -0.057415 0.339307
v -0.089834 -0.095691 0.339307
v -0.089834 -0.019138 0.339307
v -0.089834 0.019138 0.339307
v -0.089834 0.057415 0.339307
v -0.089834 0.095691 0.339307
v -0.115701 0.057415 0.192606
v -0.115701 0.095691 0.192606
v -0.115701 0.019138 0.192606
v -0.115701 -0.019138 0.192606
v -0.115701 -0.057415 0.192606
v -0.115701 -0.095691 0.192606
v -0.149663 -0.057415 0.344541
v -0.149663 -0.095691 0.344541
v -0.149663 -0.019138 0.344541
v -0.149663 0.019138 0.344541
v -0.149663 0.057415 0.344541
v -0.149663 0.095691 0.344541
v -0.149663 0.057415 0.195577
v -0.149663 0.095691 0.195577
v -0.149663 0.019138 0.195577
v -0.149663 -0.019138 0.195577
v -0.149663 -0.057415 0.195577
v -0.149663 -0.095691 0.195577
v -0.149663 0.095691 -0.344541
v -0.115701 0.095691 -0.192606
v -0.089834 0.095691 -0.339307
v -0.149663 0.095691 -0.195577
v -0.149663 -0.095691 -0.195577
v -0.089834 -0.095691 -0.339307
v -0.115701 -0.095691 -0.192606
v -0.149663 -0.095691 -0.344541
v -0.082771 0.095691 -0.183783
v -0.031823 0.095691 -0.323763
v -0.031823 -0.095691 -0.323763
v -0.082771 -0.095691 -0.183783
v -0.051874 0.095691 -0.169375
v 0.022608 0.095691 -0.298381
v 0.022608 -0.095691 -0.298381
v -0.051874 -0.095691 -0.169375
v -0.023948 0.095691 -0.149821
v 0.071804 0.095691 -0.263934
v 0.071804 -0.095691 -0.263934
v -0.023948 -0.095691 -0.149821
v 0.000158 0.095691 -0.125715
v 0.114271 0.095691 -0.221467
v 0.114271 -0.095691 -0.221467
v 0.000158 -0.095691 -0.125715
v 0.019712 0.095691 -0.097789
v 0.148719 0.095691 -0.172270
v 0.148719 -0.095691 -0.172270
v 0.019712 -0.095691 -0.097789
v 0.034120 0.095691 -0.066891
v 0.174100 0.095691 -0.117840
v 0.174100 -0.095691 -0.117840
v 0.034120 -0.095691 -0.066891
v 0.042943 0.095691 -0.033962
v 0.189644 0.095691 -0.059829
v 0.189644 -0.095691 -0.059829
v 0.042943 -0.095691 -0.033962
v 0.045915 0.095691 0.000000
v 0.194878 0.095691 0.000000
v 0.194878 -0.095691 0.000000
v 0.045915 -0.095691 0.000000
v 0.042943 0.095691 0.033962
v 0.189644 0.095691 0.059829
v 0.189644 -0.095691 0.059829
v 0.042943 -0.095691 0.033962
v 0.034120 0.095691 0.066891
v 0.174100 0.095691 0.117840
v 0.174100 -0.095691 0.117840
v 0.034120 -0.095691 0.066891
v 0.019712 0.095691 0.097789
v 0.148719 0.095691 0.172271
v 0.148719 -0.095691 0.172271
v 0.019712 -0.095691 0.097789
v 0.000158 0.095691 0.125715
v 0.114271 0.095691 0.221467
v 0.114271 -0.095691 0.221467
v 0.000158 -0.095691 0.125715
v -0.023948 0.095691 0.149821
v 0.071804 0.095691 0.263934
v 0.071804 -0.095691 0.263934
v -0.023948 -0.095691 0.149821
v -0.051874 0.095691 0.169375
v 0.022608 0.095691 0.298381
v 0.022608 -0.095691 0.298381
v -0.051874 -0.095691 0.169375
v -0.082771 0.095691 0.183783
v -0.031823 0.095691 0.323763
v -0.031823 -0.095691 0.323763
v -0.082771 -0.095691 0.183783
v -0.115701 0.095691 0.192606
v -0.089834 0.095691 0.339307
v -0.089834 -0.095691 0.339307
v -0.115701 -0.095691 0.192606
v -0.149663 0.095691 0.195577
v -0.149663 0.095691 0.344541
v -0.149663 -0.095691 0.344541
v -0.149663 -0.095691 0.195577
# 330 vertices

vn -1.000000 0.000000 0.000000
vn -1.000000 0.000000 0.000000
vn -1.000000 -0.000000 0.000000
vn -1.000000 0.000000 0.000000
vn -1.000000 0.000000 0.000000
vn -1.000000 0.000000 0.000000
vn -1.000000 0.000000 0.000000
vn -1.000000 0.000000 0.000000
vn -1.000000 0.000000 0.000000
vn -1.000000 0.000000 0.000000
vn -1.000000 0.000000 0.000000
vn -1.000000 0.000000 0.000000
vn -1.000000 -0.000000 0.000000
vn -1.000000 0.000000 -0.000000
vn -1.000000 0.000000 -0.000000
vn -1.000000 0.000000 -0.000000
vn -1.000000 0.000000 -0.000000
vn -1.000000 0.000000 -0.000000
vn -1.000000 0.000000 -0.000000
vn -1.000000 -0.000000 -0.000000
vn -1.000000 -0.000000 -0.000000
vn -1.000000 0.000000 -0.000000
vn -1.000000 0.000000 -0.000000
vn -1.000000 0.000000 -0.000000
vn -1.000000 0.000000 -0.000000
vn -1.000000 0.000000 -0.000000
vn 0.087155 0.000000 -0.996195
vn 0.173648 0.000000 -0.984808
vn 0.202282 0.000000 -0.979327
vn 0.087155 0.000000 -0.996195
vn 0.173648 0.000000 -0.984808
vn 0.087155 0.000000 -0.996195
vn 0.173648 0.000000 -0.984808
vn 0.087155 0.000000 -0.996195
vn 0.173648 0.000000 -0.984808
vn 0.087155 0.000000 -0.996195
vn 0.144867 0.000000 -0.989451
vn 0.087155 0.000000 -0.996195
vn -0.087156 0.000000 0.996195
vn -0.173648 0.000000 0.984808
vn -0.202282 0.000000 0.979327
vn -0.087156 0.000000 0.996195
vn -0.173648 0.000000 0.984808
vn -0.087156 0.000000 0.996195
vn -0.173648 0.000000 0.984808
vn -0.087156 0.000000 0.996195
vn -0.173648 0.000000 0.984808
vn -0.087156 0.000000 0.996195
vn -0.144867 0.000000 0.989451
vn -0.087156 0.000000 0.996195
vn 0.342020 0.000000 -0.939693
vn 0.369267 0.000000 -0.929323
vn 0.342020 0.000000 -0.939693
vn 0.342020 0.000000 -0.939693
vn 0.342020 0.000000 -0.939693
vn 0.314483 0.000000 -0.949263
vn -0.342020 0.000000 0.939693
vn -0.369267 0.000000 0.929323
vn -0.342020 0.000000 0.939693
vn -0.342020 0.000000 0.939693
vn -0.342020 0.000000 0.939693
vn -0.314482 0.000000 0.949263
vn 0.500000 0.000000 -0.866026
vn 0.525032 0.000000 -0.851082
vn 0.500000 0.000000 -0.866026
vn 0.500000 0.000000 -0.866026
vn 0.500000 0.000000 -0.866026
vn 0.474542 0.000000 -0.880233
vn -0.500000 0.000000 0.866025
vn -0.525033 0.000000 0.851082
vn -0.500000 0.000000 0.866025
vn -0.500000 0.000000 0.866025
vn -0.500000 0.000000 0.866025
vn -0.474542 0.000000 0.880233
vn 0.642788 0.000000 -0.766044
vn 0.664845 0.000000 -0.746981
vn 0.642788 0.000000 -0.766044
vn 0.642788 0.000000 -0.766044
vn 0.642788 0.000000 -0.766044
vn 0.620184 0.000000 -0.784456
vn -0.642788 0.000000 0.766044
vn -0.664845 0.000000 0.746981
vn -0.642788 0.000000 0.766044
vn -0.642788 0.000000 0.766044
vn -0.642788 0.000000 0.766044
vn -0.620184 0.000000 0.784456
vn 0.766045 0.000000 -0.642787
vn 0.784457 0.000000 -0.620184
vn 0.766045 0.000000 -0.642787
vn 0.766045 0.000000 -0.642787
vn 0.766045 0.000000 -0.642787
vn 0.746982 0.000000 -0.664845
vn -0.766044 0.000000 0.642788
vn -0.784457 0.000000 0.620184
vn -0.766044 0.000000 0.642788
vn -0.766044 0.000000 0.642788
vn -0.766044 0.000000 0.642788
vn -0.746981 0.000000 0.664845
vn 0.866025 0.000000 -0.500000
vn 0.880233 0.000000 -0.474543
vn 0.866025 0.000000 -0.500000
vn 0.866025 0.000000 -0.500000
vn 0.866025 0.000000 -0.500000
vn 0.851082 0.000000 -0.525033
vn -0.866025 0.000000 0.500000
vn -0.880233 0.000000 0.474542
vn -0.866025 0.000000 0.500000
vn -0.866025 0.000000 0.500000
vn -0.866025 0.000000 0.500000
vn -0.851082 0.000000 0.525033
vn 0.939693 0.000000 -0.342020
vn 0.949263 0.000000 -0.314482
vn 0.939693 0.000000 -0.342020
vn 0.939693 0.000000 -0.342020
vn 0.939693 0.000000 -0.342020
vn 0.929323 0.000000 -0.369267
vn -0.939693 0.000000 0.342020
vn -0.949263 0.000000 0.314482
vn -0.939693 0.000000 0.342020
vn -0.939693 0.000000 0.342020
vn -0.939693 0.000000 0.342020
vn -0.929323 0.000000 0.369267
vn 0.984808 0.000000 -0.173648
vn 0.989451 0.000000 -0.144867
vn 0.984808 0.000000 -0.173648
vn 0.984808 0.000000 -0.173648
vn 0.984808 0.000000 -0.173648
vn 0.979327 0.000000 -0.202282
vn -0.984808 0.000000 0.173648
vn -0.989451 0.000000 0.144867
vn -0.984808 0.000000 0.173648
vn -0.984808 0.000000 0.173648
vn -0.984808 0.000000 0.173648
vn -0.979327 0.000000 0.202282
vn 1.000000 0.000000 0.000000
vn 0.999575 0.000000 0.029151
vn 1.000000 0.000000 0.000000
vn 1.000000 0.000000 -0.000000
vn 1.000000 0.000000 0.000000
vn 0.999575 0.000000 -0.029151
vn -1.000000 0.000000 0.000000
vn -0.999575 0.000000 -0.029151
vn -1.000000 0.000000 0.000000
vn -1.000000 0.000000 0.000000
vn -1.000000 0.000000 0.000000
vn -0.999575 0.000000 0.029151
vn 0.984808 0.000000 0.173648
vn 0.979327 0.000000 0.202282
vn 0.984808 0.000000 0.173648
vn 0.984808 0.000000 0.173648
vn 0.984808 0.000000 0.173648
vn 0.989451 0.000000 0.144867
vn -0.984808 0.000000 -0.173648
vn -0.979327 0.000000 -0.202282
vn -0.984808 0.000000 -0.173648
vn -0.984808 0.000000 -0.173648
vn -0.984808 0.000000 -0.173648
vn -0.989451 0.000000 -0.144867
vn 0.939693 0.000000 0.342020
vn 0.929323 0.000000 0.369267
vn 0.939693 0.000000 0.342020
vn 0.939693 0.000000 0.342020
vn 0.939693 0.000000 0.342020
vn 0.949263 0.000000 0.314482
vn -0.939693 0.000000 -0.342020
vn -0.929323 0.000000 -0.369267
vn -0.939693 0.000000 -0.342020
vn -0.939693 0.000000 -0.342020
vn -0.939693 0.000000 -0.342020
vn -0.949263 0.000000 -0.314482
vn 0.866025 0.000000 0.500000
vn 0.851082 0.000000 0.525033
vn 0.866025 0.000000 0.500000
vn 0.866025 0.000000 0.500000
vn 0.866025 0.000000 0.500000
vn 0.880233 0.000000 0.474543
vn -0.866025 0.000000 -0.500000
vn -0.851082 0.000000 -0.525033
vn -0.866025 0.000000 -0.500000
vn -0.866025 0.000000 -0.500000
vn -0.866025 0.000000 -0.500000
vn -0.880233 0.000000 -0.474542
vn 0.766045 0.000000 0.642787
vn 0.746982 0.000000 0.664845
vn 0.766045 0.000000 0.642787
vn 0.766045 0.000000 0.642787
vn 0.766045 0.000000 0.642787
vn 0.784457 0.000000 0.620184
vn -0.766044 0.000000 -0.642788
vn -0.746981 0.000000 -0.664845
vn -0.766044 0.000000 -0.642788
vn -0.766044 0.000000 -0.642788
vn -0.766044 0.000000 -0.642788
vn -0.784457 0.000000 -0.620184
vn 0.642788 0.000000 0.766044
vn 0.620184 0.000000 0.784456
vn 0.642788 0.000000 0.766044
vn 0.642788 0.000000 0.766044
vn 0.642788 0.000000 0.766044
vn 0.664845 0.000000 0.746981
vn -0.642788 0.000000 -0.766044
vn -0.620184 0.000000 -0.784456
vn -0.642788 0.000000 -0.766044
vn -0.642788 0.000000 -0.766044
vn -0.642788 0.000000 -0.766044
vn -0.664845 0.000000 -0.746981
vn 0.500000 0.000000 0.866026
vn 0.474542 0.000000 0.880233
vn 0.500000 0.000000 0.866026
vn 0.500000 0.000000 0.866026
vn 0.500000 0.000000 0.866026
vn 0.525032 0.000000 0.851082
vn -0.500000 0.000000 -0.866025
vn -0.474542 0.000000 -0.880233
vn -0.500000 0.000000 -0.866025
vn -0.500000 0.000000 -0.866025
vn -0.500000 0.000000 -0.866025
vn -0.525033 0.000000 -0.851082
vn 0.342020 0.000000 0.939693
vn 0.314483 0.000000 0.949263
vn 0.342020 0.000000 0.939693
vn 0.342020 0.000000 0.939693
vn 0.342020 0.000000 0.939693
vn 0.369267 0.000000 0.929323
vn -0.342020 0.000000 -0.939693
vn -0.314482 0.000000 -0.949263
vn -0.342020 0.000000 -0.939693
vn -0.342020 0.000000 -0.939693
vn -0.342020 0.000000 -0.939693
vn -0.369267 0.000000 -0.929323
vn 0.173648 0.000000 0.984808
vn 0.144867 0.000000 0.989451
vn 0.173648 0.000000 0.984808
vn 0.173648 0.000000 0.984808
vn 0.173648 0.000000 0.984808
vn 0.202282 0.000000 0.979327
vn -0.173648 0.000000 -0.984808
vn -0.144867 0.000000 -0.989451
vn -0.173648 0.000000 -0.984808
vn -0.173648 0.000000 -0.984808
vn -0.173648 0.000000 -0.984808
vn -0.202282 0.000000 -0.979327
vn 0.087155 0.000000 0.996195
vn 0.087155 0.000000 0.996195
vn 0.087155 0.000000 0.996195
vn 0.087155 0.000000 0.996195
vn 0.087155 0.000000 0.996195
vn 0.087155 0.000000 0.996195
vn -0.087156 0.000000 -0.996195
vn -0.087156 0.000000 -0.996195
vn -0.087156 0.000000 -0.996195
vn -0.087156 0.000000 -0.996195
vn -0.087156 0.000000 -0.996195
vn -0.087156 0.000000 -0.996195
vn 0.000000 1.000000 0.000000
vn 0.000000 1.000000 0.000000
vn 0.000000 1.000000 0.000000
vn 0.000000 1.000000 0.000000
vn 0.000000 -1.000000 0.000000
vn 0.000000 -1.000000 0.000000
vn 0.000000 -1.000000 0.000000
vn 0.000000 -1.000000 0.000000
vn 0.000000 1.000000 0.000000
vn 0.000000 1.000000 0.000000
vn 0.000000 -1.000000 0.000000
vn 0.000000 -1.000000 0.000000
vn 0.000000 1.000000 0.000000
vn 0.000000 1.000000 0.000000
vn 0.000000 -1.000000 0.000000
vn 0.000000 -1.000000 0.000000
vn 0.000000 1.000000 0.000000
vn 0.000000 1.000000 0.000000
vn 0.000000 -1.000000 0.000000
vn 0.000000 -1.000000 0.000000
vn 0.000000 1.000000 0.000000
vn 0.000000 1.000000 0.000000
vn 0.000000 -1.000000 0.000000
vn 0.000000 -1.000000 0.000000
vn 0.000000 1.000000 0.000000
vn 0.000000 1.000000 0.000000
vn 0.000000 -1.000000 0.000000
vn 0.000000 -1.000000 0.000000
vn 0.000000 1.000000 0.000000
vn 0.000000 1.000000 0.000000
vn 0.000000 -1.000000 0.000000
vn 0.000000 -1.000000 0.000000
vn 0.000000 1.000000 0.000000
vn 0.000000 1.000000 0.000000
vn 0.000000 -1.000000 0.000000
vn 0.000000 -1.000000 0.000000
vn 0.000000 1.000000 0.000000
vn 0.000000 1.000000 0.000000
vn 0.000000 -1.000000 0.000000
vn 0.000000 -1.000000 0.000000
vn 0.000000 1.000000 0.000000
vn 0.000000 1.000000 0.000000
vn 0.000000 -1.000000 0.000000
vn 0.000000 -1.000000 0.000000
vn 0.000000 1.000000 0.000000
vn 0.000000 1.000000 0.000000
vn 0.000000 -1.000000 0.000000
vn 0.000000 -1.000000 0.000000
vn 0.000000 1.000000 0.000000
vn 0.000000 1.000000 0.000000
vn 0.000000 -1.000000 0.000000
vn 0.000000 -1.000000 0.000000
vn 0.000000 1.000000 0.000000
vn 0.000000 1.000000 0.000000
vn 0.000000 -1.000000 0.000000
vn 0.000000 -1.000000 0.000000
vn 0.000000 1.000000 0.000000
vn 0.000000 1.000000 0.000000
vn 0.000000 -1.000000 0.000000
vn 0.000000 -1.000000 0.000000
vn 0.000000 1.000000 0.000000
vn 0.000000 1.000000 0.000000
vn 0.000000 -1.000000 0.000000
vn 0.000000 -1.000000 0.000000
vn 0.000000 1.000000 0.000000
vn 0.000000 1.000000 0.000000
vn 0.000000 -1.000000 0.000000
vn 0.000000 -1.000000 0.000000
vn 0.000000 1.000000 0.000000
vn 0.000000 1.000000 0.000000
vn 0.000000 -1.000000 0.000000
vn 0.000000 -1.000000 0.000000
vn 0.000000 1.000000 0.000000
vn 0.000000 1.000000 0.000000
vn 0.000000 -1.000000 0.000000
vn 0.000000 -1.000000 0.000000
# 330 vertex normals

g Material_1
f 1/1/1 2/2/2 3/3/3
f 1/1/1 4/4/4 2/2/2
f 1/1/1 5/5/5 4/4/4
f 1/1/1 6/6/6 5/5/5
f 1/1/1 7/7/7 6/6/6
f 1/1/1 8/8/8 7/7/7
f 1/1/1 9/9/9 8/8/8
f 1/1/1 10/10/10 9/9/9
f 1/1/1 11/11/11 10/10/10
f 1/1/1 12/12/12 11/11/11
f 1/1/1 13/13/13 12/12/12
f 1/1/1 3/3/3 13/13/13
f 14/14/14 15/15/15 16/16/16
f 14/14/14 16/16/16 17/17/17
f 14/14/14 17/17/17 18/18/18
f 14/14/14 18/18/18 19/19/19
f 14/14/14 19/19/19 20/20/20
f 14/14/14 20/20/20 21/21/21
f 14/14/14 21/21/21 22/22/22
f 14/14/14 22/22/22 23/23/23
f 14/14/14 23/23/23 24/24/24
f 14/14/14 24/24/24 25/25/25
f 14/14/14 25/25/25 26/26/26
f 14/14/14 26/26/26 15/15/15
f 27/27/27 28/28/28 29/29/29
f 27/27/27 30/30/30 28/28/28
f 30/30/30 31/31/31 28/28/28
f 30/30/30 32/32/32 31/31/31
f 32/32/32 33/33/33 31/31/31
f 32/32/32 34/34/34 33/33/33
f 34/34/34 35/35/35 33/33/33
f 34/34/34 36/36/36 35/35/35
f 36/36/36 37/37/37 35/35/35
f 36/36/36 38/38/38 37/37/37
f 39/39/39 40/40/40 41/41/41
f 39/39/39 42/42/42 40/40/40
f 42/42/42 43/43/43 40/40/40
f 42/42/42 44/44/44 43/43/43
f 44/44/44 45/45/45 43/43/43
f 44/44/44 46/46/46 45/45/45
f 46/46/46 47/47/47 45/45/45
f 46/46/46 48/48/48 47/47/47
f 48/48/48 49/49/49 47/47/47
f 48/48/48 50/50/50 49/49/49
f 29/29/29 51/51/51 52/52/52
f 29/29/29 28/28/28 51/51/51
f 28/28/28 53/53/53 51/51/51
f 28/28/28 31/31/31 53/53/53
f 31/31/31 54/54/54 53/53/53
f 31/31/31 33/33/33 54/54/54
f 33/33/33 55/55/55 54/54/54
f 33/33/33 35/35/35 55/55/55
f 35/35/35 56/56/56 55/55/55
f 35/35/35 37/37/37 56/56/56
f 41/41/41 57/57/57 58/58/58
f 41/41/41 40/40/40 57/57/57
f 40/40/40 59/59/59 57/57/57
f 40/40/40 43/43/43 59/59/59
f 43/43/43 60/60/60 59/59/59
f 43/43/43 45/45/45 60/60/60
f 45/45/45 61/61/61 60/60/60
f 45/45/45 47/47/47 61/61/61
f 47/47/47 62/62/62 61/61/61
f 47/47/47 49/49/49 62/62/62
f 52/52/52 63/63/63 64/64/64
f 52/52/52 51/51/51 63/63/63
f 51/51/51 65/65/65 63/63/63
f 51/51/51 53/53/53 65/65/65
f 53/53/53 66/66/66 65/65/65
f 53/53/53 54/54/54 66/66/66
f 54/54/54 67/67/67 66/66/66
f 54/54/54 55/55/55 67/67/67
f 55/55/55 68/68/68 67/67/67
f 55/55/55 56/56/56 68/68/68
f 58/58/58 69/69/69 70/70/70
f 58/58/58 57/57/57 69/69/69
f 57/57/57 71/71/71 69/69/69
f 57/57/57 59/59/59 71/71/71
f 59/59/59 72/72/72 71/71/71
f 59/59/59 60/60/60 72/72/72
f 60/60/60 73/73/73 72/72/72
f 60/60/60 61/61/61 73/73/73
f 61/61/61 74/74/74 73/73/73
f 61/61/61 62/62/62 74/74/74
f 64/64/64 75/75/75 76/76/76
f 64/64/64 63/63/63 75/75/75
f 63/63/63 77/77/77 75/75/75
f 63/63/63 65/65/65 77/77/77
f 65/65/65 78/78/78 77/77/77
f 65/65/65 66/66/66 78/78/78
f 66/66/66 79/79/79 78/78/78
f 66/66/66 67/67/67 79/79/79
f 67/67/67 80/80/80 79/79/79
f 67/67/67 68/68/68 80/80/80
f 70/70/70 81/81/81 82/82/82
f 70/70/70 69/69/69 81/81/81
f 69/69/69 83/83/83 81/81/81
f 69/69/69 71/71/71 83/83/83
f 71/71/71 84/84/84 83/83/83
f 71/71/71 72/72/72 84/84/84
f 72/72/72 85/85/85 84/84/84
f 72/72/72 73/73/73 85/85/85
f 73/73/73 86/86/86 85/85/85
f 73/73/73 74/74/74 86/86/86
f 76/76/76 87/87/87 88/88/88
f 76/76/76 75/75/75 87/87/87
f 75/75/75 89/89/89 87/87/87
f 75/75/75 77/77/77 89/89/89
f 77/77/77 90/90/90 89/89/89
f 77/77/77 78/78/78 90/90/90
f 78/78/78 91/91/91 90/90/90
f 78/78/78 79/79/79 91/91/91
f 79/79/79 92/92/92 91/91/91
f 79/79/79 80/80/80 92/92/92
f 82/82/82 93/93/93 94/94/94
f 82/82/82 81/81/81 93/93/93
f 81/81/81 95/95/95 93/93/93
f 81/81/81 83/83/83 95/95/95
f 83/83/83 96/96/96 95/95/95
f 83/83/83 84/84/84 96/96/96
f 84/84/84 97/97/97 96/96/96
f 84/84/84 85/85/85 97/97/97
f 85/85/85 98/98/98 97/97/97
f 85/85/85 86/86/86 98/98/98
f 88/88/88 99/99/99 100/100/100
f 88/88/88 87/87/87 99/99/99
f 87/87/87 101/101/101 99/99/99
f 87/87/87 89/89/89 101/101/101
f 89/89/89 102/102/102 101/101/101
f 89/89/89 90/90/90 102/102/102
f 90/90/90 103/103/103 102/102/102
f 90/90/90 91/91/91 103/103/103
f 91/91/91 104/104/104 103/103/103
f 91/91/91 92/92/92 104/104/104
f 94/94/94 105/105/105 106/106/106
f 94/94/94 93/93/93 105/105/105
f 93/93/93 107/107/107 105/105/105
f 93/93/93 95/95/95 107/107/107
f 95/95/95 108/108/108 107/107/107
f 95/95/95 96/96/96 108/108/108
f 96/96/96 109/109/109 108/108/108
f 96/96/96 97/97/97 109/109/109
f 97/97/97 110/110/110 109/109/109
f 97/97/97 98/98/98 110/110/110
f 100/100/100 111/111/111 112/112/112
f 100/100/100 99/99/99 111/111/111
f 99/99/99 113/113/113 111/111/111
f 99/99/99 101/101/101 113/113/113
f 101/101/101 114/114/114 113/113/113
f 101/101/101 102/102/102 114/114/114
f 102/102/102 115/115/115 114/114/114
f 102/102/102 103/103/103 115/115/115
f 103/103/103 116/116/116 115/115/115
f 103/103/103 104/104/104 116/116/116
f 106/106/106 117/117/117 118/118/118
f 106/106/106 105/105/105 117/117/117
f 105/105/105 119/119/119 117/117/117
f 105/105/105 107/107/107 119/119/119
f 107/107/107 120/120/120 119/119/119
f 107/107/107 108/108/108 120/120/120
f 108/108/108 121/121/121 120/120/120
f 108/108/108 109/109/109 121/121/121
f 109/109/109 122/122/122 121/121/121
f 109/109/109 110/110/110 122/122/122
f 112/112/112 123/123/123 124/124/124
f 112/112/112 111/111/111 123/123/123
f 111/111/111 125/125/125 123/123/123
f 111/111/111 113/113/113 125/125/125
f 113/113/113 126/126/126 125/125/125
f 113/113/113 114/114/114 126/126/126
f 114/114/114 127/127/127 126/126/126
f 114/114/114 115/115/115 127/127/127
f 115/115/115 128/128/128 127/127/127
f 115/115/115 116/116/116 128/128/128
f 118/118/118 129/129/129 130/130/130
f 118/118/118 117/117/117 129/129/129
f 117/117/117 131/131/131 129/129/129
f 117/117/117 119/119/119 131/131/131
f 119/119/119 132/132/132 131/131/131
f 119/119/119 120/120/120 132/132/132
f 120/120/120 133/133/133 132/132/132
f 120/120/120 121/121/121 133/133/133
f 121/121/121 134/134/134 133/133/133
f 121/121/121 122/122/122 134/134/134
f 124/124/124 135/135/135 136/136/136
f 124/124/124 123/123/123 135/135/135
f 123/123/123 137/137/137 135/135/135
f 123/123/123 125/125/125 137/137/137
f 125/125/125 138/138/138 137/137/137
f 125/125/125 126/126/126 138/138/138
f 126/126/126 139/139/139 138/138/138
f 126/126/126 127/127/127 139/139/139
f 127/127/127 140/140/140 139/139/139
f 127/127/127 128/128/128 140/140/140
f 130/130/130 141/141/141 142/142/142
f 130/130/130 129/129/129 141/141/141
f 129/129/129 143/143/143 141/141/141
f 129/129/129 131/131/131 143/143/143
f 131/131/131 144/144/144 143/143/143
f 131/131/131 132/132/132 144/144/144
f 132/132/132 145/145/145 144/144/144
f 132/132/132 133/133/133 145/145/145
f 133/133/133 146/146/146 145/145/145
f 133/133/133 134/134/134 146/146/146
f 136/136/136 147/147/147 148/148/148
f 136/136/136 135/135/135 147/147/147
f 135/135/135 149/149/149 147/147/147
f 135/135/135 137/137/137 149/149/149
f 137/137/137 150/150/150 149/149/149
f 137/137/137 138/138/138 150/150/150
f 138/138/138 151/151/151 150/150/150
f 138/138/138 139/139/139 151/151/151
f 139/139/139 152/152/152 151/151/151
f 139/139/139 140/140/140 152/152/152
f 142/142/142 153/153/153 154/154/154
f 142/142/142 141/141/141 153/153/153
f 141/141/141 155/155/155 153/153/153
f 141/141/141 143/143/143 155/155/155
f 143/143/143 156/156/156 155/155/155
f 143/143/143 144/144/144 156/156/156
f 144/144/144 157/157/157 156/156/156
f 144/144/144 145/145/145 157/157/157
f 145/145/145 158/158/158 157/157/157
f 145/145/145 146/146/146 158/158/158
f 148/148/148 159/159/159 160/160/160
f 148/148/148 147/147/147 159/159/159
f 147/147/147 161/161/161 159/159/159
f 147/147/147 149/149/149 161/161/161
f 149/149/149 162/162/162 161/161/161
f 149/149/149 150/150/150 162/162/162
f 150/150/150 163/163/163 162/162/162
f 150/150/150 151/151/151 163/163/163
f 151/151/151 164/164/164 163/163/163
f 151/151/151 152/152/152 164/164/164
f 154/154/154 165/165/165 166/166/166
f 154/154/154 153/153/153 165/165/165
f 153/153/153 167/167/167 165/165/165
f 153/153/153 155/155/155 167/167/167
f 155/155/155 168/168/168 167/167/167
f 155/155/155 156/156/156 168/168/168
f 156/156/156 169/169/169 168/168/168
f 156/156/156 157/157/157 169/169/169
f 157/157/157 170/170/170 169/169/169
f 157/157/157 158/158/158 170/170/170
f 160/160/160 171/171/171 172/172/172
f 160/160/160 159/159/159 171/171/171
f 159/159/159 173/173/173 171/171/171
f 159/159/159 161/161/161 173/173/173
f 161/161/161 174/174/174 173/173/173
f 161/161/161 162/162/162 174/174/174
f 162/162/162 175/175/175 174/174/174
f 162/162/162 163/163/163 175/175/175
f 163/163/163 176/176/176 175/175/175
f 163/163/163 164/164/164 176/176/176
f 166/166/166 177/177/177 178/178/178
f 166/166/166 165/165/165 177/177/177
f 165/165/165 179/179/179 177/177/177
f 165/165/165 167/167/167 179/179/179
f 167/167/167 180/180/180 179/179/179
f 167/167/167 168/168/168 180/180/180
f 168/168/168 181/181/181 180/180/180
f 168/168/168 169/169/169 181/181/181
f 169/169/169 182/182/182 181/181/181
f 169/169/169 170/170/170 182/182/182
f 172/172/172 183/183/183 184/184/184
f 172/172/172 171/171/171 183/183/183
f 171/171/171 185/185/185 183/183/183
f 171/171/171 173/173/173 185/185/185
f 173/173/173 186/186/186 185/185/185
f 173/173/173 174/174/174 186/186/186
f 174/174/174 187/187/187 186/186/186
f 174/174/174 175/175/175 187/187/187
f 175/175/175 188/188/188 187/187/187
f 175/175/175 176/176/176 188/188/188
f 178/178/178 189/189/189 190/190/190
f 178/178/178 177/177/177 189/189/189
f 177/177/177 191/191/191 189/189/189
f 177/177/177 179/179/179 191/191/191
f 179/179/179 192/192/192 191/191/191
f 179/179/179 180/180/180 192/192/192
f 180/180/180 193/193/193 192/192/192
f 180/180/180 181/181/181 193/193/193
f 181/181/181 194/194/194 193/193/193
f 181/181/181 182/182/182 194/194/194
f 184/184/184 195/195/195 196/196/196
f 184/184/184 183/183/183 195/195/195
f 183/183/183 197/197/197 195/195/195
f 183/183/183 185/185/185 197/197/197
f 185/185/185 198/198/198 197/197/197
f 185/185/185 186/186/186 198/198/198
f 186/186/186 199/199/199 198/198/198
f 186/186/186 187/187/187 199/199/199
f 187/187/187 200/200/200 199/199/199
f 187/187/187 188/188/188 200/200/200
f 190/190/190 201/201/201 202/202/202
f 190/190/190 189/189/189 201/201/201
f 189/189/189 203/203/203 201/201/201
f 189/189/189 191/191/191 203/203/203
f 191/191/191 204/204/204 203/203/203
f 191/191/191 192/192/192 204/204/204
f 192/192/192 205/205/205 204/204/204
f 192/192/192 193/193/193 205/205/205
f 193/193/193 206/206/206 205/205/205
f 193/193/193 194/194/194 206/206/206
f 196/196/196 207/207/207 208/208/208
f 196/196/196 195/195/195 207/207/207
f 195/195/195 209/209/209 207/207/207
f 195/195/195 197/197/197 209/209/209
f 197/197/197 210/210/210 209/209/209
f 197/197/197 198/198/198 210/210/210
f 198/198/198 211/211/211 210/210/210
f 198/198/198 199/199/199 211/211/211
f 199/199/199 212/212/212 211/211/211
f 199/199/199 200/200/200 212/212/212
f 202/202/202 213/213/213 214/214/214
f 202/202/202 201/201/201 213/213/213
f 201/201/201 215/215/215 213/213/213
f 201/201/201 203/203/203 215/215/215
f 203/203/203 216/216/216 215/215/215
f 203/203/203 204/204/204 216/216/216
f 204/204/204 217/217/217 216/216/216
f 204/204/204 205/205/205 217/217/217
f 205/205/205 218/218/218 217/217/217
f 205/205/205 206/206/206 218/218/218
f 208/208/208 219/219/219 220/220/220
f 208/208/208 207/207/207 219/219/219
f 207/207/207 221/221/221 219/219/219
f 207/207/207 209/209/209 221/221/221
f 209/209/209 222/222/222 221/221/221
f 209/209/209 210/210/210 222/222/222
f 210/210/210 223/223/223 222/222/222
f 210/210/210 211/211/211 223/223/223
f 211/211/211 224/224/224 223/223/223
f 211/211/211 212/212/212 224/224/224
f 214/214/214 225/225/225 226/226/226
f 214/214/214 213/213/213 225/225/225
f 213/213/213 227/227/227 225/225/225
f 213/213/213 215/215/215 227/227/227
f 215/215/215 228/228/228 227/227/227
f 215/215/215 216/216/216 228/228/228
f 216/216/216 229/229/229 228/228/228
f 216/216/216 217/217/217 229/229/229
f 217/217/217 230/230/230 229/229/229
f 217/217/217 218/218/218 230/230/230
f 220/220/220 231/231/231 232/232/232
f 220/220/220 219/219/219 231/231/231
f 219/219/219 233/233/233 231/231/231
f 219/219/219 221/221/221 233/233/233
f 221/221/221 234/234/234 233/233/233
f 221/221/221 222/222/222 234/234/234
f 222/222/222 235/235/235 234/234/234
f 222/222/222 223/223/223 235/235/235
f 223/223/223 236/236/236 235/235/235
f 223/223/223 224/224/224 236/236/236
f 226/226/226 237/237/237 238/238/238
f 226/226/226 225/225/225 237/237/237
f 225/225/225 239/239/239 237/237/237
f 225/225/225 227/227/227 239/239/239
f 227/227/227 240/240/240 239/239/239
f 227/227/227 228/228/228 240/240/240
f 228/228/228 241/241/241 240/240/240
f 228/228/228 229/229/229 241/241/241
f 229/229/229 242/242/242 241/241/241
f 229/229/229 230/230/230 242/242/242
f 232/232/232 243/243/243 244/244/244
f 232/232/232 231/231/231 243/243/243
f 231/231/231 245/245/245 243/243/243
f 231/231/231 233/233/233 245/245/245
f 233/233/233 246/246/246 245/245/245
f 233/233/233 234/234/234 246/246/246
f 234/234/234 247/247/247 246/246/246
f 234/234/234 235/235/235 247/247/247
f 235/235/235 248/248/248 247/247/247
f 235/235/235 236/236/236 248/248/248
f 238/238/238 249/249/249 250/250/250
f 238/238/238 237/237/237 249/249/249
f 237/237/237 251/251/251 249/249/249
f 237/237/237 239/239/239 251/251/251
f 239/239/239 252/252/252 251/251/251
f 239/239/239 240/240/240 252/252/252
f 240/240/240 253/253/253 252/252/252
f 240/240/240 241/241/241 253/253/253
f 241/241/241 254/254/254 253/253/253
f 241/241/241 242/242/242 254/254/254
f 255/255/255 256/256/256 257/257/257
f 255/255/255 258/258/258 256/256/256
f 259/259/259 260/260/260 261/261/261
f 259/259/259 262/262/262 260/260/260
f 257/257/257 263/263/263 264/264/264
f 257/257/257 256/256/256 263/263/263
f 261/261/261 265/265/265 266/266/266
f 261/261/261 260/260/260 265/265/265
f 264/264/264 267/267/267 268/268/268
f 264/264/264 263/263/263 267/267/267
f 266/266/266 269/269/269 270/270/270
f 266/266/266 265/265/265 269/269/269
f 268/268/268 271/271/271 272/272/272
f 268/268/268 267/267/267 271/271/271
f 270/270/270 273/273/273 274/274/274
f 270/270/270 269/269/269 273/273/273
f 272/272/272 275/275/275 276/276/276
f 272/272/272 271/271/271 275/275/275
f 274/274/274 277/277/277 278/278/278
f 274/274/274 273/273/273 277/277/277
f 276/276/276 279/279/279 280/280/280
f 276/276/276 275/275/275 279/279/279
f 278/278/278 281/281/281 282/282/282
f 278/278/278 277/277/277 281/281/281
f 280/280/280 283/283/283 284/284/284
f 280/280/280 279/279/279 283/283/283
f 282/282/282 285/285/285 286/286/286
f 282/282/282 281/281/281 285/285/285
f 284/284/284 287/287/287 288/288/288
f 284/284/284 283/283/283 287/287/287
f 286/286/286 289/289/289 290/290/290
f 286/286/286 285/285/285 289/289/289
f 288/288/288 291/291/291 292/292/292
f 288/288/288 287/287/287 291/291/291
f 290/290/290 293/293/293 294/294/294
f 290/290/290 289/289/289 293/293/293
f 292/292/292 295/295/295 296/296/296
f 292/292/292 291/291/291 295/295/295
f 294/294/294 297/297/297 298/298/298
f 294/294/294 293/293/293 297/297/297
f 296/296/296 299/299/299 300/300/300
f 296/296/296 295/295/295 299/299/299
f 298/298/298 301/301/301 302/302/302
f 298/298/298 297/297/297 301/301/301
f 300/300/300 303/303/303 304/304/304
f 300/300/300 299/299/299 303/303/303
f 302/302/302 305/305/305 306/306/306
f 302/302/302 301/301/301 305/305/305
f 304/304/304 307/307/307 308/308/308
f 304/304/304 303/303/303 307/307/307
f 306/306/306 309/309/309 310/310/310
f 306/306/306 305/305/305 309/309/309
f 308/308/308 311/311/311 312/312/312
f 308/308/308 307/307/307 311/311/311
f 310/310/310 313/313/313 314/314/314
f 310/310/310 309/309/309 313/313/313
f 312/312/312 315/315/315 316/316/316
f 312/312/312 311/311/311 315/315/315
f 314/314/314 317/317/317 318/318/318
f 314/314/314 313/313/313 317/317/317
f 316/316/316 319/319/319 320/320/320
f 316/316/316 315/315/315 319/319/319
f 318/318/318 321/321/321 322/322/322
f 318/318/318 317/317/317 321/321/321
f 320/320/320 323/323/323 324/324/324
f 320/320/320 319/319/319 323/323/323
f 322/322/322 325/325/325 326/326/326
f 322/322/322 321/321/321 325/325/325
f 324/324/324 327/327/327 328/328/328
f 324/324/324 323/323/323 327/327/327
f 326/326/326 329/329/329 330/330/330
f 326/326/326 325/325/325 329/329/329
# 456 faces

