v 0.000000 1.941043 0.000000
v -0.884907 -0.597244 0.943125
v 0.884907 -0.597244 0.943125
v 0.000000 1.941043 0.000000
v -0.884907 -0.597244 -0.943125
v -0.884907 -0.597244 0.943125
v -0.884907 -0.597244 -0.943125
v 0.000000 -0.597244 0.000000
v -0.884907 -0.597244 0.943125
v 0.884907 -0.597244 0.943125
v 0.884907 -0.597244 -0.943125
v 0.000000 1.941043 0.000000
v 0.884907 -0.597244 0.943125
v 0.884907 -0.597244 -0.943125
v 0.000000 1.941043 0.000000
v 0.884907 -0.597244 -0.943125
v -0.884907 -0.597244 -0.943125
# 17 vertices

vn 0.000000 0.348294 0.937385
vn 0.000000 0.348294 0.937385
vn 0.000000 0.348294 0.937385
vn -0.944263 0.329193 0.000000
vn -0.944263 0.329193 0.000000
vn -0.944263 0.329193 0.000000
vn 0.000000 -1.000000 0.000000
vn 0.000000 -1.000000 0.000000
vn 0.000000 -1.000000 0.000000
vn 0.000000 -1.000000 0.000000
vn 0.000000 -1.000000 0.000000
vn 0.944263 0.329193 0.000000
vn 0.944263 0.329193 0.000000
vn 0.944263 0.329193 0.000000
vn 0.000000 0.348294 -0.937385
vn 0.000000 0.348294 -0.937385
vn 0.000000 0.348294 -0.937385
# 17 vertex normals

g Material_1
f 1/1/1 2/2/2 3/3/3
f 4/4/4 5/5/5 6/6/6
f 7/7/7 8/8/8 9/9/9
f 9/9/9 8/8/8 10/10/10
f 10/10/10 8/8/8 11/11/11
f 11/11/11 8/8/8 7/7/7
f 12/12/12 13/13/13 14/14/14
f 15/15/15 16/16/16 17/17/17
# 8 faces

