v -0.000000 0.486062 1.004962
v -0.408734 0.486062 0.924256
v -0.403032 0.540977 0.910854
v -0.000000 0.540977 0.990434
v -0.409647 0.559282 0.926400
v -0.000000 0.559282 1.007286
v -0.423104 0.540977 0.958029
v -0.000000 0.540977 1.041572
v -0.437930 0.486062 0.992874
v -0.000000 0.486062 1.079345
v -0.739367 0.486062 0.702967
v -0.729052 0.540977 0.692652
v -0.741017 0.559282 0.704617
v -0.765360 0.540977 0.728960
v -0.792178 0.486062 0.755779
v -0.960656 0.486062 0.372335
v -0.947254 0.540977 0.366632
v -0.962800 0.559282 0.373247
v -0.994429 0.540977 0.386704
v -1.029274 0.486062 0.401530
v -1.041361 0.486062 -0.036400
v -1.026833 0.540977 -0.036400
v -1.043686 0.559282 -0.036400
v -1.077972 0.540977 -0.036400
v -1.115744 0.486062 -0.036400
v -0.960656 0.486062 -0.473376
v -0.947254 0.540977 -0.451347
v -0.962800 0.559282 -0.449577
v -0.994429 0.540977 -0.459945
v -1.029274 0.486062 -0.474329
v -0.739367 0.486062 -0.800871
v -0.729052 0.540977 -0.776042
v -0.741017 0.559282 -0.780555
v -0.765360 0.540977 -0.802152
v -0.792178 0.486062 -0.828578
v -0.408734 0.486062 -1.006470
v -0.403032 0.540977 -0.987625
v -0.409647 0.559282 -1.000377
v -0.423104 0.540977 -1.030976
v -0.437930 0.486062 -1.065674
v -0.000000 0.486062 -1.077761
v -0.000000 0.540977 -1.063233
v -0.000000 0.559282 -1.080086
v -0.000000 0.540977 -1.114372
v -0.000000 0.486062 -1.152144
v 0.408734 0.486062 -0.997056
v 0.403032 0.540977 -0.983654
v 0.409647 0.559282 -0.999200
v 0.423104 0.540977 -1.030829
v 0.437930 0.486062 -1.065674
v 0.739367 0.486062 -0.775766
v 0.729052 0.540977 -0.765451
v 0.741017 0.559282 -0.777417
v 0.765360 0.540977 -0.801760
v 0.792178 0.486062 -0.828578
v 0.960656 0.486062 -0.445134
v 0.947254 0.540977 -0.439432
v 0.962800 0.559282 -0.446046
v 0.994429 0.540977 -0.459504
v 1.029274 0.486062 -0.474329
v 1.041361 0.486062 -0.036400
v 1.026833 0.540977 -0.036400
v 1.043686 0.559282 -0.036400
v 1.077972 0.540977 -0.036400
v 1.115744 0.486062 -0.036400
v 0.960656 0.486062 0.372335
v 0.947254 0.540977 0.366632
v 0.962800 0.559282 0.373247
v 0.994429 0.540977 0.386704
v 1.029274 0.486062 0.401530
v 0.739367 0.486062 0.702967
v 0.729052 0.540977 0.692652
v 0.741017 0.559282 0.704617
v 0.765360 0.540977 0.728960
v 0.792178 0.486062 0.755779
v 0.408734 0.486062 0.924256
v 0.403032 0.540977 0.910854
v 0.409647 0.559282 0.926400
v 0.423104 0.540977 0.958029
v 0.437930 0.486062 0.992874
v -0.491530 0.194050 1.118853
v -0.000000 0.194050 1.215907
v -0.538289 -0.092731 1.228750
v -0.000000 -0.092731 1.335036
v -0.571361 -0.369052 1.306481
v -0.000000 -0.369052 1.419298
v -0.583906 -0.629683 1.335966
v -0.000000 -0.629683 1.451259
v -0.889138 0.194050 0.852738
v -0.973719 -0.092731 0.937320
v -1.033545 -0.369052 0.997146
v -1.056238 -0.629683 1.019838
v -1.155253 0.194050 0.455131
v -1.265150 -0.092731 0.501889
v -1.342881 -0.369052 0.534962
v -1.372365 -0.629683 0.547507
v -1.252307 0.194050 -0.036400
v -1.371436 -0.092731 -0.036400
v -1.455698 -0.369052 -0.036400
v -1.487659 -0.629683 -0.036400
v -1.155253 0.194050 -0.527930
v -1.265150 -0.092731 -0.574688
v -1.342881 -0.369052 -0.607761
v -1.372365 -0.629683 -0.620306
v -0.889138 0.194050 -0.925538
v -0.973719 -0.092731 -1.010119
v -1.033545 -0.369052 -1.069945
v -1.056238 -0.629683 -1.092638
v -0.491530 0.194050 -1.191653
v -0.538289 -0.092731 -1.301549
v -0.571361 -0.369052 -1.379281
v -0.583906 -0.629683 -1.408765
v -0.000000 0.194050 -1.288707
v -0.000000 -0.092731 -1.407835
v -0.000000 -0.369052 -1.492097
v -0.000000 -0.629683 -1.524059
v 0.491530 0.194050 -1.191653
v 0.538289 -0.092731 -1.301549
v 0.571361 -0.369052 -1.379281
v 0.583906 -0.629683 -1.408765
v 0.889138 0.194050 -0.925538
v 0.973719 -0.092731 -1.010119
v 1.033545 -0.369052 -1.069945
v 1.056238 -0.629683 -1.092638
v 1.155253 0.194050 -0.527930
v 1.265150 -0.092731 -0.574688
v 1.342881 -0.369052 -0.607761
v 1.372365 -0.629683 -0.620306
v 1.252307 0.194050 -0.036400
v 1.371436 -0.092731 -0.036400
v 1.455698 -0.369052 -0.036400
v 1.487659 -0.629683 -0.036400
v 1.155253 0.194050 0.455131
v 1.265150 -0.092731 0.501889
v 1.342881 -0.369052 0.534962
v 1.372365 -0.629683 0.547507
v 0.889138 0.194050 0.852738
v 0.973719 -0.092731 0.937320
v 1.033545 -0.369052 0.997146
v 1.056238 -0.629683 1.019838
v 0.491530 0.194050 1.118853
v 0.538289 -0.092731 1.228750
v 0.571361 -0.369052 1.306481
v 0.583906 -0.629683 1.335966
v -0.561097 -0.850217 1.282358
v -0.000000 -0.850217 1.393148
v -0.510918 -1.013220 1.164420
v -0.000000 -1.013220 1.265302
v -0.460739 -1.123923 1.046482
v -0.000000 -1.123923 1.137456
v -0.437930 -1.187555 0.992874
v -0.000000 -1.187555 1.079345
v -1.014979 -0.850217 0.978579
v -0.924208 -1.013220 0.887808
v -0.833438 -1.123923 0.797038
v -0.792178 -1.187555 0.755779
v -1.318757 -0.850217 0.524698
v -1.200820 -1.013220 0.474518
v -1.082882 -1.123923 0.424339
v -1.029274 -1.187555 0.401530
v -1.429547 -0.850217 -0.036400
v -1.301702 -1.013220 -0.036400
v -1.173856 -1.123923 -0.036400
v -1.115744 -1.187555 -0.036400
v -1.318757 -0.850217 -0.597497
v -1.200820 -1.013220 -0.547318
v -1.082882 -1.123923 -0.497138
v -1.029274 -1.187555 -0.474329
v -1.014979 -0.850217 -1.051378
v -0.924208 -1.013220 -0.960608
v -0.833438 -1.123923 -0.869838
v -0.792178 -1.187555 -0.828578
v -0.561097 -0.850217 -1.355157
v -0.510918 -1.013220 -1.237220
v -0.460739 -1.123923 -1.119282
v -0.437930 -1.187555 -1.065674
v -0.000000 -0.850217 -1.465947
v -0.000000 -1.013220 -1.338101
v -0.000000 -1.123923 -1.210256
v -0.000000 -1.187555 -1.152144
v 0.561097 -0.850217 -1.355157
v 0.510918 -1.013220 -1.237220
v 0.460739 -1.123923 -1.119282
v 0.437930 -1.187555 -1.065674
v 1.014979 -0.850217 -1.051378
v 0.924208 -1.013220 -0.960608
v 0.833438 -1.123923 -0.869838
v 0.792178 -1.187555 -0.828578
v 1.318757 -0.850217 -0.597497
v 1.200820 -1.013220 -0.547318
v 1.082882 -1.123923 -0.497138
v 1.029274 -1.187555 -0.474329
v 1.429547 -0.850217 -0.036400
v 1.301702 -1.013220 -0.036400
v 1.173856 -1.123923 -0.036400
v 1.115744 -1.187555 -0.036400
v 1.318757 -0.850217 0.524698
v 1.200820 -1.013220 0.474518
v 1.082882 -1.123923 0.424339
v 1.029274 -1.187555 0.401530
v 1.014979 -0.850217 0.978579
v 0.924208 -1.013220 0.887808
v 0.833438 -1.123923 0.797038
v 0.792178 -1.187555 0.755779
v 0.561097 -0.850217 1.282358
v 0.510918 -1.013220 1.164420
v 0.460739 -1.123923 1.046482
v 0.437930 -1.187555 0.992874
v -0.428008 -1.228524 0.969555
v -0.000000 -1.228524 1.054066
v -0.374977 -1.264262 0.844916
v -0.000000 -1.264262 0.918956
v -0.243940 -1.289541 0.536938
v -0.000000 -1.289541 0.585105
v -0.000000 -1.299129 -0.036400
v -0.774231 -1.228524 0.737831
v -0.678303 -1.264262 0.641903
v -0.441268 -1.289541 0.404868
v -1.005955 -1.228524 0.391608
v -0.881316 -1.264262 0.338578
v -0.573338 -1.289541 0.207541
v -1.090466 -1.228524 -0.036400
v -0.955356 -1.264262 -0.036400
v -0.621504 -1.289541 -0.036400
v -1.005955 -1.228524 -0.464408
v -0.881316 -1.264262 -0.411377
v -0.573338 -1.289541 -0.280340
v -0.774231 -1.228524 -0.810630
v -0.678303 -1.264262 -0.714703
v -0.441268 -1.289541 -0.477668
v -0.428008 -1.228524 -1.042354
v -0.374977 -1.264262 -0.917716
v -0.243940 -1.289541 -0.609738
v -0.000000 -1.228524 -1.126865
v -0.000000 -1.264262 -0.991756
v -0.000000 -1.289541 -0.657904
v 0.428008 -1.228524 -1.042354
v 0.374977 -1.264262 -0.917716
v 0.243940 -1.289541 -0.609738
v 0.774231 -1.228524 -0.810630
v 0.678303 -1.264262 -0.714703
v 0.441268 -1.289541 -0.477668
v 1.005955 -1.228524 -0.464408
v 0.881316 -1.264262 -0.411377
v 0.573338 -1.289541 -0.280340
v 1.090466 -1.228524 -0.036400
v 0.955356 -1.264262 -0.036400
v 0.621504 -1.289541 -0.036400
v 1.005955 -1.228524 0.391608
v 0.881316 -1.264262 0.338578
v 0.573338 -1.289541 0.207541
v 0.774231 -1.228524 0.737831
v 0.678303 -1.264262 0.641903
v 0.441268 -1.289541 0.404868
v 0.428008 -1.228524 0.969555
v 0.374977 -1.264262 0.844916
v 0.243940 -1.289541 0.536938
v -0.000000 0.207126 -1.226527
v -0.125521 0.233276 -1.214905
v -0.125521 0.230252 -1.584386
v -0.000000 0.204510 -1.574035
v -0.125521 0.209087 -1.855586
v -0.000000 0.186205 -1.830888
v -0.125521 0.151638 -2.022621
v -0.000000 0.136520 -1.990115
v -0.125521 0.039764 -2.079606
v -0.000000 0.039764 -2.044739
v -0.167362 0.290806 -1.189335
v -0.167362 0.286884 -1.607159
v -0.167362 0.259426 -1.909920
v -0.167362 0.184898 -2.094134
v -0.167362 0.039764 -2.156314
v -0.125521 0.348337 -1.163766
v -0.125521 0.343516 -1.629931
v -0.125521 0.309765 -1.964255
v -0.125521 0.218158 -2.165648
v -0.125521 0.039764 -2.233021
v -0.000000 0.374487 -1.152144
v -0.000000 0.369257 -1.640282
v -0.000000 0.332647 -1.988952
v -0.000000 0.233276 -2.198154
v -0.000000 0.039764 -2.267888
v 0.125521 0.348337 -1.163766
v 0.125521 0.343516 -1.629931
v 0.125521 0.309765 -1.964255
v 0.125521 0.218158 -2.165648
v 0.125521 0.039764 -2.233021
v 0.167362 0.290806 -1.189335
v 0.167362 0.286884 -1.607159
v 0.167362 0.259426 -1.909920
v 0.167362 0.184898 -2.094134
v 0.167362 0.039764 -2.156314
v 0.125521 0.233276 -1.214905
v 0.125521 0.230252 -1.584386
v 0.125521 0.209087 -1.855586
v 0.125521 0.151638 -2.022621
v 0.125521 0.039764 -2.079606
v -0.125521 -0.126549 -2.047373
v -0.000000 -0.111908 -2.015684
v -0.125521 -0.317296 -1.946386
v -0.000000 -0.294959 -1.923867
v -0.125521 -0.505592 -1.770216
v -0.000000 -0.478011 -1.762317
v -0.125521 -0.664550 -1.512437
v -0.167362 -0.158760 -2.117088
v -0.167362 -0.366437 -1.995926
v -0.167362 -0.566268 -1.787595
v -0.167362 -0.741257 -1.486867
v -0.125521 -0.190971 -2.186804
v -0.125521 -0.415578 -2.045466
v -0.125521 -0.626945 -1.804974
v -0.125521 -0.817965 -1.461298
v -0.000000 -0.205613 -2.218493
v -0.000000 -0.437914 -2.067984
v -0.000000 -0.654525 -1.812874
v -0.000000 -0.852832 -1.449676
v 0.125521 -0.190971 -2.186804
v 0.125521 -0.415578 -2.045466
v 0.125521 -0.626945 -1.804974
v 0.125521 -0.817965 -1.461298
v 0.167362 -0.158760 -2.117088
v 0.167362 -0.366437 -1.995926
v 0.167362 -0.566268 -1.787595
v 0.167362 -0.741257 -1.486867
v 0.125521 -0.126549 -2.047373
v 0.125521 -0.317296 -1.946386
v 0.125521 -0.505592 -1.770216
v 0.125521 -0.664550 -1.512437
v -0.000000 -0.239172 1.228111
v -0.276147 -0.335057 1.228111
v -0.249343 -0.228331 1.612156
v -0.000000 -0.157235 1.584916
v -0.190374 -0.001641 1.774360
v -0.000000 0.039764 1.739493
v -0.131405 0.263621 1.866831
v -0.000000 0.278603 1.824336
v -0.104601 0.486062 2.041674
v -0.000000 0.486062 1.971940
v -0.368196 -0.546002 1.228111
v -0.332457 -0.384742 1.672084
v -0.253832 -0.092731 1.851068
v -0.175207 0.230661 1.960318
v -0.139468 0.486062 2.195089
v -0.276147 -0.756947 1.228111
v -0.249343 -0.541153 1.732012
v -0.190374 -0.183821 1.927775
v -0.131405 0.197701 2.053805
v -0.104601 0.486062 2.348504
v -0.000000 -0.852832 1.228111
v -0.000000 -0.612249 1.759251
v -0.000000 -0.225225 1.962642
v -0.000000 0.182719 2.096299
v -0.000000 0.486062 2.418238
v 0.276147 -0.756947 1.228111
v 0.249343 -0.541153 1.732012
v 0.190374 -0.183821 1.927775
v 0.131405 0.197701 2.053805
v 0.104601 0.486062 2.348504
v 0.368196 -0.546002 1.228111
v 0.332457 -0.384742 1.672084
v 0.253832 -0.092731 1.851068
v 0.175207 0.230661 1.960318
v 0.139468 0.486062 2.195089
v 0.276147 -0.335057 1.228111
v 0.249343 -0.228331 1.612156
v 0.190374 -0.001641 1.774360
v 0.131405 0.263621 1.866831
v 0.104601 0.486062 2.041674
v -0.098063 0.518974 2.100085
v -0.000000 0.517442 2.025403
v -0.083681 0.530354 2.135016
v -0.000000 0.527902 2.064919
v -0.069298 0.519587 2.136060
v -0.000000 0.517442 2.076541
v -0.062761 0.486062 2.092813
v -0.000000 0.486062 2.046323
v -0.130751 0.522345 2.264387
v -0.111574 0.535747 2.289230
v -0.092398 0.524306 2.267002
v -0.083681 0.486062 2.195089
v -0.098063 0.525716 2.428689
v -0.083681 0.541141 2.443444
v -0.069298 0.529026 2.397944
v -0.062761 0.486062 2.297366
v -0.000000 0.527248 2.503372
v -0.000000 0.543592 2.513541
v -0.000000 0.531171 2.457463
v -0.000000 0.486062 2.343855
v 0.098063 0.525716 2.428689
v 0.083681 0.541141 2.443444
v 0.069298 0.529026 2.397944
v 0.062761 0.486062 2.297366
v 0.130751 0.522345 2.264387
v 0.111574 0.535747 2.289230
v 0.092398 0.524306 2.267002
v 0.083681 0.486062 2.195089
v 0.098063 0.518974 2.100085
v 0.083681 0.530354 2.135016
v 0.069298 0.519587 2.136060
v 0.062761 0.486062 2.092813
v -0.099711 1.007323 0.197420
v -0.000000 1.007323 0.216967
v -0.000000 1.043934 -0.036400
v -0.095120 0.918413 0.186688
v -0.000000 0.918413 0.205345
v -0.057567 0.808581 0.098722
v -0.000000 0.808581 0.110042
v -0.058391 0.709211 0.100837
v -0.000000 0.709211 0.112366
v -0.180126 1.007323 0.143726
v -0.171848 0.918413 0.135448
v -0.104052 0.808581 0.067652
v -0.105624 0.709211 0.069224
v -0.233819 1.007323 0.063312
v -0.223088 0.918413 0.058720
v -0.135122 0.808581 0.021167
v -0.137237 0.709211 0.021991
v -0.253367 1.007323 -0.036400
v -0.241745 0.918413 -0.036400
v -0.146441 0.808581 -0.036400
v -0.148766 0.709211 -0.036400
v -0.233819 1.007323 -0.136111
v -0.223088 0.918413 -0.131520
v -0.135122 0.808581 -0.093966
v -0.137237 0.709211 -0.094790
v -0.180126 1.007323 -0.216526
v -0.171848 0.918413 -0.208248
v -0.104052 0.808581 -0.140452
v -0.105624 0.709211 -0.142024
v -0.099711 1.007323 -0.270219
v -0.095120 0.918413 -0.259488
v -0.057567 0.808581 -0.171521
v -0.058391 0.709211 -0.173636
v -0.000000 1.007323 -0.289767
v -0.000000 0.918413 -0.278144
v -0.000000 0.808581 -0.182841
v -0.000000 0.709211 -0.185166
v 0.099711 1.007323 -0.270219
v 0.095120 0.918413 -0.259488
v 0.057567 0.808581 -0.171521
v 0.058391 0.709211 -0.173636
v 0.180126 1.007323 -0.216526
v 0.171848 0.918413 -0.208248
v 0.104052 0.808581 -0.140452
v 0.105624 0.709211 -0.142024
v 0.233819 1.007323 -0.136111
v 0.223088 0.918413 -0.131520
v 0.135122 0.808581 -0.093966
v 0.137237 0.709211 -0.094790
v 0.253367 1.007323 -0.036400
v 0.241745 0.918413 -0.036400
v 0.146441 0.808581 -0.036400
v 0.148766 0.709211 -0.036400
v 0.233819 1.007323 0.063312
v 0.223088 0.918413 0.058720
v 0.135122 0.808581 0.021167
v 0.137237 0.709211 0.021991
v 0.180126 1.007323 0.143726
v 0.171848 0.918413 0.135448
v 0.104052 0.808581 0.067652
v 0.105624 0.709211 0.069224
v 0.099711 1.007323 0.197420
v 0.095120 0.918413 0.186688
v 0.057567 0.808581 0.098722
v 0.058391 0.709211 0.100837
v -0.133204 0.642963 0.276671
v -0.000000 0.642963 0.302973
v -0.240861 0.597636 0.529701
v -0.000000 0.597636 0.577260
v -0.337571 0.552309 0.756999
v -0.000000 0.552309 0.823653
v -0.379539 0.486062 0.855638
v -0.000000 0.486062 0.930579
v -0.240954 0.642963 0.204555
v -0.435698 0.597636 0.399298
v -0.610638 0.552309 0.574238
v -0.686555 0.486062 0.650155
v -0.313071 0.642963 0.096804
v -0.566101 0.597636 0.204462
v -0.793399 0.552309 0.301171
v -0.892038 0.486062 0.343139
v -0.339372 0.642963 -0.036400
v -0.613659 0.597636 -0.036400
v -0.860053 0.552309 -0.036400
v -0.966978 0.486062 -0.036400
v -0.313071 0.642963 -0.169603
v -0.566101 0.597636 -0.277261
v -0.793399 0.552309 -0.373970
v -0.892038 0.486062 -0.415939
v -0.240954 0.642963 -0.277354
v -0.435698 0.597636 -0.472098
v -0.610638 0.552309 -0.647037
v -0.686555 0.486062 -0.722954
v -0.133204 0.642963 -0.349471
v -0.240861 0.597636 -0.602500
v -0.337571 0.552309 -0.829799
v -0.379539 0.486062 -0.928437
v -0.000000 0.642963 -0.375772
v -0.000000 0.597636 -0.650059
v -0.000000 0.552309 -0.896453
v -0.000000 0.486062 -1.003378
v 0.133204 0.642963 -0.349471
v 0.240861 0.597636 -0.602500
v 0.337571 0.552309 -0.829799
v 0.379539 0.486062 -0.928437
v 0.240954 0.642963 -0.277354
v 0.435698 0.597636 -0.472098
v 0.610638 0.552309 -0.647037
v 0.686555 0.486062 -0.722954
v 0.313071 0.642963 -0.169603
v 0.566101 0.597636 -0.277261
v 0.793399 0.552309 -0.373970
v 0.892038 0.486062 -0.415939
v 0.339372 0.642963 -0.036400
v 0.613659 0.597636 -0.036400
v 0.860053 0.552309 -0.036400
v 0.966978 0.486062 -0.036400
v 0.313071 0.642963 0.096804
v 0.566101 0.597636 0.204462
v 0.793399 0.552309 0.301171
v 0.892038 0.486062 0.343139
v 0.240954 0.642963 0.204555
v 0.435698 0.597636 0.399298
v 0.610638 0.552309 0.574238
v 0.686555 0.486062 0.650155
v 0.133204 0.642963 0.276671
v 0.240861 0.597636 0.529701
v 0.337571 0.552309 0.756999
v 0.379539 0.486062 0.855638
# 529 vertices

vn 0.063500 -0.255236 -0.964791
vn 0.428240 -0.255971 -0.866654
vn 0.362922 0.242937 -0.899594
vn -0.008432 0.242336 -0.970156
vn 0.016279 0.985002 -0.171774
vn -0.050113 0.985052 -0.164810
vn -0.265067 0.747026 0.609665
vn -0.011762 0.746273 0.665536
vn -0.334022 0.497848 0.800361
vn -0.002628 0.496955 0.867772
vn 0.727058 -0.256208 -0.636980
vn 0.679895 0.242860 -0.691926
vn 0.081001 0.985081 -0.151836
vn -0.478004 0.747474 0.461297
vn -0.614869 0.498464 0.611121
vn 0.915918 -0.255655 -0.309409
vn 0.893156 0.242455 -0.378799
vn 0.132498 0.985099 -0.109657
vn -0.618799 0.747005 0.243047
vn -0.802376 0.497896 0.329078
vn 0.960836 -0.271212 0.056910
vn 0.972221 0.233886 -0.009203
vn 0.163564 0.985239 -0.050508
vn -0.665674 0.746150 -0.011738
vn -0.867772 0.496955 -0.002628
vn 0.837541 -0.362667 0.408654
vn 0.916036 0.152477 0.370984
vn 0.194989 0.980502 0.024406
vn -0.613716 0.742966 -0.267120
vn -0.800678 0.497243 -0.334163
vn 0.595663 -0.386394 0.704191
vn 0.702532 0.090618 0.705860
vn 0.208506 0.969627 0.127861
vn -0.468393 0.738575 -0.484887
vn -0.611722 0.497022 -0.615438
vn 0.283910 -0.309681 0.907465
vn 0.369963 0.155573 0.915928
vn 0.136578 0.973515 0.183344
vn -0.246027 0.740672 -0.625201
vn -0.329317 0.496814 -0.802949
vn -0.070564 -0.255114 0.964333
vn 0.000322 0.227696 0.973732
vn 0.051399 0.982501 0.179024
vn 0.011683 0.744838 -0.667144
vn 0.002642 0.496692 -0.867923
vn -0.428240 -0.255971 0.866654
vn -0.362922 0.242937 0.899594
vn -0.016279 0.985002 0.171774
vn 0.265067 0.747026 -0.609665
vn 0.334022 0.497848 -0.800361
vn -0.727058 -0.256208 0.636980
vn -0.679895 0.242860 0.691926
vn -0.081001 0.985081 0.151836
vn 0.478004 0.747474 -0.461297
vn 0.614869 0.498464 -0.611121
vn -0.915918 -0.255655 0.309409
vn -0.893156 0.242455 0.378799
vn -0.132498 0.985099 0.109657
vn 0.618799 0.747005 -0.243047
vn 0.802376 0.497896 -0.329078
vn -0.964791 -0.255236 -0.063500
vn -0.970156 0.242336 0.008432
vn -0.164810 0.985052 0.050113
vn 0.665536 0.746273 0.011762
vn 0.867772 0.496955 0.002628
vn -0.866654 -0.255971 -0.428240
vn -0.899594 0.242937 -0.362922
vn -0.171774 0.985002 -0.016279
vn 0.609665 0.747026 0.265067
vn 0.800361 0.497848 0.334022
vn -0.636980 -0.256208 -0.727058
vn -0.691926 0.242860 -0.679895
vn -0.151836 0.985081 -0.081001
vn 0.461297 0.747474 0.478004
vn 0.611121 0.498464 0.614869
vn -0.309409 -0.255655 -0.915918
vn -0.378799 0.242455 -0.893156
vn -0.109657 0.985099 -0.132498
vn 0.243047 0.747005 0.618799
vn 0.329078 0.497896 0.802376
vn -0.350176 0.404552 0.844816
vn -0.000563 0.403725 0.914880
vn -0.360724 0.338796 0.868962
vn -0.001052 0.338080 0.941117
vn -0.375090 0.207976 0.903357
vn -0.001148 0.207541 0.978226
vn -0.380711 -0.068131 0.922181
vn 0.000826 -0.067851 0.997695
vn -0.646888 0.405105 0.646085
vn -0.665911 0.339299 0.664409
vn -0.692410 0.208342 0.690769
vn -0.704874 -0.068109 0.706055
vn -0.845246 0.404570 0.349116
vn -0.869764 0.338843 0.358742
vn -0.904230 0.208079 0.372924
vn -0.921554 -0.067889 0.382270
vn -0.914880 0.403725 -0.000563
vn -0.941117 0.338080 -0.001052
vn -0.978226 0.207541 -0.001148
vn -0.997695 -0.067851 0.000826
vn -0.844816 0.404552 -0.350176
vn -0.868962 0.338796 -0.360724
vn -0.903357 0.207976 -0.375090
vn -0.922181 -0.068131 -0.380711
vn -0.646085 0.405105 -0.646888
vn -0.664409 0.339299 -0.665911
vn -0.690769 0.208342 -0.692410
vn -0.706055 -0.068109 -0.704874
vn -0.349116 0.404570 -0.845246
vn -0.358742 0.338843 -0.869764
vn -0.372924 0.208079 -0.904230
vn -0.382270 -0.067889 -0.921554
vn 0.000563 0.403725 -0.914880
vn 0.001052 0.338080 -0.941117
vn 0.001148 0.207541 -0.978226
vn 0.045163 0.446087 -0.893849
vn 0.350176 0.404552 -0.844816
vn 0.360724 0.338796 -0.868962
vn 0.375090 0.207976 -0.903357
vn 0.380711 -0.068131 -0.922181
vn 0.646888 0.405105 -0.646085
vn 0.665911 0.339299 -0.664409
vn 0.692410 0.208342 -0.690769
vn 0.704874 -0.068109 -0.706055
vn 0.845246 0.404570 -0.349116
vn 0.869764 0.338843 -0.358742
vn 0.904230 0.208079 -0.372924
vn 0.921554 -0.067889 -0.382270
vn 0.914880 0.403725 0.000563
vn 0.941117 0.338080 0.001052
vn 0.978226 0.207541 0.001148
vn 0.997695 -0.067851 -0.000826
vn 0.844816 0.404552 0.350176
vn 0.868962 0.338796 0.360724
vn 0.903357 0.207976 0.375090
vn 0.922181 -0.068131 0.380711
vn 0.646085 0.405105 0.646888
vn 0.664409 0.339299 0.665911
vn 0.690769 0.208342 0.692410
vn 0.706055 -0.068109 0.704874
vn 0.349116 0.404570 0.845246
vn 0.358742 0.338843 0.869764
vn 0.372924 0.208079 0.904230
vn 0.382270 -0.067889 0.921554
vn -0.336542 -0.446624 0.829015
vn 0.005877 -0.445725 0.895151
vn -0.272366 -0.690737 0.669850
vn 0.004286 -0.689854 0.723936
vn -0.268850 -0.717289 0.642819
vn -0.002712 -0.716431 0.697653
vn -0.308230 -0.603412 0.735451
vn -0.003633 -0.602490 0.798118
vn -0.628300 -0.447071 0.636684
vn -0.507875 -0.691302 0.513969
vn -0.494214 -0.717844 0.490360
vn -0.566117 -0.604031 0.560944
vn -0.824517 -0.446481 0.347602
vn -0.666533 -0.690732 0.280399
vn -0.644922 -0.717287 0.263770
vn -0.738250 -0.603441 0.301408
vn -0.895151 -0.445725 0.005877
vn -0.723936 -0.689854 0.004286
vn -0.697653 -0.716430 -0.002712
vn -0.798118 -0.602490 -0.003633
vn -0.829015 -0.446624 -0.336542
vn -0.669850 -0.690737 -0.272366
vn -0.642819 -0.717289 -0.268850
vn -0.735451 -0.603412 -0.308230
vn -0.636684 -0.447071 -0.628300
vn -0.513969 -0.691302 -0.507875
vn -0.490360 -0.717844 -0.494214
vn -0.560944 -0.604031 -0.566117
vn -0.347602 -0.446481 -0.824517
vn -0.280399 -0.690732 -0.666533
vn -0.263770 -0.717287 -0.644922
vn -0.301408 -0.603441 -0.738250
vn -0.005877 -0.445725 -0.895151
vn -0.004286 -0.689854 -0.723936
vn 0.002712 -0.716430 -0.697653
vn 0.003633 -0.602490 -0.798118
vn 0.336542 -0.446624 -0.829015
vn 0.272366 -0.690737 -0.669850
vn 0.268850 -0.717289 -0.642819
vn 0.308230 -0.603412 -0.735451
vn 0.628300 -0.447071 -0.636684
vn 0.507875 -0.691302 -0.513969
vn 0.494214 -0.717844 -0.490360
vn 0.566117 -0.604031 -0.560944
vn 0.824517 -0.446481 -0.347602
vn 0.666533 -0.690732 -0.280399
vn 0.644922 -0.717287 -0.263770
vn 0.738250 -0.603441 -0.301408
vn 0.895151 -0.445725 -0.005877
vn 0.723936 -0.689854 -0.004286
vn 0.697653 -0.716430 0.002712
vn 0.798118 -0.602490 0.003633
vn 0.829015 -0.446624 0.336542
vn 0.669850 -0.690737 0.272366
vn 0.642819 -0.717289 0.268850
vn 0.735451 -0.603412 0.308230
vn 0.636684 -0.447071 0.628300
vn 0.513969 -0.691302 0.507875
vn 0.490360 -0.717844 0.494214
vn 0.560944 -0.604031 0.566117
vn 0.347602 -0.446481 0.824517
vn 0.280399 -0.690732 0.666533
vn 0.263770 -0.717287 0.644922
vn 0.301408 -0.603441 0.738250
vn -0.207145 -0.804954 0.556004
vn 0.020841 -0.804452 0.593652
vn -0.057830 -0.986122 0.155628
vn 0.005949 -0.986065 0.166252
vn -0.016849 -0.998674 0.048650
vn 0.002983 -0.998669 0.051492
vn -0.000000 -1.000000 0.000000
vn -0.404180 -0.805296 0.433747
vn -0.112895 -0.986174 0.121305
vn -0.034155 -0.998680 0.038370
vn -0.539771 -0.805032 0.246112
vn -0.150926 -0.986141 0.068900
vn -0.046289 -0.998677 0.022397
vn -0.593652 -0.804452 0.020841
vn -0.166252 -0.986065 0.005949
vn -0.051492 -0.998669 0.002983
vn -0.556004 -0.804954 -0.207145
vn -0.155628 -0.986122 -0.057830
vn -0.048650 -0.998674 -0.016849
vn -0.433747 -0.805296 -0.404180
vn -0.121305 -0.986174 -0.112895
vn -0.038370 -0.998680 -0.034155
vn -0.246112 -0.805032 -0.539771
vn -0.068900 -0.986141 -0.150926
vn -0.022397 -0.998677 -0.046289
vn -0.020841 -0.804452 -0.593652
vn -0.005949 -0.986065 -0.166252
vn -0.002983 -0.998669 -0.051492
vn 0.207145 -0.804954 -0.556004
vn 0.057830 -0.986122 -0.155628
vn 0.016849 -0.998674 -0.048650
vn 0.404180 -0.805296 -0.433747
vn 0.112895 -0.986174 -0.121305
vn 0.034155 -0.998680 -0.038370
vn 0.539771 -0.805032 -0.246112
vn 0.150926 -0.986141 -0.068900
vn 0.046289 -0.998677 -0.022397
vn 0.593652 -0.804452 -0.020841
vn 0.166252 -0.986065 -0.005949
vn 0.051492 -0.998669 -0.002983
vn 0.556004 -0.804954 0.207145
vn 0.155628 -0.986122 0.057830
vn 0.048650 -0.998674 0.016849
vn 0.433747 -0.805296 0.404180
vn 0.121305 -0.986174 0.112895
vn 0.038370 -0.998680 0.034155
vn 0.246112 -0.805032 0.539771
vn 0.068900 -0.986141 0.150926
vn 0.022397 -0.998677 0.046289
vn -0.068401 -0.997628 0.007726
vn -0.643194 -0.765675 0.006518
vn -0.539352 -0.841351 0.035044
vn 0.001831 -0.999175 0.040558
vn -0.551287 -0.818237 0.163008
vn 0.002565 -0.981532 0.191280
vn -0.611746 -0.624371 0.485723
vn -0.000642 -0.772068 0.635539
vn -0.630861 -0.146018 0.762032
vn 0.003395 -0.154746 0.987948
vn -0.971276 0.237943 -0.002460
vn -0.999931 0.002278 -0.011485
vn -0.999168 -0.011303 -0.039179
vn -0.996038 -0.066392 -0.059168
vn -0.998112 -0.060596 -0.010065
vn -0.429504 0.903015 -0.009468
vn -0.542566 0.838511 -0.050213
vn -0.562948 0.795061 -0.225761
vn -0.621897 0.519840 -0.585671
vn -0.629265 0.043293 -0.775984
vn 0.068512 0.997594 -0.010565
vn -0.000914 0.998380 -0.056893
vn 0.001036 0.963770 -0.266734
vn 0.002659 0.677427 -0.735585
vn -0.001992 0.076346 -0.997079
vn 0.643253 0.765615 -0.007719
vn 0.541111 0.839876 -0.042506
vn 0.562384 0.802693 -0.198514
vn 0.623079 0.565180 -0.540688
vn 0.628364 0.086140 -0.773136
vn 0.971318 -0.237778 0.001947
vn 0.999959 -0.003133 0.008552
vn 0.999597 0.002364 0.028289
vn 0.997805 0.046624 0.047023
vn 0.998776 0.048646 0.008930
vn 0.429674 -0.902956 0.007161
vn 0.541128 -0.840104 0.037502
vn 0.551822 -0.815806 0.173069
vn 0.610485 -0.585202 0.533710
vn 0.632324 -0.074189 0.771143
vn -0.615086 0.254087 0.746398
vn 0.005239 0.325175 0.945639
vn -0.583294 0.465345 0.665749
vn 0.013832 0.566893 0.823675
vn -0.544890 0.641463 0.540019
vn 0.011269 0.764819 0.644146
vn -0.413376 0.772438 0.482140
vn -0.999341 -0.035850 0.005692
vn -0.999020 -0.043878 0.005876
vn -0.999157 -0.036913 0.017965
vn -0.972205 0.199003 0.123349
vn -0.620416 -0.307162 -0.721620
vn -0.597115 -0.529731 -0.602361
vn -0.559989 -0.679874 -0.473480
vn -0.641886 -0.668126 -0.376284
vn -0.003892 -0.375113 -0.926971
vn -0.010519 -0.656438 -0.754307
vn -0.008128 -0.821970 -0.569473
vn -0.073376 -0.874124 -0.480128
vn 0.617686 -0.275043 -0.736760
vn 0.588138 -0.515657 -0.623051
vn 0.552401 -0.677500 -0.485642
vn 0.425734 -0.792156 -0.437310
vn 0.999573 0.029106 -0.002454
vn 0.999502 0.030937 0.006245
vn 0.999561 0.029588 -0.001529
vn 0.974329 -0.196976 -0.109007
vn 0.617932 0.270271 0.738318
vn 0.594158 0.475632 0.648653
vn 0.556494 0.651685 0.515385
vn 0.638178 0.658237 0.399315
vn -0.100414 0.967998 -0.229992
vn -0.762088 0.633941 -0.131683
vn -0.653305 0.684622 -0.323244
vn 0.009488 0.841845 -0.539636
vn -0.631104 0.480622 -0.608860
vn -0.013331 0.491531 -0.870758
vn -0.666105 0.419844 -0.616470
vn -0.041591 0.480806 -0.875840
vn -0.667564 0.595270 -0.447228
vn -0.007163 0.756116 -0.654399
vn -0.981622 -0.139633 0.130084
vn -0.977688 0.100220 0.184614
vn -0.971804 0.188166 0.142094
vn -0.990270 0.138612 0.012364
vn -0.991428 0.130379 -0.008458
vn -0.534308 -0.765623 0.358242
vn -0.626319 -0.512491 0.587433
vn -0.572435 -0.241146 0.783688
vn -0.672724 -0.336649 0.658870
vn -0.720365 -0.547425 0.425912
vn 0.101526 -0.906913 0.408904
vn -0.009139 -0.724276 0.689450
vn 0.016993 -0.381675 0.924140
vn 0.033867 -0.521908 0.852329
vn 0.001784 -0.817546 0.575860
vn 0.749941 -0.592860 0.293438
vn 0.622238 -0.542661 0.564215
vn 0.589367 -0.242454 0.770625
vn 0.686526 -0.296760 0.663789
vn 0.731143 -0.514577 0.447928
vn 0.986048 0.163973 0.028672
vn 0.994484 0.051840 0.091185
vn 0.977265 0.134868 0.163595
vn 0.983880 0.141512 0.109340
vn 0.987420 0.153078 0.039616
vn 0.552299 0.814058 -0.179654
vn 0.663419 0.634275 -0.396952
vn 0.644388 0.445429 -0.621577
vn 0.674281 0.447279 -0.587611
vn 0.673650 0.613583 -0.411960
vn -0.449688 0.850509 -0.272791
vn 0.020246 0.927833 -0.372447
vn 0.165120 0.986111 0.017881
vn 0.131683 0.972482 0.192192
vn 0.847881 0.273293 0.454323
vn -0.009587 0.031306 0.999464
vn 0.703390 -0.487632 0.517163
vn -0.179010 -0.703033 0.688259
vn -0.823588 0.567130 -0.008179
vn -0.027846 0.998247 -0.052220
vn 0.776191 0.630135 -0.021371
vn 0.990147 0.119825 0.072464
vn -0.834680 -0.247085 0.492198
vn -0.314073 0.943189 0.108410
vn 0.412282 0.882215 -0.227419
vn 0.689201 0.680691 -0.248317
vn 0.064895 -0.721958 0.688887
vn -0.295734 0.739754 0.604405
vn -0.020939 0.955865 -0.293059
vn 0.097325 0.923894 -0.370064
vn 0.850980 -0.186465 0.490983
vn 0.305184 0.876002 0.373475
vn -0.479647 0.849486 -0.219802
vn -0.486837 0.815412 -0.313198
vn 0.854776 0.518332 0.026273
vn 0.069812 0.996949 0.034913
vn -0.819063 0.573571 0.012311
vn -0.947581 0.315574 -0.050040
vn 0.495176 0.832162 -0.249614
vn -0.100292 0.983888 0.148009
vn -0.841118 0.236600 0.486354
vn -0.879462 -0.317373 0.354712
vn -0.390958 0.445238 0.805553
vn -0.053226 0.445220 0.893838
vn -0.000000 1.000000 0.000000
vn -0.339954 -0.412166 0.845311
vn 0.007758 -0.410976 0.911613
vn -0.366645 -0.341255 0.865515
vn -0.008552 -0.340390 0.940246
vn -0.282480 0.593949 0.753279
vn 0.026273 0.593494 0.804409
vn -0.670274 0.445119 0.593803
vn -0.638331 -0.412738 0.649754
vn -0.670307 -0.342091 0.658530
vn -0.549763 0.593769 0.587537
vn -0.846896 0.445407 0.290482
vn -0.839302 -0.411886 0.354855
vn -0.871915 -0.341524 0.350892
vn -0.733000 0.593627 0.332142
vn -0.893838 0.445220 -0.053226
vn -0.911613 -0.410976 0.007758
vn -0.940246 -0.340390 -0.008552
vn -0.804409 0.593494 0.026273
vn -0.805553 0.445238 -0.390958
vn -0.845311 -0.412166 -0.339954
vn -0.865515 -0.341255 -0.366645
vn -0.753279 0.593949 -0.282480
vn -0.593803 0.445119 -0.670274
vn -0.649754 -0.412738 -0.638331
vn -0.658530 -0.342091 -0.670307
vn -0.587537 0.593769 -0.549763
vn -0.290482 0.445407 -0.846896
vn -0.354855 -0.411886 -0.839302
vn -0.350892 -0.341524 -0.871915
vn -0.332142 0.593627 -0.733000
vn 0.053226 0.445220 -0.893838
vn -0.007758 -0.410976 -0.911613
vn 0.008552 -0.340390 -0.940246
vn -0.026273 0.593494 -0.804409
vn 0.390958 0.445238 -0.805553
vn 0.339954 -0.412166 -0.845311
vn 0.366645 -0.341255 -0.865515
vn 0.282480 0.593949 -0.753279
vn 0.670274 0.445119 -0.593803
vn 0.638331 -0.412738 -0.649754
vn 0.670307 -0.342091 -0.658530
vn 0.549763 0.593769 -0.587537
vn 0.846896 0.445407 -0.290482
vn 0.839302 -0.411886 -0.354855
vn 0.871915 -0.341524 -0.350892
vn 0.733000 0.593627 -0.332142
vn 0.893838 0.445220 0.053226
vn 0.911613 -0.410976 -0.007758
vn 0.940246 -0.340390 0.008552
vn 0.804409 0.593494 -0.026273
vn 0.805553 0.445238 0.390958
vn 0.845311 -0.412166 0.339954
vn 0.865515 -0.341255 0.366645
vn 0.753279 0.593949 0.282480
vn 0.593803 0.445119 0.670274
vn 0.649754 -0.412738 0.638331
vn 0.658530 -0.342091 0.670307
vn 0.587537 0.593769 0.549763
vn 0.290482 0.445407 0.846896
vn 0.354855 -0.411886 0.839302
vn 0.350892 -0.341524 0.871915
vn 0.332142 0.593627 0.733000
vn -0.088891 0.969258 0.229426
vn 0.005445 0.969128 0.246499
vn -0.066096 0.985171 0.158332
vn -0.000588 0.985098 0.171991
vn -0.147859 0.933350 0.327101
vn -0.011522 0.933038 0.359594
vn -0.168496 0.849969 0.499162
vn 0.034643 0.849558 0.526357
vn -0.169793 0.969364 0.177494
vn -0.121551 0.985217 0.120720
vn -0.261583 0.933495 0.245276
vn -0.346586 0.850517 0.395598
vn -0.225129 0.969283 0.099029
vn -0.158797 0.985169 0.065002
vn -0.336164 0.933285 0.126386
vn -0.471909 0.850287 0.233051
vn -0.246499 0.969128 0.005445
vn -0.171991 0.985098 -0.000588
vn -0.359594 0.933038 -0.011522
vn -0.526357 0.849558 0.034643
vn -0.229426 0.969258 -0.088891
vn -0.158332 0.985171 -0.066096
vn -0.327101 0.933350 -0.147859
vn -0.499162 0.849969 -0.168496
vn -0.177494 0.969364 -0.169793
vn -0.120720 0.985217 -0.121551
vn -0.245276 0.933495 -0.261583
vn -0.395598 0.850517 -0.346586
vn -0.099029 0.969283 -0.225129
vn -0.065002 0.985169 -0.158797
vn -0.126386 0.933285 -0.336164
vn -0.233051 0.850287 -0.471909
vn -0.005445 0.969128 -0.246499
vn 0.000588 0.985098 -0.171991
vn 0.011522 0.933038 -0.359594
vn -0.034643 0.849558 -0.526357
vn 0.088891 0.969258 -0.229426
vn 0.066096 0.985171 -0.158332
vn 0.147859 0.933350 -0.327101
vn 0.168496 0.849969 -0.499162
vn 0.169793 0.969364 -0.177494
vn 0.121551 0.985217 -0.120720
vn 0.261583 0.933495 -0.245276
vn 0.346586 0.850517 -0.395598
vn 0.225129 0.969283 -0.099029
vn 0.158797 0.985169 -0.065002
vn 0.336164 0.933285 -0.126386
vn 0.471909 0.850287 -0.233051
vn 0.246499 0.969128 -0.005445
vn 0.171991 0.985098 0.000588
vn 0.359594 0.933038 0.011522
vn 0.526357 0.849558 -0.034643
vn 0.229426 0.969258 0.088891
vn 0.158332 0.985171 0.066096
vn 0.327101 0.933350 0.147859
vn 0.499162 0.849969 0.168496
vn 0.177494 0.969364 0.169793
vn 0.120720 0.985217 0.121551
vn 0.245276 0.933495 0.261583
vn 0.395598 0.850517 0.346586
vn 0.099029 0.969283 0.225129
vn 0.065002 0.985169 0.158797
vn 0.126386 0.933285 0.336164
vn 0.233051 0.850287 0.471909
# 529 vertex normals

g Material_1
f 1/1/1 2/2/2 3/3/3
f 3/3/3 4/4/4 1/1/1
f 4/4/4 3/3/3 5/5/5
f 5/5/5 6/6/6 4/4/4
f 6/6/6 5/5/5 7/7/7
f 7/7/7 8/8/8 6/6/6
f 8/8/8 7/7/7 9/9/9
f 9/9/9 10/10/10 8/8/8
f 2/2/2 11/11/11 12/12/12
f 12/12/12 3/3/3 2/2/2
f 3/3/3 12/12/12 13/13/13
f 13/13/13 5/5/5 3/3/3
f 5/5/5 13/13/13 14/14/14
f 14/14/14 7/7/7 5/5/5
f 7/7/7 14/14/14 15/15/15
f 15/15/15 9/9/9 7/7/7
f 11/11/11 16/16/16 17/17/17
f 17/17/17 12/12/12 11/11/11
f 12/12/12 17/17/17 18/18/18
f 18/18/18 13/13/13 12/12/12
f 13/13/13 18/18/18 19/19/19
f 19/19/19 14/14/14 13/13/13
f 14/14/14 19/19/19 20/20/20
f 20/20/20 15/15/15 14/14/14
f 16/16/16 21/21/21 22/22/22
f 22/22/22 17/17/17 16/16/16
f 17/17/17 22/22/22 23/23/23
f 23/23/23 18/18/18 17/17/17
f 18/18/18 23/23/23 24/24/24
f 24/24/24 19/19/19 18/18/18
f 19/19/19 24/24/24 25/25/25
f 25/25/25 20/20/20 19/19/19
f 21/21/21 26/26/26 27/27/27
f 27/27/27 22/22/22 21/21/21
f 22/22/22 27/27/27 28/28/28
f 28/28/28 23/23/23 22/22/22
f 23/23/23 28/28/28 29/29/29
f 29/29/29 24/24/24 23/23/23
f 24/24/24 29/29/29 30/30/30
f 30/30/30 25/25/25 24/24/24
f 26/26/26 31/31/31 32/32/32
f 32/32/32 27/27/27 26/26/26
f 27/27/27 32/32/32 33/33/33
f 33/33/33 28/28/28 27/27/27
f 28/28/28 33/33/33 34/34/34
f 34/34/34 29/29/29 28/28/28
f 29/29/29 34/34/34 35/35/35
f 35/35/35 30/30/30 29/29/29
f 31/31/31 36/36/36 37/37/37
f 37/37/37 32/32/32 31/31/31
f 32/32/32 37/37/37 38/38/38
f 38/38/38 33/33/33 32/32/32
f 33/33/33 38/38/38 39/39/39
f 39/39/39 34/34/34 33/33/33
f 34/34/34 39/39/39 40/40/40
f 40/40/40 35/35/35 34/34/34
f 36/36/36 41/41/41 42/42/42
f 42/42/42 37/37/37 36/36/36
f 37/37/37 42/42/42 43/43/43
f 43/43/43 38/38/38 37/37/37
f 38/38/38 43/43/43 44/44/44
f 44/44/44 39/39/39 38/38/38
f 39/39/39 44/44/44 45/45/45
f 45/45/45 40/40/40 39/39/39
f 41/41/41 46/46/46 47/47/47
f 47/47/47 42/42/42 41/41/41
f 42/42/42 47/47/47 48/48/48
f 48/48/48 43/43/43 42/42/42
f 43/43/43 48/48/48 49/49/49
f 49/49/49 44/44/44 43/43/43
f 44/44/44 49/49/49 50/50/50
f 50/50/50 45/45/45 44/44/44
f 46/46/46 51/51/51 52/52/52
f 52/52/52 47/47/47 46/46/46
f 47/47/47 52/52/52 53/53/53
f 53/53/53 48/48/48 47/47/47
f 48/48/48 53/53/53 54/54/54
f 54/54/54 49/49/49 48/48/48
f 49/49/49 54/54/54 55/55/55
f 55/55/55 50/50/50 49/49/49
f 51/51/51 56/56/56 57/57/57
f 57/57/57 52/52/52 51/51/51
f 52/52/52 57/57/57 58/58/58
f 58/58/58 53/53/53 52/52/52
f 53/53/53 58/58/58 59/59/59
f 59/59/59 54/54/54 53/53/53
f 54/54/54 59/59/59 60/60/60
f 60/60/60 55/55/55 54/54/54
f 56/56/56 61/61/61 62/62/62
f 62/62/62 57/57/57 56/56/56
f 57/57/57 62/62/62 63/63/63
f 63/63/63 58/58/58 57/57/57
f 58/58/58 63/63/63 64/64/64
f 64/64/64 59/59/59 58/58/58
f 59/59/59 64/64/64 65/65/65
f 65/65/65 60/60/60 59/59/59
f 61/61/61 66/66/66 67/67/67
f 67/67/67 62/62/62 61/61/61
f 62/62/62 67/67/67 68/68/68
f 68/68/68 63/63/63 62/62/62
f 63/63/63 68/68/68 69/69/69
f 69/69/69 64/64/64 63/63/63
f 64/64/64 69/69/69 70/70/70
f 70/70/70 65/65/65 64/64/64
f 66/66/66 71/71/71 72/72/72
f 72/72/72 67/67/67 66/66/66
f 67/67/67 72/72/72 73/73/73
f 73/73/73 68/68/68 67/67/67
f 68/68/68 73/73/73 74/74/74
f 74/74/74 69/69/69 68/68/68
f 69/69/69 74/74/74 75/75/75
f 75/75/75 70/70/70 69/69/69
f 71/71/71 76/76/76 77/77/77
f 77/77/77 72/72/72 71/71/71
f 72/72/72 77/77/77 78/78/78
f 78/78/78 73/73/73 72/72/72
f 73/73/73 78/78/78 79/79/79
f 79/79/79 74/74/74 73/73/73
f 74/74/74 79/79/79 80/80/80
f 80/80/80 75/75/75 74/74/74
f 76/76/76 1/1/1 4/4/4
f 4/4/4 77/77/77 76/76/76
f 77/77/77 4/4/4 6/6/6
f 6/6/6 78/78/78 77/77/77
f 78/78/78 6/6/6 8/8/8
f 8/8/8 79/79/79 78/78/78
f 79/79/79 8/8/8 10/10/10
f 10/10/10 80/80/80 79/79/79
f 10/10/10 9/9/9 81/81/81
f 81/81/81 82/82/82 10/10/10
f 82/82/82 81/81/81 83/83/83
f 83/83/83 84/84/84 82/82/82
f 84/84/84 83/83/83 85/85/85
f 85/85/85 86/86/86 84/84/84
f 86/86/86 85/85/85 87/87/87
f 87/87/87 88/88/88 86/86/86
f 9/9/9 15/15/15 89/89/89
f 89/89/89 81/81/81 9/9/9
f 81/81/81 89/89/89 90/90/90
f 90/90/90 83/83/83 81/81/81
f 83/83/83 90/90/90 91/91/91
f 91/91/91 85/85/85 83/83/83
f 85/85/85 91/91/91 92/92/92
f 92/92/92 87/87/87 85/85/85
f 15/15/15 20/20/20 93/93/93
f 93/93/93 89/89/89 15/15/15
f 89/89/89 93/93/93 94/94/94
f 94/94/94 90/90/90 89/89/89
f 90/90/90 94/94/94 95/95/95
f 95/95/95 91/91/91 90/90/90
f 91/91/91 95/95/95 96/96/96
f 96/96/96 92/92/92 91/91/91
f 20/20/20 25/25/25 97/97/97
f 97/97/97 93/93/93 20/20/20
f 93/93/93 97/97/97 98/98/98
f 98/98/98 94/94/94 93/93/93
f 94/94/94 98/98/98 99/99/99
f 99/99/99 95/95/95 94/94/94
f 95/95/95 99/99/99 100/100/100
f 100/100/100 96/96/96 95/95/95
f 25/25/25 30/30/30 101/101/101
f 101/101/101 97/97/97 25/25/25
f 97/97/97 101/101/101 102/102/102
f 102/102/102 98/98/98 97/97/97
f 98/98/98 102/102/102 103/103/103
f 103/103/103 99/99/99 98/98/98
f 99/99/99 103/103/103 104/104/104
f 104/104/104 100/100/100 99/99/99
f 30/30/30 35/35/35 105/105/105
f 105/105/105 101/101/101 30/30/30
f 101/101/101 105/105/105 106/106/106
f 106/106/106 102/102/102 101/101/101
f 102/102/102 106/106/106 107/107/107
f 107/107/107 103/103/103 102/102/102
f 103/103/103 107/107/107 108/108/108
f 108/108/108 104/104/104 103/103/103
f 35/35/35 40/40/40 109/109/109
f 109/109/109 105/105/105 35/35/35
f 105/105/105 109/109/109 110/110/110
f 110/110/110 106/106/106 105/105/105
f 106/106/106 110/110/110 111/111/111
f 111/111/111 107/107/107 106/106/106
f 107/107/107 111/111/111 112/112/112
f 112/112/112 108/108/108 107/107/107
f 40/40/40 45/45/45 113/113/113
f 113/113/113 109/109/109 40/40/40
f 109/109/109 113/113/113 114/114/114
f 114/114/114 110/110/110 109/109/109
f 110/110/110 114/114/114 115/115/115
f 115/115/115 111/111/111 110/110/110
f 111/111/111 115/115/115 116/116/116
f 116/116/116 112/112/112 111/111/111
f 45/45/45 50/50/50 117/117/117
f 117/117/117 113/113/113 45/45/45
f 113/113/113 117/117/117 118/118/118
f 118/118/118 114/114/114 113/113/113
f 114/114/114 118/118/118 119/119/119
f 119/119/119 115/115/115 114/114/114
f 115/115/115 119/119/119 120/120/120
f 120/120/120 116/116/116 115/115/115
f 50/50/50 55/55/55 121/121/121
f 121/121/121 117/117/117 50/50/50
f 117/117/117 121/121/121 122/122/122
f 122/122/122 118/118/118 117/117/117
f 118/118/118 122/122/122 123/123/123
f 123/123/123 119/119/119 118/118/118
f 119/119/119 123/123/123 124/124/124
f 124/124/124 120/120/120 119/119/119
f 55/55/55 60/60/60 125/125/125
f 125/125/125 121/121/121 55/55/55
f 121/121/121 125/125/125 126/126/126
f 126/126/126 122/122/122 121/121/121
f 122/122/122 126/126/126 127/127/127
f 127/127/127 123/123/123 122/122/122
f 123/123/123 127/127/127 128/128/128
f 128/128/128 124/124/124 123/123/123
f 60/60/60 65/65/65 129/129/129
f 129/129/129 125/125/125 60/60/60
f 125/125/125 129/129/129 130/130/130
f 130/130/130 126/126/126 125/125/125
f 126/126/126 130/130/130 131/131/131
f 131/131/131 127/127/127 126/126/126
f 127/127/127 131/131/131 132/132/132
f 132/132/132 128/128/128 127/127/127
f 65/65/65 70/70/70 133/133/133
f 133/133/133 129/129/129 65/65/65
f 129/129/129 133/133/133 134/134/134
f 134/134/134 130/130/130 129/129/129
f 130/130/130 134/134/134 135/135/135
f 135/135/135 131/131/131 130/130/130
f 131/131/131 135/135/135 136/136/136
f 136/136/136 132/132/132 131/131/131
f 70/70/70 75/75/75 137/137/137
f 137/137/137 133/133/133 70/70/70
f 133/133/133 137/137/137 138/138/138
f 138/138/138 134/134/134 133/133/133
f 134/134/134 138/138/138 139/139/139
f 139/139/139 135/135/135 134/134/134
f 135/135/135 139/139/139 140/140/140
f 140/140/140 136/136/136 135/135/135
f 75/75/75 80/80/80 141/141/141
f 141/141/141 137/137/137 75/75/75
f 137/137/137 141/141/141 142/142/142
f 142/142/142 138/138/138 137/137/137
f 138/138/138 142/142/142 143/143/143
f 143/143/143 139/139/139 138/138/138
f 139/139/139 143/143/143 144/144/144
f 144/144/144 140/140/140 139/139/139
f 80/80/80 10/10/10 82/82/82
f 82/82/82 141/141/141 80/80/80
f 141/141/141 82/82/82 84/84/84
f 84/84/84 142/142/142 141/141/141
f 142/142/142 84/84/84 86/86/86
f 86/86/86 143/143/143 142/142/142
f 143/143/143 86/86/86 88/88/88
f 88/88/88 144/144/144 143/143/143
f 88/88/88 87/87/87 145/145/145
f 145/145/145 146/146/146 88/88/88
f 146/146/146 145/145/145 147/147/147
f 147/147/147 148/148/148 146/146/146
f 148/148/148 147/147/147 149/149/149
f 149/149/149 150/150/150 148/148/148
f 150/150/150 149/149/149 151/151/151
f 151/151/151 152/152/152 150/150/150
f 87/87/87 92/92/92 153/153/153
f 153/153/153 145/145/145 87/87/87
f 145/145/145 153/153/153 154/154/154
f 154/154/154 147/147/147 145/145/145
f 147/147/147 154/154/154 155/155/155
f 155/155/155 149/149/149 147/147/147
f 149/149/149 155/155/155 156/156/156
f 156/156/156 151/151/151 149/149/149
f 92/92/92 96/96/96 157/157/157
f 157/157/157 153/153/153 92/92/92
f 153/153/153 157/157/157 158/158/158
f 158/158/158 154/154/154 153/153/153
f 154/154/154 158/158/158 159/159/159
f 159/159/159 155/155/155 154/154/154
f 155/155/155 159/159/159 160/160/160
f 160/160/160 156/156/156 155/155/155
f 96/96/96 100/100/100 161/161/161
f 161/161/161 157/157/157 96/96/96
f 157/157/157 161/161/161 162/162/162
f 162/162/162 158/158/158 157/157/157
f 158/158/158 162/162/162 163/163/163
f 163/163/163 159/159/159 158/158/158
f 159/159/159 163/163/163 164/164/164
f 164/164/164 160/160/160 159/159/159
f 100/100/100 104/104/104 165/165/165
f 165/165/165 161/161/161 100/100/100
f 161/161/161 165/165/165 166/166/166
f 166/166/166 162/162/162 161/161/161
f 162/162/162 166/166/166 167/167/167
f 167/167/167 163/163/163 162/162/162
f 163/163/163 167/167/167 168/168/168
f 168/168/168 164/164/164 163/163/163
f 104/104/104 108/108/108 169/169/169
f 169/169/169 165/165/165 104/104/104
f 165/165/165 169/169/169 170/170/170
f 170/170/170 166/166/166 165/165/165
f 166/166/166 170/170/170 171/171/171
f 171/171/171 167/167/167 166/166/166
f 167/167/167 171/171/171 172/172/172
f 172/172/172 168/168/168 167/167/167
f 108/108/108 112/112/112 173/173/173
f 173/173/173 169/169/169 108/108/108
f 169/169/169 173/173/173 174/174/174
f 174/174/174 170/170/170 169/169/169
f 170/170/170 174/174/174 175/175/175
f 175/175/175 171/171/171 170/170/170
f 171/171/171 175/175/175 176/176/176
f 176/176/176 172/172/172 171/171/171
f 112/112/112 116/116/116 177/177/177
f 177/177/177 173/173/173 112/112/112
f 173/173/173 177/177/177 178/178/178
f 178/178/178 174/174/174 173/173/173
f 174/174/174 178/178/178 179/179/179
f 179/179/179 175/175/175 174/174/174
f 175/175/175 179/179/179 180/180/180
f 180/180/180 176/176/176 175/175/175
f 116/116/116 120/120/120 181/181/181
f 181/181/181 177/177/177 116/116/116
f 177/177/177 181/181/181 182/182/182
f 182/182/182 178/178/178 177/177/177
f 178/178/178 182/182/182 183/183/183
f 183/183/183 179/179/179 178/178/178
f 179/179/179 183/183/183 184/184/184
f 184/184/184 180/180/180 179/179/179
f 120/120/120 124/124/124 185/185/185
f 185/185/185 181/181/181 120/120/120
f 181/181/181 185/185/185 186/186/186
f 186/186/186 182/182/182 181/181/181
f 182/182/182 186/186/186 187/187/187
f 187/187/187 183/183/183 182/182/182
f 183/183/183 187/187/187 188/188/188
f 188/188/188 184/184/184 183/183/183
f 124/124/124 128/128/128 189/189/189
f 189/189/189 185/185/185 124/124/124
f 185/185/185 189/189/189 190/190/190
f 190/190/190 186/186/186 185/185/185
f 186/186/186 190/190/190 191/191/191
f 191/191/191 187/187/187 186/186/186
f 187/187/187 191/191/191 192/192/192
f 192/192/192 188/188/188 187/187/187
f 128/128/128 132/132/132 193/193/193
f 193/193/193 189/189/189 128/128/128
f 189/189/189 193/193/193 194/194/194
f 194/194/194 190/190/190 189/189/189
f 190/190/190 194/194/194 195/195/195
f 195/195/195 191/191/191 190/190/190
f 191/191/191 195/195/195 196/196/196
f 196/196/196 192/192/192 191/191/191
f 132/132/132 136/136/136 197/197/197
f 197/197/197 193/193/193 132/132/132
f 193/193/193 197/197/197 198/198/198
f 198/198/198 194/194/194 193/193/193
f 194/194/194 198/198/198 199/199/199
f 199/199/199 195/195/195 194/194/194
f 195/195/195 199/199/199 200/200/200
f 200/200/200 196/196/196 195/195/195
f 136/136/136 140/140/140 201/201/201
f 201/201/201 197/197/197 136/136/136
f 197/197/197 201/201/201 202/202/202
f 202/202/202 198/198/198 197/197/197
f 198/198/198 202/202/202 203/203/203
f 203/203/203 199/199/199 198/198/198
f 199/199/199 203/203/203 204/204/204
f 204/204/204 200/200/200 199/199/199
f 140/140/140 144/144/144 205/205/205
f 205/205/205 201/201/201 140/140/140
f 201/201/201 205/205/205 206/206/206
f 206/206/206 202/202/202 201/201/201
f 202/202/202 206/206/206 207/207/207
f 207/207/207 203/203/203 202/202/202
f 203/203/203 207/207/207 208/208/208
f 208/208/208 204/204/204 203/203/203
f 144/144/144 88/88/88 146/146/146
f 146/146/146 205/205/205 144/144/144
f 205/205/205 146/146/146 148/148/148
f 148/148/148 206/206/206 205/205/205
f 206/206/206 148/148/148 150/150/150
f 150/150/150 207/207/207 206/206/206
f 207/207/207 150/150/150 152/152/152
f 152/152/152 208/208/208 207/207/207
f 152/152/152 151/151/151 209/209/209
f 209/209/209 210/210/210 152/152/152
f 210/210/210 209/209/209 211/211/211
f 211/211/211 212/212/212 210/210/210
f 212/212/212 211/211/211 213/213/213
f 213/213/213 214/214/214 212/212/212
f 214/214/214 213/213/213 215/215/215
f 151/151/151 156/156/156 216/216/216
f 216/216/216 209/209/209 151/151/151
f 209/209/209 216/216/216 217/217/217
f 217/217/217 211/211/211 209/209/209
f 211/211/211 217/217/217 218/218/218
f 218/218/218 213/213/213 211/211/211
f 213/213/213 218/218/218 215/215/215
f 156/156/156 160/160/160 219/219/219
f 219/219/219 216/216/216 156/156/156
f 216/216/216 219/219/219 220/220/220
f 220/220/220 217/217/217 216/216/216
f 217/217/217 220/220/220 221/221/221
f 221/221/221 218/218/218 217/217/217
f 218/218/218 221/221/221 215/215/215
f 160/160/160 164/164/164 222/222/222
f 222/222/222 219/219/219 160/160/160
f 219/219/219 222/222/222 223/223/223
f 223/223/223 220/220/220 219/219/219
f 220/220/220 223/223/223 224/224/224
f 224/224/224 221/221/221 220/220/220
f 221/221/221 224/224/224 215/215/215
f 164/164/164 168/168/168 225/225/225
f 225/225/225 222/222/222 164/164/164
f 222/222/222 225/225/225 226/226/226
f 226/226/226 223/223/223 222/222/222
f 223/223/223 226/226/226 227/227/227
f 227/227/227 224/224/224 223/223/223
f 224/224/224 227/227/227 215/215/215
f 168/168/168 172/172/172 228/228/228
f 228/228/228 225/225/225 168/168/168
f 225/225/225 228/228/228 229/229/229
f 229/229/229 226/226/226 225/225/225
f 226/226/226 229/229/229 230/230/230
f 230/230/230 227/227/227 226/226/226
f 227/227/227 230/230/230 215/215/215
f 172/172/172 176/176/176 231/231/231
f 231/231/231 228/228/228 172/172/172
f 228/228/228 231/231/231 232/232/232
f 232/232/232 229/229/229 228/228/228
f 229/229/229 232/232/232 233/233/233
f 233/233/233 230/230/230 229/229/229
f 230/230/230 233/233/233 215/215/215
f 176/176/176 180/180/180 234/234/234
f 234/234/234 231/231/231 176/176/176
f 231/231/231 234/234/234 235/235/235
f 235/235/235 232/232/232 231/231/231
f 232/232/232 235/235/235 236/236/236
f 236/236/236 233/233/233 232/232/232
f 233/233/233 236/236/236 215/215/215
f 180/180/180 184/184/184 237/237/237
f 237/237/237 234/234/234 180/180/180
f 234/234/234 237/237/237 238/238/238
f 238/238/238 235/235/235 234/234/234
f 235/235/235 238/238/238 239/239/239
f 239/239/239 236/236/236 235/235/235
f 236/236/236 239/239/239 215/215/215
f 184/184/184 188/188/188 240/240/240
f 240/240/240 237/237/237 184/184/184
f 237/237/237 240/240/240 241/241/241
f 241/241/241 238/238/238 237/237/237
f 238/238/238 241/241/241 242/242/242
f 242/242/242 239/239/239 238/238/238
f 239/239/239 242/242/242 215/215/215
f 188/188/188 192/192/192 243/243/243
f 243/243/243 240/240/240 188/188/188
f 240/240/240 243/243/243 244/244/244
f 244/244/244 241/241/241 240/240/240
f 241/241/241 244/244/244 245/245/245
f 245/245/245 242/242/242 241/241/241
f 242/242/242 245/245/245 215/215/215
f 192/192/192 196/196/196 246/246/246
f 246/246/246 243/243/243 192/192/192
f 243/243/243 246/246/246 247/247/247
f 247/247/247 244/244/244 243/243/243
f 244/244/244 247/247/247 248/248/248
f 248/248/248 245/245/245 244/244/244
f 245/245/245 248/248/248 215/215/215
f 196/196/196 200/200/200 249/249/249
f 249/249/249 246/246/246 196/196/196
f 246/246/246 249/249/249 250/250/250
f 250/250/250 247/247/247 246/246/246
f 247/247/247 250/250/250 251/251/251
f 251/251/251 248/248/248 247/247/247
f 248/248/248 251/251/251 215/215/215
f 200/200/200 204/204/204 252/252/252
f 252/252/252 249/249/249 200/200/200
f 249/249/249 252/252/252 253/253/253
f 253/253/253 250/250/250 249/249/249
f 250/250/250 253/253/253 254/254/254
f 254/254/254 251/251/251 250/250/250
f 251/251/251 254/254/254 215/215/215
f 204/204/204 208/208/208 255/255/255
f 255/255/255 252/252/252 204/204/204
f 252/252/252 255/255/255 256/256/256
f 256/256/256 253/253/253 252/252/252
f 253/253/253 256/256/256 257/257/257
f 257/257/257 254/254/254 253/253/253
f 254/254/254 257/257/257 215/215/215
f 208/208/208 152/152/152 210/210/210
f 210/210/210 255/255/255 208/208/208
f 255/255/255 210/210/210 212/212/212
f 212/212/212 256/256/256 255/255/255
f 256/256/256 212/212/212 214/214/214
f 214/214/214 257/257/257 256/256/256
f 257/257/257 214/214/214 215/215/215
f 258/258/258 259/259/259 260/260/260
f 260/260/260 261/261/261 258/258/258
f 261/261/261 260/260/260 262/262/262
f 262/262/262 263/263/263 261/261/261
f 263/263/263 262/262/262 264/264/264
f 264/264/264 265/265/265 263/263/263
f 265/265/265 264/264/264 266/266/266
f 266/266/266 267/267/267 265/265/265
f 259/259/259 268/268/268 269/269/269
f 269/269/269 260/260/260 259/259/259
f 260/260/260 269/269/269 270/270/270
f 270/270/270 262/262/262 260/260/260
f 262/262/262 270/270/270 271/271/271
f 271/271/271 264/264/264 262/262/262
f 264/264/264 271/271/271 272/272/272
f 272/272/272 266/266/266 264/264/264
f 268/268/268 273/273/273 274/274/274
f 274/274/274 269/269/269 268/268/268
f 269/269/269 274/274/274 275/275/275
f 275/275/275 270/270/270 269/269/269
f 270/270/270 275/275/275 276/276/276
f 276/276/276 271/271/271 270/270/270
f 271/271/271 276/276/276 277/277/277
f 277/277/277 272/272/272 271/271/271
f 273/273/273 278/278/278 279/279/279
f 279/279/279 274/274/274 273/273/273
f 274/274/274 279/279/279 280/280/280
f 280/280/280 275/275/275 274/274/274
f 275/275/275 280/280/280 281/281/281
f 281/281/281 276/276/276 275/275/275
f 276/276/276 281/281/281 282/282/282
f 282/282/282 277/277/277 276/276/276
f 278/278/278 283/283/283 284/284/284
f 284/284/284 279/279/279 278/278/278
f 279/279/279 284/284/284 285/285/285
f 285/285/285 280/280/280 279/279/279
f 280/280/280 285/285/285 286/286/286
f 286/286/286 281/281/281 280/280/280
f 281/281/281 286/286/286 287/287/287
f 287/287/287 282/282/282 281/281/281
f 283/283/283 288/288/288 289/289/289
f 289/289/289 284/284/284 283/283/283
f 284/284/284 289/289/289 290/290/290
f 290/290/290 285/285/285 284/284/284
f 285/285/285 290/290/290 291/291/291
f 291/291/291 286/286/286 285/285/285
f 286/286/286 291/291/291 292/292/292
f 292/292/292 287/287/287 286/286/286
f 288/288/288 293/293/293 294/294/294
f 294/294/294 289/289/289 288/288/288
f 289/289/289 294/294/294 295/295/295
f 295/295/295 290/290/290 289/289/289
f 290/290/290 295/295/295 296/296/296
f 296/296/296 291/291/291 290/290/290
f 291/291/291 296/296/296 297/297/297
f 297/297/297 292/292/292 291/291/291
f 293/293/293 258/258/258 261/261/261
f 261/261/261 294/294/294 293/293/293
f 294/294/294 261/261/261 263/263/263
f 263/263/263 295/295/295 294/294/294
f 295/295/295 263/263/263 265/265/265
f 265/265/265 296/296/296 295/295/295
f 296/296/296 265/265/265 267/267/267
f 267/267/267 297/297/297 296/296/296
f 267/267/267 266/266/266 298/298/298
f 298/298/298 299/299/299 267/267/267
f 299/299/299 298/298/298 300/300/300
f 300/300/300 301/301/301 299/299/299
f 301/301/301 300/300/300 302/302/302
f 302/302/302 303/303/303 301/301/301
f 303/303/303 302/302/302 304/304/304
f 304/304/304 116/116/116 303/303/303
f 266/266/266 272/272/272 305/305/305
f 305/305/305 298/298/298 266/266/266
f 298/298/298 305/305/305 306/306/306
f 306/306/306 300/300/300 298/298/298
f 300/300/300 306/306/306 307/307/307
f 307/307/307 302/302/302 300/300/300
f 302/302/302 307/307/307 308/308/308
f 308/308/308 304/304/304 302/302/302
f 272/272/272 277/277/277 309/309/309
f 309/309/309 305/305/305 272/272/272
f 305/305/305 309/309/309 310/310/310
f 310/310/310 306/306/306 305/305/305
f 306/306/306 310/310/310 311/311/311
f 311/311/311 307/307/307 306/306/306
f 307/307/307 311/311/311 312/312/312
f 312/312/312 308/308/308 307/307/307
f 277/277/277 282/282/282 313/313/313
f 313/313/313 309/309/309 277/277/277
f 309/309/309 313/313/313 314/314/314
f 314/314/314 310/310/310 309/309/309
f 310/310/310 314/314/314 315/315/315
f 315/315/315 311/311/311 310/310/310
f 311/311/311 315/315/315 316/316/316
f 316/316/316 312/312/312 311/311/311
f 282/282/282 287/287/287 317/317/317
f 317/317/317 313/313/313 282/282/282
f 313/313/313 317/317/317 318/318/318
f 318/318/318 314/314/314 313/313/313
f 314/314/314 318/318/318 319/319/319
f 319/319/319 315/315/315 314/314/314
f 315/315/315 319/319/319 320/320/320
f 320/320/320 316/316/316 315/315/315
f 287/287/287 292/292/292 321/321/321
f 321/321/321 317/317/317 287/287/287
f 317/317/317 321/321/321 322/322/322
f 322/322/322 318/318/318 317/317/317
f 318/318/318 322/322/322 323/323/323
f 323/323/323 319/319/319 318/318/318
f 319/319/319 323/323/323 324/324/324
f 324/324/324 320/320/320 319/319/319
f 292/292/292 297/297/297 325/325/325
f 325/325/325 321/321/321 292/292/292
f 321/321/321 325/325/325 326/326/326
f 326/326/326 322/322/322 321/321/321
f 322/322/322 326/326/326 327/327/327
f 327/327/327 323/323/323 322/322/322
f 323/323/323 327/327/327 328/328/328
f 328/328/328 324/324/324 323/323/323
f 297/297/297 267/267/267 299/299/299
f 299/299/299 325/325/325 297/297/297
f 325/325/325 299/299/299 301/301/301
f 301/301/301 326/326/326 325/325/325
f 326/326/326 301/301/301 303/303/303
f 303/303/303 327/327/327 326/326/326
f 327/327/327 303/303/303 116/116/116
f 116/116/116 328/328/328 327/327/327
f 329/329/329 330/330/330 331/331/331
f 331/331/331 332/332/332 329/329/329
f 332/332/332 331/331/331 333/333/333
f 333/333/333 334/334/334 332/332/332
f 334/334/334 333/333/333 335/335/335
f 335/335/335 336/336/336 334/334/334
f 336/336/336 335/335/335 337/337/337
f 337/337/337 338/338/338 336/336/336
f 330/330/330 339/339/339 340/340/340
f 340/340/340 331/331/331 330/330/330
f 331/331/331 340/340/340 341/341/341
f 341/341/341 333/333/333 331/331/331
f 333/333/333 341/341/341 342/342/342
f 342/342/342 335/335/335 333/333/333
f 335/335/335 342/342/342 343/343/343
f 343/343/343 337/337/337 335/335/335
f 339/339/339 344/344/344 345/345/345
f 345/345/345 340/340/340 339/339/339
f 340/340/340 345/345/345 346/346/346
f 346/346/346 341/341/341 340/340/340
f 341/341/341 346/346/346 347/347/347
f 347/347/347 342/342/342 341/341/341
f 342/342/342 347/347/347 348/348/348
f 348/348/348 343/343/343 342/342/342
f 344/344/344 349/349/349 350/350/350
f 350/350/350 345/345/345 344/344/344
f 345/345/345 350/350/350 351/351/351
f 351/351/351 346/346/346 345/345/345
f 346/346/346 351/351/351 352/352/352
f 352/352/352 347/347/347 346/346/346
f 347/347/347 352/352/352 353/353/353
f 353/353/353 348/348/348 347/347/347
f 349/349/349 354/354/354 355/355/355
f 355/355/355 350/350/350 349/349/349
f 350/350/350 355/355/355 356/356/356
f 356/356/356 351/351/351 350/350/350
f 351/351/351 356/356/356 357/357/357
f 357/357/357 352/352/352 351/351/351
f 352/352/352 357/357/357 358/358/358
f 358/358/358 353/353/353 352/352/352
f 354/354/354 359/359/359 360/360/360
f 360/360/360 355/355/355 354/354/354
f 355/355/355 360/360/360 361/361/361
f 361/361/361 356/356/356 355/355/355
f 356/356/356 361/361/361 362/362/362
f 362/362/362 357/357/357 356/356/356
f 357/357/357 362/362/362 363/363/363
f 363/363/363 358/358/358 357/357/357
f 359/359/359 364/364/364 365/365/365
f 365/365/365 360/360/360 359/359/359
f 360/360/360 365/365/365 366/366/366
f 366/366/366 361/361/361 360/360/360
f 361/361/361 366/366/366 367/367/367
f 367/367/367 362/362/362 361/361/361
f 362/362/362 367/367/367 368/368/368
f 368/368/368 363/363/363 362/362/362
f 364/364/364 329/329/329 332/332/332
f 332/332/332 365/365/365 364/364/364
f 365/365/365 332/332/332 334/334/334
f 334/334/334 366/366/366 365/365/365
f 366/366/366 334/334/334 336/336/336
f 336/336/336 367/367/367 366/366/366
f 367/367/367 336/336/336 338/338/338
f 338/338/338 368/368/368 367/367/367
f 338/338/338 337/337/337 369/369/369
f 369/369/369 370/370/370 338/338/338
f 370/370/370 369/369/369 371/371/371
f 371/371/371 372/372/372 370/370/370
f 372/372/372 371/371/371 373/373/373
f 373/373/373 374/374/374 372/372/372
f 374/374/374 373/373/373 375/375/375
f 375/375/375 376/376/376 374/374/374
f 337/337/337 343/343/343 377/377/377
f 377/377/377 369/369/369 337/337/337
f 369/369/369 377/377/377 378/378/378
f 378/378/378 371/371/371 369/369/369
f 371/371/371 378/378/378 379/379/379
f 379/379/379 373/373/373 371/371/371
f 373/373/373 379/379/379 380/380/380
f 380/380/380 375/375/375 373/373/373
f 343/343/343 348/348/348 381/381/381
f 381/381/381 377/377/377 343/343/343
f 377/377/377 381/381/381 382/382/382
f 382/382/382 378/378/378 377/377/377
f 378/378/378 382/382/382 383/383/383
f 383/383/383 379/379/379 378/378/378
f 379/379/379 383/383/383 384/384/384
f 384/384/384 380/380/380 379/379/379
f 348/348/348 353/353/353 385/385/385
f 385/385/385 381/381/381 348/348/348
f 381/381/381 385/385/385 386/386/386
f 386/386/386 382/382/382 381/381/381
f 382/382/382 386/386/386 387/387/387
f 387/387/387 383/383/383 382/382/382
f 383/383/383 387/387/387 388/388/388
f 388/388/388 384/384/384 383/383/383
f 353/353/353 358/358/358 389/389/389
f 389/389/389 385/385/385 353/353/353
f 385/385/385 389/389/389 390/390/390
f 390/390/390 386/386/386 385/385/385
f 386/386/386 390/390/390 391/391/391
f 391/391/391 387/387/387 386/386/386
f 387/387/387 391/391/391 392/392/392
f 392/392/392 388/388/388 387/387/387
f 358/358/358 363/363/363 393/393/393
f 393/393/393 389/389/389 358/358/358
f 389/389/389 393/393/393 394/394/394
f 394/394/394 390/390/390 389/389/389
f 390/390/390 394/394/394 395/395/395
f 395/395/395 391/391/391 390/390/390
f 391/391/391 395/395/395 396/396/396
f 396/396/396 392/392/392 391/391/391
f 363/363/363 368/368/368 397/397/397
f 397/397/397 393/393/393 363/363/363
f 393/393/393 397/397/397 398/398/398
f 398/398/398 394/394/394 393/393/393
f 394/394/394 398/398/398 399/399/399
f 399/399/399 395/395/395 394/394/394
f 395/395/395 399/399/399 400/400/400
f 400/400/400 396/396/396 395/395/395
f 368/368/368 338/338/338 370/370/370
f 370/370/370 397/397/397 368/368/368
f 397/397/397 370/370/370 372/372/372
f 372/372/372 398/398/398 397/397/397
f 398/398/398 372/372/372 374/374/374
f 374/374/374 399/399/399 398/398/398
f 399/399/399 374/374/374 376/376/376
f 376/376/376 400/400/400 399/399/399
f 401/401/401 402/402/402 403/403/403
f 402/402/402 401/401/401 404/404/404
f 404/404/404 405/405/405 402/402/402
f 405/405/405 404/404/404 406/406/406
f 406/406/406 407/407/407 405/405/405
f 407/407/407 406/406/406 408/408/408
f 408/408/408 409/409/409 407/407/407
f 410/410/410 401/401/401 403/403/403
f 401/401/401 410/410/410 411/411/411
f 411/411/411 404/404/404 401/401/401
f 404/404/404 411/411/411 412/412/412
f 412/412/412 406/406/406 404/404/404
f 406/406/406 412/412/412 413/413/413
f 413/413/413 408/408/408 406/406/406
f 414/414/414 410/410/410 403/403/403
f 410/410/410 414/414/414 415/415/415
f 415/415/415 411/411/411 410/410/410
f 411/411/411 415/415/415 416/416/416
f 416/416/416 412/412/412 411/411/411
f 412/412/412 416/416/416 417/417/417
f 417/417/417 413/413/413 412/412/412
f 418/418/418 414/414/414 403/403/403
f 414/414/414 418/418/418 419/419/419
f 419/419/419 415/415/415 414/414/414
f 415/415/415 419/419/419 420/420/420
f 420/420/420 416/416/416 415/415/415
f 416/416/416 420/420/420 421/421/421
f 421/421/421 417/417/417 416/416/416
f 422/422/422 418/418/418 403/403/403
f 418/418/418 422/422/422 423/423/423
f 423/423/423 419/419/419 418/418/418
f 419/419/419 423/423/423 424/424/424
f 424/424/424 420/420/420 419/419/419
f 420/420/420 424/424/424 425/425/425
f 425/425/425 421/421/421 420/420/420
f 426/426/426 422/422/422 403/403/403
f 422/422/422 426/426/426 427/427/427
f 427/427/427 423/423/423 422/422/422
f 423/423/423 427/427/427 428/428/428
f 428/428/428 424/424/424 423/423/423
f 424/424/424 428/428/428 429/429/429
f 429/429/429 425/425/425 424/424/424
f 430/430/430 426/426/426 403/403/403
f 426/426/426 430/430/430 431/431/431
f 431/431/431 427/427/427 426/426/426
f 427/427/427 431/431/431 432/432/432
f 432/432/432 428/428/428 427/427/427
f 428/428/428 432/432/432 433/433/433
f 433/433/433 429/429/429 428/428/428
f 434/434/434 430/430/430 403/403/403
f 430/430/430 434/434/434 435/435/435
f 435/435/435 431/431/431 430/430/430
f 431/431/431 435/435/435 436/436/436
f 436/436/436 432/432/432 431/431/431
f 432/432/432 436/436/436 437/437/437
f 437/437/437 433/433/433 432/432/432
f 438/438/438 434/434/434 403/403/403
f 434/434/434 438/438/438 439/439/439
f 439/439/439 435/435/435 434/434/434
f 435/435/435 439/439/439 440/440/440
f 440/440/440 436/436/436 435/435/435
f 436/436/436 440/440/440 441/441/441
f 441/441/441 437/437/437 436/436/436
f 442/442/442 438/438/438 403/403/403
f 438/438/438 442/442/442 443/443/443
f 443/443/443 439/439/439 438/438/438
f 439/439/439 443/443/443 444/444/444
f 444/444/444 440/440/440 439/439/439
f 440/440/440 444/444/444 445/445/445
f 445/445/445 441/441/441 440/440/440
f 446/446/446 442/442/442 403/403/403
f 442/442/442 446/446/446 447/447/447
f 447/447/447 443/443/443 442/442/442
f 443/443/443 447/447/447 448/448/448
f 448/448/448 444/444/444 443/443/443
f 444/444/444 448/448/448 449/449/449
f 449/449/449 445/445/445 444/444/444
f 450/450/450 446/446/446 403/403/403
f 446/446/446 450/450/450 451/451/451
f 451/451/451 447/447/447 446/446/446
f 447/447/447 451/451/451 452/452/452
f 452/452/452 448/448/448 447/447/447
f 448/448/448 452/452/452 453/453/453
f 453/453/453 449/449/449 448/448/448
f 454/454/454 450/450/450 403/403/403
f 450/450/450 454/454/454 455/455/455
f 455/455/455 451/451/451 450/450/450
f 451/451/451 455/455/455 456/456/456
f 456/456/456 452/452/452 451/451/451
f 452/452/452 456/456/456 457/457/457
f 457/457/457 453/453/453 452/452/452
f 458/458/458 454/454/454 403/403/403
f 454/454/454 458/458/458 459/459/459
f 459/459/459 455/455/455 454/454/454
f 455/455/455 459/459/459 460/460/460
f 460/460/460 456/456/456 455/455/455
f 456/456/456 460/460/460 461/461/461
f 461/461/461 457/457/457 456/456/456
f 462/462/462 458/458/458 403/403/403
f 458/458/458 462/462/462 463/463/463
f 463/463/463 459/459/459 458/458/458
f 459/459/459 463/463/463 464/464/464
f 464/464/464 460/460/460 459/459/459
f 460/460/460 464/464/464 465/465/465
f 465/465/465 461/461/461 460/460/460
f 402/402/402 462/462/462 403/403/403
f 462/462/462 402/402/402 405/405/405
f 405/405/405 463/463/463 462/462/462
f 463/463/463 405/405/405 407/407/407
f 407/407/407 464/464/464 463/463/463
f 464/464/464 407/407/407 409/409/409
f 409/409/409 465/465/465 464/464/464
f 409/409/409 408/408/408 466/466/466
f 466/466/466 467/467/467 409/409/409
f 467/467/467 466/466/466 468/468/468
f 468/468/468 469/469/469 467/467/467
f 469/469/469 468/468/468 470/470/470
f 470/470/470 471/471/471 469/469/469
f 471/471/471 470/470/470 472/472/472
f 472/472/472 473/473/473 471/471/471
f 408/408/408 413/413/413 474/474/474
f 474/474/474 466/466/466 408/408/408
f 466/466/466 474/474/474 475/475/475
f 475/475/475 468/468/468 466/466/466
f 468/468/468 475/475/475 476/476/476
f 476/476/476 470/470/470 468/468/468
f 470/470/470 476/476/476 477/477/477
f 477/477/477 472/472/472 470/470/470
f 413/413/413 417/417/417 478/478/478
f 478/478/478 474/474/474 413/413/413
f 474/474/474 478/478/478 479/479/479
f 479/479/479 475/475/475 474/474/474
f 475/475/475 479/479/479 480/480/480
f 480/480/480 476/476/476 475/475/475
f 476/476/476 480/480/480 481/481/481
f 481/481/481 477/477/477 476/476/476
f 417/417/417 421/421/421 482/482/482
f 482/482/482 478/478/478 417/417/417
f 478/478/478 482/482/482 483/483/483
f 483/483/483 479/479/479 478/478/478
f 479/479/479 483/483/483 484/484/484
f 484/484/484 480/480/480 479/479/479
f 480/480/480 484/484/484 485/485/485
f 485/485/485 481/481/481 480/480/480
f 421/421/421 425/425/425 486/486/486
f 486/486/486 482/482/482 421/421/421
f 482/482/482 486/486/486 487/487/487
f 487/487/487 483/483/483 482/482/482
f 483/483/483 487/487/487 488/488/488
f 488/488/488 484/484/484 483/483/483
f 484/484/484 488/488/488 489/489/489
f 489/489/489 485/485/485 484/484/484
f 425/425/425 429/429/429 490/490/490
f 490/490/490 486/486/486 425/425/425
f 486/486/486 490/490/490 491/491/491
f 491/491/491 487/487/487 486/486/486
f 487/487/487 491/491/491 492/492/492
f 492/492/492 488/488/488 487/487/487
f 488/488/488 492/492/492 493/493/493
f 493/493/493 489/489/489 488/488/488
f 429/429/429 433/433/433 494/494/494
f 494/494/494 490/490/490 429/429/429
f 490/490/490 494/494/494 495/495/495
f 495/495/495 491/491/491 490/490/490
f 491/491/491 495/495/495 496/496/496
f 496/496/496 492/492/492 491/491/491
f 492/492/492 496/496/496 497/497/497
f 497/497/497 493/493/493 492/492/492
f 433/433/433 437/437/437 498/498/498
f 498/498/498 494/494/494 433/433/433
f 494/494/494 498/498/498 499/499/499
f 499/499/499 495/495/495 494/494/494
f 495/495/495 499/499/499 500/500/500
f 500/500/500 496/496/496 495/495/495
f 496/496/496 500/500/500 501/501/501
f 501/501/501 497/497/497 496/496/496
f 437/437/437 441/441/441 502/502/502
f 502/502/502 498/498/498 437/437/437
f 498/498/498 502/502/502 503/503/503
f 503/503/503 499/499/499 498/498/498
f 499/499/499 503/503/503 504/504/504
f 504/504/504 500/500/500 499/499/499
f 500/500/500 504/504/504 505/505/505
f 505/505/505 501/501/501 500/500/500
f 441/441/441 445/445/445 506/506/506
f 506/506/506 502/502/502 441/441/441
f 502/502/502 506/506/506 507/507/507
f 507/507/507 503/503/503 502/502/502
f 503/503/503 507/507/507 508/508/508
f 508/508/508 504/504/504 503/503/503
f 504/504/504 508/508/508 509/509/509
f 509/509/509 505/505/505 504/504/504
f 445/445/445 449/449/449 510/510/510
f 510/510/510 506/506/506 445/445/445
f 506/506/506 510/510/510 511/511/511
f 511/511/511 507/507/507 506/506/506
f 507/507/507 511/511/511 512/512/512
f 512/512/512 508/508/508 507/507/507
f 508/508/508 512/512/512 513/513/513
f 513/513/513 509/509/509 508/508/508
f 449/449/449 453/453/453 514/514/514
f 514/514/514 510/510/510 449/449/449
f 510/510/510 514/514/514 515/515/515
f 515/515/515 511/511/511 510/510/510
f 511/511/511 515/515/515 516/516/516
f 516/516/516 512/512/512 511/511/511
f 512/512/512 516/516/516 517/517/517
f 517/517/517 513/513/513 512/512/512
f 453/453/453 457/457/457 518/518/518
f 518/518/518 514/514/514 453/453/453
f 514/514/514 518/518/518 519/519/519
f 519/519/519 515/515/515 514/514/514
f 515/515/515 519/519/519 520/520/520
f 520/520/520 516/516/516 515/515/515
f 516/516/516 520/520/520 521/521/521
f 521/521/521 517/517/517 516/516/516
f 457/457/457 461/461/461 522/522/522
f 522/522/522 518/518/518 457/457/457
f 518/518/518 522/522/522 523/523/523
f 523/523/523 519/519/519 518/518/518
f 519/519/519 523/523/523 524/524/524
f 524/524/524 520/520/520 519/519/519
f 520/520/520 524/524/524 525/525/525
f 525/525/525 521/521/521 520/520/520
f 461/461/461 465/465/465 526/526/526
f 526/526/526 522/522/522 461/461/461
f 522/522/522 526/526/526 527/527/527
f 527/527/527 523/523/523 522/522/522
f 523/523/523 527/527/527 528/528/528
f 528/528/528 524/524/524 523/523/523
f 524/524/524 528/528/528 529/529/529
f 529/529/529 525/525/525 524/524/524
f 465/465/465 409/409/409 467/467/467
f 467/467/467 526/526/526 465/465/465
f 526/526/526 467/467/467 469/469/469
f 469/469/469 527/527/527 526/526/526
f 527/527/527 469/469/469 471/471/471
f 471/471/471 528/528/528 527/527/527
f 528/528/528 471/471/471 473/473/473
f 473/473/473 529/529/529 528/528/528
# 992 faces

