v 0.752406 -0.675505 0.375620
v 0.707031 -0.563512 0.628503
v 0.707031 -0.675505 0.632958
v 0.752406 -0.583951 0.371978
v 0.707031 -0.452226 0.615168
v 0.752406 -0.492976 0.361076
v 0.707031 -0.342351 0.593035
v 0.752406 -0.403153 0.342983
v 0.707031 -0.234582 0.562246
v 0.752406 -0.315052 0.317813
v 0.707031 -0.129598 0.522994
v 0.752406 -0.229228 0.285724
v 0.707031 -0.028063 0.475527
v 0.752406 -0.146224 0.246921
v 0.707031 0.069381 0.420147
v 0.752406 -0.066564 0.201647
v 0.707031 0.162118 0.357201
v 0.752406 0.009248 0.150190
v 0.707031 0.249563 0.287089
v 0.752406 0.080734 0.092873
v 0.707031 0.331163 0.210253
v 0.752406 0.147441 0.030060
v 0.707031 0.406402 0.127178
v 0.752406 0.208949 -0.037853
v 0.707031 0.474805 0.038390
v 0.752406 0.264869 -0.110437
v 0.707031 0.535941 -0.055550
v 0.752406 0.314846 -0.187233
v 0.707031 0.589421 -0.154049
v 0.752406 0.358567 -0.267755
v 0.707031 0.634910 -0.256485
v 0.752406 0.395753 -0.351496
v 0.707031 0.672119 -0.362211
v 0.752406 0.426171 -0.437926
v 0.707031 0.700813 -0.470557
v 0.752406 0.449628 -0.526499
v 0.707031 0.720810 -0.580841
v 0.752406 0.465976 -0.616655
v 0.402506 0.465976 -0.616655
v 0.378232 0.584001 -0.496573
v 0.378232 0.602302 -0.597496
v 0.402506 0.449628 -0.526499
v 0.378232 0.557743 -0.397422
v 0.402506 0.426171 -0.437926
v 0.378232 0.523692 -0.300669
v 0.402506 0.395753 -0.351496
v 0.378232 0.482064 -0.206927
v 0.402506 0.358567 -0.267755
v 0.378232 0.433123 -0.116788
v 0.402506 0.314846 -0.187233
v 0.378232 0.377176 -0.030820
v 0.402506 0.264869 -0.110437
v 0.378232 0.314578 0.050432
v 0.402506 0.208949 -0.037853
v 0.378232 0.245725 0.126456
v 0.402506 0.147441 0.030060
v 0.378232 0.171050 0.196771
v 0.402506 0.080734 0.092873
v 0.378232 0.091027 0.260932
v 0.402506 0.009248 0.150190
v 0.378232 0.006161 0.318535
v 0.402506 -0.066564 0.201647
v 0.378232 -0.083013 0.369216
v 0.402506 -0.146224 0.246921
v 0.378232 -0.175930 0.412654
v 0.402506 -0.229228 0.285724
v 0.378232 -0.272004 0.448574
v 0.402506 -0.315052 0.317813
v 0.378232 -0.370627 0.476750
v 0.402506 -0.403153 0.342983
v 0.378232 -0.471176 0.497004
v 0.402506 -0.492976 0.361076
v 0.378232 -0.573017 0.509208
v 0.402506 -0.583951 0.371978
v 0.378232 -0.675505 0.513285
v 0.402506 -0.675505 0.375620
v 0.576377 -0.545538 0.854088
v 0.576377 -0.675505 0.859257
v 0.576377 -0.416392 0.838612
v 0.576377 -0.288883 0.812927
v 0.576377 -0.163817 0.777196
v 0.576377 -0.041984 0.731645
v 0.576377 0.075846 0.676561
v 0.576377 0.188929 0.612292
v 0.576377 0.296550 0.539244
v 0.576377 0.398029 0.457879
v 0.576377 0.492725 0.368712
v 0.576377 0.580039 0.272304
v 0.576377 0.659421 0.169267
v 0.576377 0.730368 0.060249
v 0.576377 0.792432 -0.054058
v 0.576377 0.845221 -0.172934
v 0.576377 0.888401 -0.295628
v 0.576377 0.921700 -0.421363
v 0.576377 0.944907 -0.549346
v 0.308337 0.702167 -0.470256
v 0.308337 0.722184 -0.580648
v 0.308337 0.673445 -0.361802
v 0.308337 0.636200 -0.255973
v 0.308337 0.590666 -0.153436
v 0.308337 0.537133 -0.054840
v 0.308337 0.475938 0.039193
v 0.308337 0.407467 0.128068
v 0.308337 0.332153 0.211225
v 0.308337 0.250473 0.288136
v 0.308337 0.162942 0.358318
v 0.308337 0.070114 0.421325
v 0.308337 -0.027426 0.476760
v 0.308337 -0.129060 0.524273
v 0.308337 -0.234148 0.563564
v 0.308337 -0.342024 0.594383
v 0.308337 -0.452007 0.616538
v 0.308337 -0.563402 0.629887
v 0.308337 -0.675505 0.634346
v 0.376203 -0.532197 1.021523
v 0.376203 -0.675505 1.027223
v 0.376203 -0.389795 1.004458
v 0.376203 -0.249197 0.976137
v 0.376203 -0.111294 0.936738
v 0.376203 0.023045 0.886511
v 0.376203 0.152970 0.825773
v 0.376203 0.277661 0.754907
v 0.376203 0.396328 0.674361
v 0.376203 0.508224 0.584645
v 0.376203 0.612640 0.486324
v 0.376203 0.708917 0.380021
v 0.376203 0.796447 0.266407
v 0.376203 0.874677 0.146199
v 0.376203 0.943111 0.020158
v 0.376203 1.001319 -0.110920
v 0.376203 1.048932 -0.246208
v 0.376203 1.085649 -0.384850
v 0.376203 1.111238 -0.525970
v 0.201253 0.789873 -0.450723
v 0.201253 0.811164 -0.568142
v 0.201253 0.759322 -0.335365
v 0.201253 0.719706 -0.222798
v 0.201253 0.671274 -0.113734
v 0.201253 0.614332 -0.008861
v 0.201253 0.549241 0.091159
v 0.201253 0.476411 0.185692
v 0.201253 0.396303 0.274142
v 0.201253 0.309423 0.355950
v 0.201253 0.216320 0.430599
v 0.201253 0.117582 0.497618
v 0.201253 0.013832 0.556582
v 0.201253 -0.094273 0.607120
v 0.201253 -0.206050 0.648912
v 0.201253 -0.320793 0.681694
v 0.201253 -0.437778 0.705259
v 0.201253 -0.556265 0.719457
v 0.201253 -0.675505 0.724200
v 0.130654 -0.525099 1.110613
v 0.130654 -0.675505 1.116595
v 0.130654 -0.375642 1.092703
v 0.130654 -0.228081 1.062979
v 0.130654 -0.083346 1.021629
v 0.130654 0.057646 0.968914
v 0.130654 0.194007 0.905167
v 0.130654 0.324874 0.830791
v 0.130654 0.449420 0.746255
v 0.130654 0.566858 0.652095
v 0.130654 0.676446 0.548904
v 0.130654 0.777492 0.437335
v 0.130654 0.869358 0.318094
v 0.130654 0.951462 0.191932
v 0.130654 1.023286 0.059648
v 0.130654 1.084377 -0.077924
v 0.130654 1.134348 -0.219912
v 0.130654 1.172884 -0.365421
v 0.130654 1.199741 -0.513531
v 0.069894 0.836540 -0.440329
v 0.069894 0.858510 -0.561488
v 0.069894 0.805016 -0.321298
v 0.069894 0.764138 -0.205146
v 0.069894 0.714164 -0.092608
v 0.069894 0.655409 0.015605
v 0.069894 0.588245 0.118809
v 0.069894 0.513096 0.216353
v 0.069894 0.430437 0.307620
v 0.069894 0.340790 0.392034
v 0.069894 0.244721 0.469060
v 0.069894 0.142839 0.538213
v 0.069894 0.035785 0.599055
v 0.069894 -0.075762 0.651202
v 0.069894 -0.191099 0.694325
v 0.069894 -0.309497 0.728151
v 0.069894 -0.430207 0.752466
v 0.069894 -0.552467 0.767117
v 0.069894 -0.675505 0.772011
v -0.130654 -0.525099 1.110613
v -0.130654 -0.675505 1.116595
v -0.130654 -0.375642 1.092703
v -0.130654 -0.228081 1.062979
v -0.130654 -0.083346 1.021629
v -0.130654 0.057646 0.968914
v -0.130654 0.194007 0.905167
v -0.130654 0.324874 0.830791
v -0.130654 0.449420 0.746255
v -0.130654 0.566858 0.652095
v -0.130654 0.676446 0.548904
v -0.130654 0.777492 0.437335
v -0.130654 0.869358 0.318094
v -0.130654 0.951462 0.191932
v -0.130654 1.023286 0.059648
v -0.130654 1.084377 -0.077924
v -0.130654 1.134348 -0.219912
v -0.130654 1.172884 -0.365421
v -0.130654 1.199741 -0.513531
v -0.069895 0.836540 -0.440329
v -0.069895 0.858510 -0.561488
v -0.069895 0.805016 -0.321298
v -0.069895 0.764138 -0.205146
v -0.069895 0.714164 -0.092608
v -0.069895 0.655409 0.015605
v -0.069895 0.588245 0.118809
v -0.069895 0.513096 0.216353
v -0.069895 0.430437 0.307620
v -0.069895 0.340790 0.392034
v -0.069895 0.244721 0.469060
v -0.069895 0.142839 0.538213
v -0.069895 0.035785 0.599055
v -0.069895 -0.075762 0.651202
v -0.069895 -0.191099 0.694325
v -0.069895 -0.309497 0.728151
v -0.069895 -0.430207 0.752466
v -0.069895 -0.552467 0.767117
v -0.069895 -0.675505 0.772011
v -0.376203 -0.532197 1.021523
v -0.376203 -0.675505 1.027223
v -0.376203 -0.389795 1.004458
v -0.376203 -0.249197 0.976137
v -0.376203 -0.111294 0.936738
v -0.376203 0.023045 0.886511
v -0.376203 0.152970 0.825773
v -0.376203 0.277661 0.754907
v -0.376203 0.396328 0.674361
v -0.376203 0.508224 0.584645
v -0.376203 0.612640 0.486324
v -0.376203 0.708917 0.380021
v -0.376203 0.796447 0.266407
v -0.376203 0.874677 0.146199
v -0.376203 0.943111 0.020158
v -0.376203 1.001319 -0.110920
v -0.376203 1.048932 -0.246208
v -0.376203 1.085649 -0.384850
v -0.376203 1.111238 -0.525970
v -0.201253 0.789873 -0.450723
v -0.201253 0.811164 -0.568142
v -0.201253 0.759322 -0.335365
v -0.201253 0.719706 -0.222798
v -0.201253 0.671274 -0.113734
v -0.201253 0.614332 -0.008861
v -0.201253 0.549241 0.091159
v -0.201253 0.476411 0.185692
v -0.201253 0.396303 0.274142
v -0.201253 0.309423 0.355950
v -0.201253 0.216320 0.430599
v -0.201253 0.117582 0.497618
v -0.201253 0.013832 0.556582
v -0.201253 -0.094273 0.607120
v -0.201253 -0.206050 0.648912
v -0.201253 -0.320793 0.681694
v -0.201253 -0.437778 0.705259
v -0.201253 -0.556265 0.719457
v -0.201253 -0.675505 0.724200
v -0.576377 -0.545538 0.854088
v -0.576377 -0.675505 0.859257
v -0.576377 -0.416392 0.838612
v -0.576377 -0.288883 0.812927
v -0.576377 -0.163817 0.777196
v -0.576377 -0.041984 0.731645
v -0.576377 0.075846 0.676560
v -0.576377 0.188929 0.612292
v -0.576377 0.296550 0.539244
v -0.576377 0.398029 0.457879
v -0.576377 0.492725 0.368712
v -0.576377 0.580039 0.272304
v -0.576377 0.659421 0.169267
v -0.576377 0.730368 0.060249
v -0.576377 0.792432 -0.054058
v -0.576377 0.845221 -0.172934
v -0.576377 0.888401 -0.295628
v -0.576377 0.921700 -0.421363
v -0.576377 0.944907 -0.549346
v -0.308338 0.702167 -0.470256
v -0.308338 0.722184 -0.580648
v -0.308338 0.673445 -0.361802
v -0.308338 0.636199 -0.255973
v -0.308338 0.590666 -0.153436
v -0.308338 0.537133 -0.054840
v -0.308338 0.475938 0.039193
v -0.308338 0.407467 0.128068
v -0.308338 0.332153 0.211224
v -0.308338 0.250473 0.288136
v -0.308338 0.162942 0.358317
v -0.308338 0.070114 0.421325
v -0.308338 -0.027426 0.476760
v -0.308338 -0.129060 0.524273
v -0.308338 -0.234148 0.563564
v -0.308338 -0.342024 0.594383
v -0.308338 -0.452007 0.616538
v -0.308338 -0.563402 0.629886
v -0.308338 -0.675505 0.634345
v -0.707031 -0.563512 0.628503
v -0.707031 -0.675505 0.632958
v -0.707031 -0.452226 0.615167
v -0.707031 -0.342351 0.593035
v -0.707031 -0.234582 0.562245
v -0.707031 -0.129598 0.522994
v -0.707031 -0.028063 0.475527
v -0.707031 0.069381 0.420147
v -0.707031 0.162118 0.357201
v -0.707031 0.249563 0.287089
v -0.707031 0.331163 0.210253
v -0.707031 0.406402 0.127178
v -0.707031 0.474805 0.038390
v -0.707031 0.535941 -0.055550
v -0.707031 0.589421 -0.154049
v -0.707031 0.634910 -0.256485
v -0.707031 0.672119 -0.362211
v -0.707031 0.700812 -0.470557
v -0.707031 0.720810 -0.580841
v -0.378232 0.584001 -0.496573
v -0.378232 0.602302 -0.597496
v -0.378232 0.557743 -0.397422
v -0.378232 0.523692 -0.300669
v -0.378232 0.482064 -0.206927
v -0.378232 0.433123 -0.116788
v -0.378232 0.377176 -0.030820
v -0.378232 0.314578 0.050432
v -0.378232 0.245725 0.126456
v -0.378232 0.171050 0.196771
v -0.378232 0.091027 0.260932
v -0.378232 0.006161 0.318535
v -0.378232 -0.083013 0.369216
v -0.378232 -0.175930 0.412654
v -0.378232 -0.272004 0.448574
v -0.378232 -0.370627 0.476750
v -0.378232 -0.471176 0.497004
v -0.378232 -0.573017 0.509208
v -0.378232 -0.675505 0.513285
v -0.752407 -0.583951 0.371978
v -0.752407 -0.675505 0.375620
v -0.752407 -0.492976 0.361076
v -0.752407 -0.403153 0.342983
v -0.752407 -0.315052 0.317813
v -0.752407 -0.229228 0.285724
v -0.752407 -0.146224 0.246921
v -0.752407 -0.066564 0.201647
v -0.752407 0.009248 0.150190
v -0.752407 0.080734 0.092873
v -0.752407 0.147441 0.030060
v -0.752407 0.208949 -0.037853
v -0.752407 0.264869 -0.110437
v -0.752407 0.314846 -0.187233
v -0.752407 0.358567 -0.267755
v -0.752407 0.395753 -0.351496
v -0.752407 0.426171 -0.437926
v -0.752407 0.449628 -0.526499
v -0.752407 0.465976 -0.616655
v -0.402506 0.449628 -0.526499
v -0.402506 0.465976 -0.616655
v -0.402506 0.426171 -0.437926
v -0.402506 0.395753 -0.351496
v -0.402506 0.358567 -0.267755
v -0.402506 0.314846 -0.187233
v -0.402506 0.264869 -0.110437
v -0.402506 0.208949 -0.037853
v -0.402506 0.147441 0.030060
v -0.402506 0.080734 0.092873
v -0.402506 0.009248 0.150190
v -0.402506 -0.066564 0.201647
v -0.402506 -0.146224 0.246921
v -0.402506 -0.229228 0.285724
v -0.402506 -0.315052 0.317813
v -0.402506 -0.403153 0.342983
v -0.402506 -0.492976 0.361076
v -0.402506 -0.583951 0.371978
v -0.402506 -0.675505 0.375620
v -0.707031 -0.604390 0.115453
v -0.707031 -0.675505 0.118281
v -0.707031 -0.533725 0.106985
v -0.707031 -0.463956 0.092931
v -0.707031 -0.395523 0.073380
v -0.707031 -0.328859 0.048455
v -0.707031 -0.264385 0.018315
v -0.707031 -0.202509 -0.016852
v -0.707031 -0.143622 -0.056822
v -0.707031 -0.088095 -0.101342
v -0.707031 -0.036280 -0.150132
v -0.707031 0.011496 -0.202884
v -0.707031 0.054932 -0.259264
v -0.707031 0.093752 -0.318915
v -0.707031 0.127712 -0.381461
v -0.707031 0.156597 -0.446507
v -0.707031 0.180224 -0.513642
v -0.707031 0.198444 -0.582441
v -0.707031 0.211142 -0.652470
v -0.378232 0.315255 -0.556426
v -0.378232 0.329651 -0.635815
v -0.378232 0.294600 -0.478431
v -0.378232 0.267815 -0.402323
v -0.378232 0.235069 -0.328583
v -0.378232 0.196570 -0.257677
v -0.378232 0.152561 -0.190053
v -0.378232 0.103320 -0.126138
v -0.378232 0.049158 -0.066335
v -0.378232 -0.009583 -0.011024
v -0.378232 -0.072531 0.039447
v -0.378232 -0.139289 0.084760
v -0.378232 -0.209435 0.124626
v -0.378232 -0.282526 0.158795
v -0.378232 -0.358101 0.187051
v -0.378232 -0.435680 0.209216
v -0.378232 -0.514775 0.225148
v -0.378232 -0.594885 0.234748
v -0.378232 -0.675505 0.237954
v -0.576377 -0.622364 -0.110132
v -0.576377 -0.675505 -0.108018
v -0.576377 -0.569560 -0.116459
v -0.576377 -0.517424 -0.126961
v -0.576377 -0.466287 -0.141571
v -0.576377 -0.416472 -0.160196
v -0.576377 -0.368294 -0.182719
v -0.576377 -0.322057 -0.208997
v -0.576377 -0.278054 -0.238864
v -0.576377 -0.236561 -0.272132
v -0.576377 -0.197842 -0.308591
v -0.576377 -0.162141 -0.348010
v -0.576377 -0.129684 -0.390140
v -0.576377 -0.100675 -0.434715
v -0.576377 -0.075298 -0.481452
v -0.576377 -0.053714 -0.530058
v -0.576377 -0.036059 -0.580225
v -0.576377 -0.022443 -0.631635
v -0.576377 -0.012955 -0.683965
v -0.308338 0.197090 -0.582743
v -0.308338 0.209768 -0.652663
v -0.308338 0.178898 -0.514050
v -0.308338 0.155307 -0.447019
v -0.308338 0.126467 -0.382074
v -0.308338 0.092560 -0.319625
v -0.308338 0.053800 -0.260066
v -0.308338 0.010432 -0.203774
v -0.308338 -0.037271 -0.151104
v -0.308338 -0.089006 -0.102389
v -0.308338 -0.144446 -0.057938
v -0.308338 -0.203242 -0.018030
v -0.308338 -0.265022 0.017082
v -0.308338 -0.329396 0.047176
v -0.308338 -0.395957 0.072062
v -0.308338 -0.464283 0.091582
v -0.308338 -0.533945 0.105615
v -0.308338 -0.604501 0.114070
v -0.308338 -0.675505 0.116894
v -0.376203 -0.635705 -0.277567
v -0.376203 -0.675505 -0.275984
v -0.376203 -0.596157 -0.282306
v -0.376203 -0.557110 -0.290171
v -0.376203 -0.518811 -0.301113
v -0.376203 -0.481502 -0.315062
v -0.376203 -0.445419 -0.331931
v -0.376203 -0.410789 -0.351612
v -0.376203 -0.377832 -0.373981
v -0.376203 -0.346756 -0.398898
v -0.376203 -0.317758 -0.426204
v -0.376203 -0.291019 -0.455726
v -0.376203 -0.266710 -0.487280
v -0.376203 -0.244984 -0.520664
v -0.376203 -0.225978 -0.555669
v -0.376203 -0.209813 -0.592072
v -0.376203 -0.196589 -0.629645
v -0.376203 -0.186392 -0.668149
v -0.376203 -0.179286 -0.707341
v -0.201253 0.109384 -0.602276
v -0.201253 0.120788 -0.665168
v -0.201253 0.093020 -0.540488
v -0.201253 0.071801 -0.480194
v -0.201253 0.045860 -0.421777
v -0.201253 0.015361 -0.365604
v -0.201253 -0.019504 -0.312032
v -0.201253 -0.058513 -0.261398
v -0.201253 -0.101421 -0.214022
v -0.201253 -0.147956 -0.170203
v -0.201253 -0.197824 -0.130220
v -0.201253 -0.250710 -0.094323
v -0.201253 -0.306281 -0.062740
v -0.201253 -0.364184 -0.035671
v -0.201253 -0.424054 -0.013287
v -0.201253 -0.485514 0.004272
v -0.201253 -0.548173 0.016894
v -0.201253 -0.611637 0.024499
v -0.201253 -0.675505 0.027039
v -0.130654 -0.642804 -0.366657
v -0.130654 -0.675505 -0.365356
v -0.130654 -0.610309 -0.370551
v -0.130654 -0.578226 -0.377013
v -0.130654 -0.546758 -0.386004
v -0.130654 -0.516103 -0.397465
v -0.130654 -0.486455 -0.411325
v -0.130654 -0.458002 -0.427496
v -0.130654 -0.430924 -0.445876
v -0.130654 -0.405390 -0.466348
v -0.130654 -0.381563 -0.488784
v -0.130654 -0.359594 -0.513041
v -0.130654 -0.339620 -0.538967
v -0.130654 -0.321769 -0.566397
v -0.130654 -0.306153 -0.595158
v -0.130654 -0.292871 -0.625069
v -0.130654 -0.282006 -0.655940
v -0.130654 -0.273627 -0.687577
v -0.130654 -0.267788 -0.719779
v -0.069894 0.062717 -0.612669
v -0.069894 0.073443 -0.671822
v -0.069894 0.047326 -0.554555
v -0.069894 0.027368 -0.497846
v -0.069894 0.002969 -0.442902
v -0.069894 -0.025716 -0.390070
v -0.069894 -0.058508 -0.339682
v -0.069894 -0.095197 -0.292059
v -0.069894 -0.135554 -0.247500
v -0.069894 -0.179322 -0.206287
v -0.069894 -0.226225 -0.168680
v -0.069894 -0.275967 -0.134918
v -0.069894 -0.328234 -0.105213
v -0.069894 -0.382694 -0.079753
v -0.069894 -0.439005 -0.058700
v -0.069894 -0.496810 -0.042185
v -0.069894 -0.555744 -0.030314
v -0.069894 -0.615435 -0.023161
v -0.069894 -0.675505 -0.020771
v 0.130654 -0.642804 -0.366657
v 0.130654 -0.675505 -0.365356
v 0.130654 -0.610309 -0.370551
v 0.130654 -0.578226 -0.377013
v 0.130654 -0.546758 -0.386004
v 0.130654 -0.516103 -0.397465
v 0.130654 -0.486455 -0.411325
v 0.130654 -0.458002 -0.427496
v 0.130654 -0.430923 -0.445876
v 0.130654 -0.405390 -0.466348
v 0.130654 -0.381563 -0.488784
v 0.130654 -0.359594 -0.513041
v 0.130654 -0.339620 -0.538967
v 0.130654 -0.321769 -0.566397
v 0.130654 -0.306153 -0.595158
v 0.130654 -0.292871 -0.625069
v 0.130654 -0.282006 -0.655940
v 0.130654 -0.273627 -0.687577
v 0.130654 -0.267788 -0.719779
v 0.069894 0.062717 -0.612669
v 0.069894 0.073443 -0.671822
v 0.069894 0.047326 -0.554555
v 0.069894 0.027368 -0.497846
v 0.069894 0.002970 -0.442902
v 0.069894 -0.025716 -0.390070
v 0.069894 -0.058508 -0.339682
v 0.069894 -0.095197 -0.292059
v 0.069894 -0.135554 -0.247500
v 0.069894 -0.179322 -0.206287
v 0.069894 -0.226225 -0.168680
v 0.069894 -0.275967 -0.134918
v 0.069894 -0.328234 -0.105213
v 0.069894 -0.382694 -0.079753
v 0.069894 -0.439005 -0.058700
v 0.069894 -0.496810 -0.042185
v 0.069894 -0.555744 -0.030313
v 0.069894 -0.615435 -0.023161
v 0.069894 -0.675505 -0.020771
v 0.376203 -0.635705 -0.277566
v 0.376203 -0.675505 -0.275983
v 0.376203 -0.596157 -0.282306
v 0.376203 -0.557110 -0.290171
v 0.376203 -0.518811 -0.301113
v 0.376203 -0.481502 -0.315062
v 0.376203 -0.445418 -0.331931
v 0.376203 -0.410789 -0.351612
v 0.376203 -0.377832 -0.373981
v 0.376203 -0.346756 -0.398898
v 0.376203 -0.317757 -0.426203
v 0.376203 -0.291019 -0.455726
v 0.376203 -0.266710 -0.487280
v 0.376203 -0.244984 -0.520664
v 0.376203 -0.225978 -0.555668
v 0.376203 -0.209812 -0.592072
v 0.376203 -0.196589 -0.629645
v 0.376203 -0.186392 -0.668149
v 0.376203 -0.179285 -0.707341
v 0.201253 0.109384 -0.602276
v 0.201253 0.120788 -0.665168
v 0.201253 0.093020 -0.540487
v 0.201253 0.071801 -0.480194
v 0.201253 0.045860 -0.421777
v 0.201253 0.015361 -0.365604
v 0.201253 -0.019504 -0.312032
v 0.201253 -0.058513 -0.261398
v 0.201253 -0.101421 -0.214022
v 0.201253 -0.147955 -0.170203
v 0.201253 -0.197824 -0.130220
v 0.201253 -0.250710 -0.094323
v 0.201253 -0.306281 -0.062740
v 0.201253 -0.364184 -0.035671
v 0.201253 -0.424054 -0.013287
v 0.201253 -0.485514 0.004272
v 0.201253 -0.548173 0.016894
v 0.201253 -0.611637 0.024499
v 0.201253 -0.675505 0.027039
v 0.576377 -0.622364 -0.110131
v 0.576377 -0.675505 -0.108018
v 0.576377 -0.569559 -0.116459
v 0.576377 -0.517424 -0.126961
v 0.576377 -0.466287 -0.141571
v 0.576377 -0.416472 -0.160196
v 0.576377 -0.368294 -0.182718
v 0.576377 -0.322057 -0.208997
v 0.576377 -0.278053 -0.238864
v 0.576377 -0.236561 -0.272132
v 0.576377 -0.197842 -0.308591
v 0.576377 -0.162141 -0.348010
v 0.576377 -0.129683 -0.390140
v 0.576377 -0.100675 -0.434714
v 0.576377 -0.075298 -0.481452
v 0.576377 -0.053714 -0.530058
v 0.576377 -0.036058 -0.580225
v 0.576377 -0.022443 -0.631635
v 0.576377 -0.012954 -0.683964
v 0.308337 0.197090 -0.582743
v 0.308337 0.209768 -0.652663
v 0.308337 0.178898 -0.514050
v 0.308337 0.155307 -0.447019
v 0.308337 0.126467 -0.382074
v 0.308337 0.092560 -0.319625
v 0.308337 0.053800 -0.260066
v 0.308337 0.010432 -0.203774
v 0.308337 -0.037271 -0.151104
v 0.308337 -0.089006 -0.102389
v 0.308337 -0.144446 -0.057938
v 0.308337 -0.203242 -0.018030
v 0.308337 -0.265022 0.017082
v 0.308337 -0.329396 0.047176
v 0.308337 -0.395957 0.072062
v 0.308337 -0.464283 0.091583
v 0.308337 -0.533945 0.105615
v 0.308337 -0.604501 0.114070
v 0.308337 -0.675505 0.116894
v 0.707031 -0.604390 0.115453
v 0.707031 -0.675505 0.118282
v 0.707031 -0.533725 0.106985
v 0.707031 -0.463955 0.092931
v 0.707031 -0.395523 0.073380
v 0.707031 -0.328859 0.048455
v 0.707031 -0.264385 0.018315
v 0.707031 -0.202509 -0.016852
v 0.707031 -0.143622 -0.056821
v 0.707031 -0.088095 -0.101342
v 0.707031 -0.036280 -0.150132
v 0.707031 0.011496 -0.202884
v 0.707031 0.054932 -0.259263
v 0.707031 0.093752 -0.318915
v 0.707031 0.127712 -0.381461
v 0.707031 0.156597 -0.446507
v 0.707031 0.180224 -0.513642
v 0.707031 0.198444 -0.582441
v 0.707031 0.211143 -0.652470
v 0.378232 0.315256 -0.556426
v 0.378232 0.329651 -0.635815
v 0.378232 0.294600 -0.478431
v 0.378232 0.267815 -0.402323
v 0.378232 0.235069 -0.328583
v 0.378232 0.196570 -0.257677
v 0.378232 0.152561 -0.190053
v 0.378232 0.103320 -0.126138
v 0.378232 0.049158 -0.066335
v 0.378232 -0.009583 -0.011024
v 0.378232 -0.072531 0.039448
v 0.378232 -0.139289 0.084760
v 0.378232 -0.209435 0.124626
v 0.378232 -0.282526 0.158796
v 0.378232 -0.358100 0.187051
v 0.378232 -0.435680 0.209216
v 0.378232 -0.514775 0.225148
v 0.378232 -0.594885 0.234748
v 0.378232 -0.675505 0.237955
v 0.752406 0.465976 -0.616655
v 0.378232 0.602302 -0.597496
v 0.707031 0.720810 -0.580841
v 0.402506 0.465976 -0.616655
v 0.402506 -0.675505 0.375620
v 0.707031 -0.675505 0.632958
v 0.378232 -0.675505 0.513285
v 0.752406 -0.675505 0.375620
v 0.308337 0.722184 -0.580648
v 0.576377 0.944907 -0.549346
v 0.576377 -0.675505 0.859257
v 0.308337 -0.675505 0.634346
v 0.201253 0.811164 -0.568142
v 0.376203 1.111238 -0.525970
v 0.376203 -0.675505 1.027223
v 0.201253 -0.675505 0.724200
v 0.069894 0.858510 -0.561488
v 0.130654 1.199741 -0.513531
v 0.130654 -0.675505 1.116595
v 0.069894 -0.675505 0.772011
v -0.069895 0.858510 -0.561488
v -0.130654 1.199741 -0.513531
v -0.130654 -0.675505 1.116595
v -0.069895 -0.675505 0.772011
v -0.201253 0.811164 -0.568142
v -0.376203 1.111238 -0.525970
v -0.376203 -0.675505 1.027223
v -0.201253 -0.675505 0.724200
v -0.308338 0.722184 -0.580648
v -0.576377 0.944907 -0.549346
v -0.576377 -0.675505 0.859257
v -0.308338 -0.675505 0.634345
v -0.378232 0.602302 -0.597496
v -0.707031 0.720810 -0.580841
v -0.707031 -0.675505 0.632958
v -0.378232 -0.675505 0.513285
v -0.402506 0.465976 -0.616655
v -0.752407 0.465976 -0.616655
v -0.752407 -0.675505 0.375620
v -0.402506 -0.675505 0.375620
v -0.378232 0.329651 -0.635815
v -0.707031 0.211142 -0.652470
v -0.707031 -0.675505 0.118281
v -0.378232 -0.675505 0.237954
v -0.308338 0.209768 -0.652663
v -0.576377 -0.012955 -0.683965
v -0.576377 -0.675505 -0.108018
v -0.308338 -0.675505 0.116894
v -0.201253 0.120788 -0.665168
v -0.376203 -0.179286 -0.707341
v -0.376203 -0.675505 -0.275984
v -0.201253 -0.675505 0.027039
v -0.069894 0.073443 -0.671822
v -0.130654 -0.267788 -0.719779
v -0.130654 -0.675505 -0.365356
v -0.069894 -0.675505 -0.020771
v 0.069894 0.073443 -0.671822
v 0.130654 -0.267788 -0.719779
v 0.130654 -0.675505 -0.365356
v 0.069894 -0.675505 -0.020771
v 0.201253 0.120788 -0.665168
v 0.376203 -0.179285 -0.707341
v 0.376203 -0.675505 -0.275983
v 0.201253 -0.675505 0.027039
v 0.308337 0.209768 -0.652663
v 0.576377 -0.012954 -0.683964
v 0.576377 -0.675505 -0.108018
v 0.308337 -0.675505 0.116894
v 0.378232 0.329651 -0.635815
v 0.707031 0.211143 -0.652470
v 0.707031 -0.675505 0.118282
v 0.378232 -0.675505 0.237955
# 756 vertices

vn 0.998274 0.002334 0.058674
vn 0.939696 0.029353 0.340750
vn 0.917897 0.015771 0.396505
vn 0.999997 0.002330 -0.000186
vn 0.939696 0.056325 0.337342
vn 0.999997 0.002308 -0.000370
vn 0.939696 0.082941 0.331803
vn 0.999997 0.002272 -0.000552
vn 0.939696 0.109032 0.324167
vn 0.999997 0.002221 -0.000731
vn 0.939696 0.134435 0.314483
vn 0.999997 0.002156 -0.000905
vn 0.939696 0.158988 0.302812
vn 0.999997 0.002077 -0.001073
vn 0.939696 0.182537 0.289227
vn 0.999997 0.001985 -0.001235
vn 0.939696 0.204932 0.273815
vn 0.999997 0.001881 -0.001389
vn 0.939696 0.226033 0.256673
vn 0.999997 0.001764 -0.001534
vn 0.939696 0.245706 0.237910
vn 0.999997 0.001637 -0.001669
vn 0.939696 0.263825 0.217643
vn 0.999997 0.001499 -0.001794
vn 0.939696 0.280278 0.196001
vn 0.999997 0.001352 -0.001907
vn 0.939696 0.294960 0.173120
vn 0.999997 0.001196 -0.002009
vn 0.939696 0.307779 0.149146
vn 0.999997 0.001033 -0.002097
vn 0.939696 0.318652 0.124229
vn 0.999997 0.000863 -0.002173
vn 0.939696 0.327513 0.098527
vn 0.999997 0.000688 -0.002234
vn 0.939696 0.334304 0.072203
vn 0.999997 0.000508 -0.002282
vn 0.958083 0.281893 0.051115
vn 0.998274 -0.057778 -0.010477
vn -0.998274 -0.057778 -0.010477
vn -0.939696 -0.333349 -0.076491
vn -0.917897 -0.390451 -0.070801
vn -0.999997 0.000508 -0.002282
vn -0.939696 -0.326220 -0.102726
vn -0.999997 0.000688 -0.002234
vn -0.939696 -0.317030 -0.128312
vn -0.999997 0.000863 -0.002173
vn -0.939696 -0.305838 -0.153087
vn -0.999997 0.001033 -0.002097
vn -0.939696 -0.292713 -0.176894
vn -0.999997 0.001196 -0.002009
vn -0.939696 -0.277738 -0.199584
vn -0.999997 0.001352 -0.001907
vn -0.939696 -0.261008 -0.221013
vn -0.999997 0.001499 -0.001794
vn -0.939696 -0.242630 -0.241046
vn -0.999997 0.001637 -0.001669
vn -0.939696 -0.222718 -0.259555
vn -0.999997 0.001764 -0.001534
vn -0.939696 -0.201399 -0.276425
vn -0.999997 0.001881 -0.001389
vn -0.939696 -0.178807 -0.291548
vn -0.999997 0.001985 -0.001235
vn -0.939696 -0.155086 -0.304829
vn -0.999997 0.002077 -0.001074
vn -0.939696 -0.130385 -0.316183
vn -0.999997 0.002155 -0.000905
vn -0.939696 -0.104860 -0.325540
vn -0.999997 0.002221 -0.000731
vn -0.939696 -0.078672 -0.332841
vn -0.999997 0.002272 -0.000552
vn -0.939696 -0.051988 -0.338038
vn -0.999997 0.002308 -0.000370
vn -0.939696 -0.024974 -0.341099
vn -0.999997 0.002330 -0.000186
vn -0.958083 -0.011386 -0.286263
vn -0.998274 0.002334 0.058674
vn 0.766058 0.052836 0.640596
vn 0.726753 0.027301 0.686356
vn 0.766058 0.103549 0.634375
vn 0.766058 0.153608 0.624147
vn 0.766058 0.202696 0.609975
vn 0.766058 0.250503 0.591948
vn 0.766058 0.296728 0.570182
vn 0.766058 0.341077 0.544813
vn 0.766058 0.383272 0.516001
vn 0.766058 0.423045 0.483929
vn 0.766058 0.460145 0.448800
vn 0.766058 0.494337 0.410835
vn 0.766058 0.525407 0.370274
vn 0.766058 0.553156 0.327373
vn 0.766058 0.577410 0.282404
vn 0.766058 0.598016 0.235651
vn 0.766058 0.614844 0.187409
vn 0.766058 0.627786 0.137982
vn 0.802226 0.587440 0.106520
vn -0.766058 -0.627008 -0.141476
vn -0.726753 -0.675877 -0.122557
vn -0.766058 -0.613790 -0.190830
vn -0.766058 -0.596695 -0.238977
vn -0.766058 -0.575829 -0.285615
vn -0.766058 -0.551324 -0.330449
vn -0.766058 -0.523336 -0.373194
vn -0.766058 -0.492042 -0.413581
vn -0.766058 -0.457639 -0.451355
vn -0.766058 -0.420343 -0.486278
vn -0.766058 -0.380392 -0.518128
vn -0.766058 -0.338038 -0.546704
vn -0.766058 -0.293548 -0.571825
vn -0.766058 -0.247203 -0.593334
vn -0.766058 -0.199296 -0.611094
vn -0.766058 -0.150130 -0.624993
vn -0.766058 -0.100015 -0.634942
vn -0.766058 -0.049268 -0.640880
vn -0.802226 -0.023728 -0.596548
vn 0.500018 0.069948 0.863186
vn 0.448058 0.035532 0.893298
vn 0.500017 0.138286 0.854903
vn 0.500017 0.205751 0.841219
vn 0.500017 0.271915 0.822220
vn 0.500017 0.336361 0.798025
vn 0.500017 0.398682 0.768788
vn 0.500017 0.458484 0.734694
vn 0.500017 0.515389 0.695957
vn 0.500017 0.569038 0.652823
vn 0.500017 0.619091 0.605564
vn 0.500017 0.665233 0.554480
vn 0.500018 0.707171 0.499892
vn 0.500017 0.744641 0.442145
vn 0.500017 0.777406 0.381604
vn 0.500018 0.805259 0.318653
vn 0.500017 0.828025 0.253688
vn 0.500017 0.845558 0.187120
vn 0.549664 0.821981 0.149050
vn -0.500018 -0.845050 -0.189399
vn -0.448059 -0.879659 -0.159509
vn -0.500017 -0.827338 -0.255919
vn -0.500018 -0.804397 -0.320823
vn -0.500017 -0.776375 -0.383699
vn -0.500017 -0.743446 -0.444151
vn -0.500018 -0.705820 -0.501797
vn -0.500017 -0.663735 -0.556272
vn -0.500017 -0.617456 -0.607232
vn -0.500017 -0.567276 -0.654355
vn -0.500017 -0.513511 -0.697344
vn -0.500017 -0.456501 -0.735927
vn -0.500017 -0.396608 -0.769860
vn -0.500017 -0.334208 -0.798929
vn -0.500017 -0.269697 -0.822950
vn -0.500017 -0.203482 -0.841771
vn -0.500017 -0.135980 -0.855273
vn -0.500017 -0.067620 -0.863371
vn -0.549664 -0.033202 -0.834726
vn 0.173656 0.078623 0.981663
vn 0.115483 0.039478 0.992525
vn 0.173656 0.156344 0.972317
vn 0.173656 0.233077 0.956827
vn 0.173656 0.308337 0.935292
vn 0.173656 0.381649 0.907848
vn 0.173656 0.452550 0.874667
vn 0.173656 0.520592 0.835959
vn 0.173656 0.585344 0.791970
vn 0.173656 0.646397 0.742977
vn 0.173656 0.703367 0.689289
vn 0.173656 0.755891 0.631246
vn 0.173656 0.803641 0.569215
vn 0.173656 0.846312 0.503586
vn 0.173656 0.883636 0.434777
vn 0.173656 0.915377 0.363220
vn 0.173656 0.941334 0.289368
vn 0.173656 0.961344 0.213687
vn 0.230966 0.957350 0.173596
vn -0.173657 -0.961167 -0.214479
vn -0.115483 -0.977371 -0.177226
vn -0.173656 -0.941095 -0.290143
vn -0.173656 -0.915078 -0.363973
vn -0.173656 -0.883278 -0.435504
vn -0.173656 -0.845897 -0.504283
vn -0.173656 -0.803172 -0.569876
vn -0.173656 -0.755371 -0.631868
vn -0.173656 -0.702799 -0.689868
vn -0.173656 -0.645785 -0.743509
vn -0.173656 -0.584691 -0.792452
vn -0.173656 -0.519903 -0.836388
vn -0.173656 -0.451830 -0.875039
vn -0.173656 -0.380902 -0.908161
vn -0.173656 -0.307567 -0.935546
vn -0.173656 -0.232289 -0.957019
vn -0.173656 -0.155543 -0.972445
vn -0.173656 -0.077815 -0.981727
vn -0.230966 -0.038670 -0.972193
vn -0.173656 0.077815 0.981727
vn -0.230966 0.038670 0.972193
vn -0.173656 0.155543 0.972445
vn -0.173656 0.232290 0.957019
vn -0.173656 0.307567 0.935546
vn -0.173656 0.380902 0.908161
vn -0.173656 0.451830 0.875039
vn -0.173656 0.519903 0.836388
vn -0.173656 0.584691 0.792452
vn -0.173656 0.645785 0.743509
vn -0.173656 0.702799 0.689868
vn -0.173656 0.755372 0.631868
vn -0.173656 0.803172 0.569876
vn -0.173656 0.845897 0.504283
vn -0.173656 0.883278 0.435504
vn -0.173656 0.915078 0.363973
vn -0.173656 0.941096 0.290143
vn -0.173656 0.961167 0.214479
vn -0.115483 0.977371 0.177227
vn 0.173657 -0.961343 -0.213687
vn 0.230966 -0.957350 -0.173596
vn 0.173656 -0.941334 -0.289368
vn 0.173656 -0.915377 -0.363220
vn 0.173656 -0.883636 -0.434777
vn 0.173656 -0.846312 -0.503587
vn 0.173656 -0.803641 -0.569215
vn 0.173656 -0.755891 -0.631246
vn 0.173656 -0.703367 -0.689289
vn 0.173656 -0.646397 -0.742977
vn 0.173656 -0.585343 -0.791970
vn 0.173656 -0.520591 -0.835959
vn 0.173656 -0.452550 -0.874667
vn 0.173656 -0.381649 -0.907848
vn 0.173656 -0.308337 -0.935292
vn 0.173656 -0.233077 -0.956827
vn 0.173656 -0.156344 -0.972317
vn 0.173656 -0.078623 -0.981663
vn 0.115483 -0.039479 -0.992525
vn -0.500018 0.067620 0.863371
vn -0.549664 0.033202 0.834726
vn -0.500018 0.135980 0.855273
vn -0.500018 0.203482 0.841771
vn -0.500018 0.269697 0.822950
vn -0.500018 0.334208 0.798929
vn -0.500018 0.396608 0.769860
vn -0.500018 0.456501 0.735927
vn -0.500018 0.513511 0.697344
vn -0.500017 0.567276 0.654355
vn -0.500017 0.617456 0.607232
vn -0.500018 0.663735 0.556272
vn -0.500018 0.705820 0.501797
vn -0.500018 0.743446 0.444151
vn -0.500018 0.776374 0.383699
vn -0.500018 0.804397 0.320823
vn -0.500018 0.827338 0.255919
vn -0.500018 0.845051 0.189399
vn -0.448058 0.879659 0.159509
vn 0.500018 -0.845558 -0.187120
vn 0.549664 -0.821981 -0.149051
vn 0.500018 -0.828025 -0.253688
vn 0.500018 -0.805259 -0.318653
vn 0.500018 -0.777406 -0.381604
vn 0.500018 -0.744641 -0.442145
vn 0.500018 -0.707171 -0.499892
vn 0.500018 -0.665232 -0.554480
vn 0.500018 -0.619091 -0.605565
vn 0.500018 -0.569038 -0.652823
vn 0.500018 -0.515389 -0.695957
vn 0.500018 -0.458484 -0.734694
vn 0.500018 -0.398682 -0.768788
vn 0.500018 -0.336361 -0.798025
vn 0.500018 -0.271915 -0.822219
vn 0.500018 -0.205751 -0.841219
vn 0.500018 -0.138286 -0.854903
vn 0.500018 -0.069948 -0.863186
vn 0.448058 -0.035532 -0.893298
vn -0.766058 0.049268 0.640880
vn -0.802226 0.023728 0.596548
vn -0.766058 0.100015 0.634942
vn -0.766058 0.150130 0.624992
vn -0.766058 0.199296 0.611094
vn -0.766058 0.247203 0.593334
vn -0.766058 0.293548 0.571825
vn -0.766058 0.338038 0.546704
vn -0.766058 0.380392 0.518128
vn -0.766058 0.420343 0.486278
vn -0.766058 0.457639 0.451355
vn -0.766058 0.492042 0.413581
vn -0.766058 0.523336 0.373194
vn -0.766058 0.551324 0.330448
vn -0.766058 0.575829 0.285615
vn -0.766058 0.596695 0.238977
vn -0.766058 0.613790 0.190829
vn -0.766058 0.627008 0.141476
vn -0.726753 0.675877 0.122557
vn 0.766058 -0.627786 -0.137982
vn 0.802227 -0.587440 -0.106520
vn 0.766058 -0.614844 -0.187408
vn 0.766059 -0.598016 -0.235651
vn 0.766059 -0.577410 -0.282404
vn 0.766059 -0.553156 -0.327373
vn 0.766059 -0.525406 -0.370274
vn 0.766058 -0.494337 -0.410835
vn 0.766058 -0.460145 -0.448800
vn 0.766058 -0.423045 -0.483929
vn 0.766058 -0.383272 -0.516001
vn 0.766058 -0.341077 -0.544813
vn 0.766058 -0.296728 -0.570182
vn 0.766058 -0.250503 -0.591948
vn 0.766059 -0.202696 -0.609974
vn 0.766059 -0.153608 -0.624147
vn 0.766058 -0.103549 -0.634375
vn 0.766058 -0.052836 -0.640596
vn 0.726753 -0.027300 -0.686356
vn -0.939696 0.024974 0.341099
vn -0.958083 0.011386 0.286263
vn -0.939696 0.051988 0.338038
vn -0.939696 0.078672 0.332841
vn -0.939696 0.104860 0.325540
vn -0.939696 0.130385 0.316183
vn -0.939696 0.155086 0.304829
vn -0.939696 0.178807 0.291548
vn -0.939696 0.201399 0.276425
vn -0.939696 0.222718 0.259555
vn -0.939696 0.242630 0.241046
vn -0.939696 0.261008 0.221013
vn -0.939696 0.277738 0.199584
vn -0.939696 0.292712 0.176894
vn -0.939696 0.305838 0.153086
vn -0.939696 0.317030 0.128312
vn -0.939696 0.326220 0.102726
vn -0.939696 0.333349 0.076491
vn -0.917897 0.390451 0.070801
vn 0.939696 -0.334303 -0.072203
vn 0.958083 -0.281893 -0.051116
vn 0.939696 -0.327513 -0.098527
vn 0.939696 -0.318652 -0.124229
vn 0.939696 -0.307779 -0.149146
vn 0.939696 -0.294960 -0.173120
vn 0.939696 -0.280278 -0.196001
vn 0.939696 -0.263825 -0.217643
vn 0.939696 -0.245706 -0.237910
vn 0.939696 -0.226033 -0.256673
vn 0.939696 -0.204933 -0.273815
vn 0.939696 -0.182537 -0.289227
vn 0.939696 -0.158988 -0.302812
vn 0.939696 -0.134435 -0.314483
vn 0.939696 -0.109032 -0.324167
vn 0.939696 -0.082941 -0.331803
vn 0.939696 -0.056325 -0.337342
vn 0.939696 -0.029353 -0.340750
vn 0.917897 -0.015771 -0.396505
vn -0.999997 -0.002330 0.000186
vn -0.998274 -0.002334 -0.058674
vn -0.999997 -0.002308 0.000370
vn -0.999997 -0.002272 0.000552
vn -0.999997 -0.002221 0.000731
vn -0.999997 -0.002156 0.000905
vn -0.999997 -0.002077 0.001073
vn -0.999997 -0.001985 0.001235
vn -0.999997 -0.001881 0.001389
vn -0.999997 -0.001764 0.001534
vn -0.999997 -0.001637 0.001669
vn -0.999997 -0.001499 0.001794
vn -0.999997 -0.001352 0.001907
vn -0.999997 -0.001196 0.002009
vn -0.999997 -0.001033 0.002097
vn -0.999997 -0.000863 0.002173
vn -0.999997 -0.000688 0.002234
vn -0.999997 -0.000508 0.002282
vn -0.998274 0.057778 0.010477
vn 0.999997 -0.000508 0.002282
vn 0.998274 0.057779 0.010477
vn 0.999997 -0.000688 0.002234
vn 0.999997 -0.000863 0.002173
vn 0.999997 -0.001033 0.002097
vn 0.999997 -0.001196 0.002009
vn 0.999997 -0.001352 0.001907
vn 0.999997 -0.001499 0.001794
vn 0.999997 -0.001637 0.001669
vn 0.999997 -0.001764 0.001534
vn 0.999997 -0.001881 0.001389
vn 0.999997 -0.001985 0.001235
vn 0.999997 -0.002077 0.001074
vn 0.999997 -0.002155 0.000905
vn 0.999997 -0.002221 0.000731
vn 0.999997 -0.002272 0.000552
vn 0.999997 -0.002308 0.000370
vn 0.999997 -0.002330 0.000186
vn 0.998274 -0.002334 -0.058674
vn -0.939696 -0.029353 -0.340750
vn -0.917897 -0.015771 -0.396505
vn -0.939696 -0.056325 -0.337342
vn -0.939696 -0.082941 -0.331803
vn -0.939696 -0.109032 -0.324167
vn -0.939696 -0.134435 -0.314483
vn -0.939696 -0.158988 -0.302812
vn -0.939696 -0.182537 -0.289227
vn -0.939696 -0.204933 -0.273815
vn -0.939696 -0.226033 -0.256673
vn -0.939696 -0.245706 -0.237910
vn -0.939696 -0.263825 -0.217643
vn -0.939696 -0.280278 -0.196001
vn -0.939696 -0.294960 -0.173120
vn -0.939696 -0.307779 -0.149146
vn -0.939696 -0.318652 -0.124229
vn -0.939696 -0.327513 -0.098527
vn -0.939696 -0.334304 -0.072203
vn -0.958083 -0.281893 -0.051116
vn 0.939696 0.333349 0.076491
vn 0.917897 0.390451 0.070801
vn 0.939696 0.326220 0.102726
vn 0.939696 0.317031 0.128312
vn 0.939696 0.305838 0.153087
vn 0.939696 0.292713 0.176894
vn 0.939696 0.277738 0.199584
vn 0.939696 0.261008 0.221014
vn 0.939696 0.242630 0.241046
vn 0.939696 0.222718 0.259555
vn 0.939696 0.201399 0.276425
vn 0.939696 0.178807 0.291548
vn 0.939696 0.155086 0.304829
vn 0.939696 0.130385 0.316184
vn 0.939696 0.104860 0.325541
vn 0.939696 0.078672 0.332841
vn 0.939696 0.051988 0.338038
vn 0.939696 0.024974 0.341099
vn 0.958083 0.011386 0.286264
vn -0.766058 -0.052836 -0.640596
vn -0.726753 -0.027301 -0.686356
vn -0.766058 -0.103549 -0.634376
vn -0.766058 -0.153608 -0.624147
vn -0.766058 -0.202696 -0.609975
vn -0.766058 -0.250503 -0.591948
vn -0.766058 -0.296728 -0.570182
vn -0.766058 -0.341078 -0.544813
vn -0.766058 -0.383272 -0.516001
vn -0.766058 -0.423045 -0.483929
vn -0.766058 -0.460145 -0.448800
vn -0.766058 -0.494337 -0.410835
vn -0.766058 -0.525407 -0.370274
vn -0.766058 -0.553156 -0.327373
vn -0.766058 -0.577410 -0.282404
vn -0.766058 -0.598016 -0.235651
vn -0.766058 -0.614844 -0.187408
vn -0.766058 -0.627786 -0.137982
vn -0.802226 -0.587440 -0.106521
vn 0.766058 0.627008 0.141476
vn 0.726753 0.675877 0.122558
vn 0.766058 0.613790 0.190829
vn 0.766058 0.596695 0.238978
vn 0.766058 0.575829 0.285615
vn 0.766058 0.551324 0.330449
vn 0.766058 0.523336 0.373194
vn 0.766058 0.492042 0.413581
vn 0.766058 0.457638 0.451356
vn 0.766058 0.420344 0.486278
vn 0.766058 0.380393 0.518128
vn 0.766058 0.338038 0.546704
vn 0.766058 0.293548 0.571826
vn 0.766058 0.247203 0.593334
vn 0.766058 0.199296 0.611094
vn 0.766058 0.150130 0.624993
vn 0.766058 0.100015 0.634942
vn 0.766058 0.049268 0.640880
vn 0.802226 0.023728 0.596548
vn -0.500017 -0.069947 -0.863186
vn -0.448058 -0.035532 -0.893298
vn -0.500017 -0.138286 -0.854903
vn -0.500017 -0.205751 -0.841219
vn -0.500017 -0.271915 -0.822220
vn -0.500017 -0.336361 -0.798025
vn -0.500017 -0.398682 -0.768788
vn -0.500017 -0.458484 -0.734694
vn -0.500017 -0.515390 -0.695957
vn -0.500017 -0.569038 -0.652823
vn -0.500017 -0.619091 -0.605565
vn -0.500017 -0.665233 -0.554480
vn -0.500017 -0.707171 -0.499892
vn -0.500017 -0.744641 -0.442145
vn -0.500017 -0.777407 -0.381604
vn -0.500017 -0.805260 -0.318653
vn -0.500017 -0.828025 -0.253688
vn -0.500017 -0.845558 -0.187120
vn -0.549664 -0.821982 -0.149050
vn 0.500017 0.845051 0.189399
vn 0.448058 0.879659 0.159509
vn 0.500018 0.827338 0.255919
vn 0.500017 0.804397 0.320823
vn 0.500017 0.776375 0.383699
vn 0.500017 0.743446 0.444151
vn 0.500017 0.705821 0.501797
vn 0.500017 0.663735 0.556272
vn 0.500018 0.617456 0.607232
vn 0.500017 0.567276 0.654356
vn 0.500017 0.513511 0.697344
vn 0.500017 0.456501 0.735927
vn 0.500017 0.396607 0.769861
vn 0.500017 0.334208 0.798929
vn 0.500017 0.269697 0.822950
vn 0.500017 0.203482 0.841771
vn 0.500017 0.135980 0.855273
vn 0.500017 0.067620 0.863371
vn 0.549664 0.033202 0.834726
vn -0.173656 -0.078622 -0.981663
vn -0.115483 -0.039479 -0.992525
vn -0.173656 -0.156344 -0.972317
vn -0.173656 -0.233077 -0.956827
vn -0.173656 -0.308337 -0.935292
vn -0.173656 -0.381650 -0.907848
vn -0.173656 -0.452550 -0.874667
vn -0.173656 -0.520591 -0.835960
vn -0.173656 -0.585343 -0.791970
vn -0.173656 -0.646397 -0.742976
vn -0.173656 -0.703367 -0.689289
vn -0.173656 -0.755892 -0.631246
vn -0.173656 -0.803641 -0.569214
vn -0.173656 -0.846312 -0.503587
vn -0.173656 -0.883636 -0.434777
vn -0.173656 -0.915377 -0.363219
vn -0.173656 -0.941334 -0.289368
vn -0.173656 -0.961344 -0.213687
vn -0.230966 -0.957350 -0.173596
vn 0.173656 0.961167 0.214479
vn 0.115483 0.977371 0.177227
vn 0.173656 0.941096 0.290143
vn 0.173656 0.915078 0.363973
vn 0.173656 0.883278 0.435504
vn 0.173656 0.845897 0.504283
vn 0.173656 0.803172 0.569876
vn 0.173656 0.755371 0.631868
vn 0.173656 0.702799 0.689867
vn 0.173656 0.645785 0.743508
vn 0.173656 0.584691 0.792452
vn 0.173656 0.519903 0.836388
vn 0.173656 0.451830 0.875039
vn 0.173656 0.380902 0.908161
vn 0.173656 0.307567 0.935546
vn 0.173656 0.232290 0.957019
vn 0.173656 0.155543 0.972445
vn 0.173656 0.077815 0.981727
vn 0.230966 0.038670 0.972193
vn 0.173657 -0.077815 -0.981727
vn 0.230966 -0.038670 -0.972193
vn 0.173656 -0.155543 -0.972445
vn 0.173657 -0.232291 -0.957019
vn 0.173656 -0.307567 -0.935546
vn 0.173656 -0.380901 -0.908162
vn 0.173656 -0.451830 -0.875039
vn 0.173657 -0.519903 -0.836388
vn 0.173656 -0.584692 -0.792451
vn 0.173656 -0.645785 -0.743509
vn 0.173656 -0.702799 -0.689867
vn 0.173656 -0.755372 -0.631868
vn 0.173656 -0.803172 -0.569876
vn 0.173657 -0.845897 -0.504283
vn 0.173656 -0.883278 -0.435505
vn 0.173656 -0.915078 -0.363973
vn 0.173656 -0.941095 -0.290143
vn 0.173656 -0.961167 -0.214478
vn 0.115483 -0.977371 -0.177227
vn -0.173657 0.961343 0.213687
vn -0.230967 0.957350 0.173597
vn -0.173656 0.941334 0.289367
vn -0.173657 0.915377 0.363220
vn -0.173656 0.883636 0.434777
vn -0.173657 0.846312 0.503586
vn -0.173657 0.803641 0.569214
vn -0.173656 0.755892 0.631246
vn -0.173657 0.703366 0.689289
vn -0.173656 0.646397 0.742976
vn -0.173656 0.585343 0.791970
vn -0.173656 0.520591 0.835959
vn -0.173657 0.452550 0.874667
vn -0.173657 0.381649 0.907848
vn -0.173656 0.308337 0.935292
vn -0.173656 0.233077 0.956827
vn -0.173656 0.156344 0.972317
vn -0.173657 0.078623 0.981663
vn -0.115483 0.039478 0.992525
vn 0.500018 -0.067620 -0.863371
vn 0.549664 -0.033202 -0.834725
vn 0.500018 -0.135980 -0.855273
vn 0.500018 -0.203482 -0.841770
vn 0.500018 -0.269697 -0.822949
vn 0.500018 -0.334207 -0.798929
vn 0.500018 -0.396607 -0.769860
vn 0.500018 -0.456501 -0.735927
vn 0.500018 -0.513511 -0.697344
vn 0.500018 -0.567275 -0.654355
vn 0.500018 -0.617456 -0.607232
vn 0.500018 -0.663735 -0.556271
vn 0.500018 -0.705820 -0.501797
vn 0.500018 -0.743446 -0.444151
vn 0.500018 -0.776374 -0.383699
vn 0.500018 -0.804397 -0.320823
vn 0.500018 -0.827338 -0.255919
vn 0.500018 -0.845050 -0.189399
vn 0.448059 -0.879659 -0.159508
vn -0.500018 0.845558 0.187120
vn -0.549664 0.821981 0.149050
vn -0.500018 0.828025 0.253687
vn -0.500018 0.805259 0.318653
vn -0.500018 0.777406 0.381604
vn -0.500018 0.744641 0.442145
vn -0.500018 0.707171 0.499892
vn -0.500018 0.665233 0.554480
vn -0.500018 0.619091 0.605565
vn -0.500018 0.569038 0.652823
vn -0.500018 0.515389 0.695957
vn -0.500018 0.458484 0.734694
vn -0.500018 0.398682 0.768788
vn -0.500018 0.336361 0.798025
vn -0.500018 0.271915 0.822219
vn -0.500018 0.205751 0.841219
vn -0.500018 0.138286 0.854903
vn -0.500018 0.069948 0.863186
vn -0.448059 0.035532 0.893298
vn 0.766059 -0.049268 -0.640880
vn 0.802226 -0.023728 -0.596548
vn 0.766059 -0.100015 -0.634942
vn 0.766059 -0.150130 -0.624992
vn 0.766059 -0.199296 -0.611094
vn 0.766059 -0.247203 -0.593334
vn 0.766059 -0.293548 -0.571825
vn 0.766059 -0.338038 -0.546703
vn 0.766058 -0.380392 -0.518128
vn 0.766058 -0.420343 -0.486278
vn 0.766058 -0.457638 -0.451355
vn 0.766059 -0.492042 -0.413581
vn 0.766058 -0.523336 -0.373194
vn 0.766058 -0.551324 -0.330449
vn 0.766058 -0.575828 -0.285615
vn 0.766058 -0.596694 -0.238977
vn 0.766059 -0.613790 -0.190829
vn 0.766059 -0.627008 -0.141476
vn 0.726753 -0.675877 -0.122557
vn -0.766058 0.627786 0.137982
vn -0.802226 0.587440 0.106520
vn -0.766058 0.614844 0.187408
vn -0.766058 0.598016 0.235651
vn -0.766059 0.577410 0.282404
vn -0.766059 0.553156 0.327373
vn -0.766058 0.525406 0.370274
vn -0.766058 0.494337 0.410835
vn -0.766058 0.460145 0.448800
vn -0.766059 0.423045 0.483929
vn -0.766058 0.383272 0.516001
vn -0.766058 0.341077 0.544813
vn -0.766058 0.296728 0.570182
vn -0.766058 0.250503 0.591948
vn -0.766058 0.202696 0.609975
vn -0.766058 0.153608 0.624147
vn -0.766058 0.103549 0.634375
vn -0.766058 0.052836 0.640596
vn -0.726753 0.027300 0.686356
vn 0.939696 -0.024974 -0.341099
vn 0.958083 -0.011386 -0.286263
vn 0.939696 -0.051988 -0.338037
vn 0.939696 -0.078672 -0.332840
vn 0.939696 -0.104860 -0.325540
vn 0.939696 -0.130385 -0.316183
vn 0.939696 -0.155086 -0.304829
vn 0.939696 -0.178807 -0.291548
vn 0.939696 -0.201399 -0.276425
vn 0.939696 -0.222718 -0.259555
vn 0.939696 -0.242629 -0.241046
vn 0.939696 -0.261008 -0.221013
vn 0.939696 -0.277738 -0.199584
vn 0.939696 -0.292712 -0.176894
vn 0.939696 -0.305838 -0.153087
vn 0.939696 -0.317030 -0.128311
vn 0.939696 -0.326220 -0.102726
vn 0.939696 -0.333348 -0.076491
vn 0.917897 -0.390451 -0.070801
vn -0.939696 0.334303 0.072203
vn -0.958083 0.281893 0.051115
vn -0.939696 0.327512 0.098527
vn -0.939696 0.318652 0.124229
vn -0.939696 0.307779 0.149146
vn -0.939696 0.294960 0.173120
vn -0.939696 0.280278 0.196001
vn -0.939696 0.263825 0.217643
vn -0.939696 0.245705 0.237909
vn -0.939696 0.226033 0.256673
vn -0.939696 0.204932 0.273815
vn -0.939696 0.182537 0.289227
vn -0.939696 0.158988 0.302811
vn -0.939696 0.134435 0.314483
vn -0.939696 0.109032 0.324167
vn -0.939696 0.082941 0.331802
vn -0.939696 0.056325 0.337342
vn -0.939696 0.029353 0.340750
vn -0.917897 0.015771 0.396505
vn -0.000000 0.139173 -0.990268
vn -0.000000 0.139173 -0.990268
vn -0.000000 0.139173 -0.990268
vn 0.000000 0.139173 -0.990268
vn -0.000000 -1.000000 0.000000
vn -0.000000 -1.000000 0.000000
vn -0.000000 -1.000000 0.000000
vn -0.000000 -1.000000 0.000000
vn -0.000000 0.139173 -0.990268
vn -0.000000 0.139173 -0.990268
vn -0.000000 -1.000000 0.000000
vn -0.000000 -1.000000 0.000000
vn 0.000000 0.139173 -0.990268
vn 0.000000 0.139173 -0.990268
vn -0.000000 -1.000000 0.000000
vn -0.000000 -1.000000 0.000000
vn 0.000000 0.139173 -0.990268
vn -0.000000 0.139173 -0.990268
vn -0.000000 -1.000000 0.000000
vn -0.000000 -1.000000 0.000000
vn -0.000000 0.139173 -0.990268
vn -0.000000 0.139173 -0.990268
vn 0.000000 -1.000000 0.000000
vn 0.000000 -1.000000 0.000000
vn -0.000000 0.139173 -0.990268
vn 0.000000 0.139173 -0.990268
vn 0.000000 -1.000000 0.000000
vn 0.000000 -1.000000 0.000000
vn 0.000000 0.139173 -0.990268
vn 0.000000 0.139173 -0.990268
vn 0.000000 -1.000000 0.000000
vn -0.000000 -1.000000 0.000000
vn 0.000000 0.139173 -0.990268
vn 0.000000 0.139173 -0.990268
vn -0.000000 -1.000000 0.000000
vn -0.000000 -1.000000 0.000000
vn 0.000000 0.139173 -0.990268
vn 0.000000 0.139173 -0.990268
vn 0.000000 -1.000000 0.000000
vn 0.000000 -1.000000 0.000000
vn 0.000000 0.139173 -0.990268
vn 0.000000 0.139173 -0.990268
vn 0.000000 -1.000000 0.000000
vn -0.000000 -1.000000 0.000000
vn 0.000000 0.139173 -0.990268
vn 0.000000 0.139173 -0.990268
vn -0.000000 -1.000000 0.000000
vn 0.000000 -1.000000 0.000000
vn 0.000000 0.139173 -0.990268
vn 0.000000 0.139173 -0.990268
vn 0.000000 -1.000000 0.000000
vn 0.000000 -1.000000 0.000000
vn 0.000000 0.139173 -0.990268
vn 0.000000 0.139173 -0.990268
vn 0.000000 -1.000000 0.000000
vn -0.000000 -1.000000 0.000000
vn -0.000000 0.139173 -0.990268
vn -0.000000 0.139173 -0.990268
vn -0.000000 -1.000000 0.000000
vn -0.000000 -1.000000 0.000000
vn 0.000000 0.139173 -0.990268
vn 0.000000 0.139173 -0.990268
vn -0.000000 -1.000000 0.000000
vn 0.000000 -1.000000 0.000000
vn 0.000000 0.139173 -0.990268
vn -0.000000 0.139173 -0.990268
vn -0.000000 -1.000000 0.000000
vn -0.000000 -1.000000 0.000000
vn -0.000000 0.139173 -0.990268
vn 0.000000 0.139173 -0.990268
vn -0.000000 -1.000000 0.000000
vn -0.000000 -1.000000 0.000000
# 756 vertex normals

g Material_1
f 1/1/1 2/2/2 3/3/3
f 1/1/1 4/4/4 2/2/2
f 4/4/4 5/5/5 2/2/2
f 4/4/4 6/6/6 5/5/5
f 6/6/6 7/7/7 5/5/5
f 6/6/6 8/8/8 7/7/7
f 8/8/8 9/9/9 7/7/7
f 8/8/8 10/10/10 9/9/9
f 10/10/10 11/11/11 9/9/9
f 10/10/10 12/12/12 11/11/11
f 12/12/12 13/13/13 11/11/11
f 12/12/12 14/14/14 13/13/13
f 14/14/14 15/15/15 13/13/13
f 14/14/14 16/16/16 15/15/15
f 16/16/16 17/17/17 15/15/15
f 16/16/16 18/18/18 17/17/17
f 18/18/18 19/19/19 17/17/17
f 18/18/18 20/20/20 19/19/19
f 20/20/20 21/21/21 19/19/19
f 20/20/20 22/22/22 21/21/21
f 22/22/22 23/23/23 21/21/21
f 22/22/22 24/24/24 23/23/23
f 24/24/24 25/25/25 23/23/23
f 24/24/24 26/26/26 25/25/25
f 26/26/26 27/27/27 25/25/25
f 26/26/26 28/28/28 27/27/27
f 28/28/28 29/29/29 27/27/27
f 28/28/28 30/30/30 29/29/29
f 30/30/30 31/31/31 29/29/29
f 30/30/30 32/32/32 31/31/31
f 32/32/32 33/33/33 31/31/31
f 32/32/32 34/34/34 33/33/33
f 34/34/34 35/35/35 33/33/33
f 34/34/34 36/36/36 35/35/35
f 36/36/36 37/37/37 35/35/35
f 36/36/36 38/38/38 37/37/37
f 39/39/39 40/40/40 41/41/41
f 39/39/39 42/42/42 40/40/40
f 42/42/42 43/43/43 40/40/40
f 42/42/42 44/44/44 43/43/43
f 44/44/44 45/45/45 43/43/43
f 44/44/44 46/46/46 45/45/45
f 46/46/46 47/47/47 45/45/45
f 46/46/46 48/48/48 47/47/47
f 48/48/48 49/49/49 47/47/47
f 48/48/48 50/50/50 49/49/49
f 50/50/50 51/51/51 49/49/49
f 50/50/50 52/52/52 51/51/51
f 52/52/52 53/53/53 51/51/51
f 52/52/52 54/54/54 53/53/53
f 54/54/54 55/55/55 53/53/53
f 54/54/54 56/56/56 55/55/55
f 56/56/56 57/57/57 55/55/55
f 56/56/56 58/58/58 57/57/57
f 58/58/58 59/59/59 57/57/57
f 58/58/58 60/60/60 59/59/59
f 60/60/60 61/61/61 59/59/59
f 60/60/60 62/62/62 61/61/61
f 62/62/62 63/63/63 61/61/61
f 62/62/62 64/64/64 63/63/63
f 64/64/64 65/65/65 63/63/63
f 64/64/64 66/66/66 65/65/65
f 66/66/66 67/67/67 65/65/65
f 66/66/66 68/68/68 67/67/67
f 68/68/68 69/69/69 67/67/67
f 68/68/68 70/70/70 69/69/69
f 70/70/70 71/71/71 69/69/69
f 70/70/70 72/72/72 71/71/71
f 72/72/72 73/73/73 71/71/71
f 72/72/72 74/74/74 73/73/73
f 74/74/74 75/75/75 73/73/73
f 74/74/74 76/76/76 75/75/75
f 3/3/3 77/77/77 78/78/78
f 3/3/3 2/2/2 77/77/77
f 2/2/2 79/79/79 77/77/77
f 2/2/2 5/5/5 79/79/79
f 5/5/5 80/80/80 79/79/79
f 5/5/5 7/7/7 80/80/80
f 7/7/7 81/81/81 80/80/80
f 7/7/7 9/9/9 81/81/81
f 9/9/9 82/82/82 81/81/81
f 9/9/9 11/11/11 82/82/82
f 11/11/11 83/83/83 82/82/82
f 11/11/11 13/13/13 83/83/83
f 13/13/13 84/84/84 83/83/83
f 13/13/13 15/15/15 84/84/84
f 15/15/15 85/85/85 84/84/84
f 15/15/15 17/17/17 85/85/85
f 17/17/17 86/86/86 85/85/85
f 17/17/17 19/19/19 86/86/86
f 19/19/19 87/87/87 86/86/86
f 19/19/19 21/21/21 87/87/87
f 21/21/21 88/88/88 87/87/87
f 21/21/21 23/23/23 88/88/88
f 23/23/23 89/89/89 88/88/88
f 23/23/23 25/25/25 89/89/89
f 25/25/25 90/90/90 89/89/89
f 25/25/25 27/27/27 90/90/90
f 27/27/27 91/91/91 90/90/90
f 27/27/27 29/29/29 91/91/91
f 29/29/29 92/92/92 91/91/91
f 29/29/29 31/31/31 92/92/92
f 31/31/31 93/93/93 92/92/92
f 31/31/31 33/33/33 93/93/93
f 33/33/33 94/94/94 93/93/93
f 33/33/33 35/35/35 94/94/94
f 35/35/35 95/95/95 94/94/94
f 35/35/35 37/37/37 95/95/95
f 41/41/41 96/96/96 97/97/97
f 41/41/41 40/40/40 96/96/96
f 40/40/40 98/98/98 96/96/96
f 40/40/40 43/43/43 98/98/98
f 43/43/43 99/99/99 98/98/98
f 43/43/43 45/45/45 99/99/99
f 45/45/45 100/100/100 99/99/99
f 45/45/45 47/47/47 100/100/100
f 47/47/47 101/101/101 100/100/100
f 47/47/47 49/49/49 101/101/101
f 49/49/49 102/102/102 101/101/101
f 49/49/49 51/51/51 102/102/102
f 51/51/51 103/103/103 102/102/102
f 51/51/51 53/53/53 103/103/103
f 53/53/53 104/104/104 103/103/103
f 53/53/53 55/55/55 104/104/104
f 55/55/55 105/105/105 104/104/104
f 55/55/55 57/57/57 105/105/105
f 57/57/57 106/106/106 105/105/105
f 57/57/57 59/59/59 106/106/106
f 59/59/59 107/107/107 106/106/106
f 59/59/59 61/61/61 107/107/107
f 61/61/61 108/108/108 107/107/107
f 61/61/61 63/63/63 108/108/108
f 63/63/63 109/109/109 108/108/108
f 63/63/63 65/65/65 109/109/109
f 65/65/65 110/110/110 109/109/109
f 65/65/65 67/67/67 110/110/110
f 67/67/67 111/111/111 110/110/110
f 67/67/67 69/69/69 111/111/111
f 69/69/69 112/112/112 111/111/111
f 69/69/69 71/71/71 112/112/112
f 71/71/71 113/113/113 112/112/112
f 71/71/71 73/73/73 113/113/113
f 73/73/73 114/114/114 113/113/113
f 73/73/73 75/75/75 114/114/114
f 78/78/78 115/115/115 116/116/116
f 78/78/78 77/77/77 115/115/115
f 77/77/77 117/117/117 115/115/115
f 77/77/77 79/79/79 117/117/117
f 79/79/79 118/118/118 117/117/117
f 79/79/79 80/80/80 118/118/118
f 80/80/80 119/119/119 118/118/118
f 80/80/80 81/81/81 119/119/119
f 81/81/81 120/120/120 119/119/119
f 81/81/81 82/82/82 120/120/120
f 82/82/82 121/121/121 120/120/120
f 82/82/82 83/83/83 121/121/121
f 83/83/83 122/122/122 121/121/121
f 83/83/83 84/84/84 122/122/122
f 84/84/84 123/123/123 122/122/122
f 84/84/84 85/85/85 123/123/123
f 85/85/85 124/124/124 123/123/123
f 85/85/85 86/86/86 124/124/124
f 86/86/86 125/125/125 124/124/124
f 86/86/86 87/87/87 125/125/125
f 87/87/87 126/126/126 125/125/125
f 87/87/87 88/88/88 126/126/126
f 88/88/88 127/127/127 126/126/126
f 88/88/88 89/89/89 127/127/127
f 89/89/89 128/128/128 127/127/127
f 89/89/89 90/90/90 128/128/128
f 90/90/90 129/129/129 128/128/128
f 90/90/90 91/91/91 129/129/129
f 91/91/91 130/130/130 129/129/129
f 91/91/91 92/92/92 130/130/130
f 92/92/92 131/131/131 130/130/130
f 92/92/92 93/93/93 131/131/131
f 93/93/93 132/132/132 131/131/131
f 93/93/93 94/94/94 132/132/132
f 94/94/94 133/133/133 132/132/132
f 94/94/94 95/95/95 133/133/133
f 97/97/97 134/134/134 135/135/135
f 97/97/97 96/96/96 134/134/134
f 96/96/96 136/136/136 134/134/134
f 96/96/96 98/98/98 136/136/136
f 98/98/98 137/137/137 136/136/136
f 98/98/98 99/99/99 137/137/137
f 99/99/99 138/138/138 137/137/137
f 99/99/99 100/100/100 138/138/138
f 100/100/100 139/139/139 138/138/138
f 100/100/100 101/101/101 139/139/139
f 101/101/101 140/140/140 139/139/139
f 101/101/101 102/102/102 140/140/140
f 102/102/102 141/141/141 140/140/140
f 102/102/102 103/103/103 141/141/141
f 103/103/103 142/142/142 141/141/141
f 103/103/103 104/104/104 142/142/142
f 104/104/104 143/143/143 142/142/142
f 104/104/104 105/105/105 143/143/143
f 105/105/105 144/144/144 143/143/143
f 105/105/105 106/106/106 144/144/144
f 106/106/106 145/145/145 144/144/144
f 106/106/106 107/107/107 145/145/145
f 107/107/107 146/146/146 145/145/145
f 107/107/107 108/108/108 146/146/146
f 108/108/108 147/147/147 146/146/146
f 108/108/108 109/109/109 147/147/147
f 109/109/109 148/148/148 147/147/147
f 109/109/109 110/110/110 148/148/148
f 110/110/110 149/149/149 148/148/148
f 110/110/110 111/111/111 149/149/149
f 111/111/111 150/150/150 149/149/149
f 111/111/111 112/112/112 150/150/150
f 112/112/112 151/151/151 150/150/150
f 112/112/112 113/113/113 151/151/151
f 113/113/113 152/152/152 151/151/151
f 113/113/113 114/114/114 152/152/152
f 116/116/116 153/153/153 154/154/154
f 116/116/116 115/115/115 153/153/153
f 115/115/115 155/155/155 153/153/153
f 115/115/115 117/117/117 155/155/155
f 117/117/117 156/156/156 155/155/155
f 117/117/117 118/118/118 156/156/156
f 118/118/118 157/157/157 156/156/156
f 118/118/118 119/119/119 157/157/157
f 119/119/119 158/158/158 157/157/157
f 119/119/119 120/120/120 158/158/158
f 120/120/120 159/159/159 158/158/158
f 120/120/120 121/121/121 159/159/159
f 121/121/121 160/160/160 159/159/159
f 121/121/121 122/122/122 160/160/160
f 122/122/122 161/161/161 160/160/160
f 122/122/122 123/123/123 161/161/161
f 123/123/123 162/162/162 161/161/161
f 123/123/123 124/124/124 162/162/162
f 124/124/124 163/163/163 162/162/162
f 124/124/124 125/125/125 163/163/163
f 125/125/125 164/164/164 163/163/163
f 125/125/125 126/126/126 164/164/164
f 126/126/126 165/165/165 164/164/164
f 126/126/126 127/127/127 165/165/165
f 127/127/127 166/166/166 165/165/165
f 127/127/127 128/128/128 166/166/166
f 128/128/128 167/167/167 166/166/166
f 128/128/128 129/129/129 167/167/167
f 129/129/129 168/168/168 167/167/167
f 129/129/129 130/130/130 168/168/168
f 130/130/130 169/169/169 168/168/168
f 130/130/130 131/131/131 169/169/169
f 131/131/131 170/170/170 169/169/169
f 131/131/131 132/132/132 170/170/170
f 132/132/132 171/171/171 170/170/170
f 132/132/132 133/133/133 171/171/171
f 135/135/135 172/172/172 173/173/173
f 135/135/135 134/134/134 172/172/172
f 134/134/134 174/174/174 172/172/172
f 134/134/134 136/136/136 174/174/174
f 136/136/136 175/175/175 174/174/174
f 136/136/136 137/137/137 175/175/175
f 137/137/137 176/176/176 175/175/175
f 137/137/137 138/138/138 176/176/176
f 138/138/138 177/177/177 176/176/176
f 138/138/138 139/139/139 177/177/177
f 139/139/139 178/178/178 177/177/177
f 139/139/139 140/140/140 178/178/178
f 140/140/140 179/179/179 178/178/178
f 140/140/140 141/141/141 179/179/179
f 141/141/141 180/180/180 179/179/179
f 141/141/141 142/142/142 180/180/180
f 142/142/142 181/181/181 180/180/180
f 142/142/142 143/143/143 181/181/181
f 143/143/143 182/182/182 181/181/181
f 143/143/143 144/144/144 182/182/182
f 144/144/144 183/183/183 182/182/182
f 144/144/144 145/145/145 183/183/183
f 145/145/145 184/184/184 183/183/183
f 145/145/145 146/146/146 184/184/184
f 146/146/146 185/185/185 184/184/184
f 146/146/146 147/147/147 185/185/185
f 147/147/147 186/186/186 185/185/185
f 147/147/147 148/148/148 186/186/186
f 148/148/148 187/187/187 186/186/186
f 148/148/148 149/149/149 187/187/187
f 149/149/149 188/188/188 187/187/187
f 149/149/149 150/150/150 188/188/188
f 150/150/150 189/189/189 188/188/188
f 150/150/150 151/151/151 189/189/189
f 151/151/151 190/190/190 189/189/189
f 151/151/151 152/152/152 190/190/190
f 154/154/154 191/191/191 192/192/192
f 154/154/154 153/153/153 191/191/191
f 153/153/153 193/193/193 191/191/191
f 153/153/153 155/155/155 193/193/193
f 155/155/155 194/194/194 193/193/193
f 155/155/155 156/156/156 194/194/194
f 156/156/156 195/195/195 194/194/194
f 156/156/156 157/157/157 195/195/195
f 157/157/157 196/196/196 195/195/195
f 157/157/157 158/158/158 196/196/196
f 158/158/158 197/197/197 196/196/196
f 158/158/158 159/159/159 197/197/197
f 159/159/159 198/198/198 197/197/197
f 159/159/159 160/160/160 198/198/198
f 160/160/160 199/199/199 198/198/198
f 160/160/160 161/161/161 199/199/199
f 161/161/161 200/200/200 199/199/199
f 161/161/161 162/162/162 200/200/200
f 162/162/162 201/201/201 200/200/200
f 162/162/162 163/163/163 201/201/201
f 163/163/163 202/202/202 201/201/201
f 163/163/163 164/164/164 202/202/202
f 164/164/164 203/203/203 202/202/202
f 164/164/164 165/165/165 203/203/203
f 165/165/165 204/204/204 203/203/203
f 165/165/165 166/166/166 204/204/204
f 166/166/166 205/205/205 204/204/204
f 166/166/166 167/167/167 205/205/205
f 167/167/167 206/206/206 205/205/205
f 167/167/167 168/168/168 206/206/206
f 168/168/168 207/207/207 206/206/206
f 168/168/168 169/169/169 207/207/207
f 169/169/169 208/208/208 207/207/207
f 169/169/169 170/170/170 208/208/208
f 170/170/170 209/209/209 208/208/208
f 170/170/170 171/171/171 209/209/209
f 173/173/173 210/210/210 211/211/211
f 173/173/173 172/172/172 210/210/210
f 172/172/172 212/212/212 210/210/210
f 172/172/172 174/174/174 212/212/212
f 174/174/174 213/213/213 212/212/212
f 174/174/174 175/175/175 213/213/213
f 175/175/175 214/214/214 213/213/213
f 175/175/175 176/176/176 214/214/214
f 176/176/176 215/215/215 214/214/214
f 176/176/176 177/177/177 215/215/215
f 177/177/177 216/216/216 215/215/215
f 177/177/177 178/178/178 216/216/216
f 178/178/178 217/217/217 216/216/216
f 178/178/178 179/179/179 217/217/217
f 179/179/179 218/218/218 217/217/217
f 179/179/179 180/180/180 218/218/218
f 180/180/180 219/219/219 218/218/218
f 180/180/180 181/181/181 219/219/219
f 181/181/181 220/220/220 219/219/219
f 181/181/181 182/182/182 220/220/220
f 182/182/182 221/221/221 220/220/220
f 182/182/182 183/183/183 221/221/221
f 183/183/183 222/222/222 221/221/221
f 183/183/183 184/184/184 222/222/222
f 184/184/184 223/223/223 222/222/222
f 184/184/184 185/185/185 223/223/223
f 185/185/185 224/224/224 223/223/223
f 185/185/185 186/186/186 224/224/224
f 186/186/186 225/225/225 224/224/224
f 186/186/186 187/187/187 225/225/225
f 187/187/187 226/226/226 225/225/225
f 187/187/187 188/188/188 226/226/226
f 188/188/188 227/227/227 226/226/226
f 188/188/188 189/189/189 227/227/227
f 189/189/189 228/228/228 227/227/227
f 189/189/189 190/190/190 228/228/228
f 192/192/192 229/229/229 230/230/230
f 192/192/192 191/191/191 229/229/229
f 191/191/191 231/231/231 229/229/229
f 191/191/191 193/193/193 231/231/231
f 193/193/193 232/232/232 231/231/231
f 193/193/193 194/194/194 232/232/232
f 194/194/194 233/233/233 232/232/232
f 194/194/194 195/195/195 233/233/233
f 195/195/195 234/234/234 233/233/233
f 195/195/195 196/196/196 234/234/234
f 196/196/196 235/235/235 234/234/234
f 196/196/196 197/197/197 235/235/235
f 197/197/197 236/236/236 235/235/235
f 197/197/197 198/198/198 236/236/236
f 198/198/198 237/237/237 236/236/236
f 198/198/198 199/199/199 237/237/237
f 199/199/199 238/238/238 237/237/237
f 199/199/199 200/200/200 238/238/238
f 200/200/200 239/239/239 238/238/238
f 200/200/200 201/201/201 239/239/239
f 201/201/201 240/240/240 239/239/239
f 201/201/201 202/202/202 240/240/240
f 202/202/202 241/241/241 240/240/240
f 202/202/202 203/203/203 241/241/241
f 203/203/203 242/242/242 241/241/241
f 203/203/203 204/204/204 242/242/242
f 204/204/204 243/243/243 242/242/242
f 204/204/204 205/205/205 243/243/243
f 205/205/205 244/244/244 243/243/243
f 205/205/205 206/206/206 244/244/244
f 206/206/206 245/245/245 244/244/244
f 206/206/206 207/207/207 245/245/245
f 207/207/207 246/246/246 245/245/245
f 207/207/207 208/208/208 246/246/246
f 208/208/208 247/247/247 246/246/246
f 208/208/208 209/209/209 247/247/247
f 211/211/211 248/248/248 249/249/249
f 211/211/211 210/210/210 248/248/248
f 210/210/210 250/250/250 248/248/248
f 210/210/210 212/212/212 250/250/250
f 212/212/212 251/251/251 250/250/250
f 212/212/212 213/213/213 251/251/251
f 213/213/213 252/252/252 251/251/251
f 213/213/213 214/214/214 252/252/252
f 214/214/214 253/253/253 252/252/252
f 214/214/214 215/215/215 253/253/253
f 215/215/215 254/254/254 253/253/253
f 215/215/215 216/216/216 254/254/254
f 216/216/216 255/255/255 254/254/254
f 216/216/216 217/217/217 255/255/255
f 217/217/217 256/256/256 255/255/255
f 217/217/217 218/218/218 256/256/256
f 218/218/218 257/257/257 256/256/256
f 218/218/218 219/219/219 257/257/257
f 219/219/219 258/258/258 257/257/257
f 219/219/219 220/220/220 258/258/258
f 220/220/220 259/259/259 258/258/258
f 220/220/220 221/221/221 259/259/259
f 221/221/221 260/260/260 259/259/259
f 221/221/221 222/222/222 260/260/260
f 222/222/222 261/261/261 260/260/260
f 222/222/222 223/223/223 261/261/261
f 223/223/223 262/262/262 261/261/261
f 223/223/223 224/224/224 262/262/262
f 224/224/224 263/263/263 262/262/262
f 224/224/224 225/225/225 263/263/263
f 225/225/225 264/264/264 263/263/263
f 225/225/225 226/226/226 264/264/264
f 226/226/226 265/265/265 264/264/264
f 226/226/226 227/227/227 265/265/265
f 227/227/227 266/266/266 265/265/265
f 227/227/227 228/228/228 266/266/266
f 230/230/230 267/267/267 268/268/268
f 230/230/230 229/229/229 267/267/267
f 229/229/229 269/269/269 267/267/267
f 229/229/229 231/231/231 269/269/269
f 231/231/231 270/270/270 269/269/269
f 231/231/231 232/232/232 270/270/270
f 232/232/232 271/271/271 270/270/270
f 232/232/232 233/233/233 271/271/271
f 233/233/233 272/272/272 271/271/271
f 233/233/233 234/234/234 272/272/272
f 234/234/234 273/273/273 272/272/272
f 234/234/234 235/235/235 273/273/273
f 235/235/235 274/274/274 273/273/273
f 235/235/235 236/236/236 274/274/274
f 236/236/236 275/275/275 274/274/274
f 236/236/236 237/237/237 275/275/275
f 237/237/237 276/276/276 275/275/275
f 237/237/237 238/238/238 276/276/276
f 238/238/238 277/277/277 276/276/276
f 238/238/238 239/239/239 277/277/277
f 239/239/239 278/278/278 277/277/277
f 239/239/239 240/240/240 278/278/278
f 240/240/240 279/279/279 278/278/278
f 240/240/240 241/241/241 279/279/279
f 241/241/241 280/280/280 279/279/279
f 241/241/241 242/242/242 280/280/280
f 242/242/242 281/281/281 280/280/280
f 242/242/242 243/243/243 281/281/281
f 243/243/243 282/282/282 281/281/281
f 243/243/243 244/244/244 282/282/282
f 244/244/244 283/283/283 282/282/282
f 244/244/244 245/245/245 283/283/283
f 245/245/245 284/284/284 283/283/283
f 245/245/245 246/246/246 284/284/284
f 246/246/246 285/285/285 284/284/284
f 246/246/246 247/247/247 285/285/285
f 249/249/249 286/286/286 287/287/287
f 249/249/249 248/248/248 286/286/286
f 248/248/248 288/288/288 286/286/286
f 248/248/248 250/250/250 288/288/288
f 250/250/250 289/289/289 288/288/288
f 250/250/250 251/251/251 289/289/289
f 251/251/251 290/290/290 289/289/289
f 251/251/251 252/252/252 290/290/290
f 252/252/252 291/291/291 290/290/290
f 252/252/252 253/253/253 291/291/291
f 253/253/253 292/292/292 291/291/291
f 253/253/253 254/254/254 292/292/292
f 254/254/254 293/293/293 292/292/292
f 254/254/254 255/255/255 293/293/293
f 255/255/255 294/294/294 293/293/293
f 255/255/255 256/256/256 294/294/294
f 256/256/256 295/295/295 294/294/294
f 256/256/256 257/257/257 295/295/295
f 257/257/257 296/296/296 295/295/295
f 257/257/257 258/258/258 296/296/296
f 258/258/258 297/297/297 296/296/296
f 258/258/258 259/259/259 297/297/297
f 259/259/259 298/298/298 297/297/297
f 259/259/259 260/260/260 298/298/298
f 260/260/260 299/299/299 298/298/298
f 260/260/260 261/261/261 299/299/299
f 261/261/261 300/300/300 299/299/299
f 261/261/261 262/262/262 300/300/300
f 262/262/262 301/301/301 300/300/300
f 262/262/262 263/263/263 301/301/301
f 263/263/263 302/302/302 301/301/301
f 263/263/263 264/264/264 302/302/302
f 264/264/264 303/303/303 302/302/302
f 264/264/264 265/265/265 303/303/303
f 265/265/265 304/304/304 303/303/303
f 265/265/265 266/266/266 304/304/304
f 268/268/268 305/305/305 306/306/306
f 268/268/268 267/267/267 305/305/305
f 267/267/267 307/307/307 305/305/305
f 267/267/267 269/269/269 307/307/307
f 269/269/269 308/308/308 307/307/307
f 269/269/269 270/270/270 308/308/308
f 270/270/270 309/309/309 308/308/308
f 270/270/270 271/271/271 309/309/309
f 271/271/271 310/310/310 309/309/309
f 271/271/271 272/272/272 310/310/310
f 272/272/272 311/311/311 310/310/310
f 272/272/272 273/273/273 311/311/311
f 273/273/273 312/312/312 311/311/311
f 273/273/273 274/274/274 312/312/312
f 274/274/274 313/313/313 312/312/312
f 274/274/274 275/275/275 313/313/313
f 275/275/275 314/314/314 313/313/313
f 275/275/275 276/276/276 314/314/314
f 276/276/276 315/315/315 314/314/314
f 276/276/276 277/277/277 315/315/315
f 277/277/277 316/316/316 315/315/315
f 277/277/277 278/278/278 316/316/316
f 278/278/278 317/317/317 316/316/316
f 278/278/278 279/279/279 317/317/317
f 279/279/279 318/318/318 317/317/317
f 279/279/279 280/280/280 318/318/318
f 280/280/280 319/319/319 318/318/318
f 280/280/280 281/281/281 319/319/319
f 281/281/281 320/320/320 319/319/319
f 281/281/281 282/282/282 320/320/320
f 282/282/282 321/321/321 320/320/320
f 282/282/282 283/283/283 321/321/321
f 283/283/283 322/322/322 321/321/321
f 283/283/283 284/284/284 322/322/322
f 284/284/284 323/323/323 322/322/322
f 284/284/284 285/285/285 323/323/323
f 287/287/287 324/324/324 325/325/325
f 287/287/287 286/286/286 324/324/324
f 286/286/286 326/326/326 324/324/324
f 286/286/286 288/288/288 326/326/326
f 288/288/288 327/327/327 326/326/326
f 288/288/288 289/289/289 327/327/327
f 289/289/289 328/328/328 327/327/327
f 289/289/289 290/290/290 328/328/328
f 290/290/290 329/329/329 328/328/328
f 290/290/290 291/291/291 329/329/329
f 291/291/291 330/330/330 329/329/329
f 291/291/291 292/292/292 330/330/330
f 292/292/292 331/331/331 330/330/330
f 292/292/292 293/293/293 331/331/331
f 293/293/293 332/332/332 331/331/331
f 293/293/293 294/294/294 332/332/332
f 294/294/294 333/333/333 332/332/332
f 294/294/294 295/295/295 333/333/333
f 295/295/295 334/334/334 333/333/333
f 295/295/295 296/296/296 334/334/334
f 296/296/296 335/335/335 334/334/334
f 296/296/296 297/297/297 335/335/335
f 297/297/297 336/336/336 335/335/335
f 297/297/297 298/298/298 336/336/336
f 298/298/298 337/337/337 336/336/336
f 298/298/298 299/299/299 337/337/337
f 299/299/299 338/338/338 337/337/337
f 299/299/299 300/300/300 338/338/338
f 300/300/300 339/339/339 338/338/338
f 300/300/300 301/301/301 339/339/339
f 301/301/301 340/340/340 339/339/339
f 301/301/301 302/302/302 340/340/340
f 302/302/302 341/341/341 340/340/340
f 302/302/302 303/303/303 341/341/341
f 303/303/303 342/342/342 341/341/341
f 303/303/303 304/304/304 342/342/342
f 306/306/306 343/343/343 344/344/344
f 306/306/306 305/305/305 343/343/343
f 305/305/305 345/345/345 343/343/343
f 305/305/305 307/307/307 345/345/345
f 307/307/307 346/346/346 345/345/345
f 307/307/307 308/308/308 346/346/346
f 308/308/308 347/347/347 346/346/346
f 308/308/308 309/309/309 347/347/347
f 309/309/309 348/348/348 347/347/347
f 309/309/309 310/310/310 348/348/348
f 310/310/310 349/349/349 348/348/348
f 310/310/310 311/311/311 349/349/349
f 311/311/311 350/350/350 349/349/349
f 311/311/311 312/312/312 350/350/350
f 312/312/312 351/351/351 350/350/350
f 312/312/312 313/313/313 351/351/351
f 313/313/313 352/352/352 351/351/351
f 313/313/313 314/314/314 352/352/352
f 314/314/314 353/353/353 352/352/352
f 314/314/314 315/315/315 353/353/353
f 315/315/315 354/354/354 353/353/353
f 315/315/315 316/316/316 354/354/354
f 316/316/316 355/355/355 354/354/354
f 316/316/316 317/317/317 355/355/355
f 317/317/317 356/356/356 355/355/355
f 317/317/317 318/318/318 356/356/356
f 318/318/318 357/357/357 356/356/356
f 318/318/318 319/319/319 357/357/357
f 319/319/319 358/358/358 357/357/357
f 319/319/319 320/320/320 358/358/358
f 320/320/320 359/359/359 358/358/358
f 320/320/320 321/321/321 359/359/359
f 321/321/321 360/360/360 359/359/359
f 321/321/321 322/322/322 360/360/360
f 322/322/322 361/361/361 360/360/360
f 322/322/322 323/323/323 361/361/361
f 325/325/325 362/362/362 363/363/363
f 325/325/325 324/324/324 362/362/362
f 324/324/324 364/364/364 362/362/362
f 324/324/324 326/326/326 364/364/364
f 326/326/326 365/365/365 364/364/364
f 326/326/326 327/327/327 365/365/365
f 327/327/327 366/366/366 365/365/365
f 327/327/327 328/328/328 366/366/366
f 328/328/328 367/367/367 366/366/366
f 328/328/328 329/329/329 367/367/367
f 329/329/329 368/368/368 367/367/367
f 329/329/329 330/330/330 368/368/368
f 330/330/330 369/369/369 368/368/368
f 330/330/330 331/331/331 369/369/369
f 331/331/331 370/370/370 369/369/369
f 331/331/331 332/332/332 370/370/370
f 332/332/332 371/371/371 370/370/370
f 332/332/332 333/333/333 371/371/371
f 333/333/333 372/372/372 371/371/371
f 333/333/333 334/334/334 372/372/372
f 334/334/334 373/373/373 372/372/372
f 334/334/334 335/335/335 373/373/373
f 335/335/335 374/374/374 373/373/373
f 335/335/335 336/336/336 374/374/374
f 336/336/336 375/375/375 374/374/374
f 336/336/336 337/337/337 375/375/375
f 337/337/337 376/376/376 375/375/375
f 337/337/337 338/338/338 376/376/376
f 338/338/338 377/377/377 376/376/376
f 338/338/338 339/339/339 377/377/377
f 339/339/339 378/378/378 377/377/377
f 339/339/339 340/340/340 378/378/378
f 340/340/340 379/379/379 378/378/378
f 340/340/340 341/341/341 379/379/379
f 341/341/341 380/380/380 379/379/379
f 341/341/341 342/342/342 380/380/380
f 344/344/344 381/381/381 382/382/382
f 344/344/344 343/343/343 381/381/381
f 343/343/343 383/383/383 381/381/381
f 343/343/343 345/345/345 383/383/383
f 345/345/345 384/384/384 383/383/383
f 345/345/345 346/346/346 384/384/384
f 346/346/346 385/385/385 384/384/384
f 346/346/346 347/347/347 385/385/385
f 347/347/347 386/386/386 385/385/385
f 347/347/347 348/348/348 386/386/386
f 348/348/348 387/387/387 386/386/386
f 348/348/348 349/349/349 387/387/387
f 349/349/349 388/388/388 387/387/387
f 349/349/349 350/350/350 388/388/388
f 350/350/350 389/389/389 388/388/388
f 350/350/350 351/351/351 389/389/389
f 351/351/351 390/390/390 389/389/389
f 351/351/351 352/352/352 390/390/390
f 352/352/352 391/391/391 390/390/390
f 352/352/352 353/353/353 391/391/391
f 353/353/353 392/392/392 391/391/391
f 353/353/353 354/354/354 392/392/392
f 354/354/354 393/393/393 392/392/392
f 354/354/354 355/355/355 393/393/393
f 355/355/355 394/394/394 393/393/393
f 355/355/355 356/356/356 394/394/394
f 356/356/356 395/395/395 394/394/394
f 356/356/356 357/357/357 395/395/395
f 357/357/357 396/396/396 395/395/395
f 357/357/357 358/358/358 396/396/396
f 358/358/358 397/397/397 396/396/396
f 358/358/358 359/359/359 397/397/397
f 359/359/359 398/398/398 397/397/397
f 359/359/359 360/360/360 398/398/398
f 360/360/360 399/399/399 398/398/398
f 360/360/360 361/361/361 399/399/399
f 363/363/363 400/400/400 401/401/401
f 363/363/363 362/362/362 400/400/400
f 362/362/362 402/402/402 400/400/400
f 362/362/362 364/364/364 402/402/402
f 364/364/364 403/403/403 402/402/402
f 364/364/364 365/365/365 403/403/403
f 365/365/365 404/404/404 403/403/403
f 365/365/365 366/366/366 404/404/404
f 366/366/366 405/405/405 404/404/404
f 366/366/366 367/367/367 405/405/405
f 367/367/367 406/406/406 405/405/405
f 367/367/367 368/368/368 406/406/406
f 368/368/368 407/407/407 406/406/406
f 368/368/368 369/369/369 407/407/407
f 369/369/369 408/408/408 407/407/407
f 369/369/369 370/370/370 408/408/408
f 370/370/370 409/409/409 408/408/408
f 370/370/370 371/371/371 409/409/409
f 371/371/371 410/410/410 409/409/409
f 371/371/371 372/372/372 410/410/410
f 372/372/372 411/411/411 410/410/410
f 372/372/372 373/373/373 411/411/411
f 373/373/373 412/412/412 411/411/411
f 373/373/373 374/374/374 412/412/412
f 374/374/374 413/413/413 412/412/412
f 374/374/374 375/375/375 413/413/413
f 375/375/375 414/414/414 413/413/413
f 375/375/375 376/376/376 414/414/414
f 376/376/376 415/415/415 414/414/414
f 376/376/376 377/377/377 415/415/415
f 377/377/377 416/416/416 415/415/415
f 377/377/377 378/378/378 416/416/416
f 378/378/378 417/417/417 416/416/416
f 378/378/378 379/379/379 417/417/417
f 379/379/379 418/418/418 417/417/417
f 379/379/379 380/380/380 418/418/418
f 382/382/382 419/419/419 420/420/420
f 382/382/382 381/381/381 419/419/419
f 381/381/381 421/421/421 419/419/419
f 381/381/381 383/383/383 421/421/421
f 383/383/383 422/422/422 421/421/421
f 383/383/383 384/384/384 422/422/422
f 384/384/384 423/423/423 422/422/422
f 384/384/384 385/385/385 423/423/423
f 385/385/385 424/424/424 423/423/423
f 385/385/385 386/386/386 424/424/424
f 386/386/386 425/425/425 424/424/424
f 386/386/386 387/387/387 425/425/425
f 387/387/387 426/426/426 425/425/425
f 387/387/387 388/388/388 426/426/426
f 388/388/388 427/427/427 426/426/426
f 388/388/388 389/389/389 427/427/427
f 389/389/389 428/428/428 427/427/427
f 389/389/389 390/390/390 428/428/428
f 390/390/390 429/429/429 428/428/428
f 390/390/390 391/391/391 429/429/429
f 391/391/391 430/430/430 429/429/429
f 391/391/391 392/392/392 430/430/430
f 392/392/392 431/431/431 430/430/430
f 392/392/392 393/393/393 431/431/431
f 393/393/393 432/432/432 431/431/431
f 393/393/393 394/394/394 432/432/432
f 394/394/394 433/433/433 432/432/432
f 394/394/394 395/395/395 433/433/433
f 395/395/395 434/434/434 433/433/433
f 395/395/395 396/396/396 434/434/434
f 396/396/396 435/435/435 434/434/434
f 396/396/396 397/397/397 435/435/435
f 397/397/397 436/436/436 435/435/435
f 397/397/397 398/398/398 436/436/436
f 398/398/398 437/437/437 436/436/436
f 398/398/398 399/399/399 437/437/437
f 401/401/401 438/438/438 439/439/439
f 401/401/401 400/400/400 438/438/438
f 400/400/400 440/440/440 438/438/438
f 400/400/400 402/402/402 440/440/440
f 402/402/402 441/441/441 440/440/440
f 402/402/402 403/403/403 441/441/441
f 403/403/403 442/442/442 441/441/441
f 403/403/403 404/404/404 442/442/442
f 404/404/404 443/443/443 442/442/442
f 404/404/404 405/405/405 443/443/443
f 405/405/405 444/444/444 443/443/443
f 405/405/405 406/406/406 444/444/444
f 406/406/406 445/445/445 444/444/444
f 406/406/406 407/407/407 445/445/445
f 407/407/407 446/446/446 445/445/445
f 407/407/407 408/408/408 446/446/446
f 408/408/408 447/447/447 446/446/446
f 408/408/408 409/409/409 447/447/447
f 409/409/409 448/448/448 447/447/447
f 409/409/409 410/410/410 448/448/448
f 410/410/410 449/449/449 448/448/448
f 410/410/410 411/411/411 449/449/449
f 411/411/411 450/450/450 449/449/449
f 411/411/411 412/412/412 450/450/450
f 412/412/412 451/451/451 450/450/450
f 412/412/412 413/413/413 451/451/451
f 413/413/413 452/452/452 451/451/451
f 413/413/413 414/414/414 452/452/452
f 414/414/414 453/453/453 452/452/452
f 414/414/414 415/415/415 453/453/453
f 415/415/415 454/454/454 453/453/453
f 415/415/415 416/416/416 454/454/454
f 416/416/416 455/455/455 454/454/454
f 416/416/416 417/417/417 455/455/455
f 417/417/417 456/456/456 455/455/455
f 417/417/417 418/418/418 456/456/456
f 420/420/420 457/457/457 458/458/458
f 420/420/420 419/419/419 457/457/457
f 419/419/419 459/459/459 457/457/457
f 419/419/419 421/421/421 459/459/459
f 421/421/421 460/460/460 459/459/459
f 421/421/421 422/422/422 460/460/460
f 422/422/422 461/461/461 460/460/460
f 422/422/422 423/423/423 461/461/461
f 423/423/423 462/462/462 461/461/461
f 423/423/423 424/424/424 462/462/462
f 424/424/424 463/463/463 462/462/462
f 424/424/424 425/425/425 463/463/463
f 425/425/425 464/464/464 463/463/463
f 425/425/425 426/426/426 464/464/464
f 426/426/426 465/465/465 464/464/464
f 426/426/426 427/427/427 465/465/465
f 427/427/427 466/466/466 465/465/465
f 427/427/427 428/428/428 466/466/466
f 428/428/428 467/467/467 466/466/466
f 428/428/428 429/429/429 467/467/467
f 429/429/429 468/468/468 467/467/467
f 429/429/429 430/430/430 468/468/468
f 430/430/430 469/469/469 468/468/468
f 430/430/430 431/431/431 469/469/469
f 431/431/431 470/470/470 469/469/469
f 431/431/431 432/432/432 470/470/470
f 432/432/432 471/471/471 470/470/470
f 432/432/432 433/433/433 471/471/471
f 433/433/433 472/472/472 471/471/471
f 433/433/433 434/434/434 472/472/472
f 434/434/434 473/473/473 472/472/472
f 434/434/434 435/435/435 473/473/473
f 435/435/435 474/474/474 473/473/473
f 435/435/435 436/436/436 474/474/474
f 436/436/436 475/475/475 474/474/474
f 436/436/436 437/437/437 475/475/475
f 439/439/439 476/476/476 477/477/477
f 439/439/439 438/438/438 476/476/476
f 438/438/438 478/478/478 476/476/476
f 438/438/438 440/440/440 478/478/478
f 440/440/440 479/479/479 478/478/478
f 440/440/440 441/441/441 479/479/479
f 441/441/441 480/480/480 479/479/479
f 441/441/441 442/442/442 480/480/480
f 442/442/442 481/481/481 480/480/480
f 442/442/442 443/443/443 481/481/481
f 443/443/443 482/482/482 481/481/481
f 443/443/443 444/444/444 482/482/482
f 444/444/444 483/483/483 482/482/482
f 444/444/444 445/445/445 483/483/483
f 445/445/445 484/484/484 483/483/483
f 445/445/445 446/446/446 484/484/484
f 446/446/446 485/485/485 484/484/484
f 446/446/446 447/447/447 485/485/485
f 447/447/447 486/486/486 485/485/485
f 447/447/447 448/448/448 486/486/486
f 448/448/448 487/487/487 486/486/486
f 448/448/448 449/449/449 487/487/487
f 449/449/449 488/488/488 487/487/487
f 449/449/449 450/450/450 488/488/488
f 450/450/450 489/489/489 488/488/488
f 450/450/450 451/451/451 489/489/489
f 451/451/451 490/490/490 489/489/489
f 451/451/451 452/452/452 490/490/490
f 452/452/452 491/491/491 490/490/490
f 452/452/452 453/453/453 491/491/491
f 453/453/453 492/492/492 491/491/491
f 453/453/453 454/454/454 492/492/492
f 454/454/454 493/493/493 492/492/492
f 454/454/454 455/455/455 493/493/493
f 455/455/455 494/494/494 493/493/493
f 455/455/455 456/456/456 494/494/494
f 458/458/458 495/495/495 496/496/496
f 458/458/458 457/457/457 495/495/495
f 457/457/457 497/497/497 495/495/495
f 457/457/457 459/459/459 497/497/497
f 459/459/459 498/498/498 497/497/497
f 459/459/459 460/460/460 498/498/498
f 460/460/460 499/499/499 498/498/498
f 460/460/460 461/461/461 499/499/499
f 461/461/461 500/500/500 499/499/499
f 461/461/461 462/462/462 500/500/500
f 462/462/462 501/501/501 500/500/500
f 462/462/462 463/463/463 501/501/501
f 463/463/463 502/502/502 501/501/501
f 463/463/463 464/464/464 502/502/502
f 464/464/464 503/503/503 502/502/502
f 464/464/464 465/465/465 503/503/503
f 465/465/465 504/504/504 503/503/503
f 465/465/465 466/466/466 504/504/504
f 466/466/466 505/505/505 504/504/504
f 466/466/466 467/467/467 505/505/505
f 467/467/467 506/506/506 505/505/505
f 467/467/467 468/468/468 506/506/506
f 468/468/468 507/507/507 506/506/506
f 468/468/468 469/469/469 507/507/507
f 469/469/469 508/508/508 507/507/507
f 469/469/469 470/470/470 508/508/508
f 470/470/470 509/509/509 508/508/508
f 470/470/470 471/471/471 509/509/509
f 471/471/471 510/510/510 509/509/509
f 471/471/471 472/472/472 510/510/510
f 472/472/472 511/511/511 510/510/510
f 472/472/472 473/473/473 511/511/511
f 473/473/473 512/512/512 511/511/511
f 473/473/473 474/474/474 512/512/512
f 474/474/474 513/513/513 512/512/512
f 474/474/474 475/475/475 513/513/513
f 477/477/477 514/514/514 515/515/515
f 477/477/477 476/476/476 514/514/514
f 476/476/476 516/516/516 514/514/514
f 476/476/476 478/478/478 516/516/516
f 478/478/478 517/517/517 516/516/516
f 478/478/478 479/479/479 517/517/517
f 479/479/479 518/518/518 517/517/517
f 479/479/479 480/480/480 518/518/518
f 480/480/480 519/519/519 518/518/518
f 480/480/480 481/481/481 519/519/519
f 481/481/481 520/520/520 519/519/519
f 481/481/481 482/482/482 520/520/520
f 482/482/482 521/521/521 520/520/520
f 482/482/482 483/483/483 521/521/521
f 483/483/483 522/522/522 521/521/521
f 483/483/483 484/484/484 522/522/522
f 484/484/484 523/523/523 522/522/522
f 484/484/484 485/485/485 523/523/523
f 485/485/485 524/524/524 523/523/523
f 485/485/485 486/486/486 524/524/524
f 486/486/486 525/525/525 524/524/524
f 486/486/486 487/487/487 525/525/525
f 487/487/487 526/526/526 525/525/525
f 487/487/487 488/488/488 526/526/526
f 488/488/488 527/527/527 526/526/526
f 488/488/488 489/489/489 527/527/527
f 489/489/489 528/528/528 527/527/527
f 489/489/489 490/490/490 528/528/528
f 490/490/490 529/529/529 528/528/528
f 490/490/490 491/491/491 529/529/529
f 491/491/491 530/530/530 529/529/529
f 491/491/491 492/492/492 530/530/530
f 492/492/492 531/531/531 530/530/530
f 492/492/492 493/493/493 531/531/531
f 493/493/493 532/532/532 531/531/531
f 493/493/493 494/494/494 532/532/532
f 496/496/496 533/533/533 534/534/534
f 496/496/496 495/495/495 533/533/533
f 495/495/495 535/535/535 533/533/533
f 495/495/495 497/497/497 535/535/535
f 497/497/497 536/536/536 535/535/535
f 497/497/497 498/498/498 536/536/536
f 498/498/498 537/537/537 536/536/536
f 498/498/498 499/499/499 537/537/537
f 499/499/499 538/538/538 537/537/537
f 499/499/499 500/500/500 538/538/538
f 500/500/500 539/539/539 538/538/538
f 500/500/500 501/501/501 539/539/539
f 501/501/501 540/540/540 539/539/539
f 501/501/501 502/502/502 540/540/540
f 502/502/502 541/541/541 540/540/540
f 502/502/502 503/503/503 541/541/541
f 503/503/503 542/542/542 541/541/541
f 503/503/503 504/504/504 542/542/542
f 504/504/504 543/543/543 542/542/542
f 504/504/504 505/505/505 543/543/543
f 505/505/505 544/544/544 543/543/543
f 505/505/505 506/506/506 544/544/544
f 506/506/506 545/545/545 544/544/544
f 506/506/506 507/507/507 545/545/545
f 507/507/507 546/546/546 545/545/545
f 507/507/507 508/508/508 546/546/546
f 508/508/508 547/547/547 546/546/546
f 508/508/508 509/509/509 547/547/547
f 509/509/509 548/548/548 547/547/547
f 509/509/509 510/510/510 548/548/548
f 510/510/510 549/549/549 548/548/548
f 510/510/510 511/511/511 549/549/549
f 511/511/511 550/550/550 549/549/549
f 511/511/511 512/512/512 550/550/550
f 512/512/512 551/551/551 550/550/550
f 512/512/512 513/513/513 551/551/551
f 515/515/515 552/552/552 553/553/553
f 515/515/515 514/514/514 552/552/552
f 514/514/514 554/554/554 552/552/552
f 514/514/514 516/516/516 554/554/554
f 516/516/516 555/555/555 554/554/554
f 516/516/516 517/517/517 555/555/555
f 517/517/517 556/556/556 555/555/555
f 517/517/517 518/518/518 556/556/556
f 518/518/518 557/557/557 556/556/556
f 518/518/518 519/519/519 557/557/557
f 519/519/519 558/558/558 557/557/557
f 519/519/519 520/520/520 558/558/558
f 520/520/520 559/559/559 558/558/558
f 520/520/520 521/521/521 559/559/559
f 521/521/521 560/560/560 559/559/559
f 521/521/521 522/522/522 560/560/560
f 522/522/522 561/561/561 560/560/560
f 522/522/522 523/523/523 561/561/561
f 523/523/523 562/562/562 561/561/561
f 523/523/523 524/524/524 562/562/562
f 524/524/524 563/563/563 562/562/562
f 524/524/524 525/525/525 563/563/563
f 525/525/525 564/564/564 563/563/563
f 525/525/525 526/526/526 564/564/564
f 526/526/526 565/565/565 564/564/564
f 526/526/526 527/527/527 565/565/565
f 527/527/527 566/566/566 565/565/565
f 527/527/527 528/528/528 566/566/566
f 528/528/528 567/567/567 566/566/566
f 528/528/528 529/529/529 567/567/567
f 529/529/529 568/568/568 567/567/567
f 529/529/529 530/530/530 568/568/568
f 530/530/530 569/569/569 568/568/568
f 530/530/530 531/531/531 569/569/569
f 531/531/531 570/570/570 569/569/569
f 531/531/531 532/532/532 570/570/570
f 534/534/534 571/571/571 572/572/572
f 534/534/534 533/533/533 571/571/571
f 533/533/533 573/573/573 571/571/571
f 533/533/533 535/535/535 573/573/573
f 535/535/535 574/574/574 573/573/573
f 535/535/535 536/536/536 574/574/574
f 536/536/536 575/575/575 574/574/574
f 536/536/536 537/537/537 575/575/575
f 537/537/537 576/576/576 575/575/575
f 537/537/537 538/538/538 576/576/576
f 538/538/538 577/577/577 576/576/576
f 538/538/538 539/539/539 577/577/577
f 539/539/539 578/578/578 577/577/577
f 539/539/539 540/540/540 578/578/578
f 540/540/540 579/579/579 578/578/578
f 540/540/540 541/541/541 579/579/579
f 541/541/541 580/580/580 579/579/579
f 541/541/541 542/542/542 580/580/580
f 542/542/542 581/581/581 580/580/580
f 542/542/542 543/543/543 581/581/581
f 543/543/543 582/582/582 581/581/581
f 543/543/543 544/544/544 582/582/582
f 544/544/544 583/583/583 582/582/582
f 544/544/544 545/545/545 583/583/583
f 545/545/545 584/584/584 583/583/583
f 545/545/545 546/546/546 584/584/584
f 546/546/546 585/585/585 584/584/584
f 546/546/546 547/547/547 585/585/585
f 547/547/547 586/586/586 585/585/585
f 547/547/547 548/548/548 586/586/586
f 548/548/548 587/587/587 586/586/586
f 548/548/548 549/549/549 587/587/587
f 549/549/549 588/588/588 587/587/587
f 549/549/549 550/550/550 588/588/588
f 550/550/550 589/589/589 588/588/588
f 550/550/550 551/551/551 589/589/589
f 553/553/553 590/590/590 591/591/591
f 553/553/553 552/552/552 590/590/590
f 552/552/552 592/592/592 590/590/590
f 552/552/552 554/554/554 592/592/592
f 554/554/554 593/593/593 592/592/592
f 554/554/554 555/555/555 593/593/593
f 555/555/555 594/594/594 593/593/593
f 555/555/555 556/556/556 594/594/594
f 556/556/556 595/595/595 594/594/594
f 556/556/556 557/557/557 595/595/595
f 557/557/557 596/596/596 595/595/595
f 557/557/557 558/558/558 596/596/596
f 558/558/558 597/597/597 596/596/596
f 558/558/558 559/559/559 597/597/597
f 559/559/559 598/598/598 597/597/597
f 559/559/559 560/560/560 598/598/598
f 560/560/560 599/599/599 598/598/598
f 560/560/560 561/561/561 599/599/599
f 561/561/561 600/600/600 599/599/599
f 561/561/561 562/562/562 600/600/600
f 562/562/562 601/601/601 600/600/600
f 562/562/562 563/563/563 601/601/601
f 563/563/563 602/602/602 601/601/601
f 563/563/563 564/564/564 602/602/602
f 564/564/564 603/603/603 602/602/602
f 564/564/564 565/565/565 603/603/603
f 565/565/565 604/604/604 603/603/603
f 565/565/565 566/566/566 604/604/604
f 566/566/566 605/605/605 604/604/604
f 566/566/566 567/567/567 605/605/605
f 567/567/567 606/606/606 605/605/605
f 567/567/567 568/568/568 606/606/606
f 568/568/568 607/607/607 606/606/606
f 568/568/568 569/569/569 607/607/607
f 569/569/569 608/608/608 607/607/607
f 569/569/569 570/570/570 608/608/608
f 572/572/572 609/609/609 610/610/610
f 572/572/572 571/571/571 609/609/609
f 571/571/571 611/611/611 609/609/609
f 571/571/571 573/573/573 611/611/611
f 573/573/573 612/612/612 611/611/611
f 573/573/573 574/574/574 612/612/612
f 574/574/574 613/613/613 612/612/612
f 574/574/574 575/575/575 613/613/613
f 575/575/575 614/614/614 613/613/613
f 575/575/575 576/576/576 614/614/614
f 576/576/576 615/615/615 614/614/614
f 576/576/576 577/577/577 615/615/615
f 577/577/577 616/616/616 615/615/615
f 577/577/577 578/578/578 616/616/616
f 578/578/578 617/617/617 616/616/616
f 578/578/578 579/579/579 617/617/617
f 579/579/579 618/618/618 617/617/617
f 579/579/579 580/580/580 618/618/618
f 580/580/580 619/619/619 618/618/618
f 580/580/580 581/581/581 619/619/619
f 581/581/581 620/620/620 619/619/619
f 581/581/581 582/582/582 620/620/620
f 582/582/582 621/621/621 620/620/620
f 582/582/582 583/583/583 621/621/621
f 583/583/583 622/622/622 621/621/621
f 583/583/583 584/584/584 622/622/622
f 584/584/584 623/623/623 622/622/622
f 584/584/584 585/585/585 623/623/623
f 585/585/585 624/624/624 623/623/623
f 585/585/585 586/586/586 624/624/624
f 586/586/586 625/625/625 624/624/624
f 586/586/586 587/587/587 625/625/625
f 587/587/587 626/626/626 625/625/625
f 587/587/587 588/588/588 626/626/626
f 588/588/588 627/627/627 626/626/626
f 588/588/588 589/589/589 627/627/627
f 591/591/591 628/628/628 629/629/629
f 591/591/591 590/590/590 628/628/628
f 590/590/590 630/630/630 628/628/628
f 590/590/590 592/592/592 630/630/630
f 592/592/592 631/631/631 630/630/630
f 592/592/592 593/593/593 631/631/631
f 593/593/593 632/632/632 631/631/631
f 593/593/593 594/594/594 632/632/632
f 594/594/594 633/633/633 632/632/632
f 594/594/594 595/595/595 633/633/633
f 595/595/595 634/634/634 633/633/633
f 595/595/595 596/596/596 634/634/634
f 596/596/596 635/635/635 634/634/634
f 596/596/596 597/597/597 635/635/635
f 597/597/597 636/636/636 635/635/635
f 597/597/597 598/598/598 636/636/636
f 598/598/598 637/637/637 636/636/636
f 598/598/598 599/599/599 637/637/637
f 599/599/599 638/638/638 637/637/637
f 599/599/599 600/600/600 638/638/638
f 600/600/600 639/639/639 638/638/638
f 600/600/600 601/601/601 639/639/639
f 601/601/601 640/640/640 639/639/639
f 601/601/601 602/602/602 640/640/640
f 602/602/602 641/641/641 640/640/640
f 602/602/602 603/603/603 641/641/641
f 603/603/603 642/642/642 641/641/641
f 603/603/603 604/604/604 642/642/642
f 604/604/604 643/643/643 642/642/642
f 604/604/604 605/605/605 643/643/643
f 605/605/605 644/644/644 643/643/643
f 605/605/605 606/606/606 644/644/644
f 606/606/606 645/645/645 644/644/644
f 606/606/606 607/607/607 645/645/645
f 607/607/607 646/646/646 645/645/645
f 607/607/607 608/608/608 646/646/646
f 610/610/610 647/647/647 648/648/648
f 610/610/610 609/609/609 647/647/647
f 609/609/609 649/649/649 647/647/647
f 609/609/609 611/611/611 649/649/649
f 611/611/611 650/650/650 649/649/649
f 611/611/611 612/612/612 650/650/650
f 612/612/612 651/651/651 650/650/650
f 612/612/612 613/613/613 651/651/651
f 613/613/613 652/652/652 651/651/651
f 613/613/613 614/614/614 652/652/652
f 614/614/614 653/653/653 652/652/652
f 614/614/614 615/615/615 653/653/653
f 615/615/615 654/654/654 653/653/653
f 615/615/615 616/616/616 654/654/654
f 616/616/616 655/655/655 654/654/654
f 616/616/616 617/617/617 655/655/655
f 617/617/617 656/656/656 655/655/655
f 617/617/617 618/618/618 656/656/656
f 618/618/618 657/657/657 656/656/656
f 618/618/618 619/619/619 657/657/657
f 619/619/619 658/658/658 657/657/657
f 619/619/619 620/620/620 658/658/658
f 620/620/620 659/659/659 658/658/658
f 620/620/620 621/621/621 659/659/659
f 621/621/621 660/660/660 659/659/659
f 621/621/621 622/622/622 660/660/660
f 622/622/622 661/661/661 660/660/660
f 622/622/622 623/623/623 661/661/661
f 623/623/623 662/662/662 661/661/661
f 623/623/623 624/624/624 662/662/662
f 624/624/624 663/663/663 662/662/662
f 624/624/624 625/625/625 663/663/663
f 625/625/625 664/664/664 663/663/663
f 625/625/625 626/626/626 664/664/664
f 626/626/626 665/665/665 664/664/664
f 626/626/626 627/627/627 665/665/665
f 629/629/629 666/666/666 667/667/667
f 629/629/629 628/628/628 666/666/666
f 628/628/628 668/668/668 666/666/666
f 628/628/628 630/630/630 668/668/668
f 630/630/630 669/669/669 668/668/668
f 630/630/630 631/631/631 669/669/669
f 631/631/631 670/670/670 669/669/669
f 631/631/631 632/632/632 670/670/670
f 632/632/632 671/671/671 670/670/670
f 632/632/632 633/633/633 671/671/671
f 633/633/633 672/672/672 671/671/671
f 633/633/633 634/634/634 672/672/672
f 634/634/634 673/673/673 672/672/672
f 634/634/634 635/635/635 673/673/673
f 635/635/635 674/674/674 673/673/673
f 635/635/635 636/636/636 674/674/674
f 636/636/636 675/675/675 674/674/674
f 636/636/636 637/637/637 675/675/675
f 637/637/637 676/676/676 675/675/675
f 637/637/637 638/638/638 676/676/676
f 638/638/638 677/677/677 676/676/676
f 638/638/638 639/639/639 677/677/677
f 639/639/639 678/678/678 677/677/677
f 639/639/639 640/640/640 678/678/678
f 640/640/640 679/679/679 678/678/678
f 640/640/640 641/641/641 679/679/679
f 641/641/641 680/680/680 679/679/679
f 641/641/641 642/642/642 680/680/680
f 642/642/642 681/681/681 680/680/680
f 642/642/642 643/643/643 681/681/681
f 643/643/643 682/682/682 681/681/681
f 643/643/643 644/644/644 682/682/682
f 644/644/644 683/683/683 682/682/682
f 644/644/644 645/645/645 683/683/683
f 645/645/645 684/684/684 683/683/683
f 645/645/645 646/646/646 684/684/684
f 648/648/648 4/4/4 1/1/1
f 648/648/648 647/647/647 4/4/4
f 647/647/647 6/6/6 4/4/4
f 647/647/647 649/649/649 6/6/6
f 649/649/649 8/8/8 6/6/6
f 649/649/649 650/650/650 8/8/8
f 650/650/650 10/10/10 8/8/8
f 650/650/650 651/651/651 10/10/10
f 651/651/651 12/12/12 10/10/10
f 651/651/651 652/652/652 12/12/12
f 652/652/652 14/14/14 12/12/12
f 652/652/652 653/653/653 14/14/14
f 653/653/653 16/16/16 14/14/14
f 653/653/653 654/654/654 16/16/16
f 654/654/654 18/18/18 16/16/16
f 654/654/654 655/655/655 18/18/18
f 655/655/655 20/20/20 18/18/18
f 655/655/655 656/656/656 20/20/20
f 656/656/656 22/22/22 20/20/20
f 656/656/656 657/657/657 22/22/22
f 657/657/657 24/24/24 22/22/22
f 657/657/657 658/658/658 24/24/24
f 658/658/658 26/26/26 24/24/24
f 658/658/658 659/659/659 26/26/26
f 659/659/659 28/28/28 26/26/26
f 659/659/659 660/660/660 28/28/28
f 660/660/660 30/30/30 28/28/28
f 660/660/660 661/661/661 30/30/30
f 661/661/661 32/32/32 30/30/30
f 661/661/661 662/662/662 32/32/32
f 662/662/662 34/34/34 32/32/32
f 662/662/662 663/663/663 34/34/34
f 663/663/663 36/36/36 34/34/34
f 663/663/663 664/664/664 36/36/36
f 664/664/664 38/38/38 36/36/36
f 664/664/664 665/665/665 38/38/38
f 667/667/667 42/42/42 39/39/39
f 667/667/667 666/666/666 42/42/42
f 666/666/666 44/44/44 42/42/42
f 666/666/666 668/668/668 44/44/44
f 668/668/668 46/46/46 44/44/44
f 668/668/668 669/669/669 46/46/46
f 669/669/669 48/48/48 46/46/46
f 669/669/669 670/670/670 48/48/48
f 670/670/670 50/50/50 48/48/48
f 670/670/670 671/671/671 50/50/50
f 671/671/671 52/52/52 50/50/50
f 671/671/671 672/672/672 52/52/52
f 672/672/672 54/54/54 52/52/52
f 672/672/672 673/673/673 54/54/54
f 673/673/673 56/56/56 54/54/54
f 673/673/673 674/674/674 56/56/56
f 674/674/674 58/58/58 56/56/56
f 674/674/674 675/675/675 58/58/58
f 675/675/675 60/60/60 58/58/58
f 675/675/675 676/676/676 60/60/60
f 676/676/676 62/62/62 60/60/60
f 676/676/676 677/677/677 62/62/62
f 677/677/677 64/64/64 62/62/62
f 677/677/677 678/678/678 64/64/64
f 678/678/678 66/66/66 64/64/64
f 678/678/678 679/679/679 66/66/66
f 679/679/679 68/68/68 66/66/66
f 679/679/679 680/680/680 68/68/68
f 680/680/680 70/70/70 68/68/68
f 680/680/680 681/681/681 70/70/70
f 681/681/681 72/72/72 70/70/70
f 681/681/681 682/682/682 72/72/72
f 682/682/682 74/74/74 72/72/72
f 682/682/682 683/683/683 74/74/74
f 683/683/683 76/76/76 74/74/74
f 683/683/683 684/684/684 76/76/76
f 685/685/685 686/686/686 687/687/687
f 685/685/685 688/688/688 686/686/686
f 689/689/689 690/690/690 691/691/691
f 689/689/689 692/692/692 690/690/690
f 687/687/687 693/693/693 694/694/694
f 687/687/687 686/686/686 693/693/693
f 691/691/691 695/695/695 696/696/696
f 691/691/691 690/690/690 695/695/695
f 694/694/694 697/697/697 698/698/698
f 694/694/694 693/693/693 697/697/697
f 696/696/696 699/699/699 700/700/700
f 696/696/696 695/695/695 699/699/699
f 698/698/698 701/701/701 702/702/702
f 698/698/698 697/697/697 701/701/701
f 700/700/700 703/703/703 704/704/704
f 700/700/700 699/699/699 703/703/703
f 702/702/702 705/705/705 706/706/706
f 702/702/702 701/701/701 705/705/705
f 704/704/704 707/707/707 708/708/708
f 704/704/704 703/703/703 707/707/707
f 706/706/706 709/709/709 710/710/710
f 706/706/706 705/705/705 709/709/709
f 708/708/708 711/711/711 712/712/712
f 708/708/708 707/707/707 711/711/711
f 710/710/710 713/713/713 714/714/714
f 710/710/710 709/709/709 713/713/713
f 712/712/712 715/715/715 716/716/716
f 712/712/712 711/711/711 715/715/715
f 714/714/714 717/717/717 718/718/718
f 714/714/714 713/713/713 717/717/717
f 716/716/716 719/719/719 720/720/720
f 716/716/716 715/715/715 719/719/719
f 718/718/718 721/721/721 722/722/722
f 718/718/718 717/717/717 721/721/721
f 720/720/720 723/723/723 724/724/724
f 720/720/720 719/719/719 723/723/723
f 722/722/722 725/725/725 726/726/726
f 722/722/722 721/721/721 725/725/725
f 724/724/724 727/727/727 728/728/728
f 724/724/724 723/723/723 727/727/727
f 726/726/726 729/729/729 730/730/730
f 726/726/726 725/725/725 729/729/729
f 728/728/728 731/731/731 732/732/732
f 728/728/728 727/727/727 731/731/731
f 730/730/730 733/733/733 734/734/734
f 730/730/730 729/729/729 733/733/733
f 732/732/732 735/735/735 736/736/736
f 732/732/732 731/731/731 735/735/735
f 734/734/734 737/737/737 738/738/738
f 734/734/734 733/733/733 737/737/737
f 736/736/736 739/739/739 740/740/740
f 736/736/736 735/735/735 739/739/739
f 738/738/738 741/741/741 742/742/742
f 738/738/738 737/737/737 741/741/741
f 740/740/740 743/743/743 744/744/744
f 740/740/740 739/739/739 743/743/743
f 742/742/742 745/745/745 746/746/746
f 742/742/742 741/741/741 745/745/745
f 744/744/744 747/747/747 748/748/748
f 744/744/744 743/743/743 747/747/747
f 746/746/746 749/749/749 750/750/750
f 746/746/746 745/745/745 749/749/749
f 748/748/748 751/751/751 752/752/752
f 748/748/748 747/747/747 751/751/751
f 750/750/750 753/753/753 754/754/754
f 750/750/750 749/749/749 753/753/753
f 752/752/752 755/755/755 756/756/756
f 752/752/752 751/751/751 755/755/755
f 754/754/754 688/688/688 685/685/685
f 754/754/754 753/753/753 688/688/688
f 756/756/756 692/692/692 689/689/689
f 756/756/756 755/755/755 692/692/692
# 1368 faces

