v -0.012823 0.569639 0.000000
v 0.123367 0.553720 -0.000000
v 0.119696 0.553720 -0.031408
v -0.012823 0.569639 0.000000
v 0.108881 0.553720 -0.061122
v -0.012823 0.569639 0.000000
v 0.091505 0.553720 -0.087542
v -0.012823 0.569639 0.000000
v 0.068504 0.553720 -0.109242
v -0.012823 0.569639 0.000000
v 0.041119 0.553720 -0.125052
v -0.012823 0.569639 0.000000
v 0.010826 0.553720 -0.134121
v -0.012823 0.569639 0.000000
v -0.020742 0.553720 -0.135960
v -0.012823 0.569639 0.000000
v -0.051883 0.553720 -0.130469
v -0.012823 0.569639 0.000000
v -0.080919 0.553720 -0.117944
v -0.012823 0.569639 0.000000
v -0.106283 0.553720 -0.099061
v -0.012823 0.569639 0.000000
v -0.126609 0.553720 -0.074838
v -0.012823 0.569639 0.000000
v -0.140801 0.553720 -0.046580
v -0.012823 0.569639 0.000000
v -0.148093 0.553720 -0.015811
v -0.012823 0.569639 0.000000
v -0.148093 0.553720 0.015811
v -0.012823 0.569639 0.000000
v -0.140801 0.553720 0.046580
v -0.012823 0.569639 0.000000
v -0.126609 0.553720 0.074838
v -0.012823 0.569639 0.000000
v -0.106283 0.553720 0.099061
v -0.012823 0.569639 0.000000
v -0.080919 0.553720 0.117944
v -0.012823 0.569639 0.000000
v -0.051883 0.553720 0.130469
v -0.012823 0.569639 0.000000
v -0.020742 0.553720 0.135960
v -0.012823 0.569639 0.000000
v 0.010826 0.553720 0.134121
v -0.012823 0.569639 0.000000
v 0.041119 0.553720 0.125052
v -0.012823 0.569639 0.000000
v 0.068504 0.553720 0.109242
v -0.012823 0.569639 0.000000
v 0.091505 0.553720 0.087542
v -0.012823 0.569639 0.000000
v 0.108881 0.553720 0.061122
v -0.012823 0.569639 0.000000
v 0.119696 0.553720 0.031408
v -0.012823 0.569639 0.000000
v 0.123367 0.553720 -0.000000
v 0.252215 0.506823 -0.000000
v 0.245071 0.506823 -0.061122
v 0.224024 0.506823 -0.118949
v 0.190208 0.506823 -0.170364
v 0.145447 0.506823 -0.212594
v 0.092153 0.506823 -0.243363
v 0.033200 0.506823 -0.261012
v -0.028234 0.506823 -0.264590
v -0.088837 0.506823 -0.253904
v -0.145343 0.506823 -0.229530
v -0.194704 0.506823 -0.192782
v -0.234260 0.506823 -0.145641
v -0.261878 0.506823 -0.090649
v -0.276070 0.506823 -0.030769
v -0.276070 0.506823 0.030769
v -0.261878 0.506823 0.090649
v -0.234260 0.506823 0.145641
v -0.194704 0.506823 0.192782
v -0.145343 0.506823 0.229530
v -0.088837 0.506823 0.253904
v -0.028234 0.506823 0.264590
v 0.033200 0.506823 0.261012
v 0.092153 0.506823 0.243363
v 0.145447 0.506823 0.212594
v 0.190208 0.506823 0.170364
v 0.224024 0.506823 0.118949
v 0.245071 0.506823 0.061122
v 0.252215 0.506823 -0.000000
v 0.366775 0.431476 -0.000000
v 0.356543 0.431476 -0.087542
v 0.326399 0.431476 -0.170364
v 0.277966 0.431476 -0.244001
v 0.213857 0.431476 -0.304485
v 0.137528 0.431476 -0.348554
v 0.053093 0.431476 -0.373832
v -0.034895 0.431476 -0.378957
v -0.121694 0.431476 -0.363652
v -0.202623 0.431476 -0.328742
v -0.273320 0.431476 -0.276110
v -0.329974 0.431476 -0.208593
v -0.369530 0.431476 -0.129830
v -0.389856 0.431476 -0.044069
v -0.389856 0.431476 0.044069
v -0.369530 0.431476 0.129830
v -0.329974 0.431476 0.208593
v -0.273320 0.431476 0.276110
v -0.202623 0.431476 0.328742
v -0.121694 0.431476 0.363652
v -0.034895 0.431476 0.378957
v 0.053093 0.431476 0.373832
v 0.137528 0.431476 0.348554
v 0.213857 0.431476 0.304485
v 0.277966 0.431476 0.244001
v 0.326399 0.431476 0.170364
v 0.356543 0.431476 0.087541
v 0.366775 0.431476 -0.000000
v 0.460871 0.331740 -0.000000
v 0.448103 0.331740 -0.109242
v 0.410486 0.331740 -0.212594
v 0.350048 0.331740 -0.304485
v 0.270047 0.331740 -0.379961
v 0.174797 0.331740 -0.434954
v 0.069433 0.331740 -0.466498
v -0.040366 0.331740 -0.472893
v -0.148681 0.331740 -0.453794
v -0.249671 0.331740 -0.410232
v -0.337892 0.331740 -0.344553
v -0.408590 0.331740 -0.260299
v -0.457951 0.331740 -0.162013
v -0.483315 0.331740 -0.054993
v -0.483315 0.331740 0.054993
v -0.457951 0.331740 0.162013
v -0.408590 0.331740 0.260299
v -0.337892 0.331740 0.344553
v -0.249671 0.331740 0.410232
v -0.148681 0.331740 0.453794
v -0.040366 0.331740 0.472893
v 0.069433 0.331740 0.466498
v 0.174798 0.331740 0.434954
v 0.270048 0.331740 0.379961
v 0.350048 0.331740 0.304485
v 0.410486 0.331740 0.212594
v 0.448103 0.331740 0.109241
v 0.460871 0.331740 -0.000000
v 0.529430 0.212993 -0.000000
v 0.514814 0.212993 -0.125052
v 0.471752 0.212993 -0.243363
v 0.402567 0.212993 -0.348554
v 0.310988 0.212993 -0.434954
v 0.201952 0.212993 -0.497906
v 0.081338 0.212993 -0.534015
v -0.044353 0.212993 -0.541336
v -0.168343 0.212993 -0.519473
v -0.283950 0.212993 -0.469605
v -0.384940 0.212993 -0.394421
v -0.465870 0.212993 -0.297973
v -0.522375 0.212993 -0.185462
v -0.551410 0.212993 -0.062952
v -0.551410 0.212993 0.062952
v -0.522375 0.212993 0.185462
v -0.465870 0.212993 0.297973
v -0.384940 0.212993 0.394421
v -0.283950 0.212993 0.469605
v -0.168343 0.212993 0.519473
v -0.044353 0.212993 0.541336
v 0.081338 0.212993 0.534015
v 0.201952 0.212993 0.497906
v 0.310988 0.212993 0.434954
v 0.402567 0.212993 0.348554
v 0.471752 0.212993 0.243363
v 0.514814 0.212993 0.125052
v 0.529430 0.212993 -0.000000
v 0.568756 0.081636 -0.000000
v 0.553079 0.081636 -0.134121
v 0.506895 0.081636 -0.261012
v 0.432692 0.081636 -0.373832
v 0.334472 0.081636 -0.466498
v 0.217528 0.081636 -0.534015
v 0.088167 0.081636 -0.572744
v -0.046639 0.081636 -0.580595
v -0.179622 0.081636 -0.557147
v -0.303613 0.081636 -0.503662
v -0.411927 0.081636 -0.423025
v -0.498726 0.081636 -0.319583
v -0.559329 0.081636 -0.198912
v -0.590470 0.081636 -0.067517
v -0.590470 0.081636 0.067517
v -0.559329 0.081636 0.198912
v -0.498726 0.081636 0.319583
v -0.411927 0.081636 0.423025
v -0.303613 0.081636 0.503662
v -0.179622 0.081636 0.557147
v -0.046639 0.081636 0.580595
v 0.088167 0.081636 0.572744
v 0.217528 0.081636 0.534015
v 0.334472 0.081636 0.466498
v 0.432692 0.081636 0.373832
v 0.506895 0.081636 0.261012
v 0.553079 0.081636 0.134121
v 0.568756 0.081636 -0.000000
v 0.576729 -0.055250 -0.000000
v 0.560837 -0.055250 -0.135960
v 0.514019 -0.055250 -0.264590
v 0.438800 -0.055250 -0.378957
v 0.339233 -0.055250 -0.472893
v 0.220686 -0.055250 -0.541336
v 0.089551 -0.055250 -0.580595
v -0.047103 -0.055250 -0.588554
v -0.181909 -0.055250 -0.564784
v -0.307599 -0.055250 -0.510567
v -0.417399 -0.055250 -0.428824
v -0.505387 -0.055250 -0.323964
v -0.566821 -0.055250 -0.201639
v -0.598389 -0.055250 -0.068443
v -0.598389 -0.055250 0.068443
v -0.566821 -0.055250 0.201639
v -0.505387 -0.055250 0.323964
v -0.417398 -0.055250 0.428825
v -0.307599 -0.055250 0.510567
v -0.181909 -0.055250 0.564785
v -0.047103 -0.055250 0.588554
v 0.089551 -0.055250 0.580595
v 0.220686 -0.055250 0.541336
v 0.339233 -0.055250 0.472893
v 0.438800 -0.055250 0.378957
v 0.514020 -0.055250 0.264590
v 0.560837 -0.055250 0.135960
v 0.576729 -0.055250 -0.000000
v 0.552918 -0.190284 -0.000000
v 0.537669 -0.190284 -0.130469
v 0.492742 -0.190284 -0.253904
v 0.420560 -0.190284 -0.363652
v 0.325014 -0.190284 -0.453794
v 0.211255 -0.190284 -0.519473
v 0.085417 -0.190284 -0.557147
v -0.045718 -0.190284 -0.564784
v -0.175080 -0.190284 -0.541974
v -0.295694 -0.190284 -0.489947
v -0.401059 -0.190284 -0.411506
v -0.485494 -0.190284 -0.310880
v -0.544447 -0.190284 -0.193495
v -0.574740 -0.190284 -0.065679
v -0.574740 -0.190284 0.065679
v -0.544447 -0.190284 0.193495
v -0.485494 -0.190284 0.310880
v -0.401059 -0.190284 0.411506
v -0.295694 -0.190284 0.489947
v -0.175080 -0.190284 0.541975
v -0.045718 -0.190284 0.564784
v 0.085417 -0.190284 0.557147
v 0.211255 -0.190284 0.519473
v 0.325014 -0.190284 0.453794
v 0.420560 -0.190284 0.363652
v 0.492742 -0.190284 0.253904
v 0.537669 -0.190284 0.130469
v 0.552918 -0.190284 -0.000000
v 0.498609 -0.316188 -0.000000
v 0.484823 -0.316188 -0.117944
v 0.444209 -0.316188 -0.229530
v 0.378956 -0.316188 -0.328742
v 0.292583 -0.316188 -0.410232
v 0.189745 -0.316188 -0.469605
v 0.075986 -0.316188 -0.503662
v -0.042561 -0.316188 -0.510567
v -0.159504 -0.316188 -0.489947
v -0.268540 -0.316188 -0.442913
v -0.363790 -0.316188 -0.372002
v -0.440119 -0.316188 -0.281037
v -0.493412 -0.316188 -0.174920
v -0.520797 -0.316188 -0.059374
v -0.520797 -0.316188 0.059374
v -0.493412 -0.316188 0.174920
v -0.440119 -0.316188 0.281037
v -0.363789 -0.316188 0.372002
v -0.268539 -0.316188 0.442913
v -0.159504 -0.316188 0.489947
v -0.042560 -0.316188 0.510567
v 0.075986 -0.316188 0.503662
v 0.189745 -0.316188 0.469605
v 0.292583 -0.316188 0.410232
v 0.378956 -0.316188 0.328742
v 0.444209 -0.316188 0.229530
v 0.484823 -0.316188 0.117944
v 0.498609 -0.316188 -0.000000
v 0.416728 -0.426173 -0.000000
v 0.405149 -0.426173 -0.099061
v 0.371038 -0.426173 -0.192782
v 0.316232 -0.426173 -0.276110
v 0.243687 -0.426173 -0.344553
v 0.157313 -0.426173 -0.394421
v 0.061767 -0.426173 -0.423025
v -0.037800 -0.426173 -0.428824
v -0.136020 -0.426173 -0.411506
v -0.227599 -0.426173 -0.372002
v -0.307599 -0.426173 -0.312444
v -0.371708 -0.426173 -0.236042
v -0.416470 -0.426173 -0.146915
v -0.439470 -0.426173 -0.049868
v -0.439470 -0.426173 0.049868
v -0.416470 -0.426173 0.146915
v -0.371708 -0.426173 0.236042
v -0.307599 -0.426173 0.312444
v -0.227599 -0.426173 0.372002
v -0.136020 -0.426173 0.411506
v -0.037800 -0.426173 0.428824
v 0.061767 -0.426173 0.423025
v 0.157313 -0.426173 0.394421
v 0.243687 -0.426173 0.344553
v 0.316232 -0.426173 0.276110
v 0.371038 -0.426173 0.192782
v 0.405149 -0.426173 0.099061
v 0.416728 -0.426173 -0.000000
v 0.311690 -0.514311 -0.000000
v 0.302942 -0.514311 -0.074838
v 0.277172 -0.514311 -0.145641
v 0.235768 -0.514311 -0.208593
v 0.180962 -0.514311 -0.260299
v 0.115710 -0.514311 -0.297973
v 0.043528 -0.514311 -0.319583
v -0.031692 -0.514311 -0.323964
v -0.105895 -0.514311 -0.310880
v -0.175080 -0.514311 -0.281037
v -0.235518 -0.514311 -0.236042
v -0.283950 -0.514311 -0.178323
v -0.317766 -0.514311 -0.110990
v -0.335142 -0.514311 -0.037674
v -0.335142 -0.514311 0.037674
v -0.317766 -0.514311 0.110990
v -0.283950 -0.514311 0.178323
v -0.235518 -0.514311 0.236042
v -0.175080 -0.514311 0.281037
v -0.105895 -0.514311 0.310880
v -0.031692 -0.514311 0.323964
v 0.043528 -0.514311 0.319583
v 0.115710 -0.514311 0.297973
v 0.180962 -0.514311 0.260299
v 0.235768 -0.514311 0.208593
v 0.277172 -0.514311 0.145641
v 0.302942 -0.514311 0.074838
v 0.311690 -0.514311 -0.000000
v 0.189157 -0.575849 -0.000000
v 0.183713 -0.575849 -0.046580
v 0.167673 -0.575849 -0.090649
v 0.141903 -0.575849 -0.129830
v 0.107791 -0.575849 -0.162013
v 0.067177 -0.575849 -0.185462
v 0.022250 -0.575849 -0.198912
v -0.024568 -0.575849 -0.201639
v -0.070752 -0.575849 -0.193495
v -0.113814 -0.575849 -0.174920
v -0.151431 -0.575849 -0.146915
v -0.181576 -0.575849 -0.110990
v -0.202623 -0.575849 -0.069081
v -0.213438 -0.575849 -0.023448
v -0.213438 -0.575849 0.023448
v -0.202623 -0.575849 0.069081
v -0.181576 -0.575849 0.110990
v -0.151431 -0.575849 0.146915
v -0.113814 -0.575849 0.174920
v -0.070752 -0.575849 0.193495
v -0.024567 -0.575849 0.201639
v 0.022250 -0.575849 0.198912
v 0.067177 -0.575849 0.185462
v 0.107791 -0.575849 0.162013
v 0.141903 -0.575849 0.129830
v 0.167673 -0.575849 0.090649
v 0.183713 -0.575849 0.046580
v 0.189157 -0.575849 -0.000000
v -0.012823 -0.611463 0.000000
v -0.012823 -0.611463 0.000000
v -0.012823 -0.611463 0.000000
v -0.012823 -0.611463 0.000000
v -0.012823 -0.611463 0.000000
v -0.012823 -0.611463 0.000000
v -0.012823 -0.611463 0.000000
v -0.012823 -0.611463 0.000000
v -0.012823 -0.611463 0.000000
v -0.012823 -0.611463 0.000000
v -0.012823 -0.611463 0.000000
v -0.012823 -0.611463 0.000000
v -0.012823 -0.611463 0.000000
v -0.012823 -0.611463 0.000000
v -0.012823 -0.611463 0.000000
v -0.012823 -0.611463 0.000000
v -0.012823 -0.611463 0.000000
v -0.012823 -0.611463 0.000000
v -0.012823 -0.611463 0.000000
v -0.012823 -0.611463 0.000000
v -0.012823 -0.611463 0.000000
v -0.012823 -0.611463 0.000000
v -0.012823 -0.611463 0.000000
v -0.012823 -0.611463 0.000000
v -0.012823 -0.611463 0.000000
v -0.012823 -0.611463 0.000000
v -0.012823 -0.611463 0.000000
# 390 vertices

vt 0.000000 0.000000
vt 0.000000 0.074074
vt 0.037037 0.074074
vt 0.037037 0.000000
vt 0.074074 0.074074
vt 0.074074 0.000000
vt 0.111111 0.074074
vt 0.111111 0.000000
vt 0.148148 0.074074
vt 0.148148 0.000000
vt 0.185185 0.074074
vt 0.185185 0.000000
vt 0.222222 0.074074
vt 0.222222 0.000000
vt 0.259259 0.074074
vt 0.259259 0.000000
vt 0.296296 0.074074
vt 0.296296 0.000000
vt 0.333333 0.074074
vt 0.333333 0.000000
vt 0.370370 0.074074
vt 0.370370 0.000000
vt 0.407407 0.074074
vt 0.407407 0.000000
vt 0.444444 0.074074
vt 0.444444 0.000000
vt 0.481481 0.074074
vt 0.481481 0.000000
vt 0.518519 0.074074
vt 0.518519 0.000000
vt 0.555556 0.074074
vt 0.555556 0.000000
vt 0.592593 0.074074
vt 0.592593 0.000000
vt 0.629630 0.074074
vt 0.629630 0.000000
vt 0.666667 0.074074
vt 0.666667 0.000000
vt 0.703704 0.074074
vt 0.703704 0.000000
vt 0.740741 0.074074
vt 0.740741 0.000000
vt 0.777778 0.074074
vt 0.777778 0.000000
vt 0.814815 0.074074
vt 0.814815 0.000000
vt 0.851852 0.074074
vt 0.851852 0.000000
vt 0.888889 0.074074
vt 0.888889 0.000000
vt 0.925926 0.074074
vt 0.925926 0.000000
vt 0.962963 0.074074
vt 0.962963 0.000000
vt 1.000000 0.074074
vt 0.000000 0.148148
vt 0.037037 0.148148
vt 0.074074 0.148148
vt 0.111111 0.148148
vt 0.148148 0.148148
vt 0.185185 0.148148
vt 0.222222 0.148148
vt 0.259259 0.148148
vt 0.296296 0.148148
vt 0.333333 0.148148
vt 0.370370 0.148148
vt 0.407407 0.148148
vt 0.444444 0.148148
vt 0.481481 0.148148
vt 0.518519 0.148148
vt 0.555556 0.148148
vt 0.592593 0.148148
vt 0.629630 0.148148
vt 0.666667 0.148148
vt 0.703704 0.148148
vt 0.740741 0.148148
vt 0.777778 0.148148
vt 0.814815 0.148148
vt 0.851852 0.148148
vt 0.888889 0.148148
vt 0.925926 0.148148
vt 0.962963 0.148148
vt 1.000000 0.148148
vt 0.000000 0.222222
vt 0.037037 0.222222
vt 0.074074 0.222222
vt 0.111111 0.222222
vt 0.148148 0.222222
vt 0.185185 0.222222
vt 0.222222 0.222222
vt 0.259259 0.222222
vt 0.296296 0.222222
vt 0.333333 0.222222
vt 0.370370 0.222222
vt 0.407407 0.222222
vt 0.444444 0.222222
vt 0.481481 0.222222
vt 0.518519 0.222222
vt 0.555556 0.222222
vt 0.592593 0.222222
vt 0.629630 0.222222
vt 0.666667 0.222222
vt 0.703704 0.222222
vt 0.740741 0.222222
vt 0.777778 0.222222
vt 0.814815 0.222222
vt 0.851852 0.222222
vt 0.888889 0.222222
vt 0.925926 0.222222
vt 0.962963 0.222222
vt 1.000000 0.222222
vt 0.000000 0.296296
vt 0.037037 0.296296
vt 0.074074 0.296296
vt 0.111111 0.296296
vt 0.148148 0.296296
vt 0.185185 0.296296
vt 0.222222 0.296296
vt 0.259259 0.296296
vt 0.296296 0.296296
vt 0.333333 0.296296
vt 0.370370 0.296296
vt 0.407407 0.296296
vt 0.444444 0.296296
vt 0.481481 0.296296
vt 0.518519 0.296296
vt 0.555556 0.296296
vt 0.592593 0.296296
vt 0.629630 0.296296
vt 0.666667 0.296296
vt 0.703704 0.296296
vt 0.740741 0.296296
vt 0.777778 0.296296
vt 0.814815 0.296296
vt 0.851852 0.296296
vt 0.888889 0.296296
vt 0.925926 0.296296
vt 0.962963 0.296296
vt 1.000000 0.296296
vt 0.000000 0.370370
vt 0.037037 0.370370
vt 0.074074 0.370370
vt 0.111111 0.370370
vt 0.148148 0.370370
vt 0.185185 0.370370
vt 0.222222 0.370370
vt 0.259259 0.370370
vt 0.296296 0.370370
vt 0.333333 0.370370
vt 0.370370 0.370370
vt 0.407407 0.370370
vt 0.444444 0.370370
vt 0.481481 0.370370
vt 0.518519 0.370370
vt 0.555556 0.370370
vt 0.592593 0.370370
vt 0.629630 0.370370
vt 0.666667 0.370370
vt 0.703704 0.370370
vt 0.740741 0.370370
vt 0.777778 0.370370
vt 0.814815 0.370370
vt 0.851852 0.370370
vt 0.888889 0.370370
vt 0.925926 0.370370
vt 0.962963 0.370370
vt 1.000000 0.370370
vt 0.000000 0.444444
vt 0.037037 0.444444
vt 0.074074 0.444444
vt 0.111111 0.444444
vt 0.148148 0.444444
vt 0.185185 0.444444
vt 0.222222 0.444444
vt 0.259259 0.444444
vt 0.296296 0.444444
vt 0.333333 0.444444
vt 0.370370 0.444444
vt 0.407407 0.444444
vt 0.444444 0.444444
vt 0.481481 0.444444
vt 0.518519 0.444444
vt 0.555556 0.444444
vt 0.592593 0.444444
vt 0.629630 0.444444
vt 0.666667 0.444444
vt 0.703704 0.444444
vt 0.740741 0.444444
vt 0.777778 0.444444
vt 0.814815 0.444444
vt 0.851852 0.444444
vt 0.888889 0.444444
vt 0.925926 0.444444
vt 0.962963 0.444444
vt 1.000000 0.444444
vt 0.000000 0.518519
vt 0.037037 0.518519
vt 0.074074 0.518519
vt 0.111111 0.518519
vt 0.148148 0.518519
vt 0.185185 0.518519
vt 0.222222 0.518519
vt 0.259259 0.518519
vt 0.296296 0.518519
vt 0.333333 0.518519
vt 0.370370 0.518519
vt 0.407407 0.518519
vt 0.444444 0.518519
vt 0.481481 0.518519
vt 0.518519 0.518519
vt 0.555556 0.518519
vt 0.592593 0.518519
vt 0.629630 0.518519
vt 0.666667 0.518519
vt 0.703704 0.518519
vt 0.740741 0.518519
vt 0.777778 0.518519
vt 0.814815 0.518519
vt 0.851852 0.518519
vt 0.888889 0.518519
vt 0.925926 0.518519
vt 0.962963 0.518519
vt 1.000000 0.518519
vt 0.000000 0.592593
vt 0.037037 0.592593
vt 0.074074 0.592593
vt 0.111111 0.592593
vt 0.148148 0.592593
vt 0.185185 0.592593
vt 0.222222 0.592593
vt 0.259259 0.592593
vt 0.296296 0.592593
vt 0.333333 0.592593
vt 0.370370 0.592593
vt 0.407407 0.592593
vt 0.444444 0.592593
vt 0.481481 0.592593
vt 0.518519 0.592593
vt 0.555556 0.592593
vt 0.592593 0.592593
vt 0.629630 0.592593
vt 0.666667 0.592593
vt 0.703704 0.592593
vt 0.740741 0.592593
vt 0.777778 0.592593
vt 0.814815 0.592593
vt 0.851852 0.592593
vt 0.888889 0.592593
vt 0.925926 0.592593
vt 0.962963 0.592593
vt 1.000000 0.592593
vt 0.000000 0.666667
vt 0.037037 0.666667
vt 0.074074 0.666667
vt 0.111111 0.666667
vt 0.148148 0.666667
vt 0.185185 0.666667
vt 0.222222 0.666667
vt 0.259259 0.666667
vt 0.296296 0.666667
vt 0.333333 0.666667
vt 0.370370 0.666667
vt 0.407407 0.666667
vt 0.444444 0.666667
vt 0.481481 0.666667
vt 0.518519 0.666667
vt 0.555556 0.666667
vt 0.592593 0.666667
vt 0.629630 0.666667
vt 0.666667 0.666667
vt 0.703704 0.666667
vt 0.740741 0.666667
vt 0.777778 0.666667
vt 0.814815 0.666667
vt 0.851852 0.666667
vt 0.888889 0.666667
vt 0.925926 0.666667
vt 0.962963 0.666667
vt 1.000000 0.666667
vt 0.000000 0.740741
vt 0.037037 0.740741
vt 0.074074 0.740741
vt 0.111111 0.740741
vt 0.148148 0.740741
vt 0.185185 0.740741
vt 0.222222 0.740741
vt 0.259259 0.740741
vt 0.296296 0.740741
vt 0.333333 0.740741
vt 0.370370 0.740741
vt 0.407407 0.740741
vt 0.444444 0.740741
vt 0.481481 0.740741
vt 0.518519 0.740741
vt 0.555556 0.740741
vt 0.592593 0.740741
vt 0.629630 0.740741
vt 0.666667 0.740741
vt 0.703704 0.740741
vt 0.740741 0.740741
vt 0.777778 0.740741
vt 0.814815 0.740741
vt 0.851852 0.740741
vt 0.888889 0.740741
vt 0.925926 0.740741
vt 0.962963 0.740741
vt 1.000000 0.740741
vt 0.000000 0.814815
vt 0.037037 0.814815
vt 0.074074 0.814815
vt 0.111111 0.814815
vt 0.148148 0.814815
vt 0.185185 0.814815
vt 0.222222 0.814815
vt 0.259259 0.814815
vt 0.296296 0.814815
vt 0.333333 0.814815
vt 0.370370 0.814815
vt 0.407407 0.814815
vt 0.444444 0.814815
vt 0.481481 0.814815
vt 0.518519 0.814815
vt 0.555556 0.814815
vt 0.592593 0.814815
vt 0.629630 0.814815
vt 0.666667 0.814815
vt 0.703704 0.814815
vt 0.740741 0.814815
vt 0.777778 0.814815
vt 0.814815 0.814815
vt 0.851852 0.814815
vt 0.888889 0.814815
vt 0.925926 0.814815
vt 0.962963 0.814815
vt 1.000000 0.814815
vt 0.000000 0.888889
vt 0.037037 0.888889
vt 0.074074 0.888889
vt 0.111111 0.888889
vt 0.148148 0.888889
vt 0.185185 0.888889
vt 0.222222 0.888889
vt 0.259259 0.888889
vt 0.296296 0.888889
vt 0.333333 0.888889
vt 0.370370 0.888889
vt 0.407407 0.888889
vt 0.444444 0.888889
vt 0.481481 0.888889
vt 0.518519 0.888889
vt 0.555556 0.888889
vt 0.592593 0.888889
vt 0.629630 0.888889
vt 0.666667 0.888889
vt 0.703704 0.888889
vt 0.740741 0.888889
vt 0.777778 0.888889
vt 0.814815 0.888889
vt 0.851852 0.888889
vt 0.888889 0.888889
vt 0.925926 0.888889
vt 0.962963 0.888889
vt 1.000000 0.888889
vt 0.000000 0.962963
vt 0.037037 0.962963
vt 0.074074 0.962963
vt 0.111111 0.962963
vt 0.148148 0.962963
vt 0.185185 0.962963
vt 0.222222 0.962963
vt 0.259259 0.962963
vt 0.296296 0.962963
vt 0.333333 0.962963
vt 0.370370 0.962963
vt 0.407407 0.962963
vt 0.444444 0.962963
vt 0.481481 0.962963
vt 0.518519 0.962963
vt 0.555556 0.962963
vt 0.592593 0.962963
vt 0.629630 0.962963
vt 0.666667 0.962963
vt 0.703704 0.962963
vt 0.740741 0.962963
vt 0.777778 0.962963
vt 0.814815 0.962963
vt 0.851852 0.962963
vt 0.888889 0.962963
vt 0.925926 0.962963
vt 0.962963 0.962963
# 390 texture vertices

vn 0.000000 1.000000 0.000000
vn 0.253247 0.967368 -0.008045
vn 0.244565 0.967368 -0.066231
vn 0.000000 1.000000 0.000000
vn 0.222699 0.967368 -0.120846
vn 0.000000 1.000000 0.000000
vn 0.188827 0.967368 -0.168947
vn 0.000000 1.000000 0.000000
vn 0.144775 0.967368 -0.207939
vn 0.000000 1.000000 0.000000
vn 0.092919 0.967368 -0.235722
vn 0.000000 1.000000 0.000000
vn 0.036053 0.967368 -0.250796
vn 0.000000 1.000000 0.000000
vn -0.022756 0.967368 -0.252351
vn 0.000000 1.000000 0.000000
vn -0.080339 0.967368 -0.240300
vn 0.000000 1.000000 0.000000
vn -0.133591 0.967368 -0.215296
vn 0.000000 1.000000 0.000000
vn -0.179640 0.967368 -0.178684
vn 0.000000 1.000000 0.000000
vn -0.216005 0.967368 -0.132440
vn 0.000000 1.000000 0.000000
vn -0.240726 0.967368 -0.079056
vn 0.000000 1.000000 0.000000
vn -0.252468 0.967368 -0.021410
vn 0.000000 1.000000 0.000000
vn -0.250600 0.967368 0.037391
vn 0.000000 1.000000 0.000000
vn -0.235223 0.967368 0.094175
vn 0.000000 1.000000 0.000000
vn -0.207164 0.967368 0.145883
vn 0.000000 1.000000 0.000000
vn -0.167937 0.967368 0.189726
vn 0.000000 1.000000 0.000000
vn -0.119656 0.967368 0.223341
vn 0.000000 1.000000 0.000000
vn -0.064925 0.967368 0.244915
vn 0.000000 1.000000 0.000000
vn -0.006694 0.967368 0.253286
vn 0.000000 1.000000 0.000000
vn 0.051899 0.967368 0.248002
vn 0.000000 1.000000 0.000000
vn 0.107693 0.967368 0.229349
vn 0.000000 1.000000 0.000000
vn 0.157682 0.967368 0.198331
vn 0.000000 1.000000 0.000000
vn 0.199170 0.967368 0.156621
vn 0.000000 1.000000 0.000000
vn 0.229920 0.967368 0.106468
vn 0.000000 1.000000 0.000000
vn 0.248276 0.967368 0.050575
vn 0.000000 1.000000 0.000000
vn 0.253247 0.967368 -0.008045
vn 0.448730 0.893658 -0.004058
vn 0.435698 0.893658 -0.107433
vn 0.399178 0.893658 -0.205016
vn 0.341138 0.893658 -0.291547
vn 0.264707 0.893658 -0.362360
vn 0.174006 0.893658 -0.413638
vn 0.073924 0.893658 -0.442617
vn -0.030143 0.893658 -0.447735
vn -0.132585 0.893658 -0.428714
vn -0.227880 0.893658 -0.386582
vn -0.310889 0.893658 -0.323609
vn -0.377138 0.893658 -0.243190
vn -0.423056 0.893658 -0.149661
vn -0.446167 0.893658 -0.048063
vn -0.445224 0.893658 0.056125
vn -0.420280 0.893658 0.157288
vn -0.372678 0.893658 0.249972
vn -0.304985 0.893658 0.329179
vn -0.220850 0.893658 0.390641
vn -0.124809 0.893658 0.431042
vn -0.022040 0.893658 0.448207
vn 0.081918 0.893658 0.441208
vn 0.181459 0.893658 0.410423
vn 0.271218 0.893658 0.357513
vn 0.346356 0.893658 0.285329
vn 0.402821 0.893658 0.197763
vn 0.437570 0.893658 0.099535
vn 0.448730 0.893658 -0.004058
vn 0.642715 0.766098 -0.003469
vn 0.624590 0.766098 -0.151596
vn 0.572794 0.766098 -0.291550
vn 0.490118 0.766098 -0.415787
vn 0.381020 0.766098 -0.517608
vn 0.251381 0.766098 -0.591525
vn 0.108190 0.766098 -0.633553
vn -0.040834 0.766098 -0.641426
vn -0.187656 0.766098 -0.614719
vn -0.324362 0.766098 -0.554873
vn -0.443581 0.766098 -0.465113
vn -0.538887 0.766098 -0.350279
vn -0.605141 0.766098 -0.216561
vn -0.638772 0.766098 -0.071169
vn -0.637966 0.766098 0.078060
vn -0.602768 0.766098 0.223081
vn -0.535074 0.766098 0.356076
vn -0.438534 0.766098 0.469874
vn -0.318353 0.766098 0.558342
vn -0.181009 0.766098 0.616709
vn -0.033907 0.766098 0.641829
vn 0.115023 0.766098 0.632348
vn 0.257752 0.766098 0.588777
vn 0.386585 0.766098 0.513465
vn 0.494578 0.766098 0.410471
vn 0.575908 0.766098 0.285350
vn 0.626190 0.766098 0.144844
vn 0.642715 0.766098 -0.003469
vn 0.802068 0.597227 -0.002696
vn 0.779826 0.597227 -0.187593
vn 0.715544 0.597227 -0.362377
vn 0.612687 0.597227 -0.517625
vn 0.476799 0.597227 -0.644967
vn 0.315207 0.597227 -0.737540
vn 0.136622 0.597227 -0.790351
vn -0.049328 0.597226 -0.800554
vn -0.232618 0.597226 -0.767600
vn -0.403369 0.597226 -0.693263
vn -0.552374 0.597227 -0.581553
vn -0.671600 0.597227 -0.438491
vn -0.754619 0.597227 -0.271790
vn -0.796958 0.597227 -0.090437
vn -0.796332 0.597227 0.095792
vn -0.752775 0.597227 0.276857
vn -0.668637 0.597227 0.442996
vn -0.548451 0.597227 0.585253
vn -0.398699 0.597227 0.695959
vn -0.227453 0.597227 0.769146
vn -0.043945 0.597227 0.800868
vn 0.141933 0.597226 0.789415
vn 0.320159 0.597227 0.735404
vn 0.481124 0.597227 0.641747
vn 0.616153 0.597227 0.513494
vn 0.717964 0.597227 0.357558
vn 0.781070 0.597227 0.182346
vn 0.802068 0.597227 -0.002696
vn 0.918188 0.396140 -0.001784
vn 0.893027 0.396140 -0.213484
vn 0.819723 0.396140 -0.413676
vn 0.702227 0.396140 -0.591566
vn 0.546874 0.396140 -0.737565
vn 0.362038 0.396140 -0.843802
vn 0.157685 0.396140 -0.904549
vn -0.055168 0.396140 -0.916531
vn -0.265048 0.396140 -0.879103
vn -0.460639 0.396140 -0.794283
vn -0.631396 0.396140 -0.666642
vn -0.768115 0.396140 -0.503063
vn -0.863425 0.396140 -0.312363
vn -0.912187 0.396140 -0.104824
vn -0.911773 0.396140 0.108367
vn -0.862205 0.396140 0.315715
vn -0.766155 0.396140 0.506043
vn -0.628802 0.396140 0.669090
vn -0.457550 0.396140 0.796066
vn -0.261631 0.396140 0.880126
vn -0.051607 0.396140 0.916739
vn 0.161198 0.396140 0.903929
vn 0.365313 0.396140 0.842389
vn 0.549735 0.396140 0.735435
vn 0.704520 0.396140 0.588834
vn 0.821324 0.396140 0.410489
vn 0.893850 0.396140 0.210013
vn 0.918188 0.396140 -0.001784
vn 0.984802 0.173679 -0.000781
vn 0.958076 0.173679 -0.227871
vn 0.879701 0.173679 -0.442676
vn 0.753900 0.173679 -0.633617
vn 0.587457 0.173679 -0.790399
vn 0.389343 0.173679 -0.904570
vn 0.170240 0.173679 -0.969976
vn -0.058040 0.173679 -0.983091
vn -0.283192 0.173679 -0.943206
vn -0.493077 0.173679 -0.852473
vn -0.676380 0.173679 -0.715783
vn -0.823219 0.173679 -0.540505
vn -0.925678 0.173679 -0.336089
vn -0.978234 0.173679 -0.113553
vn -0.978053 0.173679 0.115104
vn -0.925144 0.173679 0.337556
vn -0.822361 0.173679 0.541810
vn -0.675244 0.173679 0.716855
vn -0.491725 0.173679 0.853254
vn -0.281696 0.173679 0.943654
vn -0.056482 0.173679 0.983181
vn 0.171778 0.173679 0.969705
vn 0.390777 0.173679 0.903952
vn 0.588709 0.173679 0.789466
vn 0.754904 0.173679 0.632421
vn 0.880402 0.173679 0.441281
vn 0.958437 0.173679 0.226351
vn 0.984802 0.173679 -0.000781
vn 0.998308 -0.058155 0.000261
vn 0.971458 -0.058155 -0.229971
vn 0.892237 -0.058155 -0.447806
vn 0.764916 -0.058155 -0.641500
vn 0.596357 -0.058155 -0.800610
vn 0.395649 -0.058155 -0.916559
vn 0.173612 -0.058155 -0.983096
vn -0.057786 -0.058155 -0.996634
vn -0.286068 -0.058155 -0.956443
vn -0.498927 -0.058155 -0.864690
vn -0.684890 -0.058155 -0.726322
vn -0.833930 -0.058155 -0.548797
vn -0.938013 -0.058155 -0.341687
vn -0.991527 -0.058156 -0.116156
vn -0.991588 -0.058156 0.115637
vn -0.938192 -0.058155 0.341196
vn -0.834217 -0.058155 0.548361
vn -0.685270 -0.058155 0.725963
vn -0.499380 -0.058155 0.864429
vn -0.286568 -0.058155 0.956293
vn -0.058307 -0.058155 0.996603
vn 0.173097 -0.058155 0.983186
vn 0.395170 -0.058155 0.916765
vn 0.595938 -0.058155 0.800922
vn 0.764580 -0.058155 0.641900
vn 0.892003 -0.058155 0.448273
vn 0.971338 -0.058155 0.230480
vn 0.998308 -0.058155 0.000261
vn 0.957974 -0.286851 0.001290
vn 0.932450 -0.286851 -0.219669
vn 0.856656 -0.286851 -0.428785
vn 0.734680 -0.286851 -0.614786
vn 0.573097 -0.286851 -0.767643
vn 0.380619 -0.286851 -0.879117
vn 0.167621 -0.286851 -0.943197
vn -0.054413 -0.286851 -0.956429
vn -0.273514 -0.286851 -0.918099
vn -0.477870 -0.286851 -0.830275
vn -0.656463 -0.286851 -0.697691
vn -0.799667 -0.286851 -0.527493
vn -0.899760 -0.286851 -0.328859
vn -0.951347 -0.286851 -0.112495
vn -0.951647 -0.286851 0.109933
vn -0.900643 -0.286851 0.326434
vn -0.801085 -0.286851 0.525338
vn -0.658340 -0.286851 0.695920
vn -0.480104 -0.286851 0.828985
vn -0.275986 -0.286851 0.917359
vn -0.056989 -0.286851 0.956279
vn 0.165080 -0.286851 0.943645
vn 0.378250 -0.286851 0.880138
vn 0.571028 -0.286851 0.769184
vn 0.733022 -0.286851 0.616762
vn 0.855498 -0.286851 0.431091
vn 0.931854 -0.286851 0.222179
vn 0.957974 -0.286851 0.001290
vn 0.865984 -0.500067 0.002254
vn 0.843161 -0.500067 -0.197516
vn 0.774883 -0.500067 -0.386639
vn 0.664831 -0.500067 -0.554917
vn 0.518938 -0.500067 -0.693280
vn 0.345068 -0.500067 -0.794268
vn 0.152596 -0.500067 -0.852436
vn -0.048102 -0.500067 -0.864650
vn -0.246207 -0.500067 -0.830250
vn -0.431040 -0.500067 -0.751091
vn -0.592634 -0.500067 -0.631441
vn -0.722280 -0.500067 -0.477749
vn -0.812988 -0.500067 -0.298302
vn -0.859867 -0.500067 -0.102773
vn -0.860390 -0.500067 0.098296
vn -0.814529 -0.500067 0.294066
vn -0.724757 -0.500067 0.473983
vn -0.595914 -0.500067 0.628347
vn -0.434944 -0.500067 0.748837
vn -0.250526 -0.500067 0.828957
vn -0.052603 -0.500067 0.864388
vn 0.148157 -0.500067 0.853219
vn 0.340929 -0.500067 0.796053
vn 0.515322 -0.500067 0.695972
vn 0.661933 -0.500067 0.558370
vn 0.772860 -0.500067 0.390667
vn 0.842121 -0.500067 0.201903
vn 0.865984 -0.500067 0.002254
vn 0.727307 -0.686305 0.003103
vn 0.708418 -0.686305 -0.164709
vn 0.651338 -0.686305 -0.323642
vn 0.559144 -0.686305 -0.465127
vn 0.436807 -0.686305 -0.581537
vn 0.290921 -0.686305 -0.666596
vn 0.129351 -0.686305 -0.715719
vn -0.039192 -0.686305 -0.726258
vn -0.205622 -0.686305 -0.697643
vn -0.360967 -0.686305 -0.631418
vn -0.496852 -0.686305 -0.531154
vn -0.605951 -0.686305 -0.402254
vn -0.682384 -0.686305 -0.251670
vn -0.722030 -0.686305 -0.087517
vn -0.722750 -0.686305 0.081353
vn -0.684507 -0.686305 0.245838
vn -0.609362 -0.686305 0.397070
vn -0.501366 -0.686305 0.526895
vn -0.366341 -0.686305 0.628315
vn -0.211567 -0.686305 0.695863
vn -0.045387 -0.686305 0.725897
vn 0.123240 -0.686305 0.716797
vn 0.285223 -0.686305 0.669055
vn 0.431829 -0.686305 0.585243
vn 0.555155 -0.686305 0.469881
vn 0.648553 -0.686305 0.329188
vn 0.706987 -0.686305 0.170748
vn 0.727307 -0.686305 0.003103
vn 0.549434 -0.835528 0.003789
vn 0.535498 -0.835528 -0.123021
vn 0.492693 -0.835528 -0.243200
vn 0.423327 -0.835528 -0.350267
vn 0.331139 -0.835528 -0.438451
vn 0.221099 -0.835528 -0.502999
vn 0.099140 -0.835528 -0.540429
vn -0.028164 -0.835528 -0.548725
vn -0.153950 -0.835528 -0.527439
vn -0.271436 -0.835528 -0.477719
vn -0.374289 -0.835528 -0.402245
vn -0.456964 -0.835528 -0.305085
vn -0.515004 -0.835528 -0.191478
vn -0.545280 -0.835528 -0.067549
vn -0.546159 -0.835528 0.060022
vn -0.517596 -0.835528 0.184357
vn -0.461128 -0.835528 0.298753
vn -0.379801 -0.835528 0.397044
vn -0.277999 -0.835528 0.473930
vn -0.161210 -0.835528 0.525266
vn -0.035730 -0.835528 0.548285
vn 0.091677 -0.835528 0.541745
vn 0.214141 -0.835528 0.506000
vn 0.325060 -0.835528 0.442977
vn 0.418456 -0.835528 0.356072
vn 0.489292 -0.835528 0.249972
vn 0.533750 -0.835528 0.130395
vn 0.549434 -0.835528 0.003789
vn 0.342110 -0.939600 0.010593
vn 0.335332 -0.939600 -0.068588
vn 0.310475 -0.939600 -0.144072
vn 0.268881 -0.939600 -0.211789
vn 0.212791 -0.939600 -0.268089
vn 0.145230 -0.939600 -0.309935
vn 0.069839 -0.939600 -0.335073
vn -0.009317 -0.939600 -0.342147
vn -0.087970 -0.939600 -0.330776
vn -0.161881 -0.939600 -0.301573
vn -0.227065 -0.939600 -0.256112
vn -0.280008 -0.939600 -0.196843
vn -0.317855 -0.939600 -0.126963
vn -0.338567 -0.939600 -0.050238
vn -0.341027 -0.939600 0.029195
vn -0.325102 -0.939600 0.107054
vn -0.291650 -0.939600 0.179142
vn -0.242476 -0.939600 0.241572
vn -0.180229 -0.939600 0.290980
vn -0.108267 -0.939600 0.324700
vn -0.030467 -0.939600 0.340916
vn 0.048975 -0.939600 0.338752
vn 0.125776 -0.939600 0.318327
vn 0.195797 -0.939600 0.280740
vn 0.255262 -0.939600 0.228019
vn 0.300967 -0.939600 0.163005
vn 0.330446 -0.939600 0.089204
vn 0.342110 -0.939600 0.010593
vn 0.000000 -1.000000 -0.000000
vn 0.000000 -1.000000 -0.000000
vn 0.000000 -1.000000 -0.000000
vn 0.000000 -1.000000 -0.000000
vn 0.000000 -1.000000 -0.000000
vn 0.000000 -1.000000 -0.000000
vn 0.000000 -1.000000 -0.000000
vn 0.000000 -1.000000 -0.000000
vn 0.000000 -1.000000 -0.000000
vn 0.000000 -1.000000 -0.000000
vn 0.000000 -1.000000 -0.000000
vn 0.000000 -1.000000 -0.000000
vn 0.000000 -1.000000 -0.000000
vn 0.000000 -1.000000 -0.000000
vn 0.000000 -1.000000 -0.000000
vn 0.000000 -1.000000 -0.000000
vn 0.000000 -1.000000 -0.000000
vn 0.000000 -1.000000 -0.000000
vn 0.000000 -1.000000 -0.000000
vn 0.000000 -1.000000 -0.000000
vn 0.000000 -1.000000 -0.000000
vn 0.000000 -1.000000 -0.000000
vn 0.000000 -1.000000 -0.000000
vn 0.000000 -1.000000 -0.000000
vn 0.000000 -1.000000 -0.000000
vn 0.000000 -1.000000 -0.000000
vn 0.000000 -1.000000 -0.000000
# 390 vertex normals

g Material_0
f 1/1/1 2/2/2 3/3/3
f 4/4/4 3/3/3 5/5/5
f 6/6/6 5/5/5 7/7/7
f 8/8/8 7/7/7 9/9/9
f 10/10/10 9/9/9 11/11/11
f 12/12/12 11/11/11 13/13/13
f 14/14/14 13/13/13 15/15/15
f 16/16/16 15/15/15 17/17/17
f 18/18/18 17/17/17 19/19/19
f 20/20/20 19/19/19 21/21/21
f 22/22/22 21/21/21 23/23/23
f 24/24/24 23/23/23 25/25/25
f 26/26/26 25/25/25 27/27/27
f 28/28/28 27/27/27 29/29/29
f 30/30/30 29/29/29 31/31/31
f 32/32/32 31/31/31 33/33/33
f 34/34/34 33/33/33 35/35/35
f 36/36/36 35/35/35 37/37/37
f 38/38/38 37/37/37 39/39/39
f 40/40/40 39/39/39 41/41/41
f 42/42/42 41/41/41 43/43/43
f 44/44/44 43/43/43 45/45/45
f 46/46/46 45/45/45 47/47/47
f 48/48/48 47/47/47 49/49/49
f 50/50/50 49/49/49 51/51/51
f 52/52/52 51/51/51 53/53/53
f 54/54/54 53/53/53 55/55/55
f 2/2/2 56/56/56 57/57/57
f 2/2/2 57/57/57 3/3/3
f 3/3/3 57/57/57 58/58/58
f 3/3/3 58/58/58 5/5/5
f 5/5/5 58/58/58 59/59/59
f 5/5/5 59/59/59 7/7/7
f 7/7/7 59/59/59 60/60/60
f 7/7/7 60/60/60 9/9/9
f 9/9/9 60/60/60 61/61/61
f 9/9/9 61/61/61 11/11/11
f 11/11/11 61/61/61 62/62/62
f 11/11/11 62/62/62 13/13/13
f 13/13/13 62/62/62 63/63/63
f 13/13/13 63/63/63 15/15/15
f 15/15/15 63/63/63 64/64/64
f 15/15/15 64/64/64 17/17/17
f 17/17/17 64/64/64 65/65/65
f 17/17/17 65/65/65 19/19/19
f 19/19/19 65/65/65 66/66/66
f 19/19/19 66/66/66 21/21/21
f 21/21/21 66/66/66 67/67/67
f 21/21/21 67/67/67 23/23/23
f 23/23/23 67/67/67 68/68/68
f 23/23/23 68/68/68 25/25/25
f 25/25/25 68/68/68 69/69/69
f 25/25/25 69/69/69 27/27/27
f 27/27/27 69/69/69 70/70/70
f 27/27/27 70/70/70 29/29/29
f 29/29/29 70/70/70 71/71/71
f 29/29/29 71/71/71 31/31/31
f 31/31/31 71/71/71 72/72/72
f 31/31/31 72/72/72 33/33/33
f 33/33/33 72/72/72 73/73/73
f 33/33/33 73/73/73 35/35/35
f 35/35/35 73/73/73 74/74/74
f 35/35/35 74/74/74 37/37/37
f 37/37/37 74/74/74 75/75/75
f 37/37/37 75/75/75 39/39/39
f 39/39/39 75/75/75 76/76/76
f 39/39/39 76/76/76 41/41/41
f 41/41/41 76/76/76 77/77/77
f 41/41/41 77/77/77 43/43/43
f 43/43/43 77/77/77 78/78/78
f 43/43/43 78/78/78 45/45/45
f 45/45/45 78/78/78 79/79/79
f 45/45/45 79/79/79 47/47/47
f 47/47/47 79/79/79 80/80/80
f 47/47/47 80/80/80 49/49/49
f 49/49/49 80/80/80 81/81/81
f 49/49/49 81/81/81 51/51/51
f 51/51/51 81/81/81 82/82/82
f 51/51/51 82/82/82 53/53/53
f 53/53/53 82/82/82 83/83/83
f 53/53/53 83/83/83 55/55/55
f 56/56/56 84/84/84 85/85/85
f 56/56/56 85/85/85 57/57/57
f 57/57/57 85/85/85 86/86/86
f 57/57/57 86/86/86 58/58/58
f 58/58/58 86/86/86 87/87/87
f 58/58/58 87/87/87 59/59/59
f 59/59/59 87/87/87 88/88/88
f 59/59/59 88/88/88 60/60/60
f 60/60/60 88/88/88 89/89/89
f 60/60/60 89/89/89 61/61/61
f 61/61/61 89/89/89 90/90/90
f 61/61/61 90/90/90 62/62/62
f 62/62/62 90/90/90 91/91/91
f 62/62/62 91/91/91 63/63/63
f 63/63/63 91/91/91 92/92/92
f 63/63/63 92/92/92 64/64/64
f 64/64/64 92/92/92 93/93/93
f 64/64/64 93/93/93 65/65/65
f 65/65/65 93/93/93 94/94/94
f 65/65/65 94/94/94 66/66/66
f 66/66/66 94/94/94 95/95/95
f 66/66/66 95/95/95 67/67/67
f 67/67/67 95/95/95 96/96/96
f 67/67/67 96/96/96 68/68/68
f 68/68/68 96/96/96 97/97/97
f 68/68/68 97/97/97 69/69/69
f 69/69/69 97/97/97 98/98/98
f 69/69/69 98/98/98 70/70/70
f 70/70/70 98/98/98 99/99/99
f 70/70/70 99/99/99 71/71/71
f 71/71/71 99/99/99 100/100/100
f 71/71/71 100/100/100 72/72/72
f 72/72/72 100/100/100 101/101/101
f 72/72/72 101/101/101 73/73/73
f 73/73/73 101/101/101 102/102/102
f 73/73/73 102/102/102 74/74/74
f 74/74/74 102/102/102 103/103/103
f 74/74/74 103/103/103 75/75/75
f 75/75/75 103/103/103 104/104/104
f 75/75/75 104/104/104 76/76/76
f 76/76/76 104/104/104 105/105/105
f 76/76/76 105/105/105 77/77/77
f 77/77/77 105/105/105 106/106/106
f 77/77/77 106/106/106 78/78/78
f 78/78/78 106/106/106 107/107/107
f 78/78/78 107/107/107 79/79/79
f 79/79/79 107/107/107 108/108/108
f 79/79/79 108/108/108 80/80/80
f 80/80/80 108/108/108 109/109/109
f 80/80/80 109/109/109 81/81/81
f 81/81/81 109/109/109 110/110/110
f 81/81/81 110/110/110 82/82/82
f 82/82/82 110/110/110 111/111/111
f 82/82/82 111/111/111 83/83/83
f 84/84/84 112/112/112 113/113/113
f 84/84/84 113/113/113 85/85/85
f 85/85/85 113/113/113 114/114/114
f 85/85/85 114/114/114 86/86/86
f 86/86/86 114/114/114 115/115/115
f 86/86/86 115/115/115 87/87/87
f 87/87/87 115/115/115 116/116/116
f 87/87/87 116/116/116 88/88/88
f 88/88/88 116/116/116 117/117/117
f 88/88/88 117/117/117 89/89/89
f 89/89/89 117/117/117 118/118/118
f 89/89/89 118/118/118 90/90/90
f 90/90/90 118/118/118 119/119/119
f 90/90/90 119/119/119 91/91/91
f 91/91/91 119/119/119 120/120/120
f 91/91/91 120/120/120 92/92/92
f 92/92/92 120/120/120 121/121/121
f 92/92/92 121/121/121 93/93/93
f 93/93/93 121/121/121 122/122/122
f 93/93/93 122/122/122 94/94/94
f 94/94/94 122/122/122 123/123/123
f 94/94/94 123/123/123 95/95/95
f 95/95/95 123/123/123 124/124/124
f 95/95/95 124/124/124 96/96/96
f 96/96/96 124/124/124 125/125/125
f 96/96/96 125/125/125 97/97/97
f 97/97/97 125/125/125 126/126/126
f 97/97/97 126/126/126 98/98/98
f 98/98/98 126/126/126 127/127/127
f 98/98/98 127/127/127 99/99/99
f 99/99/99 127/127/127 128/128/128
f 99/99/99 128/128/128 100/100/100
f 100/100/100 128/128/128 129/129/129
f 100/100/100 129/129/129 101/101/101
f 101/101/101 129/129/129 130/130/130
f 101/101/101 130/130/130 102/102/102
f 102/102/102 130/130/130 131/131/131
f 102/102/102 131/131/131 103/103/103
f 103/103/103 131/131/131 132/132/132
f 103/103/103 132/132/132 104/104/104
f 104/104/104 132/132/132 133/133/133
f 104/104/104 133/133/133 105/105/105
f 105/105/105 133/133/133 134/134/134
f 105/105/105 134/134/134 106/106/106
f 106/106/106 134/134/134 135/135/135
f 106/106/106 135/135/135 107/107/107
f 107/107/107 135/135/135 136/136/136
f 107/107/107 136/136/136 108/108/108
f 108/108/108 136/136/136 137/137/137
f 108/108/108 137/137/137 109/109/109
f 109/109/109 137/137/137 138/138/138
f 109/109/109 138/138/138 110/110/110
f 110/110/110 138/138/138 139/139/139
f 110/110/110 139/139/139 111/111/111
f 112/112/112 140/140/140 141/141/141
f 112/112/112 141/141/141 113/113/113
f 113/113/113 141/141/141 142/142/142
f 113/113/113 142/142/142 114/114/114
f 114/114/114 142/142/142 143/143/143
f 114/114/114 143/143/143 115/115/115
f 115/115/115 143/143/143 144/144/144
f 115/115/115 144/144/144 116/116/116
f 116/116/116 144/144/144 145/145/145
f 116/116/116 145/145/145 117/117/117
f 117/117/117 145/145/145 146/146/146
f 117/117/117 146/146/146 118/118/118
f 118/118/118 146/146/146 147/147/147
f 118/118/118 147/147/147 119/119/119
f 119/119/119 147/147/147 148/148/148
f 119/119/119 148/148/148 120/120/120
f 120/120/120 148/148/148 149/149/149
f 120/120/120 149/149/149 121/121/121
f 121/121/121 149/149/149 150/150/150
f 121/121/121 150/150/150 122/122/122
f 122/122/122 150/150/150 151/151/151
f 122/122/122 151/151/151 123/123/123
f 123/123/123 151/151/151 152/152/152
f 123/123/123 152/152/152 124/124/124
f 124/124/124 152/152/152 153/153/153
f 124/124/124 153/153/153 125/125/125
f 125/125/125 153/153/153 154/154/154
f 125/125/125 154/154/154 126/126/126
f 126/126/126 154/154/154 155/155/155
f 126/126/126 155/155/155 127/127/127
f 127/127/127 155/155/155 156/156/156
f 127/127/127 156/156/156 128/128/128
f 128/128/128 156/156/156 157/157/157
f 128/128/128 157/157/157 129/129/129
f 129/129/129 157/157/157 158/158/158
f 129/129/129 158/158/158 130/130/130
f 130/130/130 158/158/158 159/159/159
f 130/130/130 159/159/159 131/131/131
f 131/131/131 159/159/159 160/160/160
f 131/131/131 160/160/160 132/132/132
f 132/132/132 160/160/160 161/161/161
f 132/132/132 161/161/161 133/133/133
f 133/133/133 161/161/161 162/162/162
f 133/133/133 162/162/162 134/134/134
f 134/134/134 162/162/162 163/163/163
f 134/134/134 163/163/163 135/135/135
f 135/135/135 163/163/163 164/164/164
f 135/135/135 164/164/164 136/136/136
f 136/136/136 164/164/164 165/165/165
f 136/136/136 165/165/165 137/137/137
f 137/137/137 165/165/165 166/166/166
f 137/137/137 166/166/166 138/138/138
f 138/138/138 166/166/166 167/167/167
f 138/138/138 167/167/167 139/139/139
f 140/140/140 168/168/168 169/169/169
f 140/140/140 169/169/169 141/141/141
f 141/141/141 169/169/169 170/170/170
f 141/141/141 170/170/170 142/142/142
f 142/142/142 170/170/170 171/171/171
f 142/142/142 171/171/171 143/143/143
f 143/143/143 171/171/171 172/172/172
f 143/143/143 172/172/172 144/144/144
f 144/144/144 172/172/172 173/173/173
f 144/144/144 173/173/173 145/145/145
f 145/145/145 173/173/173 174/174/174
f 145/145/145 174/174/174 146/146/146
f 146/146/146 174/174/174 175/175/175
f 146/146/146 175/175/175 147/147/147
f 147/147/147 175/175/175 176/176/176
f 147/147/147 176/176/176 148/148/148
f 148/148/148 176/176/176 177/177/177
f 148/148/148 177/177/177 149/149/149
f 149/149/149 177/177/177 178/178/178
f 149/149/149 178/178/178 150/150/150
f 150/150/150 178/178/178 179/179/179
f 150/150/150 179/179/179 151/151/151
f 151/151/151 179/179/179 180/180/180
f 151/151/151 180/180/180 152/152/152
f 152/152/152 180/180/180 181/181/181
f 152/152/152 181/181/181 153/153/153
f 153/153/153 181/181/181 182/182/182
f 153/153/153 182/182/182 154/154/154
f 154/154/154 182/182/182 183/183/183
f 154/154/154 183/183/183 155/155/155
f 155/155/155 183/183/183 184/184/184
f 155/155/155 184/184/184 156/156/156
f 156/156/156 184/184/184 185/185/185
f 156/156/156 185/185/185 157/157/157
f 157/157/157 185/185/185 186/186/186
f 157/157/157 186/186/186 158/158/158
f 158/158/158 186/186/186 187/187/187
f 158/158/158 187/187/187 159/159/159
f 159/159/159 187/187/187 188/188/188
f 159/159/159 188/188/188 160/160/160
f 160/160/160 188/188/188 189/189/189
f 160/160/160 189/189/189 161/161/161
f 161/161/161 189/189/189 190/190/190
f 161/161/161 190/190/190 162/162/162
f 162/162/162 190/190/190 191/191/191
f 162/162/162 191/191/191 163/163/163
f 163/163/163 191/191/191 192/192/192
f 163/163/163 192/192/192 164/164/164
f 164/164/164 192/192/192 193/193/193
f 164/164/164 193/193/193 165/165/165
f 165/165/165 193/193/193 194/194/194
f 165/165/165 194/194/194 166/166/166
f 166/166/166 194/194/194 195/195/195
f 166/166/166 195/195/195 167/167/167
f 168/168/168 196/196/196 197/197/197
f 168/168/168 197/197/197 169/169/169
f 169/169/169 197/197/197 198/198/198
f 169/169/169 198/198/198 170/170/170
f 170/170/170 198/198/198 199/199/199
f 170/170/170 199/199/199 171/171/171
f 171/171/171 199/199/199 200/200/200
f 171/171/171 200/200/200 172/172/172
f 172/172/172 200/200/200 201/201/201
f 172/172/172 201/201/201 173/173/173
f 173/173/173 201/201/201 202/202/202
f 173/173/173 202/202/202 174/174/174
f 174/174/174 202/202/202 203/203/203
f 174/174/174 203/203/203 175/175/175
f 175/175/175 203/203/203 204/204/204
f 175/175/175 204/204/204 176/176/176
f 176/176/176 204/204/204 205/205/205
f 176/176/176 205/205/205 177/177/177
f 177/177/177 205/205/205 206/206/206
f 177/177/177 206/206/206 178/178/178
f 178/178/178 206/206/206 207/207/207
f 178/178/178 207/207/207 179/179/179
f 179/179/179 207/207/207 208/208/208
f 179/179/179 208/208/208 180/180/180
f 180/180/180 208/208/208 209/209/209
f 180/180/180 209/209/209 181/181/181
f 181/181/181 209/209/209 210/210/210
f 181/181/181 210/210/210 182/182/182
f 182/182/182 210/210/210 211/211/211
f 182/182/182 211/211/211 183/183/183
f 183/183/183 211/211/211 212/212/212
f 183/183/183 212/212/212 184/184/184
f 184/184/184 212/212/212 213/213/213
f 184/184/184 213/213/213 185/185/185
f 185/185/185 213/213/213 214/214/214
f 185/185/185 214/214/214 186/186/186
f 186/186/186 214/214/214 215/215/215
f 186/186/186 215/215/215 187/187/187
f 187/187/187 215/215/215 216/216/216
f 187/187/187 216/216/216 188/188/188
f 188/188/188 216/216/216 217/217/217
f 188/188/188 217/217/217 189/189/189
f 189/189/189 217/217/217 218/218/218
f 189/189/189 218/218/218 190/190/190
f 190/190/190 218/218/218 219/219/219
f 190/190/190 219/219/219 191/191/191
f 191/191/191 219/219/219 220/220/220
f 191/191/191 220/220/220 192/192/192
f 192/192/192 220/220/220 221/221/221
f 192/192/192 221/221/221 193/193/193
f 193/193/193 221/221/221 222/222/222
f 193/193/193 222/222/222 194/194/194
f 194/194/194 222/222/222 223/223/223
f 194/194/194 223/223/223 195/195/195
f 196/196/196 224/224/224 225/225/225
f 196/196/196 225/225/225 197/197/197
f 197/197/197 225/225/225 226/226/226
f 197/197/197 226/226/226 198/198/198
f 198/198/198 226/226/226 227/227/227
f 198/198/198 227/227/227 199/199/199
f 199/199/199 227/227/227 228/228/228
f 199/199/199 228/228/228 200/200/200
f 200/200/200 228/228/228 229/229/229
f 200/200/200 229/229/229 201/201/201
f 201/201/201 229/229/229 230/230/230
f 201/201/201 230/230/230 202/202/202
f 202/202/202 230/230/230 231/231/231
f 202/202/202 231/231/231 203/203/203
f 203/203/203 231/231/231 232/232/232
f 203/203/203 232/232/232 204/204/204
f 204/204/204 232/232/232 233/233/233
f 204/204/204 233/233/233 205/205/205
f 205/205/205 233/233/233 234/234/234
f 205/205/205 234/234/234 206/206/206
f 206/206/206 234/234/234 235/235/235
f 206/206/206 235/235/235 207/207/207
f 207/207/207 235/235/235 236/236/236
f 207/207/207 236/236/236 208/208/208
f 208/208/208 236/236/236 237/237/237
f 208/208/208 237/237/237 209/209/209
f 209/209/209 237/237/237 238/238/238
f 209/209/209 238/238/238 210/210/210
f 210/210/210 238/238/238 239/239/239
f 210/210/210 239/239/239 211/211/211
f 211/211/211 239/239/239 240/240/240
f 211/211/211 240/240/240 212/212/212
f 212/212/212 240/240/240 241/241/241
f 212/212/212 241/241/241 213/213/213
f 213/213/213 241/241/241 242/242/242
f 213/213/213 242/242/242 214/214/214
f 214/214/214 242/242/242 243/243/243
f 214/214/214 243/243/243 215/215/215
f 215/215/215 243/243/243 244/244/244
f 215/215/215 244/244/244 216/216/216
f 216/216/216 244/244/244 245/245/245
f 216/216/216 245/245/245 217/217/217
f 217/217/217 245/245/245 246/246/246
f 217/217/217 246/246/246 218/218/218
f 218/218/218 246/246/246 247/247/247
f 218/218/218 247/247/247 219/219/219
f 219/219/219 247/247/247 248/248/248
f 219/219/219 248/248/248 220/220/220
f 220/220/220 248/248/248 249/249/249
f 220/220/220 249/249/249 221/221/221
f 221/221/221 249/249/249 250/250/250
f 221/221/221 250/250/250 222/222/222
f 222/222/222 250/250/250 251/251/251
f 222/222/222 251/251/251 223/223/223
f 224/224/224 252/252/252 253/253/253
f 224/224/224 253/253/253 225/225/225
f 225/225/225 253/253/253 254/254/254
f 225/225/225 254/254/254 226/226/226
f 226/226/226 254/254/254 255/255/255
f 226/226/226 255/255/255 227/227/227
f 227/227/227 255/255/255 256/256/256
f 227/227/227 256/256/256 228/228/228
f 228/228/228 256/256/256 257/257/257
f 228/228/228 257/257/257 229/229/229
f 229/229/229 257/257/257 258/258/258
f 229/229/229 258/258/258 230/230/230
f 230/230/230 258/258/258 259/259/259
f 230/230/230 259/259/259 231/231/231
f 231/231/231 259/259/259 260/260/260
f 231/231/231 260/260/260 232/232/232
f 232/232/232 260/260/260 261/261/261
f 232/232/232 261/261/261 233/233/233
f 233/233/233 261/261/261 262/262/262
f 233/233/233 262/262/262 234/234/234
f 234/234/234 262/262/262 263/263/263
f 234/234/234 263/263/263 235/235/235
f 235/235/235 263/263/263 264/264/264
f 235/235/235 264/264/264 236/236/236
f 236/236/236 264/264/264 265/265/265
f 236/236/236 265/265/265 237/237/237
f 237/237/237 265/265/265 266/266/266
f 237/237/237 266/266/266 238/238/238
f 238/238/238 266/266/266 267/267/267
f 238/238/238 267/267/267 239/239/239
f 239/239/239 267/267/267 268/268/268
f 239/239/239 268/268/268 240/240/240
f 240/240/240 268/268/268 269/269/269
f 240/240/240 269/269/269 241/241/241
f 241/241/241 269/269/269 270/270/270
f 241/241/241 270/270/270 242/242/242
f 242/242/242 270/270/270 271/271/271
f 242/242/242 271/271/271 243/243/243
f 243/243/243 271/271/271 272/272/272
f 243/243/243 272/272/272 244/244/244
f 244/244/244 272/272/272 273/273/273
f 244/244/244 273/273/273 245/245/245
f 245/245/245 273/273/273 274/274/274
f 245/245/245 274/274/274 246/246/246
f 246/246/246 274/274/274 275/275/275
f 246/246/246 275/275/275 247/247/247
f 247/247/247 275/275/275 276/276/276
f 247/247/247 276/276/276 248/248/248
f 248/248/248 276/276/276 277/277/277
f 248/248/248 277/277/277 249/249/249
f 249/249/249 277/277/277 278/278/278
f 249/249/249 278/278/278 250/250/250
f 250/250/250 278/278/278 279/279/279
f 250/250/250 279/279/279 251/251/251
f 252/252/252 280/280/280 281/281/281
f 252/252/252 281/281/281 253/253/253
f 253/253/253 281/281/281 282/282/282
f 253/253/253 282/282/282 254/254/254
f 254/254/254 282/282/282 283/283/283
f 254/254/254 283/283/283 255/255/255
f 255/255/255 283/283/283 284/284/284
f 255/255/255 284/284/284 256/256/256
f 256/256/256 284/284/284 285/285/285
f 256/256/256 285/285/285 257/257/257
f 257/257/257 285/285/285 286/286/286
f 257/257/257 286/286/286 258/258/258
f 258/258/258 286/286/286 287/287/287
f 258/258/258 287/287/287 259/259/259
f 259/259/259 287/287/287 288/288/288
f 259/259/259 288/288/288 260/260/260
f 260/260/260 288/288/288 289/289/289
f 260/260/260 289/289/289 261/261/261
f 261/261/261 289/289/289 290/290/290
f 261/261/261 290/290/290 262/262/262
f 262/262/262 290/290/290 291/291/291
f 262/262/262 291/291/291 263/263/263
f 263/263/263 291/291/291 292/292/292
f 263/263/263 292/292/292 264/264/264
f 264/264/264 292/292/292 293/293/293
f 264/264/264 293/293/293 265/265/265
f 265/265/265 293/293/293 294/294/294
f 265/265/265 294/294/294 266/266/266
f 266/266/266 294/294/294 295/295/295
f 266/266/266 295/295/295 267/267/267
f 267/267/267 295/295/295 296/296/296
f 267/267/267 296/296/296 268/268/268
f 268/268/268 296/296/296 297/297/297
f 268/268/268 297/297/297 269/269/269
f 269/269/269 297/297/297 298/298/298
f 269/269/269 298/298/298 270/270/270
f 270/270/270 298/298/298 299/299/299
f 270/270/270 299/299/299 271/271/271
f 271/271/271 299/299/299 300/300/300
f 271/271/271 300/300/300 272/272/272
f 272/272/272 300/300/300 301/301/301
f 272/272/272 301/301/301 273/273/273
f 273/273/273 301/301/301 302/302/302
f 273/273/273 302/302/302 274/274/274
f 274/274/274 302/302/302 303/303/303
f 274/274/274 303/303/303 275/275/275
f 275/275/275 303/303/303 304/304/304
f 275/275/275 304/304/304 276/276/276
f 276/276/276 304/304/304 305/305/305
f 276/276/276 305/305/305 277/277/277
f 277/277/277 305/305/305 306/306/306
f 277/277/277 306/306/306 278/278/278
f 278/278/278 306/306/306 307/307/307
f 278/278/278 307/307/307 279/279/279
f 280/280/280 308/308/308 309/309/309
f 280/280/280 309/309/309 281/281/281
f 281/281/281 309/309/309 310/310/310
f 281/281/281 310/310/310 282/282/282
f 282/282/282 310/310/310 311/311/311
f 282/282/282 311/311/311 283/283/283
f 283/283/283 311/311/311 312/312/312
f 283/283/283 312/312/312 284/284/284
f 284/284/284 312/312/312 313/313/313
f 284/284/284 313/313/313 285/285/285
f 285/285/285 313/313/313 314/314/314
f 285/285/285 314/314/314 286/286/286
f 286/286/286 314/314/314 315/315/315
f 286/286/286 315/315/315 287/287/287
f 287/287/287 315/315/315 316/316/316
f 287/287/287 316/316/316 288/288/288
f 288/288/288 316/316/316 317/317/317
f 288/288/288 317/317/317 289/289/289
f 289/289/289 317/317/317 318/318/318
f 289/289/289 318/318/318 290/290/290
f 290/290/290 318/318/318 319/319/319
f 290/290/290 319/319/319 291/291/291
f 291/291/291 319/319/319 320/320/320
f 291/291/291 320/320/320 292/292/292
f 292/292/292 320/320/320 321/321/321
f 292/292/292 321/321/321 293/293/293
f 293/293/293 321/321/321 322/322/322
f 293/293/293 322/322/322 294/294/294
f 294/294/294 322/322/322 323/323/323
f 294/294/294 323/323/323 295/295/295
f 295/295/295 323/323/323 324/324/324
f 295/295/295 324/324/324 296/296/296
f 296/296/296 324/324/324 325/325/325
f 296/296/296 325/325/325 297/297/297
f 297/297/297 325/325/325 326/326/326
f 297/297/297 326/326/326 298/298/298
f 298/298/298 326/326/326 327/327/327
f 298/298/298 327/327/327 299/299/299
f 299/299/299 327/327/327 328/328/328
f 299/299/299 328/328/328 300/300/300
f 300/300/300 328/328/328 329/329/329
f 300/300/300 329/329/329 301/301/301
f 301/301/301 329/329/329 330/330/330
f 301/301/301 330/330/330 302/302/302
f 302/302/302 330/330/330 331/331/331
f 302/302/302 331/331/331 303/303/303
f 303/303/303 331/331/331 332/332/332
f 303/303/303 332/332/332 304/304/304
f 304/304/304 332/332/332 333/333/333
f 304/304/304 333/333/333 305/305/305
f 305/305/305 333/333/333 334/334/334
f 305/305/305 334/334/334 306/306/306
f 306/306/306 334/334/334 335/335/335
f 306/306/306 335/335/335 307/307/307
f 308/308/308 336/336/336 337/337/337
f 308/308/308 337/337/337 309/309/309
f 309/309/309 337/337/337 338/338/338
f 309/309/309 338/338/338 310/310/310
f 310/310/310 338/338/338 339/339/339
f 310/310/310 339/339/339 311/311/311
f 311/311/311 339/339/339 340/340/340
f 311/311/311 340/340/340 312/312/312
f 312/312/312 340/340/340 341/341/341
f 312/312/312 341/341/341 313/313/313
f 313/313/313 341/341/341 342/342/342
f 313/313/313 342/342/342 314/314/314
f 314/314/314 342/342/342 343/343/343
f 314/314/314 343/343/343 315/315/315
f 315/315/315 343/343/343 344/344/344
f 315/315/315 344/344/344 316/316/316
f 316/316/316 344/344/344 345/345/345
f 316/316/316 345/345/345 317/317/317
f 317/317/317 345/345/345 346/346/346
f 317/317/317 346/346/346 318/318/318
f 318/318/318 346/346/346 347/347/347
f 318/318/318 347/347/347 319/319/319
f 319/319/319 347/347/347 348/348/348
f 319/319/319 348/348/348 320/320/320
f 320/320/320 348/348/348 349/349/349
f 320/320/320 349/349/349 321/321/321
f 321/321/321 349/349/349 350/350/350
f 321/321/321 350/350/350 322/322/322
f 322/322/322 350/350/350 351/351/351
f 322/322/322 351/351/351 323/323/323
f 323/323/323 351/351/351 352/352/352
f 323/323/323 352/352/352 324/324/324
f 324/324/324 352/352/352 353/353/353
f 324/324/324 353/353/353 325/325/325
f 325/325/325 353/353/353 354/354/354
f 325/325/325 354/354/354 326/326/326
f 326/326/326 354/354/354 355/355/355
f 326/326/326 355/355/355 327/327/327
f 327/327/327 355/355/355 356/356/356
f 327/327/327 356/356/356 328/328/328
f 328/328/328 356/356/356 357/357/357
f 328/328/328 357/357/357 329/329/329
f 329/329/329 357/357/357 358/358/358
f 329/329/329 358/358/358 330/330/330
f 330/330/330 358/358/358 359/359/359
f 330/330/330 359/359/359 331/331/331
f 331/331/331 359/359/359 360/360/360
f 331/331/331 360/360/360 332/332/332
f 332/332/332 360/360/360 361/361/361
f 332/332/332 361/361/361 333/333/333
f 333/333/333 361/361/361 362/362/362
f 333/333/333 362/362/362 334/334/334
f 334/334/334 362/362/362 363/363/363
f 334/334/334 363/363/363 335/335/335
f 364/364/364 337/337/337 336/336/336
f 365/365/365 338/338/338 337/337/337
f 366/366/366 339/339/339 338/338/338
f 367/367/367 340/340/340 339/339/339
f 368/368/368 341/341/341 340/340/340
f 369/369/369 342/342/342 341/341/341
f 370/370/370 343/343/343 342/342/342
f 371/371/371 344/344/344 343/343/343
f 372/372/372 345/345/345 344/344/344
f 373/373/373 346/346/346 345/345/345
f 374/374/374 347/347/347 346/346/346
f 375/375/375 348/348/348 347/347/347
f 376/376/376 349/349/349 348/348/348
f 377/377/377 350/350/350 349/349/349
f 378/378/378 351/351/351 350/350/350
f 379/379/379 352/352/352 351/351/351
f 380/380/380 353/353/353 352/352/352
f 381/381/381 354/354/354 353/353/353
f 382/382/382 355/355/355 354/354/354
f 383/383/383 356/356/356 355/355/355
f 384/384/384 357/357/357 356/356/356
f 385/385/385 358/358/358 357/357/357
f 386/386/386 359/359/359 358/358/358
f 387/387/387 360/360/360 359/359/359
f 388/388/388 361/361/361 360/360/360
f 389/389/389 362/362/362 361/361/361
f 390/390/390 363/363/363 362/362/362
# 648 faces

