v 0.000000 4.770819 -6.361091
v 0.000000 4.770819 18.628910
v 0.000000 -20.219181 18.628910
v 0.000000 -20.219181 -6.361091
v 0.000000 4.770819 -6.361091
v 0.000000 4.770819 -3.862090
v 0.000000 7.269819 -3.862090
v 0.000000 7.269819 -6.361091
v 0.000000 1.022320 -6.361091
v 0.000000 1.022320 1.135910
v 0.000000 4.770819 1.135910
# 11 vertices

vn 1.000000 0.000000 0.000000
vn 1.000000 0.000000 0.000000
vn 1.000000 0.000000 0.000000
vn 1.000000 0.000000 0.000000
vn -1.000000 0.000000 0.000000
vn -1.000000 0.000000 0.000000
vn -1.000000 0.000000 0.000000
vn -1.000000 0.000000 0.000000
vn -1.000000 0.000000 0.000000
vn -1.000000 0.000000 0.000000
vn -1.000000 0.000000 0.000000
# 11 vertex normals

g DefaultMaterial
f 1/1/1 2/2/2 3/3/3
f 1/1/1 3/3/3 4/4/4
f 5/5/5 6/6/6 7/7/7
f 5/5/5 7/7/7 8/8/8
f 9/9/9 10/10/10 11/11/11
f 9/9/9 11/11/11 5/5/5
# 6 faces

