v -0.393701 -0.393701 -0.393701
v 0.393701 -0.393701 -0.393701
v 0.393701 -0.393701 0.393701
v -0.393701 -0.393701 0.393701
v -0.393701 0.393701 -0.393701
v -0.393701 0.393701 0.393701
v 0.393701 0.393701 0.393701
v 0.393701 0.393701 -0.393701
v -0.393701 -0.393701 -0.393701
v -0.393701 -0.393701 0.393701
v -0.393701 0.393701 0.393701
v -0.393701 0.393701 -0.393701
v 0.393701 -0.393701 0.393701
v -0.393701 0.393701 0.393701
v 0.393701 -0.393701 0.393701
v 0.393701 -0.393701 -0.393701
v 0.393701 0.393701 -0.393701
v 0.393701 0.393701 0.393701
v 0.393701 -0.393701 -0.393701
v -0.393701 0.393701 -0.393701
# 20 vertices

vt 1.000000 1.000000
vt 1.000000 0.000000
vt 0.000000 0.000000
vt 0.000000 1.000000
vt 0.000000 1.000000
vt 1.000000 1.000000
vt 1.000000 0.000000
vt 0.000000 0.000000
vt 0.000000 1.000000
vt 1.000000 1.000000
vt 1.000000 0.000000
vt 0.000000 0.000000
vt 1.000000 1.000000
vt 0.000000 0.000000
vt 0.000000 1.000000
vt 1.000000 1.000000
vt 1.000000 0.000000
vt 0.000000 0.000000
vt 0.000000 1.000000
vt 1.000000 0.000000
# 20 texture vertices

vn -0.666667 -0.666667 -0.333333
vn 0.408248 -0.408248 -0.816497
vn 0.666667 -0.666667 0.333333
vn -0.408248 -0.408248 0.816497
vn -0.333333 0.666667 -0.666667
vn -0.816497 0.408248 0.408248
vn 0.333333 0.666667 0.666667
vn 0.816497 0.408248 -0.408248
vn -0.666667 -0.666667 -0.333333
vn -0.408248 -0.408248 0.816497
vn -0.816497 0.408248 0.408248
vn -0.333333 0.666667 -0.666667
vn 0.666667 -0.666667 0.333333
vn -0.816497 0.408248 0.408248
vn 0.666667 -0.666667 0.333333
vn 0.408248 -0.408248 -0.816497
vn 0.816497 0.408248 -0.408248
vn 0.333333 0.666667 0.666667
vn 0.408248 -0.408248 -0.816497
vn -0.333333 0.666667 -0.666667
# 20 vertex normals

g Material_0
f 1/1/1 2/2/2 3/3/3
f 3/3/3 4/4/4 1/1/1
f 5/5/5 6/6/6 7/7/7
f 7/7/7 8/8/8 5/5/5
f 9/9/9 10/10/10 11/11/11
f 11/11/11 12/12/12 9/9/9
f 4/4/4 13/13/13 7/7/7
f 7/7/7 14/14/14 4/4/4
f 15/15/15 16/16/16 17/17/17
f 17/17/17 18/18/18 15/15/15
f 19/19/19 1/1/1 20/20/20
f 20/20/20 8/8/8 19/19/19
# 12 faces

