v -0.000000 2.066085 -0.004473
v -0.000000 2.052978 0.095084
v 0.049779 2.052978 0.081746
v 0.086219 2.052978 0.045306
v 0.099557 2.052978 -0.004473
v 0.086219 2.052978 -0.054251
v 0.049779 2.052978 -0.090692
v -0.000000 2.052978 -0.104030
v -0.049779 2.052978 -0.090692
v -0.086219 2.052978 -0.054251
v -0.099557 2.052978 -0.004473
v -0.086219 2.052978 0.045306
v -0.049779 2.052978 0.081746
v -0.000000 2.014550 0.187857
v 0.096165 2.014550 0.162090
v 0.166563 2.014550 0.091692
v 0.192330 2.014550 -0.004473
v 0.166563 2.014550 -0.100638
v 0.096165 2.014550 -0.171035
v -0.000000 2.014550 -0.196803
v -0.096165 2.014550 -0.171035
v -0.166563 2.014550 -0.100638
v -0.192330 2.014550 -0.004473
v -0.166563 2.014550 0.091692
v -0.096165 2.014550 0.162090
v -0.000000 1.953421 0.267523
v 0.135998 1.953421 0.231082
v 0.235555 1.953421 0.131525
v 0.271996 1.953421 -0.004473
v 0.235555 1.953421 -0.140471
v 0.135998 1.953421 -0.240028
v -0.000000 1.953421 -0.276468
v -0.135998 1.953421 -0.240028
v -0.235555 1.953421 -0.140471
v -0.271996 1.953421 -0.004473
v -0.235555 1.953421 0.131525
v -0.135998 1.953421 0.231082
v -0.000000 1.873755 0.328652
v 0.166563 1.873755 0.284022
v 0.288495 1.873755 0.162090
v 0.333125 1.873755 -0.004473
v 0.288495 1.873755 -0.171035
v 0.166563 1.873755 -0.292968
v -0.000000 1.873755 -0.337598
v -0.166563 1.873755 -0.292968
v -0.288495 1.873755 -0.171035
v -0.333125 1.873755 -0.004473
v -0.288495 1.873755 0.162090
v -0.166563 1.873755 0.284022
v -0.000000 1.780982 0.367080
v 0.185776 1.780982 0.317301
v 0.321774 1.780982 0.181304
v 0.371553 1.780982 -0.004473
v 0.321774 1.780982 -0.190249
v 0.185776 1.780982 -0.326247
v -0.000000 1.780982 -0.376026
v -0.185776 1.780982 -0.326247
v -0.321774 1.780982 -0.190249
v -0.371553 1.780982 -0.004473
v -0.321774 1.780982 0.181304
v -0.185776 1.780982 0.317301
v -0.000000 1.681425 0.380187
v 0.192330 1.681425 0.328652
v 0.333125 1.681425 0.187857
v 0.384660 1.681425 -0.004473
v 0.333125 1.681425 -0.196803
v 0.192330 1.681425 -0.337598
v -0.000000 1.681425 -0.389133
v -0.192330 1.681425 -0.337598
v -0.333125 1.681425 -0.196803
v -0.384660 1.681425 -0.004473
v -0.333125 1.681425 0.187857
v -0.192330 1.681425 0.328652
v -0.000000 1.681425 0.380187
v -0.000000 -1.681432 0.380187
v 0.192330 -1.681432 0.328652
v 0.192330 1.681425 0.328652
v 0.333125 -1.681432 0.187857
v 0.333125 1.681425 0.187857
v 0.384660 -1.681432 -0.004473
v 0.384660 1.681425 -0.004473
v 0.333125 -1.681432 -0.196803
v 0.333125 1.681425 -0.196803
v 0.192330 -1.681432 -0.337598
v 0.192330 1.681425 -0.337598
v -0.000000 -1.681432 -0.389133
v -0.000000 1.681425 -0.389133
v -0.192330 -1.681432 -0.337598
v -0.192330 1.681425 -0.337598
v -0.333125 -1.681432 -0.196803
v -0.333125 1.681425 -0.196803
v -0.384660 -1.681432 -0.004473
v -0.384660 1.681425 -0.004473
v -0.333125 -1.681432 0.187857
v -0.333125 1.681425 0.187857
v -0.192330 -1.681432 0.328652
v -0.192330 1.681425 0.328652
v -0.000000 -1.681432 0.380187
v -0.000000 1.681425 0.380187
v -0.000000 -1.681432 0.380187
v -0.000000 -1.780989 0.367080
v 0.185776 -1.780989 0.317301
v 0.192330 -1.681432 0.328652
v 0.321774 -1.780989 0.181304
v 0.333125 -1.681432 0.187857
v 0.371553 -1.780989 -0.004473
v 0.384660 -1.681432 -0.004473
v 0.321774 -1.780989 -0.190249
v 0.333125 -1.681432 -0.196803
v 0.185776 -1.780989 -0.326247
v 0.192330 -1.681432 -0.337598
v -0.000000 -1.780989 -0.376026
v -0.000000 -1.681432 -0.389133
v -0.185776 -1.780989 -0.326247
v -0.192330 -1.681432 -0.337598
v -0.321774 -1.780989 -0.190249
v -0.333125 -1.681432 -0.196803
v -0.371553 -1.780989 -0.004473
v -0.384660 -1.681432 -0.004473
v -0.321774 -1.780989 0.181304
v -0.333125 -1.681432 0.187857
v -0.185776 -1.780989 0.317301
v -0.192330 -1.681432 0.328652
v -0.000000 -1.873761 0.328652
v 0.166563 -1.873761 0.284022
v 0.288495 -1.873761 0.162090
v 0.333125 -1.873761 -0.004473
v 0.288495 -1.873761 -0.171035
v 0.166563 -1.873761 -0.292968
v -0.000000 -1.873761 -0.337598
v -0.166563 -1.873761 -0.292968
v -0.288495 -1.873761 -0.171035
v -0.333125 -1.873761 -0.004473
v -0.288495 -1.873761 0.162090
v -0.166563 -1.873761 0.284022
v -0.000000 -1.953427 0.267523
v 0.135998 -1.953427 0.231082
v 0.235555 -1.953427 0.131525
v 0.271996 -1.953427 -0.004473
v 0.235555 -1.953427 -0.140471
v 0.135998 -1.953427 -0.240028
v -0.000000 -1.953427 -0.276468
v -0.135998 -1.953427 -0.240028
v -0.235555 -1.953427 -0.140471
v -0.271996 -1.953427 -0.004473
v -0.235555 -1.953427 0.131525
v -0.135998 -1.953427 0.231082
v -0.000000 -2.014557 0.187857
v 0.096165 -2.014557 0.162090
v 0.166563 -2.014557 0.091692
v 0.192330 -2.014557 -0.004473
v 0.166563 -2.014557 -0.100638
v 0.096165 -2.014557 -0.171035
v -0.000000 -2.014557 -0.196803
v -0.096165 -2.014557 -0.171035
v -0.166563 -2.014557 -0.100638
v -0.192330 -2.014557 -0.004473
v -0.166563 -2.014557 0.091692
v -0.096165 -2.014557 0.162090
v -0.000000 -2.052984 0.095084
v 0.049779 -2.052984 0.081746
v 0.086219 -2.052984 0.045306
v 0.099557 -2.052984 -0.004473
v 0.086219 -2.052984 -0.054251
v 0.049779 -2.052984 -0.090692
v -0.000000 -2.052984 -0.104030
v -0.049779 -2.052984 -0.090692
v -0.086219 -2.052984 -0.054251
v -0.099557 -2.052984 -0.004473
v -0.086219 -2.052984 0.045306
v -0.049779 -2.052984 0.081746
v -0.000000 -2.066091 -0.004473
# 172 vertices

vt 0.500000 0.500000
vt 0.629410 0.500000
vt 0.612072 0.435295
vt 0.564705 0.387928
vt 0.500000 0.370590
vt 0.435295 0.387928
vt 0.387928 0.435295
vt 0.370590 0.500000
vt 0.387928 0.564705
vt 0.435295 0.612072
vt 0.500000 0.629410
vt 0.564705 0.612072
vt 0.612072 0.564705
vt 0.750000 0.500000
vt 0.716506 0.375000
vt 0.625000 0.283494
vt 0.500000 0.250000
vt 0.375000 0.283494
vt 0.283494 0.375000
vt 0.250000 0.500000
vt 0.283494 0.625000
vt 0.375000 0.716506
vt 0.500000 0.750000
vt 0.625000 0.716506
vt 0.716506 0.625000
vt 0.853553 0.500000
vt 0.806186 0.323223
vt 0.676777 0.193814
vt 0.500000 0.146447
vt 0.323223 0.193814
vt 0.193814 0.323223
vt 0.146447 0.500000
vt 0.193814 0.676777
vt 0.323223 0.806186
vt 0.500000 0.853553
vt 0.676777 0.806186
vt 0.806186 0.676777
vt 0.933013 0.500000
vt 0.875000 0.283494
vt 0.716506 0.125000
vt 0.500000 0.066987
vt 0.283494 0.125000
vt 0.125000 0.283494
vt 0.066987 0.500000
vt 0.125000 0.716506
vt 0.283494 0.875000
vt 0.500000 0.933013
vt 0.716506 0.875000
vt 0.875000 0.716506
vt 0.982963 0.500000
vt 0.918258 0.258519
vt 0.741481 0.081742
vt 0.500000 0.017037
vt 0.258519 0.081742
vt 0.081742 0.258519
vt 0.017037 0.500000
vt 0.081742 0.741481
vt 0.258519 0.918258
vt 0.500000 0.982963
vt 0.741481 0.918258
vt 0.918258 0.741481
vt 1.000000 0.500000
vt 0.933013 0.250000
vt 0.750000 0.066987
vt 0.500000 0.000000
vt 0.250000 0.066987
vt 0.066987 0.250000
vt 0.000000 0.500000
vt 0.066987 0.750000
vt 0.250000 0.933013
vt 0.500000 1.000000
vt 0.750000 0.933013
vt 0.933013 0.750000
vt 0.000000 0.000000
vt 0.000000 1.000000
vt 0.083333 1.000000
vt 0.083333 0.000000
vt 0.166667 1.000000
vt 0.166667 0.000000
vt 0.250000 1.000000
vt 0.250000 0.000000
vt 0.333333 1.000000
vt 0.333333 0.000000
vt 0.416667 1.000000
vt 0.416667 0.000000
vt 0.500000 1.000000
vt 0.500000 0.000000
vt 0.583333 1.000000
vt 0.583333 0.000000
vt 0.666667 1.000000
vt 0.666667 0.000000
vt 0.750000 1.000000
vt 0.750000 0.000000
vt 0.833333 1.000000
vt 0.833333 0.000000
vt 0.916667 1.000000
vt 0.916667 0.000000
vt 1.000000 1.000000
vt 1.000000 0.000000
vt 1.000000 0.500000
vt 0.982963 0.500000
vt 0.918258 0.258519
vt 0.933013 0.250000
vt 0.741481 0.081742
vt 0.750000 0.066987
vt 0.500000 0.017037
vt 0.500000 0.000000
vt 0.258519 0.081742
vt 0.250000 0.066987
vt 0.081742 0.258519
vt 0.066987 0.250000
vt 0.017037 0.500000
vt 0.000000 0.500000
vt 0.081742 0.741481
vt 0.066987 0.750000
vt 0.258519 0.918258
vt 0.250000 0.933013
vt 0.500000 0.982963
vt 0.500000 1.000000
vt 0.741481 0.918258
vt 0.750000 0.933013
vt 0.918258 0.741481
vt 0.933013 0.750000
vt 0.933013 0.500000
vt 0.875000 0.283494
vt 0.716506 0.125000
vt 0.500000 0.066987
vt 0.283494 0.125000
vt 0.125000 0.283494
vt 0.066987 0.500000
vt 0.125000 0.716506
vt 0.283494 0.875000
vt 0.500000 0.933013
vt 0.716506 0.875000
vt 0.875000 0.716506
vt 0.853553 0.500000
vt 0.806186 0.323223
vt 0.676777 0.193814
vt 0.500000 0.146447
vt 0.323223 0.193814
vt 0.193814 0.323223
vt 0.146447 0.500000
vt 0.193814 0.676777
vt 0.323223 0.806186
vt 0.500000 0.853553
vt 0.676777 0.806186
vt 0.806186 0.676777
vt 0.750000 0.500000
vt 0.716506 0.375000
vt 0.625000 0.283494
vt 0.500000 0.250000
vt 0.375000 0.283494
vt 0.283494 0.375000
vt 0.250000 0.500000
vt 0.283494 0.625000
vt 0.375000 0.716506
vt 0.500000 0.750000
vt 0.625000 0.716506
vt 0.716506 0.625000
vt 0.629410 0.500000
vt 0.612072 0.435295
vt 0.564705 0.387928
vt 0.500000 0.370590
vt 0.435295 0.387928
vt 0.387928 0.435295
vt 0.370590 0.500000
vt 0.387928 0.564705
vt 0.435295 0.612072
vt 0.500000 0.629410
vt 0.564705 0.612072
vt 0.612072 0.564705
vt 0.500000 0.500000
# 172 texture vertices

vn 0.000000 1.000000 0.000000
vn 0.020635 0.958657 0.283814
vn 0.159778 0.958657 0.235472
vn 0.256108 0.958657 0.124036
vn 0.283814 0.958657 -0.020635
vn 0.235472 0.958657 -0.159778
vn 0.124036 0.958657 -0.256108
vn -0.020635 0.958657 -0.283814
vn -0.159778 0.958657 -0.235472
vn -0.256108 0.958657 -0.124036
vn -0.283814 0.958657 0.020635
vn -0.235472 0.958657 0.159778
vn -0.124036 0.958657 0.256108
vn 0.010006 0.866242 0.499525
vn 0.258428 0.866242 0.427598
vn 0.437605 0.866242 0.241097
vn 0.499525 0.866242 -0.010006
vn 0.427598 0.866242 -0.258428
vn 0.241097 0.866242 -0.437605
vn -0.010006 0.866242 -0.499525
vn -0.258428 0.866242 -0.427598
vn -0.437605 0.866242 -0.241097
vn -0.499525 0.866242 0.010006
vn -0.427598 0.866242 0.258428
vn -0.241097 0.866242 0.437605
vn 0.008031 0.707501 0.706666
vn 0.360288 0.707501 0.607975
vn 0.616007 0.707501 0.346378
vn 0.706666 0.707501 -0.008031
vn 0.607975 0.707501 -0.360288
vn 0.346378 0.707501 -0.616007
vn -0.008031 0.707501 -0.706666
vn -0.360288 0.707501 -0.607975
vn -0.616007 0.707501 -0.346378
vn -0.706666 0.707501 0.008031
vn -0.607975 0.707501 0.360288
vn -0.346378 0.707501 0.616007
vn 0.005584 0.500427 0.865760
vn 0.437716 0.500427 0.746979
vn 0.752562 0.500428 0.428044
vn 0.865760 0.500427 -0.005584
vn 0.746979 0.500427 -0.437716
vn 0.428044 0.500428 -0.752562
vn -0.005584 0.500428 -0.865760
vn -0.437716 0.500427 -0.746979
vn -0.752562 0.500428 -0.428044
vn -0.865760 0.500428 0.005584
vn -0.746979 0.500428 0.437716
vn -0.428044 0.500428 0.752562
vn 0.002855 0.259095 0.965848
vn 0.485397 0.259095 0.835021
vn 0.837876 0.259095 0.480451
vn 0.965848 0.259095 -0.002855
vn 0.835021 0.259095 -0.485397
vn 0.480451 0.259095 -0.837876
vn -0.002855 0.259095 -0.965848
vn -0.485397 0.259095 -0.835021
vn -0.837876 0.259095 -0.480451
vn -0.965848 0.259095 0.002855
vn -0.835021 0.259095 0.485397
vn -0.480451 0.259095 0.837876
vn 0.000357 0.065422 0.997858
vn 0.499238 0.065422 0.863991
vn 0.864349 0.065422 0.498619
vn 0.997858 0.065422 -0.000357
vn 0.863991 0.065422 -0.499238
vn 0.498619 0.065422 -0.864349
vn -0.000358 0.065422 -0.997858
vn -0.499238 0.065422 -0.863991
vn -0.864349 0.065422 -0.498619
vn -0.997858 0.065422 0.000357
vn -0.863991 0.065422 0.499239
vn -0.498619 0.065422 0.864349
vn 0.000357 0.065422 0.997858
vn -0.000357 -0.065422 0.997858
vn 0.498619 -0.065422 0.864349
vn 0.499238 0.065422 0.863991
vn 0.863991 -0.065422 0.499238
vn 0.864349 0.065422 0.498619
vn 0.997858 -0.065422 0.000357
vn 0.997858 0.065422 -0.000357
vn 0.864349 -0.065422 -0.498619
vn 0.863991 0.065422 -0.499238
vn 0.499238 -0.065422 -0.863991
vn 0.498619 0.065422 -0.864349
vn 0.000357 -0.065422 -0.997858
vn -0.000358 0.065422 -0.997858
vn -0.498619 -0.065422 -0.864349
vn -0.499238 0.065422 -0.863991
vn -0.863991 -0.065422 -0.499238
vn -0.864349 0.065422 -0.498619
vn -0.997858 -0.065422 -0.000357
vn -0.997858 0.065422 0.000357
vn -0.864349 -0.065422 0.498619
vn -0.863991 0.065422 0.499239
vn -0.499238 -0.065422 0.863991
vn -0.498619 0.065422 0.864349
vn -0.000357 -0.065422 0.997858
vn 0.000357 0.065422 0.997858
vn -0.000357 -0.065422 0.997858
vn -0.002855 -0.259095 0.965848
vn 0.480451 -0.259095 0.837876
vn 0.498619 -0.065422 0.864349
vn 0.835021 -0.259095 0.485397
vn 0.863991 -0.065422 0.499238
vn 0.965848 -0.259095 0.002855
vn 0.997858 -0.065422 0.000357
vn 0.837876 -0.259095 -0.480451
vn 0.864349 -0.065422 -0.498619
vn 0.485397 -0.259095 -0.835021
vn 0.499238 -0.065422 -0.863991
vn 0.002855 -0.259095 -0.965847
vn 0.000357 -0.065422 -0.997858
vn -0.480451 -0.259095 -0.837876
vn -0.498619 -0.065422 -0.864349
vn -0.835021 -0.259095 -0.485397
vn -0.863991 -0.065422 -0.499238
vn -0.965848 -0.259095 -0.002855
vn -0.997858 -0.065422 -0.000357
vn -0.837876 -0.259095 0.480451
vn -0.864349 -0.065422 0.498619
vn -0.485396 -0.259095 0.835021
vn -0.499238 -0.065422 0.863991
vn -0.005584 -0.500427 0.865761
vn 0.428045 -0.500427 0.752562
vn 0.746979 -0.500427 0.437716
vn 0.865761 -0.500427 0.005584
vn 0.752562 -0.500427 -0.428045
vn 0.437716 -0.500427 -0.746979
vn 0.005584 -0.500427 -0.865761
vn -0.428045 -0.500427 -0.752562
vn -0.746979 -0.500427 -0.437716
vn -0.865761 -0.500427 -0.005584
vn -0.752562 -0.500427 0.428045
vn -0.437716 -0.500427 0.746979
vn -0.008031 -0.707501 0.706666
vn 0.346378 -0.707501 0.616007
vn 0.607975 -0.707501 0.360288
vn 0.706666 -0.707501 0.008031
vn 0.616007 -0.707501 -0.346378
vn 0.360288 -0.707501 -0.607975
vn 0.008031 -0.707501 -0.706666
vn -0.346378 -0.707501 -0.616007
vn -0.607975 -0.707501 -0.360288
vn -0.706666 -0.707501 -0.008031
vn -0.616007 -0.707501 0.346378
vn -0.360288 -0.707501 0.607975
vn -0.010006 -0.866242 0.499524
vn 0.241096 -0.866242 0.437604
vn 0.427597 -0.866242 0.258428
vn 0.499524 -0.866242 0.010006
vn 0.437604 -0.866242 -0.241096
vn 0.258428 -0.866242 -0.427598
vn 0.010006 -0.866242 -0.499524
vn -0.241096 -0.866242 -0.437604
vn -0.427598 -0.866242 -0.258428
vn -0.499524 -0.866242 -0.010006
vn -0.437604 -0.866242 0.241096
vn -0.258428 -0.866242 0.427598
vn -0.020635 -0.958657 0.283814
vn 0.124036 -0.958657 0.256108
vn 0.235473 -0.958657 0.159778
vn 0.283814 -0.958657 0.020635
vn 0.256108 -0.958657 -0.124036
vn 0.159778 -0.958657 -0.235473
vn 0.020635 -0.958657 -0.283814
vn -0.124036 -0.958657 -0.256108
vn -0.235473 -0.958657 -0.159778
vn -0.283814 -0.958657 -0.020635
vn -0.256108 -0.958657 0.124036
vn -0.159778 -0.958657 0.235473
vn -0.000000 -1.000000 0.000000
# 172 vertex normals

g Material_1
f 1/1/1 2/2/2 3/3/3
f 1/1/1 3/3/3 4/4/4
f 1/1/1 4/4/4 5/5/5
f 1/1/1 5/5/5 6/6/6
f 1/1/1 6/6/6 7/7/7
f 1/1/1 7/7/7 8/8/8
f 1/1/1 8/8/8 9/9/9
f 1/1/1 9/9/9 10/10/10
f 1/1/1 10/10/10 11/11/11
f 1/1/1 11/11/11 12/12/12
f 1/1/1 12/12/12 13/13/13
f 1/1/1 13/13/13 2/2/2
f 2/2/2 14/14/14 15/15/15
f 2/2/2 15/15/15 3/3/3
f 3/3/3 15/15/15 16/16/16
f 3/3/3 16/16/16 4/4/4
f 4/4/4 16/16/16 17/17/17
f 4/4/4 17/17/17 5/5/5
f 5/5/5 17/17/17 18/18/18
f 5/5/5 18/18/18 6/6/6
f 6/6/6 18/18/18 19/19/19
f 6/6/6 19/19/19 7/7/7
f 7/7/7 19/19/19 20/20/20
f 7/7/7 20/20/20 8/8/8
f 8/8/8 20/20/20 21/21/21
f 8/8/8 21/21/21 9/9/9
f 9/9/9 21/21/21 22/22/22
f 9/9/9 22/22/22 10/10/10
f 10/10/10 22/22/22 23/23/23
f 10/10/10 23/23/23 11/11/11
f 11/11/11 23/23/23 24/24/24
f 11/11/11 24/24/24 12/12/12
f 12/12/12 24/24/24 25/25/25
f 12/12/12 25/25/25 13/13/13
f 13/13/13 25/25/25 14/14/14
f 13/13/13 14/14/14 2/2/2
f 14/14/14 26/26/26 27/27/27
f 14/14/14 27/27/27 15/15/15
f 15/15/15 27/27/27 28/28/28
f 15/15/15 28/28/28 16/16/16
f 16/16/16 28/28/28 29/29/29
f 16/16/16 29/29/29 17/17/17
f 17/17/17 29/29/29 30/30/30
f 17/17/17 30/30/30 18/18/18
f 18/18/18 30/30/30 31/31/31
f 18/18/18 31/31/31 19/19/19
f 19/19/19 31/31/31 32/32/32
f 19/19/19 32/32/32 20/20/20
f 20/20/20 32/32/32 33/33/33
f 20/20/20 33/33/33 21/21/21
f 21/21/21 33/33/33 34/34/34
f 21/21/21 34/34/34 22/22/22
f 22/22/22 34/34/34 35/35/35
f 22/22/22 35/35/35 23/23/23
f 23/23/23 35/35/35 36/36/36
f 23/23/23 36/36/36 24/24/24
f 24/24/24 36/36/36 37/37/37
f 24/24/24 37/37/37 25/25/25
f 25/25/25 37/37/37 26/26/26
f 25/25/25 26/26/26 14/14/14
f 26/26/26 38/38/38 39/39/39
f 26/26/26 39/39/39 27/27/27
f 27/27/27 39/39/39 40/40/40
f 27/27/27 40/40/40 28/28/28
f 28/28/28 40/40/40 41/41/41
f 28/28/28 41/41/41 29/29/29
f 29/29/29 41/41/41 42/42/42
f 29/29/29 42/42/42 30/30/30
f 30/30/30 42/42/42 43/43/43
f 30/30/30 43/43/43 31/31/31
f 31/31/31 43/43/43 44/44/44
f 31/31/31 44/44/44 32/32/32
f 32/32/32 44/44/44 45/45/45
f 32/32/32 45/45/45 33/33/33
f 33/33/33 45/45/45 46/46/46
f 33/33/33 46/46/46 34/34/34
f 34/34/34 46/46/46 47/47/47
f 34/34/34 47/47/47 35/35/35
f 35/35/35 47/47/47 48/48/48
f 35/35/35 48/48/48 36/36/36
f 36/36/36 48/48/48 49/49/49
f 36/36/36 49/49/49 37/37/37
f 37/37/37 49/49/49 38/38/38
f 37/37/37 38/38/38 26/26/26
f 38/38/38 50/50/50 51/51/51
f 38/38/38 51/51/51 39/39/39
f 39/39/39 51/51/51 52/52/52
f 39/39/39 52/52/52 40/40/40
f 40/40/40 52/52/52 53/53/53
f 40/40/40 53/53/53 41/41/41
f 41/41/41 53/53/53 54/54/54
f 41/41/41 54/54/54 42/42/42
f 42/42/42 54/54/54 55/55/55
f 42/42/42 55/55/55 43/43/43
f 43/43/43 55/55/55 56/56/56
f 43/43/43 56/56/56 44/44/44
f 44/44/44 56/56/56 57/57/57
f 44/44/44 57/57/57 45/45/45
f 45/45/45 57/57/57 58/58/58
f 45/45/45 58/58/58 46/46/46
f 46/46/46 58/58/58 59/59/59
f 46/46/46 59/59/59 47/47/47
f 47/47/47 59/59/59 60/60/60
f 47/47/47 60/60/60 48/48/48
f 48/48/48 60/60/60 61/61/61
f 48/48/48 61/61/61 49/49/49
f 49/49/49 61/61/61 50/50/50
f 49/49/49 50/50/50 38/38/38
f 50/50/50 62/62/62 63/63/63
f 50/50/50 63/63/63 51/51/51
f 51/51/51 63/63/63 64/64/64
f 51/51/51 64/64/64 52/52/52
f 52/52/52 64/64/64 65/65/65
f 52/52/52 65/65/65 53/53/53
f 53/53/53 65/65/65 66/66/66
f 53/53/53 66/66/66 54/54/54
f 54/54/54 66/66/66 67/67/67
f 54/54/54 67/67/67 55/55/55
f 55/55/55 67/67/67 68/68/68
f 55/55/55 68/68/68 56/56/56
f 56/56/56 68/68/68 69/69/69
f 56/56/56 69/69/69 57/57/57
f 57/57/57 69/69/69 70/70/70
f 57/57/57 70/70/70 58/58/58
f 58/58/58 70/70/70 71/71/71
f 58/58/58 71/71/71 59/59/59
f 59/59/59 71/71/71 72/72/72
f 59/59/59 72/72/72 60/60/60
f 60/60/60 72/72/72 73/73/73
f 60/60/60 73/73/73 61/61/61
f 61/61/61 73/73/73 62/62/62
f 61/61/61 62/62/62 50/50/50
f 74/74/74 75/75/75 76/76/76
f 74/74/74 76/76/76 77/77/77
f 77/77/77 76/76/76 78/78/78
f 77/77/77 78/78/78 79/79/79
f 79/79/79 78/78/78 80/80/80
f 79/79/79 80/80/80 81/81/81
f 81/81/81 80/80/80 82/82/82
f 81/81/81 82/82/82 83/83/83
f 83/83/83 82/82/82 84/84/84
f 83/83/83 84/84/84 85/85/85
f 85/85/85 84/84/84 86/86/86
f 85/85/85 86/86/86 87/87/87
f 87/87/87 86/86/86 88/88/88
f 87/87/87 88/88/88 89/89/89
f 89/89/89 88/88/88 90/90/90
f 89/89/89 90/90/90 91/91/91
f 91/91/91 90/90/90 92/92/92
f 91/91/91 92/92/92 93/93/93
f 93/93/93 92/92/92 94/94/94
f 93/93/93 94/94/94 95/95/95
f 95/95/95 94/94/94 96/96/96
f 95/95/95 96/96/96 97/97/97
f 97/97/97 96/96/96 98/98/98
f 97/97/97 98/98/98 99/99/99
f 100/100/100 101/101/101 102/102/102
f 100/100/100 102/102/102 103/103/103
f 103/103/103 102/102/102 104/104/104
f 103/103/103 104/104/104 105/105/105
f 105/105/105 104/104/104 106/106/106
f 105/105/105 106/106/106 107/107/107
f 107/107/107 106/106/106 108/108/108
f 107/107/107 108/108/108 109/109/109
f 109/109/109 108/108/108 110/110/110
f 109/109/109 110/110/110 111/111/111
f 111/111/111 110/110/110 112/112/112
f 111/111/111 112/112/112 113/113/113
f 113/113/113 112/112/112 114/114/114
f 113/113/113 114/114/114 115/115/115
f 115/115/115 114/114/114 116/116/116
f 115/115/115 116/116/116 117/117/117
f 117/117/117 116/116/116 118/118/118
f 117/117/117 118/118/118 119/119/119
f 119/119/119 118/118/118 120/120/120
f 119/119/119 120/120/120 121/121/121
f 121/121/121 120/120/120 122/122/122
f 121/121/121 122/122/122 123/123/123
f 123/123/123 122/122/122 101/101/101
f 123/123/123 101/101/101 100/100/100
f 101/101/101 124/124/124 125/125/125
f 101/101/101 125/125/125 102/102/102
f 102/102/102 125/125/125 126/126/126
f 102/102/102 126/126/126 104/104/104
f 104/104/104 126/126/126 127/127/127
f 104/104/104 127/127/127 106/106/106
f 106/106/106 127/127/127 128/128/128
f 106/106/106 128/128/128 108/108/108
f 108/108/108 128/128/128 129/129/129
f 108/108/108 129/129/129 110/110/110
f 110/110/110 129/129/129 130/130/130
f 110/110/110 130/130/130 112/112/112
f 112/112/112 130/130/130 131/131/131
f 112/112/112 131/131/131 114/114/114
f 114/114/114 131/131/131 132/132/132
f 114/114/114 132/132/132 116/116/116
f 116/116/116 132/132/132 133/133/133
f 116/116/116 133/133/133 118/118/118
f 118/118/118 133/133/133 134/134/134
f 118/118/118 134/134/134 120/120/120
f 120/120/120 134/134/134 135/135/135
f 120/120/120 135/135/135 122/122/122
f 122/122/122 135/135/135 124/124/124
f 122/122/122 124/124/124 101/101/101
f 124/124/124 136/136/136 137/137/137
f 124/124/124 137/137/137 125/125/125
f 125/125/125 137/137/137 138/138/138
f 125/125/125 138/138/138 126/126/126
f 126/126/126 138/138/138 139/139/139
f 126/126/126 139/139/139 127/127/127
f 127/127/127 139/139/139 140/140/140
f 127/127/127 140/140/140 128/128/128
f 128/128/128 140/140/140 141/141/141
f 128/128/128 141/141/141 129/129/129
f 129/129/129 141/141/141 142/142/142
f 129/129/129 142/142/142 130/130/130
f 130/130/130 142/142/142 143/143/143
f 130/130/130 143/143/143 131/131/131
f 131/131/131 143/143/143 144/144/144
f 131/131/131 144/144/144 132/132/132
f 132/132/132 144/144/144 145/145/145
f 132/132/132 145/145/145 133/133/133
f 133/133/133 145/145/145 146/146/146
f 133/133/133 146/146/146 134/134/134
f 134/134/134 146/146/146 147/147/147
f 134/134/134 147/147/147 135/135/135
f 135/135/135 147/147/147 136/136/136
f 135/135/135 136/136/136 124/124/124
f 136/136/136 148/148/148 149/149/149
f 136/136/136 149/149/149 137/137/137
f 137/137/137 149/149/149 150/150/150
f 137/137/137 150/150/150 138/138/138
f 138/138/138 150/150/150 151/151/151
f 138/138/138 151/151/151 139/139/139
f 139/139/139 151/151/151 152/152/152
f 139/139/139 152/152/152 140/140/140
f 140/140/140 152/152/152 153/153/153
f 140/140/140 153/153/153 141/141/141
f 141/141/141 153/153/153 154/154/154
f 141/141/141 154/154/154 142/142/142
f 142/142/142 154/154/154 155/155/155
f 142/142/142 155/155/155 143/143/143
f 143/143/143 155/155/155 156/156/156
f 143/143/143 156/156/156 144/144/144
f 144/144/144 156/156/156 157/157/157
f 144/144/144 157/157/157 145/145/145
f 145/145/145 157/157/157 158/158/158
f 145/145/145 158/158/158 146/146/146
f 146/146/146 158/158/158 159/159/159
f 146/146/146 159/159/159 147/147/147
f 147/147/147 159/159/159 148/148/148
f 147/147/147 148/148/148 136/136/136
f 148/148/148 160/160/160 161/161/161
f 148/148/148 161/161/161 149/149/149
f 149/149/149 161/161/161 162/162/162
f 149/149/149 162/162/162 150/150/150
f 150/150/150 162/162/162 163/163/163
f 150/150/150 163/163/163 151/151/151
f 151/151/151 163/163/163 164/164/164
f 151/151/151 164/164/164 152/152/152
f 152/152/152 164/164/164 165/165/165
f 152/152/152 165/165/165 153/153/153
f 153/153/153 165/165/165 166/166/166
f 153/153/153 166/166/166 154/154/154
f 154/154/154 166/166/166 167/167/167
f 154/154/154 167/167/167 155/155/155
f 155/155/155 167/167/167 168/168/168
f 155/155/155 168/168/168 156/156/156
f 156/156/156 168/168/168 169/169/169
f 156/156/156 169/169/169 157/157/157
f 157/157/157 169/169/169 170/170/170
f 157/157/157 170/170/170 158/158/158
f 158/158/158 170/170/170 171/171/171
f 158/158/158 171/171/171 159/159/159
f 159/159/159 171/171/171 160/160/160
f 159/159/159 160/160/160 148/148/148
f 160/160/160 172/172/172 161/161/161
f 161/161/161 172/172/172 162/162/162
f 162/162/162 172/172/172 163/163/163
f 163/163/163 172/172/172 164/164/164
f 164/164/164 172/172/172 165/165/165
f 165/165/165 172/172/172 166/166/166
f 166/166/166 172/172/172 167/167/167
f 167/167/167 172/172/172 168/168/168
f 168/168/168 172/172/172 169/169/169
f 169/169/169 172/172/172 170/170/170
f 170/170/170 172/172/172 171/171/171
f 171/171/171 172/172/172 160/160/160
# 288 faces

