v -0.151025 1.428497 -0.008976
v -0.130764 1.526706 -0.009547
v -0.019777 1.515438 -0.151749
v -0.020207 1.517183 0.133118
v 0.056497 1.580300 -0.009591
v 0.316788 1.201164 0.329352
v 0.399226 1.153308 0.313312
v 0.383461 1.218181 0.314361
v 0.317804 1.197046 -0.343080
v 0.254865 1.247528 -0.290282
v 0.329957 1.265755 -0.307596
v 0.329051 1.269435 0.293065
v 0.254011 1.250996 0.275751
v 0.384433 1.214247 -0.328097
v 0.241867 1.204407 -0.303054
v 0.272829 1.141322 0.323515
v 0.364258 1.095941 0.313479
v 0.400194 1.149392 -0.326207
v 0.273826 1.137279 -0.336644
v 0.240973 1.208035 0.289010
v 0.365224 1.092027 -0.325776
v 0.992594 0.803913 0.359996
v 0.973531 0.694146 0.344764
v 1.077028 0.614011 0.361028
v 1.147726 0.721326 0.386456
v 1.308244 0.586669 -0.433782
v 1.361578 0.440630 -0.489003
v 1.156419 0.555485 -0.397337
v 0.974581 0.689891 -0.350295
v 0.993691 0.799460 -0.366815
v 1.148901 0.716562 -0.391794
v 1.078125 0.609563 -0.365263
v 1.306938 0.591964 0.430514
v 1.155222 0.560330 0.393998
v 1.360102 0.446610 0.487680
v 0.688068 0.913452 0.382206
v 0.926829 0.650182 0.426665
v 0.689235 0.908716 -0.391283
v 0.928126 0.644923 -0.431794
v 1.255909 0.432020 -0.485014
v 1.254445 0.437950 0.483479
v 1.083553 0.501378 0.472950
v 1.084986 0.495569 -0.475778
v 0.630327 -1.574222 0.164671
v 0.691635 -1.681846 0.203910
v 0.783504 -1.675316 0.011443
v 0.692266 -1.569599 0.010659
v 0.451223 -1.957188 0.214104
v 0.340105 -1.960055 0.085681
v 0.597904 -1.902206 0.166822
v 0.640614 -1.922154 0.012738
v 0.352596 -1.966142 0.012572
v 0.340326 -1.960953 -0.060642
v 0.598369 -1.904096 -0.141706
v 0.153746 -1.831696 -0.309265
v 0.309644 -1.711899 -0.327249
v 0.317134 -1.901832 -0.305248
v 0.162319 -1.835312 0.011484
v 0.159474 -1.834160 -0.086898
v 0.328037 -1.955674 -0.161853
v 0.156611 -1.832927 -0.189449
v 0.513263 -1.748270 0.257839
v 0.525797 -1.610860 0.238543
v 0.327510 -1.953539 0.186782
v 0.156003 -1.830466 0.212356
v 0.159177 -1.832955 0.109837
v 0.451831 -1.959654 -0.188755
v 0.526486 -1.613650 -0.217206
v 0.514007 -1.751286 -0.234856
v 0.692216 -1.684204 -0.181206
v 0.316175 -1.897945 0.329474
v 0.152776 -1.827768 0.332138
v 0.308623 -1.707757 0.349125
v 0.630792 -1.576110 -0.143472
v 0.373143 -1.043671 -0.724892
v 0.428098 -0.746919 -0.747306
v 0.775675 -0.773883 -0.473183
v 0.716216 -1.032009 -0.440032
v 0.751353 -0.559962 -0.422801
v 0.645949 -0.077843 -0.361754
v 0.886951 -0.069151 0.001765
v 0.987680 -0.533088 0.004758
v 0.593103 -1.375051 -0.448307
v 0.920025 -1.070802 0.007946
v 0.809432 -1.382269 0.009687
v 1.001144 -0.855502 0.006750
v 0.403406 -0.512232 -0.631414
v 0.372206 -0.134481 -0.603002
v 0.058972 -1.448285 -0.612880
v -0.095033 -1.841679 -0.390427
v 0.561015 0.125676 -0.294563
v 0.705183 0.176872 -0.000018
v 0.301448 0.180772 -0.456257
v 0.401489 -0.504451 0.638856
v 0.425825 -0.737703 0.757688
v 0.774229 -0.768016 0.484964
v 0.750061 -0.554726 0.431894
v 0.057094 -1.440668 0.630746
v -0.096245 -1.836761 0.412665
v 0.591720 -1.369448 0.466903
v -0.229248 0.125577 0.654300
v -0.285601 -0.197605 0.513903
v -0.105163 0.021940 0.634861
v -0.365769 -0.357799 0.521571
v -0.373708 -0.553203 0.539057
v -0.049098 -0.525025 0.674541
v -0.034500 -0.258089 0.673725
v -0.894359 -1.077302 0.608647
v -1.001707 -0.868896 0.694630
v -0.980347 -1.299896 0.522296
v -0.301454 0.669802 0.336082
v -0.441885 0.748294 -0.005250
v -0.534756 0.496886 -0.003850
v -0.384231 0.516558 0.336616
v -0.621454 -0.326993 0.167728
v -0.640595 -0.468235 0.212126
v -0.682536 -1.044874 0.005367
v -0.913681 -1.032741 0.227962
v -0.618776 -0.643078 0.138212
v -0.991524 -0.636515 0.693685
v -0.939005 -0.819626 0.681923
v -0.825454 -0.620831 0.611775
v -0.641692 -0.323275 0.108453
v -0.693552 -0.490249 0.001954
v -0.783952 0.347063 0.327690
v -0.538357 0.280708 0.407638
v -0.682759 0.303525 0.201358
v -1.062357 0.504138 0.500522
v -1.062254 0.601176 0.464772
v -1.061954 0.676846 0.366136
v -1.061519 0.621036 0.219389
v -1.061154 0.428124 0.098158
v -0.251060 0.996837 -0.006484
v -0.254061 1.007524 0.126739
v -0.229218 1.128469 0.088032
v -0.213473 1.125371 -0.007214
v 0.336342 0.952281 0.450667
v 0.294027 0.965578 0.450622
v 0.228824 0.885961 0.538154
v -0.217349 1.324841 -0.008440
v -0.245773 1.241863 0.039121
v -0.199102 1.353933 0.040652
v -0.174922 1.420002 0.137575
v -0.055249 1.457907 0.232572
v 0.068380 1.456918 0.228369
v 0.198897 1.509935 0.110692
v 0.190908 1.346923 0.256745
v 0.358265 1.355687 0.272358
v 0.384141 1.406743 0.211322
v 0.329907 1.305217 0.301562
v 0.235399 1.294996 0.276056
v 0.427933 1.004911 0.361420
v 0.869819 0.981974 0.357541
v 0.656836 1.074437 0.277993
v 0.364274 1.072730 0.340413
v 1.528553 0.308451 0.558647
v 1.493540 0.660360 0.476162
v 0.845226 0.976024 0.150874
v 0.951556 0.937871 0.187833
v 0.928609 0.783972 0.097925
v 1.196343 0.423745 0.288627
v 1.096880 0.437400 0.280930
v 1.170383 0.625315 0.224542
v 1.080592 0.962610 0.427593
v 1.286817 0.842250 0.474993
v 1.232038 0.759943 0.265065
v 1.094679 0.858658 0.220531
v 0.691908 0.816095 0.428084
v 0.514238 0.869545 0.399669
v 0.700613 0.651696 0.183038
v 0.804716 0.607548 0.168455
v 0.097524 0.320021 0.505999
v 0.300070 0.186351 0.454916
v 0.358321 0.556922 0.494367
v -1.064152 -1.335408 0.143652
v -1.059406 -1.029341 0.217881
v -0.919437 -1.338603 0.170671
v -1.064197 -0.770778 0.154841
v -1.064332 -0.579232 0.197410
v -0.946556 -0.582532 0.215344
v -0.918241 -0.774082 0.172861
v -0.371195 -1.445184 0.503806
v -0.411543 -1.763201 0.379221
v -1.064359 -1.503699 0.211311
v -0.916403 -1.516288 0.220577
v -0.956701 -1.545649 0.352478
v -1.064771 -1.533023 0.346332
v -0.844138 -1.297228 0.441921
v -0.819643 -1.420575 0.319753
v -0.655062 -1.678827 0.274103
v -0.675268 -1.568004 0.401273
v -0.842823 -1.302559 -0.428546
v -0.613327 -1.350486 -0.471201
v -0.674082 -1.572812 -0.384076
v -0.856954 -1.249721 -0.455214
v -0.918942 -1.340608 -0.157040
v -1.063738 -1.337087 -0.130501
v -1.063744 -1.506194 -0.196093
v -0.915761 -1.518894 -0.204758
v -0.082580 -1.971298 -0.243566
v -0.031596 -1.790272 0.010914
v -0.372390 -1.631301 0.009428
v -0.387962 -1.827930 -0.087214
v -0.087276 -1.945300 -0.095258
v -1.063755 -1.311327 -0.491761
v -1.063756 -0.882470 -0.669424
v -0.999621 -0.877357 -0.686958
v -0.978788 -1.306214 -0.509293
v -1.063755 -1.430014 -0.465397
v -1.063749 -1.537169 -0.330747
v -1.058762 -1.031953 -0.208456
v 0.359825 0.550830 -0.500065
v 0.559216 0.446990 -0.204920
v 0.879692 0.558703 -0.509331
v 0.932194 0.518343 -0.247072
v 0.805233 0.605453 -0.173452
v 1.197217 0.420200 -0.290180
v 1.340004 0.269170 -0.562928
v 1.530238 0.301614 -0.557763
v 0.952137 0.935518 -0.196431
v 1.081897 0.957321 -0.436082
v 0.870915 0.977537 -0.366911
v 0.701174 0.649419 -0.188888
v 0.844555 0.836336 -0.003845
v 0.928915 0.782730 -0.104713
v 1.043661 0.705179 -0.161515
v 1.095357 0.855912 -0.227723
v 1.288261 0.836394 -0.481383
v 1.494984 0.654507 -0.479701
v 0.248241 1.121547 -0.343875
v 0.515459 0.864593 -0.408735
v 0.429043 1.000416 -0.372407
v 0.693212 0.810802 -0.435956
v 0.191706 1.343682 -0.272646
v 0.236257 1.291523 -0.291184
v 0.198010 1.221519 -0.311502
v 0.136544 1.252449 -0.299349
v 0.583069 1.296003 -0.227566
v 0.372596 1.457931 -0.157994
v 0.423642 1.499057 -0.008539
v 0.643904 1.334255 -0.007198
v -0.054518 1.454948 -0.250575
v 0.069098 1.454013 -0.245985
v -0.174480 1.418207 -0.155485
v -0.245631 1.241287 -0.055068
v -0.198953 1.353331 -0.057833
v 0.480833 0.657804 -0.484660
v 0.230464 0.879308 -0.548270
v 0.337720 0.946697 -0.461278
v -0.253658 1.005891 -0.139835
v -0.171028 1.008228 -0.264016
v -0.148625 0.849572 -0.303146
v -0.252356 0.873309 -0.141459
v -1.060188 0.615628 -0.230165
v -1.060193 0.424214 -0.106581
v -0.822175 0.454724 -0.090173
v -0.721507 0.505263 -0.340297
v -1.060179 0.669635 -0.377589
v -0.823614 -0.628292 -0.606616
v -0.936957 -0.827934 -0.674668
v -0.989435 -0.644981 -0.688830
v -0.945912 -0.585144 -0.211052
v -0.917728 -0.776158 -0.166141
v -0.724815 -0.774250 -0.289547
v -0.790837 -0.488634 -0.375735
v -0.618368 -0.644734 -0.132195
v -0.555848 -0.585561 -0.206557
v -0.372089 -0.559770 -0.533367
v -0.364199 -0.364164 -0.518254
v -0.336231 -0.243285 -0.490257
v -0.284051 -0.203889 -0.512306
v -0.043761 -0.086998 -0.593206
v -0.032470 -0.266321 -0.670614
v -0.885949 0.219655 -0.492047
v -0.390037 -0.052529 -0.523453
v -0.637453 -0.146116 -0.506879
v -1.060202 0.268076 -0.463271
v -0.430207 -0.923022 -0.720171
v -0.034315 -0.806428 -0.827997
v -0.080179 -1.084880 -0.805245
v -0.103244 0.014159 -0.635397
v -0.227270 0.117552 -0.656481
v -0.146188 0.418504 -0.539245
v 0.099058 0.313800 -0.509584
v -0.468567 -1.167301 -0.630227
v -0.369699 -1.451253 -0.487190
v -0.537117 0.275684 -0.412668
v -0.814718 0.464553 -0.505122
v -1.060184 0.592764 -0.475289
v -0.357756 -0.181085 -0.476694
v -0.703250 -0.683242 -0.438649
v -0.913009 -1.035473 -0.218055
v -0.653940 -0.719062 0.003416
v -0.639958 -0.470810 -0.208309
v -0.682142 0.301023 -0.207122
v -0.725925 0.036033 -0.001318
v -0.664789 0.266857 -0.002638
v -0.383203 0.512391 -0.344078
v -0.888625 0.245125 -0.048782
v -1.060195 0.340009 -0.102680
v -0.286328 0.873800 -0.005784
v -0.228930 1.127304 -0.102538
v -0.218354 1.191826 -0.007629
v -0.036389 1.367068 -0.296239
v -0.162580 1.333050 -0.244980
v 0.199259 1.508471 -0.128574
v 0.384805 1.404054 -0.227374
v 0.359110 1.352255 -0.287860
v 0.330841 1.301433 -0.316525
v 0.657692 1.070962 -0.289148
v 0.421994 1.223325 -0.336675
v 0.432816 1.160515 -0.348387
v 1.093415 0.401549 -0.545565
v 0.845695 0.974118 -0.160262
v 1.321465 0.636786 -0.295079
v 1.326134 0.500699 -0.311795
v 0.618859 0.535014 -0.233665
v -0.086184 0.507319 -0.529971
v -0.300425 0.665632 -0.345171
v -0.085164 0.810001 -0.417756
v 0.122691 0.710103 -0.518852
v -0.952311 -1.424900 -0.482931
v -0.410429 -1.767721 -0.358839
v -0.394913 -1.864394 -0.225429
v -0.654262 -1.682070 -0.255500
v -0.794576 -1.408109 -0.181059
v -0.818700 -1.424400 -0.304804
v -0.643066 -1.645952 -0.140718
v -0.858348 -1.244068 0.467894
v -0.614773 -1.344626 0.485851
v -0.083351 -1.968169 0.267441
v -0.087600 -1.943989 0.118811
v -0.388257 -1.826732 0.108422
v -1.065790 -0.874225 0.676966
v -1.065258 -1.305225 0.504565
v -1.065790 -0.641844 0.675989
v -1.065580 -0.380457 0.605883
v -1.064977 -0.311568 0.408680
v 0.558603 0.449477 0.201119
v 0.479378 0.663700 0.478016
v 1.325195 0.504503 0.309643
v 1.043180 0.707125 0.156019
v 0.431782 1.164702 0.335456
v 0.420998 1.227362 0.322940
v 0.486266 1.276382 0.318026
v 0.372145 1.459763 0.141251
v -0.037258 1.370594 0.279366
v 0.026419 1.280924 0.316227
v 0.135663 1.256024 0.284398
v -0.163294 1.335946 0.228144
v -0.199066 1.267976 0.093157
v -0.015497 1.119757 0.443741
v 0.167620 1.141313 0.383969
v -0.086411 0.815055 0.407545
v -0.116210 1.067160 0.339195
v -0.171805 1.011382 0.251130
v -0.149525 0.853219 0.292267
v -0.785400 -0.101230 0.234516
v -0.638983 -0.139907 0.506702
v -1.062244 0.276364 0.456732
v -0.889417 0.248341 0.043074
v -0.823087 0.458436 0.082096
v -0.723175 0.512033 0.331886
v -0.791977 -0.484010 0.379300
v -0.777749 -0.823574 0.575575
v -0.725702 -0.770658 0.296814
v -0.556479 -0.582996 0.212032
v -0.359197 -0.175240 0.477793
v -0.391618 -0.046122 0.522877
v -0.888080 0.228305 0.486624
v -0.953791 -1.418897 0.497468
v -0.147809 0.425072 0.533636
v -0.087776 0.513769 0.523456
v -0.036831 -0.796227 0.837704
v -0.082632 -1.074939 0.818226
v 0.370933 -1.034708 0.738741
v 0.560126 0.129286 0.294695
v 0.644852 -0.073394 0.364631
v 0.370380 -0.127079 0.605726
v -0.816884 0.473346 0.496914
v -0.479308 -0.315182 0.399259
v -0.376539 -0.252186 0.465772
v -1.061146 0.343877 0.095289
v -0.252766 0.874971 0.129989
v 0.582404 1.298705 0.213439
v 0.197091 1.225245 0.297116
v 0.247221 1.125678 0.330862
v 1.338303 0.276071 0.563638
v 1.320580 0.640378 0.291249
v 1.091769 0.408220 0.543905
v 0.618161 0.537848 0.228962
v -0.770549 -1.253298 0.006511
v -0.795144 -1.405801 0.195888
v -0.988488 -0.392393 0.623800
v -0.395627 -1.861502 0.247051
v -0.643519 -1.644118 0.158924
v -0.955662 -1.549867 -0.336410
v -1.063742 -0.581624 -0.193516
v -1.063738 -0.772638 -0.148605
v 1.232847 0.756663 -0.270629
v 1.171066 0.622539 -0.228645
v 1.097731 0.433946 -0.282951
v 0.365321 1.068487 -0.352425
v 0.295405 0.959993 -0.461523
v -0.198761 1.266737 -0.109281
v -0.014135 1.114238 -0.457467
v 0.168800 1.136529 -0.397411
v -0.115165 1.062924 -0.352590
v -0.784689 -0.104112 -0.235631
v -0.641368 -0.324588 -0.106423
v -0.776020 -0.830577 -0.567792
v -0.892537 -1.084691 -0.598105
v -0.478104 -0.320057 -0.396816
v -0.782301 0.340354 -0.334263
v -0.047069 -0.533248 -0.668206
v -1.060179 0.495294 -0.509849
v -0.375134 -0.257877 -0.463782
v -0.745766 -1.015338 -0.707813
v -0.986606 -0.400020 -0.621931
v -0.964178 -0.320090 -0.425586
v -0.620951 -0.329034 -0.165587
v 0.027398 1.276956 -0.331812
v -0.100170 1.177542 -0.280613
v 0.487248 1.272402 -0.332164
v 1.056310 0.894907 -0.479412
v 0.792454 1.101417 -0.005546
v 0.823984 0.605737 -0.002466
v -1.065181 -1.424226 0.479660
v 0.121137 0.716403 0.510484
v 0.931453 0.521344 0.243518
v 0.504631 1.160522 0.347721
v 0.215793 1.557944 -0.009216
v -0.166530 1.142200 0.193194
v -0.100995 1.180889 0.265867
v -0.675496 -0.314376 0.000905
v -0.747919 -1.006608 0.717937
v -0.704584 -0.677832 0.444858
v -0.045554 -0.079728 0.594091
v 0.714865 -1.026529 0.454800
v -0.470491 -1.159503 0.643061
v -0.432397 -0.914143 0.730117
v -0.337715 -0.237267 0.492182
v 1.054873 0.900730 0.471606
v 0.668544 0.475644 -0.001903
v 0.623927 0.381493 -0.001394
v 0.878159 0.564917 0.505105
v -0.965464 -0.314870 0.426559
v -0.631909 -1.418395 0.007732
v -1.063755 -0.650094 -0.671294
v -1.063753 -0.387867 -0.604394
v 0.505702 1.156186 -0.360380
v -0.165926 1.139745 -0.207670
v -1.063744 -0.316568 -0.408049
# 453 vertices

vn -0.829708 0.558179 -0.004672
vn -0.691579 0.722281 -0.005468
vn -0.301778 0.853746 -0.424320
vn -0.247760 0.875203 0.415493
vn -0.044450 0.995174 -0.087485
vn -0.103152 0.211909 0.971830
vn -0.366890 0.180569 0.912572
vn -0.155770 0.133415 0.978742
vn -0.100219 0.199990 -0.974659
vn -0.157658 0.139251 -0.977626
vn -0.242807 0.134150 -0.960754
vn -0.229072 0.098994 0.968363
vn -0.077283 0.238272 0.968119
vn -0.213149 0.044254 -0.976017
vn 0.019761 0.316535 -0.948375
vn 0.090846 0.369709 0.924696
vn -0.058040 0.303970 0.950912
vn -0.213064 0.038907 -0.976263
vn -0.057978 0.176632 -0.982568
vn -0.063228 0.378538 0.923424
vn -0.127986 0.302141 -0.944632
vn -0.194353 -0.349912 0.916400
vn 0.272196 0.383921 0.882334
vn -0.038673 0.316847 0.947688
vn -0.308019 -0.154932 0.938680
vn -0.268728 0.131436 -0.954206
vn -0.194987 0.321791 -0.926515
vn -0.100078 0.393711 -0.913770
vn 0.128897 0.205613 -0.970108
vn -0.183961 -0.412710 -0.892092
vn -0.271963 -0.115885 -0.955305
vn 0.107299 0.442832 -0.890161
vn -0.269010 0.080771 0.959745
vn -0.126458 0.428973 0.894422
vn -0.121771 0.394240 0.910904
vn 0.130714 0.296364 0.946088
vn 0.399988 0.581418 0.708493
vn 0.047565 0.304082 -0.951458
vn 0.397386 0.561845 -0.725544
vn 0.032167 0.504184 -0.862997
vn 0.100144 0.580884 0.807802
vn 0.320186 0.645761 0.693162
vn 0.263462 0.605828 -0.750707
vn 0.767512 0.012961 0.640904
vn 0.717857 -0.056175 0.693921
vn 0.995841 0.090873 0.006570
vn 0.981729 0.093013 -0.166003
vn 0.258153 -0.853442 0.452762
vn -0.234850 -0.971879 -0.017219
vn 0.451531 -0.786397 0.421544
vn 0.566660 -0.822057 0.055836
vn -0.221568 -0.974458 0.036587
vn -0.184096 -0.982908 0.000956
vn 0.586924 -0.735596 -0.338258
vn 0.105878 -0.757760 -0.643887
vn 0.366705 -0.381940 -0.848322
vn 0.160235 -0.460853 -0.872891
vn -0.207005 -0.978340 -0.000291
vn -0.078201 -0.996356 0.034051
vn -0.351778 -0.925971 -0.137223
vn -0.173328 -0.984864 -0.001145
vn 0.417268 -0.067405 0.906280
vn 0.579055 -0.309281 0.754348
vn -0.392878 -0.911292 0.123261
vn 0.050318 -0.998545 -0.019386
vn -0.208821 -0.977877 0.012268
vn 0.295096 -0.783691 -0.546578
vn 0.535301 -0.267730 -0.801108
vn 0.394678 -0.019712 -0.918608
vn 0.650589 0.101142 -0.752665
vn 0.101966 -0.563330 0.819916
vn 0.062802 -0.776238 0.627305
vn 0.352900 -0.322614 0.878284
vn 0.709547 0.002096 -0.704655
vn 0.439429 -0.275283 -0.855056
vn 0.389162 0.130093 -0.911937
vn 0.775291 -0.030027 -0.630890
vn 0.779618 -0.269908 -0.565107
vn 0.709601 0.260758 -0.654578
vn 0.681017 0.345600 -0.645582
vn 0.908112 0.418699 -0.004832
vn 0.984750 0.172257 0.024403
vn 0.645731 -0.476731 -0.596456
vn 0.944042 -0.329653 0.010694
vn 0.896915 -0.420530 0.136743
vn 0.993066 -0.117179 0.009402
vn 0.332567 0.313564 -0.889425
vn 0.305669 0.289247 -0.907140
vn 0.061994 -0.482177 -0.873878
vn 0.024900 -0.635729 -0.771510
vn 0.724071 0.349726 -0.594485
vn 0.864452 0.490220 -0.111391
vn 0.436689 0.124884 -0.890902
vn 0.329590 0.235811 0.914201
vn 0.387195 0.165543 0.907014
vn 0.770264 0.016033 0.637523
vn 0.735571 0.190878 0.650001
vn 0.135832 -0.496323 0.857446
vn -0.079507 -0.615364 0.784223
vn 0.608405 -0.481021 0.631239
vn -0.234407 -0.015086 0.972022
vn -0.404706 -0.009967 0.914393
vn 0.177165 -0.113181 0.977652
vn -0.648064 0.077406 0.757642
vn -0.575690 0.459352 0.676444
vn -0.172687 0.275565 0.945644
vn -0.159782 0.238346 0.957946
vn 0.153689 -0.238043 0.959018
vn -0.025244 -0.161907 0.986483
vn -0.164665 -0.322761 0.932047
vn -0.639566 0.453238 0.620911
vn -0.804950 0.589933 -0.063520
vn -0.840416 0.539793 0.048212
vn -0.628377 0.466748 0.622325
vn -0.847351 -0.281470 0.450300
vn -0.872489 -0.072397 0.483241
vn -0.953592 0.283627 -0.101087
vn -0.190215 0.087381 -0.977846
vn -0.778732 0.601309 -0.178897
vn 0.069768 0.149010 0.986371
vn 0.416387 -0.061705 0.907091
vn 0.679672 0.227689 0.697283
vn -0.978696 -0.107732 0.174780
vn -0.999553 0.029841 -0.001695
vn 0.839839 0.500347 0.210529
vn -0.328110 0.730272 0.599204
vn 0.028933 0.927306 -0.373185
vn -0.900090 0.035593 0.434249
vn -0.318099 0.556878 0.767268
vn -0.142498 0.984495 0.102294
vn -0.689228 0.553347 -0.467731
vn -0.856014 0.150508 -0.494558
vn -0.964926 0.260259 -0.034386
vn -0.952014 0.166482 0.256813
vn -0.965316 0.164626 0.202643
vn -0.995488 0.062464 -0.071430
vn 0.352558 0.498998 0.791646
vn 0.253162 0.583356 0.771755
vn 0.154539 0.311283 0.937668
vn -0.942981 0.332829 -0.003459
vn -0.987511 0.124296 0.096815
vn -0.929810 0.332321 0.158164
vn -0.770636 0.604062 0.203050
vn -0.326744 0.659962 0.676527
vn 0.113071 0.678605 0.725748
vn 0.152041 0.893314 0.422935
vn -0.017336 0.477377 0.878528
vn -0.000530 0.571917 0.820311
vn 0.166845 0.779127 0.604255
vn -0.180294 0.143715 0.973057
vn -0.084931 0.096433 0.991709
vn 0.144870 0.367778 0.918560
vn 0.146269 0.868882 0.472915
vn 0.514720 0.603250 0.609224
vn 0.011435 0.572313 0.819956
vn 0.643056 -0.392942 0.657324
vn 0.911149 0.353827 -0.211219
vn 0.808803 0.583306 -0.074779
vn 0.471317 0.785388 -0.401280
vn 0.484658 -0.015563 -0.874565
vn 0.065224 -0.730296 -0.680009
vn -0.067742 -0.704476 -0.706488
vn 0.342425 -0.097900 -0.934431
vn 0.345975 0.931474 0.112505
vn 0.051942 0.168132 0.984395
vn 0.574228 0.483523 -0.660657
vn 0.516701 0.537533 -0.666393
vn -0.284926 -0.259433 0.922774
vn 0.308921 0.072248 0.948340
vn 0.506086 -0.626084 0.593208
vn -0.310043 -0.870934 -0.381246
vn 0.209952 0.091858 0.973387
vn 0.406856 0.210691 0.888863
vn 0.315859 -0.156069 0.935882
vn -0.679075 -0.039925 -0.732982
vn -0.917690 -0.028975 -0.396239
vn -0.266226 -0.123685 -0.955942
vn -0.207663 0.069772 -0.975709
vn -0.478527 0.439889 -0.759940
vn 0.295448 0.399315 -0.867904
vn 0.211337 0.196229 -0.957513
vn -0.236210 -0.429475 0.871640
vn -0.269239 -0.527916 0.805491
vn -0.390568 -0.790915 -0.471073
vn 0.324478 -0.705522 -0.630042
vn 0.355708 -0.896929 0.262660
vn -0.645342 -0.702119 0.300935
vn -0.033223 -0.653591 0.756119
vn -0.126958 -0.974923 0.182778
vn -0.717098 -0.690018 0.098217
vn -0.474943 -0.544646 0.691224
vn 0.025380 -0.492810 -0.869766
vn -0.246580 -0.438750 -0.864116
vn -0.467270 -0.498484 -0.730186
vn 0.087641 -0.546057 -0.833151
vn -0.089373 -0.166274 0.982021
vn -0.814492 -0.029240 0.579437
vn -0.579258 -0.490016 0.651418
vn 0.146639 -0.792480 0.592007
vn 0.132189 -0.958042 -0.254324
vn -0.306337 -0.895933 0.321655
vn -0.493006 -0.747329 -0.445471
vn -0.382817 -0.620509 0.684412
vn -0.028691 -0.902307 0.430138
vn -0.841233 -0.178888 -0.510221
vn -0.794651 -0.076425 -0.602237
vn -0.011287 -0.237144 -0.971409
vn -0.147355 -0.300061 -0.942470
vn -0.374148 -0.491778 -0.786236
vn -0.645512 -0.762764 -0.038797
vn -0.891101 0.031881 0.452684
vn 0.360663 -0.270028 -0.892752
vn 0.776132 -0.232206 -0.586259
vn -0.463500 -0.465181 -0.754171
vn -0.167009 -0.739907 0.651648
vn -0.273449 -0.890948 0.362542
vn 0.063161 -0.721910 0.689098
vn 0.018744 -0.120605 -0.992524
vn 0.957544 -0.274147 -0.089174
vn 0.445943 0.697058 0.561466
vn 0.210084 0.926987 -0.310739
vn 0.166472 0.893265 -0.417569
vn 0.667818 -0.508508 -0.543544
vn 0.981075 -0.193610 0.002664
vn 0.562563 0.048430 0.825335
vn 0.360288 -0.079889 0.929414
vn 0.524255 0.587429 0.616509
vn 0.396269 0.479342 -0.783072
vn 0.375896 0.437299 -0.816989
vn 0.308932 0.513110 -0.800799
vn 0.251029 0.047634 -0.966807
vn 0.141272 0.377759 -0.915063
vn -0.150216 -0.018841 -0.988474
vn -0.011320 0.441873 -0.897006
vn 0.016923 0.122334 -0.992345
vn 0.214437 0.408003 -0.887440
vn 0.201785 0.494719 -0.845302
vn 0.588606 0.618976 -0.520011
vn 0.242551 0.804907 -0.541566
vn 0.421054 0.906921 0.014385
vn 0.715777 0.692516 0.089916
vn -0.249409 0.605486 -0.755766
vn 0.111999 0.693295 -0.711897
vn -0.823396 0.525664 -0.213769
vn -0.984337 0.136418 -0.111675
vn -0.913092 0.378470 -0.151736
vn 0.601475 -0.136718 -0.787107
vn 0.123722 0.265312 -0.956192
vn 0.330049 0.564005 -0.756945
vn -0.946117 0.169554 -0.275888
vn -0.839965 0.180956 -0.511580
vn -0.805375 0.223782 -0.548901
vn -0.810805 0.425048 -0.402405
vn -0.129392 0.829990 0.542563
vn -0.772263 0.177558 0.609986
vn 0.567785 0.300301 0.766446
vn 0.863158 0.478835 -0.160233
vn -0.808925 0.580909 -0.090472
vn 0.745914 0.203018 -0.634347
vn 0.424062 -0.071925 -0.902772
vn 0.057375 0.093501 -0.993965
vn 0.328265 0.469137 0.819849
vn 0.300118 0.082020 0.950369
vn 0.286810 0.676168 0.678629
vn 0.826651 0.550756 0.115395
vn -0.796490 0.596200 0.100749
vn -0.870654 0.087163 -0.484111
vn -0.593111 0.385070 -0.707064
vn -0.653201 0.074627 -0.753498
vn -0.559481 0.154716 -0.814275
vn -0.382475 -0.142965 -0.912839
vn -0.090030 0.156593 -0.983551
vn -0.231775 0.169371 -0.957911
vn 0.286167 -0.055083 -0.956595
vn -0.232009 -0.035823 -0.972054
vn -0.357145 -0.498228 -0.790074
vn -0.748983 -0.386270 -0.538349
vn -0.273115 0.273859 -0.922176
vn -0.059826 0.270044 -0.960987
vn -0.104552 -0.323185 -0.940543
vn 0.199375 -0.047845 -0.978755
vn -0.309549 0.082278 -0.947317
vn -0.131995 0.291576 -0.947397
vn 0.168669 0.037798 -0.984948
vn -0.200603 -0.475626 -0.856469
vn -0.226249 -0.407739 -0.884625
vn -0.479856 0.642578 -0.597354
vn 0.413418 0.259901 -0.872661
vn -0.055810 0.696999 -0.714897
vn -0.341911 -0.218435 -0.913993
vn -0.638358 0.708915 -0.299898
vn -0.336785 0.155902 0.928585
vn -0.994884 0.101001 -0.002122
vn -0.871024 -0.078327 -0.484955
vn -0.660090 0.750328 0.035913
vn -0.985501 -0.074960 -0.152212
vn -0.805048 0.589890 0.062671
vn -0.663657 0.438578 -0.605978
vn -0.107131 0.253890 0.961282
vn -0.871205 -0.246611 0.424482
vn -0.926100 0.377260 -0.003709
vn -0.980772 0.080452 -0.177805
vn -0.996550 -0.082876 -0.004482
vn -0.046314 0.357007 -0.932953
vn -0.687960 0.151409 -0.709779
vn 0.125438 0.880643 -0.456874
vn 0.145231 0.760545 -0.632835
vn 0.100570 0.674262 -0.731612
vn -0.206438 0.098349 -0.973504
vn 0.481010 0.534292 -0.695098
vn -0.158415 0.137138 -0.977803
vn -0.384687 0.203817 -0.900264
vn -0.306967 -0.779013 -0.546727
vn 0.743350 0.659817 0.109875
vn 0.609467 0.047723 0.791374
vn 0.490151 -0.228997 0.841018
vn 0.704125 -0.514888 -0.488977
vn -0.206901 0.212161 -0.955081
vn -0.610228 0.471801 -0.636416
vn -0.565287 0.214857 -0.796422
vn -0.115880 0.045437 -0.992223
vn 0.375026 -0.461738 -0.803837
vn -0.312718 -0.609084 -0.728851
vn -0.467371 -0.883942 -0.014510
vn -0.720412 -0.684827 -0.109629
vn -0.279471 -0.811016 0.513955
vn -0.080239 -0.900554 -0.427276
vn -0.663815 -0.584353 0.466778
vn -0.015003 -0.517326 0.855657
vn -0.218043 -0.390324 0.894485
vn 0.052664 -0.986673 0.153955
vn 0.075367 -0.875404 -0.477480
vn -0.436525 -0.764443 -0.474419
vn -0.681570 -0.187353 0.707362
vn -0.767392 -0.172792 0.617457
vn -0.691746 0.067491 0.718980
vn -0.665569 0.412864 0.621740
vn -0.590142 0.806892 -0.025649
vn 0.771593 -0.306350 0.557489
vn 0.517463 -0.128417 0.846015
vn 0.544529 -0.209458 -0.812167
vn 0.309468 -0.200874 -0.929451
vn -0.305030 0.184414 0.934317
vn -0.164429 0.169811 0.971662
vn 0.217618 0.445594 0.868382
vn 0.297171 0.800104 0.521079
vn -0.093505 0.325527 0.940898
vn -0.108251 0.502885 0.857548
vn 0.158335 0.483014 0.861178
vn -0.801188 0.164085 0.575478
vn -0.875761 0.138980 0.462307
vn -0.246749 0.443538 0.861620
vn 0.318069 0.647125 0.692864
vn -0.689945 0.154666 0.707145
vn -0.814882 0.242653 0.526391
vn -0.855169 0.123759 0.503358
vn -0.775335 0.334418 0.535743
vn -0.781895 -0.622865 0.026041
vn -0.294869 -0.448387 0.843802
vn -0.748458 -0.283451 0.599555
vn 0.438796 0.260026 -0.860142
vn 0.291038 0.493995 -0.819308
vn 0.976869 0.213515 -0.011725
vn 0.853563 0.438972 -0.280596
vn 0.022916 0.652956 0.757049
vn 0.186887 0.979518 -0.074957
vn -0.872109 0.093064 0.480379
vn -0.336783 -0.215075 0.916690
vn -0.172655 -0.067061 0.982697
vn 0.126105 0.171213 0.977130
vn 0.196322 -0.472604 0.859129
vn -0.207955 0.363251 0.908187
vn -0.199216 0.203238 0.958649
vn -0.135764 0.151157 0.979142
vn -0.115337 -0.316179 0.941663
vn 0.367221 -0.243467 0.897704
vn 0.748038 0.369572 0.551231
vn 0.693479 0.353321 0.627894
vn 0.380090 0.283468 0.880442
vn 0.439981 0.206853 0.873858
vn -0.608321 -0.404710 0.682756
vn -0.598530 0.155417 0.785880
vn -0.642972 -0.188163 -0.742416
vn -0.827455 0.362355 0.428973
vn 0.583284 0.635741 0.505583
vn 0.248100 0.405350 0.879851
vn 0.285622 0.560208 0.777552
vn -0.112662 -0.187863 0.975712
vn 0.571692 0.069023 -0.817560
vn -0.195785 -0.421653 0.885368
vn 0.700121 -0.515865 0.493674
vn -0.878707 -0.395799 0.266866
vn -0.378128 -0.681879 -0.626147
vn 0.249875 0.698258 0.670819
vn -0.426820 -0.847069 0.316699
vn -0.674788 -0.526374 -0.517292
vn 0.335956 -0.890739 -0.306133
vn -0.488058 0.329876 0.808072
vn -0.238271 -0.067125 0.968876
vn 0.567253 0.371660 0.734910
vn 0.270153 -0.185086 0.944860
vn -0.268023 -0.810196 0.521293
vn 0.000388 0.579756 -0.814790
vn 0.316504 0.612763 -0.724118
vn -0.891275 0.115227 -0.438579
vn -0.337117 0.392412 -0.855783
vn 0.342865 0.586910 -0.733471
vn -0.806971 0.250267 -0.534943
vn -0.796501 -0.588348 0.139404
vn -0.978165 -0.109886 -0.176403
vn 0.032461 0.456252 -0.889259
vn 0.091552 -0.280893 -0.955362
vn -0.571872 -0.272226 -0.773858
vn 0.926815 0.234524 -0.293279
vn -0.144680 0.267784 -0.952554
vn -0.819325 0.015949 -0.573107
vn -0.561786 0.024277 -0.826926
vn -0.293316 -0.185065 -0.937932
vn 0.300414 0.555405 -0.775420
vn 0.322054 0.940986 0.104050
vn -0.823835 -0.380119 -0.420482
vn -0.208424 0.482555 -0.850706
vn -0.773092 0.195237 -0.603499
vn 0.187873 0.433813 -0.881198
vn -0.135439 -0.083389 -0.987270
vn 0.904642 0.418739 -0.079245
vn 0.890709 -0.454555 0.004128
vn -0.763518 -0.337379 0.550650
vn -0.197109 0.069424 0.977921
vn -0.263691 -0.792106 -0.550487
vn 0.093581 0.156570 0.983223
vn 0.185825 0.982432 0.017204
vn -0.827956 0.245496 0.504203
vn -0.716701 0.236571 0.656029
vn -0.999784 -0.020728 -0.001380
vn -0.231612 -0.004578 0.972798
vn -0.442536 0.733955 0.515240
vn -0.014559 0.065435 0.997751
vn 0.756389 -0.244764 0.606602
vn -0.219261 -0.414100 0.883428
vn -0.243430 0.214588 0.945882
vn -0.548532 0.176731 0.817238
vn -0.159055 0.120415 0.979899
vn 0.784091 -0.613373 0.094734
vn 0.994045 -0.096502 -0.050610
vn -0.381283 -0.248899 0.890321
vn 0.462491 0.849759 -0.253006
vn -0.750839 -0.652428 0.102855
vn -0.675898 0.125581 -0.726218
vn -0.625536 0.610896 -0.485296
vn 0.219184 0.195280 -0.955941
vn -0.812611 0.250116 -0.526408
vn -0.574594 0.719206 0.390620
# 453 vertex normals

g Material_0
f 1/1/1 2/2/2 3/3/3
f 4/4/4 5/5/5 2/2/2
f 3/3/3 2/2/2 5/5/5
f 1/1/1 4/4/4 2/2/2
f 6/6/6 7/7/7 8/8/8
f 9/9/9 10/10/10 11/11/11
f 6/6/6 8/8/8 12/12/12
f 6/6/6 12/12/12 13/13/13
f 9/9/9 11/11/11 14/14/14
f 9/9/9 15/15/15 10/10/10
f 6/6/6 16/16/16 17/17/17
f 9/9/9 14/14/14 18/18/18
f 9/9/9 19/19/19 15/15/15
f 6/6/6 17/17/17 7/7/7
f 6/6/6 20/20/20 16/16/16
f 9/9/9 18/18/18 21/21/21
f 9/9/9 21/21/21 19/19/19
f 6/6/6 13/13/13 20/20/20
f 22/22/22 23/23/23 24/24/24
f 22/22/22 24/24/24 25/25/25
f 26/26/26 27/27/27 28/28/28
f 29/29/29 30/30/30 31/31/31
f 29/29/29 31/31/31 32/32/32
f 33/33/33 34/34/34 35/35/35
f 36/36/36 37/37/37 23/23/23
f 28/28/28 32/32/32 31/31/31
f 28/28/28 31/31/31 26/26/26
f 38/38/38 29/29/29 39/39/39
f 24/24/24 34/34/34 33/33/33
f 24/24/24 33/33/33 25/25/25
f 36/36/36 23/23/23 22/22/22
f 28/28/28 27/27/27 40/40/40
f 38/38/38 30/30/30 29/29/29
f 34/34/34 41/41/41 35/35/35
f 23/23/23 37/37/37 42/42/42
f 23/23/23 42/42/42 24/24/24
f 43/43/43 32/32/32 28/28/28
f 43/43/43 28/28/28 40/40/40
f 39/39/39 29/29/29 32/32/32
f 39/39/39 32/32/32 43/43/43
f 24/24/24 42/42/42 41/41/41
f 24/24/24 41/41/41 34/34/34
f 44/44/44 45/45/45 46/46/46
f 44/44/44 46/46/46 47/47/47
f 48/48/48 49/49/49 50/50/50
f 51/51/51 52/52/52 53/53/53
f 51/51/51 53/53/53 54/54/54
f 55/55/55 56/56/56 57/57/57
f 52/52/52 58/58/58 59/59/59
f 52/52/52 59/59/59 53/53/53
f 55/55/55 60/60/60 61/61/61
f 62/62/62 48/48/48 50/50/50
f 62/62/62 50/50/50 45/45/45
f 62/62/62 45/45/45 44/44/44
f 44/44/44 63/63/63 62/62/62
f 64/64/64 65/65/65 66/66/66
f 64/64/64 66/66/66 49/49/49
f 53/53/53 60/60/60 67/67/67
f 68/68/68 69/69/69 57/57/57
f 68/68/68 57/57/57 56/56/56
f 67/67/67 69/69/69 70/70/70
f 67/67/67 70/70/70 54/54/54
f 71/71/71 72/72/72 64/64/64
f 72/72/72 65/65/65 64/64/64
f 45/45/45 50/50/50 51/51/51
f 45/45/45 51/51/51 46/46/46
f 62/62/62 63/63/63 73/73/73
f 62/62/62 73/73/73 71/71/71
f 48/48/48 64/64/64 49/49/49
f 57/57/57 67/67/67 60/60/60
f 57/57/57 69/69/69 67/67/67
f 54/54/54 70/70/70 46/46/46
f 54/54/54 46/46/46 51/51/51
f 55/55/55 57/57/57 60/60/60
f 52/52/52 51/51/51 50/50/50
f 52/52/52 50/50/50 49/49/49
f 71/71/71 48/48/48 62/62/62
f 71/71/71 64/64/64 48/48/48
f 67/67/67 54/54/54 53/53/53
f 70/70/70 74/74/74 47/47/47
f 70/70/70 47/47/47 46/46/46
f 69/69/69 74/74/74 70/70/70
f 69/69/69 68/68/68 74/74/74
f 61/61/61 60/60/60 53/53/53
f 61/61/61 53/53/53 59/59/59
f 58/58/58 52/52/52 49/49/49
f 58/58/58 49/49/49 66/66/66
f 72/72/72 71/71/71 73/73/73
f 75/75/75 76/76/76 77/77/77
f 75/75/75 77/77/77 78/78/78
f 79/79/79 80/80/80 81/81/81
f 79/79/79 81/81/81 82/82/82
f 83/83/83 78/78/78 84/84/84
f 83/83/83 84/84/84 85/85/85
f 74/74/74 68/68/68 83/83/83
f 78/78/78 77/77/77 86/86/86
f 78/78/78 86/86/86 84/84/84
f 87/87/87 88/88/88 80/80/80
f 87/87/87 80/80/80 79/79/79
f 89/89/89 75/75/75 83/83/83
f 55/55/55 90/90/90 89/89/89
f 55/55/55 89/89/89 83/83/83
f 55/55/55 83/83/83 56/56/56
f 76/76/76 87/87/87 79/79/79
f 76/76/76 79/79/79 77/77/77
f 80/80/80 91/91/91 92/92/92
f 80/80/80 92/92/92 81/81/81
f 83/83/83 85/85/85 47/47/47
f 83/83/83 47/47/47 74/74/74
f 68/68/68 56/56/56 83/83/83
f 77/77/77 79/79/79 82/82/82
f 77/77/77 82/82/82 86/86/86
f 88/88/88 93/93/93 91/91/91
f 88/88/88 91/91/91 80/80/80
f 75/75/75 78/78/78 83/83/83
f 94/94/94 95/95/95 96/96/96
f 94/94/94 96/96/96 97/97/97
f 98/98/98 99/99/99 72/72/72
f 98/98/98 72/72/72 73/73/73
f 98/98/98 73/73/73 100/100/100
f 101/101/101 102/102/102 103/103/103
f 104/104/104 105/105/105 106/106/106
f 104/104/104 106/106/106 107/107/107
f 108/108/108 109/109/109 110/110/110
f 111/111/111 112/112/112 113/113/113
f 111/111/111 113/113/113 114/114/114
f 115/115/115 116/116/116 104/104/104
f 117/117/117 118/118/118 119/119/119
f 120/120/120 121/121/121 122/122/122
f 116/116/116 115/115/115 123/123/123
f 116/116/116 123/123/123 124/124/124
f 125/125/125 126/126/126 127/127/127
f 128/128/128 129/129/129 130/130/130
f 128/128/128 130/130/130 131/131/131
f 128/128/128 131/131/131 132/132/132
f 133/133/133 134/134/134 135/135/135
f 133/133/133 135/135/135 136/136/136
f 137/137/137 138/138/138 139/139/139
f 140/140/140 141/141/141 142/142/142
f 143/143/143 144/144/144 4/4/4
f 4/4/4 145/145/145 146/146/146
f 147/147/147 148/148/148 149/149/149
f 150/150/150 147/147/147 151/151/151
f 152/152/152 153/153/153 154/154/154
f 152/152/152 36/36/36 153/153/153
f 151/151/151 13/13/13 12/12/12
f 151/151/151 12/12/12 150/150/150
f 17/17/17 16/16/16 155/155/155
f 33/33/33 35/35/35 156/156/156
f 33/33/33 156/156/156 157/157/157
f 158/158/158 159/159/159 160/160/160
f 161/161/161 162/162/162 163/163/163
f 164/164/164 165/165/165 166/166/166
f 164/164/164 166/166/166 167/167/167
f 168/168/168 169/169/169 170/170/170
f 168/168/168 170/170/170 171/171/171
f 172/172/172 173/173/173 174/174/174
f 175/175/175 176/176/176 118/118/118
f 175/175/175 118/118/118 177/177/177
f 178/178/178 179/179/179 180/180/180
f 178/178/178 180/180/180 181/181/181
f 99/99/99 98/98/98 182/182/182
f 99/99/99 182/182/182 183/183/183
f 184/184/184 185/185/185 186/186/186
f 184/184/184 186/186/186 187/187/187
f 188/188/188 189/189/189 190/190/190
f 188/188/188 190/190/190 191/191/191
f 192/192/192 193/193/193 194/194/194
f 192/192/192 195/195/195 193/193/193
f 196/196/196 197/197/197 198/198/198
f 196/196/196 198/198/198 199/199/199
f 55/55/55 61/61/61 200/200/200
f 201/201/201 202/202/202 203/203/203
f 201/201/201 203/203/203 204/204/204
f 205/205/205 206/206/206 207/207/207
f 205/205/205 207/207/207 208/208/208
f 205/205/205 209/209/209 210/210/210
f 205/205/205 210/210/210 198/198/198
f 205/205/205 198/198/198 197/197/197
f 206/206/206 205/205/205 197/197/197
f 206/206/206 197/197/197 211/211/211
f 93/93/93 212/212/212 213/213/213
f 214/214/214 215/215/215 216/216/216
f 217/217/217 218/218/218 219/219/219
f 220/220/220 221/221/221 222/222/222
f 223/223/223 216/216/216 224/224/224
f 220/220/220 225/225/225 226/226/226
f 220/220/220 226/226/226 227/227/227
f 31/31/31 228/228/228 229/229/229
f 31/31/31 229/229/229 26/26/26
f 15/15/15 19/19/19 230/230/230
f 231/231/231 232/232/232 38/38/38
f 231/231/231 38/38/38 233/233/233
f 234/234/234 235/235/235 236/236/236
f 234/234/234 236/236/236 237/237/237
f 238/238/238 239/239/239 240/240/240
f 238/238/238 240/240/240 241/241/241
f 242/242/242 3/3/3 243/243/243
f 244/244/244 1/1/1 3/3/3
f 245/245/245 140/140/140 246/246/246
f 231/231/231 247/247/247 248/248/248
f 231/231/231 248/248/248 249/249/249
f 250/250/250 251/251/251 252/252/252
f 250/250/250 252/252/252 253/253/253
f 254/254/254 255/255/255 256/256/256
f 254/254/254 256/256/256 257/257/257
f 254/254/254 257/257/257 258/258/258
f 259/259/259 260/260/260 261/261/261
f 262/262/262 263/263/263 264/264/264
f 262/262/262 264/264/264 265/265/265
f 266/266/266 267/267/267 268/268/268
f 269/269/269 270/270/270 271/271/271
f 269/269/269 271/271/271 272/272/272
f 269/269/269 272/272/272 273/273/273
f 274/274/274 275/275/275 276/276/276
f 276/276/276 277/277/277 274/274/274
f 278/278/278 279/279/279 280/280/280
f 281/281/281 282/282/282 283/283/283
f 281/281/281 283/283/283 284/284/284
f 193/193/193 285/285/285 280/280/280
f 193/193/193 280/280/280 286/286/286
f 281/281/281 284/284/284 93/93/93
f 275/275/275 287/287/287 282/282/282
f 260/260/260 207/207/207 261/261/261
f 257/257/257 288/288/288 289/289/289
f 257/257/257 289/289/289 258/258/258
f 271/271/271 270/270/270 290/290/290
f 291/291/291 268/268/268 278/278/278
f 292/292/292 264/264/264 263/263/263
f 293/293/293 124/124/124 294/294/294
f 295/295/295 296/296/296 297/297/297
f 113/113/113 298/298/298 287/287/287
f 299/299/299 256/256/256 255/255/255
f 299/299/299 255/255/255 300/300/300
f 250/250/250 253/253/253 301/301/301
f 301/301/301 133/133/133 250/250/250
f 302/302/302 136/136/136 303/303/303
f 302/302/302 303/303/303 245/245/245
f 242/242/242 304/304/304 305/305/305
f 3/3/3 306/306/306 243/243/243
f 234/234/234 307/307/307 308/308/308
f 308/308/308 309/309/309 234/234/234
f 232/232/232 310/310/310 222/222/222
f 222/222/222 38/38/38 232/232/232
f 14/14/14 311/311/311 312/312/312
f 235/235/235 10/10/10 15/15/15
f 235/235/235 15/15/15 236/236/236
f 43/43/43 40/40/40 218/218/218
f 43/43/43 218/218/218 313/313/313
f 314/314/314 224/224/224 225/225/225
f 216/216/216 215/215/215 226/226/226
f 216/216/216 226/226/226 225/225/225
f 219/219/219 229/229/229 315/315/315
f 219/219/219 315/315/315 316/316/316
f 212/212/212 247/247/247 317/317/317
f 212/212/212 317/317/317 213/213/213
f 318/318/318 319/319/319 320/320/320
f 318/318/318 320/320/320 321/321/321
f 209/209/209 205/205/205 208/208/208
f 209/209/209 208/208/208 322/322/322
f 58/58/58 201/201/201 204/204/204
f 200/200/200 61/61/61 59/59/59
f 200/200/200 59/59/59 204/204/204
f 323/323/323 324/324/324 325/325/325
f 323/323/323 325/325/325 194/194/194
f 326/326/326 327/327/327 325/325/325
f 326/326/326 325/325/325 328/328/328
f 329/329/329 191/191/191 330/330/330
f 175/175/175 177/177/177 185/185/185
f 175/175/175 185/185/185 184/184/184
f 72/72/72 331/331/331 65/65/65
f 202/202/202 201/201/201 332/332/332
f 202/202/202 332/332/332 333/333/333
f 334/334/334 335/335/335 110/110/110
f 334/334/334 110/110/110 109/109/109
f 335/335/335 334/334/334 176/176/176
f 335/335/335 176/176/176 175/175/175
f 176/176/176 334/334/334 336/336/336
f 176/176/176 336/336/336 337/337/337
f 176/176/176 337/337/337 338/338/338
f 176/176/176 338/338/338 179/179/179
f 176/176/176 179/179/179 178/178/178
f 173/173/173 339/339/339 174/174/174
f 170/170/170 169/169/169 340/340/340
f 161/161/161 341/341/341 156/156/156
f 167/167/167 153/153/153 164/164/164
f 167/167/167 159/159/159 153/153/153
f 171/171/171 170/170/170 224/224/224
f 160/160/160 159/159/159 167/167/167
f 160/160/160 167/167/167 342/342/342
f 165/165/165 25/25/25 33/33/33
f 165/165/165 33/33/33 157/157/157
f 7/7/7 17/17/17 155/155/155
f 7/7/7 155/155/155 343/343/343
f 152/152/152 137/137/137 169/169/169
f 344/344/344 345/345/345 148/148/148
f 344/344/344 148/148/148 150/150/150
f 147/147/147 149/149/149 346/346/346
f 347/347/347 348/348/348 349/349/349
f 350/350/350 143/143/143 142/142/142
f 350/350/350 142/142/142 351/351/351
f 352/352/352 139/139/139 138/138/138
f 352/352/352 138/138/138 353/353/353
f 354/354/354 355/355/355 356/356/356
f 354/354/354 356/356/356 357/357/357
f 358/358/358 359/359/359 360/360/360
f 361/361/361 362/362/362 363/363/363
f 361/361/361 363/363/363 125/125/125
f 358/358/358 296/296/296 123/123/123
f 364/364/364 122/122/122 365/365/365
f 364/364/364 365/365/365 366/366/366
f 119/119/119 293/293/293 117/117/117
f 116/116/116 367/367/367 104/104/104
f 368/368/368 369/369/369 359/359/359
f 370/370/370 369/369/369 126/126/126
f 108/108/108 371/371/371 329/329/329
f 372/372/372 172/172/172 373/373/373
f 374/374/374 375/375/375 376/376/376
f 374/374/374 376/376/376 95/95/95
f 63/63/63 44/44/44 100/100/100
f 97/97/97 96/96/96 86/86/86
f 97/97/97 86/86/86 82/82/82
f 377/377/377 378/378/378 81/81/81
f 377/377/377 81/81/81 92/92/92
f 100/100/100 73/73/73 63/63/63
f 107/107/107 106/106/106 94/94/94
f 107/107/107 94/94/94 379/379/379
f 369/369/369 101/101/101 126/126/126
f 108/108/108 110/110/110 371/371/371
f 380/380/380 370/370/370 125/125/125
f 380/380/380 125/125/125 363/363/363
f 381/381/381 382/382/382 368/368/368
f 367/367/367 105/105/105 104/104/104
f 119/119/119 181/181/181 366/366/366
f 108/108/108 365/365/365 122/122/122
f 108/108/108 122/122/122 121/121/121
f 123/123/123 115/115/115 358/358/358
f 297/297/297 127/127/127 126/126/126
f 362/362/362 361/361/361 383/383/383
f 362/362/362 383/383/383 132/132/132
f 134/134/134 301/301/301 384/384/384
f 134/134/134 133/133/133 301/301/301
f 136/136/136 135/135/135 141/141/141
f 136/136/136 141/141/141 303/303/303
f 350/350/350 144/144/144 143/143/143
f 144/144/144 145/145/145 4/4/4
f 346/346/346 385/385/385 241/241/241
f 346/346/346 241/241/241 240/240/240
f 151/151/151 147/147/147 349/349/349
f 151/151/151 349/349/349 386/386/386
f 152/152/152 169/169/169 168/168/168
f 152/152/152 168/168/168 36/36/36
f 16/16/16 20/20/20 386/386/386
f 16/16/16 386/386/386 387/387/387
f 35/35/35 41/41/41 388/388/388
f 35/35/35 388/388/388 156/156/156
f 166/166/166 389/389/389 163/163/163
f 224/224/224 160/160/160 171/171/171
f 389/389/389 166/166/166 157/157/157
f 162/162/162 161/161/161 390/390/390
f 340/340/340 391/391/391 170/170/170
f 173/173/173 377/377/377 339/339/339
f 177/177/177 392/392/392 393/393/393
f 337/337/337 336/336/336 120/120/120
f 337/337/337 120/120/120 394/394/394
f 371/371/371 188/188/188 329/329/329
f 72/72/72 99/99/99 331/331/331
f 333/333/333 395/395/395 190/190/190
f 333/333/333 190/190/190 396/396/396
f 329/329/329 188/188/188 191/191/191
f 327/327/327 192/192/192 194/194/194
f 327/327/327 194/194/194 325/325/325
f 199/199/199 198/198/198 210/210/210
f 199/199/199 210/210/210 397/397/397
f 89/89/89 90/90/90 323/323/323
f 89/89/89 323/323/323 286/286/286
f 398/398/398 399/399/399 263/263/263
f 398/398/398 263/263/263 262/262/262
f 211/211/211 197/197/197 196/196/196
f 211/211/211 196/196/196 292/292/292
f 284/284/284 212/212/212 93/93/93
f 231/231/231 233/233/233 216/216/216
f 231/231/231 216/216/216 223/223/223
f 228/228/228 221/221/221 227/227/227
f 228/228/228 227/227/227 400/400/400
f 217/217/217 401/401/401 402/402/402
f 225/225/225 220/220/220 314/314/314
f 27/27/27 26/26/26 229/229/229
f 27/27/27 229/229/229 219/219/219
f 21/21/21 403/403/403 230/230/230
f 10/10/10 235/235/235 309/309/309
f 10/10/10 309/309/309 11/11/11
f 404/404/404 403/403/403 232/232/232
f 404/404/404 232/232/232 249/249/249
f 309/309/309 235/235/235 234/234/234
f 239/239/239 238/238/238 307/307/307
f 234/234/234 304/304/304 242/242/242
f 234/234/234 242/242/242 243/243/243
f 244/244/244 305/305/305 405/405/405
f 244/244/244 405/405/405 246/246/246
f 248/248/248 406/406/406 407/407/407
f 248/248/248 407/407/407 404/404/404
f 408/408/408 320/320/320 252/252/252
f 408/408/408 252/252/252 251/251/251
f 409/409/409 300/300/300 277/277/277
f 295/295/295 297/297/297 113/113/113
f 409/409/409 410/410/410 296/296/296
f 411/411/411 412/412/412 260/260/260
f 411/411/411 260/260/260 259/259/259
f 292/292/292 266/266/266 264/264/264
f 267/267/267 294/294/294 269/269/269
f 413/413/413 276/276/276 290/290/290
f 274/274/274 288/288/288 257/257/257
f 274/274/274 257/257/257 414/414/414
f 412/412/412 195/195/195 322/322/322
f 322/322/322 208/208/208 412/412/412
f 283/283/283 318/318/318 284/284/284
f 415/415/415 273/273/273 88/88/88
f 415/415/415 88/88/88 87/87/87
f 279/279/279 415/415/415 87/87/87
f 279/279/279 87/87/87 76/76/76
f 275/275/275 282/282/282 271/271/271
f 275/275/275 271/271/271 290/290/290
f 280/280/280 285/285/285 278/278/278
f 416/416/416 288/288/288 274/274/274
f 416/416/416 274/274/274 277/277/277
f 290/290/290 270/270/270 417/417/417
f 411/411/411 291/291/291 278/278/278
f 411/411/411 278/278/278 418/418/418
f 419/419/419 420/420/420 265/265/265
f 419/419/419 265/265/265 259/259/259
f 410/410/410 421/421/421 294/294/294
f 410/410/410 294/294/294 124/124/124
f 409/409/409 296/296/296 299/299/299
f 409/409/409 299/299/299 300/300/300
f 421/421/421 409/409/409 276/276/276
f 421/421/421 276/276/276 413/413/413
f 320/320/320 408/408/408 406/406/406
f 407/407/407 406/406/406 422/422/422
f 407/407/407 422/422/422 237/237/237
f 245/245/245 246/246/246 405/405/405
f 422/422/422 423/423/423 305/305/305
f 422/422/422 305/305/305 304/304/304
f 237/237/237 422/422/422 304/304/304
f 234/234/234 239/239/239 307/307/307
f 424/424/424 311/311/311 309/309/309
f 424/424/424 309/309/309 308/308/308
f 232/232/232 231/231/231 249/249/249
f 21/21/21 18/18/18 312/312/312
f 21/21/21 312/312/312 403/403/403
f 38/38/38 425/425/425 30/30/30
f 314/314/314 426/426/426 224/224/224
f 215/215/215 402/402/402 401/401/401
f 215/215/215 401/401/401 226/226/226
f 317/317/317 223/223/223 427/427/427
f 229/229/229 228/228/228 400/400/400
f 216/216/216 233/233/233 214/214/214
f 253/253/253 319/319/319 112/112/112
f 319/319/319 252/252/252 320/320/320
f 209/209/209 322/322/322 397/397/397
f 209/209/209 397/397/397 210/210/210
f 399/399/399 211/211/211 292/292/292
f 399/399/399 292/292/292 263/263/263
f 280/280/280 75/75/75 89/89/89
f 322/322/322 192/192/192 327/327/327
f 322/322/322 327/327/327 397/397/397
f 285/285/285 195/195/195 418/418/418
f 189/189/189 393/393/393 396/396/396
f 189/189/189 396/396/396 190/190/190
f 395/395/395 183/183/183 191/191/191
f 395/395/395 191/191/191 190/190/190
f 65/65/65 331/331/331 332/332/332
f 65/65/65 332/332/332 66/66/66
f 58/58/58 66/66/66 332/332/332
f 335/335/335 428/428/428 371/371/371
f 335/335/335 371/371/371 110/110/110
f 111/111/111 373/373/373 429/429/429
f 111/111/111 429/429/429 354/354/354
f 340/340/340 174/174/174 339/339/339
f 340/340/340 339/339/339 391/391/391
f 157/157/157 156/156/156 341/341/341
f 157/157/157 341/341/341 389/389/389
f 430/430/430 171/171/171 160/160/160
f 430/430/430 160/160/160 342/342/342
f 158/158/158 160/160/160 224/224/224
f 41/41/41 42/42/42 390/390/390
f 41/41/41 390/390/390 388/388/388
f 13/13/13 151/151/151 386/386/386
f 13/13/13 386/386/386 20/20/20
f 343/343/343 344/344/344 8/8/8
f 385/385/385 154/154/154 158/158/158
f 386/386/386 349/349/349 353/353/353
f 345/345/345 431/431/431 154/154/154
f 345/345/345 154/154/154 385/385/385
f 4/4/4 146/146/146 432/432/432
f 4/4/4 432/432/432 5/5/5
f 143/143/143 4/4/4 1/1/1
f 351/351/351 433/433/433 434/434/434
f 139/139/139 340/340/340 137/137/137
f 355/355/355 434/434/434 433/433/433
f 355/355/355 433/433/433 356/356/356
f 429/429/429 174/174/174 340/340/340
f 429/429/429 340/340/340 139/139/139
f 127/127/127 361/361/361 125/125/125
f 296/296/296 435/435/435 123/123/123
f 436/436/436 365/365/365 108/108/108
f 119/119/119 366/366/366 365/365/365
f 119/119/119 365/365/365 437/437/437
f 104/104/104 381/381/381 115/115/115
f 129/129/129 128/128/128 380/380/380
f 108/108/108 121/121/121 109/109/109
f 126/126/126 101/101/101 372/372/372
f 126/126/126 372/372/372 114/114/114
f 107/107/107 379/379/379 173/173/173
f 107/107/107 173/173/173 438/438/438
f 376/376/376 100/100/100 439/439/439
f 173/173/173 379/379/379 378/378/378
f 173/173/173 378/378/378 377/377/377
f 95/95/95 376/376/376 439/439/439
f 95/95/95 439/439/439 96/96/96
f 440/440/440 330/330/330 182/182/182
f 440/440/440 182/182/182 375/375/375
f 101/101/101 103/103/103 172/172/172
f 101/101/101 172/172/172 372/372/372
f 374/374/374 441/441/441 440/440/440
f 369/369/369 370/370/370 359/359/359
f 370/370/370 360/360/360 359/359/359
f 102/102/102 442/442/442 104/104/104
f 102/102/102 104/104/104 107/107/107
f 102/102/102 107/107/107 438/438/438
f 119/119/119 105/105/105 367/367/367
f 181/181/181 180/180/180 364/364/364
f 181/181/181 364/364/364 366/366/366
f 122/122/122 394/394/394 120/120/120
f 362/362/362 131/131/131 130/130/130
f 362/362/362 130/130/130 363/363/363
f 131/131/131 362/362/362 132/132/132
f 356/356/356 134/134/134 384/384/384
f 356/356/356 384/384/384 357/357/357
f 340/340/340 169/169/169 137/137/137
f 141/141/141 351/351/351 142/142/142
f 434/434/434 348/348/348 347/347/347
f 434/434/434 347/347/347 350/350/350
f 347/347/347 147/147/147 145/145/145
f 347/347/347 145/145/145 144/144/144
f 346/346/346 149/149/149 385/385/385
f 150/150/150 148/148/148 147/147/147
f 155/155/155 138/138/138 137/137/137
f 155/155/155 137/137/137 152/152/152
f 158/158/158 241/241/241 385/385/385
f 16/16/16 387/387/387 155/155/155
f 36/36/36 22/22/22 443/443/443
f 164/164/164 443/443/443 165/165/165
f 389/389/389 341/341/341 163/163/163
f 444/444/444 391/391/391 339/339/339
f 444/444/444 339/339/339 445/445/445
f 390/390/390 446/446/446 430/430/430
f 390/390/390 430/430/430 162/162/162
f 377/377/377 445/445/445 339/339/339
f 177/177/177 118/118/118 117/117/117
f 177/177/177 117/117/117 392/392/392
f 338/338/338 337/337/337 394/394/394
f 338/338/338 394/394/394 447/447/447
f 202/202/202 333/333/333 396/396/396
f 202/202/202 396/396/396 448/448/448
f 189/189/189 186/186/186 185/185/185
f 189/189/189 185/185/185 393/393/393
f 329/329/329 330/330/330 440/440/440
f 392/392/392 326/326/326 328/328/328
f 392/392/392 328/328/328 448/448/448
f 324/324/324 203/203/203 328/328/328
f 324/324/324 328/328/328 325/325/325
f 200/200/200 90/90/90 55/55/55
f 322/322/322 195/195/195 192/192/192
f 449/449/449 450/450/450 419/419/419
f 449/449/449 419/419/419 261/261/261
f 392/392/392 196/196/196 326/326/326
f 213/213/213 91/91/91 93/93/93
f 231/231/231 223/223/223 247/247/247
f 223/223/223 317/317/317 247/247/247
f 219/219/219 316/316/316 217/217/217
f 220/220/220 227/227/227 221/221/221
f 216/216/216 225/225/225 224/224/224
f 400/400/400 401/401/401 315/315/315
f 40/40/40 27/27/27 219/219/219
f 40/40/40 219/219/219 218/218/218
f 230/230/230 236/236/236 15/15/15
f 232/232/232 403/403/403 312/312/312
f 232/232/232 312/312/312 451/451/451
f 230/230/230 403/403/403 404/404/404
f 308/308/308 307/307/307 238/238/238
f 308/308/308 238/238/238 424/424/424
f 243/243/243 306/306/306 239/239/239
f 3/3/3 242/242/242 244/244/244
f 405/405/405 305/305/305 423/423/423
f 248/248/248 404/404/404 249/249/249
f 250/250/250 133/133/133 136/136/136
f 250/250/250 136/136/136 302/302/302
f 258/258/258 289/289/289 416/416/416
f 258/258/258 416/416/416 255/255/255
f 258/258/258 255/255/255 254/254/254
f 299/299/299 287/287/287 414/414/414
f 410/410/410 124/124/124 435/435/435
f 419/419/419 259/259/259 261/261/261
f 117/117/117 266/266/266 292/292/292
f 421/421/421 413/413/413 269/269/269
f 112/112/112 319/319/319 298/298/298
f 112/112/112 298/298/298 113/113/113
f 207/207/207 260/260/260 412/412/412
f 268/268/268 269/269/269 273/273/273
f 268/268/268 273/273/273 415/415/415
f 282/282/282 281/281/281 271/271/271
f 194/194/194 193/193/193 286/286/286
f 194/194/194 286/286/286 323/323/323
f 93/93/93 272/272/272 281/281/281
f 283/283/283 298/298/298 319/319/319
f 283/283/283 319/319/319 318/318/318
f 414/414/414 287/287/287 275/275/275
f 290/290/290 417/417/417 413/413/413
f 413/413/413 417/417/417 270/270/270
f 413/413/413 270/270/270 269/269/269
f 267/267/267 266/266/266 293/293/293
f 262/262/262 265/265/265 420/420/420
f 294/294/294 267/267/267 293/293/293
f 295/295/295 299/299/299 296/296/296
f 113/113/113 287/287/287 295/295/295
f 300/300/300 255/255/255 416/416/416
f 300/300/300 416/416/416 277/277/277
f 452/452/452 251/251/251 250/250/250
f 452/452/452 250/250/250 302/302/302
f 140/140/140 1/1/1 246/246/246
f 305/305/305 244/244/244 242/242/242
f 306/306/306 3/3/3 5/5/5
f 306/306/306 5/5/5 432/432/432
f 451/451/451 424/424/424 238/238/238
f 451/451/451 238/238/238 310/310/310
f 407/407/407 237/237/237 236/236/236
f 314/314/314 310/310/310 238/238/238
f 18/18/18 14/14/14 312/312/312
f 38/38/38 222/222/222 221/221/221
f 38/38/38 221/221/221 425/425/425
f 233/233/233 38/38/38 39/39/39
f 233/233/233 39/39/39 214/214/214
f 400/400/400 227/227/227 226/226/226
f 400/400/400 226/226/226 401/401/401
f 224/224/224 427/427/427 223/223/223
f 218/218/218 217/217/217 313/313/313
f 445/445/445 92/92/92 91/91/91
f 319/319/319 253/253/253 252/252/252
f 206/206/206 449/449/449 261/261/261
f 206/206/206 261/261/261 207/207/207
f 58/58/58 204/204/204 59/59/59
f 324/324/324 200/200/200 204/204/204
f 324/324/324 204/204/204 203/203/203
f 412/412/412 418/418/418 195/195/195
f 437/437/437 105/105/105 119/119/119
f 436/436/436 329/329/329 440/440/440
f 188/188/188 371/371/371 186/186/186
f 188/188/188 186/186/186 189/189/189
f 98/98/98 376/376/376 375/375/375
f 176/176/176 178/178/178 181/181/181
f 176/176/176 181/181/181 118/118/118
f 371/371/371 428/428/428 187/187/187
f 371/371/371 187/187/187 186/186/186
f 111/111/111 354/354/354 357/357/357
f 112/112/112 111/111/111 384/384/384
f 171/171/171 430/430/430 446/446/446
f 161/161/161 156/156/156 388/388/388
f 427/427/427 170/170/170 391/391/391
f 162/162/162 430/430/430 342/342/342
f 162/162/162 342/342/342 163/163/163
f 158/158/158 224/224/224 426/426/426
f 22/22/22 25/25/25 165/165/165
f 165/165/165 443/443/443 22/22/22
f 12/12/12 8/8/8 344/344/344
f 12/12/12 344/344/344 150/150/150
f 353/353/353 138/138/138 155/155/155
f 431/431/431 152/152/152 154/154/154
f 145/145/145 147/147/147 346/346/346
f 349/349/349 147/147/147 347/347/347
f 141/141/141 135/135/135 433/433/433
f 141/141/141 433/433/433 351/351/351
f 352/352/352 348/348/348 434/434/434
f 352/352/352 434/434/434 355/355/355
f 352/352/352 354/354/354 429/429/429
f 352/352/352 429/429/429 139/139/139
f 383/383/383 358/358/358 360/360/360
f 127/127/127 296/296/296 361/361/361
f 293/293/293 367/367/367 116/116/116
f 180/180/180 447/447/447 364/364/364
f 367/367/367 293/293/293 119/119/119
f 382/382/382 381/381/381 104/104/104
f 382/382/382 104/104/104 442/442/442
f 359/359/359 381/381/381 368/368/368
f 126/126/126 125/125/125 370/370/370
f 105/105/105 441/441/441 374/374/374
f 105/105/105 374/374/374 106/106/106
f 103/103/103 102/102/102 438/438/438
f 330/330/330 191/191/191 183/183/183
f 330/330/330 183/183/183 182/182/182
f 96/96/96 439/439/439 84/84/84
f 96/96/96 84/84/84 86/86/86
f 378/378/378 97/97/97 82/82/82
f 378/378/378 82/82/82 81/81/81
f 439/439/439 100/100/100 85/85/85
f 439/439/439 85/85/85 84/84/84
f 44/44/44 47/47/47 85/85/85
f 44/44/44 85/85/85 100/100/100
f 438/438/438 173/173/173 103/103/103
f 173/173/173 172/172/172 103/103/103
f 114/114/114 372/372/372 373/373/373
f 114/114/114 373/373/373 111/111/111
f 121/121/121 120/120/120 109/109/109
f 380/380/380 363/363/363 130/130/130
f 380/380/380 130/130/130 129/129/129
f 102/102/102 368/368/368 442/442/442
f 437/437/437 441/441/441 105/105/105
f 119/119/119 118/118/118 181/181/181
f 116/116/116 124/124/124 293/293/293
f 127/127/127 297/297/297 296/296/296
f 126/126/126 114/114/114 113/113/113
f 126/126/126 113/113/113 297/297/297
f 132/132/132 383/383/383 360/360/360
f 132/132/132 360/360/360 128/128/128
f 356/356/356 433/433/433 135/135/135
f 356/356/356 135/135/135 134/134/134
f 140/140/140 142/142/142 1/1/1
f 350/350/350 347/347/347 144/144/144
f 145/145/145 346/346/346 146/146/146
f 149/149/149 148/148/148 345/345/345
f 149/149/149 345/345/345 385/385/385
f 387/387/387 353/353/353 155/155/155
f 155/155/155 152/152/152 431/431/431
f 155/155/155 431/431/431 343/343/343
f 153/153/153 36/36/36 443/443/443
f 153/153/153 443/443/443 164/164/164
f 37/37/37 446/446/446 390/390/390
f 37/37/37 390/390/390 42/42/42
f 163/163/163 341/341/341 161/161/161
f 427/427/427 391/391/391 444/444/444
f 166/166/166 165/165/165 157/157/157
f 171/171/171 446/446/446 168/168/168
f 112/112/112 384/384/384 301/301/301
f 373/373/373 172/172/172 174/174/174
f 373/373/373 174/174/174 429/429/429
f 175/175/175 184/184/184 187/187/187
f 175/175/175 187/187/187 428/428/428
f 175/175/175 428/428/428 335/335/335
f 393/393/393 185/185/185 177/177/177
f 179/179/179 338/338/338 447/447/447
f 179/179/179 447/447/447 180/180/180
f 98/98/98 375/375/375 182/182/182
f 99/99/99 183/183/183 395/395/395
f 99/99/99 395/395/395 331/331/331
f 436/436/436 440/440/440 441/441/441
f 393/393/393 392/392/392 448/448/448
f 393/393/393 448/448/448 396/396/396
f 195/195/195 285/285/285 193/193/193
f 397/397/397 327/327/327 326/326/326
f 397/397/397 326/326/326 199/199/199
f 203/203/203 202/202/202 448/448/448
f 203/203/203 448/448/448 328/328/328
f 450/450/450 453/453/453 420/420/420
f 450/450/450 420/420/420 419/419/419
f 292/292/292 196/196/196 392/392/392
f 292/292/292 392/392/392 117/117/117
f 91/91/91 213/213/213 445/445/445
f 214/214/214 313/313/313 402/402/402
f 214/214/214 402/402/402 215/215/215
f 317/317/317 444/444/444 445/445/445
f 317/317/317 445/445/445 213/213/213
f 315/315/315 401/401/401 316/316/316
f 221/221/221 228/228/228 425/425/425
f 30/30/30 228/228/228 31/31/31
f 30/30/30 425/425/425 228/228/228
f 230/230/230 19/19/19 21/21/21
f 426/426/426 314/314/314 238/238/238
f 426/426/426 238/238/238 241/241/241
f 407/407/407 236/236/236 230/230/230
f 451/451/451 312/312/312 311/311/311
f 451/451/451 311/311/311 424/424/424
f 239/239/239 306/306/306 432/432/432
f 239/239/239 432/432/432 240/240/240
f 246/246/246 1/1/1 244/244/244
f 302/302/302 245/245/245 405/405/405
f 302/302/302 405/405/405 452/452/452
f 422/422/422 406/406/406 408/408/408
f 422/422/422 408/408/408 423/423/423
f 320/320/320 406/406/406 248/248/248
f 320/320/320 248/248/248 321/321/321
f 277/277/277 276/276/276 409/409/409
f 256/256/256 299/299/299 414/414/414
f 256/256/256 414/414/414 257/257/257
f 409/409/409 421/421/421 410/410/410
f 259/259/259 265/265/265 264/264/264
f 259/259/259 264/264/264 411/411/411
f 266/266/266 117/117/117 293/293/293
f 269/269/269 268/268/268 267/267/267
f 276/276/276 275/275/275 290/290/290
f 414/414/414 275/275/275 274/274/274
f 278/278/278 268/268/268 415/415/415
f 278/278/278 415/415/415 279/279/279
f 281/281/281 272/272/272 271/271/271
f 280/280/280 279/279/279 76/76/76
f 280/280/280 76/76/76 75/75/75
f 88/88/88 273/273/273 272/272/272
f 88/88/88 272/272/272 93/93/93
f 282/282/282 287/287/287 298/298/298
f 282/282/282 298/298/298 283/283/283
f 412/412/412 208/208/208 207/207/207
f 289/289/289 288/288/288 416/416/416
f 421/421/421 269/269/269 294/294/294
f 264/264/264 266/266/266 291/291/291
f 264/264/264 291/291/291 411/411/411
f 418/418/418 412/412/412 411/411/411
f 296/296/296 410/410/410 435/435/435
f 299/299/299 295/295/295 287/287/287
f 212/212/212 321/321/321 248/248/248
f 212/212/212 248/248/248 247/247/247
f 423/423/423 408/408/408 251/251/251
f 423/423/423 251/251/251 452/452/452
f 303/303/303 140/140/140 245/245/245
f 423/423/423 452/452/452 405/405/405
f 237/237/237 304/304/304 234/234/234
f 239/239/239 234/234/234 243/243/243
f 451/451/451 310/310/310 232/232/232
f 404/404/404 407/407/407 230/230/230
f 14/14/14 11/11/11 309/309/309
f 14/14/14 309/309/309 311/311/311
f 222/222/222 310/310/310 314/314/314
f 222/222/222 314/314/314 220/220/220
f 214/214/214 39/39/39 43/43/43
f 214/214/214 43/43/43 313/313/313
f 401/401/401 217/217/217 316/316/316
f 427/427/427 444/444/444 317/317/317
f 400/400/400 315/315/315 229/229/229
f 402/402/402 313/313/313 217/217/217
f 112/112/112 301/301/301 253/253/253
f 284/284/284 318/318/318 321/321/321
f 284/284/284 321/321/321 212/212/212
f 211/211/211 399/399/399 398/398/398
f 211/211/211 398/398/398 453/453/453
f 211/211/211 453/453/453 450/450/450
f 211/211/211 450/450/450 449/449/449
f 211/211/211 449/449/449 206/206/206
f 196/196/196 199/199/199 326/326/326
f 453/453/453 398/398/398 262/262/262
f 453/453/453 262/262/262 420/420/420
f 89/89/89 286/286/286 280/280/280
f 323/323/323 90/90/90 200/200/200
f 323/323/323 200/200/200 324/324/324
f 418/418/418 278/278/278 285/285/285
f 291/291/291 266/266/266 268/268/268
f 108/108/108 329/329/329 436/436/436
f 331/331/331 395/395/395 333/333/333
f 331/331/331 333/333/333 332/332/332
f 201/201/201 58/58/58 332/332/332
f 336/336/336 334/334/334 109/109/109
f 336/336/336 109/109/109 120/120/120
f 111/111/111 357/357/357 384/384/384
f 377/377/377 92/92/92 445/445/445
f 388/388/388 390/390/390 161/161/161
f 224/224/224 170/170/170 427/427/427
f 167/167/167 166/166/166 163/163/163
f 167/167/167 163/163/163 342/342/342
f 36/36/36 168/168/168 446/446/446
f 36/36/36 446/446/446 37/37/37
f 154/154/154 153/153/153 159/159/159
f 154/154/154 159/159/159 158/158/158
f 8/8/8 7/7/7 343/343/343
f 158/158/158 426/426/426 241/241/241
f 353/353/353 387/387/387 386/386/386
f 343/343/343 431/431/431 345/345/345
f 343/343/343 345/345/345 344/344/344
f 146/146/146 346/346/346 240/240/240
f 146/146/146 240/240/240 432/432/432
f 142/142/142 143/143/143 1/1/1
f 351/351/351 434/434/434 350/350/350
f 303/303/303 141/141/141 140/140/140
f 352/352/352 353/353/353 349/349/349
f 352/352/352 349/349/349 348/348/348
f 354/354/354 352/352/352 355/355/355
f 358/358/358 115/115/115 381/381/381
f 358/358/358 381/381/381 359/359/359
f 296/296/296 358/358/358 383/383/383
f 296/296/296 383/383/383 361/361/361
f 123/123/123 435/435/435 124/124/124
f 447/447/447 394/394/394 122/122/122
f 447/447/447 122/122/122 364/364/364
f 437/437/437 365/365/365 436/436/436
f 437/437/437 436/436/436 441/441/441
f 368/368/368 382/382/382 442/442/442
f 380/380/380 128/128/128 360/360/360
f 380/380/380 360/360/360 370/370/370
f 440/440/440 375/375/375 374/374/374
f 101/101/101 369/369/369 368/368/368
f 101/101/101 368/368/368 102/102/102
f 106/106/106 374/374/374 95/95/95
f 106/106/106 95/95/95 94/94/94
f 376/376/376 98/98/98 100/100/100
f 379/379/379 94/94/94 97/97/97
f 379/379/379 97/97/97 378/378/378
# 902 faces

